G75*
%MOIN*%
%OFA0B0*%
%FSLAX25Y25*%
%IPPOS*%
%LPD*%
%AMOC8*
5,1,8,0,0,1.08239X$1,22.5*
%
%ADD10R,0.09843X0.03150*%
%ADD11C,0.01600*%
D10*
X0007194Y0014811D03*
X0007194Y0022685D03*
X0007194Y0030559D03*
X0007194Y0038433D03*
X0007194Y0046307D03*
X0007194Y0054181D03*
X0007194Y0062055D03*
X0007194Y0069929D03*
X0037194Y0069929D03*
X0037194Y0062055D03*
X0037194Y0054181D03*
X0037194Y0046307D03*
X0037194Y0038433D03*
X0037194Y0030559D03*
X0037194Y0022685D03*
X0037194Y0014811D03*
D11*
X0011643Y0016150D02*
X0011643Y0012213D01*
X0035265Y0012213D01*
X0035265Y0016150D01*
X0011643Y0016150D01*
X0011643Y0015158D02*
X0035265Y0015158D01*
X0035265Y0013560D02*
X0011643Y0013560D01*
X0011643Y0020087D02*
X0011643Y0024024D01*
X0035265Y0024024D01*
X0035265Y0020087D01*
X0011643Y0020087D01*
X0011643Y0021552D02*
X0035265Y0021552D01*
X0035265Y0023151D02*
X0011643Y0023151D01*
X0011643Y0027961D02*
X0011643Y0031898D01*
X0035265Y0031898D01*
X0035265Y0027961D01*
X0011643Y0027961D01*
X0011643Y0029545D02*
X0035265Y0029545D01*
X0035265Y0031143D02*
X0011643Y0031143D01*
X0011643Y0035835D02*
X0011643Y0039772D01*
X0035265Y0039772D01*
X0035265Y0035835D01*
X0011643Y0035835D01*
X0011643Y0035939D02*
X0035265Y0035939D01*
X0035265Y0037537D02*
X0011643Y0037537D01*
X0011643Y0039136D02*
X0035265Y0039136D01*
X0035265Y0043709D02*
X0011643Y0043709D01*
X0011643Y0047646D01*
X0035265Y0047646D01*
X0035265Y0043709D01*
X0035265Y0043931D02*
X0011643Y0043931D01*
X0011643Y0045530D02*
X0035265Y0045530D01*
X0035265Y0047128D02*
X0011643Y0047128D01*
X0011643Y0051583D02*
X0011643Y0055520D01*
X0035265Y0055520D01*
X0035265Y0051583D01*
X0011643Y0051583D01*
X0011643Y0051924D02*
X0035265Y0051924D01*
X0035265Y0053522D02*
X0011643Y0053522D01*
X0011643Y0055121D02*
X0035265Y0055121D01*
X0035265Y0059457D02*
X0011643Y0059457D01*
X0011643Y0063394D01*
X0035265Y0063394D01*
X0035265Y0059457D01*
X0035265Y0059916D02*
X0011643Y0059916D01*
X0011643Y0061515D02*
X0035265Y0061515D01*
X0035265Y0063114D02*
X0011643Y0063114D01*
X0011643Y0067331D02*
X0011643Y0071268D01*
X0035265Y0071268D01*
X0035265Y0067331D01*
X0011643Y0067331D01*
X0011643Y0067909D02*
X0035265Y0067909D01*
X0035265Y0069508D02*
X0011643Y0069508D01*
X0011643Y0071106D02*
X0035265Y0071106D01*
M02*
