G04 #@! TF.FileFunction,Copper,L1,Top,Signal*
%FSLAX46Y46*%
G04 Gerber Fmt 4.6, Leading zero omitted, Abs format (unit mm)*
G04 Created by KiCad (PCBNEW 4.0.1+dfsg1-stable) date Wed 30 Mar 2016 05:17:46 PM PDT*
%MOMM*%
G01*
G04 APERTURE LIST*
%ADD10C,0.100000*%
%ADD11R,0.749300X0.398780*%
%ADD12R,0.750000X0.800000*%
%ADD13R,0.800000X0.750000*%
%ADD14R,0.450000X0.590000*%
%ADD15R,0.590000X0.450000*%
%ADD16R,1.000000X0.300000*%
%ADD17R,2.500000X2.500000*%
%ADD18R,2.032000X2.032000*%
%ADD19O,2.032000X2.032000*%
%ADD20R,2.032000X1.727200*%
%ADD21O,2.032000X1.727200*%
%ADD22R,0.800100X0.800100*%
%ADD23R,0.900000X0.500000*%
%ADD24R,0.500000X0.900000*%
%ADD25R,1.016000X0.305000*%
%ADD26C,0.600000*%
%ADD27C,0.250000*%
%ADD28C,0.254000*%
G04 APERTURE END LIST*
D10*
D11*
X153349960Y-98821240D03*
X153349960Y-98171000D03*
X153349960Y-97520760D03*
X151450040Y-97520760D03*
X151450040Y-98171000D03*
X151450040Y-98821240D03*
D12*
X137160000Y-100977000D03*
X137160000Y-102477000D03*
X132905500Y-102477000D03*
X132905500Y-100977000D03*
D13*
X141236000Y-101600000D03*
X142736000Y-101600000D03*
X138354500Y-107886500D03*
X136854500Y-107886500D03*
X141236000Y-103886000D03*
X142736000Y-103886000D03*
X147459000Y-99441000D03*
X148959000Y-99441000D03*
X145784000Y-108331000D03*
X144284000Y-108331000D03*
D14*
X129667000Y-107608000D03*
X129667000Y-105498000D03*
D15*
X143598000Y-99187000D03*
X145708000Y-99187000D03*
D16*
X132936000Y-106131000D03*
X132936000Y-105481000D03*
X132936000Y-104831000D03*
X132936000Y-104181000D03*
X138336000Y-106131000D03*
X138336000Y-105481000D03*
X138336000Y-104831000D03*
X138336000Y-104181000D03*
D11*
X157540960Y-98821240D03*
X157540960Y-98171000D03*
X157540960Y-97520760D03*
X155641040Y-97520760D03*
X155641040Y-98171000D03*
X155641040Y-98821240D03*
D17*
X147800000Y-94869000D03*
X144300000Y-94869000D03*
D18*
X132461000Y-96774000D03*
D19*
X135001000Y-96774000D03*
D20*
X163830000Y-93853000D03*
D21*
X163830000Y-96393000D03*
X163830000Y-98933000D03*
X163830000Y-101473000D03*
X163830000Y-104013000D03*
X163830000Y-106553000D03*
X163830000Y-109093000D03*
D22*
X149286000Y-105425240D03*
X147386000Y-105425240D03*
X148336000Y-107424220D03*
D23*
X134937500Y-102477000D03*
X134937500Y-100977000D03*
D24*
X145911000Y-103886000D03*
X144411000Y-103886000D03*
D23*
X132969000Y-109081000D03*
X132969000Y-107581000D03*
D24*
X145847500Y-101600000D03*
X144347500Y-101600000D03*
X142609000Y-106045000D03*
X141109000Y-106045000D03*
X144284000Y-106172000D03*
X145784000Y-106172000D03*
X148959000Y-101600000D03*
X147459000Y-101600000D03*
X152642000Y-101600000D03*
X151142000Y-101600000D03*
D25*
X151370000Y-104410000D03*
X151370000Y-104910000D03*
X151370000Y-105410000D03*
X151370000Y-105910000D03*
X151370000Y-106410000D03*
X155462000Y-104410000D03*
X155462000Y-104910000D03*
X155462000Y-105410000D03*
X155462000Y-105910000D03*
X155462000Y-106410000D03*
D26*
X160845500Y-100012500D03*
X153098500Y-96964500D03*
X157480000Y-109220000D03*
X151384000Y-109220000D03*
X128016000Y-99568000D03*
X128016000Y-111760000D03*
X139192000Y-111760000D03*
X151384000Y-111760000D03*
X163576000Y-111760000D03*
X167640000Y-108712000D03*
X167640000Y-96520000D03*
X163576000Y-90424000D03*
X151384000Y-90424000D03*
X139192000Y-90424000D03*
X127508000Y-90424000D03*
X133096000Y-90424000D03*
X145288000Y-90424000D03*
X157480000Y-90424000D03*
X167640000Y-90424000D03*
X167640000Y-102616000D03*
X167640000Y-111760000D03*
X157480000Y-111760000D03*
X145288000Y-111760000D03*
X133096000Y-111760000D03*
X128016000Y-105664000D03*
X127508000Y-94996000D03*
X135636000Y-107886500D03*
X135636000Y-105156000D03*
X142811500Y-98107500D03*
X145732500Y-98107500D03*
X137858500Y-98044000D03*
X148971000Y-97853500D03*
X150177500Y-102552500D03*
X145784000Y-106172000D03*
X144462500Y-102933500D03*
X139192000Y-102933500D03*
X131699000Y-106553000D03*
X139763500Y-106131000D03*
X143573500Y-106108500D03*
X145859500Y-102616000D03*
X143256000Y-105219500D03*
X131318000Y-100901500D03*
X141795500Y-97282000D03*
X138366500Y-101790500D03*
X159829500Y-106743500D03*
X159829500Y-102552500D03*
X158242000Y-102552500D03*
X155638500Y-102552500D03*
X152844500Y-93789500D03*
X151193500Y-95440500D03*
X153479500Y-95059500D03*
X152336500Y-96139000D03*
X157480000Y-103949500D03*
X157099000Y-105727500D03*
X158940500Y-97536000D03*
X158686500Y-106299000D03*
D27*
X153349960Y-98821240D02*
X154480260Y-98821240D01*
X146522500Y-92646500D02*
X144300000Y-94869000D01*
X149860000Y-92646500D02*
X146522500Y-92646500D01*
X154495500Y-97282000D02*
X149860000Y-92646500D01*
X154495500Y-98806000D02*
X154495500Y-97282000D01*
X154480260Y-98821240D02*
X154495500Y-98806000D01*
X135001000Y-96774000D02*
X140525500Y-96774000D01*
X142430500Y-94869000D02*
X144300000Y-94869000D01*
X140525500Y-96774000D02*
X142430500Y-94869000D01*
X135001000Y-96774000D02*
X135001000Y-100913500D01*
X135001000Y-100913500D02*
X135064500Y-100977000D01*
X135064500Y-100977000D02*
X137160000Y-100977000D01*
X157540960Y-98171000D02*
X158369000Y-98171000D01*
X160210500Y-100012500D02*
X160845500Y-100012500D01*
X158369000Y-98171000D02*
X160210500Y-100012500D01*
X153349960Y-98171000D02*
X153349960Y-97520760D01*
X153349960Y-97520760D02*
X153098500Y-97269300D01*
X153098500Y-97269300D02*
X153098500Y-96964500D01*
X157480000Y-109093000D02*
X157480000Y-109220000D01*
X151370000Y-108952000D02*
X151370000Y-109206000D01*
X151370000Y-109206000D02*
X151384000Y-109220000D01*
X128016000Y-99568000D02*
X128016000Y-95504000D01*
X128016000Y-105664000D02*
X128016000Y-111760000D01*
X133096000Y-111760000D02*
X139192000Y-111760000D01*
X145288000Y-111760000D02*
X151384000Y-111760000D01*
X157480000Y-111760000D02*
X163576000Y-111760000D01*
X167640000Y-111760000D02*
X167640000Y-108712000D01*
X167640000Y-102616000D02*
X167640000Y-96520000D01*
X167640000Y-90424000D02*
X163576000Y-90424000D01*
X157480000Y-90424000D02*
X151384000Y-90424000D01*
X145288000Y-90424000D02*
X139192000Y-90424000D01*
X133096000Y-90424000D02*
X127508000Y-90424000D01*
X132461000Y-95377000D02*
X127508000Y-90424000D01*
X132461000Y-96774000D02*
X132461000Y-95377000D01*
X139192000Y-90424000D02*
X133096000Y-90424000D01*
X151384000Y-90424000D02*
X145288000Y-90424000D01*
X163576000Y-90424000D02*
X157480000Y-90424000D01*
X167640000Y-96520000D02*
X167640000Y-90424000D01*
X167640000Y-108712000D02*
X167640000Y-102616000D01*
X163576000Y-111760000D02*
X167640000Y-111760000D01*
X151384000Y-111760000D02*
X157480000Y-111760000D01*
X139192000Y-111760000D02*
X145288000Y-111760000D01*
X128016000Y-111760000D02*
X133096000Y-111760000D01*
X128016000Y-99568000D02*
X128016000Y-105664000D01*
X128016000Y-95504000D02*
X127508000Y-94996000D01*
X136854500Y-107886500D02*
X135636000Y-107886500D01*
X132936000Y-104831000D02*
X135311000Y-104831000D01*
X135311000Y-104831000D02*
X135636000Y-105156000D01*
X132461000Y-96774000D02*
X132461000Y-99441000D01*
X132905500Y-99885500D02*
X132905500Y-100977000D01*
X132461000Y-99441000D02*
X132905500Y-99885500D01*
X142811500Y-98107500D02*
X137922000Y-98107500D01*
X145708000Y-99187000D02*
X145708000Y-98132000D01*
X145708000Y-98132000D02*
X145732500Y-98107500D01*
X142811500Y-98107500D02*
X145732500Y-98107500D01*
X137922000Y-98107500D02*
X137858500Y-98044000D01*
X148959000Y-99441000D02*
X148959000Y-97865500D01*
X148959000Y-97865500D02*
X148971000Y-97853500D01*
X151142000Y-101600000D02*
X151130000Y-101600000D01*
X151130000Y-101600000D02*
X150177500Y-102552500D01*
X163830000Y-109093000D02*
X157480000Y-109093000D01*
X157480000Y-109093000D02*
X151511000Y-109093000D01*
X151370000Y-108952000D02*
X151370000Y-106410000D01*
X151511000Y-109093000D02*
X151370000Y-108952000D01*
X132905500Y-102477000D02*
X134937500Y-102477000D01*
X132905500Y-102477000D02*
X132905500Y-104150500D01*
X132905500Y-104150500D02*
X132936000Y-104181000D01*
X145022000Y-102997000D02*
X145911000Y-103886000D01*
X144526000Y-102997000D02*
X145022000Y-102997000D01*
X144462500Y-102933500D02*
X144526000Y-102997000D01*
X132936000Y-106131000D02*
X132121000Y-106131000D01*
X140525500Y-101600000D02*
X141236000Y-101600000D01*
X139192000Y-102933500D02*
X140525500Y-101600000D01*
X132121000Y-106131000D02*
X131699000Y-106553000D01*
X141236000Y-101600000D02*
X141236000Y-99199000D01*
X141236000Y-99199000D02*
X141248000Y-99187000D01*
X141248000Y-99187000D02*
X143598000Y-99187000D01*
X129667000Y-107608000D02*
X132942000Y-107608000D01*
X132942000Y-107608000D02*
X132936000Y-107602000D01*
X132936000Y-107602000D02*
X132936000Y-106131000D01*
X144284000Y-106172000D02*
X143637000Y-106172000D01*
X143573500Y-106108500D02*
X143637000Y-106172000D01*
X138336000Y-106131000D02*
X139763500Y-106131000D01*
X139763500Y-106131000D02*
X141023000Y-106131000D01*
X141023000Y-106131000D02*
X141109000Y-106045000D01*
X138336000Y-106131000D02*
X138336000Y-107868000D01*
X138336000Y-107868000D02*
X138354500Y-107886500D01*
X141236000Y-103886000D02*
X141236000Y-103810500D01*
X141236000Y-103810500D02*
X142303500Y-102743000D01*
X143204500Y-102743000D02*
X144347500Y-101600000D01*
X142303500Y-102743000D02*
X143204500Y-102743000D01*
X141236000Y-103886000D02*
X141236000Y-103683500D01*
X138336000Y-104831000D02*
X139199500Y-104831000D01*
X140144500Y-103886000D02*
X141236000Y-103886000D01*
X139199500Y-104831000D02*
X140144500Y-103886000D01*
X142736000Y-103886000D02*
X144411000Y-103886000D01*
X138336000Y-105481000D02*
X139438500Y-105481000D01*
X141656500Y-104965500D02*
X142736000Y-103886000D01*
X139954000Y-104965500D02*
X141656500Y-104965500D01*
X139438500Y-105481000D02*
X139954000Y-104965500D01*
X144284000Y-103580500D02*
X144284000Y-103886000D01*
X145847500Y-101600000D02*
X147459000Y-101600000D01*
X142609000Y-106045000D02*
X142609000Y-105231500D01*
X145847500Y-102604000D02*
X145847500Y-101600000D01*
X145859500Y-102616000D02*
X145847500Y-102604000D01*
X142621000Y-105219500D02*
X143256000Y-105219500D01*
X142609000Y-105231500D02*
X142621000Y-105219500D01*
X132969000Y-109081000D02*
X139573000Y-109081000D01*
X139573000Y-109081000D02*
X142609000Y-106045000D01*
X151370000Y-104910000D02*
X150439500Y-104910000D01*
X150439500Y-104910000D02*
X149606000Y-104076500D01*
X149606000Y-104076500D02*
X147510500Y-104076500D01*
X147510500Y-104076500D02*
X147459000Y-104025000D01*
X147459000Y-104025000D02*
X147459000Y-101600000D01*
X147459000Y-99441000D02*
X147459000Y-100457000D01*
X147459000Y-100457000D02*
X147459000Y-101600000D01*
X151370000Y-105910000D02*
X150439500Y-105910000D01*
X148925280Y-107424220D02*
X148336000Y-107424220D01*
X150439500Y-105910000D02*
X148925280Y-107424220D01*
X145784000Y-108331000D02*
X148336000Y-108331000D01*
X148336000Y-108331000D02*
X148336000Y-107424220D01*
X147386000Y-105425240D02*
X149286000Y-105425240D01*
X149286000Y-105425240D02*
X149301240Y-105410000D01*
X149301240Y-105410000D02*
X151370000Y-105410000D01*
X144284000Y-108331000D02*
X144335500Y-108331000D01*
X144335500Y-108331000D02*
X145415000Y-107251500D01*
X145415000Y-107251500D02*
X147193000Y-107251500D01*
X147193000Y-107251500D02*
X147386000Y-107058500D01*
X147386000Y-107058500D02*
X147386000Y-105425240D01*
X147800000Y-94869000D02*
X147800000Y-97310000D01*
X129667000Y-102552500D02*
X129667000Y-105498000D01*
X131318000Y-100901500D02*
X129667000Y-102552500D01*
X147772000Y-97282000D02*
X141795500Y-97282000D01*
X147800000Y-97310000D02*
X147772000Y-97282000D01*
X132936000Y-105481000D02*
X129684000Y-105481000D01*
X129684000Y-105481000D02*
X129667000Y-105498000D01*
X138336000Y-104181000D02*
X138336000Y-101821000D01*
X138336000Y-101821000D02*
X138366500Y-101790500D01*
X155641040Y-98821240D02*
X155641040Y-102549960D01*
X160020000Y-106553000D02*
X163830000Y-106553000D01*
X159829500Y-106743500D02*
X160020000Y-106553000D01*
X158242000Y-102552500D02*
X159829500Y-102552500D01*
X155641040Y-102549960D02*
X155638500Y-102552500D01*
X163830000Y-93853000D02*
X152908000Y-93853000D01*
X152908000Y-93853000D02*
X152844500Y-93789500D01*
X151193500Y-95440500D02*
X150177500Y-96456500D01*
X150177500Y-96456500D02*
X150177500Y-98298000D01*
X148959000Y-101600000D02*
X148959000Y-101548500D01*
X148959000Y-101548500D02*
X150177500Y-100330000D01*
X150304500Y-98171000D02*
X151450040Y-98171000D01*
X150177500Y-98298000D02*
X150304500Y-98171000D01*
X150177500Y-100330000D02*
X150177500Y-98298000D01*
X151370000Y-104410000D02*
X150733000Y-104410000D01*
X148959000Y-103493000D02*
X148959000Y-101600000D01*
X148971000Y-103505000D02*
X148959000Y-103493000D01*
X149828000Y-103505000D02*
X148971000Y-103505000D01*
X150733000Y-104410000D02*
X149828000Y-103505000D01*
X151450040Y-98821240D02*
X152384760Y-98821240D01*
X162369500Y-96393000D02*
X163830000Y-96393000D01*
X161036000Y-95059500D02*
X162369500Y-96393000D01*
X153479500Y-95059500D02*
X161036000Y-95059500D01*
X152336500Y-98772980D02*
X152336500Y-96139000D01*
X152384760Y-98821240D02*
X152336500Y-98772980D01*
X155462000Y-104410000D02*
X153686000Y-104410000D01*
X151450040Y-100269040D02*
X151450040Y-98821240D01*
X151511000Y-100330000D02*
X151450040Y-100269040D01*
X153479500Y-100330000D02*
X151511000Y-100330000D01*
X153543000Y-100266500D02*
X153479500Y-100330000D01*
X153543000Y-104267000D02*
X153543000Y-100266500D01*
X153686000Y-104410000D02*
X153543000Y-104267000D01*
X155462000Y-105910000D02*
X156916500Y-105910000D01*
X157540960Y-103888540D02*
X157540960Y-98821240D01*
X157480000Y-103949500D02*
X157540960Y-103888540D01*
X156916500Y-105910000D02*
X157099000Y-105727500D01*
X163830000Y-101473000D02*
X160528000Y-101473000D01*
X160528000Y-101473000D02*
X157876240Y-98821240D01*
X157876240Y-98821240D02*
X157540960Y-98821240D01*
X158940500Y-97536000D02*
X159004000Y-97536000D01*
X160401000Y-98933000D02*
X163830000Y-98933000D01*
X159004000Y-97536000D02*
X160401000Y-98933000D01*
X155462000Y-106410000D02*
X158734000Y-106410000D01*
X158925260Y-97520760D02*
X157540960Y-97520760D01*
X158940500Y-97536000D02*
X158925260Y-97520760D01*
X158686500Y-106362500D02*
X158686500Y-106299000D01*
X158734000Y-106410000D02*
X158686500Y-106362500D01*
X155641040Y-98171000D02*
X156591000Y-98171000D01*
X156654500Y-98234500D02*
X156654500Y-104910000D01*
X156591000Y-98171000D02*
X156654500Y-98234500D01*
X156654500Y-104910000D02*
X156654500Y-104902000D01*
X156654500Y-104902000D02*
X156654500Y-104910000D01*
X155462000Y-104910000D02*
X156654500Y-104910000D01*
X156654500Y-104910000D02*
X159313500Y-104910000D01*
X159766000Y-104457500D02*
X163385500Y-104457500D01*
X159313500Y-104910000D02*
X159766000Y-104457500D01*
X163385500Y-104457500D02*
X163830000Y-104013000D01*
X155462000Y-105410000D02*
X152844500Y-105410000D01*
X152642000Y-105207500D02*
X152642000Y-101600000D01*
X152844500Y-105410000D02*
X152642000Y-105207500D01*
D28*
G36*
X169787500Y-114352000D02*
X124344500Y-114352000D01*
X124344500Y-105203000D01*
X128794560Y-105203000D01*
X128794560Y-105793000D01*
X128838838Y-106028317D01*
X128977910Y-106244441D01*
X129190110Y-106389431D01*
X129442000Y-106440440D01*
X129892000Y-106440440D01*
X130127317Y-106396162D01*
X130343441Y-106257090D01*
X130354435Y-106241000D01*
X130816150Y-106241000D01*
X130764162Y-106366201D01*
X130763838Y-106738167D01*
X130809220Y-106848000D01*
X130336246Y-106848000D01*
X130143890Y-106716569D01*
X129892000Y-106665560D01*
X129442000Y-106665560D01*
X129206683Y-106709838D01*
X128990559Y-106848910D01*
X128845569Y-107061110D01*
X128794560Y-107313000D01*
X128794560Y-107903000D01*
X128838838Y-108138317D01*
X128977910Y-108354441D01*
X129190110Y-108499431D01*
X129442000Y-108550440D01*
X129892000Y-108550440D01*
X130127317Y-108506162D01*
X130342027Y-108368000D01*
X132066814Y-108368000D01*
X131922569Y-108579110D01*
X131871560Y-108831000D01*
X131871560Y-109331000D01*
X131915838Y-109566317D01*
X132054910Y-109782441D01*
X132267110Y-109927431D01*
X132519000Y-109978440D01*
X133419000Y-109978440D01*
X133654317Y-109934162D01*
X133799095Y-109841000D01*
X139573000Y-109841000D01*
X139863839Y-109783148D01*
X140110401Y-109618401D01*
X140276776Y-109452026D01*
X162222642Y-109452026D01*
X162225291Y-109467791D01*
X162479268Y-109995036D01*
X162915680Y-110384954D01*
X163468087Y-110578184D01*
X163703000Y-110433924D01*
X163703000Y-109220000D01*
X163957000Y-109220000D01*
X163957000Y-110433924D01*
X164191913Y-110578184D01*
X164744320Y-110384954D01*
X165180732Y-109995036D01*
X165434709Y-109467791D01*
X165437358Y-109452026D01*
X165316217Y-109220000D01*
X163957000Y-109220000D01*
X163703000Y-109220000D01*
X162343783Y-109220000D01*
X162222642Y-109452026D01*
X140276776Y-109452026D01*
X142586362Y-107142440D01*
X142859000Y-107142440D01*
X143094317Y-107098162D01*
X143260775Y-106991049D01*
X143386701Y-107043338D01*
X143550631Y-107043481D01*
X143569910Y-107073441D01*
X143782110Y-107218431D01*
X144034000Y-107269440D01*
X144322258Y-107269440D01*
X144283138Y-107308560D01*
X143884000Y-107308560D01*
X143648683Y-107352838D01*
X143432559Y-107491910D01*
X143287569Y-107704110D01*
X143236560Y-107956000D01*
X143236560Y-108706000D01*
X143280838Y-108941317D01*
X143419910Y-109157441D01*
X143632110Y-109302431D01*
X143884000Y-109353440D01*
X144684000Y-109353440D01*
X144919317Y-109309162D01*
X145033978Y-109235380D01*
X145132110Y-109302431D01*
X145384000Y-109353440D01*
X146184000Y-109353440D01*
X146419317Y-109309162D01*
X146635441Y-109170090D01*
X146689481Y-109091000D01*
X148336000Y-109091000D01*
X148626839Y-109033148D01*
X148873401Y-108868401D01*
X149038148Y-108621839D01*
X149092297Y-108349616D01*
X149187491Y-108288360D01*
X149332481Y-108076160D01*
X149338931Y-108044308D01*
X149462681Y-107961621D01*
X150412888Y-107011414D01*
X150502302Y-107100827D01*
X150735691Y-107197500D01*
X151084250Y-107197500D01*
X151243000Y-107038750D01*
X151243000Y-106709940D01*
X151497000Y-106709940D01*
X151497000Y-107038750D01*
X151655750Y-107197500D01*
X152004309Y-107197500D01*
X152237698Y-107100827D01*
X152416327Y-106922199D01*
X152513000Y-106688810D01*
X152513000Y-106645000D01*
X152355886Y-106487886D01*
X152474431Y-106314390D01*
X152500032Y-106187968D01*
X152513000Y-106175000D01*
X152513000Y-106131190D01*
X152512013Y-106128806D01*
X152519948Y-106089622D01*
X152553660Y-106112148D01*
X152844500Y-106170000D01*
X154324279Y-106170000D01*
X154306560Y-106257500D01*
X154306560Y-106562500D01*
X154350838Y-106797817D01*
X154489910Y-107013941D01*
X154702110Y-107158931D01*
X154954000Y-107209940D01*
X155970000Y-107209940D01*
X156182263Y-107170000D01*
X158345963Y-107170000D01*
X158499701Y-107233838D01*
X158871667Y-107234162D01*
X158998852Y-107181610D01*
X159036383Y-107272443D01*
X159299173Y-107535692D01*
X159642701Y-107678338D01*
X160014667Y-107678662D01*
X160358443Y-107536617D01*
X160582451Y-107313000D01*
X162385352Y-107313000D01*
X162585585Y-107612670D01*
X162895069Y-107819461D01*
X162479268Y-108190964D01*
X162225291Y-108718209D01*
X162222642Y-108733974D01*
X162343783Y-108966000D01*
X163703000Y-108966000D01*
X163703000Y-108946000D01*
X163957000Y-108946000D01*
X163957000Y-108966000D01*
X165316217Y-108966000D01*
X165437358Y-108733974D01*
X165434709Y-108718209D01*
X165180732Y-108190964D01*
X164764931Y-107819461D01*
X165074415Y-107612670D01*
X165399271Y-107126489D01*
X165513345Y-106553000D01*
X165399271Y-105979511D01*
X165074415Y-105493330D01*
X164759634Y-105283000D01*
X165074415Y-105072670D01*
X165399271Y-104586489D01*
X165513345Y-104013000D01*
X165399271Y-103439511D01*
X165074415Y-102953330D01*
X164759634Y-102743000D01*
X165074415Y-102532670D01*
X165399271Y-102046489D01*
X165513345Y-101473000D01*
X165399271Y-100899511D01*
X165074415Y-100413330D01*
X164759634Y-100203000D01*
X165074415Y-99992670D01*
X165399271Y-99506489D01*
X165513345Y-98933000D01*
X165399271Y-98359511D01*
X165074415Y-97873330D01*
X164759634Y-97663000D01*
X165074415Y-97452670D01*
X165399271Y-96966489D01*
X165513345Y-96393000D01*
X165399271Y-95819511D01*
X165074415Y-95333330D01*
X165060087Y-95323757D01*
X165081317Y-95319762D01*
X165297441Y-95180690D01*
X165442431Y-94968490D01*
X165493440Y-94716600D01*
X165493440Y-92989400D01*
X165449162Y-92754083D01*
X165310090Y-92537959D01*
X165097890Y-92392969D01*
X164846000Y-92341960D01*
X162814000Y-92341960D01*
X162578683Y-92386238D01*
X162362559Y-92525310D01*
X162217569Y-92737510D01*
X162166560Y-92989400D01*
X162166560Y-93093000D01*
X153470352Y-93093000D01*
X153374827Y-92997308D01*
X153031299Y-92854662D01*
X152659333Y-92854338D01*
X152315557Y-92996383D01*
X152052308Y-93259173D01*
X151909662Y-93602701D01*
X151909646Y-93621344D01*
X150397401Y-92109099D01*
X150150839Y-91944352D01*
X149860000Y-91886500D01*
X146522500Y-91886500D01*
X146231661Y-91944352D01*
X145985099Y-92109099D01*
X145122638Y-92971560D01*
X143050000Y-92971560D01*
X142814683Y-93015838D01*
X142598559Y-93154910D01*
X142453569Y-93367110D01*
X142402560Y-93619000D01*
X142402560Y-94114558D01*
X142139661Y-94166852D01*
X141893099Y-94331599D01*
X140210698Y-96014000D01*
X136462283Y-96014000D01*
X136168433Y-95574222D01*
X135632810Y-95216330D01*
X135001000Y-95090655D01*
X134369190Y-95216330D01*
X134032999Y-95440966D01*
X134015327Y-95398302D01*
X133836699Y-95219673D01*
X133603310Y-95123000D01*
X132746750Y-95123000D01*
X132588000Y-95281750D01*
X132588000Y-96647000D01*
X132608000Y-96647000D01*
X132608000Y-96901000D01*
X132588000Y-96901000D01*
X132588000Y-98266250D01*
X132746750Y-98425000D01*
X133603310Y-98425000D01*
X133836699Y-98328327D01*
X134015327Y-98149698D01*
X134032999Y-98107034D01*
X134241000Y-98246016D01*
X134241000Y-100131034D01*
X134036059Y-100262910D01*
X133912576Y-100443633D01*
X133818827Y-100217302D01*
X133640199Y-100038673D01*
X133406810Y-99942000D01*
X133191250Y-99942000D01*
X133032500Y-100100750D01*
X133032500Y-100850000D01*
X133052500Y-100850000D01*
X133052500Y-101104000D01*
X133032500Y-101104000D01*
X133032500Y-101124000D01*
X132778500Y-101124000D01*
X132778500Y-101104000D01*
X132758500Y-101104000D01*
X132758500Y-100850000D01*
X132778500Y-100850000D01*
X132778500Y-100100750D01*
X132619750Y-99942000D01*
X132404190Y-99942000D01*
X132170801Y-100038673D01*
X131992173Y-100217302D01*
X131981604Y-100242818D01*
X131848327Y-100109308D01*
X131504799Y-99966662D01*
X131132833Y-99966338D01*
X130789057Y-100108383D01*
X130525808Y-100371173D01*
X130383162Y-100714701D01*
X130383121Y-100761577D01*
X129129599Y-102015099D01*
X128964852Y-102261661D01*
X128907000Y-102552500D01*
X128907000Y-104861203D01*
X128845569Y-104951110D01*
X128794560Y-105203000D01*
X124344500Y-105203000D01*
X124344500Y-97059750D01*
X130810000Y-97059750D01*
X130810000Y-97916309D01*
X130906673Y-98149698D01*
X131085301Y-98328327D01*
X131318690Y-98425000D01*
X132175250Y-98425000D01*
X132334000Y-98266250D01*
X132334000Y-96901000D01*
X130968750Y-96901000D01*
X130810000Y-97059750D01*
X124344500Y-97059750D01*
X124344500Y-95631691D01*
X130810000Y-95631691D01*
X130810000Y-96488250D01*
X130968750Y-96647000D01*
X132334000Y-96647000D01*
X132334000Y-95281750D01*
X132175250Y-95123000D01*
X131318690Y-95123000D01*
X131085301Y-95219673D01*
X130906673Y-95398302D01*
X130810000Y-95631691D01*
X124344500Y-95631691D01*
X124344500Y-86879500D01*
X125158500Y-86879500D01*
X125430205Y-86825454D01*
X125539389Y-86752500D01*
X169787500Y-86752500D01*
X169787500Y-114352000D01*
X169787500Y-114352000D01*
G37*
X169787500Y-114352000D02*
X124344500Y-114352000D01*
X124344500Y-105203000D01*
X128794560Y-105203000D01*
X128794560Y-105793000D01*
X128838838Y-106028317D01*
X128977910Y-106244441D01*
X129190110Y-106389431D01*
X129442000Y-106440440D01*
X129892000Y-106440440D01*
X130127317Y-106396162D01*
X130343441Y-106257090D01*
X130354435Y-106241000D01*
X130816150Y-106241000D01*
X130764162Y-106366201D01*
X130763838Y-106738167D01*
X130809220Y-106848000D01*
X130336246Y-106848000D01*
X130143890Y-106716569D01*
X129892000Y-106665560D01*
X129442000Y-106665560D01*
X129206683Y-106709838D01*
X128990559Y-106848910D01*
X128845569Y-107061110D01*
X128794560Y-107313000D01*
X128794560Y-107903000D01*
X128838838Y-108138317D01*
X128977910Y-108354441D01*
X129190110Y-108499431D01*
X129442000Y-108550440D01*
X129892000Y-108550440D01*
X130127317Y-108506162D01*
X130342027Y-108368000D01*
X132066814Y-108368000D01*
X131922569Y-108579110D01*
X131871560Y-108831000D01*
X131871560Y-109331000D01*
X131915838Y-109566317D01*
X132054910Y-109782441D01*
X132267110Y-109927431D01*
X132519000Y-109978440D01*
X133419000Y-109978440D01*
X133654317Y-109934162D01*
X133799095Y-109841000D01*
X139573000Y-109841000D01*
X139863839Y-109783148D01*
X140110401Y-109618401D01*
X140276776Y-109452026D01*
X162222642Y-109452026D01*
X162225291Y-109467791D01*
X162479268Y-109995036D01*
X162915680Y-110384954D01*
X163468087Y-110578184D01*
X163703000Y-110433924D01*
X163703000Y-109220000D01*
X163957000Y-109220000D01*
X163957000Y-110433924D01*
X164191913Y-110578184D01*
X164744320Y-110384954D01*
X165180732Y-109995036D01*
X165434709Y-109467791D01*
X165437358Y-109452026D01*
X165316217Y-109220000D01*
X163957000Y-109220000D01*
X163703000Y-109220000D01*
X162343783Y-109220000D01*
X162222642Y-109452026D01*
X140276776Y-109452026D01*
X142586362Y-107142440D01*
X142859000Y-107142440D01*
X143094317Y-107098162D01*
X143260775Y-106991049D01*
X143386701Y-107043338D01*
X143550631Y-107043481D01*
X143569910Y-107073441D01*
X143782110Y-107218431D01*
X144034000Y-107269440D01*
X144322258Y-107269440D01*
X144283138Y-107308560D01*
X143884000Y-107308560D01*
X143648683Y-107352838D01*
X143432559Y-107491910D01*
X143287569Y-107704110D01*
X143236560Y-107956000D01*
X143236560Y-108706000D01*
X143280838Y-108941317D01*
X143419910Y-109157441D01*
X143632110Y-109302431D01*
X143884000Y-109353440D01*
X144684000Y-109353440D01*
X144919317Y-109309162D01*
X145033978Y-109235380D01*
X145132110Y-109302431D01*
X145384000Y-109353440D01*
X146184000Y-109353440D01*
X146419317Y-109309162D01*
X146635441Y-109170090D01*
X146689481Y-109091000D01*
X148336000Y-109091000D01*
X148626839Y-109033148D01*
X148873401Y-108868401D01*
X149038148Y-108621839D01*
X149092297Y-108349616D01*
X149187491Y-108288360D01*
X149332481Y-108076160D01*
X149338931Y-108044308D01*
X149462681Y-107961621D01*
X150412888Y-107011414D01*
X150502302Y-107100827D01*
X150735691Y-107197500D01*
X151084250Y-107197500D01*
X151243000Y-107038750D01*
X151243000Y-106709940D01*
X151497000Y-106709940D01*
X151497000Y-107038750D01*
X151655750Y-107197500D01*
X152004309Y-107197500D01*
X152237698Y-107100827D01*
X152416327Y-106922199D01*
X152513000Y-106688810D01*
X152513000Y-106645000D01*
X152355886Y-106487886D01*
X152474431Y-106314390D01*
X152500032Y-106187968D01*
X152513000Y-106175000D01*
X152513000Y-106131190D01*
X152512013Y-106128806D01*
X152519948Y-106089622D01*
X152553660Y-106112148D01*
X152844500Y-106170000D01*
X154324279Y-106170000D01*
X154306560Y-106257500D01*
X154306560Y-106562500D01*
X154350838Y-106797817D01*
X154489910Y-107013941D01*
X154702110Y-107158931D01*
X154954000Y-107209940D01*
X155970000Y-107209940D01*
X156182263Y-107170000D01*
X158345963Y-107170000D01*
X158499701Y-107233838D01*
X158871667Y-107234162D01*
X158998852Y-107181610D01*
X159036383Y-107272443D01*
X159299173Y-107535692D01*
X159642701Y-107678338D01*
X160014667Y-107678662D01*
X160358443Y-107536617D01*
X160582451Y-107313000D01*
X162385352Y-107313000D01*
X162585585Y-107612670D01*
X162895069Y-107819461D01*
X162479268Y-108190964D01*
X162225291Y-108718209D01*
X162222642Y-108733974D01*
X162343783Y-108966000D01*
X163703000Y-108966000D01*
X163703000Y-108946000D01*
X163957000Y-108946000D01*
X163957000Y-108966000D01*
X165316217Y-108966000D01*
X165437358Y-108733974D01*
X165434709Y-108718209D01*
X165180732Y-108190964D01*
X164764931Y-107819461D01*
X165074415Y-107612670D01*
X165399271Y-107126489D01*
X165513345Y-106553000D01*
X165399271Y-105979511D01*
X165074415Y-105493330D01*
X164759634Y-105283000D01*
X165074415Y-105072670D01*
X165399271Y-104586489D01*
X165513345Y-104013000D01*
X165399271Y-103439511D01*
X165074415Y-102953330D01*
X164759634Y-102743000D01*
X165074415Y-102532670D01*
X165399271Y-102046489D01*
X165513345Y-101473000D01*
X165399271Y-100899511D01*
X165074415Y-100413330D01*
X164759634Y-100203000D01*
X165074415Y-99992670D01*
X165399271Y-99506489D01*
X165513345Y-98933000D01*
X165399271Y-98359511D01*
X165074415Y-97873330D01*
X164759634Y-97663000D01*
X165074415Y-97452670D01*
X165399271Y-96966489D01*
X165513345Y-96393000D01*
X165399271Y-95819511D01*
X165074415Y-95333330D01*
X165060087Y-95323757D01*
X165081317Y-95319762D01*
X165297441Y-95180690D01*
X165442431Y-94968490D01*
X165493440Y-94716600D01*
X165493440Y-92989400D01*
X165449162Y-92754083D01*
X165310090Y-92537959D01*
X165097890Y-92392969D01*
X164846000Y-92341960D01*
X162814000Y-92341960D01*
X162578683Y-92386238D01*
X162362559Y-92525310D01*
X162217569Y-92737510D01*
X162166560Y-92989400D01*
X162166560Y-93093000D01*
X153470352Y-93093000D01*
X153374827Y-92997308D01*
X153031299Y-92854662D01*
X152659333Y-92854338D01*
X152315557Y-92996383D01*
X152052308Y-93259173D01*
X151909662Y-93602701D01*
X151909646Y-93621344D01*
X150397401Y-92109099D01*
X150150839Y-91944352D01*
X149860000Y-91886500D01*
X146522500Y-91886500D01*
X146231661Y-91944352D01*
X145985099Y-92109099D01*
X145122638Y-92971560D01*
X143050000Y-92971560D01*
X142814683Y-93015838D01*
X142598559Y-93154910D01*
X142453569Y-93367110D01*
X142402560Y-93619000D01*
X142402560Y-94114558D01*
X142139661Y-94166852D01*
X141893099Y-94331599D01*
X140210698Y-96014000D01*
X136462283Y-96014000D01*
X136168433Y-95574222D01*
X135632810Y-95216330D01*
X135001000Y-95090655D01*
X134369190Y-95216330D01*
X134032999Y-95440966D01*
X134015327Y-95398302D01*
X133836699Y-95219673D01*
X133603310Y-95123000D01*
X132746750Y-95123000D01*
X132588000Y-95281750D01*
X132588000Y-96647000D01*
X132608000Y-96647000D01*
X132608000Y-96901000D01*
X132588000Y-96901000D01*
X132588000Y-98266250D01*
X132746750Y-98425000D01*
X133603310Y-98425000D01*
X133836699Y-98328327D01*
X134015327Y-98149698D01*
X134032999Y-98107034D01*
X134241000Y-98246016D01*
X134241000Y-100131034D01*
X134036059Y-100262910D01*
X133912576Y-100443633D01*
X133818827Y-100217302D01*
X133640199Y-100038673D01*
X133406810Y-99942000D01*
X133191250Y-99942000D01*
X133032500Y-100100750D01*
X133032500Y-100850000D01*
X133052500Y-100850000D01*
X133052500Y-101104000D01*
X133032500Y-101104000D01*
X133032500Y-101124000D01*
X132778500Y-101124000D01*
X132778500Y-101104000D01*
X132758500Y-101104000D01*
X132758500Y-100850000D01*
X132778500Y-100850000D01*
X132778500Y-100100750D01*
X132619750Y-99942000D01*
X132404190Y-99942000D01*
X132170801Y-100038673D01*
X131992173Y-100217302D01*
X131981604Y-100242818D01*
X131848327Y-100109308D01*
X131504799Y-99966662D01*
X131132833Y-99966338D01*
X130789057Y-100108383D01*
X130525808Y-100371173D01*
X130383162Y-100714701D01*
X130383121Y-100761577D01*
X129129599Y-102015099D01*
X128964852Y-102261661D01*
X128907000Y-102552500D01*
X128907000Y-104861203D01*
X128845569Y-104951110D01*
X128794560Y-105203000D01*
X124344500Y-105203000D01*
X124344500Y-97059750D01*
X130810000Y-97059750D01*
X130810000Y-97916309D01*
X130906673Y-98149698D01*
X131085301Y-98328327D01*
X131318690Y-98425000D01*
X132175250Y-98425000D01*
X132334000Y-98266250D01*
X132334000Y-96901000D01*
X130968750Y-96901000D01*
X130810000Y-97059750D01*
X124344500Y-97059750D01*
X124344500Y-95631691D01*
X130810000Y-95631691D01*
X130810000Y-96488250D01*
X130968750Y-96647000D01*
X132334000Y-96647000D01*
X132334000Y-95281750D01*
X132175250Y-95123000D01*
X131318690Y-95123000D01*
X131085301Y-95219673D01*
X130906673Y-95398302D01*
X130810000Y-95631691D01*
X124344500Y-95631691D01*
X124344500Y-86879500D01*
X125158500Y-86879500D01*
X125430205Y-86825454D01*
X125539389Y-86752500D01*
X169787500Y-86752500D01*
X169787500Y-114352000D01*
G36*
X136150000Y-101950691D02*
X136150000Y-102191250D01*
X136308750Y-102350000D01*
X137033000Y-102350000D01*
X137033000Y-102330000D01*
X137287000Y-102330000D01*
X137287000Y-102350000D01*
X137307000Y-102350000D01*
X137307000Y-102604000D01*
X137287000Y-102604000D01*
X137287000Y-103353250D01*
X137445750Y-103512000D01*
X137469892Y-103512000D01*
X137384559Y-103566910D01*
X137239569Y-103779110D01*
X137188560Y-104031000D01*
X137188560Y-104331000D01*
X137222697Y-104512424D01*
X137188560Y-104681000D01*
X137188560Y-104981000D01*
X137222697Y-105162424D01*
X137188560Y-105331000D01*
X137188560Y-105631000D01*
X137222697Y-105812424D01*
X137188560Y-105981000D01*
X137188560Y-106281000D01*
X137232838Y-106516317D01*
X137371910Y-106732441D01*
X137576000Y-106871890D01*
X137576000Y-106957351D01*
X137380809Y-106876500D01*
X137140250Y-106876500D01*
X136981500Y-107035250D01*
X136981500Y-107759500D01*
X137001500Y-107759500D01*
X137001500Y-108013500D01*
X136981500Y-108013500D01*
X136981500Y-108033500D01*
X136727500Y-108033500D01*
X136727500Y-108013500D01*
X135978250Y-108013500D01*
X135819500Y-108172250D01*
X135819500Y-108321000D01*
X133830176Y-108321000D01*
X133870441Y-108295090D01*
X134015431Y-108082890D01*
X134066440Y-107831000D01*
X134066440Y-107385190D01*
X135819500Y-107385190D01*
X135819500Y-107600750D01*
X135978250Y-107759500D01*
X136727500Y-107759500D01*
X136727500Y-107035250D01*
X136568750Y-106876500D01*
X136328191Y-106876500D01*
X136094802Y-106973173D01*
X135916173Y-107151801D01*
X135819500Y-107385190D01*
X134066440Y-107385190D01*
X134066440Y-107331000D01*
X134022162Y-107095683D01*
X133883090Y-106879559D01*
X133783848Y-106811750D01*
X133887441Y-106745090D01*
X134032431Y-106532890D01*
X134083440Y-106281000D01*
X134083440Y-105981000D01*
X134049303Y-105799576D01*
X134083440Y-105631000D01*
X134083440Y-105331000D01*
X134050611Y-105156531D01*
X134071000Y-105107309D01*
X134071000Y-105064750D01*
X133925866Y-104919616D01*
X133900090Y-104879559D01*
X133830289Y-104831866D01*
X133887441Y-104795090D01*
X133918249Y-104750001D01*
X134071000Y-104597250D01*
X134071000Y-104554691D01*
X134048931Y-104501411D01*
X134083440Y-104331000D01*
X134083440Y-104031000D01*
X134039162Y-103795683D01*
X133900090Y-103579559D01*
X133687890Y-103434569D01*
X133665500Y-103430035D01*
X133665500Y-103383844D01*
X133731941Y-103341090D01*
X133803063Y-103237000D01*
X134109114Y-103237000D01*
X134235610Y-103323431D01*
X134487500Y-103374440D01*
X135387500Y-103374440D01*
X135622817Y-103330162D01*
X135838941Y-103191090D01*
X135983931Y-102978890D01*
X136027700Y-102762750D01*
X136150000Y-102762750D01*
X136150000Y-103003309D01*
X136246673Y-103236698D01*
X136425301Y-103415327D01*
X136658690Y-103512000D01*
X136874250Y-103512000D01*
X137033000Y-103353250D01*
X137033000Y-102604000D01*
X136308750Y-102604000D01*
X136150000Y-102762750D01*
X136027700Y-102762750D01*
X136034940Y-102727000D01*
X136034940Y-102227000D01*
X135990662Y-101991683D01*
X135851590Y-101775559D01*
X135795157Y-101737000D01*
X136238514Y-101737000D01*
X136150000Y-101950691D01*
X136150000Y-101950691D01*
G37*
X136150000Y-101950691D02*
X136150000Y-102191250D01*
X136308750Y-102350000D01*
X137033000Y-102350000D01*
X137033000Y-102330000D01*
X137287000Y-102330000D01*
X137287000Y-102350000D01*
X137307000Y-102350000D01*
X137307000Y-102604000D01*
X137287000Y-102604000D01*
X137287000Y-103353250D01*
X137445750Y-103512000D01*
X137469892Y-103512000D01*
X137384559Y-103566910D01*
X137239569Y-103779110D01*
X137188560Y-104031000D01*
X137188560Y-104331000D01*
X137222697Y-104512424D01*
X137188560Y-104681000D01*
X137188560Y-104981000D01*
X137222697Y-105162424D01*
X137188560Y-105331000D01*
X137188560Y-105631000D01*
X137222697Y-105812424D01*
X137188560Y-105981000D01*
X137188560Y-106281000D01*
X137232838Y-106516317D01*
X137371910Y-106732441D01*
X137576000Y-106871890D01*
X137576000Y-106957351D01*
X137380809Y-106876500D01*
X137140250Y-106876500D01*
X136981500Y-107035250D01*
X136981500Y-107759500D01*
X137001500Y-107759500D01*
X137001500Y-108013500D01*
X136981500Y-108013500D01*
X136981500Y-108033500D01*
X136727500Y-108033500D01*
X136727500Y-108013500D01*
X135978250Y-108013500D01*
X135819500Y-108172250D01*
X135819500Y-108321000D01*
X133830176Y-108321000D01*
X133870441Y-108295090D01*
X134015431Y-108082890D01*
X134066440Y-107831000D01*
X134066440Y-107385190D01*
X135819500Y-107385190D01*
X135819500Y-107600750D01*
X135978250Y-107759500D01*
X136727500Y-107759500D01*
X136727500Y-107035250D01*
X136568750Y-106876500D01*
X136328191Y-106876500D01*
X136094802Y-106973173D01*
X135916173Y-107151801D01*
X135819500Y-107385190D01*
X134066440Y-107385190D01*
X134066440Y-107331000D01*
X134022162Y-107095683D01*
X133883090Y-106879559D01*
X133783848Y-106811750D01*
X133887441Y-106745090D01*
X134032431Y-106532890D01*
X134083440Y-106281000D01*
X134083440Y-105981000D01*
X134049303Y-105799576D01*
X134083440Y-105631000D01*
X134083440Y-105331000D01*
X134050611Y-105156531D01*
X134071000Y-105107309D01*
X134071000Y-105064750D01*
X133925866Y-104919616D01*
X133900090Y-104879559D01*
X133830289Y-104831866D01*
X133887441Y-104795090D01*
X133918249Y-104750001D01*
X134071000Y-104597250D01*
X134071000Y-104554691D01*
X134048931Y-104501411D01*
X134083440Y-104331000D01*
X134083440Y-104031000D01*
X134039162Y-103795683D01*
X133900090Y-103579559D01*
X133687890Y-103434569D01*
X133665500Y-103430035D01*
X133665500Y-103383844D01*
X133731941Y-103341090D01*
X133803063Y-103237000D01*
X134109114Y-103237000D01*
X134235610Y-103323431D01*
X134487500Y-103374440D01*
X135387500Y-103374440D01*
X135622817Y-103330162D01*
X135838941Y-103191090D01*
X135983931Y-102978890D01*
X136027700Y-102762750D01*
X136150000Y-102762750D01*
X136150000Y-103003309D01*
X136246673Y-103236698D01*
X136425301Y-103415327D01*
X136658690Y-103512000D01*
X136874250Y-103512000D01*
X137033000Y-103353250D01*
X137033000Y-102604000D01*
X136308750Y-102604000D01*
X136150000Y-102762750D01*
X136027700Y-102762750D01*
X136034940Y-102727000D01*
X136034940Y-102227000D01*
X135990662Y-101991683D01*
X135851590Y-101775559D01*
X135795157Y-101737000D01*
X136238514Y-101737000D01*
X136150000Y-101950691D01*
G36*
X145196910Y-104787441D02*
X145409110Y-104932431D01*
X145661000Y-104983440D01*
X146161000Y-104983440D01*
X146354331Y-104947062D01*
X146338510Y-105025190D01*
X146338510Y-105160813D01*
X146160309Y-105087000D01*
X146067750Y-105087000D01*
X145909000Y-105245750D01*
X145909000Y-106045000D01*
X145931000Y-106045000D01*
X145931000Y-106299000D01*
X145909000Y-106299000D01*
X145909000Y-106319000D01*
X145659000Y-106319000D01*
X145659000Y-106299000D01*
X145637000Y-106299000D01*
X145637000Y-106045000D01*
X145659000Y-106045000D01*
X145659000Y-105245750D01*
X145500250Y-105087000D01*
X145407691Y-105087000D01*
X145174302Y-105183673D01*
X145033064Y-105324910D01*
X144998090Y-105270559D01*
X144785890Y-105125569D01*
X144534000Y-105074560D01*
X144191127Y-105074560D01*
X144191162Y-105034333D01*
X144170133Y-104983440D01*
X144661000Y-104983440D01*
X144896317Y-104939162D01*
X145112441Y-104800090D01*
X145160134Y-104730289D01*
X145196910Y-104787441D01*
X145196910Y-104787441D01*
G37*
X145196910Y-104787441D02*
X145409110Y-104932431D01*
X145661000Y-104983440D01*
X146161000Y-104983440D01*
X146354331Y-104947062D01*
X146338510Y-105025190D01*
X146338510Y-105160813D01*
X146160309Y-105087000D01*
X146067750Y-105087000D01*
X145909000Y-105245750D01*
X145909000Y-106045000D01*
X145931000Y-106045000D01*
X145931000Y-106299000D01*
X145909000Y-106299000D01*
X145909000Y-106319000D01*
X145659000Y-106319000D01*
X145659000Y-106299000D01*
X145637000Y-106299000D01*
X145637000Y-106045000D01*
X145659000Y-106045000D01*
X145659000Y-105245750D01*
X145500250Y-105087000D01*
X145407691Y-105087000D01*
X145174302Y-105183673D01*
X145033064Y-105324910D01*
X144998090Y-105270559D01*
X144785890Y-105125569D01*
X144534000Y-105074560D01*
X144191127Y-105074560D01*
X144191162Y-105034333D01*
X144170133Y-104983440D01*
X144661000Y-104983440D01*
X144896317Y-104939162D01*
X145112441Y-104800090D01*
X145160134Y-104730289D01*
X145196910Y-104787441D01*
G36*
X150415750Y-101473000D02*
X151017000Y-101473000D01*
X151017000Y-101453000D01*
X151267000Y-101453000D01*
X151267000Y-101473000D01*
X151289000Y-101473000D01*
X151289000Y-101727000D01*
X151267000Y-101727000D01*
X151267000Y-102526250D01*
X151425750Y-102685000D01*
X151518309Y-102685000D01*
X151751698Y-102588327D01*
X151882000Y-102458026D01*
X151882000Y-103610870D01*
X151878000Y-103610060D01*
X151007862Y-103610060D01*
X150365401Y-102967599D01*
X150118839Y-102802852D01*
X149828000Y-102745000D01*
X149719000Y-102745000D01*
X149719000Y-102428386D01*
X149805431Y-102301890D01*
X149856440Y-102050000D01*
X149856440Y-101885750D01*
X150257000Y-101885750D01*
X150257000Y-102176310D01*
X150353673Y-102409699D01*
X150532302Y-102588327D01*
X150765691Y-102685000D01*
X150858250Y-102685000D01*
X151017000Y-102526250D01*
X151017000Y-101727000D01*
X150415750Y-101727000D01*
X150257000Y-101885750D01*
X149856440Y-101885750D01*
X149856440Y-101725862D01*
X150262526Y-101319776D01*
X150415750Y-101473000D01*
X150415750Y-101473000D01*
G37*
X150415750Y-101473000D02*
X151017000Y-101473000D01*
X151017000Y-101453000D01*
X151267000Y-101453000D01*
X151267000Y-101473000D01*
X151289000Y-101473000D01*
X151289000Y-101727000D01*
X151267000Y-101727000D01*
X151267000Y-102526250D01*
X151425750Y-102685000D01*
X151518309Y-102685000D01*
X151751698Y-102588327D01*
X151882000Y-102458026D01*
X151882000Y-103610870D01*
X151878000Y-103610060D01*
X151007862Y-103610060D01*
X150365401Y-102967599D01*
X150118839Y-102802852D01*
X149828000Y-102745000D01*
X149719000Y-102745000D01*
X149719000Y-102428386D01*
X149805431Y-102301890D01*
X149856440Y-102050000D01*
X149856440Y-101885750D01*
X150257000Y-101885750D01*
X150257000Y-102176310D01*
X150353673Y-102409699D01*
X150532302Y-102588327D01*
X150765691Y-102685000D01*
X150858250Y-102685000D01*
X151017000Y-102526250D01*
X151017000Y-101727000D01*
X150415750Y-101727000D01*
X150257000Y-101885750D01*
X149856440Y-101885750D01*
X149856440Y-101725862D01*
X150262526Y-101319776D01*
X150415750Y-101473000D01*
G36*
X149417500Y-98431000D02*
X149244750Y-98431000D01*
X149086000Y-98589750D01*
X149086000Y-99314000D01*
X149106000Y-99314000D01*
X149106000Y-99568000D01*
X149086000Y-99568000D01*
X149086000Y-100292250D01*
X149113224Y-100319474D01*
X148930138Y-100502560D01*
X148709000Y-100502560D01*
X148473683Y-100546838D01*
X148257559Y-100685910D01*
X148219000Y-100742343D01*
X148219000Y-100362486D01*
X148432691Y-100451000D01*
X148673250Y-100451000D01*
X148832000Y-100292250D01*
X148832000Y-99568000D01*
X148812000Y-99568000D01*
X148812000Y-99314000D01*
X148832000Y-99314000D01*
X148832000Y-98589750D01*
X148673250Y-98431000D01*
X148432691Y-98431000D01*
X148199302Y-98527673D01*
X148197932Y-98529043D01*
X148110890Y-98469569D01*
X147859000Y-98418560D01*
X147059000Y-98418560D01*
X146823683Y-98462838D01*
X146607559Y-98601910D01*
X146566224Y-98662406D01*
X146541327Y-98602301D01*
X146362698Y-98423673D01*
X146129309Y-98327000D01*
X145993750Y-98327000D01*
X145835000Y-98485750D01*
X145835000Y-99074500D01*
X145855000Y-99074500D01*
X145855000Y-99299500D01*
X145835000Y-99299500D01*
X145835000Y-99888250D01*
X145993750Y-100047000D01*
X146129309Y-100047000D01*
X146362698Y-99950327D01*
X146425095Y-99887931D01*
X146455838Y-100051317D01*
X146594910Y-100267441D01*
X146699000Y-100338563D01*
X146699000Y-100771614D01*
X146652444Y-100839751D01*
X146561590Y-100698559D01*
X146349390Y-100553569D01*
X146097500Y-100502560D01*
X145597500Y-100502560D01*
X145362183Y-100546838D01*
X145146059Y-100685910D01*
X145098366Y-100755711D01*
X145061590Y-100698559D01*
X144849390Y-100553569D01*
X144597500Y-100502560D01*
X144097500Y-100502560D01*
X143862183Y-100546838D01*
X143646059Y-100685910D01*
X143584715Y-100775690D01*
X143495698Y-100686673D01*
X143262309Y-100590000D01*
X143021750Y-100590000D01*
X142863000Y-100748750D01*
X142863000Y-101473000D01*
X142883000Y-101473000D01*
X142883000Y-101727000D01*
X142863000Y-101727000D01*
X142863000Y-101747000D01*
X142609000Y-101747000D01*
X142609000Y-101727000D01*
X142589000Y-101727000D01*
X142589000Y-101473000D01*
X142609000Y-101473000D01*
X142609000Y-100748750D01*
X142450250Y-100590000D01*
X142209691Y-100590000D01*
X141996000Y-100678514D01*
X141996000Y-99947000D01*
X142961203Y-99947000D01*
X143051110Y-100008431D01*
X143303000Y-100059440D01*
X143893000Y-100059440D01*
X144128317Y-100015162D01*
X144344441Y-99876090D01*
X144489431Y-99663890D01*
X144531074Y-99458250D01*
X144778000Y-99458250D01*
X144778000Y-99538310D01*
X144874673Y-99771699D01*
X145053302Y-99950327D01*
X145286691Y-100047000D01*
X145422250Y-100047000D01*
X145581000Y-99888250D01*
X145581000Y-99299500D01*
X144936750Y-99299500D01*
X144778000Y-99458250D01*
X144531074Y-99458250D01*
X144540440Y-99412000D01*
X144540440Y-98962000D01*
X144516674Y-98835690D01*
X144778000Y-98835690D01*
X144778000Y-98915750D01*
X144936750Y-99074500D01*
X145581000Y-99074500D01*
X145581000Y-98485750D01*
X145422250Y-98327000D01*
X145286691Y-98327000D01*
X145053302Y-98423673D01*
X144874673Y-98602301D01*
X144778000Y-98835690D01*
X144516674Y-98835690D01*
X144496162Y-98726683D01*
X144357090Y-98510559D01*
X144144890Y-98365569D01*
X143893000Y-98314560D01*
X143303000Y-98314560D01*
X143067683Y-98358838D01*
X142961756Y-98427000D01*
X141248000Y-98427000D01*
X140957161Y-98484852D01*
X140710599Y-98649599D01*
X140698599Y-98661599D01*
X140533852Y-98908161D01*
X140476000Y-99199000D01*
X140476000Y-100702069D01*
X140384559Y-100760910D01*
X140299851Y-100884885D01*
X140234661Y-100897852D01*
X139988099Y-101062599D01*
X139301537Y-101749161D01*
X139301662Y-101605333D01*
X139159617Y-101261557D01*
X138896827Y-100998308D01*
X138553299Y-100855662D01*
X138182440Y-100855339D01*
X138182440Y-100577000D01*
X138138162Y-100341683D01*
X137999090Y-100125559D01*
X137786890Y-99980569D01*
X137535000Y-99929560D01*
X136785000Y-99929560D01*
X136549683Y-99973838D01*
X136333559Y-100112910D01*
X136262437Y-100217000D01*
X135765886Y-100217000D01*
X135761000Y-100213662D01*
X135761000Y-98246016D01*
X136168433Y-97973778D01*
X136462283Y-97534000D01*
X140525500Y-97534000D01*
X140816339Y-97476148D01*
X140860356Y-97446737D01*
X140860338Y-97467167D01*
X141002383Y-97810943D01*
X141265173Y-98074192D01*
X141608701Y-98216838D01*
X141980667Y-98217162D01*
X142324443Y-98075117D01*
X142357618Y-98042000D01*
X147659236Y-98042000D01*
X147800000Y-98070000D01*
X148090839Y-98012148D01*
X148337401Y-97847401D01*
X148502148Y-97600839D01*
X148560000Y-97310000D01*
X148560000Y-96766440D01*
X149050000Y-96766440D01*
X149285317Y-96722162D01*
X149417500Y-96637105D01*
X149417500Y-98431000D01*
X149417500Y-98431000D01*
G37*
X149417500Y-98431000D02*
X149244750Y-98431000D01*
X149086000Y-98589750D01*
X149086000Y-99314000D01*
X149106000Y-99314000D01*
X149106000Y-99568000D01*
X149086000Y-99568000D01*
X149086000Y-100292250D01*
X149113224Y-100319474D01*
X148930138Y-100502560D01*
X148709000Y-100502560D01*
X148473683Y-100546838D01*
X148257559Y-100685910D01*
X148219000Y-100742343D01*
X148219000Y-100362486D01*
X148432691Y-100451000D01*
X148673250Y-100451000D01*
X148832000Y-100292250D01*
X148832000Y-99568000D01*
X148812000Y-99568000D01*
X148812000Y-99314000D01*
X148832000Y-99314000D01*
X148832000Y-98589750D01*
X148673250Y-98431000D01*
X148432691Y-98431000D01*
X148199302Y-98527673D01*
X148197932Y-98529043D01*
X148110890Y-98469569D01*
X147859000Y-98418560D01*
X147059000Y-98418560D01*
X146823683Y-98462838D01*
X146607559Y-98601910D01*
X146566224Y-98662406D01*
X146541327Y-98602301D01*
X146362698Y-98423673D01*
X146129309Y-98327000D01*
X145993750Y-98327000D01*
X145835000Y-98485750D01*
X145835000Y-99074500D01*
X145855000Y-99074500D01*
X145855000Y-99299500D01*
X145835000Y-99299500D01*
X145835000Y-99888250D01*
X145993750Y-100047000D01*
X146129309Y-100047000D01*
X146362698Y-99950327D01*
X146425095Y-99887931D01*
X146455838Y-100051317D01*
X146594910Y-100267441D01*
X146699000Y-100338563D01*
X146699000Y-100771614D01*
X146652444Y-100839751D01*
X146561590Y-100698559D01*
X146349390Y-100553569D01*
X146097500Y-100502560D01*
X145597500Y-100502560D01*
X145362183Y-100546838D01*
X145146059Y-100685910D01*
X145098366Y-100755711D01*
X145061590Y-100698559D01*
X144849390Y-100553569D01*
X144597500Y-100502560D01*
X144097500Y-100502560D01*
X143862183Y-100546838D01*
X143646059Y-100685910D01*
X143584715Y-100775690D01*
X143495698Y-100686673D01*
X143262309Y-100590000D01*
X143021750Y-100590000D01*
X142863000Y-100748750D01*
X142863000Y-101473000D01*
X142883000Y-101473000D01*
X142883000Y-101727000D01*
X142863000Y-101727000D01*
X142863000Y-101747000D01*
X142609000Y-101747000D01*
X142609000Y-101727000D01*
X142589000Y-101727000D01*
X142589000Y-101473000D01*
X142609000Y-101473000D01*
X142609000Y-100748750D01*
X142450250Y-100590000D01*
X142209691Y-100590000D01*
X141996000Y-100678514D01*
X141996000Y-99947000D01*
X142961203Y-99947000D01*
X143051110Y-100008431D01*
X143303000Y-100059440D01*
X143893000Y-100059440D01*
X144128317Y-100015162D01*
X144344441Y-99876090D01*
X144489431Y-99663890D01*
X144531074Y-99458250D01*
X144778000Y-99458250D01*
X144778000Y-99538310D01*
X144874673Y-99771699D01*
X145053302Y-99950327D01*
X145286691Y-100047000D01*
X145422250Y-100047000D01*
X145581000Y-99888250D01*
X145581000Y-99299500D01*
X144936750Y-99299500D01*
X144778000Y-99458250D01*
X144531074Y-99458250D01*
X144540440Y-99412000D01*
X144540440Y-98962000D01*
X144516674Y-98835690D01*
X144778000Y-98835690D01*
X144778000Y-98915750D01*
X144936750Y-99074500D01*
X145581000Y-99074500D01*
X145581000Y-98485750D01*
X145422250Y-98327000D01*
X145286691Y-98327000D01*
X145053302Y-98423673D01*
X144874673Y-98602301D01*
X144778000Y-98835690D01*
X144516674Y-98835690D01*
X144496162Y-98726683D01*
X144357090Y-98510559D01*
X144144890Y-98365569D01*
X143893000Y-98314560D01*
X143303000Y-98314560D01*
X143067683Y-98358838D01*
X142961756Y-98427000D01*
X141248000Y-98427000D01*
X140957161Y-98484852D01*
X140710599Y-98649599D01*
X140698599Y-98661599D01*
X140533852Y-98908161D01*
X140476000Y-99199000D01*
X140476000Y-100702069D01*
X140384559Y-100760910D01*
X140299851Y-100884885D01*
X140234661Y-100897852D01*
X139988099Y-101062599D01*
X139301537Y-101749161D01*
X139301662Y-101605333D01*
X139159617Y-101261557D01*
X138896827Y-100998308D01*
X138553299Y-100855662D01*
X138182440Y-100855339D01*
X138182440Y-100577000D01*
X138138162Y-100341683D01*
X137999090Y-100125559D01*
X137786890Y-99980569D01*
X137535000Y-99929560D01*
X136785000Y-99929560D01*
X136549683Y-99973838D01*
X136333559Y-100112910D01*
X136262437Y-100217000D01*
X135765886Y-100217000D01*
X135761000Y-100213662D01*
X135761000Y-98246016D01*
X136168433Y-97973778D01*
X136462283Y-97534000D01*
X140525500Y-97534000D01*
X140816339Y-97476148D01*
X140860356Y-97446737D01*
X140860338Y-97467167D01*
X141002383Y-97810943D01*
X141265173Y-98074192D01*
X141608701Y-98216838D01*
X141980667Y-98217162D01*
X142324443Y-98075117D01*
X142357618Y-98042000D01*
X147659236Y-98042000D01*
X147800000Y-98070000D01*
X148090839Y-98012148D01*
X148337401Y-97847401D01*
X148502148Y-97600839D01*
X148560000Y-97310000D01*
X148560000Y-96766440D01*
X149050000Y-96766440D01*
X149285317Y-96722162D01*
X149417500Y-96637105D01*
X149417500Y-98431000D01*
G36*
X158753701Y-98470838D02*
X158864132Y-98470934D01*
X159863599Y-99470401D01*
X160110160Y-99635148D01*
X160401000Y-99693000D01*
X162385352Y-99693000D01*
X162585585Y-99992670D01*
X162900366Y-100203000D01*
X162585585Y-100413330D01*
X162385352Y-100713000D01*
X160842802Y-100713000D01*
X158519337Y-98389535D01*
X158518772Y-98386533D01*
X158507140Y-98368456D01*
X158753701Y-98470838D01*
X158753701Y-98470838D01*
G37*
X158753701Y-98470838D02*
X158864132Y-98470934D01*
X159863599Y-99470401D01*
X160110160Y-99635148D01*
X160401000Y-99693000D01*
X162385352Y-99693000D01*
X162585585Y-99992670D01*
X162900366Y-100203000D01*
X162585585Y-100413330D01*
X162385352Y-100713000D01*
X160842802Y-100713000D01*
X158519337Y-98389535D01*
X158518772Y-98386533D01*
X158507140Y-98368456D01*
X158753701Y-98470838D01*
G36*
X153476960Y-97421065D02*
X153496960Y-97421065D01*
X153496960Y-97475360D01*
X153476960Y-97495360D01*
X153476960Y-97667760D01*
X153222960Y-97667760D01*
X153222960Y-97495360D01*
X153202960Y-97475360D01*
X153202960Y-97421065D01*
X153222960Y-97421065D01*
X153222960Y-97373760D01*
X153476960Y-97373760D01*
X153476960Y-97421065D01*
X153476960Y-97421065D01*
G37*
X153476960Y-97421065D02*
X153496960Y-97421065D01*
X153496960Y-97475360D01*
X153476960Y-97495360D01*
X153476960Y-97667760D01*
X153222960Y-97667760D01*
X153222960Y-97495360D01*
X153202960Y-97475360D01*
X153202960Y-97421065D01*
X153222960Y-97421065D01*
X153222960Y-97373760D01*
X153476960Y-97373760D01*
X153476960Y-97421065D01*
M02*
