<?xml version="1.0" standalone="no"?>
 <!DOCTYPE svg PUBLIC "-//W3C//DTD SVG 1.1//EN" 
 "http://www.w3.org/Graphics/SVG/1.1/DTD/svg11.dtd"> 
<svg xmlns="http://www.w3.org/2000/svg" version="1.1" 
    width="29.7002cm" height="21.0007cm" viewBox="0 0 116930 82680 ">
<title>SVG Picture created as Solar_Array_Rev1-F.Paste.svg date 2016/04/08 18:14:36 </title>
  <desc>Picture generated by PCBNEW </desc>
<g style="fill:#000000; fill-opacity:1;stroke:#000000; stroke-opacity:1;
stroke-linecap:round; stroke-linejoin:round; "
 transform="translate(0 0) scale(1 1)">
</g>
<g style="fill:#000000; fill-opacity:0.0; 
stroke:#000000; stroke-width:-0.000393701; stroke-opacity:1; 
stroke-linecap:round; stroke-linejoin:round;">
</g>
<g style="fill:#000000; fill-opacity:0.0; 
stroke:#000000; stroke-width:0; stroke-opacity:1; 
stroke-linecap:round; stroke-linejoin:round;">
</g>
<g style="fill:#000000; fill-opacity:1.0; 
stroke:#000000; stroke-width:0; stroke-opacity:1; 
stroke-linecap:round; stroke-linejoin:round;">
<polyline style="fill-rule:evenodd;"
points="60521,38984
60226,38984
60226,38827
60521,38827
60521,38984
" /> 
<polyline style="fill-rule:evenodd;"
points="60521,38728
60226,38728
60226,38571
60521,38571
60521,38728
" /> 
<polyline style="fill-rule:evenodd;"
points="60521,38472
60226,38472
60226,38315
60521,38315
60521,38472
" /> 
<polyline style="fill-rule:evenodd;"
points="59773,38472
59478,38472
59478,38315
59773,38315
59773,38472
" /> 
<polyline style="fill-rule:evenodd;"
points="59773,38728
59478,38728
59478,38571
59773,38571
59773,38728
" /> 
<polyline style="fill-rule:evenodd;"
points="59773,38984
59478,38984
59478,38827
59773,38827
59773,38984
" /> 
<polyline style="fill-rule:evenodd;"
points="53852,39597
54147,39597
54147,39912
53852,39912
53852,39597
" /> 
<polyline style="fill-rule:evenodd;"
points="53852,40187
54147,40187
54147,40502
53852,40502
53852,40187
" /> 
<polyline style="fill-rule:evenodd;"
points="52472,40502
52177,40502
52177,40187
52472,40187
52472,40502
" /> 
<polyline style="fill-rule:evenodd;"
points="52472,39912
52177,39912
52177,39597
52472,39597
52472,39912
" /> 
<polyline style="fill-rule:evenodd;"
points="55447,40147
55447,39852
55762,39852
55762,40147
55447,40147
" /> 
<polyline style="fill-rule:evenodd;"
points="56037,40147
56037,39852
56352,39852
56352,40147
56037,40147
" /> 
<polyline style="fill-rule:evenodd;"
points="54627,42327
54627,42622
54312,42622
54312,42327
54627,42327
" /> 
<polyline style="fill-rule:evenodd;"
points="54037,42327
54037,42622
53722,42622
53722,42327
54037,42327
" /> 
<polyline style="fill-rule:evenodd;"
points="55447,41047
55447,40752
55762,40752
55762,41047
55447,41047
" /> 
<polyline style="fill-rule:evenodd;"
points="56037,41047
56037,40752
56352,40752
56352,41047
56037,41047
" /> 
<polyline style="fill-rule:evenodd;"
points="57897,39297
57897,39002
58212,39002
58212,39297
57897,39297
" /> 
<polyline style="fill-rule:evenodd;"
points="58487,39297
58487,39002
58802,39002
58802,39297
58487,39297
" /> 
<polyline style="fill-rule:evenodd;"
points="57552,42502
57552,42797
57237,42797
57237,42502
57552,42502
" /> 
<polyline style="fill-rule:evenodd;"
points="56962,42502
56962,42797
56647,42797
56647,42502
56962,42502
" /> 
<polyline style="fill-rule:evenodd;"
points="51138,42481
50961,42481
50961,42249
51138,42249
51138,42481
" /> 
<polyline style="fill-rule:evenodd;"
points="51138,41650
50961,41650
50961,41418
51138,41418
51138,41650
" /> 
<polyline style="fill-rule:evenodd;"
points="56418,39138
56418,38961
56650,38961
56650,39138
56418,39138
" /> 
<polyline style="fill-rule:evenodd;"
points="57249,39138
57249,38961
57481,38961
57481,39138
57249,39138
" /> 
<polyline style="fill-rule:evenodd;"
points="52533,41842
52140,41842
52140,41724
52533,41724
52533,41842
" /> 
<polyline style="fill-rule:evenodd;"
points="52533,41587
52140,41587
52140,41468
52533,41468
52533,41587
" /> 
<polyline style="fill-rule:evenodd;"
points="52533,41331
52140,41331
52140,41212
52533,41212
52533,41331
" /> 
<polyline style="fill-rule:evenodd;"
points="52533,41075
52140,41075
52140,40957
52533,40957
52533,41075
" /> 
<polyline style="fill-rule:evenodd;"
points="54659,41842
54266,41842
54266,41724
54659,41724
54659,41842
" /> 
<polyline style="fill-rule:evenodd;"
points="54659,41587
54266,41587
54266,41468
54659,41468
54659,41587
" /> 
<polyline style="fill-rule:evenodd;"
points="54659,41331
54266,41331
54266,41212
54659,41212
54659,41331
" /> 
<polyline style="fill-rule:evenodd;"
points="54659,41075
54266,41075
54266,40957
54659,40957
54659,41075
" /> 
<polyline style="fill-rule:evenodd;"
points="62171,38984
61876,38984
61876,38827
62171,38827
62171,38984
" /> 
<polyline style="fill-rule:evenodd;"
points="62171,38728
61876,38728
61876,38571
62171,38571
62171,38728
" /> 
<polyline style="fill-rule:evenodd;"
points="62171,38472
61876,38472
61876,38315
62171,38315
62171,38472
" /> 
<polyline style="fill-rule:evenodd;"
points="61423,38472
61128,38472
61128,38315
61423,38315
61423,38472
" /> 
<polyline style="fill-rule:evenodd;"
points="61423,38728
61128,38728
61128,38571
61423,38571
61423,38728
" /> 
<polyline style="fill-rule:evenodd;"
points="61423,38984
61128,38984
61128,38827
61423,38827
61423,38984
" /> 
<polyline style="fill-rule:evenodd;"
points="58681,36857
58681,37842
57696,37842
57696,36857
58681,36857
" /> 
<polyline style="fill-rule:evenodd;"
points="57303,36857
57303,37842
56318,37842
56318,36857
57303,36857
" /> 
<polyline style="fill-rule:evenodd;"
points="58931,41348
58931,41663
58616,41663
58616,41348
58931,41348
" /> 
<polyline style="fill-rule:evenodd;"
points="58183,41348
58183,41663
57868,41663
57868,41348
58183,41348
" /> 
<polyline style="fill-rule:evenodd;"
points="58557,42135
58557,42450
58242,42450
58242,42135
58557,42135
" /> 
<polyline style="fill-rule:evenodd;"
points="53302,40443
52947,40443
52947,40246
53302,40246
53302,40443
" /> 
<polyline style="fill-rule:evenodd;"
points="53302,39853
52947,39853
52947,39656
53302,39656
53302,39853
" /> 
<polyline style="fill-rule:evenodd;"
points="57543,40722
57543,41077
57346,41077
57346,40722
57543,40722
" /> 
<polyline style="fill-rule:evenodd;"
points="56953,40722
56953,41077
56756,41077
56756,40722
56953,40722
" /> 
<polyline style="fill-rule:evenodd;"
points="52527,43043
52172,43043
52172,42846
52527,42846
52527,43043
" /> 
<polyline style="fill-rule:evenodd;"
points="52527,42453
52172,42453
52172,42256
52527,42256
52527,42453
" /> 
<polyline style="fill-rule:evenodd;"
points="57518,39822
57518,40177
57321,40177
57321,39822
57518,39822
" /> 
<polyline style="fill-rule:evenodd;"
points="56928,39822
56928,40177
56731,40177
56731,39822
56928,39822
" /> 
<polyline style="fill-rule:evenodd;"
points="56243,41572
56243,41927
56046,41927
56046,41572
56243,41572
" /> 
<polyline style="fill-rule:evenodd;"
points="55653,41572
55653,41927
55456,41927
55456,41572
55653,41572
" /> 
<polyline style="fill-rule:evenodd;"
points="56706,41977
56706,41622
56903,41622
56903,41977
56706,41977
" /> 
<polyline style="fill-rule:evenodd;"
points="57296,41977
57296,41622
57493,41622
57493,41977
57296,41977
" /> 
<polyline style="fill-rule:evenodd;"
points="58743,39822
58743,40177
58546,40177
58546,39822
58743,39822
" /> 
<polyline style="fill-rule:evenodd;"
points="58153,39822
58153,40177
57956,40177
57956,39822
58153,39822
" /> 
<polyline style="fill-rule:evenodd;"
points="60193,39822
60193,40177
59996,40177
59996,39822
60193,39822
" /> 
<polyline style="fill-rule:evenodd;"
points="59603,39822
59603,40177
59406,40177
59406,39822
59603,39822
" /> 
<polyline style="fill-rule:evenodd;"
points="59394,41166
59394,41046
59794,41046
59794,41166
59394,41166
" /> 
<polyline style="fill-rule:evenodd;"
points="59394,41363
59394,41243
59794,41243
59794,41363
59394,41363
" /> 
<polyline style="fill-rule:evenodd;"
points="59394,41560
59394,41439
59794,41439
59794,41560
59394,41560
" /> 
<polyline style="fill-rule:evenodd;"
points="59394,41756
59394,41636
59794,41636
59794,41756
59394,41756
" /> 
<polyline style="fill-rule:evenodd;"
points="59394,41953
59394,41833
59794,41833
59794,41953
59394,41953
" /> 
<polyline style="fill-rule:evenodd;"
points="61005,41166
61005,41046
61405,41046
61405,41166
61005,41166
" /> 
<polyline style="fill-rule:evenodd;"
points="61005,41363
61005,41243
61405,41243
61405,41363
61005,41363
" /> 
<polyline style="fill-rule:evenodd;"
points="61005,41560
61005,41439
61405,41439
61405,41560
61005,41560
" /> 
<polyline style="fill-rule:evenodd;"
points="61005,41756
61005,41636
61405,41636
61405,41756
61005,41756
" /> 
<polyline style="fill-rule:evenodd;"
points="61005,41953
61005,41833
61405,41833
61405,41953
61005,41953
" /> 
</g> 
</svg>
