<?xml version="1.0" standalone="no"?>
 <!DOCTYPE svg PUBLIC "-//W3C//DTD SVG 1.1//EN" 
 "http://www.w3.org/Graphics/SVG/1.1/DTD/svg11.dtd"> 
<svg xmlns="http://www.w3.org/2000/svg" version="1.1" 
    width="29.7002cm" height="21.0007cm" viewBox="0 0 116930 82680 ">
<title>SVG Picture created as Solar_Array_Rev1-F.Cu.svg date 2016/04/08 18:14:36 </title>
  <desc>Picture generated by PCBNEW </desc>
<g style="fill:#000000; fill-opacity:1;stroke:#000000; stroke-opacity:1;
stroke-linecap:round; stroke-linejoin:round; "
 transform="translate(0 0) scale(1 1)">
</g>
<g style="fill:#000000; fill-opacity:0.0; 
stroke:#000000; stroke-width:-0.000393701; stroke-opacity:1; 
stroke-linecap:round; stroke-linejoin:round;">
</g>
<g style="fill:#000000; fill-opacity:0.0; 
stroke:#000000; stroke-width:0; stroke-opacity:1; 
stroke-linecap:round; stroke-linejoin:round;">
</g>
<g style="fill:#000000; fill-opacity:1.0; 
stroke:#000000; stroke-width:0; stroke-opacity:1; 
stroke-linecap:round; stroke-linejoin:round;">
<polyline style="fill-rule:evenodd;"
points="60521,38984
60226,38984
60226,38827
60521,38827
60521,38984
" /> 
<polyline style="fill-rule:evenodd;"
points="60521,38728
60226,38728
60226,38571
60521,38571
60521,38728
" /> 
<polyline style="fill-rule:evenodd;"
points="60521,38472
60226,38472
60226,38315
60521,38315
60521,38472
" /> 
<polyline style="fill-rule:evenodd;"
points="59773,38472
59478,38472
59478,38315
59773,38315
59773,38472
" /> 
<polyline style="fill-rule:evenodd;"
points="59773,38728
59478,38728
59478,38571
59773,38571
59773,38728
" /> 
<polyline style="fill-rule:evenodd;"
points="59773,38984
59478,38984
59478,38827
59773,38827
59773,38984
" /> 
<polyline style="fill-rule:evenodd;"
points="53852,39597
54147,39597
54147,39912
53852,39912
53852,39597
" /> 
<polyline style="fill-rule:evenodd;"
points="53852,40187
54147,40187
54147,40502
53852,40502
53852,40187
" /> 
<polyline style="fill-rule:evenodd;"
points="52472,40502
52177,40502
52177,40187
52472,40187
52472,40502
" /> 
<polyline style="fill-rule:evenodd;"
points="52472,39912
52177,39912
52177,39597
52472,39597
52472,39912
" /> 
<polyline style="fill-rule:evenodd;"
points="55447,40147
55447,39852
55762,39852
55762,40147
55447,40147
" /> 
<polyline style="fill-rule:evenodd;"
points="56037,40147
56037,39852
56352,39852
56352,40147
56037,40147
" /> 
<polyline style="fill-rule:evenodd;"
points="54627,42327
54627,42622
54312,42622
54312,42327
54627,42327
" /> 
<polyline style="fill-rule:evenodd;"
points="54037,42327
54037,42622
53722,42622
53722,42327
54037,42327
" /> 
<polyline style="fill-rule:evenodd;"
points="55447,41047
55447,40752
55762,40752
55762,41047
55447,41047
" /> 
<polyline style="fill-rule:evenodd;"
points="56037,41047
56037,40752
56352,40752
56352,41047
56037,41047
" /> 
<polyline style="fill-rule:evenodd;"
points="57897,39297
57897,39002
58212,39002
58212,39297
57897,39297
" /> 
<polyline style="fill-rule:evenodd;"
points="58487,39297
58487,39002
58802,39002
58802,39297
58487,39297
" /> 
<polyline style="fill-rule:evenodd;"
points="57552,42502
57552,42797
57237,42797
57237,42502
57552,42502
" /> 
<polyline style="fill-rule:evenodd;"
points="56962,42502
56962,42797
56647,42797
56647,42502
56962,42502
" /> 
<polyline style="fill-rule:evenodd;"
points="51138,42481
50961,42481
50961,42249
51138,42249
51138,42481
" /> 
<polyline style="fill-rule:evenodd;"
points="51138,41650
50961,41650
50961,41418
51138,41418
51138,41650
" /> 
<polyline style="fill-rule:evenodd;"
points="56418,39138
56418,38961
56650,38961
56650,39138
56418,39138
" /> 
<polyline style="fill-rule:evenodd;"
points="57249,39138
57249,38961
57481,38961
57481,39138
57249,39138
" /> 
<polyline style="fill-rule:evenodd;"
points="52533,41842
52140,41842
52140,41724
52533,41724
52533,41842
" /> 
<polyline style="fill-rule:evenodd;"
points="52533,41587
52140,41587
52140,41468
52533,41468
52533,41587
" /> 
<polyline style="fill-rule:evenodd;"
points="52533,41331
52140,41331
52140,41212
52533,41212
52533,41331
" /> 
<polyline style="fill-rule:evenodd;"
points="52533,41075
52140,41075
52140,40957
52533,40957
52533,41075
" /> 
<polyline style="fill-rule:evenodd;"
points="54659,41842
54266,41842
54266,41724
54659,41724
54659,41842
" /> 
<polyline style="fill-rule:evenodd;"
points="54659,41587
54266,41587
54266,41468
54659,41468
54659,41587
" /> 
<polyline style="fill-rule:evenodd;"
points="54659,41331
54266,41331
54266,41212
54659,41212
54659,41331
" /> 
<polyline style="fill-rule:evenodd;"
points="54659,41075
54266,41075
54266,40957
54659,40957
54659,41075
" /> 
<polyline style="fill-rule:evenodd;"
points="62171,38984
61876,38984
61876,38827
62171,38827
62171,38984
" /> 
<polyline style="fill-rule:evenodd;"
points="62171,38728
61876,38728
61876,38571
62171,38571
62171,38728
" /> 
<polyline style="fill-rule:evenodd;"
points="62171,38472
61876,38472
61876,38315
62171,38315
62171,38472
" /> 
<polyline style="fill-rule:evenodd;"
points="61423,38472
61128,38472
61128,38315
61423,38315
61423,38472
" /> 
<polyline style="fill-rule:evenodd;"
points="61423,38728
61128,38728
61128,38571
61423,38571
61423,38728
" /> 
<polyline style="fill-rule:evenodd;"
points="61423,38984
61128,38984
61128,38827
61423,38827
61423,38984
" /> 
<polyline style="fill-rule:evenodd;"
points="58681,36857
58681,37842
57696,37842
57696,36857
58681,36857
" /> 
<polyline style="fill-rule:evenodd;"
points="57303,36857
57303,37842
56318,37842
56318,36857
57303,36857
" /> 
<polyline style="fill-rule:evenodd;"
points="52550,38500
51750,38500
51750,37700
52550,37700
52550,38500
" /> 
</g>
<g style="fill:#000000; fill-opacity:1.0; 
stroke:#000000; stroke-width:800; stroke-opacity:1; 
stroke-linecap:round; stroke-linejoin:round;">
</g>
<g style="fill:#000000; fill-opacity:0.0; 
stroke:#000000; stroke-width:800; stroke-opacity:1; 
stroke-linecap:round; stroke-linejoin:round;">
<path d="M53150 38100
L53150 38100
" />
</g>
<g style="fill:#000000; fill-opacity:0.0; 
stroke:#000000; stroke-width:0; stroke-opacity:1; 
stroke-linecap:round; stroke-linejoin:round;">
</g>
<g style="fill:#000000; fill-opacity:1.0; 
stroke:#000000; stroke-width:0; stroke-opacity:1; 
stroke-linecap:round; stroke-linejoin:round;">
<polyline style="fill-rule:evenodd;"
points="64100,37290
64100,36610
64900,36610
64900,37290
64100,37290
" /> 
</g>
<g style="fill:#000000; fill-opacity:1.0; 
stroke:#000000; stroke-width:680; stroke-opacity:1; 
stroke-linecap:round; stroke-linejoin:round;">
</g>
<g style="fill:#000000; fill-opacity:0.0; 
stroke:#000000; stroke-width:680; stroke-opacity:1; 
stroke-linecap:round; stroke-linejoin:round;">
<path d="M64440 37950
L64560 37950
" />
<path d="M64440 38950
L64560 38950
" />
<path d="M64440 39950
L64560 39950
" />
<path d="M64440 40950
L64560 40950
" />
<path d="M64440 41950
L64560 41950
" />
<path d="M64440 42950
L64560 42950
" />
</g>
<g style="fill:#000000; fill-opacity:0.0; 
stroke:#000000; stroke-width:0; stroke-opacity:1; 
stroke-linecap:round; stroke-linejoin:round;">
</g>
<g style="fill:#000000; fill-opacity:1.0; 
stroke:#000000; stroke-width:0; stroke-opacity:1; 
stroke-linecap:round; stroke-linejoin:round;">
<polyline style="fill-rule:evenodd;"
points="58931,41348
58931,41663
58616,41663
58616,41348
58931,41348
" /> 
<polyline style="fill-rule:evenodd;"
points="58183,41348
58183,41663
57868,41663
57868,41348
58183,41348
" /> 
<polyline style="fill-rule:evenodd;"
points="58557,42135
58557,42450
58242,42450
58242,42135
58557,42135
" /> 
<polyline style="fill-rule:evenodd;"
points="53302,40443
52947,40443
52947,40246
53302,40246
53302,40443
" /> 
<polyline style="fill-rule:evenodd;"
points="53302,39853
52947,39853
52947,39656
53302,39656
53302,39853
" /> 
<polyline style="fill-rule:evenodd;"
points="57543,40722
57543,41077
57346,41077
57346,40722
57543,40722
" /> 
<polyline style="fill-rule:evenodd;"
points="56953,40722
56953,41077
56756,41077
56756,40722
56953,40722
" /> 
<polyline style="fill-rule:evenodd;"
points="52527,43043
52172,43043
52172,42846
52527,42846
52527,43043
" /> 
<polyline style="fill-rule:evenodd;"
points="52527,42453
52172,42453
52172,42256
52527,42256
52527,42453
" /> 
<polyline style="fill-rule:evenodd;"
points="57518,39822
57518,40177
57321,40177
57321,39822
57518,39822
" /> 
<polyline style="fill-rule:evenodd;"
points="56928,39822
56928,40177
56731,40177
56731,39822
56928,39822
" /> 
<polyline style="fill-rule:evenodd;"
points="56243,41572
56243,41927
56046,41927
56046,41572
56243,41572
" /> 
<polyline style="fill-rule:evenodd;"
points="55653,41572
55653,41927
55456,41927
55456,41572
55653,41572
" /> 
<polyline style="fill-rule:evenodd;"
points="56706,41977
56706,41622
56903,41622
56903,41977
56706,41977
" /> 
<polyline style="fill-rule:evenodd;"
points="57296,41977
57296,41622
57493,41622
57493,41977
57296,41977
" /> 
<polyline style="fill-rule:evenodd;"
points="58743,39822
58743,40177
58546,40177
58546,39822
58743,39822
" /> 
<polyline style="fill-rule:evenodd;"
points="58153,39822
58153,40177
57956,40177
57956,39822
58153,39822
" /> 
<polyline style="fill-rule:evenodd;"
points="60193,39822
60193,40177
59996,40177
59996,39822
60193,39822
" /> 
<polyline style="fill-rule:evenodd;"
points="59603,39822
59603,40177
59406,40177
59406,39822
59603,39822
" /> 
<polyline style="fill-rule:evenodd;"
points="59394,41166
59394,41046
59794,41046
59794,41166
59394,41166
" /> 
<polyline style="fill-rule:evenodd;"
points="59394,41363
59394,41243
59794,41243
59794,41363
59394,41363
" /> 
<polyline style="fill-rule:evenodd;"
points="59394,41560
59394,41439
59794,41439
59794,41560
59394,41560
" /> 
<polyline style="fill-rule:evenodd;"
points="59394,41756
59394,41636
59794,41636
59794,41756
59394,41756
" /> 
<polyline style="fill-rule:evenodd;"
points="59394,41953
59394,41833
59794,41833
59794,41953
59394,41953
" /> 
<polyline style="fill-rule:evenodd;"
points="61005,41166
61005,41046
61405,41046
61405,41166
61005,41166
" /> 
<polyline style="fill-rule:evenodd;"
points="61005,41363
61005,41243
61405,41243
61405,41363
61005,41363
" /> 
<polyline style="fill-rule:evenodd;"
points="61005,41560
61005,41439
61405,41439
61405,41560
61005,41560
" /> 
<polyline style="fill-rule:evenodd;"
points="61005,41756
61005,41636
61405,41636
61405,41756
61005,41756
" /> 
<polyline style="fill-rule:evenodd;"
points="61005,41953
61005,41833
61405,41833
61405,41953
61005,41953
" /> 
<circle cx="63325" cy="39375" r="118.11" /> 
</g>
<g style="fill:#000000; fill-opacity:1.0; 
stroke:#000000; stroke-width:39.3701; stroke-opacity:1; 
stroke-linecap:round; stroke-linejoin:round;">
</g>
<g style="fill:#000000; fill-opacity:1.0; 
stroke:#000000; stroke-width:0; stroke-opacity:1; 
stroke-linecap:round; stroke-linejoin:round;">
<circle cx="60275" cy="38175" r="118.11" /> 
</g>
<g style="fill:#000000; fill-opacity:1.0; 
stroke:#000000; stroke-width:39.3701; stroke-opacity:1; 
stroke-linecap:round; stroke-linejoin:round;">
</g>
<g style="fill:#000000; fill-opacity:1.0; 
stroke:#000000; stroke-width:0; stroke-opacity:1; 
stroke-linecap:round; stroke-linejoin:round;">
<circle cx="62000" cy="43000" r="118.11" /> 
</g>
<g style="fill:#000000; fill-opacity:1.0; 
stroke:#000000; stroke-width:39.3701; stroke-opacity:1; 
stroke-linecap:round; stroke-linejoin:round;">
</g>
<g style="fill:#000000; fill-opacity:1.0; 
stroke:#000000; stroke-width:0; stroke-opacity:1; 
stroke-linecap:round; stroke-linejoin:round;">
<circle cx="59600" cy="43000" r="118.11" /> 
</g>
<g style="fill:#000000; fill-opacity:1.0; 
stroke:#000000; stroke-width:39.3701; stroke-opacity:1; 
stroke-linecap:round; stroke-linejoin:round;">
</g>
<g style="fill:#000000; fill-opacity:1.0; 
stroke:#000000; stroke-width:0; stroke-opacity:1; 
stroke-linecap:round; stroke-linejoin:round;">
<circle cx="50400" cy="39200" r="118.11" /> 
</g>
<g style="fill:#000000; fill-opacity:1.0; 
stroke:#000000; stroke-width:39.3701; stroke-opacity:1; 
stroke-linecap:round; stroke-linejoin:round;">
</g>
<g style="fill:#000000; fill-opacity:1.0; 
stroke:#000000; stroke-width:0; stroke-opacity:1; 
stroke-linecap:round; stroke-linejoin:round;">
<circle cx="50400" cy="44000" r="118.11" /> 
</g>
<g style="fill:#000000; fill-opacity:1.0; 
stroke:#000000; stroke-width:39.3701; stroke-opacity:1; 
stroke-linecap:round; stroke-linejoin:round;">
</g>
<g style="fill:#000000; fill-opacity:1.0; 
stroke:#000000; stroke-width:0; stroke-opacity:1; 
stroke-linecap:round; stroke-linejoin:round;">
<circle cx="54800" cy="44000" r="118.11" /> 
</g>
<g style="fill:#000000; fill-opacity:1.0; 
stroke:#000000; stroke-width:39.3701; stroke-opacity:1; 
stroke-linecap:round; stroke-linejoin:round;">
</g>
<g style="fill:#000000; fill-opacity:1.0; 
stroke:#000000; stroke-width:0; stroke-opacity:1; 
stroke-linecap:round; stroke-linejoin:round;">
<circle cx="59600" cy="44000" r="118.11" /> 
</g>
<g style="fill:#000000; fill-opacity:1.0; 
stroke:#000000; stroke-width:39.3701; stroke-opacity:1; 
stroke-linecap:round; stroke-linejoin:round;">
</g>
<g style="fill:#000000; fill-opacity:1.0; 
stroke:#000000; stroke-width:0; stroke-opacity:1; 
stroke-linecap:round; stroke-linejoin:round;">
<circle cx="64400" cy="44000" r="118.11" /> 
</g>
<g style="fill:#000000; fill-opacity:1.0; 
stroke:#000000; stroke-width:39.3701; stroke-opacity:1; 
stroke-linecap:round; stroke-linejoin:round;">
</g>
<g style="fill:#000000; fill-opacity:1.0; 
stroke:#000000; stroke-width:0; stroke-opacity:1; 
stroke-linecap:round; stroke-linejoin:round;">
<circle cx="66000" cy="42800" r="118.11" /> 
</g>
<g style="fill:#000000; fill-opacity:1.0; 
stroke:#000000; stroke-width:39.3701; stroke-opacity:1; 
stroke-linecap:round; stroke-linejoin:round;">
</g>
<g style="fill:#000000; fill-opacity:1.0; 
stroke:#000000; stroke-width:0; stroke-opacity:1; 
stroke-linecap:round; stroke-linejoin:round;">
<circle cx="66000" cy="38000" r="118.11" /> 
</g>
<g style="fill:#000000; fill-opacity:1.0; 
stroke:#000000; stroke-width:39.3701; stroke-opacity:1; 
stroke-linecap:round; stroke-linejoin:round;">
</g>
<g style="fill:#000000; fill-opacity:1.0; 
stroke:#000000; stroke-width:0; stroke-opacity:1; 
stroke-linecap:round; stroke-linejoin:round;">
<circle cx="64400" cy="35600" r="118.11" /> 
</g>
<g style="fill:#000000; fill-opacity:1.0; 
stroke:#000000; stroke-width:39.3701; stroke-opacity:1; 
stroke-linecap:round; stroke-linejoin:round;">
</g>
<g style="fill:#000000; fill-opacity:1.0; 
stroke:#000000; stroke-width:0; stroke-opacity:1; 
stroke-linecap:round; stroke-linejoin:round;">
<circle cx="59600" cy="35600" r="118.11" /> 
</g>
<g style="fill:#000000; fill-opacity:1.0; 
stroke:#000000; stroke-width:39.3701; stroke-opacity:1; 
stroke-linecap:round; stroke-linejoin:round;">
</g>
<g style="fill:#000000; fill-opacity:1.0; 
stroke:#000000; stroke-width:0; stroke-opacity:1; 
stroke-linecap:round; stroke-linejoin:round;">
<circle cx="54800" cy="35600" r="118.11" /> 
</g>
<g style="fill:#000000; fill-opacity:1.0; 
stroke:#000000; stroke-width:39.3701; stroke-opacity:1; 
stroke-linecap:round; stroke-linejoin:round;">
</g>
<g style="fill:#000000; fill-opacity:1.0; 
stroke:#000000; stroke-width:0; stroke-opacity:1; 
stroke-linecap:round; stroke-linejoin:round;">
<circle cx="50200" cy="35600" r="118.11" /> 
</g>
<g style="fill:#000000; fill-opacity:1.0; 
stroke:#000000; stroke-width:39.3701; stroke-opacity:1; 
stroke-linecap:round; stroke-linejoin:round;">
</g>
<g style="fill:#000000; fill-opacity:1.0; 
stroke:#000000; stroke-width:0; stroke-opacity:1; 
stroke-linecap:round; stroke-linejoin:round;">
<circle cx="52400" cy="35600" r="118.11" /> 
</g>
<g style="fill:#000000; fill-opacity:1.0; 
stroke:#000000; stroke-width:39.3701; stroke-opacity:1; 
stroke-linecap:round; stroke-linejoin:round;">
</g>
<g style="fill:#000000; fill-opacity:1.0; 
stroke:#000000; stroke-width:0; stroke-opacity:1; 
stroke-linecap:round; stroke-linejoin:round;">
<circle cx="57200" cy="35600" r="118.11" /> 
</g>
<g style="fill:#000000; fill-opacity:1.0; 
stroke:#000000; stroke-width:39.3701; stroke-opacity:1; 
stroke-linecap:round; stroke-linejoin:round;">
</g>
<g style="fill:#000000; fill-opacity:1.0; 
stroke:#000000; stroke-width:0; stroke-opacity:1; 
stroke-linecap:round; stroke-linejoin:round;">
<circle cx="62000" cy="35600" r="118.11" /> 
</g>
<g style="fill:#000000; fill-opacity:1.0; 
stroke:#000000; stroke-width:39.3701; stroke-opacity:1; 
stroke-linecap:round; stroke-linejoin:round;">
</g>
<g style="fill:#000000; fill-opacity:1.0; 
stroke:#000000; stroke-width:0; stroke-opacity:1; 
stroke-linecap:round; stroke-linejoin:round;">
<circle cx="66000" cy="35600" r="118.11" /> 
</g>
<g style="fill:#000000; fill-opacity:1.0; 
stroke:#000000; stroke-width:39.3701; stroke-opacity:1; 
stroke-linecap:round; stroke-linejoin:round;">
</g>
<g style="fill:#000000; fill-opacity:1.0; 
stroke:#000000; stroke-width:0; stroke-opacity:1; 
stroke-linecap:round; stroke-linejoin:round;">
<circle cx="66000" cy="40400" r="118.11" /> 
</g>
<g style="fill:#000000; fill-opacity:1.0; 
stroke:#000000; stroke-width:39.3701; stroke-opacity:1; 
stroke-linecap:round; stroke-linejoin:round;">
</g>
<g style="fill:#000000; fill-opacity:1.0; 
stroke:#000000; stroke-width:0; stroke-opacity:1; 
stroke-linecap:round; stroke-linejoin:round;">
<circle cx="66000" cy="44000" r="118.11" /> 
</g>
<g style="fill:#000000; fill-opacity:1.0; 
stroke:#000000; stroke-width:39.3701; stroke-opacity:1; 
stroke-linecap:round; stroke-linejoin:round;">
</g>
<g style="fill:#000000; fill-opacity:1.0; 
stroke:#000000; stroke-width:0; stroke-opacity:1; 
stroke-linecap:round; stroke-linejoin:round;">
<circle cx="62000" cy="44000" r="118.11" /> 
</g>
<g style="fill:#000000; fill-opacity:1.0; 
stroke:#000000; stroke-width:39.3701; stroke-opacity:1; 
stroke-linecap:round; stroke-linejoin:round;">
</g>
<g style="fill:#000000; fill-opacity:1.0; 
stroke:#000000; stroke-width:0; stroke-opacity:1; 
stroke-linecap:round; stroke-linejoin:round;">
<circle cx="57200" cy="44000" r="118.11" /> 
</g>
<g style="fill:#000000; fill-opacity:1.0; 
stroke:#000000; stroke-width:39.3701; stroke-opacity:1; 
stroke-linecap:round; stroke-linejoin:round;">
</g>
<g style="fill:#000000; fill-opacity:1.0; 
stroke:#000000; stroke-width:0; stroke-opacity:1; 
stroke-linecap:round; stroke-linejoin:round;">
<circle cx="52400" cy="44000" r="118.11" /> 
</g>
<g style="fill:#000000; fill-opacity:1.0; 
stroke:#000000; stroke-width:39.3701; stroke-opacity:1; 
stroke-linecap:round; stroke-linejoin:round;">
</g>
<g style="fill:#000000; fill-opacity:1.0; 
stroke:#000000; stroke-width:0; stroke-opacity:1; 
stroke-linecap:round; stroke-linejoin:round;">
<circle cx="50400" cy="41600" r="118.11" /> 
</g>
<g style="fill:#000000; fill-opacity:1.0; 
stroke:#000000; stroke-width:39.3701; stroke-opacity:1; 
stroke-linecap:round; stroke-linejoin:round;">
</g>
<g style="fill:#000000; fill-opacity:1.0; 
stroke:#000000; stroke-width:0; stroke-opacity:1; 
stroke-linecap:round; stroke-linejoin:round;">
<circle cx="50200" cy="37400" r="118.11" /> 
</g>
<g style="fill:#000000; fill-opacity:1.0; 
stroke:#000000; stroke-width:39.3701; stroke-opacity:1; 
stroke-linecap:round; stroke-linejoin:round;">
</g>
<g style="fill:#000000; fill-opacity:1.0; 
stroke:#000000; stroke-width:0; stroke-opacity:1; 
stroke-linecap:round; stroke-linejoin:round;">
<circle cx="53400" cy="42475" r="118.11" /> 
</g>
<g style="fill:#000000; fill-opacity:1.0; 
stroke:#000000; stroke-width:39.3701; stroke-opacity:1; 
stroke-linecap:round; stroke-linejoin:round;">
</g>
<g style="fill:#000000; fill-opacity:1.0; 
stroke:#000000; stroke-width:0; stroke-opacity:1; 
stroke-linecap:round; stroke-linejoin:round;">
<circle cx="53400" cy="41400" r="118.11" /> 
</g>
<g style="fill:#000000; fill-opacity:1.0; 
stroke:#000000; stroke-width:39.3701; stroke-opacity:1; 
stroke-linecap:round; stroke-linejoin:round;">
</g>
<g style="fill:#000000; fill-opacity:1.0; 
stroke:#000000; stroke-width:0; stroke-opacity:1; 
stroke-linecap:round; stroke-linejoin:round;">
<circle cx="56225" cy="38625" r="118.11" /> 
</g>
<g style="fill:#000000; fill-opacity:1.0; 
stroke:#000000; stroke-width:39.3701; stroke-opacity:1; 
stroke-linecap:round; stroke-linejoin:round;">
</g>
<g style="fill:#000000; fill-opacity:1.0; 
stroke:#000000; stroke-width:0; stroke-opacity:1; 
stroke-linecap:round; stroke-linejoin:round;">
<circle cx="57375" cy="38625" r="118.11" /> 
</g>
<g style="fill:#000000; fill-opacity:1.0; 
stroke:#000000; stroke-width:39.3701; stroke-opacity:1; 
stroke-linecap:round; stroke-linejoin:round;">
</g>
<g style="fill:#000000; fill-opacity:1.0; 
stroke:#000000; stroke-width:0; stroke-opacity:1; 
stroke-linecap:round; stroke-linejoin:round;">
<circle cx="54275" cy="38600" r="118.11" /> 
</g>
<g style="fill:#000000; fill-opacity:1.0; 
stroke:#000000; stroke-width:39.3701; stroke-opacity:1; 
stroke-linecap:round; stroke-linejoin:round;">
</g>
<g style="fill:#000000; fill-opacity:1.0; 
stroke:#000000; stroke-width:0; stroke-opacity:1; 
stroke-linecap:round; stroke-linejoin:round;">
<circle cx="58650" cy="38525" r="118.11" /> 
</g>
<g style="fill:#000000; fill-opacity:1.0; 
stroke:#000000; stroke-width:39.3701; stroke-opacity:1; 
stroke-linecap:round; stroke-linejoin:round;">
</g>
<g style="fill:#000000; fill-opacity:1.0; 
stroke:#000000; stroke-width:0; stroke-opacity:1; 
stroke-linecap:round; stroke-linejoin:round;">
<circle cx="59125" cy="40375" r="118.11" /> 
</g>
<g style="fill:#000000; fill-opacity:1.0; 
stroke:#000000; stroke-width:39.3701; stroke-opacity:1; 
stroke-linecap:round; stroke-linejoin:round;">
</g>
<g style="fill:#000000; fill-opacity:1.0; 
stroke:#000000; stroke-width:0; stroke-opacity:1; 
stroke-linecap:round; stroke-linejoin:round;">
<circle cx="57395.3" cy="41800" r="118.11" /> 
</g>
<g style="fill:#000000; fill-opacity:1.0; 
stroke:#000000; stroke-width:39.3701; stroke-opacity:1; 
stroke-linecap:round; stroke-linejoin:round;">
</g>
<g style="fill:#000000; fill-opacity:1.0; 
stroke:#000000; stroke-width:0; stroke-opacity:1; 
stroke-linecap:round; stroke-linejoin:round;">
<circle cx="56875" cy="40525" r="118.11" /> 
</g>
<g style="fill:#000000; fill-opacity:1.0; 
stroke:#000000; stroke-width:39.3701; stroke-opacity:1; 
stroke-linecap:round; stroke-linejoin:round;">
</g>
<g style="fill:#000000; fill-opacity:1.0; 
stroke:#000000; stroke-width:0; stroke-opacity:1; 
stroke-linecap:round; stroke-linejoin:round;">
<circle cx="54800" cy="40525" r="118.11" /> 
</g>
<g style="fill:#000000; fill-opacity:1.0; 
stroke:#000000; stroke-width:39.3701; stroke-opacity:1; 
stroke-linecap:round; stroke-linejoin:round;">
</g>
<g style="fill:#000000; fill-opacity:1.0; 
stroke:#000000; stroke-width:0; stroke-opacity:1; 
stroke-linecap:round; stroke-linejoin:round;">
<circle cx="51850" cy="41950" r="118.11" /> 
</g>
<g style="fill:#000000; fill-opacity:1.0; 
stroke:#000000; stroke-width:39.3701; stroke-opacity:1; 
stroke-linecap:round; stroke-linejoin:round;">
</g>
<g style="fill:#000000; fill-opacity:1.0; 
stroke:#000000; stroke-width:0; stroke-opacity:1; 
stroke-linecap:round; stroke-linejoin:round;">
<circle cx="55025" cy="41783.9" r="118.11" /> 
</g>
<g style="fill:#000000; fill-opacity:1.0; 
stroke:#000000; stroke-width:39.3701; stroke-opacity:1; 
stroke-linecap:round; stroke-linejoin:round;">
</g>
<g style="fill:#000000; fill-opacity:1.0; 
stroke:#000000; stroke-width:0; stroke-opacity:1; 
stroke-linecap:round; stroke-linejoin:round;">
<circle cx="56525" cy="41775" r="118.11" /> 
</g>
<g style="fill:#000000; fill-opacity:1.0; 
stroke:#000000; stroke-width:39.3701; stroke-opacity:1; 
stroke-linecap:round; stroke-linejoin:round;">
</g>
<g style="fill:#000000; fill-opacity:1.0; 
stroke:#000000; stroke-width:0; stroke-opacity:1; 
stroke-linecap:round; stroke-linejoin:round;">
<circle cx="57425" cy="40400" r="118.11" /> 
</g>
<g style="fill:#000000; fill-opacity:1.0; 
stroke:#000000; stroke-width:39.3701; stroke-opacity:1; 
stroke-linecap:round; stroke-linejoin:round;">
</g>
<g style="fill:#000000; fill-opacity:1.0; 
stroke:#000000; stroke-width:0; stroke-opacity:1; 
stroke-linecap:round; stroke-linejoin:round;">
<circle cx="56400" cy="41425" r="118.11" /> 
</g>
<g style="fill:#000000; fill-opacity:1.0; 
stroke:#000000; stroke-width:39.3701; stroke-opacity:1; 
stroke-linecap:round; stroke-linejoin:round;">
</g>
<g style="fill:#000000; fill-opacity:1.0; 
stroke:#000000; stroke-width:0; stroke-opacity:1; 
stroke-linecap:round; stroke-linejoin:round;">
<circle cx="51700" cy="39725" r="118.11" /> 
</g>
<g style="fill:#000000; fill-opacity:1.0; 
stroke:#000000; stroke-width:39.3701; stroke-opacity:1; 
stroke-linecap:round; stroke-linejoin:round;">
</g>
<g style="fill:#000000; fill-opacity:1.0; 
stroke:#000000; stroke-width:0; stroke-opacity:1; 
stroke-linecap:round; stroke-linejoin:round;">
<circle cx="55825" cy="38300" r="118.11" /> 
</g>
<g style="fill:#000000; fill-opacity:1.0; 
stroke:#000000; stroke-width:39.3701; stroke-opacity:1; 
stroke-linecap:round; stroke-linejoin:round;">
</g>
<g style="fill:#000000; fill-opacity:1.0; 
stroke:#000000; stroke-width:0; stroke-opacity:1; 
stroke-linecap:round; stroke-linejoin:round;">
<circle cx="54475" cy="40075" r="118.11" /> 
</g>
<g style="fill:#000000; fill-opacity:1.0; 
stroke:#000000; stroke-width:39.3701; stroke-opacity:1; 
stroke-linecap:round; stroke-linejoin:round;">
</g>
<g style="fill:#000000; fill-opacity:1.0; 
stroke:#000000; stroke-width:0; stroke-opacity:1; 
stroke-linecap:round; stroke-linejoin:round;">
<circle cx="62925" cy="42025" r="118.11" /> 
</g>
<g style="fill:#000000; fill-opacity:1.0; 
stroke:#000000; stroke-width:39.3701; stroke-opacity:1; 
stroke-linecap:round; stroke-linejoin:round;">
</g>
<g style="fill:#000000; fill-opacity:1.0; 
stroke:#000000; stroke-width:0; stroke-opacity:1; 
stroke-linecap:round; stroke-linejoin:round;">
<circle cx="62925" cy="40375" r="118.11" /> 
</g>
<g style="fill:#000000; fill-opacity:1.0; 
stroke:#000000; stroke-width:39.3701; stroke-opacity:1; 
stroke-linecap:round; stroke-linejoin:round;">
</g>
<g style="fill:#000000; fill-opacity:1.0; 
stroke:#000000; stroke-width:0; stroke-opacity:1; 
stroke-linecap:round; stroke-linejoin:round;">
<circle cx="62300" cy="40375" r="118.11" /> 
</g>
<g style="fill:#000000; fill-opacity:1.0; 
stroke:#000000; stroke-width:39.3701; stroke-opacity:1; 
stroke-linecap:round; stroke-linejoin:round;">
</g>
<g style="fill:#000000; fill-opacity:1.0; 
stroke:#000000; stroke-width:0; stroke-opacity:1; 
stroke-linecap:round; stroke-linejoin:round;">
<circle cx="61275" cy="40375" r="118.11" /> 
</g>
<g style="fill:#000000; fill-opacity:1.0; 
stroke:#000000; stroke-width:39.3701; stroke-opacity:1; 
stroke-linecap:round; stroke-linejoin:round;">
</g>
<g style="fill:#000000; fill-opacity:1.0; 
stroke:#000000; stroke-width:0; stroke-opacity:1; 
stroke-linecap:round; stroke-linejoin:round;">
<circle cx="60175" cy="36925" r="118.11" /> 
</g>
<g style="fill:#000000; fill-opacity:1.0; 
stroke:#000000; stroke-width:39.3701; stroke-opacity:1; 
stroke-linecap:round; stroke-linejoin:round;">
</g>
<g style="fill:#000000; fill-opacity:1.0; 
stroke:#000000; stroke-width:0; stroke-opacity:1; 
stroke-linecap:round; stroke-linejoin:round;">
<circle cx="59525" cy="37575" r="118.11" /> 
</g>
<g style="fill:#000000; fill-opacity:1.0; 
stroke:#000000; stroke-width:39.3701; stroke-opacity:1; 
stroke-linecap:round; stroke-linejoin:round;">
</g>
<g style="fill:#000000; fill-opacity:1.0; 
stroke:#000000; stroke-width:0; stroke-opacity:1; 
stroke-linecap:round; stroke-linejoin:round;">
<circle cx="60425" cy="37425" r="118.11" /> 
</g>
<g style="fill:#000000; fill-opacity:1.0; 
stroke:#000000; stroke-width:39.3701; stroke-opacity:1; 
stroke-linecap:round; stroke-linejoin:round;">
</g>
<g style="fill:#000000; fill-opacity:1.0; 
stroke:#000000; stroke-width:0; stroke-opacity:1; 
stroke-linecap:round; stroke-linejoin:round;">
<circle cx="59975" cy="37850" r="118.11" /> 
</g>
<g style="fill:#000000; fill-opacity:1.0; 
stroke:#000000; stroke-width:39.3701; stroke-opacity:1; 
stroke-linecap:round; stroke-linejoin:round;">
</g>
<g style="fill:#000000; fill-opacity:1.0; 
stroke:#000000; stroke-width:0; stroke-opacity:1; 
stroke-linecap:round; stroke-linejoin:round;">
<circle cx="62000" cy="40925" r="118.11" /> 
</g>
<g style="fill:#000000; fill-opacity:1.0; 
stroke:#000000; stroke-width:39.3701; stroke-opacity:1; 
stroke-linecap:round; stroke-linejoin:round;">
</g>
<g style="fill:#000000; fill-opacity:1.0; 
stroke:#000000; stroke-width:0; stroke-opacity:1; 
stroke-linecap:round; stroke-linejoin:round;">
<circle cx="61850" cy="41625" r="118.11" /> 
</g>
<g style="fill:#000000; fill-opacity:1.0; 
stroke:#000000; stroke-width:39.3701; stroke-opacity:1; 
stroke-linecap:round; stroke-linejoin:round;">
</g>
<g style="fill:#000000; fill-opacity:1.0; 
stroke:#000000; stroke-width:0; stroke-opacity:1; 
stroke-linecap:round; stroke-linejoin:round;">
<circle cx="62575" cy="38400" r="118.11" /> 
</g>
<g style="fill:#000000; fill-opacity:1.0; 
stroke:#000000; stroke-width:39.3701; stroke-opacity:1; 
stroke-linecap:round; stroke-linejoin:round;">
</g>
<g style="fill:#000000; fill-opacity:1.0; 
stroke:#000000; stroke-width:0; stroke-opacity:1; 
stroke-linecap:round; stroke-linejoin:round;">
<circle cx="62475" cy="41850" r="118.11" /> 
</g>
<g style="fill:#000000; fill-opacity:1.0; 
stroke:#000000; stroke-width:39.3701; stroke-opacity:1; 
stroke-linecap:round; stroke-linejoin:round;">
</g>
<g style="fill:#000000; fill-opacity:1.0; 
stroke:#000000; stroke-width:98.4252; stroke-opacity:1; 
stroke-linecap:round; stroke-linejoin:round;">
</g>
<g style="fill:#000000; fill-opacity:0.0; 
stroke:#000000; stroke-width:98.4252; stroke-opacity:1; 
stroke-linecap:round; stroke-linejoin:round;">
<path d="M60374 38906
L60819 38906
" />
<path d="M57686 36475
L56811 37350
" />
<path d="M59000 36475
L57686 36475
" />
<path d="M60825 38300
L59000 36475
" />
<path d="M60825 38900
L60825 38300
" />
<path d="M60819 38906
L60825 38900
" />
<path d="M53150 38100
L55325 38100
" />
<path d="M56075 37350
L56811 37350
" />
<path d="M55325 38100
L56075 37350
" />
<path d="M53150 38100
L53150 39729
" />
<path d="M53150 39729
L53175 39754
" />
<path d="M53175 39754
L54000 39754
" />
<path d="M62024 38650
L62350 38650
" />
<path d="M63075 39375
L63325 39375
" />
<path d="M62350 38650
L63075 39375
" />
<path d="M60374 38650
L60374 38394
" />
<path d="M60374 38394
L60275 38295
" />
<path d="M60275 38295
L60275 38175
" />
<path d="M62000 42950
L62000 43000
" />
<path d="M59594 42894
L59594 42994
" />
<path d="M59594 42994
L59600 43000
" />
<path d="M50400 39200
L50400 37600
" />
<path d="M50400 41600
L50400 44000
" />
<path d="M52400 44000
L54800 44000
" />
<path d="M57200 44000
L59600 44000
" />
<path d="M62000 44000
L64400 44000
" />
<path d="M66000 44000
L66000 42800
" />
<path d="M66000 40400
L66000 38000
" />
<path d="M66000 35600
L64400 35600
" />
<path d="M62000 35600
L59600 35600
" />
<path d="M57200 35600
L54800 35600
" />
<path d="M52400 35600
L50200 35600
" />
<path d="M52150 37550
L50200 35600
" />
<path d="M52150 38100
L52150 37550
" />
<path d="M54800 35600
L52400 35600
" />
<path d="M59600 35600
L57200 35600
" />
<path d="M64400 35600
L62000 35600
" />
<path d="M66000 38000
L66000 35600
" />
<path d="M66000 42800
L66000 40400
" />
<path d="M64400 44000
L66000 44000
" />
<path d="M59600 44000
L62000 44000
" />
<path d="M54800 44000
L57200 44000
" />
<path d="M50400 44000
L52400 44000
" />
<path d="M50400 39200
L50400 41600
" />
<path d="M50400 37600
L50200 37400
" />
<path d="M53879 42475
L53400 42475
" />
<path d="M52337 41272
L53272 41272
" />
<path d="M53272 41272
L53400 41400
" />
<path d="M52150 38100
L52150 39150
" />
<path d="M52325 39325
L52325 39754
" />
<path d="M52150 39150
L52325 39325
" />
<path d="M56225 38625
L54300 38625
" />
<path d="M57365 39050
L57365 38634
" />
<path d="M57365 38634
L57375 38625
" />
<path d="M56225 38625
L57375 38625
" />
<path d="M54300 38625
L54275 38600
" />
<path d="M58645 39150
L58645 38529
" />
<path d="M58645 38529
L58650 38525
" />
<path d="M59504 40000
L59500 40000
" />
<path d="M59500 40000
L59125 40375
" />
<path d="M64500 42950
L62000 42950
" />
<path d="M62000 42950
L59650 42950
" />
<path d="M59594 42894
L59594 41893
" />
<path d="M59650 42950
L59594 42894
" />
<path d="M52325 40345
L53125 40345
" />
<path d="M52325 40345
L52325 41004
" />
<path d="M52325 41004
L52337 41016
" />
<path d="M57095 40550
L57445 40900
" />
<path d="M56900 40550
L57095 40550
" />
<path d="M56875 40525
L56900 40550
" />
<path d="M52337 41783
L52016 41783
" />
<path d="M55325 40000
L55604 40000
" />
<path d="M54800 40525
L55325 40000
" />
<path d="M52016 41783
L51850 41950
" />
<path d="M55604 40000
L55604 39054
" />
<path d="M55604 39054
L55609 39050
" />
<path d="M55609 39050
L56534 39050
" />
<path d="M51050 42365
L52339 42365
" />
<path d="M52339 42365
L52337 42362
" />
<path d="M52337 42362
L52337 41783
" />
<path d="M56804 41800
L56550 41800
" />
<path d="M56525 41775
L56550 41800
" />
<path d="M54462 41783
L55025 41783
" />
<path d="M55025 41783
L55520 41783
" />
<path d="M55520 41783
L55554 41750
" />
<path d="M54462 41783
L54462 42467
" />
<path d="M54462 42467
L54470 42475
" />
<path d="M55604 40900
L55604 40870
" />
<path d="M55604 40870
L56025 40450
" />
<path d="M56379 40450
L56829 40000
" />
<path d="M56025 40450
L56379 40450
" />
<path d="M55604 40900
L55604 40820
" />
<path d="M54462 41272
L54802 41272
" />
<path d="M55175 40900
L55604 40900
" />
<path d="M54802 41272
L55175 40900
" />
<path d="M56195 40900
L56854 40900
" />
<path d="M54462 41527
L54897 41527
" />
<path d="M55770 41325
L56195 40900
" />
<path d="M55100 41325
L55770 41325
" />
<path d="M54897 41527
L55100 41325
" />
<path d="M56804 40779
L56804 40900
" />
<path d="M57420 40000
L58054 40000
" />
<path d="M56145 41750
L56145 41429
" />
<path d="M57420 40395
L57420 40000
" />
<path d="M57425 40400
L57420 40395
" />
<path d="M56150 41425
L56400 41425
" />
<path d="M56145 41429
L56150 41425
" />
<path d="M52350 42945
L54950 42945
" />
<path d="M54950 42945
L56145 41750
" />
<path d="M59594 41303
L59228 41303
" />
<path d="M59228 41303
L58900 40975
" />
<path d="M58900 40975
L58075 40975
" />
<path d="M58075 40975
L58054 40954
" />
<path d="M58054 40954
L58054 40000
" />
<path d="M58054 39150
L58054 39550
" />
<path d="M58054 39550
L58054 40000
" />
<path d="M59594 41696
L59228 41696
" />
<path d="M58632 42293
L58400 42293
" />
<path d="M59228 41696
L58632 42293
" />
<path d="M57395 42650
L58400 42650
" />
<path d="M58400 42650
L58400 42293
" />
<path d="M58025 41506
L58774 41506
" />
<path d="M58774 41506
L58780 41500
" />
<path d="M58780 41500
L59594 41500
" />
<path d="M56804 42650
L56825 42650
" />
<path d="M56825 42650
L57250 42225
" />
<path d="M57250 42225
L57950 42225
" />
<path d="M57950 42225
L58025 42149
" />
<path d="M58025 42149
L58025 41506
" />
<path d="M58188 37350
L58188 38311
" />
<path d="M51050 40375
L51050 41534
" />
<path d="M51700 39725
L51050 40375
" />
<path d="M58177 38300
L55825 38300
" />
<path d="M58188 38311
L58177 38300
" />
<path d="M52337 41527
L51056 41527
" />
<path d="M51056 41527
L51050 41534
" />
<path d="M54462 41016
L54462 40087
" />
<path d="M54462 40087
L54475 40075
" />
<path d="M61276 38906
L61276 40374
" />
<path d="M63000 41950
L64500 41950
" />
<path d="M62925 42025
L63000 41950
" />
<path d="M62300 40375
L62925 40375
" />
<path d="M61276 40374
L61275 40375
" />
<path d="M64500 36950
L60200 36950
" />
<path d="M60200 36950
L60175 36925
" />
<path d="M59525 37575
L59125 37975
" />
<path d="M59125 37975
L59125 38700
" />
<path d="M58645 40000
L58645 39979
" />
<path d="M58645 39979
L59125 39500
" />
<path d="M59175 38650
L59626 38650
" />
<path d="M59125 38700
L59175 38650
" />
<path d="M59125 39500
L59125 38700
" />
<path d="M59594 41106
L59343 41106
" />
<path d="M58645 40745
L58645 40000
" />
<path d="M58650 40750
L58645 40745
" />
<path d="M58987 40750
L58650 40750
" />
<path d="M59343 41106
L58987 40750
" />
<path d="M59626 38906
L59994 38906
" />
<path d="M63925 37950
L64500 37950
" />
<path d="M63400 37425
L63925 37950
" />
<path d="M60425 37425
L63400 37425
" />
<path d="M59975 38887
L59975 37850
" />
<path d="M59994 38906
L59975 38887
" />
<path d="M61205 41106
L60506 41106
" />
<path d="M59626 39476
L59626 38906
" />
<path d="M59650 39500
L59626 39476
" />
<path d="M60425 39500
L59650 39500
" />
<path d="M60450 39475
L60425 39500
" />
<path d="M60450 41050
L60450 39475
" />
<path d="M60506 41106
L60450 41050
" />
<path d="M61205 41696
L61778 41696
" />
<path d="M62024 40901
L62024 38906
" />
<path d="M62000 40925
L62024 40901
" />
<path d="M61778 41696
L61850 41625
" />
<path d="M64500 39950
L63200 39950
" />
<path d="M63200 39950
L62156 38906
" />
<path d="M62156 38906
L62024 38906
" />
<path d="M62575 38400
L62600 38400
" />
<path d="M63150 38950
L64500 38950
" />
<path d="M62600 38400
L63150 38950
" />
<path d="M61205 41893
L62493 41893
" />
<path d="M62569 38394
L62024 38394
" />
<path d="M62575 38400
L62569 38394
" />
<path d="M62475 41875
L62475 41850
" />
<path d="M62493 41893
L62475 41875
" />
<path d="M61276 38650
L61650 38650
" />
<path d="M61675 38675
L61675 41303
" />
<path d="M61650 38650
L61675 38675
" />
<path d="M61675 41303
L61675 41300
" />
<path d="M61675 41300
L61675 41303
" />
<path d="M61205 41303
L61675 41303
" />
<path d="M61675 41303
L62721 41303
" />
<path d="M62900 41125
L64325 41125
" />
<path d="M62721 41303
L62900 41125
" />
<path d="M64325 41125
L64500 40950
" />
<path d="M61205 41500
L60175 41500
" />
<path d="M60095 41420
L60095 40000
" />
<path d="M60175 41500
L60095 41420
" />
</g>
<g style="fill:#000000; fill-opacity:1.0; 
stroke:#000000; stroke-width:100; stroke-opacity:1; 
stroke-linecap:round; stroke-linejoin:round;">
<polyline style="fill-rule:evenodd;"
points="66845,45020
48954,45020
48954,41418
50706,41418
50706,41650
50723,41743
50778,41828
50862,41885
50961,41905
51138,41905
51231,41888
51316,41833
51320,41827
51502,41827
51481,41876
51481,42022
51499,42066
51313,42066
51237,42014
51138,41994
50961,41994
50868,42011
50783,42066
50726,42150
50706,42249
50706,42481
50723,42574
50778,42659
50862,42716
50961,42736
51138,42736
51231,42718
51315,42664
51994,42664
51938,42747
51917,42846
51917,43043
51935,43136
51990,43221
52073,43278
52172,43298
52527,43298
52619,43281
52676,43244
54950,43244
55064,43221
55161,43156
55227,43091
63867,43091
63868,43097
63968,43305
64140,43458
64357,43534
64450,43477
64450,43000
64550,43000
64550,43477
64642,43534
64859,43458
65031,43305
65131,43097
65132,43091
65085,43000
64550,43000
64450,43000
63914,43000
63867,43091
55227,43091
56136,42182
56243,42182
56336,42164
56401,42122
56451,42143
56515,42143
56523,42154
56607,42211
56706,42232
56819,42232
56804,42247
56647,42247
56554,42264
56469,42319
56412,42403
56392,42502
56392,42797
56409,42890
56464,42975
56548,43032
56647,43052
56962,43052
57054,43035
57099,43006
57138,43032
57237,43052
57552,43052
57645,43035
57730,42980
57751,42949
58400,42949
58514,42926
58611,42861
58676,42764
58697,42657
58735,42633
58792,42549
58794,42537
58843,42504
59217,42130
59252,42165
59344,42203
59481,42203
59544,42141
59544,42011
59644,42011
59644,42141
59706,42203
59844,42203
59936,42165
60006,42095
60044,42003
60044,41986
59982,41924
60029,41856
60039,41806
60044,41801
60044,41783
60044,41782
60047,41767
60060,41776
60175,41799
60757,41799
60750,41833
60750,41953
60768,42046
60822,42131
60906,42188
61005,42208
61405,42208
61489,42192
62340,42192
62401,42218
62547,42218
62597,42197
62612,42233
62716,42336
62851,42393
62997,42393
63133,42337
63221,42249
63931,42249
64010,42367
64131,42448
63968,42594
63868,42802
63867,42808
63914,42900
64450,42900
64450,42892
64550,42892
64550,42900
65085,42900
65132,42808
65131,42802
65031,42594
64868,42448
64989,42367
65117,42175
65162,41950
65117,41724
64989,41532
64865,41450
64989,41367
65117,41175
65162,40950
65117,40724
64989,40532
64865,40450
64989,40367
65117,40175
65162,39950
65117,39724
64989,39532
64865,39450
64989,39367
65117,39175
65162,38950
65117,38724
64989,38532
64865,38450
64989,38367
65117,38175
65162,37950
65117,37724
64989,37532
64984,37529
64992,37527
65077,37472
65134,37389
65154,37290
65154,36610
65137,36517
65082,36432
64999,36375
64900,36355
64100,36355
64007,36372
63922,36427
63865,36510
63845,36610
63845,36650
60421,36650
60383,36613
60248,36556
60102,36556
59966,36612
59863,36716
59806,36851
59806,36858
59211,36263
59114,36198
59000,36175
57686,36175
57571,36198
57474,36263
57134,36602
56318,36602
56226,36620
56141,36675
56084,36758
56064,36857
56064,37052
55960,37073
55863,37138
55201,37800
53725,37800
53609,37627
53398,37486
53150,37437
52901,37486
52768,37575
52761,37558
52691,37488
52599,37450
52262,37450
52200,37512
52200,38050
52207,38050
52207,38150
52200,38150
52200,38687
52262,38750
52599,38750
52691,38711
52761,38641
52768,38624
52850,38679
52850,39421
52770,39473
52721,39544
52684,39455
52614,39385
52522,39347
52437,39347
52375,39409
52375,39704
52382,39704
52382,39804
52375,39804
52375,39812
52275,39812
52275,39804
52267,39804
52267,39704
52275,39704
52275,39409
52212,39347
52127,39347
52035,39385
51965,39455
51961,39465
51908,39413
51773,39356
51627,39356
51491,39412
51388,39516
51331,39651
51331,39669
50838,40163
50773,40260
50750,40375
50750,41283
50726,41319
50706,41418
48954,41418
48954,38212
51500,38212
51500,38549
51538,38641
51608,38711
51700,38750
52037,38750
52100,38687
52100,38150
51562,38150
51500,38212
48954,38212
48954,37650
51500,37650
51500,37987
51562,38050
52100,38050
52100,37512
52037,37450
51700,37450
51608,37488
51538,37558
51500,37650
48954,37650
48954,34204
49275,34204
49381,34183
49424,34154
66845,34154
66845,45020
" /> 
<polyline style="fill-rule:evenodd;"
points="53602,40138
53602,40232
53664,40295
53950,40295
53950,40287
54050,40287
54050,40295
54057,40295
54057,40395
54050,40395
54050,40690
54112,40752
54122,40752
54088,40774
54031,40857
54011,40957
54011,41075
54024,41146
54011,41212
54011,41331
54024,41402
54011,41468
54011,41587
54024,41658
54011,41724
54011,41842
54028,41935
54083,42020
54163,42075
54163,42109
54086,42077
53992,42077
53929,42139
53929,42425
53937,42425
53937,42525
53929,42525
53929,42532
53829,42532
53829,42525
53534,42525
53472,42587
53472,42646
52689,42646
52704,42635
52761,42552
52782,42453
52782,42277
53472,42277
53472,42362
53534,42425
53829,42425
53829,42139
53767,42077
53672,42077
53580,42115
53510,42185
53472,42277
52782,42277
52782,42256
52764,42163
52709,42078
52670,42051
52711,42025
52768,41942
52788,41842
52788,41724
52775,41653
52788,41587
52788,41468
52775,41400
52783,41380
52783,41364
52726,41306
52716,41291
52689,41272
52711,41257
52723,41240
52783,41180
52783,41163
52775,41142
52788,41075
52788,40957
52771,40864
52716,40779
52633,40722
52624,40720
52624,40702
52650,40685
52678,40644
52798,40644
52848,40678
52947,40698
53302,40698
53394,40681
53479,40626
53536,40542
53554,40457
53602,40457
53602,40552
53640,40644
53710,40714
53802,40752
53887,40752
53950,40690
53950,40395
53664,40395
53602,40457
53554,40457
53557,40443
53557,40246
53539,40154
53484,40069
53462,40053
53637,40053
53602,40138
" /> 
<polyline style="fill-rule:evenodd;"
points="57164,41254
57247,41311
57346,41332
57543,41332
57619,41317
57613,41348
57613,41401
57543,41372
57506,41372
57444,41435
57444,41750
57453,41750
57453,41850
57444,41850
57444,41857
57346,41857
57346,41850
57337,41850
57337,41750
57346,41750
57346,41435
57283,41372
57247,41372
57155,41410
57099,41466
57085,41445
57002,41388
56903,41367
56768,41367
56768,41352
56759,41332
56953,41332
57045,41314
57130,41259
57149,41232
57164,41254
" /> 
<polyline style="fill-rule:evenodd;"
points="59218,39950
59455,39950
59455,39942
59553,39942
59553,39950
59562,39950
59562,40050
59553,40050
59553,40364
59616,40427
59652,40427
59744,40389
59796,40337
59796,40791
59794,40791
59451,40791
59198,40538
59101,40473
58987,40450
58944,40450
58944,40326
58978,40276
58998,40177
58998,40112
59156,40112
59156,40226
59194,40318
59264,40389
59356,40427
59393,40427
59455,40364
59455,40050
59218,40050
59156,40112
58998,40112
58998,40049
59158,39889
59218,39950
" /> 
<polyline style="fill-rule:evenodd;"
points="58825,38752
58757,38752
58695,38814
58695,39100
58703,39100
58703,39200
58695,39200
58695,39485
58705,39495
58633,39567
58546,39567
58454,39585
58369,39640
58353,39662
58353,39512
58438,39547
58532,39547
58595,39485
58595,39200
58587,39200
58587,39100
58595,39100
58595,38814
58532,38752
58438,38752
58346,38790
58345,38790
58311,38767
58212,38747
57897,38747
57804,38764
57719,38819
57703,38843
57693,38819
57623,38749
57531,38711
57477,38711
57415,38773
57415,39005
57423,39005
57423,39094
57415,39094
57415,39326
57477,39388
57531,39388
57623,39350
57647,39325
57659,39390
57714,39475
57755,39503
57755,39673
57737,39700
57701,39645
57617,39588
57518,39567
57321,39567
57229,39585
57144,39640
57125,39667
57110,39645
57027,39588
56928,39567
56731,39567
56638,39585
56553,39640
56529,39675
56494,39640
56402,39602
56307,39602
56245,39664
56245,39950
56253,39950
56253,40050
56245,40050
56245,40057
56145,40057
56145,40050
56137,40050
56137,39950
56145,39950
56145,39664
56082,39602
55988,39602
55903,39637
55903,39349
56283,39349
56319,39373
56418,39393
56650,39393
56743,39376
56828,39321
56885,39237
56901,39156
56999,39156
56999,39188
57037,39280
57107,39350
57199,39388
57252,39388
57315,39326
57315,39094
57061,39094
56999,39156
56901,39156
56905,39138
56905,38961
56896,38911
56999,38911
56999,38943
57061,39005
57315,39005
57315,38773
57252,38711
57199,38711
57107,38749
57037,38819
56999,38911
56896,38911
56888,38868
56833,38783
56749,38726
56650,38706
56418,38706
56325,38723
56284,38750
55609,38750
55494,38773
55397,38838
55393,38843
55328,38940
55305,39054
55305,39646
55269,39669
55236,39718
55210,39723
55113,39788
54843,40058
54843,40002
54787,39866
54683,39763
54548,39706
54402,39706
54402,39597
54385,39504
54330,39419
54246,39362
54147,39342
53852,39342
53759,39359
53674,39414
53646,39455
53451,39455
53449,39454
53449,38679
53609,38572
53725,38399
55325,38399
55439,38376
55456,38364
55456,38372
55512,38508
55616,38611
55751,38668
55897,38668
56033,38612
56046,38599
58133,38599
58188,38610
58303,38587
58400,38522
58465,38425
58488,38311
58488,38097
58681,38097
58773,38079
58825,38046
58825,38752
" /> 
<polyline style="fill-rule:evenodd;"
points="62501,38768
62544,38768
62938,39161
63035,39226
63150,39249
63931,39249
64010,39367
64134,39450
64010,39532
63931,39650
63323,39650
62409,38736
62408,38734
62404,38727
62501,38768
" /> 
<polyline style="fill-rule:evenodd;"
points="60424,38354
60431,38354
60431,38376
60424,38384
60424,38451
60324,38451
60324,38384
60316,38376
60316,38354
60324,38354
60324,38336
60424,38336
60424,38354
" /> 
</g> 
</svg>
