G04 #@! TF.FileFunction,Copper,L2,Bot,Signal*
%FSLAX46Y46*%
G04 Gerber Fmt 4.6, Leading zero omitted, Abs format (unit mm)*
G04 Created by KiCad (PCBNEW 4.0.1+dfsg1-stable) date Wed 30 Mar 2016 05:17:46 PM PDT*
%MOMM*%
G01*
G04 APERTURE LIST*
%ADD10C,0.100000*%
%ADD11R,2.032000X2.032000*%
%ADD12O,2.032000X2.032000*%
%ADD13R,2.032000X1.727200*%
%ADD14O,2.032000X1.727200*%
%ADD15C,0.600000*%
%ADD16C,0.250000*%
%ADD17C,0.254000*%
G04 APERTURE END LIST*
D10*
D11*
X132461000Y-96774000D03*
D12*
X135001000Y-96774000D03*
D13*
X163830000Y-93853000D03*
D14*
X163830000Y-96393000D03*
X163830000Y-98933000D03*
X163830000Y-101473000D03*
X163830000Y-104013000D03*
X163830000Y-106553000D03*
X163830000Y-109093000D03*
D15*
X160845500Y-100012500D03*
X153098500Y-96964500D03*
X157480000Y-109220000D03*
X151384000Y-109220000D03*
X128016000Y-99568000D03*
X128016000Y-111760000D03*
X139192000Y-111760000D03*
X151384000Y-111760000D03*
X163576000Y-111760000D03*
X167640000Y-108712000D03*
X167640000Y-96520000D03*
X163576000Y-90424000D03*
X151384000Y-90424000D03*
X139192000Y-90424000D03*
X127508000Y-90424000D03*
X133096000Y-90424000D03*
X145288000Y-90424000D03*
X157480000Y-90424000D03*
X167640000Y-90424000D03*
X167640000Y-102616000D03*
X167640000Y-111760000D03*
X157480000Y-111760000D03*
X145288000Y-111760000D03*
X133096000Y-111760000D03*
X128016000Y-105664000D03*
X127508000Y-94996000D03*
X135636000Y-107886500D03*
X135636000Y-105156000D03*
X142811500Y-98107500D03*
X145732500Y-98107500D03*
X137858500Y-98044000D03*
X148971000Y-97853500D03*
X150177500Y-102552500D03*
X145784000Y-106172000D03*
X144462500Y-102933500D03*
X139192000Y-102933500D03*
X131699000Y-106553000D03*
X139763500Y-106131000D03*
X143573500Y-106108500D03*
X145859500Y-102616000D03*
X143256000Y-105219500D03*
X131318000Y-100901500D03*
X141795500Y-97282000D03*
X138366500Y-101790500D03*
X159829500Y-106743500D03*
X159829500Y-102552500D03*
X158242000Y-102552500D03*
X155638500Y-102552500D03*
X152844500Y-93789500D03*
X151193500Y-95440500D03*
X153479500Y-95059500D03*
X152336500Y-96139000D03*
X157480000Y-103949500D03*
X157099000Y-105727500D03*
X158940500Y-97536000D03*
X158686500Y-106299000D03*
D16*
X153098500Y-96964500D02*
X153035000Y-96901000D01*
X135636000Y-105156000D02*
X135572500Y-105219500D01*
X148971000Y-97853500D02*
X148907500Y-97853500D01*
X145784000Y-106172000D02*
X145796000Y-106172000D01*
X139192000Y-102933500D02*
X144462500Y-102933500D01*
X135318500Y-102933500D02*
X139192000Y-102933500D01*
X131699000Y-106553000D02*
X135318500Y-102933500D01*
X139786000Y-106108500D02*
X143573500Y-106108500D01*
X139786000Y-106108500D02*
X139763500Y-106131000D01*
X143256000Y-105219500D02*
X145859500Y-102616000D01*
X138176000Y-100901500D02*
X131318000Y-100901500D01*
X141795500Y-97282000D02*
X138176000Y-100901500D01*
X154749500Y-101663500D02*
X155638500Y-102552500D01*
X138493500Y-101663500D02*
X154749500Y-101663500D01*
X138366500Y-101790500D02*
X138493500Y-101663500D01*
X159829500Y-102552500D02*
X159829500Y-106743500D01*
X155638500Y-102552500D02*
X158242000Y-102552500D01*
X152844500Y-93789500D02*
X151193500Y-95440500D01*
X153416000Y-95059500D02*
X153479500Y-95059500D01*
X152336500Y-96139000D02*
X153416000Y-95059500D01*
X157480000Y-105346500D02*
X157480000Y-103949500D01*
X157099000Y-105727500D02*
X157480000Y-105346500D01*
X158940500Y-106045000D02*
X158940500Y-97536000D01*
X158686500Y-106299000D02*
X158940500Y-106045000D01*
D17*
G36*
X169787500Y-114352000D02*
X124344500Y-114352000D01*
X124344500Y-109452026D01*
X162222642Y-109452026D01*
X162225291Y-109467791D01*
X162479268Y-109995036D01*
X162915680Y-110384954D01*
X163468087Y-110578184D01*
X163703000Y-110433924D01*
X163703000Y-109220000D01*
X163957000Y-109220000D01*
X163957000Y-110433924D01*
X164191913Y-110578184D01*
X164744320Y-110384954D01*
X165180732Y-109995036D01*
X165434709Y-109467791D01*
X165437358Y-109452026D01*
X165316217Y-109220000D01*
X163957000Y-109220000D01*
X163703000Y-109220000D01*
X162343783Y-109220000D01*
X162222642Y-109452026D01*
X124344500Y-109452026D01*
X124344500Y-101086667D01*
X130382838Y-101086667D01*
X130524883Y-101430443D01*
X130787673Y-101693692D01*
X131131201Y-101836338D01*
X131503167Y-101836662D01*
X131846943Y-101694617D01*
X131880118Y-101661500D01*
X137431612Y-101661500D01*
X137431338Y-101975667D01*
X137513081Y-102173500D01*
X135318500Y-102173500D01*
X135027661Y-102231352D01*
X134781099Y-102396099D01*
X131559320Y-105617878D01*
X131513833Y-105617838D01*
X131170057Y-105759883D01*
X130906808Y-106022673D01*
X130764162Y-106366201D01*
X130763838Y-106738167D01*
X130905883Y-107081943D01*
X131168673Y-107345192D01*
X131512201Y-107487838D01*
X131884167Y-107488162D01*
X132227943Y-107346117D01*
X132491192Y-107083327D01*
X132633838Y-106739799D01*
X132633879Y-106692923D01*
X135633302Y-103693500D01*
X138629537Y-103693500D01*
X138661673Y-103725692D01*
X139005201Y-103868338D01*
X139377167Y-103868662D01*
X139720943Y-103726617D01*
X139754118Y-103693500D01*
X143707198Y-103693500D01*
X143116320Y-104284378D01*
X143070833Y-104284338D01*
X142727057Y-104426383D01*
X142463808Y-104689173D01*
X142321162Y-105032701D01*
X142320887Y-105348500D01*
X140303502Y-105348500D01*
X140293827Y-105338808D01*
X139950299Y-105196162D01*
X139578333Y-105195838D01*
X139234557Y-105337883D01*
X138971308Y-105600673D01*
X138828662Y-105944201D01*
X138828338Y-106316167D01*
X138970383Y-106659943D01*
X139233173Y-106923192D01*
X139576701Y-107065838D01*
X139948667Y-107066162D01*
X140292443Y-106924117D01*
X140348157Y-106868500D01*
X143011037Y-106868500D01*
X143043173Y-106900692D01*
X143386701Y-107043338D01*
X143758667Y-107043662D01*
X144102443Y-106901617D01*
X144365692Y-106638827D01*
X144508338Y-106295299D01*
X144508662Y-105923333D01*
X144366617Y-105579557D01*
X144190840Y-105403473D01*
X144190879Y-105359423D01*
X145999180Y-103551122D01*
X146044667Y-103551162D01*
X146388443Y-103409117D01*
X146651692Y-103146327D01*
X146794338Y-102802799D01*
X146794662Y-102430833D01*
X146791632Y-102423500D01*
X154434698Y-102423500D01*
X154703378Y-102692180D01*
X154703338Y-102737667D01*
X154845383Y-103081443D01*
X155108173Y-103344692D01*
X155451701Y-103487338D01*
X155823667Y-103487662D01*
X156167443Y-103345617D01*
X156200618Y-103312500D01*
X156794667Y-103312500D01*
X156687808Y-103419173D01*
X156545162Y-103762701D01*
X156544838Y-104134667D01*
X156686883Y-104478443D01*
X156720000Y-104511618D01*
X156720000Y-104872428D01*
X156570057Y-104934383D01*
X156306808Y-105197173D01*
X156164162Y-105540701D01*
X156163838Y-105912667D01*
X156305883Y-106256443D01*
X156568673Y-106519692D01*
X156912201Y-106662338D01*
X157284167Y-106662662D01*
X157627943Y-106520617D01*
X157751414Y-106397362D01*
X157751338Y-106484167D01*
X157893383Y-106827943D01*
X158156173Y-107091192D01*
X158499701Y-107233838D01*
X158871667Y-107234162D01*
X158998852Y-107181610D01*
X159036383Y-107272443D01*
X159299173Y-107535692D01*
X159642701Y-107678338D01*
X160014667Y-107678662D01*
X160358443Y-107536617D01*
X160621692Y-107273827D01*
X160764338Y-106930299D01*
X160764662Y-106558333D01*
X160622617Y-106214557D01*
X160589500Y-106181382D01*
X160589500Y-103114963D01*
X160621692Y-103082827D01*
X160764338Y-102739299D01*
X160764662Y-102367333D01*
X160622617Y-102023557D01*
X160359827Y-101760308D01*
X160016299Y-101617662D01*
X159700500Y-101617387D01*
X159700500Y-98098463D01*
X159732692Y-98066327D01*
X159875338Y-97722799D01*
X159875662Y-97350833D01*
X159733617Y-97007057D01*
X159470827Y-96743808D01*
X159127299Y-96601162D01*
X158755333Y-96600838D01*
X158411557Y-96742883D01*
X158148308Y-97005673D01*
X158005662Y-97349201D01*
X158005338Y-97721167D01*
X158147383Y-98064943D01*
X158180500Y-98098118D01*
X158180500Y-101617446D01*
X158056833Y-101617338D01*
X157713057Y-101759383D01*
X157679882Y-101792500D01*
X156200963Y-101792500D01*
X156168827Y-101760308D01*
X155825299Y-101617662D01*
X155778423Y-101617621D01*
X155286901Y-101126099D01*
X155040339Y-100961352D01*
X154749500Y-100903500D01*
X139248802Y-100903500D01*
X141935180Y-98217122D01*
X141980667Y-98217162D01*
X142324443Y-98075117D01*
X142587692Y-97812327D01*
X142730338Y-97468799D01*
X142730662Y-97096833D01*
X142588617Y-96753057D01*
X142325827Y-96489808D01*
X141982299Y-96347162D01*
X141610333Y-96346838D01*
X141266557Y-96488883D01*
X141003308Y-96751673D01*
X140860662Y-97095201D01*
X140860621Y-97142077D01*
X137861198Y-100141500D01*
X131880463Y-100141500D01*
X131848327Y-100109308D01*
X131504799Y-99966662D01*
X131132833Y-99966338D01*
X130789057Y-100108383D01*
X130525808Y-100371173D01*
X130383162Y-100714701D01*
X130382838Y-101086667D01*
X124344500Y-101086667D01*
X124344500Y-97059750D01*
X130810000Y-97059750D01*
X130810000Y-97916309D01*
X130906673Y-98149698D01*
X131085301Y-98328327D01*
X131318690Y-98425000D01*
X132175250Y-98425000D01*
X132334000Y-98266250D01*
X132334000Y-96901000D01*
X130968750Y-96901000D01*
X130810000Y-97059750D01*
X124344500Y-97059750D01*
X124344500Y-95631691D01*
X130810000Y-95631691D01*
X130810000Y-96488250D01*
X130968750Y-96647000D01*
X132334000Y-96647000D01*
X132334000Y-95281750D01*
X132588000Y-95281750D01*
X132588000Y-96647000D01*
X132608000Y-96647000D01*
X132608000Y-96901000D01*
X132588000Y-96901000D01*
X132588000Y-98266250D01*
X132746750Y-98425000D01*
X133603310Y-98425000D01*
X133836699Y-98328327D01*
X134015327Y-98149698D01*
X134032999Y-98107034D01*
X134369190Y-98331670D01*
X135001000Y-98457345D01*
X135632810Y-98331670D01*
X136168433Y-97973778D01*
X136526325Y-97438155D01*
X136652000Y-96806345D01*
X136652000Y-96741655D01*
X136526325Y-96109845D01*
X136202808Y-95625667D01*
X150258338Y-95625667D01*
X150400383Y-95969443D01*
X150663173Y-96232692D01*
X151006701Y-96375338D01*
X151378667Y-96375662D01*
X151416206Y-96360151D01*
X151543383Y-96667943D01*
X151806173Y-96931192D01*
X152149701Y-97073838D01*
X152521667Y-97074162D01*
X152865443Y-96932117D01*
X153128692Y-96669327D01*
X153243433Y-96393000D01*
X162146655Y-96393000D01*
X162260729Y-96966489D01*
X162585585Y-97452670D01*
X162900366Y-97663000D01*
X162585585Y-97873330D01*
X162260729Y-98359511D01*
X162146655Y-98933000D01*
X162260729Y-99506489D01*
X162585585Y-99992670D01*
X162900366Y-100203000D01*
X162585585Y-100413330D01*
X162260729Y-100899511D01*
X162146655Y-101473000D01*
X162260729Y-102046489D01*
X162585585Y-102532670D01*
X162900366Y-102743000D01*
X162585585Y-102953330D01*
X162260729Y-103439511D01*
X162146655Y-104013000D01*
X162260729Y-104586489D01*
X162585585Y-105072670D01*
X162900366Y-105283000D01*
X162585585Y-105493330D01*
X162260729Y-105979511D01*
X162146655Y-106553000D01*
X162260729Y-107126489D01*
X162585585Y-107612670D01*
X162895069Y-107819461D01*
X162479268Y-108190964D01*
X162225291Y-108718209D01*
X162222642Y-108733974D01*
X162343783Y-108966000D01*
X163703000Y-108966000D01*
X163703000Y-108946000D01*
X163957000Y-108946000D01*
X163957000Y-108966000D01*
X165316217Y-108966000D01*
X165437358Y-108733974D01*
X165434709Y-108718209D01*
X165180732Y-108190964D01*
X164764931Y-107819461D01*
X165074415Y-107612670D01*
X165399271Y-107126489D01*
X165513345Y-106553000D01*
X165399271Y-105979511D01*
X165074415Y-105493330D01*
X164759634Y-105283000D01*
X165074415Y-105072670D01*
X165399271Y-104586489D01*
X165513345Y-104013000D01*
X165399271Y-103439511D01*
X165074415Y-102953330D01*
X164759634Y-102743000D01*
X165074415Y-102532670D01*
X165399271Y-102046489D01*
X165513345Y-101473000D01*
X165399271Y-100899511D01*
X165074415Y-100413330D01*
X164759634Y-100203000D01*
X165074415Y-99992670D01*
X165399271Y-99506489D01*
X165513345Y-98933000D01*
X165399271Y-98359511D01*
X165074415Y-97873330D01*
X164759634Y-97663000D01*
X165074415Y-97452670D01*
X165399271Y-96966489D01*
X165513345Y-96393000D01*
X165399271Y-95819511D01*
X165074415Y-95333330D01*
X165060087Y-95323757D01*
X165081317Y-95319762D01*
X165297441Y-95180690D01*
X165442431Y-94968490D01*
X165493440Y-94716600D01*
X165493440Y-92989400D01*
X165449162Y-92754083D01*
X165310090Y-92537959D01*
X165097890Y-92392969D01*
X164846000Y-92341960D01*
X162814000Y-92341960D01*
X162578683Y-92386238D01*
X162362559Y-92525310D01*
X162217569Y-92737510D01*
X162166560Y-92989400D01*
X162166560Y-94716600D01*
X162210838Y-94951917D01*
X162349910Y-95168041D01*
X162562110Y-95313031D01*
X162603439Y-95321400D01*
X162585585Y-95333330D01*
X162260729Y-95819511D01*
X162146655Y-96393000D01*
X153243433Y-96393000D01*
X153271338Y-96325799D01*
X153271379Y-96278923D01*
X153555735Y-95994567D01*
X153664667Y-95994662D01*
X154008443Y-95852617D01*
X154271692Y-95589827D01*
X154414338Y-95246299D01*
X154414662Y-94874333D01*
X154272617Y-94530557D01*
X154009827Y-94267308D01*
X153710168Y-94142878D01*
X153779338Y-93976299D01*
X153779662Y-93604333D01*
X153637617Y-93260557D01*
X153374827Y-92997308D01*
X153031299Y-92854662D01*
X152659333Y-92854338D01*
X152315557Y-92996383D01*
X152052308Y-93259173D01*
X151909662Y-93602701D01*
X151909621Y-93649577D01*
X151053820Y-94505378D01*
X151008333Y-94505338D01*
X150664557Y-94647383D01*
X150401308Y-94910173D01*
X150258662Y-95253701D01*
X150258338Y-95625667D01*
X136202808Y-95625667D01*
X136168433Y-95574222D01*
X135632810Y-95216330D01*
X135001000Y-95090655D01*
X134369190Y-95216330D01*
X134032999Y-95440966D01*
X134015327Y-95398302D01*
X133836699Y-95219673D01*
X133603310Y-95123000D01*
X132746750Y-95123000D01*
X132588000Y-95281750D01*
X132334000Y-95281750D01*
X132175250Y-95123000D01*
X131318690Y-95123000D01*
X131085301Y-95219673D01*
X130906673Y-95398302D01*
X130810000Y-95631691D01*
X124344500Y-95631691D01*
X124344500Y-86879500D01*
X125158500Y-86879500D01*
X125430205Y-86825454D01*
X125539389Y-86752500D01*
X169787500Y-86752500D01*
X169787500Y-114352000D01*
X169787500Y-114352000D01*
G37*
X169787500Y-114352000D02*
X124344500Y-114352000D01*
X124344500Y-109452026D01*
X162222642Y-109452026D01*
X162225291Y-109467791D01*
X162479268Y-109995036D01*
X162915680Y-110384954D01*
X163468087Y-110578184D01*
X163703000Y-110433924D01*
X163703000Y-109220000D01*
X163957000Y-109220000D01*
X163957000Y-110433924D01*
X164191913Y-110578184D01*
X164744320Y-110384954D01*
X165180732Y-109995036D01*
X165434709Y-109467791D01*
X165437358Y-109452026D01*
X165316217Y-109220000D01*
X163957000Y-109220000D01*
X163703000Y-109220000D01*
X162343783Y-109220000D01*
X162222642Y-109452026D01*
X124344500Y-109452026D01*
X124344500Y-101086667D01*
X130382838Y-101086667D01*
X130524883Y-101430443D01*
X130787673Y-101693692D01*
X131131201Y-101836338D01*
X131503167Y-101836662D01*
X131846943Y-101694617D01*
X131880118Y-101661500D01*
X137431612Y-101661500D01*
X137431338Y-101975667D01*
X137513081Y-102173500D01*
X135318500Y-102173500D01*
X135027661Y-102231352D01*
X134781099Y-102396099D01*
X131559320Y-105617878D01*
X131513833Y-105617838D01*
X131170057Y-105759883D01*
X130906808Y-106022673D01*
X130764162Y-106366201D01*
X130763838Y-106738167D01*
X130905883Y-107081943D01*
X131168673Y-107345192D01*
X131512201Y-107487838D01*
X131884167Y-107488162D01*
X132227943Y-107346117D01*
X132491192Y-107083327D01*
X132633838Y-106739799D01*
X132633879Y-106692923D01*
X135633302Y-103693500D01*
X138629537Y-103693500D01*
X138661673Y-103725692D01*
X139005201Y-103868338D01*
X139377167Y-103868662D01*
X139720943Y-103726617D01*
X139754118Y-103693500D01*
X143707198Y-103693500D01*
X143116320Y-104284378D01*
X143070833Y-104284338D01*
X142727057Y-104426383D01*
X142463808Y-104689173D01*
X142321162Y-105032701D01*
X142320887Y-105348500D01*
X140303502Y-105348500D01*
X140293827Y-105338808D01*
X139950299Y-105196162D01*
X139578333Y-105195838D01*
X139234557Y-105337883D01*
X138971308Y-105600673D01*
X138828662Y-105944201D01*
X138828338Y-106316167D01*
X138970383Y-106659943D01*
X139233173Y-106923192D01*
X139576701Y-107065838D01*
X139948667Y-107066162D01*
X140292443Y-106924117D01*
X140348157Y-106868500D01*
X143011037Y-106868500D01*
X143043173Y-106900692D01*
X143386701Y-107043338D01*
X143758667Y-107043662D01*
X144102443Y-106901617D01*
X144365692Y-106638827D01*
X144508338Y-106295299D01*
X144508662Y-105923333D01*
X144366617Y-105579557D01*
X144190840Y-105403473D01*
X144190879Y-105359423D01*
X145999180Y-103551122D01*
X146044667Y-103551162D01*
X146388443Y-103409117D01*
X146651692Y-103146327D01*
X146794338Y-102802799D01*
X146794662Y-102430833D01*
X146791632Y-102423500D01*
X154434698Y-102423500D01*
X154703378Y-102692180D01*
X154703338Y-102737667D01*
X154845383Y-103081443D01*
X155108173Y-103344692D01*
X155451701Y-103487338D01*
X155823667Y-103487662D01*
X156167443Y-103345617D01*
X156200618Y-103312500D01*
X156794667Y-103312500D01*
X156687808Y-103419173D01*
X156545162Y-103762701D01*
X156544838Y-104134667D01*
X156686883Y-104478443D01*
X156720000Y-104511618D01*
X156720000Y-104872428D01*
X156570057Y-104934383D01*
X156306808Y-105197173D01*
X156164162Y-105540701D01*
X156163838Y-105912667D01*
X156305883Y-106256443D01*
X156568673Y-106519692D01*
X156912201Y-106662338D01*
X157284167Y-106662662D01*
X157627943Y-106520617D01*
X157751414Y-106397362D01*
X157751338Y-106484167D01*
X157893383Y-106827943D01*
X158156173Y-107091192D01*
X158499701Y-107233838D01*
X158871667Y-107234162D01*
X158998852Y-107181610D01*
X159036383Y-107272443D01*
X159299173Y-107535692D01*
X159642701Y-107678338D01*
X160014667Y-107678662D01*
X160358443Y-107536617D01*
X160621692Y-107273827D01*
X160764338Y-106930299D01*
X160764662Y-106558333D01*
X160622617Y-106214557D01*
X160589500Y-106181382D01*
X160589500Y-103114963D01*
X160621692Y-103082827D01*
X160764338Y-102739299D01*
X160764662Y-102367333D01*
X160622617Y-102023557D01*
X160359827Y-101760308D01*
X160016299Y-101617662D01*
X159700500Y-101617387D01*
X159700500Y-98098463D01*
X159732692Y-98066327D01*
X159875338Y-97722799D01*
X159875662Y-97350833D01*
X159733617Y-97007057D01*
X159470827Y-96743808D01*
X159127299Y-96601162D01*
X158755333Y-96600838D01*
X158411557Y-96742883D01*
X158148308Y-97005673D01*
X158005662Y-97349201D01*
X158005338Y-97721167D01*
X158147383Y-98064943D01*
X158180500Y-98098118D01*
X158180500Y-101617446D01*
X158056833Y-101617338D01*
X157713057Y-101759383D01*
X157679882Y-101792500D01*
X156200963Y-101792500D01*
X156168827Y-101760308D01*
X155825299Y-101617662D01*
X155778423Y-101617621D01*
X155286901Y-101126099D01*
X155040339Y-100961352D01*
X154749500Y-100903500D01*
X139248802Y-100903500D01*
X141935180Y-98217122D01*
X141980667Y-98217162D01*
X142324443Y-98075117D01*
X142587692Y-97812327D01*
X142730338Y-97468799D01*
X142730662Y-97096833D01*
X142588617Y-96753057D01*
X142325827Y-96489808D01*
X141982299Y-96347162D01*
X141610333Y-96346838D01*
X141266557Y-96488883D01*
X141003308Y-96751673D01*
X140860662Y-97095201D01*
X140860621Y-97142077D01*
X137861198Y-100141500D01*
X131880463Y-100141500D01*
X131848327Y-100109308D01*
X131504799Y-99966662D01*
X131132833Y-99966338D01*
X130789057Y-100108383D01*
X130525808Y-100371173D01*
X130383162Y-100714701D01*
X130382838Y-101086667D01*
X124344500Y-101086667D01*
X124344500Y-97059750D01*
X130810000Y-97059750D01*
X130810000Y-97916309D01*
X130906673Y-98149698D01*
X131085301Y-98328327D01*
X131318690Y-98425000D01*
X132175250Y-98425000D01*
X132334000Y-98266250D01*
X132334000Y-96901000D01*
X130968750Y-96901000D01*
X130810000Y-97059750D01*
X124344500Y-97059750D01*
X124344500Y-95631691D01*
X130810000Y-95631691D01*
X130810000Y-96488250D01*
X130968750Y-96647000D01*
X132334000Y-96647000D01*
X132334000Y-95281750D01*
X132588000Y-95281750D01*
X132588000Y-96647000D01*
X132608000Y-96647000D01*
X132608000Y-96901000D01*
X132588000Y-96901000D01*
X132588000Y-98266250D01*
X132746750Y-98425000D01*
X133603310Y-98425000D01*
X133836699Y-98328327D01*
X134015327Y-98149698D01*
X134032999Y-98107034D01*
X134369190Y-98331670D01*
X135001000Y-98457345D01*
X135632810Y-98331670D01*
X136168433Y-97973778D01*
X136526325Y-97438155D01*
X136652000Y-96806345D01*
X136652000Y-96741655D01*
X136526325Y-96109845D01*
X136202808Y-95625667D01*
X150258338Y-95625667D01*
X150400383Y-95969443D01*
X150663173Y-96232692D01*
X151006701Y-96375338D01*
X151378667Y-96375662D01*
X151416206Y-96360151D01*
X151543383Y-96667943D01*
X151806173Y-96931192D01*
X152149701Y-97073838D01*
X152521667Y-97074162D01*
X152865443Y-96932117D01*
X153128692Y-96669327D01*
X153243433Y-96393000D01*
X162146655Y-96393000D01*
X162260729Y-96966489D01*
X162585585Y-97452670D01*
X162900366Y-97663000D01*
X162585585Y-97873330D01*
X162260729Y-98359511D01*
X162146655Y-98933000D01*
X162260729Y-99506489D01*
X162585585Y-99992670D01*
X162900366Y-100203000D01*
X162585585Y-100413330D01*
X162260729Y-100899511D01*
X162146655Y-101473000D01*
X162260729Y-102046489D01*
X162585585Y-102532670D01*
X162900366Y-102743000D01*
X162585585Y-102953330D01*
X162260729Y-103439511D01*
X162146655Y-104013000D01*
X162260729Y-104586489D01*
X162585585Y-105072670D01*
X162900366Y-105283000D01*
X162585585Y-105493330D01*
X162260729Y-105979511D01*
X162146655Y-106553000D01*
X162260729Y-107126489D01*
X162585585Y-107612670D01*
X162895069Y-107819461D01*
X162479268Y-108190964D01*
X162225291Y-108718209D01*
X162222642Y-108733974D01*
X162343783Y-108966000D01*
X163703000Y-108966000D01*
X163703000Y-108946000D01*
X163957000Y-108946000D01*
X163957000Y-108966000D01*
X165316217Y-108966000D01*
X165437358Y-108733974D01*
X165434709Y-108718209D01*
X165180732Y-108190964D01*
X164764931Y-107819461D01*
X165074415Y-107612670D01*
X165399271Y-107126489D01*
X165513345Y-106553000D01*
X165399271Y-105979511D01*
X165074415Y-105493330D01*
X164759634Y-105283000D01*
X165074415Y-105072670D01*
X165399271Y-104586489D01*
X165513345Y-104013000D01*
X165399271Y-103439511D01*
X165074415Y-102953330D01*
X164759634Y-102743000D01*
X165074415Y-102532670D01*
X165399271Y-102046489D01*
X165513345Y-101473000D01*
X165399271Y-100899511D01*
X165074415Y-100413330D01*
X164759634Y-100203000D01*
X165074415Y-99992670D01*
X165399271Y-99506489D01*
X165513345Y-98933000D01*
X165399271Y-98359511D01*
X165074415Y-97873330D01*
X164759634Y-97663000D01*
X165074415Y-97452670D01*
X165399271Y-96966489D01*
X165513345Y-96393000D01*
X165399271Y-95819511D01*
X165074415Y-95333330D01*
X165060087Y-95323757D01*
X165081317Y-95319762D01*
X165297441Y-95180690D01*
X165442431Y-94968490D01*
X165493440Y-94716600D01*
X165493440Y-92989400D01*
X165449162Y-92754083D01*
X165310090Y-92537959D01*
X165097890Y-92392969D01*
X164846000Y-92341960D01*
X162814000Y-92341960D01*
X162578683Y-92386238D01*
X162362559Y-92525310D01*
X162217569Y-92737510D01*
X162166560Y-92989400D01*
X162166560Y-94716600D01*
X162210838Y-94951917D01*
X162349910Y-95168041D01*
X162562110Y-95313031D01*
X162603439Y-95321400D01*
X162585585Y-95333330D01*
X162260729Y-95819511D01*
X162146655Y-96393000D01*
X153243433Y-96393000D01*
X153271338Y-96325799D01*
X153271379Y-96278923D01*
X153555735Y-95994567D01*
X153664667Y-95994662D01*
X154008443Y-95852617D01*
X154271692Y-95589827D01*
X154414338Y-95246299D01*
X154414662Y-94874333D01*
X154272617Y-94530557D01*
X154009827Y-94267308D01*
X153710168Y-94142878D01*
X153779338Y-93976299D01*
X153779662Y-93604333D01*
X153637617Y-93260557D01*
X153374827Y-92997308D01*
X153031299Y-92854662D01*
X152659333Y-92854338D01*
X152315557Y-92996383D01*
X152052308Y-93259173D01*
X151909662Y-93602701D01*
X151909621Y-93649577D01*
X151053820Y-94505378D01*
X151008333Y-94505338D01*
X150664557Y-94647383D01*
X150401308Y-94910173D01*
X150258662Y-95253701D01*
X150258338Y-95625667D01*
X136202808Y-95625667D01*
X136168433Y-95574222D01*
X135632810Y-95216330D01*
X135001000Y-95090655D01*
X134369190Y-95216330D01*
X134032999Y-95440966D01*
X134015327Y-95398302D01*
X133836699Y-95219673D01*
X133603310Y-95123000D01*
X132746750Y-95123000D01*
X132588000Y-95281750D01*
X132334000Y-95281750D01*
X132175250Y-95123000D01*
X131318690Y-95123000D01*
X131085301Y-95219673D01*
X130906673Y-95398302D01*
X130810000Y-95631691D01*
X124344500Y-95631691D01*
X124344500Y-86879500D01*
X125158500Y-86879500D01*
X125430205Y-86825454D01*
X125539389Y-86752500D01*
X169787500Y-86752500D01*
X169787500Y-114352000D01*
M02*
