<?xml version="1.0" standalone="no"?>
 <!DOCTYPE svg PUBLIC "-//W3C//DTD SVG 1.1//EN" 
 "http://www.w3.org/Graphics/SVG/1.1/DTD/svg11.dtd"> 
<svg xmlns="http://www.w3.org/2000/svg" version="1.1" 
    width="29.7002cm" height="21.0007cm" viewBox="0 0 116930 82680 ">
<title>SVG Picture created as Solar_Array_Rev1-F.SilkS.svg date 2016/04/08 18:14:36 </title>
  <desc>Picture generated by PCBNEW </desc>
<g style="fill:#000000; fill-opacity:1;stroke:#000000; stroke-opacity:1;
stroke-linecap:round; stroke-linejoin:round; "
 transform="translate(0 0) scale(1 1)">
</g>
<g style="fill:#000000; fill-opacity:0.0; 
stroke:#000000; stroke-width:-0.000393701; stroke-opacity:1; 
stroke-linecap:round; stroke-linejoin:round;">
</g>
<g style="fill:#000000; fill-opacity:0.0; 
stroke:#000000; stroke-width:59.0551; stroke-opacity:1; 
stroke-linecap:round; stroke-linejoin:round;">
<path d="M60457 39174
L60697 39174
" />
<path d="M60697 39174
L60701 39004
" />
<path d="M54236 39912
L54236 40187
" />
<path d="M53763 40187
L53763 39912
" />
<path d="M52088 40187
L52088 39912
" />
<path d="M52561 39912
L52561 40187
" />
<path d="M55762 39763
L56037 39763
" />
<path d="M56037 40236
L55762 40236
" />
<path d="M54312 42711
L54037 42711
" />
<path d="M54037 42238
L54312 42238
" />
<path d="M55762 40663
L56037 40663
" />
<path d="M56037 41136
L55762 41136
" />
<path d="M58212 38913
L58487 38913
" />
<path d="M58487 39386
L58212 39386
" />
<path d="M57237 42886
L56962 42886
" />
<path d="M56962 42413
L57237 42413
" />
<path d="M51050 41851
L51050 41753
" />
<path d="M51050 42048
L51050 42146
" />
<path d="M51050 42048
L50912 41851
" />
<path d="M50912 41851
L51187 41851
" />
<path d="M51187 41851
L51050 42048
" />
<path d="M50912 42048
L51187 42048
" />
<path d="M51364 42461
L51364 41516
" />
<path d="M50735 42461
L50735 41516
" />
<path d="M57048 39050
L57146 39050
" />
<path d="M56851 39050
L56753 39050
" />
<path d="M56851 39050
L57048 38912
" />
<path d="M57048 38912
L57048 39187
" />
<path d="M57048 39187
L56851 39050
" />
<path d="M56851 38912
L56851 39187
" />
<path d="M56438 39364
L57383 39364
" />
<path d="M56438 38735
L57383 38735
" />
<path d="M52528 41404
L52528 40814
" />
<path d="M52528 40814
L54261 40814
" />
<path d="M54261 40814
L54261 41995
" />
<path d="M54261 41995
L52528 41995
" />
<path d="M52528 41995
L52528 41404
" />
<path d="M62107 39174
L62347 39174
" />
<path d="M62347 39174
L62351 39004
" />
<path d="M58818 36720
L58818 36975
" />
<path d="M58523 36720
L58818 36720
" />
<path d="M56909 36720
L58090 36720
" />
<path d="M58090 37979
L56909 37979
" />
<path d="M52650 37600
L53650 37600
" />
<path d="M51539 37489
L52150 37489
" />
<path d="M52650 37600
L52650 38600
" />
<path d="M52150 38710
L51539 38710
" />
<path d="M51539 38710
L51539 37489
" />
<path d="M52650 38600
L53650 38600
" />
<path d="M53650 38600
L53650 37600
" />
<path d="M65000 37450
L65000 43450
" />
<path d="M65000 43450
L64000 43450
" />
<path d="M64000 43450
L64000 37450
" />
<path d="M65110 36339
L65110 36950
" />
<path d="M65000 37450
L64000 37450
" />
<path d="M63889 36950
L63889 36339
" />
<path d="M63889 36339
L65110 36339
" />
<path d="M57888 42156
L57907 42156
" />
<path d="M58990 41880
L58990 42156
" />
<path d="M58990 42156
L58892 42156
" />
<path d="M57888 42156
L57809 42156
" />
<path d="M57809 42156
L57809 41880
" />
<path d="M53390 39853
L53390 40246
" />
<path d="M52859 40246
L52859 39853
" />
<path d="M56953 40634
L57346 40634
" />
<path d="M57346 41165
L56953 41165
" />
<path d="M52615 42453
L52615 42846
" />
<path d="M52084 42846
L52084 42453
" />
<path d="M56928 39734
L57321 39734
" />
<path d="M57321 40265
L56928 40265
" />
<path d="M55653 41484
L56046 41484
" />
<path d="M56046 42015
L55653 42015
" />
<path d="M57296 42065
L56903 42065
" />
<path d="M56903 41534
L57296 41534
" />
<path d="M58153 39734
L58546 39734
" />
<path d="M58546 40265
L58153 40265
" />
<path d="M59603 39734
L59996 39734
" />
<path d="M59996 40265
L59603 40265
" />
</g>
<g style="fill:#000000; fill-opacity:0.0; 
stroke:#000000; stroke-width:39.3701; stroke-opacity:1; 
stroke-linecap:round; stroke-linejoin:round;">
<path d="M60990 40909
L60990 42090
" />
<path d="M60990 42090
L59809 42090
" />
<path d="M59809 42090
L59809 40909
" />
<path d="M59809 40909
L60990 40909
" />
</g>
<g style="fill:#000000; fill-opacity:0.0; 
stroke:#000000; stroke-width:49.2126; stroke-opacity:1; 
stroke-linecap:round; stroke-linejoin:round;">
<path d="M59389 38842
L59192 38842
" />
<path d="M59370 38635
L59379 38645
L59389 38673
L59389 38692
L59379 38720
L59360 38739
L59342 38748
L59304 38757
L59276 38757
L59239 38748
L59220 38739
L59201 38720
L59192 38692
L59192 38673
L59201 38645
L59210 38635
" />
<path d="M59210 38560
L59201 38551
L59192 38532
L59192 38485
L59201 38467
L59210 38457
L59229 38448
L59248 38448
L59276 38457
L59389 38570
L59389 38448
" />
<path d="M53995 40057
L54004 40067
L54014 40095
L54014 40114
L54004 40142
L53985 40160
L53967 40170
L53929 40179
L53901 40179
L53864 40170
L53845 40160
L53826 40142
L53817 40114
L53817 40095
L53826 40067
L53835 40057
" />
<path d="M54014 39870
L54014 39982
" />
<path d="M54014 39926
L53817 39926
L53845 39945
L53864 39964
L53873 39982
" />
<path d="M52270 40082
L52279 40092
L52289 40120
L52289 40139
L52279 40167
L52260 40185
L52242 40195
L52204 40204
L52176 40204
L52139 40195
L52120 40185
L52101 40167
L52092 40139
L52092 40120
L52101 40092
L52110 40082
" />
<path d="M52110 40007
L52101 39998
L52092 39979
L52092 39932
L52101 39914
L52110 39904
L52129 39895
L52148 39895
L52176 39904
L52289 40017
L52289 39895
" />
<path d="M55867 39945
L55857 39954
L55829 39964
L55810 39964
L55782 39954
L55764 39935
L55754 39917
L55745 39879
L55745 39851
L55754 39814
L55764 39795
L55782 39776
L55810 39767
L55829 39767
L55857 39776
L55867 39785
" />
<path d="M55932 39767
L56054 39767
L55989 39842
L56017 39842
L56035 39851
L56045 39860
L56054 39879
L56054 39926
L56045 39945
L56035 39954
L56017 39964
L55960 39964
L55942 39954
L55932 39945
" />
<path d="M54142 42420
L54132 42429
L54104 42439
L54085 42439
L54057 42429
L54039 42410
L54029 42392
L54020 42354
L54020 42326
L54029 42289
L54039 42270
L54057 42251
L54085 42242
L54104 42242
L54132 42251
L54142 42260
" />
<path d="M54310 42307
L54310 42439
" />
<path d="M54264 42232
L54217 42373
L54339 42373
" />
<path d="M55867 40895
L55857 40904
L55829 40914
L55810 40914
L55782 40904
L55764 40885
L55754 40867
L55745 40829
L55745 40801
L55754 40764
L55764 40745
L55782 40726
L55810 40717
L55829 40717
L55857 40726
L55867 40735
" />
<path d="M56045 40717
L55951 40717
L55942 40810
L55951 40801
L55970 40792
L56017 40792
L56035 40801
L56045 40810
L56054 40829
L56054 40876
L56045 40895
L56035 40904
L56017 40914
L55970 40914
L55951 40904
L55942 40895
" />
<path d="M58317 39120
L58307 39129
L58279 39139
L58260 39139
L58232 39129
L58214 39110
L58204 39092
L58195 39054
L58195 39026
L58204 38989
L58214 38970
L58232 38951
L58260 38942
L58279 38942
L58307 38951
L58317 38960
" />
<path d="M58485 38942
L58448 38942
L58429 38951
L58420 38960
L58401 38989
L58392 39026
L58392 39101
L58401 39120
L58410 39129
L58429 39139
L58467 39139
L58485 39129
L58495 39120
L58504 39101
L58504 39054
L58495 39035
L58485 39026
L58467 39017
L58429 39017
L58410 39026
L58401 39035
L58392 39054
" />
<path d="M57067 42645
L57057 42654
L57029 42664
L57010 42664
L56982 42654
L56964 42635
L56954 42617
L56945 42579
L56945 42551
L56954 42514
L56964 42495
L56982 42476
L57010 42467
L57029 42467
L57057 42476
L57067 42485
" />
<path d="M57132 42467
L57264 42467
L57179 42664
" />
<path d="M50410 42095
L50213 42095
L50213 42048
L50223 42020
L50241 42001
L50260 41992
L50298 41982
L50326 41982
L50363 41992
L50382 42001
L50401 42020
L50410 42048
L50410 42095
" />
<path d="M50232 41907
L50223 41898
L50213 41879
L50213 41832
L50223 41814
L50232 41804
L50251 41795
L50270 41795
L50298 41804
L50410 41917
L50410 41795
" />
<path d="M56804 38410
L56804 38213
L56851 38213
L56879 38223
L56898 38241
L56907 38260
L56917 38298
L56917 38326
L56907 38363
L56898 38382
L56879 38401
L56851 38410
L56804 38410
" />
<path d="M56982 38213
L57104 38213
L57039 38288
L57067 38288
L57085 38298
L57095 38307
L57104 38326
L57104 38373
L57095 38391
L57085 38401
L57067 38410
L57010 38410
L56992 38401
L56982 38391
" />
</g>
<g style="fill:#000000; fill-opacity:0.0; 
stroke:#000000; stroke-width:23.622; stroke-opacity:1; 
stroke-linecap:round; stroke-linejoin:round;">
<path d="M53196 41030
L53196 40912
" />
<path d="M53319 41018
L53314 41024
L53297 41030
L53286 41030
L53269 41024
L53257 41013
L53252 41002
L53246 40979
L53246 40962
L53252 40940
L53257 40928
L53269 40917
L53286 40912
L53297 40912
L53314 40917
L53319 40923
" />
<path d="M53432 41030
L53364 41030
" />
<path d="M53398 41030
L53398 40912
L53387 40928
L53376 40940
L53364 40945
" />
</g>
<g style="fill:#000000; fill-opacity:0.0; 
stroke:#000000; stroke-width:49.2126; stroke-opacity:1; 
stroke-linecap:round; stroke-linejoin:round;">
<path d="M61089 38842
L60892 38842
" />
<path d="M61070 38635
L61079 38645
L61089 38673
L61089 38692
L61079 38720
L61060 38739
L61042 38748
L61004 38757
L60976 38757
L60939 38748
L60920 38739
L60901 38720
L60892 38692
L60892 38673
L60901 38645
L60910 38635
" />
<path d="M60892 38570
L60892 38448
L60967 38514
L60967 38485
L60976 38467
L60985 38457
L61004 38448
L61051 38448
L61070 38457
L61079 38467
L61089 38485
L61089 38542
L61079 38560
L61070 38570
" />
<path d="M57467 36356
L57373 36356
L57373 36159
" />
<path d="M57635 36356
L57523 36356
" />
<path d="M57579 36356
L57579 36159
L57560 36187
L57542 36206
L57523 36215
" />
<path d="M50231 38245
L50034 38245
L50034 38170
L50043 38151
L50053 38142
L50071 38132
L50099 38132
L50118 38142
L50128 38151
L50137 38170
L50137 38245
" />
<path d="M50231 37945
L50231 38057
" />
<path d="M50231 38001
L50034 38001
L50062 38020
L50081 38039
L50090 38057
" />
<path d="M64354 35031
L64354 34834
L64429 34834
L64448 34843
L64457 34853
L64467 34871
L64467 34899
L64457 34918
L64448 34928
L64429 34937
L64354 34937
" />
<path d="M64542 34853
L64551 34843
L64570 34834
L64617 34834
L64635 34843
L64645 34853
L64654 34871
L64654 34890
L64645 34918
L64532 35031
L64654 35031
" />
<path d="M58381 41982
L58362 41973
L58343 41954
L58315 41926
L58296 41917
L58278 41917
" />
<path d="M58287 41964
L58268 41954
L58250 41935
L58240 41898
L58240 41832
L58250 41795
L58268 41776
L58287 41767
L58325 41767
L58343 41776
L58362 41795
L58371 41832
L58371 41898
L58362 41935
L58343 41954
L58325 41964
L58287 41964
" />
<path d="M58559 41964
L58446 41964
" />
<path d="M58503 41964
L58503 41767
L58484 41795
L58465 41814
L58446 41823
" />
<path d="M53064 40057
L52970 40123
" />
<path d="M53064 40170
L52867 40170
L52867 40095
L52876 40076
L52885 40067
L52904 40057
L52932 40057
L52951 40067
L52960 40076
L52970 40095
L52970 40170
" />
<path d="M53064 39870
L53064 39982
" />
<path d="M53064 39926
L52867 39926
L52895 39945
L52914 39964
L52923 39982
" />
<path d="M57092 40839
L57026 40745
" />
<path d="M56979 40839
L56979 40642
L57054 40642
L57073 40651
L57082 40660
L57092 40679
L57092 40707
L57082 40726
L57073 40735
L57054 40745
L56979 40745
" />
<path d="M57167 40660
L57176 40651
L57195 40642
L57242 40642
L57260 40651
L57270 40660
L57279 40679
L57279 40698
L57270 40726
L57157 40839
L57279 40839
" />
<path d="M52339 42682
L52245 42748
" />
<path d="M52339 42795
L52142 42795
L52142 42720
L52151 42701
L52160 42692
L52179 42682
L52207 42682
L52226 42692
L52235 42701
L52245 42720
L52245 42795
" />
<path d="M52142 42617
L52142 42495
L52217 42560
L52217 42532
L52226 42514
L52235 42504
L52254 42495
L52301 42495
L52320 42504
L52329 42514
L52339 42532
L52339 42589
L52329 42607
L52320 42617
" />
<path d="M57092 39964
L57026 39870
" />
<path d="M56979 39964
L56979 39767
L57054 39767
L57073 39776
L57082 39785
L57092 39804
L57092 39832
L57082 39851
L57073 39860
L57054 39870
L56979 39870
" />
<path d="M57260 39832
L57260 39964
" />
<path d="M57214 39757
L57167 39898
L57289 39898
" />
<path d="M55817 41739
L55751 41645
" />
<path d="M55704 41739
L55704 41542
L55779 41542
L55798 41551
L55807 41560
L55817 41579
L55817 41607
L55807 41626
L55798 41635
L55779 41645
L55704 41645
" />
<path d="M55995 41542
L55901 41542
L55892 41635
L55901 41626
L55920 41617
L55967 41617
L55985 41626
L55995 41635
L56004 41654
L56004 41701
L55995 41720
L55985 41729
L55967 41739
L55920 41739
L55901 41729
L55892 41720
" />
<path d="M57067 41739
L57001 41645
" />
<path d="M56954 41739
L56954 41542
L57029 41542
L57048 41551
L57057 41560
L57067 41579
L57067 41607
L57057 41626
L57048 41635
L57029 41645
L56954 41645
" />
<path d="M57235 41542
L57198 41542
L57179 41551
L57170 41560
L57151 41589
L57142 41626
L57142 41701
L57151 41720
L57160 41729
L57179 41739
L57217 41739
L57235 41729
L57245 41720
L57254 41701
L57254 41654
L57245 41635
L57235 41626
L57217 41617
L57179 41617
L57160 41626
L57151 41635
L57142 41654
" />
<path d="M58317 39964
L58251 39870
" />
<path d="M58204 39964
L58204 39767
L58279 39767
L58298 39776
L58307 39785
L58317 39804
L58317 39832
L58307 39851
L58298 39860
L58279 39870
L58204 39870
" />
<path d="M58382 39767
L58514 39767
L58429 39964
" />
<path d="M59767 40837
L59701 40743
" />
<path d="M59654 40837
L59654 40640
L59729 40640
L59748 40649
L59757 40658
L59767 40677
L59767 40705
L59757 40724
L59748 40733
L59729 40743
L59654 40743
" />
<path d="M59879 40724
L59860 40715
L59851 40705
L59842 40687
L59842 40677
L59851 40658
L59860 40649
L59879 40640
L59917 40640
L59935 40649
L59945 40658
L59954 40677
L59954 40687
L59945 40705
L59935 40715
L59917 40724
L59879 40724
L59860 40733
L59851 40743
L59842 40762
L59842 40799
L59851 40818
L59860 40827
L59879 40837
L59917 40837
L59935 40827
L59945 40818
L59954 40799
L59954 40762
L59945 40743
L59935 40733
L59917 40724
" />
</g>
<g style="fill:#000000; fill-opacity:0.0; 
stroke:#000000; stroke-width:24.6063; stroke-opacity:1; 
stroke-linecap:round; stroke-linejoin:round;">
<path d="M60285 41013
L60285 41092
L60290 41102
L60295 41106
L60304 41111
L60323 41111
L60332 41106
L60337 41102
L60341 41092
L60341 41013
" />
<path d="M60440 41111
L60384 41111
" />
<path d="M60412 41111
L60412 41013
L60402 41027
L60393 41036
L60384 41041
" />
</g> 
</svg>
