M48
INCH,TZ
T1C0.016
T2C0.040
%
G90
G05
T1
X5.02Y-3.56
X5.02Y-3.74
X5.04Y-3.92
X5.04Y-4.16
X5.04Y-4.4
X5.17Y-3.9725
X5.185Y-4.195
X5.24Y-3.56
X5.24Y-4.4
X5.34Y-4.14
X5.34Y-4.2475
X5.4275Y-3.86
X5.4475Y-4.0075
X5.48Y-3.56
X5.48Y-4.0525
X5.48Y-4.4
X5.5025Y-4.1784
X5.5825Y-3.83
X5.6225Y-3.8625
X5.64Y-4.1425
X5.6525Y-4.1775
X5.6875Y-4.0525
X5.72Y-3.56
X5.72Y-4.4
X5.7375Y-3.8625
X5.7395Y-4.18
X5.7425Y-4.04
X5.865Y-3.8525
X5.9125Y-4.0375
X5.9525Y-3.7575
X5.96Y-3.56
X5.96Y-4.3
X5.96Y-4.4
X5.9975Y-3.785
X6.0175Y-3.6925
X6.0275Y-3.8175
X6.0425Y-3.7425
X6.1275Y-4.0375
X6.185Y-4.1625
X6.2Y-3.56
X6.2Y-4.0925
X6.2Y-4.3
X6.2Y-4.4
X6.23Y-4.0375
X6.2475Y-4.185
X6.2575Y-3.84
X6.2925Y-4.0375
X6.2925Y-4.2025
X6.3325Y-3.9375
X6.44Y-3.56
X6.44Y-4.4
X6.6Y-3.56
X6.6Y-3.8
X6.6Y-4.04
X6.6Y-4.28
X6.6Y-4.4
T2
X5.215Y-3.81
X5.315Y-3.81
X6.45Y-3.695
X6.45Y-3.795
X6.45Y-3.895
X6.45Y-3.995
X6.45Y-4.095
X6.45Y-4.195
X6.45Y-4.295
T0
M30
