G04 #@! TF.FileFunction,Copper,L1,Top,Signal*
%FSLAX46Y46*%
G04 Gerber Fmt 4.6, Leading zero omitted, Abs format (unit mm)*
G04 Created by KiCad (PCBNEW 4.1.0-alpha+201605272346+6836~44~ubuntu16.04.1-product) date Fri Jun 10 12:21:42 2016*
%MOMM*%
%LPD*%
G01*
G04 APERTURE LIST*
%ADD10C,0.100000*%
%ADD11R,1.250000X1.000000*%
%ADD12R,0.750000X0.800000*%
%ADD13R,1.000000X1.250000*%
%ADD14R,0.590000X0.450000*%
%ADD15R,0.398780X0.749300*%
%ADD16R,1.000000X0.300000*%
%ADD17R,2.500000X2.500000*%
%ADD18R,2.032000X2.032000*%
%ADD19O,2.032000X2.032000*%
%ADD20R,2.032000X1.727200*%
%ADD21O,2.032000X1.727200*%
%ADD22R,0.711200X0.457200*%
%ADD23R,0.800100X0.800100*%
%ADD24R,0.900000X0.500000*%
%ADD25R,0.500000X0.900000*%
%ADD26R,1.016000X0.305000*%
%ADD27C,0.600000*%
%ADD28C,0.250000*%
%ADD29C,0.254000*%
G04 APERTURE END LIST*
D10*
D11*
X181356000Y-72374000D03*
X181356000Y-70374000D03*
X178562000Y-72374000D03*
X178562000Y-70374000D03*
X175768000Y-72374000D03*
X175768000Y-70374000D03*
X172974000Y-72374000D03*
X172974000Y-70374000D03*
D12*
X173990000Y-76188000D03*
X173990000Y-74688000D03*
D13*
X169688000Y-82550000D03*
X171688000Y-82550000D03*
D12*
X179324000Y-82562000D03*
X179324000Y-84062000D03*
D11*
X173990000Y-88376000D03*
X173990000Y-86376000D03*
X186436000Y-90440000D03*
X186436000Y-92440000D03*
X183388000Y-90440000D03*
X183388000Y-92440000D03*
D13*
X154702000Y-80518000D03*
X156702000Y-80518000D03*
D11*
X177800000Y-90440000D03*
X177800000Y-92440000D03*
X180594000Y-90440000D03*
X180594000Y-92440000D03*
D14*
X169633000Y-80010000D03*
X171743000Y-80010000D03*
D15*
X185028840Y-72303640D03*
X184378600Y-72303640D03*
X183728360Y-72303640D03*
X183728360Y-74203560D03*
X184378600Y-74203560D03*
X185028840Y-74203560D03*
D16*
X174084000Y-80223000D03*
X174084000Y-79573000D03*
X174084000Y-78923000D03*
X174084000Y-78273000D03*
X179484000Y-80223000D03*
X179484000Y-79573000D03*
X179484000Y-78923000D03*
X179484000Y-78273000D03*
D15*
X185028840Y-78704440D03*
X184378600Y-78704440D03*
X183728360Y-78704440D03*
X183728360Y-80604360D03*
X184378600Y-80604360D03*
X185028840Y-80604360D03*
D17*
X166906000Y-76200000D03*
X170406000Y-76200000D03*
D18*
X157480000Y-74676000D03*
D19*
X157480000Y-72136000D03*
D20*
X190347600Y-87477600D03*
D21*
X190347600Y-84937600D03*
X190347600Y-82397600D03*
X190347600Y-79857600D03*
X190347600Y-77317600D03*
X190347600Y-74777600D03*
X190347600Y-72237600D03*
D22*
X164338000Y-75844400D03*
X164338000Y-74523600D03*
X162306000Y-75184000D03*
D23*
X167909240Y-70424000D03*
X167909240Y-72324000D03*
X169908220Y-71374000D03*
X156956760Y-84770000D03*
X156956760Y-82870000D03*
X154957780Y-83820000D03*
D24*
X164846000Y-71132000D03*
X164846000Y-72632000D03*
X162560000Y-71132000D03*
X162560000Y-72632000D03*
X176276000Y-76188000D03*
X176276000Y-74688000D03*
X173990000Y-82816000D03*
X173990000Y-84316000D03*
X176276000Y-84316000D03*
X176276000Y-82816000D03*
X176276000Y-86118000D03*
X176276000Y-87618000D03*
D25*
X183908000Y-84328000D03*
X185408000Y-84328000D03*
X185408000Y-86614000D03*
X183908000Y-86614000D03*
X160540000Y-79756000D03*
X162040000Y-79756000D03*
D24*
X166370000Y-82816000D03*
X166370000Y-84316000D03*
D26*
X159244000Y-81804000D03*
X159244000Y-82304000D03*
X159244000Y-82804000D03*
X159244000Y-83304000D03*
X159244000Y-83804000D03*
X163336000Y-81804000D03*
X163336000Y-82304000D03*
X163336000Y-82804000D03*
X163336000Y-83304000D03*
X163336000Y-83804000D03*
D27*
X158750000Y-84500000D03*
X158000000Y-79000000D03*
X185000000Y-88000000D03*
X181900000Y-89500000D03*
X184400000Y-77700000D03*
X188000000Y-90000000D03*
X177170000Y-69520000D03*
X170850000Y-72750000D03*
X172580000Y-78920000D03*
X182790000Y-69840000D03*
X171180000Y-69740000D03*
X172480000Y-75670000D03*
X162000000Y-77000000D03*
X171710000Y-81350000D03*
X167890000Y-80220000D03*
X167970000Y-84960000D03*
X161000000Y-83000000D03*
X196000000Y-96000000D03*
X196000000Y-92000000D03*
X196000000Y-88000000D03*
X196000000Y-84000000D03*
X196000000Y-79000000D03*
X196000000Y-75000000D03*
X196000000Y-71000000D03*
X196000000Y-68000000D03*
X193000000Y-68000000D03*
X189000000Y-68000000D03*
X185000000Y-68000000D03*
X181000000Y-68000000D03*
X177000000Y-68000000D03*
X173000000Y-68000000D03*
X169000000Y-68000000D03*
X165000000Y-68000000D03*
X161000000Y-68000000D03*
X157000000Y-68000000D03*
X152000000Y-68000000D03*
X152000000Y-72000000D03*
X152000000Y-76000000D03*
X152000000Y-80000000D03*
X152000000Y-84000000D03*
X152000000Y-89000000D03*
X152000000Y-92000000D03*
X152000000Y-96000000D03*
X155000000Y-96000000D03*
X155000000Y-92000000D03*
X155000000Y-89000000D03*
X158000000Y-89000000D03*
X158000000Y-92000000D03*
X158000000Y-96000000D03*
X162000000Y-96000000D03*
X162000000Y-92000000D03*
X162000000Y-89000000D03*
X162000000Y-86000000D03*
X166000000Y-87000000D03*
X166000000Y-89000000D03*
X166000000Y-92000000D03*
X166000000Y-96000000D03*
X170000000Y-96000000D03*
X170000000Y-92000000D03*
X170000000Y-89000000D03*
X173000000Y-92000000D03*
X174000000Y-96000000D03*
X178000000Y-96000000D03*
X183000000Y-96000000D03*
X188000000Y-96000000D03*
X192000000Y-96000000D03*
X179578000Y-86868000D03*
X181356000Y-78486000D03*
X175006000Y-85090000D03*
X181102000Y-79756000D03*
X177800000Y-84328000D03*
X171958000Y-84328000D03*
X166624000Y-72644000D03*
X161290000Y-73152000D03*
X180086000Y-74930000D03*
X164846000Y-81280000D03*
X186600000Y-83250000D03*
X186600000Y-81560000D03*
X164338000Y-74523600D03*
X183134000Y-76962000D03*
X179870000Y-75940000D03*
X183350000Y-75920000D03*
X186182000Y-73406000D03*
X161036000Y-74168000D03*
X185450000Y-78220000D03*
X187410000Y-77310000D03*
X187452000Y-81534000D03*
X172212000Y-87884000D03*
X181864000Y-77470000D03*
X165100000Y-82042000D03*
X185250000Y-81750000D03*
X164846000Y-83566000D03*
D28*
X158750000Y-84500000D02*
X158750000Y-85750000D01*
X154000000Y-79000000D02*
X158000000Y-79000000D01*
X153500000Y-79500000D02*
X154000000Y-79000000D01*
X153500000Y-82000000D02*
X153500000Y-79500000D01*
X153750000Y-82250000D02*
X153500000Y-82000000D01*
X153750000Y-85750000D02*
X153750000Y-82250000D01*
X154500000Y-86500000D02*
X153750000Y-85750000D01*
X158000000Y-86500000D02*
X154500000Y-86500000D01*
X158750000Y-85750000D02*
X158000000Y-86500000D01*
X176276000Y-74688000D02*
X176276000Y-72882000D01*
X176276000Y-72882000D02*
X175768000Y-72374000D01*
X172974000Y-72374000D02*
X175768000Y-72374000D01*
X175768000Y-72374000D02*
X178562000Y-72374000D01*
X178562000Y-72374000D02*
X181356000Y-72374000D01*
X169908220Y-71374000D02*
X169908220Y-73642220D01*
X170406000Y-74140000D02*
X170406000Y-76200000D01*
X169908220Y-73642220D02*
X170406000Y-74140000D01*
X169908220Y-71374000D02*
X170688000Y-71374000D01*
X171688000Y-72374000D02*
X172974000Y-72374000D01*
X170688000Y-71374000D02*
X171688000Y-72374000D01*
X159244000Y-83804000D02*
X161000000Y-83804000D01*
X160900000Y-83700000D02*
X161000000Y-83700000D01*
X160900000Y-83704000D02*
X160900000Y-83700000D01*
X161000000Y-83804000D02*
X160900000Y-83704000D01*
X184378600Y-78704440D02*
X184378600Y-77721400D01*
X184378600Y-77721400D02*
X184400000Y-77700000D01*
X183908000Y-86614000D02*
X183908000Y-86908000D01*
X183908000Y-86908000D02*
X185000000Y-88000000D01*
X188000000Y-90000000D02*
X188000000Y-89000000D01*
X188000000Y-96000000D02*
X188000000Y-90000000D01*
X187000000Y-88000000D02*
X185000000Y-88000000D01*
X188000000Y-89000000D02*
X187000000Y-88000000D01*
X184378600Y-72303640D02*
X184378600Y-68621400D01*
X184378600Y-68621400D02*
X185000000Y-68000000D01*
X181356000Y-70374000D02*
X178562000Y-70374000D01*
X178562000Y-70374000D02*
X175768000Y-70374000D01*
X175768000Y-70374000D02*
X172974000Y-70374000D01*
X177170000Y-69520000D02*
X176622000Y-69520000D01*
X176622000Y-69520000D02*
X175768000Y-70374000D01*
X172480000Y-75670000D02*
X172480000Y-74660000D01*
X170850000Y-73030000D02*
X170850000Y-72750000D01*
X172480000Y-74660000D02*
X170850000Y-73030000D01*
X174084000Y-78923000D02*
X172583000Y-78923000D01*
X172583000Y-78923000D02*
X172580000Y-78920000D01*
X182790000Y-69840000D02*
X182730000Y-69840000D01*
X171160000Y-69760000D02*
X171160000Y-69770000D01*
X171180000Y-69740000D02*
X171160000Y-69760000D01*
X172480000Y-75670000D02*
X172480000Y-75650000D01*
X162000000Y-77000000D02*
X163110000Y-77000000D01*
X171688000Y-81372000D02*
X171688000Y-82550000D01*
X171710000Y-81350000D02*
X171688000Y-81372000D01*
X166520000Y-78850000D02*
X167890000Y-80220000D01*
X164960000Y-78850000D02*
X166520000Y-78850000D01*
X163110000Y-77000000D02*
X164960000Y-78850000D01*
X167970000Y-84960000D02*
X166480000Y-84960000D01*
X166370000Y-84850000D02*
X166370000Y-84316000D01*
X166480000Y-84960000D02*
X166370000Y-84850000D01*
X167920000Y-85010000D02*
X167920000Y-85020000D01*
X167970000Y-84960000D02*
X167920000Y-85010000D01*
X162000000Y-86000000D02*
X161000000Y-85000000D01*
X161000000Y-85000000D02*
X161000000Y-83700000D01*
X161000000Y-83700000D02*
X161000000Y-83000000D01*
X196000000Y-92000000D02*
X196000000Y-88000000D01*
X196000000Y-88000000D02*
X196000000Y-96000000D01*
X196000000Y-84000000D02*
X196000000Y-79000000D01*
X196000000Y-75000000D02*
X196000000Y-71000000D01*
X196000000Y-68000000D02*
X193000000Y-68000000D01*
X189000000Y-68000000D02*
X185000000Y-68000000D01*
X181000000Y-68000000D02*
X177000000Y-68000000D01*
X173000000Y-68000000D02*
X169000000Y-68000000D01*
X165000000Y-68000000D02*
X161000000Y-68000000D01*
X157000000Y-68000000D02*
X152000000Y-68000000D01*
X152000000Y-72000000D02*
X152000000Y-76000000D01*
X152000000Y-80000000D02*
X152000000Y-84000000D01*
X152000000Y-89000000D02*
X152000000Y-92000000D01*
X152000000Y-96000000D02*
X155000000Y-96000000D01*
X155000000Y-92000000D02*
X155000000Y-89000000D01*
X158000000Y-89000000D02*
X158000000Y-92000000D01*
X158000000Y-96000000D02*
X162000000Y-96000000D01*
X162000000Y-92000000D02*
X162000000Y-89000000D01*
X162000000Y-86000000D02*
X163000000Y-87000000D01*
X163000000Y-87000000D02*
X166000000Y-87000000D01*
X166000000Y-89000000D02*
X166000000Y-92000000D01*
X166000000Y-96000000D02*
X170000000Y-96000000D01*
X170000000Y-92000000D02*
X170000000Y-89000000D01*
X173000000Y-92000000D02*
X174000000Y-93000000D01*
X174000000Y-93000000D02*
X174000000Y-96000000D01*
X178000000Y-96000000D02*
X183000000Y-96000000D01*
X188000000Y-96000000D02*
X192000000Y-96000000D01*
X190347600Y-87477600D02*
X195477600Y-87477600D01*
X195477600Y-87477600D02*
X196000000Y-88000000D01*
X169688000Y-82550000D02*
X169688000Y-83582000D01*
X173470000Y-82816000D02*
X173990000Y-82816000D01*
X172720000Y-83566000D02*
X173470000Y-82816000D01*
X169704000Y-83566000D02*
X172720000Y-83566000D01*
X169688000Y-83582000D02*
X169704000Y-83566000D01*
X174084000Y-80223000D02*
X173269000Y-80223000D01*
X173269000Y-80223000D02*
X172974000Y-80518000D01*
X172974000Y-80518000D02*
X172974000Y-82550000D01*
X172974000Y-82550000D02*
X173240000Y-82816000D01*
X173240000Y-82816000D02*
X173990000Y-82816000D01*
X176276000Y-82816000D02*
X173990000Y-82816000D01*
X169633000Y-80010000D02*
X169633000Y-82495000D01*
X169633000Y-82495000D02*
X169688000Y-82550000D01*
X174084000Y-82722000D02*
X173990000Y-82816000D01*
X185408000Y-84328000D02*
X185408000Y-86614000D01*
X179484000Y-80223000D02*
X180045000Y-80223000D01*
X180340000Y-81546000D02*
X179324000Y-82562000D01*
X180340000Y-80518000D02*
X180340000Y-81546000D01*
X180045000Y-80223000D02*
X180340000Y-80518000D01*
X185408000Y-84328000D02*
X185408000Y-83324000D01*
X180352000Y-82562000D02*
X179324000Y-82562000D01*
X180848000Y-83058000D02*
X180352000Y-82562000D01*
X185142000Y-83058000D02*
X180848000Y-83058000D01*
X185408000Y-83324000D02*
X185142000Y-83058000D01*
X179484000Y-78923000D02*
X180919000Y-78923000D01*
X178828000Y-87618000D02*
X176276000Y-87618000D01*
X179578000Y-86868000D02*
X178828000Y-87618000D01*
X180919000Y-78923000D02*
X181356000Y-78486000D01*
X173990000Y-88376000D02*
X176038000Y-88376000D01*
X176276000Y-88138000D02*
X176276000Y-87618000D01*
X176038000Y-88376000D02*
X176276000Y-88138000D01*
X179484000Y-79573000D02*
X180919000Y-79573000D01*
X174510000Y-84836000D02*
X173990000Y-84316000D01*
X174752000Y-84836000D02*
X174510000Y-84836000D01*
X175006000Y-85090000D02*
X174752000Y-84836000D01*
X180919000Y-79573000D02*
X181102000Y-79756000D01*
X173990000Y-84316000D02*
X173990000Y-86376000D01*
X183388000Y-90440000D02*
X183388000Y-88678000D01*
X183052000Y-84328000D02*
X183908000Y-84328000D01*
X182640000Y-84740000D02*
X183052000Y-84328000D01*
X182640000Y-87930000D02*
X182640000Y-84740000D01*
X183388000Y-88678000D02*
X182640000Y-87930000D01*
X162040000Y-79756000D02*
X166370000Y-79756000D01*
X177788000Y-84316000D02*
X176276000Y-84316000D01*
X177800000Y-84328000D02*
X177788000Y-84316000D01*
X168656000Y-84328000D02*
X171958000Y-84328000D01*
X168148000Y-83820000D02*
X168656000Y-84328000D01*
X168148000Y-81534000D02*
X168148000Y-83820000D01*
X166370000Y-79756000D02*
X168148000Y-81534000D01*
X177800000Y-90440000D02*
X180594000Y-90440000D01*
X180594000Y-90440000D02*
X183388000Y-90440000D01*
X183388000Y-90440000D02*
X186436000Y-90440000D01*
X176276000Y-86118000D02*
X178066000Y-86118000D01*
X180594000Y-86360000D02*
X180594000Y-90440000D01*
X180340000Y-86106000D02*
X180594000Y-86360000D01*
X178078000Y-86106000D02*
X180340000Y-86106000D01*
X178066000Y-86118000D02*
X178078000Y-86106000D01*
X176276000Y-84316000D02*
X176276000Y-86118000D01*
X159244000Y-81804000D02*
X158708002Y-81804000D01*
X162040000Y-80784000D02*
X162040000Y-79756000D01*
X161798000Y-81026000D02*
X162040000Y-80784000D01*
X158496000Y-81026000D02*
X161798000Y-81026000D01*
X158438002Y-81083998D02*
X158496000Y-81026000D01*
X158438002Y-81534000D02*
X158438002Y-81083998D01*
X158708002Y-81804000D02*
X158438002Y-81534000D01*
X154957780Y-83820000D02*
X154957780Y-82313780D01*
X154702000Y-82058000D02*
X154702000Y-80518000D01*
X154957780Y-82313780D02*
X154702000Y-82058000D01*
X159244000Y-83304000D02*
X158250000Y-83304000D01*
X154957780Y-85615780D02*
X154957780Y-83820000D01*
X155194000Y-85852000D02*
X154957780Y-85615780D01*
X157734000Y-85852000D02*
X155194000Y-85852000D01*
X157988000Y-85598000D02*
X157734000Y-85852000D01*
X157988000Y-83566000D02*
X157988000Y-85598000D01*
X158250000Y-83304000D02*
X157988000Y-83566000D01*
X156956760Y-82870000D02*
X156956760Y-82026760D01*
X156702000Y-81772000D02*
X156702000Y-80518000D01*
X156956760Y-82026760D02*
X156702000Y-81772000D01*
X159244000Y-82804000D02*
X157022760Y-82804000D01*
X157022760Y-82804000D02*
X156956760Y-82870000D01*
X156956760Y-82870000D02*
X156956760Y-84770000D01*
X174084000Y-79573000D02*
X172903000Y-79573000D01*
X172466000Y-80010000D02*
X171743000Y-80010000D01*
X172903000Y-79573000D02*
X172466000Y-80010000D01*
X166906000Y-76200000D02*
X166906000Y-78458000D01*
X170473000Y-78740000D02*
X171743000Y-80010000D01*
X167188000Y-78740000D02*
X170473000Y-78740000D01*
X166906000Y-78458000D02*
X167188000Y-78740000D01*
X162560000Y-72632000D02*
X161810000Y-72632000D01*
X166944000Y-72324000D02*
X167909240Y-72324000D01*
X166624000Y-72644000D02*
X166944000Y-72324000D01*
X161810000Y-72632000D02*
X161290000Y-73152000D01*
X162560000Y-72632000D02*
X162560000Y-73914000D01*
X163576000Y-75082400D02*
X164338000Y-75844400D01*
X163576000Y-74930000D02*
X163576000Y-75082400D01*
X162560000Y-73914000D02*
X163576000Y-74930000D01*
X163336000Y-81804000D02*
X164322000Y-81804000D01*
X180812440Y-74203560D02*
X183728360Y-74203560D01*
X180086000Y-74930000D02*
X180812440Y-74203560D01*
X164322000Y-81804000D02*
X164846000Y-81280000D01*
X183728360Y-74203560D02*
X183728360Y-75016360D01*
X184150000Y-75438000D02*
X189687200Y-75438000D01*
X183728360Y-75016360D02*
X184150000Y-75438000D01*
X189687200Y-75438000D02*
X190347600Y-74777600D01*
X167909240Y-70424000D02*
X167909240Y-69326760D01*
X183728360Y-69682360D02*
X183728360Y-72303640D01*
X182880000Y-68834000D02*
X183728360Y-69682360D01*
X168402000Y-68834000D02*
X182880000Y-68834000D01*
X167909240Y-69326760D02*
X168402000Y-68834000D01*
X157480000Y-72136000D02*
X159004000Y-72136000D01*
X160008000Y-71132000D02*
X162560000Y-71132000D01*
X159004000Y-72136000D02*
X160008000Y-71132000D01*
X162560000Y-71132000D02*
X164846000Y-71132000D01*
X164846000Y-71132000D02*
X164858000Y-71120000D01*
X164858000Y-71120000D02*
X165354000Y-71120000D01*
X165354000Y-71120000D02*
X166050000Y-70424000D01*
X166050000Y-70424000D02*
X167909240Y-70424000D01*
X183728360Y-78704440D02*
X183728360Y-77381640D01*
X188287600Y-84937600D02*
X190347600Y-84937600D01*
X186600000Y-83250000D02*
X188287600Y-84937600D01*
X186600000Y-77740000D02*
X186600000Y-81560000D01*
X185640000Y-76780000D02*
X186600000Y-77740000D01*
X184330000Y-76780000D02*
X185640000Y-76780000D01*
X183728360Y-77381640D02*
X184330000Y-76780000D01*
X164338000Y-73914000D02*
X164846000Y-73406000D01*
X164846000Y-72632000D02*
X164846000Y-73406000D01*
X164338000Y-74523600D02*
X164338000Y-73914000D01*
X183728360Y-77556360D02*
X183728360Y-78704440D01*
X183134000Y-76962000D02*
X183728360Y-77556360D01*
X179484000Y-78273000D02*
X180553000Y-78273000D01*
X176276000Y-76962000D02*
X176276000Y-76188000D01*
X180594000Y-76962000D02*
X176276000Y-76962000D01*
X180848000Y-77216000D02*
X180594000Y-76962000D01*
X180848000Y-77978000D02*
X180848000Y-77216000D01*
X180553000Y-78273000D02*
X180848000Y-77978000D01*
X174084000Y-78273000D02*
X173015000Y-78273000D01*
X172986000Y-76188000D02*
X173990000Y-76188000D01*
X172720000Y-76454000D02*
X172986000Y-76188000D01*
X172720000Y-77978000D02*
X172720000Y-76454000D01*
X173015000Y-78273000D02*
X172720000Y-77978000D01*
X174084000Y-76282000D02*
X173990000Y-76188000D01*
X173990000Y-76188000D02*
X176276000Y-76188000D01*
X183330000Y-75940000D02*
X179870000Y-75940000D01*
X183350000Y-75920000D02*
X183330000Y-75940000D01*
X160540000Y-79756000D02*
X160540000Y-74664000D01*
X185928000Y-72390000D02*
X185928000Y-72303640D01*
X185841640Y-72303640D02*
X185928000Y-72390000D01*
X186182000Y-72644000D02*
X185841640Y-72303640D01*
X186182000Y-73406000D02*
X186182000Y-72644000D01*
X160540000Y-74664000D02*
X161036000Y-74168000D01*
X185028840Y-72303640D02*
X185928000Y-72303640D01*
X185928000Y-72303640D02*
X190281560Y-72303640D01*
X190281560Y-72303640D02*
X190347600Y-72237600D01*
X159244000Y-82304000D02*
X158250000Y-82304000D01*
X158242000Y-79756000D02*
X160540000Y-79756000D01*
X157988000Y-80010000D02*
X158242000Y-79756000D01*
X157988000Y-82042000D02*
X157988000Y-80010000D01*
X158250000Y-82304000D02*
X157988000Y-82042000D01*
X185028840Y-78704440D02*
X185028840Y-78641160D01*
X185028840Y-78641160D02*
X185450000Y-78220000D01*
X187410000Y-77310000D02*
X187417600Y-77317600D01*
X187417600Y-77317600D02*
X188542400Y-77317600D01*
X188542400Y-77317600D02*
X188640000Y-77220000D01*
X188640000Y-77220000D02*
X188640000Y-77317600D01*
X163336000Y-83804000D02*
X164068000Y-83804000D01*
X188366400Y-77317600D02*
X188640000Y-77317600D01*
X188640000Y-77317600D02*
X190347600Y-77317600D01*
X187452000Y-78232000D02*
X188366400Y-77317600D01*
X187452000Y-81534000D02*
X187452000Y-78232000D01*
X169926000Y-85598000D02*
X172212000Y-87884000D01*
X165354000Y-85598000D02*
X169926000Y-85598000D01*
X164846000Y-85090000D02*
X165354000Y-85598000D01*
X164846000Y-84582000D02*
X164846000Y-85090000D01*
X164068000Y-83804000D02*
X164846000Y-84582000D01*
X163336000Y-82304000D02*
X164838000Y-82304000D01*
X182966360Y-80604360D02*
X183728360Y-80604360D01*
X182626000Y-80264000D02*
X182966360Y-80604360D01*
X182626000Y-78232000D02*
X182626000Y-80264000D01*
X181864000Y-77470000D02*
X182626000Y-78232000D01*
X164838000Y-82304000D02*
X165100000Y-82042000D01*
X183728360Y-80604360D02*
X183728360Y-81874360D01*
X184251600Y-82397600D02*
X190347600Y-82397600D01*
X183728360Y-81874360D02*
X184251600Y-82397600D01*
X185028840Y-80604360D02*
X185028840Y-81528840D01*
X185028840Y-81528840D02*
X185250000Y-81750000D01*
X163336000Y-83304000D02*
X164584000Y-83304000D01*
X164584000Y-83304000D02*
X164846000Y-83566000D01*
X163336000Y-82804000D02*
X166358000Y-82804000D01*
X166358000Y-82804000D02*
X166370000Y-82816000D01*
D29*
G36*
X196315000Y-96315000D02*
X151685000Y-96315000D01*
X151685000Y-92725750D01*
X176540000Y-92725750D01*
X176540000Y-93066309D01*
X176636673Y-93299698D01*
X176815301Y-93478327D01*
X177048690Y-93575000D01*
X177514250Y-93575000D01*
X177673000Y-93416250D01*
X177673000Y-92567000D01*
X177927000Y-92567000D01*
X177927000Y-93416250D01*
X178085750Y-93575000D01*
X178551310Y-93575000D01*
X178784699Y-93478327D01*
X178963327Y-93299698D01*
X179060000Y-93066309D01*
X179060000Y-92725750D01*
X179334000Y-92725750D01*
X179334000Y-93066309D01*
X179430673Y-93299698D01*
X179609301Y-93478327D01*
X179842690Y-93575000D01*
X180308250Y-93575000D01*
X180467000Y-93416250D01*
X180467000Y-92567000D01*
X180721000Y-92567000D01*
X180721000Y-93416250D01*
X180879750Y-93575000D01*
X181345310Y-93575000D01*
X181578699Y-93478327D01*
X181757327Y-93299698D01*
X181854000Y-93066309D01*
X181854000Y-92725750D01*
X182128000Y-92725750D01*
X182128000Y-93066309D01*
X182224673Y-93299698D01*
X182403301Y-93478327D01*
X182636690Y-93575000D01*
X183102250Y-93575000D01*
X183261000Y-93416250D01*
X183261000Y-92567000D01*
X183515000Y-92567000D01*
X183515000Y-93416250D01*
X183673750Y-93575000D01*
X184139310Y-93575000D01*
X184372699Y-93478327D01*
X184551327Y-93299698D01*
X184648000Y-93066309D01*
X184648000Y-92725750D01*
X185176000Y-92725750D01*
X185176000Y-93066309D01*
X185272673Y-93299698D01*
X185451301Y-93478327D01*
X185684690Y-93575000D01*
X186150250Y-93575000D01*
X186309000Y-93416250D01*
X186309000Y-92567000D01*
X186563000Y-92567000D01*
X186563000Y-93416250D01*
X186721750Y-93575000D01*
X187187310Y-93575000D01*
X187420699Y-93478327D01*
X187599327Y-93299698D01*
X187696000Y-93066309D01*
X187696000Y-92725750D01*
X187537250Y-92567000D01*
X186563000Y-92567000D01*
X186309000Y-92567000D01*
X185334750Y-92567000D01*
X185176000Y-92725750D01*
X184648000Y-92725750D01*
X184489250Y-92567000D01*
X183515000Y-92567000D01*
X183261000Y-92567000D01*
X182286750Y-92567000D01*
X182128000Y-92725750D01*
X181854000Y-92725750D01*
X181695250Y-92567000D01*
X180721000Y-92567000D01*
X180467000Y-92567000D01*
X179492750Y-92567000D01*
X179334000Y-92725750D01*
X179060000Y-92725750D01*
X178901250Y-92567000D01*
X177927000Y-92567000D01*
X177673000Y-92567000D01*
X176698750Y-92567000D01*
X176540000Y-92725750D01*
X151685000Y-92725750D01*
X151685000Y-79500000D01*
X152740000Y-79500000D01*
X152740000Y-82000000D01*
X152797852Y-82290839D01*
X152962599Y-82537401D01*
X152990000Y-82564802D01*
X152990000Y-85750000D01*
X153047852Y-86040839D01*
X153212599Y-86287401D01*
X153962599Y-87037401D01*
X154209160Y-87202148D01*
X154500000Y-87260000D01*
X158000000Y-87260000D01*
X158290839Y-87202148D01*
X158537401Y-87037401D01*
X159287401Y-86287401D01*
X159452148Y-86040840D01*
X159510000Y-85750000D01*
X159510000Y-85062463D01*
X159542192Y-85030327D01*
X159684838Y-84686799D01*
X159684921Y-84591500D01*
X159878309Y-84591500D01*
X160111698Y-84494827D01*
X160290327Y-84316199D01*
X160387000Y-84082810D01*
X160387000Y-84039000D01*
X160230838Y-83882838D01*
X160350157Y-83704265D01*
X160374595Y-83581405D01*
X160387000Y-83569000D01*
X160387000Y-83525190D01*
X160386174Y-83523195D01*
X160399440Y-83456500D01*
X160399440Y-83151500D01*
X160380046Y-83054000D01*
X160399440Y-82956500D01*
X160399440Y-82651500D01*
X160380046Y-82554000D01*
X160399440Y-82456500D01*
X160399440Y-82151500D01*
X160380046Y-82054000D01*
X160399440Y-81956500D01*
X160399440Y-81786000D01*
X161798000Y-81786000D01*
X162088839Y-81728148D01*
X162180560Y-81666862D01*
X162180560Y-81956500D01*
X162199954Y-82054000D01*
X162180560Y-82151500D01*
X162180560Y-82456500D01*
X162199954Y-82554000D01*
X162180560Y-82651500D01*
X162180560Y-82956500D01*
X162199954Y-83054000D01*
X162180560Y-83151500D01*
X162180560Y-83456500D01*
X162199954Y-83554000D01*
X162180560Y-83651500D01*
X162180560Y-83956500D01*
X162229843Y-84204265D01*
X162370191Y-84414309D01*
X162580235Y-84554657D01*
X162828000Y-84603940D01*
X163793138Y-84603940D01*
X164086000Y-84896802D01*
X164086000Y-85090000D01*
X164143852Y-85380839D01*
X164308599Y-85627401D01*
X164816599Y-86135401D01*
X165063161Y-86300148D01*
X165354000Y-86358000D01*
X169611198Y-86358000D01*
X171276878Y-88023680D01*
X171276838Y-88069167D01*
X171418883Y-88412943D01*
X171681673Y-88676192D01*
X172025201Y-88818838D01*
X172397167Y-88819162D01*
X172717560Y-88686779D01*
X172717560Y-88876000D01*
X172766843Y-89123765D01*
X172907191Y-89333809D01*
X173117235Y-89474157D01*
X173365000Y-89523440D01*
X174615000Y-89523440D01*
X174862765Y-89474157D01*
X175072809Y-89333809D01*
X175204982Y-89136000D01*
X176038000Y-89136000D01*
X176328839Y-89078148D01*
X176575401Y-88913401D01*
X176813401Y-88675401D01*
X176950063Y-88470872D01*
X176973765Y-88466157D01*
X177105700Y-88378000D01*
X178828000Y-88378000D01*
X179118839Y-88320148D01*
X179365401Y-88155401D01*
X179717680Y-87803122D01*
X179763167Y-87803162D01*
X179834000Y-87773894D01*
X179834000Y-89319413D01*
X179721235Y-89341843D01*
X179511191Y-89482191D01*
X179379018Y-89680000D01*
X179014982Y-89680000D01*
X178882809Y-89482191D01*
X178672765Y-89341843D01*
X178425000Y-89292560D01*
X177175000Y-89292560D01*
X176927235Y-89341843D01*
X176717191Y-89482191D01*
X176576843Y-89692235D01*
X176527560Y-89940000D01*
X176527560Y-90940000D01*
X176576843Y-91187765D01*
X176717191Y-91397809D01*
X176778320Y-91438654D01*
X176636673Y-91580302D01*
X176540000Y-91813691D01*
X176540000Y-92154250D01*
X176698750Y-92313000D01*
X177673000Y-92313000D01*
X177673000Y-92293000D01*
X177927000Y-92293000D01*
X177927000Y-92313000D01*
X178901250Y-92313000D01*
X179060000Y-92154250D01*
X179060000Y-91813691D01*
X178963327Y-91580302D01*
X178821680Y-91438654D01*
X178882809Y-91397809D01*
X179014982Y-91200000D01*
X179379018Y-91200000D01*
X179511191Y-91397809D01*
X179572320Y-91438654D01*
X179430673Y-91580302D01*
X179334000Y-91813691D01*
X179334000Y-92154250D01*
X179492750Y-92313000D01*
X180467000Y-92313000D01*
X180467000Y-92293000D01*
X180721000Y-92293000D01*
X180721000Y-92313000D01*
X181695250Y-92313000D01*
X181854000Y-92154250D01*
X181854000Y-91813691D01*
X181757327Y-91580302D01*
X181615680Y-91438654D01*
X181676809Y-91397809D01*
X181808982Y-91200000D01*
X182173018Y-91200000D01*
X182305191Y-91397809D01*
X182366320Y-91438654D01*
X182224673Y-91580302D01*
X182128000Y-91813691D01*
X182128000Y-92154250D01*
X182286750Y-92313000D01*
X183261000Y-92313000D01*
X183261000Y-92293000D01*
X183515000Y-92293000D01*
X183515000Y-92313000D01*
X184489250Y-92313000D01*
X184648000Y-92154250D01*
X184648000Y-91813691D01*
X184551327Y-91580302D01*
X184409680Y-91438654D01*
X184470809Y-91397809D01*
X184602982Y-91200000D01*
X185221018Y-91200000D01*
X185353191Y-91397809D01*
X185414320Y-91438654D01*
X185272673Y-91580302D01*
X185176000Y-91813691D01*
X185176000Y-92154250D01*
X185334750Y-92313000D01*
X186309000Y-92313000D01*
X186309000Y-92293000D01*
X186563000Y-92293000D01*
X186563000Y-92313000D01*
X187537250Y-92313000D01*
X187696000Y-92154250D01*
X187696000Y-91813691D01*
X187599327Y-91580302D01*
X187457680Y-91438654D01*
X187518809Y-91397809D01*
X187659157Y-91187765D01*
X187708440Y-90940000D01*
X187708440Y-89940000D01*
X187659157Y-89692235D01*
X187518809Y-89482191D01*
X187308765Y-89341843D01*
X187061000Y-89292560D01*
X185811000Y-89292560D01*
X185563235Y-89341843D01*
X185353191Y-89482191D01*
X185221018Y-89680000D01*
X184602982Y-89680000D01*
X184470809Y-89482191D01*
X184260765Y-89341843D01*
X184148000Y-89319413D01*
X184148000Y-88678000D01*
X184090148Y-88387161D01*
X183925401Y-88140599D01*
X183548152Y-87763350D01*
X188696600Y-87763350D01*
X188696600Y-88467510D01*
X188793273Y-88700899D01*
X188971902Y-88879527D01*
X189205291Y-88976200D01*
X190061850Y-88976200D01*
X190220600Y-88817450D01*
X190220600Y-87604600D01*
X190474600Y-87604600D01*
X190474600Y-88817450D01*
X190633350Y-88976200D01*
X191489909Y-88976200D01*
X191723298Y-88879527D01*
X191901927Y-88700899D01*
X191998600Y-88467510D01*
X191998600Y-87763350D01*
X191839850Y-87604600D01*
X190474600Y-87604600D01*
X190220600Y-87604600D01*
X188855350Y-87604600D01*
X188696600Y-87763350D01*
X183548152Y-87763350D01*
X183449939Y-87665137D01*
X183531691Y-87699000D01*
X183624250Y-87699000D01*
X183783000Y-87540250D01*
X183783000Y-86741000D01*
X183761000Y-86741000D01*
X183761000Y-86487000D01*
X183783000Y-86487000D01*
X183783000Y-85687750D01*
X183624250Y-85529000D01*
X183531691Y-85529000D01*
X183400000Y-85583548D01*
X183400000Y-85369318D01*
X183410235Y-85376157D01*
X183658000Y-85425440D01*
X184158000Y-85425440D01*
X184405765Y-85376157D01*
X184615809Y-85235809D01*
X184648000Y-85187632D01*
X184648000Y-85755974D01*
X184517698Y-85625673D01*
X184284309Y-85529000D01*
X184191750Y-85529000D01*
X184033000Y-85687750D01*
X184033000Y-86487000D01*
X184055000Y-86487000D01*
X184055000Y-86741000D01*
X184033000Y-86741000D01*
X184033000Y-87540250D01*
X184191750Y-87699000D01*
X184284309Y-87699000D01*
X184517698Y-87602327D01*
X184659346Y-87460680D01*
X184700191Y-87521809D01*
X184910235Y-87662157D01*
X185158000Y-87711440D01*
X185658000Y-87711440D01*
X185905765Y-87662157D01*
X186115809Y-87521809D01*
X186256157Y-87311765D01*
X186305440Y-87064000D01*
X186305440Y-86164000D01*
X186256157Y-85916235D01*
X186168000Y-85784300D01*
X186168000Y-85157700D01*
X186256157Y-85025765D01*
X186305440Y-84778000D01*
X186305440Y-84140092D01*
X186413201Y-84184838D01*
X186460077Y-84184879D01*
X187750199Y-85475001D01*
X187996761Y-85639748D01*
X188287600Y-85697600D01*
X188902952Y-85697600D01*
X189103185Y-85997270D01*
X189125380Y-86012100D01*
X188971902Y-86075673D01*
X188793273Y-86254301D01*
X188696600Y-86487690D01*
X188696600Y-87191850D01*
X188855350Y-87350600D01*
X190220600Y-87350600D01*
X190220600Y-87330600D01*
X190474600Y-87330600D01*
X190474600Y-87350600D01*
X191839850Y-87350600D01*
X191998600Y-87191850D01*
X191998600Y-86487690D01*
X191901927Y-86254301D01*
X191723298Y-86075673D01*
X191569820Y-86012100D01*
X191592015Y-85997270D01*
X191916871Y-85511089D01*
X192030945Y-84937600D01*
X191916871Y-84364111D01*
X191592015Y-83877930D01*
X191277234Y-83667600D01*
X191592015Y-83457270D01*
X191916871Y-82971089D01*
X192030945Y-82397600D01*
X191916871Y-81824111D01*
X191592015Y-81337930D01*
X191277234Y-81127600D01*
X191592015Y-80917270D01*
X191916871Y-80431089D01*
X192030945Y-79857600D01*
X191916871Y-79284111D01*
X191592015Y-78797930D01*
X191277234Y-78587600D01*
X191592015Y-78377270D01*
X191916871Y-77891089D01*
X192030945Y-77317600D01*
X191916871Y-76744111D01*
X191592015Y-76257930D01*
X191277234Y-76047600D01*
X191592015Y-75837270D01*
X191916871Y-75351089D01*
X192030945Y-74777600D01*
X191916871Y-74204111D01*
X191592015Y-73717930D01*
X191277234Y-73507600D01*
X191592015Y-73297270D01*
X191916871Y-72811089D01*
X192030945Y-72237600D01*
X191916871Y-71664111D01*
X191592015Y-71177930D01*
X191105834Y-70853074D01*
X190532345Y-70739000D01*
X190162855Y-70739000D01*
X189589366Y-70853074D01*
X189103185Y-71177930D01*
X188858825Y-71543640D01*
X185734455Y-71543640D01*
X185686039Y-71471181D01*
X185475995Y-71330833D01*
X185228230Y-71281550D01*
X184829450Y-71281550D01*
X184724611Y-71302404D01*
X184704299Y-71293990D01*
X184637045Y-71293990D01*
X184604800Y-71326235D01*
X184581685Y-71330833D01*
X184505602Y-71381670D01*
X184505602Y-71293990D01*
X184488360Y-71293990D01*
X184488360Y-69682360D01*
X184430508Y-69391521D01*
X184430508Y-69391520D01*
X184265761Y-69144959D01*
X183417401Y-68296599D01*
X183170839Y-68131852D01*
X182880000Y-68074000D01*
X168402000Y-68074000D01*
X168111161Y-68131852D01*
X167864599Y-68296599D01*
X167371839Y-68789359D01*
X167207092Y-69035921D01*
X167149240Y-69326760D01*
X167149240Y-69500753D01*
X167051381Y-69566141D01*
X166985993Y-69664000D01*
X166050000Y-69664000D01*
X165759161Y-69721852D01*
X165512599Y-69886599D01*
X165164638Y-70234560D01*
X164396000Y-70234560D01*
X164148235Y-70283843D01*
X164016300Y-70372000D01*
X163389700Y-70372000D01*
X163257765Y-70283843D01*
X163010000Y-70234560D01*
X162110000Y-70234560D01*
X161862235Y-70283843D01*
X161730300Y-70372000D01*
X160008000Y-70372000D01*
X159777489Y-70417852D01*
X159717160Y-70429852D01*
X159470599Y-70594599D01*
X158846746Y-71218452D01*
X158679778Y-70968567D01*
X158144155Y-70610675D01*
X157512345Y-70485000D01*
X157447655Y-70485000D01*
X156815845Y-70610675D01*
X156280222Y-70968567D01*
X155922330Y-71504190D01*
X155796655Y-72136000D01*
X155922330Y-72767810D01*
X156146966Y-73104001D01*
X156104302Y-73121673D01*
X155925673Y-73300301D01*
X155829000Y-73533690D01*
X155829000Y-74390250D01*
X155987750Y-74549000D01*
X157353000Y-74549000D01*
X157353000Y-74529000D01*
X157607000Y-74529000D01*
X157607000Y-74549000D01*
X158972250Y-74549000D01*
X159131000Y-74390250D01*
X159131000Y-73533690D01*
X159034327Y-73300301D01*
X158855698Y-73121673D01*
X158813034Y-73104001D01*
X158952016Y-72896000D01*
X159004000Y-72896000D01*
X159294839Y-72838148D01*
X159541401Y-72673401D01*
X160322802Y-71892000D01*
X161700368Y-71892000D01*
X161696516Y-71894574D01*
X161519161Y-71929852D01*
X161272599Y-72094599D01*
X161150320Y-72216878D01*
X161104833Y-72216838D01*
X160761057Y-72358883D01*
X160497808Y-72621673D01*
X160355162Y-72965201D01*
X160354838Y-73337167D01*
X160410322Y-73471449D01*
X160243808Y-73637673D01*
X160101162Y-73981201D01*
X160101121Y-74028077D01*
X160002599Y-74126599D01*
X159837852Y-74373161D01*
X159780000Y-74664000D01*
X159780000Y-78926300D01*
X159733427Y-78996000D01*
X158935004Y-78996000D01*
X158935162Y-78814833D01*
X158793117Y-78471057D01*
X158530327Y-78207808D01*
X158186799Y-78065162D01*
X157814833Y-78064838D01*
X157471057Y-78206883D01*
X157437882Y-78240000D01*
X154000000Y-78240000D01*
X153709161Y-78297852D01*
X153462599Y-78462599D01*
X152962599Y-78962599D01*
X152797852Y-79209161D01*
X152740000Y-79500000D01*
X151685000Y-79500000D01*
X151685000Y-74961750D01*
X155829000Y-74961750D01*
X155829000Y-75818310D01*
X155925673Y-76051699D01*
X156104302Y-76230327D01*
X156337691Y-76327000D01*
X157194250Y-76327000D01*
X157353000Y-76168250D01*
X157353000Y-74803000D01*
X157607000Y-74803000D01*
X157607000Y-76168250D01*
X157765750Y-76327000D01*
X158622309Y-76327000D01*
X158855698Y-76230327D01*
X159034327Y-76051699D01*
X159131000Y-75818310D01*
X159131000Y-74961750D01*
X158972250Y-74803000D01*
X157607000Y-74803000D01*
X157353000Y-74803000D01*
X155987750Y-74803000D01*
X155829000Y-74961750D01*
X151685000Y-74961750D01*
X151685000Y-67685000D01*
X196315000Y-67685000D01*
X196315000Y-96315000D01*
X196315000Y-96315000D01*
G37*
X196315000Y-96315000D02*
X151685000Y-96315000D01*
X151685000Y-92725750D01*
X176540000Y-92725750D01*
X176540000Y-93066309D01*
X176636673Y-93299698D01*
X176815301Y-93478327D01*
X177048690Y-93575000D01*
X177514250Y-93575000D01*
X177673000Y-93416250D01*
X177673000Y-92567000D01*
X177927000Y-92567000D01*
X177927000Y-93416250D01*
X178085750Y-93575000D01*
X178551310Y-93575000D01*
X178784699Y-93478327D01*
X178963327Y-93299698D01*
X179060000Y-93066309D01*
X179060000Y-92725750D01*
X179334000Y-92725750D01*
X179334000Y-93066309D01*
X179430673Y-93299698D01*
X179609301Y-93478327D01*
X179842690Y-93575000D01*
X180308250Y-93575000D01*
X180467000Y-93416250D01*
X180467000Y-92567000D01*
X180721000Y-92567000D01*
X180721000Y-93416250D01*
X180879750Y-93575000D01*
X181345310Y-93575000D01*
X181578699Y-93478327D01*
X181757327Y-93299698D01*
X181854000Y-93066309D01*
X181854000Y-92725750D01*
X182128000Y-92725750D01*
X182128000Y-93066309D01*
X182224673Y-93299698D01*
X182403301Y-93478327D01*
X182636690Y-93575000D01*
X183102250Y-93575000D01*
X183261000Y-93416250D01*
X183261000Y-92567000D01*
X183515000Y-92567000D01*
X183515000Y-93416250D01*
X183673750Y-93575000D01*
X184139310Y-93575000D01*
X184372699Y-93478327D01*
X184551327Y-93299698D01*
X184648000Y-93066309D01*
X184648000Y-92725750D01*
X185176000Y-92725750D01*
X185176000Y-93066309D01*
X185272673Y-93299698D01*
X185451301Y-93478327D01*
X185684690Y-93575000D01*
X186150250Y-93575000D01*
X186309000Y-93416250D01*
X186309000Y-92567000D01*
X186563000Y-92567000D01*
X186563000Y-93416250D01*
X186721750Y-93575000D01*
X187187310Y-93575000D01*
X187420699Y-93478327D01*
X187599327Y-93299698D01*
X187696000Y-93066309D01*
X187696000Y-92725750D01*
X187537250Y-92567000D01*
X186563000Y-92567000D01*
X186309000Y-92567000D01*
X185334750Y-92567000D01*
X185176000Y-92725750D01*
X184648000Y-92725750D01*
X184489250Y-92567000D01*
X183515000Y-92567000D01*
X183261000Y-92567000D01*
X182286750Y-92567000D01*
X182128000Y-92725750D01*
X181854000Y-92725750D01*
X181695250Y-92567000D01*
X180721000Y-92567000D01*
X180467000Y-92567000D01*
X179492750Y-92567000D01*
X179334000Y-92725750D01*
X179060000Y-92725750D01*
X178901250Y-92567000D01*
X177927000Y-92567000D01*
X177673000Y-92567000D01*
X176698750Y-92567000D01*
X176540000Y-92725750D01*
X151685000Y-92725750D01*
X151685000Y-79500000D01*
X152740000Y-79500000D01*
X152740000Y-82000000D01*
X152797852Y-82290839D01*
X152962599Y-82537401D01*
X152990000Y-82564802D01*
X152990000Y-85750000D01*
X153047852Y-86040839D01*
X153212599Y-86287401D01*
X153962599Y-87037401D01*
X154209160Y-87202148D01*
X154500000Y-87260000D01*
X158000000Y-87260000D01*
X158290839Y-87202148D01*
X158537401Y-87037401D01*
X159287401Y-86287401D01*
X159452148Y-86040840D01*
X159510000Y-85750000D01*
X159510000Y-85062463D01*
X159542192Y-85030327D01*
X159684838Y-84686799D01*
X159684921Y-84591500D01*
X159878309Y-84591500D01*
X160111698Y-84494827D01*
X160290327Y-84316199D01*
X160387000Y-84082810D01*
X160387000Y-84039000D01*
X160230838Y-83882838D01*
X160350157Y-83704265D01*
X160374595Y-83581405D01*
X160387000Y-83569000D01*
X160387000Y-83525190D01*
X160386174Y-83523195D01*
X160399440Y-83456500D01*
X160399440Y-83151500D01*
X160380046Y-83054000D01*
X160399440Y-82956500D01*
X160399440Y-82651500D01*
X160380046Y-82554000D01*
X160399440Y-82456500D01*
X160399440Y-82151500D01*
X160380046Y-82054000D01*
X160399440Y-81956500D01*
X160399440Y-81786000D01*
X161798000Y-81786000D01*
X162088839Y-81728148D01*
X162180560Y-81666862D01*
X162180560Y-81956500D01*
X162199954Y-82054000D01*
X162180560Y-82151500D01*
X162180560Y-82456500D01*
X162199954Y-82554000D01*
X162180560Y-82651500D01*
X162180560Y-82956500D01*
X162199954Y-83054000D01*
X162180560Y-83151500D01*
X162180560Y-83456500D01*
X162199954Y-83554000D01*
X162180560Y-83651500D01*
X162180560Y-83956500D01*
X162229843Y-84204265D01*
X162370191Y-84414309D01*
X162580235Y-84554657D01*
X162828000Y-84603940D01*
X163793138Y-84603940D01*
X164086000Y-84896802D01*
X164086000Y-85090000D01*
X164143852Y-85380839D01*
X164308599Y-85627401D01*
X164816599Y-86135401D01*
X165063161Y-86300148D01*
X165354000Y-86358000D01*
X169611198Y-86358000D01*
X171276878Y-88023680D01*
X171276838Y-88069167D01*
X171418883Y-88412943D01*
X171681673Y-88676192D01*
X172025201Y-88818838D01*
X172397167Y-88819162D01*
X172717560Y-88686779D01*
X172717560Y-88876000D01*
X172766843Y-89123765D01*
X172907191Y-89333809D01*
X173117235Y-89474157D01*
X173365000Y-89523440D01*
X174615000Y-89523440D01*
X174862765Y-89474157D01*
X175072809Y-89333809D01*
X175204982Y-89136000D01*
X176038000Y-89136000D01*
X176328839Y-89078148D01*
X176575401Y-88913401D01*
X176813401Y-88675401D01*
X176950063Y-88470872D01*
X176973765Y-88466157D01*
X177105700Y-88378000D01*
X178828000Y-88378000D01*
X179118839Y-88320148D01*
X179365401Y-88155401D01*
X179717680Y-87803122D01*
X179763167Y-87803162D01*
X179834000Y-87773894D01*
X179834000Y-89319413D01*
X179721235Y-89341843D01*
X179511191Y-89482191D01*
X179379018Y-89680000D01*
X179014982Y-89680000D01*
X178882809Y-89482191D01*
X178672765Y-89341843D01*
X178425000Y-89292560D01*
X177175000Y-89292560D01*
X176927235Y-89341843D01*
X176717191Y-89482191D01*
X176576843Y-89692235D01*
X176527560Y-89940000D01*
X176527560Y-90940000D01*
X176576843Y-91187765D01*
X176717191Y-91397809D01*
X176778320Y-91438654D01*
X176636673Y-91580302D01*
X176540000Y-91813691D01*
X176540000Y-92154250D01*
X176698750Y-92313000D01*
X177673000Y-92313000D01*
X177673000Y-92293000D01*
X177927000Y-92293000D01*
X177927000Y-92313000D01*
X178901250Y-92313000D01*
X179060000Y-92154250D01*
X179060000Y-91813691D01*
X178963327Y-91580302D01*
X178821680Y-91438654D01*
X178882809Y-91397809D01*
X179014982Y-91200000D01*
X179379018Y-91200000D01*
X179511191Y-91397809D01*
X179572320Y-91438654D01*
X179430673Y-91580302D01*
X179334000Y-91813691D01*
X179334000Y-92154250D01*
X179492750Y-92313000D01*
X180467000Y-92313000D01*
X180467000Y-92293000D01*
X180721000Y-92293000D01*
X180721000Y-92313000D01*
X181695250Y-92313000D01*
X181854000Y-92154250D01*
X181854000Y-91813691D01*
X181757327Y-91580302D01*
X181615680Y-91438654D01*
X181676809Y-91397809D01*
X181808982Y-91200000D01*
X182173018Y-91200000D01*
X182305191Y-91397809D01*
X182366320Y-91438654D01*
X182224673Y-91580302D01*
X182128000Y-91813691D01*
X182128000Y-92154250D01*
X182286750Y-92313000D01*
X183261000Y-92313000D01*
X183261000Y-92293000D01*
X183515000Y-92293000D01*
X183515000Y-92313000D01*
X184489250Y-92313000D01*
X184648000Y-92154250D01*
X184648000Y-91813691D01*
X184551327Y-91580302D01*
X184409680Y-91438654D01*
X184470809Y-91397809D01*
X184602982Y-91200000D01*
X185221018Y-91200000D01*
X185353191Y-91397809D01*
X185414320Y-91438654D01*
X185272673Y-91580302D01*
X185176000Y-91813691D01*
X185176000Y-92154250D01*
X185334750Y-92313000D01*
X186309000Y-92313000D01*
X186309000Y-92293000D01*
X186563000Y-92293000D01*
X186563000Y-92313000D01*
X187537250Y-92313000D01*
X187696000Y-92154250D01*
X187696000Y-91813691D01*
X187599327Y-91580302D01*
X187457680Y-91438654D01*
X187518809Y-91397809D01*
X187659157Y-91187765D01*
X187708440Y-90940000D01*
X187708440Y-89940000D01*
X187659157Y-89692235D01*
X187518809Y-89482191D01*
X187308765Y-89341843D01*
X187061000Y-89292560D01*
X185811000Y-89292560D01*
X185563235Y-89341843D01*
X185353191Y-89482191D01*
X185221018Y-89680000D01*
X184602982Y-89680000D01*
X184470809Y-89482191D01*
X184260765Y-89341843D01*
X184148000Y-89319413D01*
X184148000Y-88678000D01*
X184090148Y-88387161D01*
X183925401Y-88140599D01*
X183548152Y-87763350D01*
X188696600Y-87763350D01*
X188696600Y-88467510D01*
X188793273Y-88700899D01*
X188971902Y-88879527D01*
X189205291Y-88976200D01*
X190061850Y-88976200D01*
X190220600Y-88817450D01*
X190220600Y-87604600D01*
X190474600Y-87604600D01*
X190474600Y-88817450D01*
X190633350Y-88976200D01*
X191489909Y-88976200D01*
X191723298Y-88879527D01*
X191901927Y-88700899D01*
X191998600Y-88467510D01*
X191998600Y-87763350D01*
X191839850Y-87604600D01*
X190474600Y-87604600D01*
X190220600Y-87604600D01*
X188855350Y-87604600D01*
X188696600Y-87763350D01*
X183548152Y-87763350D01*
X183449939Y-87665137D01*
X183531691Y-87699000D01*
X183624250Y-87699000D01*
X183783000Y-87540250D01*
X183783000Y-86741000D01*
X183761000Y-86741000D01*
X183761000Y-86487000D01*
X183783000Y-86487000D01*
X183783000Y-85687750D01*
X183624250Y-85529000D01*
X183531691Y-85529000D01*
X183400000Y-85583548D01*
X183400000Y-85369318D01*
X183410235Y-85376157D01*
X183658000Y-85425440D01*
X184158000Y-85425440D01*
X184405765Y-85376157D01*
X184615809Y-85235809D01*
X184648000Y-85187632D01*
X184648000Y-85755974D01*
X184517698Y-85625673D01*
X184284309Y-85529000D01*
X184191750Y-85529000D01*
X184033000Y-85687750D01*
X184033000Y-86487000D01*
X184055000Y-86487000D01*
X184055000Y-86741000D01*
X184033000Y-86741000D01*
X184033000Y-87540250D01*
X184191750Y-87699000D01*
X184284309Y-87699000D01*
X184517698Y-87602327D01*
X184659346Y-87460680D01*
X184700191Y-87521809D01*
X184910235Y-87662157D01*
X185158000Y-87711440D01*
X185658000Y-87711440D01*
X185905765Y-87662157D01*
X186115809Y-87521809D01*
X186256157Y-87311765D01*
X186305440Y-87064000D01*
X186305440Y-86164000D01*
X186256157Y-85916235D01*
X186168000Y-85784300D01*
X186168000Y-85157700D01*
X186256157Y-85025765D01*
X186305440Y-84778000D01*
X186305440Y-84140092D01*
X186413201Y-84184838D01*
X186460077Y-84184879D01*
X187750199Y-85475001D01*
X187996761Y-85639748D01*
X188287600Y-85697600D01*
X188902952Y-85697600D01*
X189103185Y-85997270D01*
X189125380Y-86012100D01*
X188971902Y-86075673D01*
X188793273Y-86254301D01*
X188696600Y-86487690D01*
X188696600Y-87191850D01*
X188855350Y-87350600D01*
X190220600Y-87350600D01*
X190220600Y-87330600D01*
X190474600Y-87330600D01*
X190474600Y-87350600D01*
X191839850Y-87350600D01*
X191998600Y-87191850D01*
X191998600Y-86487690D01*
X191901927Y-86254301D01*
X191723298Y-86075673D01*
X191569820Y-86012100D01*
X191592015Y-85997270D01*
X191916871Y-85511089D01*
X192030945Y-84937600D01*
X191916871Y-84364111D01*
X191592015Y-83877930D01*
X191277234Y-83667600D01*
X191592015Y-83457270D01*
X191916871Y-82971089D01*
X192030945Y-82397600D01*
X191916871Y-81824111D01*
X191592015Y-81337930D01*
X191277234Y-81127600D01*
X191592015Y-80917270D01*
X191916871Y-80431089D01*
X192030945Y-79857600D01*
X191916871Y-79284111D01*
X191592015Y-78797930D01*
X191277234Y-78587600D01*
X191592015Y-78377270D01*
X191916871Y-77891089D01*
X192030945Y-77317600D01*
X191916871Y-76744111D01*
X191592015Y-76257930D01*
X191277234Y-76047600D01*
X191592015Y-75837270D01*
X191916871Y-75351089D01*
X192030945Y-74777600D01*
X191916871Y-74204111D01*
X191592015Y-73717930D01*
X191277234Y-73507600D01*
X191592015Y-73297270D01*
X191916871Y-72811089D01*
X192030945Y-72237600D01*
X191916871Y-71664111D01*
X191592015Y-71177930D01*
X191105834Y-70853074D01*
X190532345Y-70739000D01*
X190162855Y-70739000D01*
X189589366Y-70853074D01*
X189103185Y-71177930D01*
X188858825Y-71543640D01*
X185734455Y-71543640D01*
X185686039Y-71471181D01*
X185475995Y-71330833D01*
X185228230Y-71281550D01*
X184829450Y-71281550D01*
X184724611Y-71302404D01*
X184704299Y-71293990D01*
X184637045Y-71293990D01*
X184604800Y-71326235D01*
X184581685Y-71330833D01*
X184505602Y-71381670D01*
X184505602Y-71293990D01*
X184488360Y-71293990D01*
X184488360Y-69682360D01*
X184430508Y-69391521D01*
X184430508Y-69391520D01*
X184265761Y-69144959D01*
X183417401Y-68296599D01*
X183170839Y-68131852D01*
X182880000Y-68074000D01*
X168402000Y-68074000D01*
X168111161Y-68131852D01*
X167864599Y-68296599D01*
X167371839Y-68789359D01*
X167207092Y-69035921D01*
X167149240Y-69326760D01*
X167149240Y-69500753D01*
X167051381Y-69566141D01*
X166985993Y-69664000D01*
X166050000Y-69664000D01*
X165759161Y-69721852D01*
X165512599Y-69886599D01*
X165164638Y-70234560D01*
X164396000Y-70234560D01*
X164148235Y-70283843D01*
X164016300Y-70372000D01*
X163389700Y-70372000D01*
X163257765Y-70283843D01*
X163010000Y-70234560D01*
X162110000Y-70234560D01*
X161862235Y-70283843D01*
X161730300Y-70372000D01*
X160008000Y-70372000D01*
X159777489Y-70417852D01*
X159717160Y-70429852D01*
X159470599Y-70594599D01*
X158846746Y-71218452D01*
X158679778Y-70968567D01*
X158144155Y-70610675D01*
X157512345Y-70485000D01*
X157447655Y-70485000D01*
X156815845Y-70610675D01*
X156280222Y-70968567D01*
X155922330Y-71504190D01*
X155796655Y-72136000D01*
X155922330Y-72767810D01*
X156146966Y-73104001D01*
X156104302Y-73121673D01*
X155925673Y-73300301D01*
X155829000Y-73533690D01*
X155829000Y-74390250D01*
X155987750Y-74549000D01*
X157353000Y-74549000D01*
X157353000Y-74529000D01*
X157607000Y-74529000D01*
X157607000Y-74549000D01*
X158972250Y-74549000D01*
X159131000Y-74390250D01*
X159131000Y-73533690D01*
X159034327Y-73300301D01*
X158855698Y-73121673D01*
X158813034Y-73104001D01*
X158952016Y-72896000D01*
X159004000Y-72896000D01*
X159294839Y-72838148D01*
X159541401Y-72673401D01*
X160322802Y-71892000D01*
X161700368Y-71892000D01*
X161696516Y-71894574D01*
X161519161Y-71929852D01*
X161272599Y-72094599D01*
X161150320Y-72216878D01*
X161104833Y-72216838D01*
X160761057Y-72358883D01*
X160497808Y-72621673D01*
X160355162Y-72965201D01*
X160354838Y-73337167D01*
X160410322Y-73471449D01*
X160243808Y-73637673D01*
X160101162Y-73981201D01*
X160101121Y-74028077D01*
X160002599Y-74126599D01*
X159837852Y-74373161D01*
X159780000Y-74664000D01*
X159780000Y-78926300D01*
X159733427Y-78996000D01*
X158935004Y-78996000D01*
X158935162Y-78814833D01*
X158793117Y-78471057D01*
X158530327Y-78207808D01*
X158186799Y-78065162D01*
X157814833Y-78064838D01*
X157471057Y-78206883D01*
X157437882Y-78240000D01*
X154000000Y-78240000D01*
X153709161Y-78297852D01*
X153462599Y-78462599D01*
X152962599Y-78962599D01*
X152797852Y-79209161D01*
X152740000Y-79500000D01*
X151685000Y-79500000D01*
X151685000Y-74961750D01*
X155829000Y-74961750D01*
X155829000Y-75818310D01*
X155925673Y-76051699D01*
X156104302Y-76230327D01*
X156337691Y-76327000D01*
X157194250Y-76327000D01*
X157353000Y-76168250D01*
X157353000Y-74803000D01*
X157607000Y-74803000D01*
X157607000Y-76168250D01*
X157765750Y-76327000D01*
X158622309Y-76327000D01*
X158855698Y-76230327D01*
X159034327Y-76051699D01*
X159131000Y-75818310D01*
X159131000Y-74961750D01*
X158972250Y-74803000D01*
X157607000Y-74803000D01*
X157353000Y-74803000D01*
X155987750Y-74803000D01*
X155829000Y-74961750D01*
X151685000Y-74961750D01*
X151685000Y-67685000D01*
X196315000Y-67685000D01*
X196315000Y-96315000D01*
G36*
X180557161Y-83760148D02*
X180848000Y-83818000D01*
X182487198Y-83818000D01*
X182102599Y-84202599D01*
X181937852Y-84449161D01*
X181880000Y-84740000D01*
X181880000Y-87930000D01*
X181937852Y-88220839D01*
X182102599Y-88467401D01*
X182628000Y-88992802D01*
X182628000Y-89319413D01*
X182515235Y-89341843D01*
X182305191Y-89482191D01*
X182173018Y-89680000D01*
X181808982Y-89680000D01*
X181676809Y-89482191D01*
X181466765Y-89341843D01*
X181354000Y-89319413D01*
X181354000Y-86360000D01*
X181297470Y-86075808D01*
X181296148Y-86069160D01*
X181131401Y-85822599D01*
X180877401Y-85568599D01*
X180630839Y-85403852D01*
X180340000Y-85346000D01*
X178078000Y-85346000D01*
X178017672Y-85358000D01*
X177105700Y-85358000D01*
X177036000Y-85311427D01*
X177036000Y-85122573D01*
X177105700Y-85076000D01*
X177225558Y-85076000D01*
X177269673Y-85120192D01*
X177613201Y-85262838D01*
X177985167Y-85263162D01*
X178328943Y-85121117D01*
X178519683Y-84930709D01*
X178589301Y-85000327D01*
X178822690Y-85097000D01*
X179038250Y-85097000D01*
X179197000Y-84938250D01*
X179197000Y-84189000D01*
X179451000Y-84189000D01*
X179451000Y-84938250D01*
X179609750Y-85097000D01*
X179825310Y-85097000D01*
X180058699Y-85000327D01*
X180237327Y-84821698D01*
X180334000Y-84588309D01*
X180334000Y-84347750D01*
X180175250Y-84189000D01*
X179451000Y-84189000D01*
X179197000Y-84189000D01*
X179177000Y-84189000D01*
X179177000Y-83935000D01*
X179197000Y-83935000D01*
X179197000Y-83915000D01*
X179451000Y-83915000D01*
X179451000Y-83935000D01*
X180175250Y-83935000D01*
X180334000Y-83776250D01*
X180334000Y-83611037D01*
X180557161Y-83760148D01*
X180557161Y-83760148D01*
G37*
X180557161Y-83760148D02*
X180848000Y-83818000D01*
X182487198Y-83818000D01*
X182102599Y-84202599D01*
X181937852Y-84449161D01*
X181880000Y-84740000D01*
X181880000Y-87930000D01*
X181937852Y-88220839D01*
X182102599Y-88467401D01*
X182628000Y-88992802D01*
X182628000Y-89319413D01*
X182515235Y-89341843D01*
X182305191Y-89482191D01*
X182173018Y-89680000D01*
X181808982Y-89680000D01*
X181676809Y-89482191D01*
X181466765Y-89341843D01*
X181354000Y-89319413D01*
X181354000Y-86360000D01*
X181297470Y-86075808D01*
X181296148Y-86069160D01*
X181131401Y-85822599D01*
X180877401Y-85568599D01*
X180630839Y-85403852D01*
X180340000Y-85346000D01*
X178078000Y-85346000D01*
X178017672Y-85358000D01*
X177105700Y-85358000D01*
X177036000Y-85311427D01*
X177036000Y-85122573D01*
X177105700Y-85076000D01*
X177225558Y-85076000D01*
X177269673Y-85120192D01*
X177613201Y-85262838D01*
X177985167Y-85263162D01*
X178328943Y-85121117D01*
X178519683Y-84930709D01*
X178589301Y-85000327D01*
X178822690Y-85097000D01*
X179038250Y-85097000D01*
X179197000Y-84938250D01*
X179197000Y-84189000D01*
X179451000Y-84189000D01*
X179451000Y-84938250D01*
X179609750Y-85097000D01*
X179825310Y-85097000D01*
X180058699Y-85000327D01*
X180237327Y-84821698D01*
X180334000Y-84588309D01*
X180334000Y-84347750D01*
X180175250Y-84189000D01*
X179451000Y-84189000D01*
X179197000Y-84189000D01*
X179177000Y-84189000D01*
X179177000Y-83935000D01*
X179197000Y-83935000D01*
X179197000Y-83915000D01*
X179451000Y-83915000D01*
X179451000Y-83935000D01*
X180175250Y-83935000D01*
X180334000Y-83776250D01*
X180334000Y-83611037D01*
X180557161Y-83760148D01*
G36*
X167445852Y-84110839D02*
X167610599Y-84357401D01*
X168091198Y-84838000D01*
X167394653Y-84838000D01*
X167455000Y-84692309D01*
X167455000Y-84599750D01*
X167296250Y-84441000D01*
X166497000Y-84441000D01*
X166497000Y-84463000D01*
X166243000Y-84463000D01*
X166243000Y-84441000D01*
X166223000Y-84441000D01*
X166223000Y-84191000D01*
X166243000Y-84191000D01*
X166243000Y-84169000D01*
X166497000Y-84169000D01*
X166497000Y-84191000D01*
X167296250Y-84191000D01*
X167434331Y-84052919D01*
X167445852Y-84110839D01*
X167445852Y-84110839D01*
G37*
X167445852Y-84110839D02*
X167610599Y-84357401D01*
X168091198Y-84838000D01*
X167394653Y-84838000D01*
X167455000Y-84692309D01*
X167455000Y-84599750D01*
X167296250Y-84441000D01*
X166497000Y-84441000D01*
X166497000Y-84463000D01*
X166243000Y-84463000D01*
X166243000Y-84441000D01*
X166223000Y-84441000D01*
X166223000Y-84191000D01*
X166243000Y-84191000D01*
X166243000Y-84169000D01*
X166497000Y-84169000D01*
X166497000Y-84191000D01*
X167296250Y-84191000D01*
X167434331Y-84052919D01*
X167445852Y-84110839D01*
G36*
X170800560Y-80142362D02*
X170800560Y-80235000D01*
X170849843Y-80482765D01*
X170990191Y-80692809D01*
X171200235Y-80833157D01*
X171448000Y-80882440D01*
X172038000Y-80882440D01*
X172214000Y-80847432D01*
X172214000Y-81290000D01*
X171973750Y-81290000D01*
X171815000Y-81448750D01*
X171815000Y-82423000D01*
X171835000Y-82423000D01*
X171835000Y-82677000D01*
X171815000Y-82677000D01*
X171815000Y-82697000D01*
X171561000Y-82697000D01*
X171561000Y-82677000D01*
X171541000Y-82677000D01*
X171541000Y-82423000D01*
X171561000Y-82423000D01*
X171561000Y-81448750D01*
X171402250Y-81290000D01*
X171061691Y-81290000D01*
X170828302Y-81386673D01*
X170686654Y-81528320D01*
X170645809Y-81467191D01*
X170435765Y-81326843D01*
X170393000Y-81318337D01*
X170393000Y-80682047D01*
X170526157Y-80482765D01*
X170575440Y-80235000D01*
X170575440Y-79917242D01*
X170800560Y-80142362D01*
X170800560Y-80142362D01*
G37*
X170800560Y-80142362D02*
X170800560Y-80235000D01*
X170849843Y-80482765D01*
X170990191Y-80692809D01*
X171200235Y-80833157D01*
X171448000Y-80882440D01*
X172038000Y-80882440D01*
X172214000Y-80847432D01*
X172214000Y-81290000D01*
X171973750Y-81290000D01*
X171815000Y-81448750D01*
X171815000Y-82423000D01*
X171835000Y-82423000D01*
X171835000Y-82677000D01*
X171815000Y-82677000D01*
X171815000Y-82697000D01*
X171561000Y-82697000D01*
X171561000Y-82677000D01*
X171541000Y-82677000D01*
X171541000Y-82423000D01*
X171561000Y-82423000D01*
X171561000Y-81448750D01*
X171402250Y-81290000D01*
X171061691Y-81290000D01*
X170828302Y-81386673D01*
X170686654Y-81528320D01*
X170645809Y-81467191D01*
X170435765Y-81326843D01*
X170393000Y-81318337D01*
X170393000Y-80682047D01*
X170526157Y-80482765D01*
X170575440Y-80235000D01*
X170575440Y-79917242D01*
X170800560Y-80142362D01*
G36*
X161474150Y-75069700D02*
X162179000Y-75069700D01*
X162179000Y-75037000D01*
X162433000Y-75037000D01*
X162433000Y-75069700D01*
X162453000Y-75069700D01*
X162453000Y-75298300D01*
X162433000Y-75298300D01*
X162433000Y-75888850D01*
X162591750Y-76047600D01*
X162787910Y-76047600D01*
X163021299Y-75950927D01*
X163195512Y-75776714D01*
X163334960Y-75916162D01*
X163334960Y-76073000D01*
X163384243Y-76320765D01*
X163524591Y-76530809D01*
X163734635Y-76671157D01*
X163982400Y-76720440D01*
X164693600Y-76720440D01*
X164941365Y-76671157D01*
X165008560Y-76626258D01*
X165008560Y-77450000D01*
X165057843Y-77697765D01*
X165198191Y-77907809D01*
X165408235Y-78048157D01*
X165656000Y-78097440D01*
X166146000Y-78097440D01*
X166146000Y-78458000D01*
X166203852Y-78748839D01*
X166368599Y-78995401D01*
X166369198Y-78996000D01*
X162846573Y-78996000D01*
X162747809Y-78848191D01*
X162537765Y-78707843D01*
X162290000Y-78658560D01*
X161790000Y-78658560D01*
X161542235Y-78707843D01*
X161332191Y-78848191D01*
X161300000Y-78896368D01*
X161300000Y-75457050D01*
X161315400Y-75457050D01*
X161315400Y-75538909D01*
X161412073Y-75772298D01*
X161590701Y-75950927D01*
X161824090Y-76047600D01*
X162020250Y-76047600D01*
X162179000Y-75888850D01*
X162179000Y-75298300D01*
X161474150Y-75298300D01*
X161315400Y-75457050D01*
X161300000Y-75457050D01*
X161300000Y-75070589D01*
X161423861Y-75019411D01*
X161474150Y-75069700D01*
X161474150Y-75069700D01*
G37*
X161474150Y-75069700D02*
X162179000Y-75069700D01*
X162179000Y-75037000D01*
X162433000Y-75037000D01*
X162433000Y-75069700D01*
X162453000Y-75069700D01*
X162453000Y-75298300D01*
X162433000Y-75298300D01*
X162433000Y-75888850D01*
X162591750Y-76047600D01*
X162787910Y-76047600D01*
X163021299Y-75950927D01*
X163195512Y-75776714D01*
X163334960Y-75916162D01*
X163334960Y-76073000D01*
X163384243Y-76320765D01*
X163524591Y-76530809D01*
X163734635Y-76671157D01*
X163982400Y-76720440D01*
X164693600Y-76720440D01*
X164941365Y-76671157D01*
X165008560Y-76626258D01*
X165008560Y-77450000D01*
X165057843Y-77697765D01*
X165198191Y-77907809D01*
X165408235Y-78048157D01*
X165656000Y-78097440D01*
X166146000Y-78097440D01*
X166146000Y-78458000D01*
X166203852Y-78748839D01*
X166368599Y-78995401D01*
X166369198Y-78996000D01*
X162846573Y-78996000D01*
X162747809Y-78848191D01*
X162537765Y-78707843D01*
X162290000Y-78658560D01*
X161790000Y-78658560D01*
X161542235Y-78707843D01*
X161332191Y-78848191D01*
X161300000Y-78896368D01*
X161300000Y-75457050D01*
X161315400Y-75457050D01*
X161315400Y-75538909D01*
X161412073Y-75772298D01*
X161590701Y-75950927D01*
X161824090Y-76047600D01*
X162020250Y-76047600D01*
X162179000Y-75888850D01*
X162179000Y-75298300D01*
X161474150Y-75298300D01*
X161315400Y-75457050D01*
X161300000Y-75457050D01*
X161300000Y-75070589D01*
X161423861Y-75019411D01*
X161474150Y-75069700D01*
G36*
X171150599Y-72911401D02*
X171397161Y-73076148D01*
X171688000Y-73134000D01*
X171759018Y-73134000D01*
X171891191Y-73331809D01*
X172101235Y-73472157D01*
X172349000Y-73521440D01*
X173599000Y-73521440D01*
X173846765Y-73472157D01*
X174056809Y-73331809D01*
X174188982Y-73134000D01*
X174553018Y-73134000D01*
X174685191Y-73331809D01*
X174895235Y-73472157D01*
X175143000Y-73521440D01*
X175516000Y-73521440D01*
X175516000Y-73881427D01*
X175368191Y-73980191D01*
X175227843Y-74190235D01*
X175178560Y-74438000D01*
X175178560Y-74938000D01*
X175227843Y-75185765D01*
X175368191Y-75395809D01*
X175416368Y-75428000D01*
X174911486Y-75428000D01*
X175000000Y-75214309D01*
X175000000Y-74973750D01*
X174841250Y-74815000D01*
X174117000Y-74815000D01*
X174117000Y-74835000D01*
X173863000Y-74835000D01*
X173863000Y-74815000D01*
X173138750Y-74815000D01*
X172980000Y-74973750D01*
X172980000Y-75214309D01*
X173068514Y-75428000D01*
X172986000Y-75428000D01*
X172695161Y-75485852D01*
X172448599Y-75650599D01*
X172303440Y-75795758D01*
X172303440Y-74950000D01*
X172254157Y-74702235D01*
X172113809Y-74492191D01*
X171903765Y-74351843D01*
X171656000Y-74302560D01*
X171166000Y-74302560D01*
X171166000Y-74161691D01*
X172980000Y-74161691D01*
X172980000Y-74402250D01*
X173138750Y-74561000D01*
X173863000Y-74561000D01*
X173863000Y-73811750D01*
X174117000Y-73811750D01*
X174117000Y-74561000D01*
X174841250Y-74561000D01*
X175000000Y-74402250D01*
X175000000Y-74161691D01*
X174903327Y-73928302D01*
X174724699Y-73749673D01*
X174491310Y-73653000D01*
X174275750Y-73653000D01*
X174117000Y-73811750D01*
X173863000Y-73811750D01*
X173704250Y-73653000D01*
X173488690Y-73653000D01*
X173255301Y-73749673D01*
X173076673Y-73928302D01*
X172980000Y-74161691D01*
X171166000Y-74161691D01*
X171166000Y-74140000D01*
X171155425Y-74086838D01*
X171108148Y-73849160D01*
X170943401Y-73602599D01*
X170668220Y-73327418D01*
X170668220Y-72429022D01*
X171150599Y-72911401D01*
X171150599Y-72911401D01*
G37*
X171150599Y-72911401D02*
X171397161Y-73076148D01*
X171688000Y-73134000D01*
X171759018Y-73134000D01*
X171891191Y-73331809D01*
X172101235Y-73472157D01*
X172349000Y-73521440D01*
X173599000Y-73521440D01*
X173846765Y-73472157D01*
X174056809Y-73331809D01*
X174188982Y-73134000D01*
X174553018Y-73134000D01*
X174685191Y-73331809D01*
X174895235Y-73472157D01*
X175143000Y-73521440D01*
X175516000Y-73521440D01*
X175516000Y-73881427D01*
X175368191Y-73980191D01*
X175227843Y-74190235D01*
X175178560Y-74438000D01*
X175178560Y-74938000D01*
X175227843Y-75185765D01*
X175368191Y-75395809D01*
X175416368Y-75428000D01*
X174911486Y-75428000D01*
X175000000Y-75214309D01*
X175000000Y-74973750D01*
X174841250Y-74815000D01*
X174117000Y-74815000D01*
X174117000Y-74835000D01*
X173863000Y-74835000D01*
X173863000Y-74815000D01*
X173138750Y-74815000D01*
X172980000Y-74973750D01*
X172980000Y-75214309D01*
X173068514Y-75428000D01*
X172986000Y-75428000D01*
X172695161Y-75485852D01*
X172448599Y-75650599D01*
X172303440Y-75795758D01*
X172303440Y-74950000D01*
X172254157Y-74702235D01*
X172113809Y-74492191D01*
X171903765Y-74351843D01*
X171656000Y-74302560D01*
X171166000Y-74302560D01*
X171166000Y-74161691D01*
X172980000Y-74161691D01*
X172980000Y-74402250D01*
X173138750Y-74561000D01*
X173863000Y-74561000D01*
X173863000Y-73811750D01*
X174117000Y-73811750D01*
X174117000Y-74561000D01*
X174841250Y-74561000D01*
X175000000Y-74402250D01*
X175000000Y-74161691D01*
X174903327Y-73928302D01*
X174724699Y-73749673D01*
X174491310Y-73653000D01*
X174275750Y-73653000D01*
X174117000Y-73811750D01*
X173863000Y-73811750D01*
X173704250Y-73653000D01*
X173488690Y-73653000D01*
X173255301Y-73749673D01*
X173076673Y-73928302D01*
X172980000Y-74161691D01*
X171166000Y-74161691D01*
X171166000Y-74140000D01*
X171155425Y-74086838D01*
X171108148Y-73849160D01*
X170943401Y-73602599D01*
X170668220Y-73327418D01*
X170668220Y-72429022D01*
X171150599Y-72911401D01*
G36*
X171714000Y-69747691D02*
X171714000Y-70088250D01*
X171872750Y-70247000D01*
X172847000Y-70247000D01*
X172847000Y-70227000D01*
X173101000Y-70227000D01*
X173101000Y-70247000D01*
X174075250Y-70247000D01*
X174234000Y-70088250D01*
X174234000Y-69747691D01*
X174170339Y-69594000D01*
X174571661Y-69594000D01*
X174508000Y-69747691D01*
X174508000Y-70088250D01*
X174666750Y-70247000D01*
X175641000Y-70247000D01*
X175641000Y-70227000D01*
X175895000Y-70227000D01*
X175895000Y-70247000D01*
X176869250Y-70247000D01*
X177028000Y-70088250D01*
X177028000Y-69747691D01*
X176964339Y-69594000D01*
X177365661Y-69594000D01*
X177302000Y-69747691D01*
X177302000Y-70088250D01*
X177460750Y-70247000D01*
X178435000Y-70247000D01*
X178435000Y-70227000D01*
X178689000Y-70227000D01*
X178689000Y-70247000D01*
X179663250Y-70247000D01*
X179822000Y-70088250D01*
X179822000Y-69747691D01*
X179758339Y-69594000D01*
X180159661Y-69594000D01*
X180096000Y-69747691D01*
X180096000Y-70088250D01*
X180254750Y-70247000D01*
X181229000Y-70247000D01*
X181229000Y-70227000D01*
X181483000Y-70227000D01*
X181483000Y-70247000D01*
X182457250Y-70247000D01*
X182616000Y-70088250D01*
X182616000Y-69747691D01*
X182552339Y-69594000D01*
X182565198Y-69594000D01*
X182968360Y-69997162D01*
X182968360Y-71625032D01*
X182930813Y-71681225D01*
X182881530Y-71928990D01*
X182881530Y-72678290D01*
X182930813Y-72926055D01*
X183071161Y-73136099D01*
X183247012Y-73253600D01*
X183071161Y-73371101D01*
X183022745Y-73443560D01*
X182271563Y-73443560D01*
X182438809Y-73331809D01*
X182579157Y-73121765D01*
X182628440Y-72874000D01*
X182628440Y-71874000D01*
X182579157Y-71626235D01*
X182438809Y-71416191D01*
X182377680Y-71375346D01*
X182519327Y-71233698D01*
X182616000Y-71000309D01*
X182616000Y-70659750D01*
X182457250Y-70501000D01*
X181483000Y-70501000D01*
X181483000Y-70521000D01*
X181229000Y-70521000D01*
X181229000Y-70501000D01*
X180254750Y-70501000D01*
X180096000Y-70659750D01*
X180096000Y-71000309D01*
X180192673Y-71233698D01*
X180334320Y-71375346D01*
X180273191Y-71416191D01*
X180141018Y-71614000D01*
X179776982Y-71614000D01*
X179644809Y-71416191D01*
X179583680Y-71375346D01*
X179725327Y-71233698D01*
X179822000Y-71000309D01*
X179822000Y-70659750D01*
X179663250Y-70501000D01*
X178689000Y-70501000D01*
X178689000Y-70521000D01*
X178435000Y-70521000D01*
X178435000Y-70501000D01*
X177460750Y-70501000D01*
X177302000Y-70659750D01*
X177302000Y-71000309D01*
X177398673Y-71233698D01*
X177540320Y-71375346D01*
X177479191Y-71416191D01*
X177347018Y-71614000D01*
X176982982Y-71614000D01*
X176850809Y-71416191D01*
X176789680Y-71375346D01*
X176931327Y-71233698D01*
X177028000Y-71000309D01*
X177028000Y-70659750D01*
X176869250Y-70501000D01*
X175895000Y-70501000D01*
X175895000Y-70521000D01*
X175641000Y-70521000D01*
X175641000Y-70501000D01*
X174666750Y-70501000D01*
X174508000Y-70659750D01*
X174508000Y-71000309D01*
X174604673Y-71233698D01*
X174746320Y-71375346D01*
X174685191Y-71416191D01*
X174553018Y-71614000D01*
X174188982Y-71614000D01*
X174056809Y-71416191D01*
X173995680Y-71375346D01*
X174137327Y-71233698D01*
X174234000Y-71000309D01*
X174234000Y-70659750D01*
X174075250Y-70501000D01*
X173101000Y-70501000D01*
X173101000Y-70521000D01*
X172847000Y-70521000D01*
X172847000Y-70501000D01*
X171872750Y-70501000D01*
X171714000Y-70659750D01*
X171714000Y-71000309D01*
X171810673Y-71233698D01*
X171952320Y-71375346D01*
X171891191Y-71416191D01*
X171856665Y-71467863D01*
X171225401Y-70836599D01*
X170978839Y-70671852D01*
X170853458Y-70646912D01*
X170766079Y-70516141D01*
X170556035Y-70375793D01*
X170308270Y-70326510D01*
X169508170Y-70326510D01*
X169260405Y-70375793D01*
X169050361Y-70516141D01*
X168956730Y-70656269D01*
X168956730Y-70023950D01*
X168907447Y-69776185D01*
X168785714Y-69594000D01*
X171777661Y-69594000D01*
X171714000Y-69747691D01*
X171714000Y-69747691D01*
G37*
X171714000Y-69747691D02*
X171714000Y-70088250D01*
X171872750Y-70247000D01*
X172847000Y-70247000D01*
X172847000Y-70227000D01*
X173101000Y-70227000D01*
X173101000Y-70247000D01*
X174075250Y-70247000D01*
X174234000Y-70088250D01*
X174234000Y-69747691D01*
X174170339Y-69594000D01*
X174571661Y-69594000D01*
X174508000Y-69747691D01*
X174508000Y-70088250D01*
X174666750Y-70247000D01*
X175641000Y-70247000D01*
X175641000Y-70227000D01*
X175895000Y-70227000D01*
X175895000Y-70247000D01*
X176869250Y-70247000D01*
X177028000Y-70088250D01*
X177028000Y-69747691D01*
X176964339Y-69594000D01*
X177365661Y-69594000D01*
X177302000Y-69747691D01*
X177302000Y-70088250D01*
X177460750Y-70247000D01*
X178435000Y-70247000D01*
X178435000Y-70227000D01*
X178689000Y-70227000D01*
X178689000Y-70247000D01*
X179663250Y-70247000D01*
X179822000Y-70088250D01*
X179822000Y-69747691D01*
X179758339Y-69594000D01*
X180159661Y-69594000D01*
X180096000Y-69747691D01*
X180096000Y-70088250D01*
X180254750Y-70247000D01*
X181229000Y-70247000D01*
X181229000Y-70227000D01*
X181483000Y-70227000D01*
X181483000Y-70247000D01*
X182457250Y-70247000D01*
X182616000Y-70088250D01*
X182616000Y-69747691D01*
X182552339Y-69594000D01*
X182565198Y-69594000D01*
X182968360Y-69997162D01*
X182968360Y-71625032D01*
X182930813Y-71681225D01*
X182881530Y-71928990D01*
X182881530Y-72678290D01*
X182930813Y-72926055D01*
X183071161Y-73136099D01*
X183247012Y-73253600D01*
X183071161Y-73371101D01*
X183022745Y-73443560D01*
X182271563Y-73443560D01*
X182438809Y-73331809D01*
X182579157Y-73121765D01*
X182628440Y-72874000D01*
X182628440Y-71874000D01*
X182579157Y-71626235D01*
X182438809Y-71416191D01*
X182377680Y-71375346D01*
X182519327Y-71233698D01*
X182616000Y-71000309D01*
X182616000Y-70659750D01*
X182457250Y-70501000D01*
X181483000Y-70501000D01*
X181483000Y-70521000D01*
X181229000Y-70521000D01*
X181229000Y-70501000D01*
X180254750Y-70501000D01*
X180096000Y-70659750D01*
X180096000Y-71000309D01*
X180192673Y-71233698D01*
X180334320Y-71375346D01*
X180273191Y-71416191D01*
X180141018Y-71614000D01*
X179776982Y-71614000D01*
X179644809Y-71416191D01*
X179583680Y-71375346D01*
X179725327Y-71233698D01*
X179822000Y-71000309D01*
X179822000Y-70659750D01*
X179663250Y-70501000D01*
X178689000Y-70501000D01*
X178689000Y-70521000D01*
X178435000Y-70521000D01*
X178435000Y-70501000D01*
X177460750Y-70501000D01*
X177302000Y-70659750D01*
X177302000Y-71000309D01*
X177398673Y-71233698D01*
X177540320Y-71375346D01*
X177479191Y-71416191D01*
X177347018Y-71614000D01*
X176982982Y-71614000D01*
X176850809Y-71416191D01*
X176789680Y-71375346D01*
X176931327Y-71233698D01*
X177028000Y-71000309D01*
X177028000Y-70659750D01*
X176869250Y-70501000D01*
X175895000Y-70501000D01*
X175895000Y-70521000D01*
X175641000Y-70521000D01*
X175641000Y-70501000D01*
X174666750Y-70501000D01*
X174508000Y-70659750D01*
X174508000Y-71000309D01*
X174604673Y-71233698D01*
X174746320Y-71375346D01*
X174685191Y-71416191D01*
X174553018Y-71614000D01*
X174188982Y-71614000D01*
X174056809Y-71416191D01*
X173995680Y-71375346D01*
X174137327Y-71233698D01*
X174234000Y-71000309D01*
X174234000Y-70659750D01*
X174075250Y-70501000D01*
X173101000Y-70501000D01*
X173101000Y-70521000D01*
X172847000Y-70521000D01*
X172847000Y-70501000D01*
X171872750Y-70501000D01*
X171714000Y-70659750D01*
X171714000Y-71000309D01*
X171810673Y-71233698D01*
X171952320Y-71375346D01*
X171891191Y-71416191D01*
X171856665Y-71467863D01*
X171225401Y-70836599D01*
X170978839Y-70671852D01*
X170853458Y-70646912D01*
X170766079Y-70516141D01*
X170556035Y-70375793D01*
X170308270Y-70326510D01*
X169508170Y-70326510D01*
X169260405Y-70375793D01*
X169050361Y-70516141D01*
X168956730Y-70656269D01*
X168956730Y-70023950D01*
X168907447Y-69776185D01*
X168785714Y-69594000D01*
X171777661Y-69594000D01*
X171714000Y-69747691D01*
M02*
