G04 #@! TF.FileFunction,Copper,L1,Top,Signal*
%FSLAX46Y46*%
G04 Gerber Fmt 4.6, Leading zero omitted, Abs format (unit mm)*
G04 Created by KiCad (PCBNEW 4.0.1+dfsg1-stable) date Thu 10 Mar 2016 03:19:20 PM PST*
%MOMM*%
G01*
G04 APERTURE LIST*
%ADD10C,0.020000*%
%ADD11R,0.700000X1.300000*%
%ADD12R,2.500000X2.500000*%
%ADD13R,0.750000X0.800000*%
%ADD14R,2.032000X2.032000*%
%ADD15O,2.032000X2.032000*%
%ADD16R,1.000000X0.300000*%
%ADD17R,1.016000X0.305000*%
%ADD18R,0.550000X0.300000*%
%ADD19R,2.032000X1.727200*%
%ADD20O,2.032000X1.727200*%
%ADD21R,0.600000X0.400000*%
%ADD22R,0.900000X0.500000*%
%ADD23R,0.800100X0.800100*%
%ADD24R,1.300000X0.700000*%
%ADD25C,0.600000*%
%ADD26C,0.250000*%
%ADD27C,0.254000*%
G04 APERTURE END LIST*
D10*
D11*
X134533600Y-100634800D03*
X136433600Y-100634800D03*
D12*
X137347900Y-96888300D03*
X133847900Y-96888300D03*
D13*
X134518400Y-102704200D03*
X134518400Y-104204200D03*
D14*
X132321300Y-104241600D03*
D15*
X132321300Y-101701600D03*
D16*
X138600200Y-105013400D03*
X138600200Y-104363400D03*
X138600200Y-103713400D03*
X138600200Y-103063400D03*
X144000200Y-105013400D03*
X144000200Y-104363400D03*
X144000200Y-103713400D03*
X144000200Y-103063400D03*
D17*
X147483800Y-95316800D03*
X147483800Y-95816800D03*
X147483800Y-96316800D03*
X147483800Y-96816800D03*
X147483800Y-97316800D03*
X151575800Y-95316800D03*
X151575800Y-95816800D03*
X151575800Y-96316800D03*
X151575800Y-96816800D03*
X151575800Y-97316800D03*
D13*
X138684000Y-101511800D03*
X138684000Y-100011800D03*
X148310600Y-103212200D03*
X148310600Y-104712200D03*
X144754600Y-94296800D03*
X144754600Y-95796800D03*
D18*
X136271000Y-102976800D03*
X136271000Y-103626800D03*
X154838400Y-92273000D03*
X154838400Y-91623000D03*
X154838400Y-94813000D03*
X154838400Y-94163000D03*
X154838400Y-97378400D03*
X154838400Y-96728400D03*
X154838400Y-99918400D03*
X154838400Y-99268400D03*
X154838400Y-102458400D03*
X154838400Y-101808400D03*
X154838400Y-104998400D03*
X154838400Y-104348400D03*
D19*
X157581600Y-92303600D03*
D20*
X157581600Y-94843600D03*
X157581600Y-97383600D03*
X157581600Y-99923600D03*
X157581600Y-102463600D03*
X157581600Y-105003600D03*
X157581600Y-107543600D03*
D21*
X142176500Y-99486300D03*
X142176500Y-100386300D03*
X140487400Y-101516600D03*
X140487400Y-100616600D03*
D22*
X150736300Y-104940800D03*
X150736300Y-103440800D03*
X146253200Y-104356600D03*
X146253200Y-102856600D03*
X144780000Y-97979800D03*
X144780000Y-99479800D03*
X147015200Y-99478400D03*
X147015200Y-100978400D03*
X150622000Y-99453000D03*
X150622000Y-100953000D03*
D23*
X143063000Y-93817440D03*
X141163000Y-93817440D03*
X142113000Y-95816420D03*
D24*
X151739600Y-92390000D03*
X151739600Y-90490000D03*
D11*
X151577000Y-93751400D03*
X153477000Y-93751400D03*
D25*
X134533600Y-100634800D03*
X137160000Y-107696000D03*
X134874000Y-105664000D03*
X142240000Y-107696000D03*
X132080000Y-107696000D03*
X152400000Y-107696000D03*
X147320000Y-107696000D03*
X137922000Y-92710000D03*
X140462000Y-98552000D03*
X133350000Y-91440000D03*
X148844000Y-93726000D03*
X147320000Y-90170000D03*
X142494000Y-90170000D03*
X149860000Y-98298000D03*
X131064000Y-96774000D03*
X151739600Y-90490000D03*
X153477000Y-93751400D03*
X154825700Y-93383100D03*
X156032200Y-98729800D03*
X155981400Y-96240600D03*
X154838400Y-90627200D03*
X154838400Y-103606600D03*
X154838400Y-101231700D03*
X150622000Y-100953000D03*
X137287000Y-101625400D03*
X137287000Y-105105200D03*
X147383500Y-103720900D03*
X144868900Y-103695500D03*
X151577000Y-93751400D03*
X153822400Y-99923600D03*
X153898600Y-96469200D03*
X144678400Y-102311200D03*
X153085800Y-102539800D03*
X152146000Y-101650800D03*
X152781000Y-95453200D03*
X143954500Y-106045000D03*
X143967200Y-100380800D03*
X143256000Y-101892100D03*
X143281400Y-99758500D03*
X152882600Y-99491800D03*
X153822400Y-95478600D03*
X151739600Y-92390000D03*
X142201900Y-92341700D03*
X142189200Y-97086000D03*
X136347200Y-104495600D03*
X136372600Y-99136200D03*
D26*
X134518400Y-101701600D02*
X134533600Y-101686400D01*
X134533600Y-100634800D02*
X134533600Y-101686400D01*
X134518400Y-102704200D02*
X135998400Y-102704200D01*
X135998400Y-102704200D02*
X136357600Y-103063400D01*
X136357600Y-103063400D02*
X138600200Y-103063400D01*
X132321300Y-101701600D02*
X134518400Y-101701600D01*
X134518400Y-101701600D02*
X134518400Y-102704200D01*
X133847900Y-96888300D02*
X133847900Y-99367400D01*
X132321300Y-99441000D02*
X132321300Y-101701600D01*
X132359400Y-99402900D02*
X132321300Y-99441000D01*
X133812400Y-99402900D02*
X132359400Y-99402900D01*
X133847900Y-99367400D02*
X133812400Y-99402900D01*
X132321300Y-101701600D02*
X132334000Y-101688900D01*
X138600200Y-103713400D02*
X140289400Y-103713400D01*
X140462000Y-103886000D02*
X140716000Y-103886000D01*
X140289400Y-103713400D02*
X140462000Y-103886000D01*
X132321300Y-104241600D02*
X134481000Y-104241600D01*
X134481000Y-104241600D02*
X134518400Y-104204200D01*
X134518400Y-104204200D02*
X135317800Y-104204200D01*
X135317800Y-104204200D02*
X135895200Y-103626800D01*
X135895200Y-103626800D02*
X138513600Y-103626800D01*
X138513600Y-103626800D02*
X138600200Y-103713400D01*
X136433600Y-100634800D02*
X136855200Y-100634800D01*
X137478200Y-100011800D02*
X138684000Y-100011800D01*
X136855200Y-100634800D02*
X137478200Y-100011800D01*
X136433600Y-100634800D02*
X136601200Y-100634800D01*
X136601200Y-100634800D02*
X137224200Y-100011800D01*
X137224200Y-100011800D02*
X138684000Y-100011800D01*
X138684000Y-100011800D02*
X138684000Y-99060000D01*
X138684000Y-99060000D02*
X139192000Y-98552000D01*
X139192000Y-98552000D02*
X140462000Y-98552000D01*
X154457400Y-93751400D02*
X154825700Y-93383100D01*
X154838400Y-94163000D02*
X154838400Y-93395800D01*
X154838400Y-93395800D02*
X154825700Y-93383100D01*
X153477000Y-93751400D02*
X154457400Y-93751400D01*
X154838400Y-99268400D02*
X155722200Y-99268400D01*
X156032200Y-98958400D02*
X156032200Y-98729800D01*
X155722200Y-99268400D02*
X156032200Y-98958400D01*
X154838400Y-96728400D02*
X155493600Y-96728400D01*
X155493600Y-96728400D02*
X155981400Y-96240600D01*
X138635200Y-103728400D02*
X138637700Y-103725900D01*
X154838400Y-91623000D02*
X154838400Y-90627200D01*
X154838400Y-104348400D02*
X154838400Y-103606600D01*
X154838400Y-101808400D02*
X154838400Y-101231700D01*
X147015200Y-100978400D02*
X148298600Y-100978400D01*
X148336000Y-100941000D02*
X148336000Y-98412300D01*
X148298600Y-100978400D02*
X148336000Y-100941000D01*
X147483800Y-98360200D02*
X147483800Y-97316800D01*
X147523200Y-98399600D02*
X147483800Y-98360200D01*
X148323300Y-98399600D02*
X147523200Y-98399600D01*
X148336000Y-98412300D02*
X148323300Y-98399600D01*
X138637700Y-105000900D02*
X137391300Y-105000900D01*
X137400600Y-101511800D02*
X138684000Y-101511800D01*
X137287000Y-101625400D02*
X137400600Y-101511800D01*
X137391300Y-105000900D02*
X137287000Y-105105200D01*
X138684000Y-101511800D02*
X140482600Y-101511800D01*
X140482600Y-101511800D02*
X140487400Y-101516600D01*
X142227300Y-101053900D02*
X145834100Y-101053900D01*
X142227300Y-101509400D02*
X142227300Y-101053900D01*
X142220100Y-101516600D02*
X142227300Y-101509400D01*
X138650200Y-101545600D02*
X138684000Y-101511800D01*
X150736300Y-101790500D02*
X150736300Y-103440800D01*
X150723600Y-101777800D02*
X150736300Y-101790500D01*
X145821400Y-101777800D02*
X150723600Y-101777800D01*
X145808700Y-101765100D02*
X145821400Y-101777800D01*
X145808700Y-101079300D02*
X145808700Y-101765100D01*
X145834100Y-101053900D02*
X145808700Y-101079300D01*
X138672000Y-101523800D02*
X138679200Y-101516600D01*
X140487400Y-101516600D02*
X142220100Y-101516600D01*
X140487400Y-101516600D02*
X140494600Y-101523800D01*
X147371500Y-103212200D02*
X148310600Y-103212200D01*
X147345400Y-103238300D02*
X147371500Y-103212200D01*
X147345400Y-103682800D02*
X147345400Y-103238300D01*
X147383500Y-103720900D02*
X147345400Y-103682800D01*
X148310600Y-103212200D02*
X149465600Y-103212200D01*
X149467000Y-104940800D02*
X150736300Y-104940800D01*
X149466300Y-104940100D02*
X149467000Y-104940800D01*
X149466300Y-103212900D02*
X149466300Y-104940100D01*
X149465600Y-103212200D02*
X149466300Y-103212900D01*
X143950200Y-103713400D02*
X144851000Y-103713400D01*
X144851000Y-103713400D02*
X144868900Y-103695500D01*
X143950200Y-104363400D02*
X146246400Y-104363400D01*
X146246400Y-104363400D02*
X146251600Y-104368600D01*
X146251600Y-104368600D02*
X147370800Y-104368600D01*
X147370800Y-104368600D02*
X147358100Y-104381300D01*
X147358100Y-104381300D02*
X147358100Y-104711500D01*
X147358100Y-104711500D02*
X147358800Y-104712200D01*
X147358800Y-104712200D02*
X148310600Y-104712200D01*
X141163000Y-93817440D02*
X143063000Y-93817440D01*
X143063000Y-93817440D02*
X143123960Y-93878400D01*
X143123960Y-93878400D02*
X144336200Y-93878400D01*
X144336200Y-93878400D02*
X144754600Y-94296800D01*
X146370800Y-95316800D02*
X147483800Y-95316800D01*
X147483800Y-95316800D02*
X146370800Y-95316800D01*
X144754600Y-94296800D02*
X146342800Y-94296800D01*
X146342800Y-94296800D02*
X146354800Y-94308800D01*
X146354800Y-94308800D02*
X146354800Y-95300800D01*
X146354800Y-95300800D02*
X146370800Y-95316800D01*
X146354800Y-94284800D02*
X146342800Y-94296800D01*
X146354800Y-95300800D02*
X146354800Y-94284800D01*
X146370800Y-95316800D02*
X146354800Y-95300800D01*
X142113000Y-95816420D02*
X144734980Y-95816420D01*
X144734980Y-95816420D02*
X144754600Y-95796800D01*
X147483800Y-95816800D02*
X144774600Y-95816800D01*
X144774600Y-95816800D02*
X144774220Y-95816420D01*
X151575800Y-93752600D02*
X151577000Y-93751400D01*
X151575800Y-95316800D02*
X151575800Y-93752600D01*
X151575800Y-95316800D02*
X151926800Y-95316800D01*
X151926800Y-95316800D02*
X152430600Y-94813000D01*
X152430600Y-94813000D02*
X154838400Y-94813000D01*
X151577000Y-95315600D02*
X151575800Y-95316800D01*
X157581600Y-94843600D02*
X154869000Y-94843600D01*
X154869000Y-94843600D02*
X154838400Y-94813000D01*
X151575800Y-97316800D02*
X154776800Y-97316800D01*
X154776800Y-97316800D02*
X154838400Y-97378400D01*
X151587200Y-97328200D02*
X151575800Y-97316800D01*
X157581600Y-97383600D02*
X154843600Y-97383600D01*
X154843600Y-97383600D02*
X154838400Y-97378400D01*
X151575800Y-96816800D02*
X153551000Y-96816800D01*
X153827600Y-99918400D02*
X154838400Y-99918400D01*
X153822400Y-99923600D02*
X153827600Y-99918400D01*
X153551000Y-96816800D02*
X153898600Y-96469200D01*
X157581600Y-99923600D02*
X154843600Y-99923600D01*
X154843600Y-99923600D02*
X154838400Y-99918400D01*
X143937700Y-103100900D02*
X143937700Y-103051900D01*
X143937700Y-103051900D02*
X144678400Y-102311200D01*
X153085800Y-102539800D02*
X153167200Y-102458400D01*
X153167200Y-102458400D02*
X154838400Y-102458400D01*
X157581600Y-102463600D02*
X154843600Y-102463600D01*
X154843600Y-102463600D02*
X154838400Y-102458400D01*
X151575800Y-95816800D02*
X152417400Y-95816800D01*
X153868000Y-104998400D02*
X154838400Y-104998400D01*
X152171400Y-103301800D02*
X153868000Y-104998400D01*
X152171400Y-101676200D02*
X152171400Y-103301800D01*
X152146000Y-101650800D02*
X152171400Y-101676200D01*
X152417400Y-95816800D02*
X152781000Y-95453200D01*
X157581600Y-105003600D02*
X154843600Y-105003600D01*
X154843600Y-105003600D02*
X154838400Y-104998400D01*
X143950200Y-106040700D02*
X143950200Y-104988400D01*
X143954500Y-106045000D02*
X143950200Y-106040700D01*
X144780000Y-99479800D02*
X144780000Y-100330000D01*
X144729200Y-100380800D02*
X143967200Y-100380800D01*
X144780000Y-100330000D02*
X144729200Y-100380800D01*
X147015200Y-99478400D02*
X144781400Y-99478400D01*
X144781400Y-99478400D02*
X144780000Y-99479800D01*
X147483800Y-96816800D02*
X146533402Y-96816800D01*
X146532600Y-96817602D02*
X146532600Y-97942400D01*
X146533402Y-96816800D02*
X146532600Y-96817602D01*
X142176500Y-100386300D02*
X143250500Y-100386300D01*
X143281400Y-100355400D02*
X143281400Y-99758500D01*
X143250500Y-100386300D02*
X143281400Y-100355400D01*
X140487400Y-100616600D02*
X141946200Y-100616600D01*
X141946200Y-100616600D02*
X142176500Y-100386300D01*
X146253200Y-102856600D02*
X146253200Y-102298500D01*
X146253200Y-102298500D02*
X146240500Y-102311200D01*
X146240500Y-102311200D02*
X145300700Y-102311200D01*
X145300700Y-102311200D02*
X145313400Y-102298500D01*
X145313400Y-102298500D02*
X145313400Y-101650800D01*
X145313400Y-101650800D02*
X145300700Y-101663500D01*
X145300700Y-101663500D02*
X143256000Y-101663500D01*
X143256000Y-101663500D02*
X143256000Y-101892100D01*
X143434500Y-97979800D02*
X144780000Y-97979800D01*
X143281400Y-99758500D02*
X143294100Y-99745800D01*
X143294100Y-99745800D02*
X143294100Y-98120200D01*
X143294100Y-98120200D02*
X143434500Y-97979800D01*
X146495200Y-97979800D02*
X144780000Y-97979800D01*
X146532600Y-97942400D02*
X146495200Y-97979800D01*
X151575800Y-96316800D02*
X152984200Y-96316800D01*
X152843800Y-99453000D02*
X150622000Y-99453000D01*
X152882600Y-99491800D02*
X152843800Y-99453000D01*
X152984200Y-96316800D02*
X153822400Y-95478600D01*
X154838400Y-92273000D02*
X151856600Y-92273000D01*
X151856600Y-92273000D02*
X151787900Y-92341700D01*
X151787900Y-92341700D02*
X142201900Y-92341700D01*
X157581600Y-92303600D02*
X154869000Y-92303600D01*
X154869000Y-92303600D02*
X154818200Y-92252800D01*
X142176500Y-99486300D02*
X142176500Y-97098700D01*
X142176500Y-97098700D02*
X142189200Y-97086000D01*
X147483800Y-96316800D02*
X146075400Y-96316800D01*
X146068200Y-97086000D02*
X142189200Y-97086000D01*
X146075400Y-97078800D02*
X146068200Y-97086000D01*
X146075400Y-96316800D02*
X146075400Y-97078800D01*
X138600200Y-104363400D02*
X136479400Y-104363400D01*
X136479400Y-104363400D02*
X136347200Y-104495600D01*
X136372600Y-99136200D02*
X137347900Y-98160900D01*
X137347900Y-98160900D02*
X137347900Y-96888300D01*
X137347900Y-97754500D02*
X137347900Y-96888300D01*
X138594200Y-104419400D02*
X138637700Y-104375900D01*
D27*
G36*
X160072000Y-109526000D02*
X130504000Y-109526000D01*
X130504000Y-107902626D01*
X155974242Y-107902626D01*
X155976891Y-107918391D01*
X156230868Y-108445636D01*
X156667280Y-108835554D01*
X157219687Y-109028784D01*
X157454600Y-108884524D01*
X157454600Y-107670600D01*
X157708600Y-107670600D01*
X157708600Y-108884524D01*
X157943513Y-109028784D01*
X158495920Y-108835554D01*
X158932332Y-108445636D01*
X159186309Y-107918391D01*
X159188958Y-107902626D01*
X159067817Y-107670600D01*
X157708600Y-107670600D01*
X157454600Y-107670600D01*
X156095383Y-107670600D01*
X155974242Y-107902626D01*
X130504000Y-107902626D01*
X130504000Y-104527350D01*
X130670300Y-104527350D01*
X130670300Y-105383910D01*
X130766973Y-105617299D01*
X130945602Y-105795927D01*
X131178991Y-105892600D01*
X132035550Y-105892600D01*
X132194300Y-105733850D01*
X132194300Y-104368600D01*
X132448300Y-104368600D01*
X132448300Y-105733850D01*
X132607050Y-105892600D01*
X133463609Y-105892600D01*
X133696998Y-105795927D01*
X133875627Y-105617299D01*
X133972300Y-105383910D01*
X133972300Y-105220647D01*
X134017090Y-105239200D01*
X134232650Y-105239200D01*
X134391400Y-105080450D01*
X134391400Y-104331200D01*
X133667150Y-104331200D01*
X133629750Y-104368600D01*
X132448300Y-104368600D01*
X132194300Y-104368600D01*
X130829050Y-104368600D01*
X130670300Y-104527350D01*
X130504000Y-104527350D01*
X130504000Y-101701600D01*
X130637955Y-101701600D01*
X130763630Y-102333410D01*
X130988266Y-102669601D01*
X130945602Y-102687273D01*
X130766973Y-102865901D01*
X130670300Y-103099290D01*
X130670300Y-103955850D01*
X130829050Y-104114600D01*
X132194300Y-104114600D01*
X132194300Y-104094600D01*
X132448300Y-104094600D01*
X132448300Y-104114600D01*
X133813550Y-104114600D01*
X133850950Y-104077200D01*
X134391400Y-104077200D01*
X134391400Y-104057200D01*
X134645400Y-104057200D01*
X134645400Y-104077200D01*
X134665400Y-104077200D01*
X134665400Y-104331200D01*
X134645400Y-104331200D01*
X134645400Y-105080450D01*
X134804150Y-105239200D01*
X135019710Y-105239200D01*
X135253099Y-105142527D01*
X135431727Y-104963898D01*
X135480436Y-104846304D01*
X135554083Y-105024543D01*
X135816873Y-105287792D01*
X136160401Y-105430438D01*
X136409804Y-105430655D01*
X136493883Y-105634143D01*
X136756673Y-105897392D01*
X137100201Y-106040038D01*
X137472167Y-106040362D01*
X137815943Y-105898317D01*
X137936733Y-105777737D01*
X138100200Y-105810840D01*
X139100200Y-105810840D01*
X139335517Y-105766562D01*
X139551641Y-105627490D01*
X139696631Y-105415290D01*
X139747640Y-105163400D01*
X139747640Y-104863400D01*
X139713503Y-104681976D01*
X139747640Y-104513400D01*
X139747640Y-104213400D01*
X139714811Y-104038931D01*
X139735200Y-103989709D01*
X139735200Y-103947150D01*
X139590066Y-103802016D01*
X139564290Y-103761959D01*
X139494489Y-103714266D01*
X139551641Y-103677490D01*
X139582449Y-103632401D01*
X139735200Y-103479650D01*
X139735200Y-103437091D01*
X139713131Y-103383811D01*
X139747640Y-103213400D01*
X139747640Y-102913400D01*
X139703362Y-102678083D01*
X139564290Y-102461959D01*
X139473301Y-102399789D01*
X139510441Y-102375890D01*
X139581563Y-102271800D01*
X139875166Y-102271800D01*
X139935510Y-102313031D01*
X140187400Y-102364040D01*
X140787400Y-102364040D01*
X141022717Y-102319762D01*
X141089793Y-102276600D01*
X142220100Y-102276600D01*
X142389295Y-102242945D01*
X142462883Y-102421043D01*
X142725673Y-102684292D01*
X142885699Y-102750741D01*
X142852760Y-102913400D01*
X142852760Y-103213400D01*
X142886897Y-103394824D01*
X142852760Y-103563400D01*
X142852760Y-103863400D01*
X142886897Y-104044824D01*
X142852760Y-104213400D01*
X142852760Y-104513400D01*
X142886897Y-104694824D01*
X142852760Y-104863400D01*
X142852760Y-105163400D01*
X142897038Y-105398717D01*
X143036110Y-105614841D01*
X143102016Y-105659872D01*
X143019662Y-105858201D01*
X143019338Y-106230167D01*
X143161383Y-106573943D01*
X143424173Y-106837192D01*
X143767701Y-106979838D01*
X144139667Y-106980162D01*
X144483443Y-106838117D01*
X144746692Y-106575327D01*
X144889338Y-106231799D01*
X144889662Y-105859833D01*
X144826842Y-105707796D01*
X144951641Y-105627490D01*
X145096631Y-105415290D01*
X145147640Y-105163400D01*
X145147640Y-105123400D01*
X145434766Y-105123400D01*
X145551310Y-105203031D01*
X145803200Y-105254040D01*
X146703200Y-105254040D01*
X146810626Y-105233826D01*
X146820699Y-105248901D01*
X146821399Y-105249601D01*
X147067961Y-105414348D01*
X147358800Y-105472200D01*
X147412669Y-105472200D01*
X147471510Y-105563641D01*
X147683710Y-105708631D01*
X147935600Y-105759640D01*
X148685600Y-105759640D01*
X148920917Y-105715362D01*
X149106150Y-105596168D01*
X149176161Y-105642948D01*
X149467000Y-105700800D01*
X149907914Y-105700800D01*
X150034410Y-105787231D01*
X150286300Y-105838240D01*
X151186300Y-105838240D01*
X151421617Y-105793962D01*
X151637741Y-105654890D01*
X151782731Y-105442690D01*
X151833740Y-105190800D01*
X151833740Y-104690800D01*
X151789462Y-104455483D01*
X151650390Y-104239359D01*
X151580589Y-104191666D01*
X151637741Y-104154890D01*
X151764366Y-103969568D01*
X153330599Y-105535801D01*
X153577161Y-105700548D01*
X153868000Y-105758400D01*
X154378516Y-105758400D01*
X154563400Y-105795840D01*
X155113400Y-105795840D01*
X155284741Y-105763600D01*
X156136952Y-105763600D01*
X156337185Y-106063270D01*
X156646669Y-106270061D01*
X156230868Y-106641564D01*
X155976891Y-107168809D01*
X155974242Y-107184574D01*
X156095383Y-107416600D01*
X157454600Y-107416600D01*
X157454600Y-107396600D01*
X157708600Y-107396600D01*
X157708600Y-107416600D01*
X159067817Y-107416600D01*
X159188958Y-107184574D01*
X159186309Y-107168809D01*
X158932332Y-106641564D01*
X158516531Y-106270061D01*
X158826015Y-106063270D01*
X159150871Y-105577089D01*
X159264945Y-105003600D01*
X159150871Y-104430111D01*
X158826015Y-103943930D01*
X158511234Y-103733600D01*
X158826015Y-103523270D01*
X159150871Y-103037089D01*
X159264945Y-102463600D01*
X159150871Y-101890111D01*
X158826015Y-101403930D01*
X158511234Y-101193600D01*
X158826015Y-100983270D01*
X159150871Y-100497089D01*
X159264945Y-99923600D01*
X159150871Y-99350111D01*
X158826015Y-98863930D01*
X158511234Y-98653600D01*
X158826015Y-98443270D01*
X159150871Y-97957089D01*
X159264945Y-97383600D01*
X159150871Y-96810111D01*
X158826015Y-96323930D01*
X158511234Y-96113600D01*
X158826015Y-95903270D01*
X159150871Y-95417089D01*
X159264945Y-94843600D01*
X159150871Y-94270111D01*
X158826015Y-93783930D01*
X158811687Y-93774357D01*
X158832917Y-93770362D01*
X159049041Y-93631290D01*
X159194031Y-93419090D01*
X159245040Y-93167200D01*
X159245040Y-91440000D01*
X159200762Y-91204683D01*
X159061690Y-90988559D01*
X158849490Y-90843569D01*
X158597600Y-90792560D01*
X156565600Y-90792560D01*
X156330283Y-90836838D01*
X156114159Y-90975910D01*
X155969169Y-91188110D01*
X155918160Y-91440000D01*
X155918160Y-91543600D01*
X155748400Y-91543600D01*
X155748400Y-91495998D01*
X155641652Y-91495998D01*
X155748400Y-91389250D01*
X155748400Y-91346690D01*
X155651727Y-91113301D01*
X155473098Y-90934673D01*
X155239709Y-90838000D01*
X155124150Y-90838000D01*
X154965400Y-90996750D01*
X154965400Y-91475560D01*
X154711400Y-91475560D01*
X154711400Y-90996750D01*
X154552650Y-90838000D01*
X154437091Y-90838000D01*
X154203702Y-90934673D01*
X154025073Y-91113301D01*
X153928400Y-91346690D01*
X153928400Y-91389250D01*
X154035148Y-91495998D01*
X153928400Y-91495998D01*
X153928400Y-91513000D01*
X152743106Y-91513000D01*
X152641490Y-91443569D01*
X152608110Y-91436809D01*
X152749299Y-91378327D01*
X152927927Y-91199698D01*
X153024600Y-90966309D01*
X153024600Y-90775750D01*
X152865850Y-90617000D01*
X151866600Y-90617000D01*
X151866600Y-90637000D01*
X151612600Y-90637000D01*
X151612600Y-90617000D01*
X150613350Y-90617000D01*
X150454600Y-90775750D01*
X150454600Y-90966309D01*
X150551273Y-91199698D01*
X150729901Y-91378327D01*
X150865887Y-91434654D01*
X150854283Y-91436838D01*
X150638159Y-91575910D01*
X150634203Y-91581700D01*
X142764363Y-91581700D01*
X142732227Y-91549508D01*
X142388699Y-91406862D01*
X142016733Y-91406538D01*
X141672957Y-91548583D01*
X141409708Y-91811373D01*
X141267062Y-92154901D01*
X141266738Y-92526867D01*
X141367178Y-92769950D01*
X140762950Y-92769950D01*
X140527633Y-92814228D01*
X140311509Y-92953300D01*
X140166519Y-93165500D01*
X140115510Y-93417390D01*
X140115510Y-94217490D01*
X140159788Y-94452807D01*
X140298860Y-94668931D01*
X140511060Y-94813921D01*
X140762950Y-94864930D01*
X141397255Y-94864930D01*
X141261509Y-94952280D01*
X141116519Y-95164480D01*
X141065510Y-95416370D01*
X141065510Y-96216470D01*
X141109788Y-96451787D01*
X141248860Y-96667911D01*
X141327960Y-96721958D01*
X141254362Y-96899201D01*
X141254038Y-97271167D01*
X141396083Y-97614943D01*
X141416500Y-97635396D01*
X141416500Y-98834737D01*
X141280069Y-99034410D01*
X141229060Y-99286300D01*
X141229060Y-99686300D01*
X141261104Y-99856600D01*
X141092609Y-99856600D01*
X141039290Y-99820169D01*
X140787400Y-99769160D01*
X140187400Y-99769160D01*
X139952083Y-99813438D01*
X139735959Y-99952510D01*
X139590969Y-100164710D01*
X139585949Y-100189499D01*
X139535250Y-100138800D01*
X138811000Y-100138800D01*
X138811000Y-100158800D01*
X138557000Y-100158800D01*
X138557000Y-100138800D01*
X137832750Y-100138800D01*
X137674000Y-100297550D01*
X137674000Y-100538109D01*
X137762514Y-100751800D01*
X137621276Y-100751800D01*
X137473799Y-100690562D01*
X137101833Y-100690238D01*
X136928639Y-100761800D01*
X136560600Y-100761800D01*
X136560600Y-100781800D01*
X136306600Y-100781800D01*
X136306600Y-100761800D01*
X136286600Y-100761800D01*
X136286600Y-100507800D01*
X136306600Y-100507800D01*
X136306600Y-100487800D01*
X136560600Y-100487800D01*
X136560600Y-100507800D01*
X137259850Y-100507800D01*
X137418600Y-100349050D01*
X137418600Y-99858490D01*
X137321927Y-99625101D01*
X137223051Y-99526225D01*
X137239965Y-99485491D01*
X137674000Y-99485491D01*
X137674000Y-99726050D01*
X137832750Y-99884800D01*
X138557000Y-99884800D01*
X138557000Y-99135550D01*
X138811000Y-99135550D01*
X138811000Y-99884800D01*
X139535250Y-99884800D01*
X139694000Y-99726050D01*
X139694000Y-99485491D01*
X139597327Y-99252102D01*
X139418699Y-99073473D01*
X139185310Y-98976800D01*
X138969750Y-98976800D01*
X138811000Y-99135550D01*
X138557000Y-99135550D01*
X138398250Y-98976800D01*
X138182690Y-98976800D01*
X137949301Y-99073473D01*
X137770673Y-99252102D01*
X137674000Y-99485491D01*
X137239965Y-99485491D01*
X137307438Y-99322999D01*
X137307479Y-99276123D01*
X137797862Y-98785740D01*
X138597900Y-98785740D01*
X138833217Y-98741462D01*
X139049341Y-98602390D01*
X139194331Y-98390190D01*
X139245340Y-98138300D01*
X139245340Y-95638300D01*
X139201062Y-95402983D01*
X139061990Y-95186859D01*
X138849790Y-95041869D01*
X138597900Y-94990860D01*
X136097900Y-94990860D01*
X135862583Y-95035138D01*
X135646459Y-95174210D01*
X135598766Y-95244011D01*
X135561990Y-95186859D01*
X135349790Y-95041869D01*
X135097900Y-94990860D01*
X132597900Y-94990860D01*
X132362583Y-95035138D01*
X132146459Y-95174210D01*
X132001469Y-95386410D01*
X131950460Y-95638300D01*
X131950460Y-98138300D01*
X131994738Y-98373617D01*
X132133810Y-98589741D01*
X132244934Y-98665669D01*
X132068561Y-98700752D01*
X131821999Y-98865499D01*
X131783899Y-98903599D01*
X131619152Y-99150161D01*
X131561300Y-99441000D01*
X131561300Y-100240317D01*
X131121522Y-100534167D01*
X130763630Y-101069790D01*
X130637955Y-101701600D01*
X130504000Y-101701600D01*
X130504000Y-90013691D01*
X150454600Y-90013691D01*
X150454600Y-90204250D01*
X150613350Y-90363000D01*
X151612600Y-90363000D01*
X151612600Y-89663750D01*
X151866600Y-89663750D01*
X151866600Y-90363000D01*
X152865850Y-90363000D01*
X153024600Y-90204250D01*
X153024600Y-90013691D01*
X152927927Y-89780302D01*
X152749299Y-89601673D01*
X152515910Y-89505000D01*
X152025350Y-89505000D01*
X151866600Y-89663750D01*
X151612600Y-89663750D01*
X151453850Y-89505000D01*
X150963290Y-89505000D01*
X150729901Y-89601673D01*
X150551273Y-89780302D01*
X150454600Y-90013691D01*
X130504000Y-90013691D01*
X130504000Y-88086000D01*
X160072000Y-88086000D01*
X160072000Y-109526000D01*
X160072000Y-109526000D01*
G37*
X160072000Y-109526000D02*
X130504000Y-109526000D01*
X130504000Y-107902626D01*
X155974242Y-107902626D01*
X155976891Y-107918391D01*
X156230868Y-108445636D01*
X156667280Y-108835554D01*
X157219687Y-109028784D01*
X157454600Y-108884524D01*
X157454600Y-107670600D01*
X157708600Y-107670600D01*
X157708600Y-108884524D01*
X157943513Y-109028784D01*
X158495920Y-108835554D01*
X158932332Y-108445636D01*
X159186309Y-107918391D01*
X159188958Y-107902626D01*
X159067817Y-107670600D01*
X157708600Y-107670600D01*
X157454600Y-107670600D01*
X156095383Y-107670600D01*
X155974242Y-107902626D01*
X130504000Y-107902626D01*
X130504000Y-104527350D01*
X130670300Y-104527350D01*
X130670300Y-105383910D01*
X130766973Y-105617299D01*
X130945602Y-105795927D01*
X131178991Y-105892600D01*
X132035550Y-105892600D01*
X132194300Y-105733850D01*
X132194300Y-104368600D01*
X132448300Y-104368600D01*
X132448300Y-105733850D01*
X132607050Y-105892600D01*
X133463609Y-105892600D01*
X133696998Y-105795927D01*
X133875627Y-105617299D01*
X133972300Y-105383910D01*
X133972300Y-105220647D01*
X134017090Y-105239200D01*
X134232650Y-105239200D01*
X134391400Y-105080450D01*
X134391400Y-104331200D01*
X133667150Y-104331200D01*
X133629750Y-104368600D01*
X132448300Y-104368600D01*
X132194300Y-104368600D01*
X130829050Y-104368600D01*
X130670300Y-104527350D01*
X130504000Y-104527350D01*
X130504000Y-101701600D01*
X130637955Y-101701600D01*
X130763630Y-102333410D01*
X130988266Y-102669601D01*
X130945602Y-102687273D01*
X130766973Y-102865901D01*
X130670300Y-103099290D01*
X130670300Y-103955850D01*
X130829050Y-104114600D01*
X132194300Y-104114600D01*
X132194300Y-104094600D01*
X132448300Y-104094600D01*
X132448300Y-104114600D01*
X133813550Y-104114600D01*
X133850950Y-104077200D01*
X134391400Y-104077200D01*
X134391400Y-104057200D01*
X134645400Y-104057200D01*
X134645400Y-104077200D01*
X134665400Y-104077200D01*
X134665400Y-104331200D01*
X134645400Y-104331200D01*
X134645400Y-105080450D01*
X134804150Y-105239200D01*
X135019710Y-105239200D01*
X135253099Y-105142527D01*
X135431727Y-104963898D01*
X135480436Y-104846304D01*
X135554083Y-105024543D01*
X135816873Y-105287792D01*
X136160401Y-105430438D01*
X136409804Y-105430655D01*
X136493883Y-105634143D01*
X136756673Y-105897392D01*
X137100201Y-106040038D01*
X137472167Y-106040362D01*
X137815943Y-105898317D01*
X137936733Y-105777737D01*
X138100200Y-105810840D01*
X139100200Y-105810840D01*
X139335517Y-105766562D01*
X139551641Y-105627490D01*
X139696631Y-105415290D01*
X139747640Y-105163400D01*
X139747640Y-104863400D01*
X139713503Y-104681976D01*
X139747640Y-104513400D01*
X139747640Y-104213400D01*
X139714811Y-104038931D01*
X139735200Y-103989709D01*
X139735200Y-103947150D01*
X139590066Y-103802016D01*
X139564290Y-103761959D01*
X139494489Y-103714266D01*
X139551641Y-103677490D01*
X139582449Y-103632401D01*
X139735200Y-103479650D01*
X139735200Y-103437091D01*
X139713131Y-103383811D01*
X139747640Y-103213400D01*
X139747640Y-102913400D01*
X139703362Y-102678083D01*
X139564290Y-102461959D01*
X139473301Y-102399789D01*
X139510441Y-102375890D01*
X139581563Y-102271800D01*
X139875166Y-102271800D01*
X139935510Y-102313031D01*
X140187400Y-102364040D01*
X140787400Y-102364040D01*
X141022717Y-102319762D01*
X141089793Y-102276600D01*
X142220100Y-102276600D01*
X142389295Y-102242945D01*
X142462883Y-102421043D01*
X142725673Y-102684292D01*
X142885699Y-102750741D01*
X142852760Y-102913400D01*
X142852760Y-103213400D01*
X142886897Y-103394824D01*
X142852760Y-103563400D01*
X142852760Y-103863400D01*
X142886897Y-104044824D01*
X142852760Y-104213400D01*
X142852760Y-104513400D01*
X142886897Y-104694824D01*
X142852760Y-104863400D01*
X142852760Y-105163400D01*
X142897038Y-105398717D01*
X143036110Y-105614841D01*
X143102016Y-105659872D01*
X143019662Y-105858201D01*
X143019338Y-106230167D01*
X143161383Y-106573943D01*
X143424173Y-106837192D01*
X143767701Y-106979838D01*
X144139667Y-106980162D01*
X144483443Y-106838117D01*
X144746692Y-106575327D01*
X144889338Y-106231799D01*
X144889662Y-105859833D01*
X144826842Y-105707796D01*
X144951641Y-105627490D01*
X145096631Y-105415290D01*
X145147640Y-105163400D01*
X145147640Y-105123400D01*
X145434766Y-105123400D01*
X145551310Y-105203031D01*
X145803200Y-105254040D01*
X146703200Y-105254040D01*
X146810626Y-105233826D01*
X146820699Y-105248901D01*
X146821399Y-105249601D01*
X147067961Y-105414348D01*
X147358800Y-105472200D01*
X147412669Y-105472200D01*
X147471510Y-105563641D01*
X147683710Y-105708631D01*
X147935600Y-105759640D01*
X148685600Y-105759640D01*
X148920917Y-105715362D01*
X149106150Y-105596168D01*
X149176161Y-105642948D01*
X149467000Y-105700800D01*
X149907914Y-105700800D01*
X150034410Y-105787231D01*
X150286300Y-105838240D01*
X151186300Y-105838240D01*
X151421617Y-105793962D01*
X151637741Y-105654890D01*
X151782731Y-105442690D01*
X151833740Y-105190800D01*
X151833740Y-104690800D01*
X151789462Y-104455483D01*
X151650390Y-104239359D01*
X151580589Y-104191666D01*
X151637741Y-104154890D01*
X151764366Y-103969568D01*
X153330599Y-105535801D01*
X153577161Y-105700548D01*
X153868000Y-105758400D01*
X154378516Y-105758400D01*
X154563400Y-105795840D01*
X155113400Y-105795840D01*
X155284741Y-105763600D01*
X156136952Y-105763600D01*
X156337185Y-106063270D01*
X156646669Y-106270061D01*
X156230868Y-106641564D01*
X155976891Y-107168809D01*
X155974242Y-107184574D01*
X156095383Y-107416600D01*
X157454600Y-107416600D01*
X157454600Y-107396600D01*
X157708600Y-107396600D01*
X157708600Y-107416600D01*
X159067817Y-107416600D01*
X159188958Y-107184574D01*
X159186309Y-107168809D01*
X158932332Y-106641564D01*
X158516531Y-106270061D01*
X158826015Y-106063270D01*
X159150871Y-105577089D01*
X159264945Y-105003600D01*
X159150871Y-104430111D01*
X158826015Y-103943930D01*
X158511234Y-103733600D01*
X158826015Y-103523270D01*
X159150871Y-103037089D01*
X159264945Y-102463600D01*
X159150871Y-101890111D01*
X158826015Y-101403930D01*
X158511234Y-101193600D01*
X158826015Y-100983270D01*
X159150871Y-100497089D01*
X159264945Y-99923600D01*
X159150871Y-99350111D01*
X158826015Y-98863930D01*
X158511234Y-98653600D01*
X158826015Y-98443270D01*
X159150871Y-97957089D01*
X159264945Y-97383600D01*
X159150871Y-96810111D01*
X158826015Y-96323930D01*
X158511234Y-96113600D01*
X158826015Y-95903270D01*
X159150871Y-95417089D01*
X159264945Y-94843600D01*
X159150871Y-94270111D01*
X158826015Y-93783930D01*
X158811687Y-93774357D01*
X158832917Y-93770362D01*
X159049041Y-93631290D01*
X159194031Y-93419090D01*
X159245040Y-93167200D01*
X159245040Y-91440000D01*
X159200762Y-91204683D01*
X159061690Y-90988559D01*
X158849490Y-90843569D01*
X158597600Y-90792560D01*
X156565600Y-90792560D01*
X156330283Y-90836838D01*
X156114159Y-90975910D01*
X155969169Y-91188110D01*
X155918160Y-91440000D01*
X155918160Y-91543600D01*
X155748400Y-91543600D01*
X155748400Y-91495998D01*
X155641652Y-91495998D01*
X155748400Y-91389250D01*
X155748400Y-91346690D01*
X155651727Y-91113301D01*
X155473098Y-90934673D01*
X155239709Y-90838000D01*
X155124150Y-90838000D01*
X154965400Y-90996750D01*
X154965400Y-91475560D01*
X154711400Y-91475560D01*
X154711400Y-90996750D01*
X154552650Y-90838000D01*
X154437091Y-90838000D01*
X154203702Y-90934673D01*
X154025073Y-91113301D01*
X153928400Y-91346690D01*
X153928400Y-91389250D01*
X154035148Y-91495998D01*
X153928400Y-91495998D01*
X153928400Y-91513000D01*
X152743106Y-91513000D01*
X152641490Y-91443569D01*
X152608110Y-91436809D01*
X152749299Y-91378327D01*
X152927927Y-91199698D01*
X153024600Y-90966309D01*
X153024600Y-90775750D01*
X152865850Y-90617000D01*
X151866600Y-90617000D01*
X151866600Y-90637000D01*
X151612600Y-90637000D01*
X151612600Y-90617000D01*
X150613350Y-90617000D01*
X150454600Y-90775750D01*
X150454600Y-90966309D01*
X150551273Y-91199698D01*
X150729901Y-91378327D01*
X150865887Y-91434654D01*
X150854283Y-91436838D01*
X150638159Y-91575910D01*
X150634203Y-91581700D01*
X142764363Y-91581700D01*
X142732227Y-91549508D01*
X142388699Y-91406862D01*
X142016733Y-91406538D01*
X141672957Y-91548583D01*
X141409708Y-91811373D01*
X141267062Y-92154901D01*
X141266738Y-92526867D01*
X141367178Y-92769950D01*
X140762950Y-92769950D01*
X140527633Y-92814228D01*
X140311509Y-92953300D01*
X140166519Y-93165500D01*
X140115510Y-93417390D01*
X140115510Y-94217490D01*
X140159788Y-94452807D01*
X140298860Y-94668931D01*
X140511060Y-94813921D01*
X140762950Y-94864930D01*
X141397255Y-94864930D01*
X141261509Y-94952280D01*
X141116519Y-95164480D01*
X141065510Y-95416370D01*
X141065510Y-96216470D01*
X141109788Y-96451787D01*
X141248860Y-96667911D01*
X141327960Y-96721958D01*
X141254362Y-96899201D01*
X141254038Y-97271167D01*
X141396083Y-97614943D01*
X141416500Y-97635396D01*
X141416500Y-98834737D01*
X141280069Y-99034410D01*
X141229060Y-99286300D01*
X141229060Y-99686300D01*
X141261104Y-99856600D01*
X141092609Y-99856600D01*
X141039290Y-99820169D01*
X140787400Y-99769160D01*
X140187400Y-99769160D01*
X139952083Y-99813438D01*
X139735959Y-99952510D01*
X139590969Y-100164710D01*
X139585949Y-100189499D01*
X139535250Y-100138800D01*
X138811000Y-100138800D01*
X138811000Y-100158800D01*
X138557000Y-100158800D01*
X138557000Y-100138800D01*
X137832750Y-100138800D01*
X137674000Y-100297550D01*
X137674000Y-100538109D01*
X137762514Y-100751800D01*
X137621276Y-100751800D01*
X137473799Y-100690562D01*
X137101833Y-100690238D01*
X136928639Y-100761800D01*
X136560600Y-100761800D01*
X136560600Y-100781800D01*
X136306600Y-100781800D01*
X136306600Y-100761800D01*
X136286600Y-100761800D01*
X136286600Y-100507800D01*
X136306600Y-100507800D01*
X136306600Y-100487800D01*
X136560600Y-100487800D01*
X136560600Y-100507800D01*
X137259850Y-100507800D01*
X137418600Y-100349050D01*
X137418600Y-99858490D01*
X137321927Y-99625101D01*
X137223051Y-99526225D01*
X137239965Y-99485491D01*
X137674000Y-99485491D01*
X137674000Y-99726050D01*
X137832750Y-99884800D01*
X138557000Y-99884800D01*
X138557000Y-99135550D01*
X138811000Y-99135550D01*
X138811000Y-99884800D01*
X139535250Y-99884800D01*
X139694000Y-99726050D01*
X139694000Y-99485491D01*
X139597327Y-99252102D01*
X139418699Y-99073473D01*
X139185310Y-98976800D01*
X138969750Y-98976800D01*
X138811000Y-99135550D01*
X138557000Y-99135550D01*
X138398250Y-98976800D01*
X138182690Y-98976800D01*
X137949301Y-99073473D01*
X137770673Y-99252102D01*
X137674000Y-99485491D01*
X137239965Y-99485491D01*
X137307438Y-99322999D01*
X137307479Y-99276123D01*
X137797862Y-98785740D01*
X138597900Y-98785740D01*
X138833217Y-98741462D01*
X139049341Y-98602390D01*
X139194331Y-98390190D01*
X139245340Y-98138300D01*
X139245340Y-95638300D01*
X139201062Y-95402983D01*
X139061990Y-95186859D01*
X138849790Y-95041869D01*
X138597900Y-94990860D01*
X136097900Y-94990860D01*
X135862583Y-95035138D01*
X135646459Y-95174210D01*
X135598766Y-95244011D01*
X135561990Y-95186859D01*
X135349790Y-95041869D01*
X135097900Y-94990860D01*
X132597900Y-94990860D01*
X132362583Y-95035138D01*
X132146459Y-95174210D01*
X132001469Y-95386410D01*
X131950460Y-95638300D01*
X131950460Y-98138300D01*
X131994738Y-98373617D01*
X132133810Y-98589741D01*
X132244934Y-98665669D01*
X132068561Y-98700752D01*
X131821999Y-98865499D01*
X131783899Y-98903599D01*
X131619152Y-99150161D01*
X131561300Y-99441000D01*
X131561300Y-100240317D01*
X131121522Y-100534167D01*
X130763630Y-101069790D01*
X130637955Y-101701600D01*
X130504000Y-101701600D01*
X130504000Y-90013691D01*
X150454600Y-90013691D01*
X150454600Y-90204250D01*
X150613350Y-90363000D01*
X151612600Y-90363000D01*
X151612600Y-89663750D01*
X151866600Y-89663750D01*
X151866600Y-90363000D01*
X152865850Y-90363000D01*
X153024600Y-90204250D01*
X153024600Y-90013691D01*
X152927927Y-89780302D01*
X152749299Y-89601673D01*
X152515910Y-89505000D01*
X152025350Y-89505000D01*
X151866600Y-89663750D01*
X151612600Y-89663750D01*
X151453850Y-89505000D01*
X150963290Y-89505000D01*
X150729901Y-89601673D01*
X150551273Y-89780302D01*
X150454600Y-90013691D01*
X130504000Y-90013691D01*
X130504000Y-88086000D01*
X160072000Y-88086000D01*
X160072000Y-109526000D01*
G36*
X154563400Y-103255840D02*
X155113400Y-103255840D01*
X155284741Y-103223600D01*
X156136952Y-103223600D01*
X156337185Y-103523270D01*
X156651966Y-103733600D01*
X156337185Y-103943930D01*
X156136952Y-104243600D01*
X155748400Y-104243600D01*
X155748400Y-104221398D01*
X155641652Y-104221398D01*
X155748400Y-104114650D01*
X155748400Y-104072090D01*
X155651727Y-103838701D01*
X155473098Y-103660073D01*
X155239709Y-103563400D01*
X155124150Y-103563400D01*
X154965400Y-103722150D01*
X154965400Y-104200960D01*
X154711400Y-104200960D01*
X154711400Y-103722150D01*
X154552650Y-103563400D01*
X154437091Y-103563400D01*
X154203702Y-103660073D01*
X154025073Y-103838701D01*
X153954202Y-104009800D01*
X153375975Y-103431573D01*
X153614743Y-103332917D01*
X153729460Y-103218400D01*
X154378516Y-103218400D01*
X154563400Y-103255840D01*
X154563400Y-103255840D01*
G37*
X154563400Y-103255840D02*
X155113400Y-103255840D01*
X155284741Y-103223600D01*
X156136952Y-103223600D01*
X156337185Y-103523270D01*
X156651966Y-103733600D01*
X156337185Y-103943930D01*
X156136952Y-104243600D01*
X155748400Y-104243600D01*
X155748400Y-104221398D01*
X155641652Y-104221398D01*
X155748400Y-104114650D01*
X155748400Y-104072090D01*
X155651727Y-103838701D01*
X155473098Y-103660073D01*
X155239709Y-103563400D01*
X155124150Y-103563400D01*
X154965400Y-103722150D01*
X154965400Y-104200960D01*
X154711400Y-104200960D01*
X154711400Y-103722150D01*
X154552650Y-103563400D01*
X154437091Y-103563400D01*
X154203702Y-103660073D01*
X154025073Y-103838701D01*
X153954202Y-104009800D01*
X153375975Y-103431573D01*
X153614743Y-103332917D01*
X153729460Y-103218400D01*
X154378516Y-103218400D01*
X154563400Y-103255840D01*
G36*
X152352273Y-100283992D02*
X152695801Y-100426638D01*
X153018696Y-100426919D01*
X153029283Y-100452543D01*
X153292073Y-100715792D01*
X153635601Y-100858438D01*
X154007567Y-100858762D01*
X154351343Y-100716717D01*
X154387836Y-100680287D01*
X154563400Y-100715840D01*
X155113400Y-100715840D01*
X155284741Y-100683600D01*
X156136952Y-100683600D01*
X156337185Y-100983270D01*
X156651966Y-101193600D01*
X156337185Y-101403930D01*
X156136952Y-101703600D01*
X155748400Y-101703600D01*
X155748400Y-101681398D01*
X155641652Y-101681398D01*
X155748400Y-101574650D01*
X155748400Y-101532090D01*
X155651727Y-101298701D01*
X155473098Y-101120073D01*
X155239709Y-101023400D01*
X155124150Y-101023400D01*
X154965400Y-101182150D01*
X154965400Y-101660960D01*
X154711400Y-101660960D01*
X154711400Y-101182150D01*
X154552650Y-101023400D01*
X154437091Y-101023400D01*
X154203702Y-101120073D01*
X154025073Y-101298701D01*
X153928400Y-101532090D01*
X153928400Y-101574650D01*
X154035148Y-101681398D01*
X153928400Y-101681398D01*
X153928400Y-101698400D01*
X153497622Y-101698400D01*
X153272599Y-101604962D01*
X153081041Y-101604795D01*
X153081162Y-101465633D01*
X152939117Y-101121857D01*
X152676327Y-100858608D01*
X152332799Y-100715962D01*
X151960833Y-100715638D01*
X151693741Y-100825998D01*
X151550252Y-100825998D01*
X151707000Y-100669250D01*
X151707000Y-100576691D01*
X151610327Y-100343302D01*
X151480026Y-100213000D01*
X152281405Y-100213000D01*
X152352273Y-100283992D01*
X152352273Y-100283992D01*
G37*
X152352273Y-100283992D02*
X152695801Y-100426638D01*
X153018696Y-100426919D01*
X153029283Y-100452543D01*
X153292073Y-100715792D01*
X153635601Y-100858438D01*
X154007567Y-100858762D01*
X154351343Y-100716717D01*
X154387836Y-100680287D01*
X154563400Y-100715840D01*
X155113400Y-100715840D01*
X155284741Y-100683600D01*
X156136952Y-100683600D01*
X156337185Y-100983270D01*
X156651966Y-101193600D01*
X156337185Y-101403930D01*
X156136952Y-101703600D01*
X155748400Y-101703600D01*
X155748400Y-101681398D01*
X155641652Y-101681398D01*
X155748400Y-101574650D01*
X155748400Y-101532090D01*
X155651727Y-101298701D01*
X155473098Y-101120073D01*
X155239709Y-101023400D01*
X155124150Y-101023400D01*
X154965400Y-101182150D01*
X154965400Y-101660960D01*
X154711400Y-101660960D01*
X154711400Y-101182150D01*
X154552650Y-101023400D01*
X154437091Y-101023400D01*
X154203702Y-101120073D01*
X154025073Y-101298701D01*
X153928400Y-101532090D01*
X153928400Y-101574650D01*
X154035148Y-101681398D01*
X153928400Y-101681398D01*
X153928400Y-101698400D01*
X153497622Y-101698400D01*
X153272599Y-101604962D01*
X153081041Y-101604795D01*
X153081162Y-101465633D01*
X152939117Y-101121857D01*
X152676327Y-100858608D01*
X152332799Y-100715962D01*
X151960833Y-100715638D01*
X151693741Y-100825998D01*
X151550252Y-100825998D01*
X151707000Y-100669250D01*
X151707000Y-100576691D01*
X151610327Y-100343302D01*
X151480026Y-100213000D01*
X152281405Y-100213000D01*
X152352273Y-100283992D01*
G36*
X150579560Y-93120033D02*
X150579560Y-94401400D01*
X150623838Y-94636717D01*
X150650541Y-94678215D01*
X150616359Y-94700210D01*
X150471369Y-94912410D01*
X150420360Y-95164300D01*
X150420360Y-95469300D01*
X150439379Y-95570379D01*
X150420360Y-95664300D01*
X150420360Y-95969300D01*
X150439379Y-96070379D01*
X150420360Y-96164300D01*
X150420360Y-96469300D01*
X150439379Y-96570379D01*
X150420360Y-96664300D01*
X150420360Y-96969300D01*
X150439379Y-97070379D01*
X150420360Y-97164300D01*
X150420360Y-97469300D01*
X150464638Y-97704617D01*
X150603710Y-97920741D01*
X150815910Y-98065731D01*
X151067800Y-98116740D01*
X152083800Y-98116740D01*
X152296063Y-98076800D01*
X154241214Y-98076800D01*
X154311510Y-98124831D01*
X154563400Y-98175840D01*
X155113400Y-98175840D01*
X155284741Y-98143600D01*
X156136952Y-98143600D01*
X156337185Y-98443270D01*
X156651966Y-98653600D01*
X156337185Y-98863930D01*
X156136952Y-99163600D01*
X155748400Y-99163600D01*
X155748400Y-99141398D01*
X155641652Y-99141398D01*
X155748400Y-99034650D01*
X155748400Y-98992090D01*
X155651727Y-98758701D01*
X155473098Y-98580073D01*
X155239709Y-98483400D01*
X155124150Y-98483400D01*
X154965400Y-98642150D01*
X154965400Y-99120960D01*
X154711400Y-99120960D01*
X154711400Y-98642150D01*
X154552650Y-98483400D01*
X154437091Y-98483400D01*
X154203702Y-98580073D01*
X154025073Y-98758701D01*
X153929807Y-98988693D01*
X153686304Y-98988481D01*
X153675717Y-98962857D01*
X153412927Y-98699608D01*
X153069399Y-98556962D01*
X152697433Y-98556638D01*
X152367411Y-98693000D01*
X151450386Y-98693000D01*
X151323890Y-98606569D01*
X151072000Y-98555560D01*
X150172000Y-98555560D01*
X149936683Y-98599838D01*
X149720559Y-98738910D01*
X149575569Y-98951110D01*
X149524560Y-99203000D01*
X149524560Y-99703000D01*
X149568838Y-99938317D01*
X149707910Y-100154441D01*
X149776006Y-100200969D01*
X149633673Y-100343302D01*
X149537000Y-100576691D01*
X149537000Y-100669250D01*
X149695750Y-100828000D01*
X150495000Y-100828000D01*
X150495000Y-100806000D01*
X150749000Y-100806000D01*
X150749000Y-100828000D01*
X150769000Y-100828000D01*
X150769000Y-101026831D01*
X150723600Y-101017800D01*
X146868200Y-101017800D01*
X146868200Y-100853400D01*
X146888200Y-100853400D01*
X146888200Y-100831400D01*
X147142200Y-100831400D01*
X147142200Y-100853400D01*
X147941450Y-100853400D01*
X148100200Y-100694650D01*
X148100200Y-100602091D01*
X148003527Y-100368702D01*
X147862290Y-100227464D01*
X147916641Y-100192490D01*
X148061631Y-99980290D01*
X148112640Y-99728400D01*
X148112640Y-99228400D01*
X148068362Y-98993083D01*
X147929290Y-98776959D01*
X147717090Y-98631969D01*
X147465200Y-98580960D01*
X146937179Y-98580960D01*
X147032601Y-98517201D01*
X147070001Y-98479801D01*
X147234748Y-98233239D01*
X147275877Y-98026473D01*
X147356800Y-97945550D01*
X147356800Y-97616740D01*
X147610800Y-97616740D01*
X147610800Y-97945550D01*
X147769550Y-98104300D01*
X148118109Y-98104300D01*
X148351498Y-98007627D01*
X148530127Y-97828999D01*
X148626800Y-97595610D01*
X148626800Y-97551800D01*
X148469686Y-97394686D01*
X148588231Y-97221190D01*
X148613832Y-97094768D01*
X148626800Y-97081800D01*
X148626800Y-97037990D01*
X148625813Y-97035606D01*
X148639240Y-96969300D01*
X148639240Y-96664300D01*
X148620221Y-96563221D01*
X148639240Y-96469300D01*
X148639240Y-96164300D01*
X148620221Y-96063221D01*
X148639240Y-95969300D01*
X148639240Y-95664300D01*
X148620221Y-95563221D01*
X148639240Y-95469300D01*
X148639240Y-95164300D01*
X148594962Y-94928983D01*
X148455890Y-94712859D01*
X148243690Y-94567869D01*
X147991800Y-94516860D01*
X147114800Y-94516860D01*
X147114800Y-94284800D01*
X147080199Y-94110852D01*
X147056948Y-93993960D01*
X146892201Y-93747399D01*
X146645640Y-93582652D01*
X146354800Y-93524800D01*
X146294472Y-93536800D01*
X145652531Y-93536800D01*
X145593690Y-93445359D01*
X145381490Y-93300369D01*
X145129600Y-93249360D01*
X144736453Y-93249360D01*
X144627039Y-93176252D01*
X144336200Y-93118400D01*
X144025240Y-93118400D01*
X144014493Y-93101700D01*
X150567763Y-93101700D01*
X150579560Y-93120033D01*
X150579560Y-93120033D01*
G37*
X150579560Y-93120033D02*
X150579560Y-94401400D01*
X150623838Y-94636717D01*
X150650541Y-94678215D01*
X150616359Y-94700210D01*
X150471369Y-94912410D01*
X150420360Y-95164300D01*
X150420360Y-95469300D01*
X150439379Y-95570379D01*
X150420360Y-95664300D01*
X150420360Y-95969300D01*
X150439379Y-96070379D01*
X150420360Y-96164300D01*
X150420360Y-96469300D01*
X150439379Y-96570379D01*
X150420360Y-96664300D01*
X150420360Y-96969300D01*
X150439379Y-97070379D01*
X150420360Y-97164300D01*
X150420360Y-97469300D01*
X150464638Y-97704617D01*
X150603710Y-97920741D01*
X150815910Y-98065731D01*
X151067800Y-98116740D01*
X152083800Y-98116740D01*
X152296063Y-98076800D01*
X154241214Y-98076800D01*
X154311510Y-98124831D01*
X154563400Y-98175840D01*
X155113400Y-98175840D01*
X155284741Y-98143600D01*
X156136952Y-98143600D01*
X156337185Y-98443270D01*
X156651966Y-98653600D01*
X156337185Y-98863930D01*
X156136952Y-99163600D01*
X155748400Y-99163600D01*
X155748400Y-99141398D01*
X155641652Y-99141398D01*
X155748400Y-99034650D01*
X155748400Y-98992090D01*
X155651727Y-98758701D01*
X155473098Y-98580073D01*
X155239709Y-98483400D01*
X155124150Y-98483400D01*
X154965400Y-98642150D01*
X154965400Y-99120960D01*
X154711400Y-99120960D01*
X154711400Y-98642150D01*
X154552650Y-98483400D01*
X154437091Y-98483400D01*
X154203702Y-98580073D01*
X154025073Y-98758701D01*
X153929807Y-98988693D01*
X153686304Y-98988481D01*
X153675717Y-98962857D01*
X153412927Y-98699608D01*
X153069399Y-98556962D01*
X152697433Y-98556638D01*
X152367411Y-98693000D01*
X151450386Y-98693000D01*
X151323890Y-98606569D01*
X151072000Y-98555560D01*
X150172000Y-98555560D01*
X149936683Y-98599838D01*
X149720559Y-98738910D01*
X149575569Y-98951110D01*
X149524560Y-99203000D01*
X149524560Y-99703000D01*
X149568838Y-99938317D01*
X149707910Y-100154441D01*
X149776006Y-100200969D01*
X149633673Y-100343302D01*
X149537000Y-100576691D01*
X149537000Y-100669250D01*
X149695750Y-100828000D01*
X150495000Y-100828000D01*
X150495000Y-100806000D01*
X150749000Y-100806000D01*
X150749000Y-100828000D01*
X150769000Y-100828000D01*
X150769000Y-101026831D01*
X150723600Y-101017800D01*
X146868200Y-101017800D01*
X146868200Y-100853400D01*
X146888200Y-100853400D01*
X146888200Y-100831400D01*
X147142200Y-100831400D01*
X147142200Y-100853400D01*
X147941450Y-100853400D01*
X148100200Y-100694650D01*
X148100200Y-100602091D01*
X148003527Y-100368702D01*
X147862290Y-100227464D01*
X147916641Y-100192490D01*
X148061631Y-99980290D01*
X148112640Y-99728400D01*
X148112640Y-99228400D01*
X148068362Y-98993083D01*
X147929290Y-98776959D01*
X147717090Y-98631969D01*
X147465200Y-98580960D01*
X146937179Y-98580960D01*
X147032601Y-98517201D01*
X147070001Y-98479801D01*
X147234748Y-98233239D01*
X147275877Y-98026473D01*
X147356800Y-97945550D01*
X147356800Y-97616740D01*
X147610800Y-97616740D01*
X147610800Y-97945550D01*
X147769550Y-98104300D01*
X148118109Y-98104300D01*
X148351498Y-98007627D01*
X148530127Y-97828999D01*
X148626800Y-97595610D01*
X148626800Y-97551800D01*
X148469686Y-97394686D01*
X148588231Y-97221190D01*
X148613832Y-97094768D01*
X148626800Y-97081800D01*
X148626800Y-97037990D01*
X148625813Y-97035606D01*
X148639240Y-96969300D01*
X148639240Y-96664300D01*
X148620221Y-96563221D01*
X148639240Y-96469300D01*
X148639240Y-96164300D01*
X148620221Y-96063221D01*
X148639240Y-95969300D01*
X148639240Y-95664300D01*
X148620221Y-95563221D01*
X148639240Y-95469300D01*
X148639240Y-95164300D01*
X148594962Y-94928983D01*
X148455890Y-94712859D01*
X148243690Y-94567869D01*
X147991800Y-94516860D01*
X147114800Y-94516860D01*
X147114800Y-94284800D01*
X147080199Y-94110852D01*
X147056948Y-93993960D01*
X146892201Y-93747399D01*
X146645640Y-93582652D01*
X146354800Y-93524800D01*
X146294472Y-93536800D01*
X145652531Y-93536800D01*
X145593690Y-93445359D01*
X145381490Y-93300369D01*
X145129600Y-93249360D01*
X144736453Y-93249360D01*
X144627039Y-93176252D01*
X144336200Y-93118400D01*
X144025240Y-93118400D01*
X144014493Y-93101700D01*
X150567763Y-93101700D01*
X150579560Y-93120033D01*
G36*
X156337185Y-95903270D02*
X156651966Y-96113600D01*
X156337185Y-96323930D01*
X156136952Y-96623600D01*
X155748400Y-96623600D01*
X155748400Y-96601398D01*
X155641652Y-96601398D01*
X155748400Y-96494650D01*
X155748400Y-96452090D01*
X155651727Y-96218701D01*
X155473098Y-96040073D01*
X155239709Y-95943400D01*
X155124150Y-95943400D01*
X154965400Y-96102150D01*
X154965400Y-96580960D01*
X154898259Y-96580960D01*
X154833515Y-96568081D01*
X154833762Y-96284033D01*
X154691717Y-95940257D01*
X154657387Y-95905867D01*
X154757238Y-95665399D01*
X154757286Y-95610440D01*
X155113400Y-95610440D01*
X155149751Y-95603600D01*
X156136952Y-95603600D01*
X156337185Y-95903270D01*
X156337185Y-95903270D01*
G37*
X156337185Y-95903270D02*
X156651966Y-96113600D01*
X156337185Y-96323930D01*
X156136952Y-96623600D01*
X155748400Y-96623600D01*
X155748400Y-96601398D01*
X155641652Y-96601398D01*
X155748400Y-96494650D01*
X155748400Y-96452090D01*
X155651727Y-96218701D01*
X155473098Y-96040073D01*
X155239709Y-95943400D01*
X155124150Y-95943400D01*
X154965400Y-96102150D01*
X154965400Y-96580960D01*
X154898259Y-96580960D01*
X154833515Y-96568081D01*
X154833762Y-96284033D01*
X154691717Y-95940257D01*
X154657387Y-95905867D01*
X154757238Y-95665399D01*
X154757286Y-95610440D01*
X155113400Y-95610440D01*
X155149751Y-95603600D01*
X156136952Y-95603600D01*
X156337185Y-95903270D01*
G36*
X154563400Y-93070440D02*
X155113400Y-93070440D01*
X155149751Y-93063600D01*
X155918160Y-93063600D01*
X155918160Y-93167200D01*
X155962438Y-93402517D01*
X156101510Y-93618641D01*
X156313710Y-93763631D01*
X156355039Y-93772000D01*
X156337185Y-93783930D01*
X156136952Y-94083600D01*
X155748400Y-94083600D01*
X155748400Y-94035998D01*
X155641652Y-94035998D01*
X155748400Y-93929250D01*
X155748400Y-93886690D01*
X155651727Y-93653301D01*
X155473098Y-93474673D01*
X155239709Y-93378000D01*
X155124150Y-93378000D01*
X154965400Y-93536750D01*
X154965400Y-94015560D01*
X154711400Y-94015560D01*
X154711400Y-93536750D01*
X154552650Y-93378000D01*
X154462000Y-93378000D01*
X154462000Y-93049906D01*
X154563400Y-93070440D01*
X154563400Y-93070440D01*
G37*
X154563400Y-93070440D02*
X155113400Y-93070440D01*
X155149751Y-93063600D01*
X155918160Y-93063600D01*
X155918160Y-93167200D01*
X155962438Y-93402517D01*
X156101510Y-93618641D01*
X156313710Y-93763631D01*
X156355039Y-93772000D01*
X156337185Y-93783930D01*
X156136952Y-94083600D01*
X155748400Y-94083600D01*
X155748400Y-94035998D01*
X155641652Y-94035998D01*
X155748400Y-93929250D01*
X155748400Y-93886690D01*
X155651727Y-93653301D01*
X155473098Y-93474673D01*
X155239709Y-93378000D01*
X155124150Y-93378000D01*
X154965400Y-93536750D01*
X154965400Y-94015560D01*
X154711400Y-94015560D01*
X154711400Y-93536750D01*
X154552650Y-93378000D01*
X154462000Y-93378000D01*
X154462000Y-93049906D01*
X154563400Y-93070440D01*
G36*
X153604000Y-93624400D02*
X153624000Y-93624400D01*
X153624000Y-93878400D01*
X153604000Y-93878400D01*
X153604000Y-93898400D01*
X153350000Y-93898400D01*
X153350000Y-93878400D01*
X153330000Y-93878400D01*
X153330000Y-93624400D01*
X153350000Y-93624400D01*
X153350000Y-93604400D01*
X153604000Y-93604400D01*
X153604000Y-93624400D01*
X153604000Y-93624400D01*
G37*
X153604000Y-93624400D02*
X153624000Y-93624400D01*
X153624000Y-93878400D01*
X153604000Y-93878400D01*
X153604000Y-93898400D01*
X153350000Y-93898400D01*
X153350000Y-93878400D01*
X153330000Y-93878400D01*
X153330000Y-93624400D01*
X153350000Y-93624400D01*
X153350000Y-93604400D01*
X153604000Y-93604400D01*
X153604000Y-93624400D01*
M02*
