M48
INCH,TZ
T1C0.016
T2C0.040
%
G90
G05
T1
X5.16Y-3.81
X5.2Y-4.24
X5.25Y-3.6
X5.2966Y-3.962
X5.31Y-4.16
X5.368Y-4.114
X5.369Y-3.903
X5.4Y-4.24
X5.405Y-4.001
X5.405Y-4.138
X5.43Y-3.65
X5.53Y-3.88
X5.598Y-3.8223
X5.5985Y-3.6355
X5.6Y-4.24
X5.61Y-3.55
X5.64Y-4.0115
X5.641Y-3.9275
X5.6675Y-4.175
X5.668Y-3.952
X5.696Y-4.028
X5.7035Y-4.0825
X5.8Y-3.55
X5.8Y-4.24
X5.8025Y-4.0835
X5.86Y-3.69
X5.9Y-3.87
X5.93Y-3.9745
X5.9676Y-3.691
X5.974Y-3.5626
X5.974Y-3.6374
X5.99Y-4.002
X6.Y-4.24
X6.015Y-3.758
X6.019Y-3.917
X6.027Y-4.037
X6.0424Y-3.691
X6.056Y-3.759
X6.056Y-3.934
X6.059Y-3.798
X6.0955Y-3.6765
X6.096Y-3.568
X6.096Y-3.9855
X6.096Y-4.079
X6.141Y-3.789
X6.143Y-3.887
T2
X5.2095Y-4.004
X5.2095Y-4.104
X6.204Y-3.634
X6.204Y-3.734
X6.204Y-3.834
X6.204Y-3.934
X6.204Y-4.034
X6.204Y-4.134
X6.204Y-4.234
T0
M30
