G04 #@! TF.FileFunction,Copper,L2,Bot,Signal*
%FSLAX46Y46*%
G04 Gerber Fmt 4.6, Leading zero omitted, Abs format (unit mm)*
G04 Created by KiCad (PCBNEW 4.0.1+dfsg1-stable) date Thu 03 Mar 2016 02:15:59 PM PST*
%MOMM*%
G01*
G04 APERTURE LIST*
%ADD10C,0.100000*%
%ADD11R,2.032000X2.032000*%
%ADD12O,2.032000X2.032000*%
%ADD13R,2.032000X1.727200*%
%ADD14O,2.032000X1.727200*%
%ADD15C,0.600000*%
%ADD16C,0.250000*%
%ADD17C,0.254000*%
G04 APERTURE END LIST*
D10*
D11*
X132321300Y-104241600D03*
D12*
X132321300Y-101701600D03*
D13*
X157581600Y-92303600D03*
D14*
X157581600Y-94843600D03*
X157581600Y-97383600D03*
X157581600Y-99923600D03*
X157581600Y-102463600D03*
X157581600Y-105003600D03*
X157581600Y-107543600D03*
D15*
X154838400Y-90627200D03*
X154825700Y-93383100D03*
X155867100Y-95935800D03*
X154838400Y-98463100D03*
X154838400Y-103606600D03*
X135966200Y-103530400D03*
X154838400Y-101231700D03*
X150622000Y-100953000D03*
X147383500Y-103720900D03*
X144868900Y-103695500D03*
X142189200Y-97086000D03*
X142201900Y-92341700D03*
X151587200Y-98209100D03*
X154876500Y-95796100D03*
X153289000Y-102323900D03*
X144627600Y-102311200D03*
X143954500Y-106045000D03*
X143967200Y-100380800D03*
X143256000Y-101892100D03*
X143281400Y-99758500D03*
X151739600Y-100634800D03*
X153454100Y-100609400D03*
D16*
X155867100Y-95935800D02*
X155867100Y-95923100D01*
X154838400Y-103606600D02*
X154838400Y-103581200D01*
X135978900Y-103492300D02*
X135978900Y-103517700D01*
X135978900Y-103517700D02*
X135966200Y-103530400D01*
X154851100Y-101219000D02*
X154851100Y-101155500D01*
X154838400Y-101231700D02*
X154851100Y-101219000D01*
X150647400Y-100990400D02*
X150647400Y-100978400D01*
X150647400Y-100978400D02*
X150622000Y-100953000D01*
X144894300Y-103720900D02*
X147383500Y-103720900D01*
X144868900Y-103695500D02*
X144894300Y-103720900D01*
X142189200Y-97086000D02*
X142201900Y-97073300D01*
X142201900Y-97073300D02*
X142201900Y-92341700D01*
X151549100Y-98171000D02*
X151549100Y-95973900D01*
X151587200Y-98209100D02*
X151549100Y-98171000D01*
X151726900Y-95796100D02*
X154876500Y-95796100D01*
X151549100Y-95973900D02*
X151726900Y-95796100D01*
X144640300Y-102323900D02*
X153289000Y-102323900D01*
X144627600Y-102311200D02*
X144640300Y-102323900D01*
X143954500Y-100393500D02*
X143954500Y-106045000D01*
X143967200Y-100380800D02*
X143954500Y-100393500D01*
X143256000Y-101892100D02*
X143281400Y-101866700D01*
X143281400Y-101866700D02*
X143281400Y-99758500D01*
X153428700Y-100634800D02*
X151739600Y-100634800D01*
X153454100Y-100609400D02*
X153428700Y-100634800D01*
D17*
G36*
X160072000Y-109526000D02*
X130504000Y-109526000D01*
X130504000Y-107902626D01*
X155974242Y-107902626D01*
X155976891Y-107918391D01*
X156230868Y-108445636D01*
X156667280Y-108835554D01*
X157219687Y-109028784D01*
X157454600Y-108884524D01*
X157454600Y-107670600D01*
X157708600Y-107670600D01*
X157708600Y-108884524D01*
X157943513Y-109028784D01*
X158495920Y-108835554D01*
X158932332Y-108445636D01*
X159186309Y-107918391D01*
X159188958Y-107902626D01*
X159067817Y-107670600D01*
X157708600Y-107670600D01*
X157454600Y-107670600D01*
X156095383Y-107670600D01*
X155974242Y-107902626D01*
X130504000Y-107902626D01*
X130504000Y-104527350D01*
X130670300Y-104527350D01*
X130670300Y-105383910D01*
X130766973Y-105617299D01*
X130945602Y-105795927D01*
X131178991Y-105892600D01*
X132035550Y-105892600D01*
X132194300Y-105733850D01*
X132194300Y-104368600D01*
X132448300Y-104368600D01*
X132448300Y-105733850D01*
X132607050Y-105892600D01*
X133463609Y-105892600D01*
X133696998Y-105795927D01*
X133875627Y-105617299D01*
X133972300Y-105383910D01*
X133972300Y-104527350D01*
X133813550Y-104368600D01*
X132448300Y-104368600D01*
X132194300Y-104368600D01*
X130829050Y-104368600D01*
X130670300Y-104527350D01*
X130504000Y-104527350D01*
X130504000Y-101701600D01*
X130637955Y-101701600D01*
X130763630Y-102333410D01*
X130988266Y-102669601D01*
X130945602Y-102687273D01*
X130766973Y-102865901D01*
X130670300Y-103099290D01*
X130670300Y-103955850D01*
X130829050Y-104114600D01*
X132194300Y-104114600D01*
X132194300Y-104094600D01*
X132448300Y-104094600D01*
X132448300Y-104114600D01*
X133813550Y-104114600D01*
X133972300Y-103955850D01*
X133972300Y-103099290D01*
X133875627Y-102865901D01*
X133696998Y-102687273D01*
X133654334Y-102669601D01*
X133878970Y-102333410D01*
X133929920Y-102077267D01*
X142320838Y-102077267D01*
X142462883Y-102421043D01*
X142725673Y-102684292D01*
X143069201Y-102826938D01*
X143194500Y-102827047D01*
X143194500Y-105482537D01*
X143162308Y-105514673D01*
X143019662Y-105858201D01*
X143019338Y-106230167D01*
X143161383Y-106573943D01*
X143424173Y-106837192D01*
X143767701Y-106979838D01*
X144139667Y-106980162D01*
X144483443Y-106838117D01*
X144746692Y-106575327D01*
X144889338Y-106231799D01*
X144889662Y-105859833D01*
X144747617Y-105516057D01*
X144714500Y-105482882D01*
X144714500Y-104630366D01*
X145054067Y-104630662D01*
X145397843Y-104488617D01*
X145405573Y-104480900D01*
X146821037Y-104480900D01*
X146853173Y-104513092D01*
X147196701Y-104655738D01*
X147568667Y-104656062D01*
X147912443Y-104514017D01*
X148175692Y-104251227D01*
X148318338Y-103907699D01*
X148318662Y-103535733D01*
X148176617Y-103191957D01*
X148068748Y-103083900D01*
X152726537Y-103083900D01*
X152758673Y-103116092D01*
X153102201Y-103258738D01*
X153474167Y-103259062D01*
X153817943Y-103117017D01*
X154081192Y-102854227D01*
X154223838Y-102510699D01*
X154224162Y-102138733D01*
X154082117Y-101794957D01*
X153819327Y-101531708D01*
X153745036Y-101500859D01*
X153983043Y-101402517D01*
X154246292Y-101139727D01*
X154388938Y-100796199D01*
X154389262Y-100424233D01*
X154247217Y-100080457D01*
X153984427Y-99817208D01*
X153640899Y-99674562D01*
X153268933Y-99674238D01*
X152925157Y-99816283D01*
X152866538Y-99874800D01*
X152302063Y-99874800D01*
X152269927Y-99842608D01*
X151926399Y-99699962D01*
X151554433Y-99699638D01*
X151210657Y-99841683D01*
X150947408Y-100104473D01*
X150804762Y-100448001D01*
X150804438Y-100819967D01*
X150946483Y-101163743D01*
X151209273Y-101426992D01*
X151538982Y-101563900D01*
X145202741Y-101563900D01*
X145157927Y-101519008D01*
X144814399Y-101376362D01*
X144714500Y-101376275D01*
X144714500Y-100955941D01*
X144759392Y-100911127D01*
X144902038Y-100567599D01*
X144902362Y-100195633D01*
X144760317Y-99851857D01*
X144497527Y-99588608D01*
X144165991Y-99450942D01*
X144074517Y-99229557D01*
X143811727Y-98966308D01*
X143468199Y-98823662D01*
X143096233Y-98823338D01*
X142752457Y-98965383D01*
X142489208Y-99228173D01*
X142346562Y-99571701D01*
X142346238Y-99943667D01*
X142488283Y-100287443D01*
X142521400Y-100320618D01*
X142521400Y-101304281D01*
X142463808Y-101361773D01*
X142321162Y-101705301D01*
X142320838Y-102077267D01*
X133929920Y-102077267D01*
X134004645Y-101701600D01*
X133878970Y-101069790D01*
X133521078Y-100534167D01*
X132985455Y-100176275D01*
X132353645Y-100050600D01*
X132288955Y-100050600D01*
X131657145Y-100176275D01*
X131121522Y-100534167D01*
X130763630Y-101069790D01*
X130637955Y-101701600D01*
X130504000Y-101701600D01*
X130504000Y-98394267D01*
X150652038Y-98394267D01*
X150794083Y-98738043D01*
X151056873Y-99001292D01*
X151400401Y-99143938D01*
X151772367Y-99144262D01*
X152116143Y-99002217D01*
X152379392Y-98739427D01*
X152522038Y-98395899D01*
X152522362Y-98023933D01*
X152380317Y-97680157D01*
X152309100Y-97608816D01*
X152309100Y-96556100D01*
X154314037Y-96556100D01*
X154346173Y-96588292D01*
X154689701Y-96730938D01*
X155061667Y-96731262D01*
X155405443Y-96589217D01*
X155668692Y-96326427D01*
X155811338Y-95982899D01*
X155811662Y-95610933D01*
X155669617Y-95267157D01*
X155406827Y-95003908D01*
X155063299Y-94861262D01*
X154691333Y-94860938D01*
X154347557Y-95002983D01*
X154314382Y-95036100D01*
X151726900Y-95036100D01*
X151436060Y-95093952D01*
X151189499Y-95258699D01*
X151011699Y-95436499D01*
X150846952Y-95683061D01*
X150789100Y-95973900D01*
X150789100Y-97693001D01*
X150652362Y-98022301D01*
X150652038Y-98394267D01*
X130504000Y-98394267D01*
X130504000Y-97271167D01*
X141254038Y-97271167D01*
X141396083Y-97614943D01*
X141658873Y-97878192D01*
X142002401Y-98020838D01*
X142374367Y-98021162D01*
X142718143Y-97879117D01*
X142981392Y-97616327D01*
X143124038Y-97272799D01*
X143124362Y-96900833D01*
X142982317Y-96557057D01*
X142961900Y-96536604D01*
X142961900Y-94843600D01*
X155898255Y-94843600D01*
X156012329Y-95417089D01*
X156337185Y-95903270D01*
X156651966Y-96113600D01*
X156337185Y-96323930D01*
X156012329Y-96810111D01*
X155898255Y-97383600D01*
X156012329Y-97957089D01*
X156337185Y-98443270D01*
X156651966Y-98653600D01*
X156337185Y-98863930D01*
X156012329Y-99350111D01*
X155898255Y-99923600D01*
X156012329Y-100497089D01*
X156337185Y-100983270D01*
X156651966Y-101193600D01*
X156337185Y-101403930D01*
X156012329Y-101890111D01*
X155898255Y-102463600D01*
X156012329Y-103037089D01*
X156337185Y-103523270D01*
X156651966Y-103733600D01*
X156337185Y-103943930D01*
X156012329Y-104430111D01*
X155898255Y-105003600D01*
X156012329Y-105577089D01*
X156337185Y-106063270D01*
X156646669Y-106270061D01*
X156230868Y-106641564D01*
X155976891Y-107168809D01*
X155974242Y-107184574D01*
X156095383Y-107416600D01*
X157454600Y-107416600D01*
X157454600Y-107396600D01*
X157708600Y-107396600D01*
X157708600Y-107416600D01*
X159067817Y-107416600D01*
X159188958Y-107184574D01*
X159186309Y-107168809D01*
X158932332Y-106641564D01*
X158516531Y-106270061D01*
X158826015Y-106063270D01*
X159150871Y-105577089D01*
X159264945Y-105003600D01*
X159150871Y-104430111D01*
X158826015Y-103943930D01*
X158511234Y-103733600D01*
X158826015Y-103523270D01*
X159150871Y-103037089D01*
X159264945Y-102463600D01*
X159150871Y-101890111D01*
X158826015Y-101403930D01*
X158511234Y-101193600D01*
X158826015Y-100983270D01*
X159150871Y-100497089D01*
X159264945Y-99923600D01*
X159150871Y-99350111D01*
X158826015Y-98863930D01*
X158511234Y-98653600D01*
X158826015Y-98443270D01*
X159150871Y-97957089D01*
X159264945Y-97383600D01*
X159150871Y-96810111D01*
X158826015Y-96323930D01*
X158511234Y-96113600D01*
X158826015Y-95903270D01*
X159150871Y-95417089D01*
X159264945Y-94843600D01*
X159150871Y-94270111D01*
X158826015Y-93783930D01*
X158811687Y-93774357D01*
X158832917Y-93770362D01*
X159049041Y-93631290D01*
X159194031Y-93419090D01*
X159245040Y-93167200D01*
X159245040Y-91440000D01*
X159200762Y-91204683D01*
X159061690Y-90988559D01*
X158849490Y-90843569D01*
X158597600Y-90792560D01*
X156565600Y-90792560D01*
X156330283Y-90836838D01*
X156114159Y-90975910D01*
X155969169Y-91188110D01*
X155918160Y-91440000D01*
X155918160Y-93167200D01*
X155962438Y-93402517D01*
X156101510Y-93618641D01*
X156313710Y-93763631D01*
X156355039Y-93772000D01*
X156337185Y-93783930D01*
X156012329Y-94270111D01*
X155898255Y-94843600D01*
X142961900Y-94843600D01*
X142961900Y-92904163D01*
X142994092Y-92872027D01*
X143136738Y-92528499D01*
X143137062Y-92156533D01*
X142995017Y-91812757D01*
X142732227Y-91549508D01*
X142388699Y-91406862D01*
X142016733Y-91406538D01*
X141672957Y-91548583D01*
X141409708Y-91811373D01*
X141267062Y-92154901D01*
X141266738Y-92526867D01*
X141408783Y-92870643D01*
X141441900Y-92903818D01*
X141441900Y-96510859D01*
X141397008Y-96555673D01*
X141254362Y-96899201D01*
X141254038Y-97271167D01*
X130504000Y-97271167D01*
X130504000Y-88086000D01*
X160072000Y-88086000D01*
X160072000Y-109526000D01*
X160072000Y-109526000D01*
G37*
X160072000Y-109526000D02*
X130504000Y-109526000D01*
X130504000Y-107902626D01*
X155974242Y-107902626D01*
X155976891Y-107918391D01*
X156230868Y-108445636D01*
X156667280Y-108835554D01*
X157219687Y-109028784D01*
X157454600Y-108884524D01*
X157454600Y-107670600D01*
X157708600Y-107670600D01*
X157708600Y-108884524D01*
X157943513Y-109028784D01*
X158495920Y-108835554D01*
X158932332Y-108445636D01*
X159186309Y-107918391D01*
X159188958Y-107902626D01*
X159067817Y-107670600D01*
X157708600Y-107670600D01*
X157454600Y-107670600D01*
X156095383Y-107670600D01*
X155974242Y-107902626D01*
X130504000Y-107902626D01*
X130504000Y-104527350D01*
X130670300Y-104527350D01*
X130670300Y-105383910D01*
X130766973Y-105617299D01*
X130945602Y-105795927D01*
X131178991Y-105892600D01*
X132035550Y-105892600D01*
X132194300Y-105733850D01*
X132194300Y-104368600D01*
X132448300Y-104368600D01*
X132448300Y-105733850D01*
X132607050Y-105892600D01*
X133463609Y-105892600D01*
X133696998Y-105795927D01*
X133875627Y-105617299D01*
X133972300Y-105383910D01*
X133972300Y-104527350D01*
X133813550Y-104368600D01*
X132448300Y-104368600D01*
X132194300Y-104368600D01*
X130829050Y-104368600D01*
X130670300Y-104527350D01*
X130504000Y-104527350D01*
X130504000Y-101701600D01*
X130637955Y-101701600D01*
X130763630Y-102333410D01*
X130988266Y-102669601D01*
X130945602Y-102687273D01*
X130766973Y-102865901D01*
X130670300Y-103099290D01*
X130670300Y-103955850D01*
X130829050Y-104114600D01*
X132194300Y-104114600D01*
X132194300Y-104094600D01*
X132448300Y-104094600D01*
X132448300Y-104114600D01*
X133813550Y-104114600D01*
X133972300Y-103955850D01*
X133972300Y-103099290D01*
X133875627Y-102865901D01*
X133696998Y-102687273D01*
X133654334Y-102669601D01*
X133878970Y-102333410D01*
X133929920Y-102077267D01*
X142320838Y-102077267D01*
X142462883Y-102421043D01*
X142725673Y-102684292D01*
X143069201Y-102826938D01*
X143194500Y-102827047D01*
X143194500Y-105482537D01*
X143162308Y-105514673D01*
X143019662Y-105858201D01*
X143019338Y-106230167D01*
X143161383Y-106573943D01*
X143424173Y-106837192D01*
X143767701Y-106979838D01*
X144139667Y-106980162D01*
X144483443Y-106838117D01*
X144746692Y-106575327D01*
X144889338Y-106231799D01*
X144889662Y-105859833D01*
X144747617Y-105516057D01*
X144714500Y-105482882D01*
X144714500Y-104630366D01*
X145054067Y-104630662D01*
X145397843Y-104488617D01*
X145405573Y-104480900D01*
X146821037Y-104480900D01*
X146853173Y-104513092D01*
X147196701Y-104655738D01*
X147568667Y-104656062D01*
X147912443Y-104514017D01*
X148175692Y-104251227D01*
X148318338Y-103907699D01*
X148318662Y-103535733D01*
X148176617Y-103191957D01*
X148068748Y-103083900D01*
X152726537Y-103083900D01*
X152758673Y-103116092D01*
X153102201Y-103258738D01*
X153474167Y-103259062D01*
X153817943Y-103117017D01*
X154081192Y-102854227D01*
X154223838Y-102510699D01*
X154224162Y-102138733D01*
X154082117Y-101794957D01*
X153819327Y-101531708D01*
X153745036Y-101500859D01*
X153983043Y-101402517D01*
X154246292Y-101139727D01*
X154388938Y-100796199D01*
X154389262Y-100424233D01*
X154247217Y-100080457D01*
X153984427Y-99817208D01*
X153640899Y-99674562D01*
X153268933Y-99674238D01*
X152925157Y-99816283D01*
X152866538Y-99874800D01*
X152302063Y-99874800D01*
X152269927Y-99842608D01*
X151926399Y-99699962D01*
X151554433Y-99699638D01*
X151210657Y-99841683D01*
X150947408Y-100104473D01*
X150804762Y-100448001D01*
X150804438Y-100819967D01*
X150946483Y-101163743D01*
X151209273Y-101426992D01*
X151538982Y-101563900D01*
X145202741Y-101563900D01*
X145157927Y-101519008D01*
X144814399Y-101376362D01*
X144714500Y-101376275D01*
X144714500Y-100955941D01*
X144759392Y-100911127D01*
X144902038Y-100567599D01*
X144902362Y-100195633D01*
X144760317Y-99851857D01*
X144497527Y-99588608D01*
X144165991Y-99450942D01*
X144074517Y-99229557D01*
X143811727Y-98966308D01*
X143468199Y-98823662D01*
X143096233Y-98823338D01*
X142752457Y-98965383D01*
X142489208Y-99228173D01*
X142346562Y-99571701D01*
X142346238Y-99943667D01*
X142488283Y-100287443D01*
X142521400Y-100320618D01*
X142521400Y-101304281D01*
X142463808Y-101361773D01*
X142321162Y-101705301D01*
X142320838Y-102077267D01*
X133929920Y-102077267D01*
X134004645Y-101701600D01*
X133878970Y-101069790D01*
X133521078Y-100534167D01*
X132985455Y-100176275D01*
X132353645Y-100050600D01*
X132288955Y-100050600D01*
X131657145Y-100176275D01*
X131121522Y-100534167D01*
X130763630Y-101069790D01*
X130637955Y-101701600D01*
X130504000Y-101701600D01*
X130504000Y-98394267D01*
X150652038Y-98394267D01*
X150794083Y-98738043D01*
X151056873Y-99001292D01*
X151400401Y-99143938D01*
X151772367Y-99144262D01*
X152116143Y-99002217D01*
X152379392Y-98739427D01*
X152522038Y-98395899D01*
X152522362Y-98023933D01*
X152380317Y-97680157D01*
X152309100Y-97608816D01*
X152309100Y-96556100D01*
X154314037Y-96556100D01*
X154346173Y-96588292D01*
X154689701Y-96730938D01*
X155061667Y-96731262D01*
X155405443Y-96589217D01*
X155668692Y-96326427D01*
X155811338Y-95982899D01*
X155811662Y-95610933D01*
X155669617Y-95267157D01*
X155406827Y-95003908D01*
X155063299Y-94861262D01*
X154691333Y-94860938D01*
X154347557Y-95002983D01*
X154314382Y-95036100D01*
X151726900Y-95036100D01*
X151436060Y-95093952D01*
X151189499Y-95258699D01*
X151011699Y-95436499D01*
X150846952Y-95683061D01*
X150789100Y-95973900D01*
X150789100Y-97693001D01*
X150652362Y-98022301D01*
X150652038Y-98394267D01*
X130504000Y-98394267D01*
X130504000Y-97271167D01*
X141254038Y-97271167D01*
X141396083Y-97614943D01*
X141658873Y-97878192D01*
X142002401Y-98020838D01*
X142374367Y-98021162D01*
X142718143Y-97879117D01*
X142981392Y-97616327D01*
X143124038Y-97272799D01*
X143124362Y-96900833D01*
X142982317Y-96557057D01*
X142961900Y-96536604D01*
X142961900Y-94843600D01*
X155898255Y-94843600D01*
X156012329Y-95417089D01*
X156337185Y-95903270D01*
X156651966Y-96113600D01*
X156337185Y-96323930D01*
X156012329Y-96810111D01*
X155898255Y-97383600D01*
X156012329Y-97957089D01*
X156337185Y-98443270D01*
X156651966Y-98653600D01*
X156337185Y-98863930D01*
X156012329Y-99350111D01*
X155898255Y-99923600D01*
X156012329Y-100497089D01*
X156337185Y-100983270D01*
X156651966Y-101193600D01*
X156337185Y-101403930D01*
X156012329Y-101890111D01*
X155898255Y-102463600D01*
X156012329Y-103037089D01*
X156337185Y-103523270D01*
X156651966Y-103733600D01*
X156337185Y-103943930D01*
X156012329Y-104430111D01*
X155898255Y-105003600D01*
X156012329Y-105577089D01*
X156337185Y-106063270D01*
X156646669Y-106270061D01*
X156230868Y-106641564D01*
X155976891Y-107168809D01*
X155974242Y-107184574D01*
X156095383Y-107416600D01*
X157454600Y-107416600D01*
X157454600Y-107396600D01*
X157708600Y-107396600D01*
X157708600Y-107416600D01*
X159067817Y-107416600D01*
X159188958Y-107184574D01*
X159186309Y-107168809D01*
X158932332Y-106641564D01*
X158516531Y-106270061D01*
X158826015Y-106063270D01*
X159150871Y-105577089D01*
X159264945Y-105003600D01*
X159150871Y-104430111D01*
X158826015Y-103943930D01*
X158511234Y-103733600D01*
X158826015Y-103523270D01*
X159150871Y-103037089D01*
X159264945Y-102463600D01*
X159150871Y-101890111D01*
X158826015Y-101403930D01*
X158511234Y-101193600D01*
X158826015Y-100983270D01*
X159150871Y-100497089D01*
X159264945Y-99923600D01*
X159150871Y-99350111D01*
X158826015Y-98863930D01*
X158511234Y-98653600D01*
X158826015Y-98443270D01*
X159150871Y-97957089D01*
X159264945Y-97383600D01*
X159150871Y-96810111D01*
X158826015Y-96323930D01*
X158511234Y-96113600D01*
X158826015Y-95903270D01*
X159150871Y-95417089D01*
X159264945Y-94843600D01*
X159150871Y-94270111D01*
X158826015Y-93783930D01*
X158811687Y-93774357D01*
X158832917Y-93770362D01*
X159049041Y-93631290D01*
X159194031Y-93419090D01*
X159245040Y-93167200D01*
X159245040Y-91440000D01*
X159200762Y-91204683D01*
X159061690Y-90988559D01*
X158849490Y-90843569D01*
X158597600Y-90792560D01*
X156565600Y-90792560D01*
X156330283Y-90836838D01*
X156114159Y-90975910D01*
X155969169Y-91188110D01*
X155918160Y-91440000D01*
X155918160Y-93167200D01*
X155962438Y-93402517D01*
X156101510Y-93618641D01*
X156313710Y-93763631D01*
X156355039Y-93772000D01*
X156337185Y-93783930D01*
X156012329Y-94270111D01*
X155898255Y-94843600D01*
X142961900Y-94843600D01*
X142961900Y-92904163D01*
X142994092Y-92872027D01*
X143136738Y-92528499D01*
X143137062Y-92156533D01*
X142995017Y-91812757D01*
X142732227Y-91549508D01*
X142388699Y-91406862D01*
X142016733Y-91406538D01*
X141672957Y-91548583D01*
X141409708Y-91811373D01*
X141267062Y-92154901D01*
X141266738Y-92526867D01*
X141408783Y-92870643D01*
X141441900Y-92903818D01*
X141441900Y-96510859D01*
X141397008Y-96555673D01*
X141254362Y-96899201D01*
X141254038Y-97271167D01*
X130504000Y-97271167D01*
X130504000Y-88086000D01*
X160072000Y-88086000D01*
X160072000Y-109526000D01*
M02*
