G04 #@! TF.FileFunction,Legend,Top*
%FSLAX46Y46*%
G04 Gerber Fmt 4.6, Leading zero omitted, Abs format (unit mm)*
G04 Created by KiCad (PCBNEW 4.0.1+dfsg1-stable) date Tue 23 Feb 2016 08:47:47 PM PST*
%MOMM*%
G01*
G04 APERTURE LIST*
%ADD10C,0.100000*%
%ADD11C,0.300000*%
%ADD12C,0.150000*%
%ADD13C,0.050000*%
%ADD14C,0.060000*%
%ADD15C,0.062500*%
G04 APERTURE END LIST*
D10*
X130905238Y-89026381D02*
X130976667Y-89050190D01*
X131095714Y-89050190D01*
X131143333Y-89026381D01*
X131167143Y-89002571D01*
X131190952Y-88954952D01*
X131190952Y-88907333D01*
X131167143Y-88859714D01*
X131143333Y-88835905D01*
X131095714Y-88812095D01*
X131000476Y-88788286D01*
X130952857Y-88764476D01*
X130929048Y-88740667D01*
X130905238Y-88693048D01*
X130905238Y-88645429D01*
X130929048Y-88597810D01*
X130952857Y-88574000D01*
X131000476Y-88550190D01*
X131119524Y-88550190D01*
X131190952Y-88574000D01*
X131476666Y-89050190D02*
X131429047Y-89026381D01*
X131405238Y-89002571D01*
X131381428Y-88954952D01*
X131381428Y-88812095D01*
X131405238Y-88764476D01*
X131429047Y-88740667D01*
X131476666Y-88716857D01*
X131548095Y-88716857D01*
X131595714Y-88740667D01*
X131619523Y-88764476D01*
X131643333Y-88812095D01*
X131643333Y-88954952D01*
X131619523Y-89002571D01*
X131595714Y-89026381D01*
X131548095Y-89050190D01*
X131476666Y-89050190D01*
X131929047Y-89050190D02*
X131881428Y-89026381D01*
X131857619Y-88978762D01*
X131857619Y-88550190D01*
X132333809Y-89050190D02*
X132333809Y-88788286D01*
X132310000Y-88740667D01*
X132262381Y-88716857D01*
X132167143Y-88716857D01*
X132119524Y-88740667D01*
X132333809Y-89026381D02*
X132286190Y-89050190D01*
X132167143Y-89050190D01*
X132119524Y-89026381D01*
X132095714Y-88978762D01*
X132095714Y-88931143D01*
X132119524Y-88883524D01*
X132167143Y-88859714D01*
X132286190Y-88859714D01*
X132333809Y-88835905D01*
X132571905Y-89050190D02*
X132571905Y-88716857D01*
X132571905Y-88812095D02*
X132595714Y-88764476D01*
X132619524Y-88740667D01*
X132667143Y-88716857D01*
X132714762Y-88716857D01*
X133238571Y-88907333D02*
X133476666Y-88907333D01*
X133190952Y-89050190D02*
X133357619Y-88550190D01*
X133524285Y-89050190D01*
X133690952Y-89050190D02*
X133690952Y-88716857D01*
X133690952Y-88812095D02*
X133714761Y-88764476D01*
X133738571Y-88740667D01*
X133786190Y-88716857D01*
X133833809Y-88716857D01*
X134000476Y-89050190D02*
X134000476Y-88716857D01*
X134000476Y-88812095D02*
X134024285Y-88764476D01*
X134048095Y-88740667D01*
X134095714Y-88716857D01*
X134143333Y-88716857D01*
X134524285Y-89050190D02*
X134524285Y-88788286D01*
X134500476Y-88740667D01*
X134452857Y-88716857D01*
X134357619Y-88716857D01*
X134310000Y-88740667D01*
X134524285Y-89026381D02*
X134476666Y-89050190D01*
X134357619Y-89050190D01*
X134310000Y-89026381D01*
X134286190Y-88978762D01*
X134286190Y-88931143D01*
X134310000Y-88883524D01*
X134357619Y-88859714D01*
X134476666Y-88859714D01*
X134524285Y-88835905D01*
X134714762Y-88716857D02*
X134833809Y-89050190D01*
X134952857Y-88716857D02*
X134833809Y-89050190D01*
X134786190Y-89169238D01*
X134762381Y-89193048D01*
X134714762Y-89216857D01*
X135809999Y-89050190D02*
X135643332Y-88812095D01*
X135524285Y-89050190D02*
X135524285Y-88550190D01*
X135714761Y-88550190D01*
X135762380Y-88574000D01*
X135786189Y-88597810D01*
X135809999Y-88645429D01*
X135809999Y-88716857D01*
X135786189Y-88764476D01*
X135762380Y-88788286D01*
X135714761Y-88812095D01*
X135524285Y-88812095D01*
X136214761Y-89026381D02*
X136167142Y-89050190D01*
X136071904Y-89050190D01*
X136024285Y-89026381D01*
X136000475Y-88978762D01*
X136000475Y-88788286D01*
X136024285Y-88740667D01*
X136071904Y-88716857D01*
X136167142Y-88716857D01*
X136214761Y-88740667D01*
X136238570Y-88788286D01*
X136238570Y-88835905D01*
X136000475Y-88883524D01*
X136405237Y-88716857D02*
X136524284Y-89050190D01*
X136643332Y-88716857D01*
X137309998Y-88550190D02*
X137357617Y-88550190D01*
X137405236Y-88574000D01*
X137429045Y-88597810D01*
X137452855Y-88645429D01*
X137476664Y-88740667D01*
X137476664Y-88859714D01*
X137452855Y-88954952D01*
X137429045Y-89002571D01*
X137405236Y-89026381D01*
X137357617Y-89050190D01*
X137309998Y-89050190D01*
X137262379Y-89026381D01*
X137238569Y-89002571D01*
X137214760Y-88954952D01*
X137190950Y-88859714D01*
X137190950Y-88740667D01*
X137214760Y-88645429D01*
X137238569Y-88597810D01*
X137262379Y-88574000D01*
X137309998Y-88550190D01*
X131024286Y-89350190D02*
X131119524Y-89350190D01*
X131167143Y-89374000D01*
X131214762Y-89421619D01*
X131238571Y-89516857D01*
X131238571Y-89683524D01*
X131214762Y-89778762D01*
X131167143Y-89826381D01*
X131119524Y-89850190D01*
X131024286Y-89850190D01*
X130976667Y-89826381D01*
X130929048Y-89778762D01*
X130905238Y-89683524D01*
X130905238Y-89516857D01*
X130929048Y-89421619D01*
X130976667Y-89374000D01*
X131024286Y-89350190D01*
X131452858Y-89850190D02*
X131452858Y-89516857D01*
X131452858Y-89612095D02*
X131476667Y-89564476D01*
X131500477Y-89540667D01*
X131548096Y-89516857D01*
X131595715Y-89516857D01*
X131952858Y-89826381D02*
X131905239Y-89850190D01*
X131810001Y-89850190D01*
X131762382Y-89826381D01*
X131738572Y-89778762D01*
X131738572Y-89588286D01*
X131762382Y-89540667D01*
X131810001Y-89516857D01*
X131905239Y-89516857D01*
X131952858Y-89540667D01*
X131976667Y-89588286D01*
X131976667Y-89635905D01*
X131738572Y-89683524D01*
X132405238Y-89516857D02*
X132405238Y-89921619D01*
X132381429Y-89969238D01*
X132357619Y-89993048D01*
X132310000Y-90016857D01*
X132238572Y-90016857D01*
X132190953Y-89993048D01*
X132405238Y-89826381D02*
X132357619Y-89850190D01*
X132262381Y-89850190D01*
X132214762Y-89826381D01*
X132190953Y-89802571D01*
X132167143Y-89754952D01*
X132167143Y-89612095D01*
X132190953Y-89564476D01*
X132214762Y-89540667D01*
X132262381Y-89516857D01*
X132357619Y-89516857D01*
X132405238Y-89540667D01*
X132714762Y-89850190D02*
X132667143Y-89826381D01*
X132643334Y-89802571D01*
X132619524Y-89754952D01*
X132619524Y-89612095D01*
X132643334Y-89564476D01*
X132667143Y-89540667D01*
X132714762Y-89516857D01*
X132786191Y-89516857D01*
X132833810Y-89540667D01*
X132857619Y-89564476D01*
X132881429Y-89612095D01*
X132881429Y-89754952D01*
X132857619Y-89802571D01*
X132833810Y-89826381D01*
X132786191Y-89850190D01*
X132714762Y-89850190D01*
X133095715Y-89516857D02*
X133095715Y-89850190D01*
X133095715Y-89564476D02*
X133119524Y-89540667D01*
X133167143Y-89516857D01*
X133238572Y-89516857D01*
X133286191Y-89540667D01*
X133310000Y-89588286D01*
X133310000Y-89850190D01*
X133905238Y-89826381D02*
X133976667Y-89850190D01*
X134095714Y-89850190D01*
X134143333Y-89826381D01*
X134167143Y-89802571D01*
X134190952Y-89754952D01*
X134190952Y-89707333D01*
X134167143Y-89659714D01*
X134143333Y-89635905D01*
X134095714Y-89612095D01*
X134000476Y-89588286D01*
X133952857Y-89564476D01*
X133929048Y-89540667D01*
X133905238Y-89493048D01*
X133905238Y-89445429D01*
X133929048Y-89397810D01*
X133952857Y-89374000D01*
X134000476Y-89350190D01*
X134119524Y-89350190D01*
X134190952Y-89374000D01*
X134405238Y-89850190D02*
X134405238Y-89516857D01*
X134405238Y-89564476D02*
X134429047Y-89540667D01*
X134476666Y-89516857D01*
X134548095Y-89516857D01*
X134595714Y-89540667D01*
X134619523Y-89588286D01*
X134619523Y-89850190D01*
X134619523Y-89588286D02*
X134643333Y-89540667D01*
X134690952Y-89516857D01*
X134762380Y-89516857D01*
X134810000Y-89540667D01*
X134833809Y-89588286D01*
X134833809Y-89850190D01*
X135286190Y-89850190D02*
X135286190Y-89588286D01*
X135262381Y-89540667D01*
X135214762Y-89516857D01*
X135119524Y-89516857D01*
X135071905Y-89540667D01*
X135286190Y-89826381D02*
X135238571Y-89850190D01*
X135119524Y-89850190D01*
X135071905Y-89826381D01*
X135048095Y-89778762D01*
X135048095Y-89731143D01*
X135071905Y-89683524D01*
X135119524Y-89659714D01*
X135238571Y-89659714D01*
X135286190Y-89635905D01*
X135595714Y-89850190D02*
X135548095Y-89826381D01*
X135524286Y-89778762D01*
X135524286Y-89350190D01*
X135857619Y-89850190D02*
X135810000Y-89826381D01*
X135786191Y-89778762D01*
X135786191Y-89350190D01*
X136405238Y-89826381D02*
X136476667Y-89850190D01*
X136595714Y-89850190D01*
X136643333Y-89826381D01*
X136667143Y-89802571D01*
X136690952Y-89754952D01*
X136690952Y-89707333D01*
X136667143Y-89659714D01*
X136643333Y-89635905D01*
X136595714Y-89612095D01*
X136500476Y-89588286D01*
X136452857Y-89564476D01*
X136429048Y-89540667D01*
X136405238Y-89493048D01*
X136405238Y-89445429D01*
X136429048Y-89397810D01*
X136452857Y-89374000D01*
X136500476Y-89350190D01*
X136619524Y-89350190D01*
X136690952Y-89374000D01*
X137119523Y-89850190D02*
X137119523Y-89588286D01*
X137095714Y-89540667D01*
X137048095Y-89516857D01*
X136952857Y-89516857D01*
X136905238Y-89540667D01*
X137119523Y-89826381D02*
X137071904Y-89850190D01*
X136952857Y-89850190D01*
X136905238Y-89826381D01*
X136881428Y-89778762D01*
X136881428Y-89731143D01*
X136905238Y-89683524D01*
X136952857Y-89659714D01*
X137071904Y-89659714D01*
X137119523Y-89635905D01*
X137286190Y-89516857D02*
X137476666Y-89516857D01*
X137357619Y-89350190D02*
X137357619Y-89778762D01*
X137381428Y-89826381D01*
X137429047Y-89850190D01*
X137476666Y-89850190D01*
X137833809Y-89826381D02*
X137786190Y-89850190D01*
X137690952Y-89850190D01*
X137643333Y-89826381D01*
X137619523Y-89778762D01*
X137619523Y-89588286D01*
X137643333Y-89540667D01*
X137690952Y-89516857D01*
X137786190Y-89516857D01*
X137833809Y-89540667D01*
X137857618Y-89588286D01*
X137857618Y-89635905D01*
X137619523Y-89683524D01*
X138143332Y-89850190D02*
X138095713Y-89826381D01*
X138071904Y-89778762D01*
X138071904Y-89350190D01*
X138405237Y-89850190D02*
X138357618Y-89826381D01*
X138333809Y-89778762D01*
X138333809Y-89350190D01*
X138595714Y-89850190D02*
X138595714Y-89516857D01*
X138595714Y-89350190D02*
X138571904Y-89374000D01*
X138595714Y-89397810D01*
X138619523Y-89374000D01*
X138595714Y-89350190D01*
X138595714Y-89397810D01*
X138762380Y-89516857D02*
X138952856Y-89516857D01*
X138833809Y-89350190D02*
X138833809Y-89778762D01*
X138857618Y-89826381D01*
X138905237Y-89850190D01*
X138952856Y-89850190D01*
X139309999Y-89826381D02*
X139262380Y-89850190D01*
X139167142Y-89850190D01*
X139119523Y-89826381D01*
X139095713Y-89778762D01*
X139095713Y-89588286D01*
X139119523Y-89540667D01*
X139167142Y-89516857D01*
X139262380Y-89516857D01*
X139309999Y-89540667D01*
X139333808Y-89588286D01*
X139333808Y-89635905D01*
X139095713Y-89683524D01*
X139524284Y-89826381D02*
X139571903Y-89850190D01*
X139667141Y-89850190D01*
X139714760Y-89826381D01*
X139738570Y-89778762D01*
X139738570Y-89754952D01*
X139714760Y-89707333D01*
X139667141Y-89683524D01*
X139595713Y-89683524D01*
X139548094Y-89659714D01*
X139524284Y-89612095D01*
X139524284Y-89588286D01*
X139548094Y-89540667D01*
X139595713Y-89516857D01*
X139667141Y-89516857D01*
X139714760Y-89540667D01*
X130929048Y-90650190D02*
X130929048Y-90150190D01*
X131143333Y-90650190D02*
X131143333Y-90388286D01*
X131119524Y-90340667D01*
X131071905Y-90316857D01*
X131000476Y-90316857D01*
X130952857Y-90340667D01*
X130929048Y-90364476D01*
X131310000Y-90316857D02*
X131500476Y-90316857D01*
X131381429Y-90150190D02*
X131381429Y-90578762D01*
X131405238Y-90626381D01*
X131452857Y-90650190D01*
X131500476Y-90650190D01*
X131595714Y-90316857D02*
X131786190Y-90316857D01*
X131667143Y-90150190D02*
X131667143Y-90578762D01*
X131690952Y-90626381D01*
X131738571Y-90650190D01*
X131786190Y-90650190D01*
X131952857Y-90316857D02*
X131952857Y-90816857D01*
X131952857Y-90340667D02*
X132000476Y-90316857D01*
X132095714Y-90316857D01*
X132143333Y-90340667D01*
X132167142Y-90364476D01*
X132190952Y-90412095D01*
X132190952Y-90554952D01*
X132167142Y-90602571D01*
X132143333Y-90626381D01*
X132095714Y-90650190D01*
X132000476Y-90650190D01*
X131952857Y-90626381D01*
X132381428Y-90626381D02*
X132429047Y-90650190D01*
X132524285Y-90650190D01*
X132571904Y-90626381D01*
X132595714Y-90578762D01*
X132595714Y-90554952D01*
X132571904Y-90507333D01*
X132524285Y-90483524D01*
X132452857Y-90483524D01*
X132405238Y-90459714D01*
X132381428Y-90412095D01*
X132381428Y-90388286D01*
X132405238Y-90340667D01*
X132452857Y-90316857D01*
X132524285Y-90316857D01*
X132571904Y-90340667D01*
X132810000Y-90602571D02*
X132833809Y-90626381D01*
X132810000Y-90650190D01*
X132786190Y-90626381D01*
X132810000Y-90602571D01*
X132810000Y-90650190D01*
X132810000Y-90340667D02*
X132833809Y-90364476D01*
X132810000Y-90388286D01*
X132786190Y-90364476D01*
X132810000Y-90340667D01*
X132810000Y-90388286D01*
X133405237Y-90126381D02*
X132976666Y-90769238D01*
X133929047Y-90126381D02*
X133500476Y-90769238D01*
X134310000Y-90316857D02*
X134310000Y-90721619D01*
X134286191Y-90769238D01*
X134262381Y-90793048D01*
X134214762Y-90816857D01*
X134143334Y-90816857D01*
X134095715Y-90793048D01*
X134310000Y-90626381D02*
X134262381Y-90650190D01*
X134167143Y-90650190D01*
X134119524Y-90626381D01*
X134095715Y-90602571D01*
X134071905Y-90554952D01*
X134071905Y-90412095D01*
X134095715Y-90364476D01*
X134119524Y-90340667D01*
X134167143Y-90316857D01*
X134262381Y-90316857D01*
X134310000Y-90340667D01*
X134548096Y-90650190D02*
X134548096Y-90316857D01*
X134548096Y-90150190D02*
X134524286Y-90174000D01*
X134548096Y-90197810D01*
X134571905Y-90174000D01*
X134548096Y-90150190D01*
X134548096Y-90197810D01*
X134714762Y-90316857D02*
X134905238Y-90316857D01*
X134786191Y-90150190D02*
X134786191Y-90578762D01*
X134810000Y-90626381D01*
X134857619Y-90650190D01*
X134905238Y-90650190D01*
X135071905Y-90650190D02*
X135071905Y-90150190D01*
X135286190Y-90650190D02*
X135286190Y-90388286D01*
X135262381Y-90340667D01*
X135214762Y-90316857D01*
X135143333Y-90316857D01*
X135095714Y-90340667D01*
X135071905Y-90364476D01*
X135738571Y-90316857D02*
X135738571Y-90650190D01*
X135524286Y-90316857D02*
X135524286Y-90578762D01*
X135548095Y-90626381D01*
X135595714Y-90650190D01*
X135667143Y-90650190D01*
X135714762Y-90626381D01*
X135738571Y-90602571D01*
X135976667Y-90650190D02*
X135976667Y-90150190D01*
X135976667Y-90340667D02*
X136024286Y-90316857D01*
X136119524Y-90316857D01*
X136167143Y-90340667D01*
X136190952Y-90364476D01*
X136214762Y-90412095D01*
X136214762Y-90554952D01*
X136190952Y-90602571D01*
X136167143Y-90626381D01*
X136119524Y-90650190D01*
X136024286Y-90650190D01*
X135976667Y-90626381D01*
X136429048Y-90602571D02*
X136452857Y-90626381D01*
X136429048Y-90650190D01*
X136405238Y-90626381D01*
X136429048Y-90602571D01*
X136429048Y-90650190D01*
X136881428Y-90626381D02*
X136833809Y-90650190D01*
X136738571Y-90650190D01*
X136690952Y-90626381D01*
X136667143Y-90602571D01*
X136643333Y-90554952D01*
X136643333Y-90412095D01*
X136667143Y-90364476D01*
X136690952Y-90340667D01*
X136738571Y-90316857D01*
X136833809Y-90316857D01*
X136881428Y-90340667D01*
X137167142Y-90650190D02*
X137119523Y-90626381D01*
X137095714Y-90602571D01*
X137071904Y-90554952D01*
X137071904Y-90412095D01*
X137095714Y-90364476D01*
X137119523Y-90340667D01*
X137167142Y-90316857D01*
X137238571Y-90316857D01*
X137286190Y-90340667D01*
X137309999Y-90364476D01*
X137333809Y-90412095D01*
X137333809Y-90554952D01*
X137309999Y-90602571D01*
X137286190Y-90626381D01*
X137238571Y-90650190D01*
X137167142Y-90650190D01*
X137548095Y-90650190D02*
X137548095Y-90316857D01*
X137548095Y-90364476D02*
X137571904Y-90340667D01*
X137619523Y-90316857D01*
X137690952Y-90316857D01*
X137738571Y-90340667D01*
X137762380Y-90388286D01*
X137762380Y-90650190D01*
X137762380Y-90388286D02*
X137786190Y-90340667D01*
X137833809Y-90316857D01*
X137905237Y-90316857D01*
X137952857Y-90340667D01*
X137976666Y-90388286D01*
X137976666Y-90650190D01*
X138571904Y-90126381D02*
X138143333Y-90769238D01*
X138810000Y-90650190D02*
X138762381Y-90626381D01*
X138738572Y-90602571D01*
X138714762Y-90554952D01*
X138714762Y-90412095D01*
X138738572Y-90364476D01*
X138762381Y-90340667D01*
X138810000Y-90316857D01*
X138881429Y-90316857D01*
X138929048Y-90340667D01*
X138952857Y-90364476D01*
X138976667Y-90412095D01*
X138976667Y-90554952D01*
X138952857Y-90602571D01*
X138929048Y-90626381D01*
X138881429Y-90650190D01*
X138810000Y-90650190D01*
X139190953Y-90650190D02*
X139190953Y-90316857D01*
X139190953Y-90412095D02*
X139214762Y-90364476D01*
X139238572Y-90340667D01*
X139286191Y-90316857D01*
X139333810Y-90316857D01*
X139690953Y-90626381D02*
X139643334Y-90650190D01*
X139548096Y-90650190D01*
X139500477Y-90626381D01*
X139476667Y-90578762D01*
X139476667Y-90388286D01*
X139500477Y-90340667D01*
X139548096Y-90316857D01*
X139643334Y-90316857D01*
X139690953Y-90340667D01*
X139714762Y-90388286D01*
X139714762Y-90435905D01*
X139476667Y-90483524D01*
X139905238Y-90626381D02*
X139952857Y-90650190D01*
X140048095Y-90650190D01*
X140095714Y-90626381D01*
X140119524Y-90578762D01*
X140119524Y-90554952D01*
X140095714Y-90507333D01*
X140048095Y-90483524D01*
X139976667Y-90483524D01*
X139929048Y-90459714D01*
X139905238Y-90412095D01*
X139905238Y-90388286D01*
X139929048Y-90340667D01*
X139976667Y-90316857D01*
X140048095Y-90316857D01*
X140095714Y-90340667D01*
X140548095Y-90650190D02*
X140548095Y-90388286D01*
X140524286Y-90340667D01*
X140476667Y-90316857D01*
X140381429Y-90316857D01*
X140333810Y-90340667D01*
X140548095Y-90626381D02*
X140500476Y-90650190D01*
X140381429Y-90650190D01*
X140333810Y-90626381D01*
X140310000Y-90578762D01*
X140310000Y-90531143D01*
X140333810Y-90483524D01*
X140381429Y-90459714D01*
X140500476Y-90459714D01*
X140548095Y-90435905D01*
X140714762Y-90316857D02*
X140905238Y-90316857D01*
X140786191Y-90150190D02*
X140786191Y-90578762D01*
X140810000Y-90626381D01*
X140857619Y-90650190D01*
X140905238Y-90650190D01*
X141429047Y-90126381D02*
X141000476Y-90769238D01*
X141571905Y-90626381D02*
X141619524Y-90650190D01*
X141714762Y-90650190D01*
X141762381Y-90626381D01*
X141786191Y-90578762D01*
X141786191Y-90554952D01*
X141762381Y-90507333D01*
X141714762Y-90483524D01*
X141643334Y-90483524D01*
X141595715Y-90459714D01*
X141571905Y-90412095D01*
X141571905Y-90388286D01*
X141595715Y-90340667D01*
X141643334Y-90316857D01*
X141714762Y-90316857D01*
X141762381Y-90340667D01*
X142071905Y-90650190D02*
X142024286Y-90626381D01*
X142000477Y-90602571D01*
X141976667Y-90554952D01*
X141976667Y-90412095D01*
X142000477Y-90364476D01*
X142024286Y-90340667D01*
X142071905Y-90316857D01*
X142143334Y-90316857D01*
X142190953Y-90340667D01*
X142214762Y-90364476D01*
X142238572Y-90412095D01*
X142238572Y-90554952D01*
X142214762Y-90602571D01*
X142190953Y-90626381D01*
X142143334Y-90650190D01*
X142071905Y-90650190D01*
X142524286Y-90650190D02*
X142476667Y-90626381D01*
X142452858Y-90578762D01*
X142452858Y-90150190D01*
X142929048Y-90650190D02*
X142929048Y-90388286D01*
X142905239Y-90340667D01*
X142857620Y-90316857D01*
X142762382Y-90316857D01*
X142714763Y-90340667D01*
X142929048Y-90626381D02*
X142881429Y-90650190D01*
X142762382Y-90650190D01*
X142714763Y-90626381D01*
X142690953Y-90578762D01*
X142690953Y-90531143D01*
X142714763Y-90483524D01*
X142762382Y-90459714D01*
X142881429Y-90459714D01*
X142929048Y-90435905D01*
X143167144Y-90650190D02*
X143167144Y-90316857D01*
X143167144Y-90412095D02*
X143190953Y-90364476D01*
X143214763Y-90340667D01*
X143262382Y-90316857D01*
X143310001Y-90316857D01*
X130905238Y-91307333D02*
X131143333Y-91307333D01*
X130857619Y-91450190D02*
X131024286Y-90950190D01*
X131190952Y-91450190D01*
X131357619Y-91116857D02*
X131357619Y-91450190D01*
X131357619Y-91164476D02*
X131381428Y-91140667D01*
X131429047Y-91116857D01*
X131500476Y-91116857D01*
X131548095Y-91140667D01*
X131571904Y-91188286D01*
X131571904Y-91450190D01*
X132024285Y-91450190D02*
X132024285Y-90950190D01*
X132024285Y-91426381D02*
X131976666Y-91450190D01*
X131881428Y-91450190D01*
X131833809Y-91426381D01*
X131810000Y-91402571D01*
X131786190Y-91354952D01*
X131786190Y-91212095D01*
X131810000Y-91164476D01*
X131833809Y-91140667D01*
X131881428Y-91116857D01*
X131976666Y-91116857D01*
X132024285Y-91140667D01*
X132262381Y-91450190D02*
X132262381Y-91116857D01*
X132262381Y-91212095D02*
X132286190Y-91164476D01*
X132310000Y-91140667D01*
X132357619Y-91116857D01*
X132405238Y-91116857D01*
X132762381Y-91426381D02*
X132714762Y-91450190D01*
X132619524Y-91450190D01*
X132571905Y-91426381D01*
X132548095Y-91378762D01*
X132548095Y-91188286D01*
X132571905Y-91140667D01*
X132619524Y-91116857D01*
X132714762Y-91116857D01*
X132762381Y-91140667D01*
X132786190Y-91188286D01*
X132786190Y-91235905D01*
X132548095Y-91283524D01*
X132952857Y-91116857D02*
X133048095Y-91450190D01*
X133143333Y-91212095D01*
X133238571Y-91450190D01*
X133333809Y-91116857D01*
X134167142Y-90974000D02*
X134119523Y-90950190D01*
X134048095Y-90950190D01*
X133976666Y-90974000D01*
X133929047Y-91021619D01*
X133905238Y-91069238D01*
X133881428Y-91164476D01*
X133881428Y-91235905D01*
X133905238Y-91331143D01*
X133929047Y-91378762D01*
X133976666Y-91426381D01*
X134048095Y-91450190D01*
X134095714Y-91450190D01*
X134167142Y-91426381D01*
X134190952Y-91402571D01*
X134190952Y-91235905D01*
X134095714Y-91235905D01*
X134405238Y-91450190D02*
X134405238Y-91116857D01*
X134405238Y-91212095D02*
X134429047Y-91164476D01*
X134452857Y-91140667D01*
X134500476Y-91116857D01*
X134548095Y-91116857D01*
X134905238Y-91426381D02*
X134857619Y-91450190D01*
X134762381Y-91450190D01*
X134714762Y-91426381D01*
X134690952Y-91378762D01*
X134690952Y-91188286D01*
X134714762Y-91140667D01*
X134762381Y-91116857D01*
X134857619Y-91116857D01*
X134905238Y-91140667D01*
X134929047Y-91188286D01*
X134929047Y-91235905D01*
X134690952Y-91283524D01*
X135333809Y-91426381D02*
X135286190Y-91450190D01*
X135190952Y-91450190D01*
X135143333Y-91426381D01*
X135119523Y-91378762D01*
X135119523Y-91188286D01*
X135143333Y-91140667D01*
X135190952Y-91116857D01*
X135286190Y-91116857D01*
X135333809Y-91140667D01*
X135357618Y-91188286D01*
X135357618Y-91235905D01*
X135119523Y-91283524D01*
X135571904Y-91116857D02*
X135571904Y-91450190D01*
X135571904Y-91164476D02*
X135595713Y-91140667D01*
X135643332Y-91116857D01*
X135714761Y-91116857D01*
X135762380Y-91140667D01*
X135786189Y-91188286D01*
X135786189Y-91450190D01*
X136024285Y-91450190D02*
X136024285Y-90950190D01*
X136024285Y-91140667D02*
X136071904Y-91116857D01*
X136167142Y-91116857D01*
X136214761Y-91140667D01*
X136238570Y-91164476D01*
X136262380Y-91212095D01*
X136262380Y-91354952D01*
X136238570Y-91402571D01*
X136214761Y-91426381D01*
X136167142Y-91450190D01*
X136071904Y-91450190D01*
X136024285Y-91426381D01*
X136667142Y-91426381D02*
X136619523Y-91450190D01*
X136524285Y-91450190D01*
X136476666Y-91426381D01*
X136452856Y-91378762D01*
X136452856Y-91188286D01*
X136476666Y-91140667D01*
X136524285Y-91116857D01*
X136619523Y-91116857D01*
X136667142Y-91140667D01*
X136690951Y-91188286D01*
X136690951Y-91235905D01*
X136452856Y-91283524D01*
X136905237Y-91450190D02*
X136905237Y-91116857D01*
X136905237Y-91212095D02*
X136929046Y-91164476D01*
X136952856Y-91140667D01*
X137000475Y-91116857D01*
X137048094Y-91116857D01*
X137429046Y-91116857D02*
X137429046Y-91521619D01*
X137405237Y-91569238D01*
X137381427Y-91593048D01*
X137333808Y-91616857D01*
X137262380Y-91616857D01*
X137214761Y-91593048D01*
X137429046Y-91426381D02*
X137381427Y-91450190D01*
X137286189Y-91450190D01*
X137238570Y-91426381D01*
X137214761Y-91402571D01*
X137190951Y-91354952D01*
X137190951Y-91212095D01*
X137214761Y-91164476D01*
X137238570Y-91140667D01*
X137286189Y-91116857D01*
X137381427Y-91116857D01*
X137429046Y-91140667D01*
X138452856Y-91450190D02*
X138429046Y-91450190D01*
X138381427Y-91426381D01*
X138309998Y-91354952D01*
X138190951Y-91212095D01*
X138143332Y-91140667D01*
X138119522Y-91069238D01*
X138119522Y-91021619D01*
X138143332Y-90974000D01*
X138190951Y-90950190D01*
X138214760Y-90950190D01*
X138262379Y-90974000D01*
X138286189Y-91021619D01*
X138286189Y-91045429D01*
X138262379Y-91093048D01*
X138238570Y-91116857D01*
X138095713Y-91212095D01*
X138071903Y-91235905D01*
X138048094Y-91283524D01*
X138048094Y-91354952D01*
X138071903Y-91402571D01*
X138095713Y-91426381D01*
X138143332Y-91450190D01*
X138214760Y-91450190D01*
X138262379Y-91426381D01*
X138286189Y-91402571D01*
X138357617Y-91307333D01*
X138381427Y-91235905D01*
X138381427Y-91188286D01*
X139024284Y-91307333D02*
X139262379Y-91307333D01*
X138976665Y-91450190D02*
X139143332Y-90950190D01*
X139309998Y-91450190D01*
X139690950Y-91116857D02*
X139690950Y-91450190D01*
X139476665Y-91116857D02*
X139476665Y-91378762D01*
X139500474Y-91426381D01*
X139548093Y-91450190D01*
X139619522Y-91450190D01*
X139667141Y-91426381D01*
X139690950Y-91402571D01*
X139905236Y-91426381D02*
X139952855Y-91450190D01*
X140048093Y-91450190D01*
X140095712Y-91426381D01*
X140119522Y-91378762D01*
X140119522Y-91354952D01*
X140095712Y-91307333D01*
X140048093Y-91283524D01*
X139976665Y-91283524D01*
X139929046Y-91259714D01*
X139905236Y-91212095D01*
X139905236Y-91188286D01*
X139929046Y-91140667D01*
X139976665Y-91116857D01*
X140048093Y-91116857D01*
X140095712Y-91140667D01*
X140262379Y-91116857D02*
X140452855Y-91116857D01*
X140333808Y-90950190D02*
X140333808Y-91378762D01*
X140357617Y-91426381D01*
X140405236Y-91450190D01*
X140452855Y-91450190D01*
X140619522Y-91450190D02*
X140619522Y-91116857D01*
X140619522Y-90950190D02*
X140595712Y-90974000D01*
X140619522Y-90997810D01*
X140643331Y-90974000D01*
X140619522Y-90950190D01*
X140619522Y-90997810D01*
X140857617Y-91116857D02*
X140857617Y-91450190D01*
X140857617Y-91164476D02*
X140881426Y-91140667D01*
X140929045Y-91116857D01*
X141000474Y-91116857D01*
X141048093Y-91140667D01*
X141071902Y-91188286D01*
X141071902Y-91450190D01*
X141833807Y-90950190D02*
X141833807Y-91307333D01*
X141809997Y-91378762D01*
X141762378Y-91426381D01*
X141690950Y-91450190D01*
X141643331Y-91450190D01*
X142143330Y-91450190D02*
X142095711Y-91426381D01*
X142071902Y-91402571D01*
X142048092Y-91354952D01*
X142048092Y-91212095D01*
X142071902Y-91164476D01*
X142095711Y-91140667D01*
X142143330Y-91116857D01*
X142214759Y-91116857D01*
X142262378Y-91140667D01*
X142286187Y-91164476D01*
X142309997Y-91212095D01*
X142309997Y-91354952D01*
X142286187Y-91402571D01*
X142262378Y-91426381D01*
X142214759Y-91450190D01*
X142143330Y-91450190D01*
X142500473Y-91426381D02*
X142548092Y-91450190D01*
X142643330Y-91450190D01*
X142690949Y-91426381D01*
X142714759Y-91378762D01*
X142714759Y-91354952D01*
X142690949Y-91307333D01*
X142643330Y-91283524D01*
X142571902Y-91283524D01*
X142524283Y-91259714D01*
X142500473Y-91212095D01*
X142500473Y-91188286D01*
X142524283Y-91140667D01*
X142571902Y-91116857D01*
X142643330Y-91116857D01*
X142690949Y-91140667D01*
X143119521Y-91426381D02*
X143071902Y-91450190D01*
X142976664Y-91450190D01*
X142929045Y-91426381D01*
X142905235Y-91378762D01*
X142905235Y-91188286D01*
X142929045Y-91140667D01*
X142976664Y-91116857D01*
X143071902Y-91116857D01*
X143119521Y-91140667D01*
X143143330Y-91188286D01*
X143143330Y-91235905D01*
X142905235Y-91283524D01*
X143357616Y-91116857D02*
X143357616Y-91616857D01*
X143357616Y-91140667D02*
X143405235Y-91116857D01*
X143500473Y-91116857D01*
X143548092Y-91140667D01*
X143571901Y-91164476D01*
X143595711Y-91212095D01*
X143595711Y-91354952D01*
X143571901Y-91402571D01*
X143548092Y-91426381D01*
X143500473Y-91450190D01*
X143405235Y-91450190D01*
X143357616Y-91426381D01*
X143809997Y-91450190D02*
X143809997Y-90950190D01*
X144024282Y-91450190D02*
X144024282Y-91188286D01*
X144000473Y-91140667D01*
X143952854Y-91116857D01*
X143881425Y-91116857D01*
X143833806Y-91140667D01*
X143809997Y-91164476D01*
X130905238Y-91797810D02*
X130929048Y-91774000D01*
X130976667Y-91750190D01*
X131095714Y-91750190D01*
X131143333Y-91774000D01*
X131167143Y-91797810D01*
X131190952Y-91845429D01*
X131190952Y-91893048D01*
X131167143Y-91964476D01*
X130881429Y-92250190D01*
X131190952Y-92250190D01*
X131500476Y-91750190D02*
X131548095Y-91750190D01*
X131595714Y-91774000D01*
X131619523Y-91797810D01*
X131643333Y-91845429D01*
X131667142Y-91940667D01*
X131667142Y-92059714D01*
X131643333Y-92154952D01*
X131619523Y-92202571D01*
X131595714Y-92226381D01*
X131548095Y-92250190D01*
X131500476Y-92250190D01*
X131452857Y-92226381D01*
X131429047Y-92202571D01*
X131405238Y-92154952D01*
X131381428Y-92059714D01*
X131381428Y-91940667D01*
X131405238Y-91845429D01*
X131429047Y-91797810D01*
X131452857Y-91774000D01*
X131500476Y-91750190D01*
X132143332Y-92250190D02*
X131857618Y-92250190D01*
X132000475Y-92250190D02*
X132000475Y-91750190D01*
X131952856Y-91821619D01*
X131905237Y-91869238D01*
X131857618Y-91893048D01*
X132571903Y-91750190D02*
X132476665Y-91750190D01*
X132429046Y-91774000D01*
X132405237Y-91797810D01*
X132357618Y-91869238D01*
X132333808Y-91964476D01*
X132333808Y-92154952D01*
X132357618Y-92202571D01*
X132381427Y-92226381D01*
X132429046Y-92250190D01*
X132524284Y-92250190D01*
X132571903Y-92226381D01*
X132595713Y-92202571D01*
X132619522Y-92154952D01*
X132619522Y-92035905D01*
X132595713Y-91988286D01*
X132571903Y-91964476D01*
X132524284Y-91940667D01*
X132429046Y-91940667D01*
X132381427Y-91964476D01*
X132357618Y-91988286D01*
X132333808Y-92035905D01*
D11*
X160407315Y-104182171D02*
X160121601Y-104182171D01*
X159978744Y-104253600D01*
X159907315Y-104325029D01*
X159764458Y-104539314D01*
X159693029Y-104825029D01*
X159693029Y-105396457D01*
X159764458Y-105539314D01*
X159835886Y-105610743D01*
X159978744Y-105682171D01*
X160264458Y-105682171D01*
X160407315Y-105610743D01*
X160478744Y-105539314D01*
X160550172Y-105396457D01*
X160550172Y-105039314D01*
X160478744Y-104896457D01*
X160407315Y-104825029D01*
X160264458Y-104753600D01*
X159978744Y-104753600D01*
X159835886Y-104825029D01*
X159764458Y-104896457D01*
X159693029Y-105039314D01*
X160550172Y-92982171D02*
X159693029Y-92982171D01*
X160121601Y-92982171D02*
X160121601Y-91482171D01*
X159978744Y-91696457D01*
X159835886Y-91839314D01*
X159693029Y-91910743D01*
D12*
X135391600Y-104617000D02*
X135391600Y-103917000D01*
X136591600Y-103917000D02*
X136591600Y-104617000D01*
X138084000Y-101111800D02*
X138084000Y-100411800D01*
X139284000Y-100411800D02*
X139284000Y-101111800D01*
X148910600Y-103612200D02*
X148910600Y-104312200D01*
X147710600Y-104312200D02*
X147710600Y-103612200D01*
X145354600Y-94696800D02*
X145354600Y-95396800D01*
X144154600Y-95396800D02*
X144154600Y-94696800D01*
D13*
X137439400Y-105183400D02*
X137749400Y-105183400D01*
X137749400Y-105183400D02*
X137749400Y-104163400D01*
X137749400Y-104163400D02*
X137129400Y-104163400D01*
X137129400Y-104163400D02*
X137129400Y-105183400D01*
X137129400Y-105183400D02*
X137449400Y-105183400D01*
D12*
X135948800Y-100848800D02*
X136948800Y-100848800D01*
X136948800Y-102198800D02*
X135948800Y-102198800D01*
X151341200Y-91577800D02*
X152341200Y-91577800D01*
X152341200Y-92927800D02*
X151341200Y-92927800D01*
D13*
X154838400Y-92458000D02*
X155148400Y-92458000D01*
X155148400Y-92458000D02*
X155148400Y-91438000D01*
X155148400Y-91438000D02*
X154528400Y-91438000D01*
X154528400Y-91438000D02*
X154528400Y-92458000D01*
X154528400Y-92458000D02*
X154848400Y-92458000D01*
X154838400Y-94998000D02*
X155148400Y-94998000D01*
X155148400Y-94998000D02*
X155148400Y-93978000D01*
X155148400Y-93978000D02*
X154528400Y-93978000D01*
X154528400Y-93978000D02*
X154528400Y-94998000D01*
X154528400Y-94998000D02*
X154848400Y-94998000D01*
X154838400Y-97563400D02*
X155148400Y-97563400D01*
X155148400Y-97563400D02*
X155148400Y-96543400D01*
X155148400Y-96543400D02*
X154528400Y-96543400D01*
X154528400Y-96543400D02*
X154528400Y-97563400D01*
X154528400Y-97563400D02*
X154848400Y-97563400D01*
X154838400Y-100103400D02*
X155148400Y-100103400D01*
X155148400Y-100103400D02*
X155148400Y-99083400D01*
X155148400Y-99083400D02*
X154528400Y-99083400D01*
X154528400Y-99083400D02*
X154528400Y-100103400D01*
X154528400Y-100103400D02*
X154848400Y-100103400D01*
X154838400Y-102643400D02*
X155148400Y-102643400D01*
X155148400Y-102643400D02*
X155148400Y-101623400D01*
X155148400Y-101623400D02*
X154528400Y-101623400D01*
X154528400Y-101623400D02*
X154528400Y-102643400D01*
X154528400Y-102643400D02*
X154848400Y-102643400D01*
X154838400Y-105183400D02*
X155148400Y-105183400D01*
X155148400Y-105183400D02*
X155148400Y-104163400D01*
X155148400Y-104163400D02*
X154528400Y-104163400D01*
X154528400Y-104163400D02*
X154528400Y-105183400D01*
X154528400Y-105183400D02*
X154848400Y-105183400D01*
D12*
X139100200Y-104038400D02*
X139100200Y-102538400D01*
X139100200Y-102538400D02*
X143500200Y-102538400D01*
X143500200Y-102538400D02*
X143500200Y-105538400D01*
X143500200Y-105538400D02*
X139100200Y-105538400D01*
X139100200Y-105538400D02*
X139100200Y-104038400D01*
X138947900Y-95288300D02*
X138947900Y-95938300D01*
X138197900Y-95288300D02*
X138947900Y-95288300D01*
X134097900Y-95288300D02*
X137097900Y-95288300D01*
X137097900Y-98488300D02*
X134097900Y-98488300D01*
X131051300Y-102971600D02*
X131051300Y-100431600D01*
X130771300Y-105791600D02*
X130771300Y-104241600D01*
X131051300Y-102971600D02*
X133591300Y-102971600D01*
X133871300Y-104241600D02*
X133871300Y-105791600D01*
X133871300Y-105791600D02*
X130771300Y-105791600D01*
X133591300Y-102971600D02*
X133591300Y-100431600D01*
X133591300Y-100431600D02*
X131051300Y-100431600D01*
X158851600Y-93573600D02*
X158851600Y-108813600D01*
X158851600Y-108813600D02*
X156311600Y-108813600D01*
X156311600Y-108813600D02*
X156311600Y-93573600D01*
X159131600Y-90753600D02*
X159131600Y-92303600D01*
X158851600Y-93573600D02*
X156311600Y-93573600D01*
X156031600Y-92303600D02*
X156031600Y-90753600D01*
X156031600Y-90753600D02*
X159131600Y-90753600D01*
X142701500Y-100186300D02*
X142701500Y-99686300D01*
X141651500Y-99686300D02*
X141651500Y-100186300D01*
X139962400Y-100816600D02*
X139962400Y-101316600D01*
X141012400Y-101316600D02*
X141012400Y-100816600D01*
X151411300Y-103690800D02*
X151411300Y-104690800D01*
X150061300Y-104690800D02*
X150061300Y-103690800D01*
X146928200Y-103106600D02*
X146928200Y-104106600D01*
X145578200Y-104106600D02*
X145578200Y-103106600D01*
X144105000Y-99229800D02*
X144105000Y-98229800D01*
X145455000Y-98229800D02*
X145455000Y-99229800D01*
X146340200Y-100728400D02*
X146340200Y-99728400D01*
X147690200Y-99728400D02*
X147690200Y-100728400D01*
X149947000Y-100703000D02*
X149947000Y-99703000D01*
X151297000Y-99703000D02*
X151297000Y-100703000D01*
D10*
X151029800Y-94816800D02*
X151029800Y-97816800D01*
X151029800Y-97816800D02*
X148029800Y-97816800D01*
X148029800Y-97816800D02*
X148029800Y-94816800D01*
X148029800Y-94816800D02*
X151029800Y-94816800D01*
D12*
X139848640Y-95468440D02*
X139896900Y-95468440D01*
X142647620Y-94767400D02*
X142647620Y-95468440D01*
X142647620Y-95468440D02*
X142398700Y-95468440D01*
X139848640Y-95468440D02*
X139647980Y-95468440D01*
X139647980Y-95468440D02*
X139647980Y-94767400D01*
X134448743Y-104433666D02*
X134496362Y-104481285D01*
X134543981Y-104624142D01*
X134543981Y-104719380D01*
X134496362Y-104862238D01*
X134401124Y-104957476D01*
X134305886Y-105005095D01*
X134115410Y-105052714D01*
X133972552Y-105052714D01*
X133782076Y-105005095D01*
X133686838Y-104957476D01*
X133591600Y-104862238D01*
X133543981Y-104719380D01*
X133543981Y-104624142D01*
X133591600Y-104481285D01*
X133639219Y-104433666D01*
X134543981Y-103481285D02*
X134543981Y-104052714D01*
X134543981Y-103767000D02*
X133543981Y-103767000D01*
X133686838Y-103862238D01*
X133782076Y-103957476D01*
X133829695Y-104052714D01*
X137141143Y-100928466D02*
X137188762Y-100976085D01*
X137236381Y-101118942D01*
X137236381Y-101214180D01*
X137188762Y-101357038D01*
X137093524Y-101452276D01*
X136998286Y-101499895D01*
X136807810Y-101547514D01*
X136664952Y-101547514D01*
X136474476Y-101499895D01*
X136379238Y-101452276D01*
X136284000Y-101357038D01*
X136236381Y-101214180D01*
X136236381Y-101118942D01*
X136284000Y-100976085D01*
X136331619Y-100928466D01*
X136331619Y-100547514D02*
X136284000Y-100499895D01*
X136236381Y-100404657D01*
X136236381Y-100166561D01*
X136284000Y-100071323D01*
X136331619Y-100023704D01*
X136426857Y-99976085D01*
X136522095Y-99976085D01*
X136664952Y-100023704D01*
X137236381Y-100595133D01*
X137236381Y-99976085D01*
X150567743Y-104128866D02*
X150615362Y-104176485D01*
X150662981Y-104319342D01*
X150662981Y-104414580D01*
X150615362Y-104557438D01*
X150520124Y-104652676D01*
X150424886Y-104700295D01*
X150234410Y-104747914D01*
X150091552Y-104747914D01*
X149901076Y-104700295D01*
X149805838Y-104652676D01*
X149710600Y-104557438D01*
X149662981Y-104414580D01*
X149662981Y-104319342D01*
X149710600Y-104176485D01*
X149758219Y-104128866D01*
X149662981Y-103795533D02*
X149662981Y-103176485D01*
X150043933Y-103509819D01*
X150043933Y-103366961D01*
X150091552Y-103271723D01*
X150139171Y-103224104D01*
X150234410Y-103176485D01*
X150472505Y-103176485D01*
X150567743Y-103224104D01*
X150615362Y-103271723D01*
X150662981Y-103366961D01*
X150662981Y-103652676D01*
X150615362Y-103747914D01*
X150567743Y-103795533D01*
X147011743Y-95213466D02*
X147059362Y-95261085D01*
X147106981Y-95403942D01*
X147106981Y-95499180D01*
X147059362Y-95642038D01*
X146964124Y-95737276D01*
X146868886Y-95784895D01*
X146678410Y-95832514D01*
X146535552Y-95832514D01*
X146345076Y-95784895D01*
X146249838Y-95737276D01*
X146154600Y-95642038D01*
X146106981Y-95499180D01*
X146106981Y-95403942D01*
X146154600Y-95261085D01*
X146202219Y-95213466D01*
X146440314Y-94356323D02*
X147106981Y-94356323D01*
X146059362Y-94594419D02*
X146773648Y-94832514D01*
X146773648Y-94213466D01*
X138971781Y-105371495D02*
X137971781Y-105371495D01*
X137971781Y-105133400D01*
X138019400Y-104990542D01*
X138114638Y-104895304D01*
X138209876Y-104847685D01*
X138400352Y-104800066D01*
X138543210Y-104800066D01*
X138733686Y-104847685D01*
X138828924Y-104895304D01*
X138924162Y-104990542D01*
X138971781Y-105133400D01*
X138971781Y-105371495D01*
X138971781Y-103847685D02*
X138971781Y-104419114D01*
X138971781Y-104133400D02*
X137971781Y-104133400D01*
X138114638Y-104228638D01*
X138209876Y-104323876D01*
X138257495Y-104419114D01*
X135710705Y-103876181D02*
X135710705Y-102876181D01*
X135948800Y-102876181D01*
X136091658Y-102923800D01*
X136186896Y-103019038D01*
X136234515Y-103114276D01*
X136282134Y-103304752D01*
X136282134Y-103447610D01*
X136234515Y-103638086D01*
X136186896Y-103733324D01*
X136091658Y-103828562D01*
X135948800Y-103876181D01*
X135710705Y-103876181D01*
X136663086Y-102971419D02*
X136710705Y-102923800D01*
X136805943Y-102876181D01*
X137044039Y-102876181D01*
X137139277Y-102923800D01*
X137186896Y-102971419D01*
X137234515Y-103066657D01*
X137234515Y-103161895D01*
X137186896Y-103304752D01*
X136615467Y-103876181D01*
X137234515Y-103876181D01*
X151103105Y-94605181D02*
X151103105Y-93605181D01*
X151341200Y-93605181D01*
X151484058Y-93652800D01*
X151579296Y-93748038D01*
X151626915Y-93843276D01*
X151674534Y-94033752D01*
X151674534Y-94176610D01*
X151626915Y-94367086D01*
X151579296Y-94462324D01*
X151484058Y-94557562D01*
X151341200Y-94605181D01*
X151103105Y-94605181D01*
X152007867Y-93605181D02*
X152626915Y-93605181D01*
X152293581Y-93986133D01*
X152436439Y-93986133D01*
X152531677Y-94033752D01*
X152579296Y-94081371D01*
X152626915Y-94176610D01*
X152626915Y-94414705D01*
X152579296Y-94509943D01*
X152531677Y-94557562D01*
X152436439Y-94605181D01*
X152150724Y-94605181D01*
X152055486Y-94557562D01*
X152007867Y-94509943D01*
X156370781Y-92646095D02*
X155370781Y-92646095D01*
X155370781Y-92408000D01*
X155418400Y-92265142D01*
X155513638Y-92169904D01*
X155608876Y-92122285D01*
X155799352Y-92074666D01*
X155942210Y-92074666D01*
X156132686Y-92122285D01*
X156227924Y-92169904D01*
X156323162Y-92265142D01*
X156370781Y-92408000D01*
X156370781Y-92646095D01*
X155704114Y-91217523D02*
X156370781Y-91217523D01*
X155323162Y-91455619D02*
X156037448Y-91693714D01*
X156037448Y-91074666D01*
X156370781Y-95186095D02*
X155370781Y-95186095D01*
X155370781Y-94948000D01*
X155418400Y-94805142D01*
X155513638Y-94709904D01*
X155608876Y-94662285D01*
X155799352Y-94614666D01*
X155942210Y-94614666D01*
X156132686Y-94662285D01*
X156227924Y-94709904D01*
X156323162Y-94805142D01*
X156370781Y-94948000D01*
X156370781Y-95186095D01*
X155370781Y-93709904D02*
X155370781Y-94186095D01*
X155846971Y-94233714D01*
X155799352Y-94186095D01*
X155751733Y-94090857D01*
X155751733Y-93852761D01*
X155799352Y-93757523D01*
X155846971Y-93709904D01*
X155942210Y-93662285D01*
X156180305Y-93662285D01*
X156275543Y-93709904D01*
X156323162Y-93757523D01*
X156370781Y-93852761D01*
X156370781Y-94090857D01*
X156323162Y-94186095D01*
X156275543Y-94233714D01*
X156370781Y-97751495D02*
X155370781Y-97751495D01*
X155370781Y-97513400D01*
X155418400Y-97370542D01*
X155513638Y-97275304D01*
X155608876Y-97227685D01*
X155799352Y-97180066D01*
X155942210Y-97180066D01*
X156132686Y-97227685D01*
X156227924Y-97275304D01*
X156323162Y-97370542D01*
X156370781Y-97513400D01*
X156370781Y-97751495D01*
X155370781Y-96322923D02*
X155370781Y-96513400D01*
X155418400Y-96608638D01*
X155466019Y-96656257D01*
X155608876Y-96751495D01*
X155799352Y-96799114D01*
X156180305Y-96799114D01*
X156275543Y-96751495D01*
X156323162Y-96703876D01*
X156370781Y-96608638D01*
X156370781Y-96418161D01*
X156323162Y-96322923D01*
X156275543Y-96275304D01*
X156180305Y-96227685D01*
X155942210Y-96227685D01*
X155846971Y-96275304D01*
X155799352Y-96322923D01*
X155751733Y-96418161D01*
X155751733Y-96608638D01*
X155799352Y-96703876D01*
X155846971Y-96751495D01*
X155942210Y-96799114D01*
X156370781Y-100291495D02*
X155370781Y-100291495D01*
X155370781Y-100053400D01*
X155418400Y-99910542D01*
X155513638Y-99815304D01*
X155608876Y-99767685D01*
X155799352Y-99720066D01*
X155942210Y-99720066D01*
X156132686Y-99767685D01*
X156227924Y-99815304D01*
X156323162Y-99910542D01*
X156370781Y-100053400D01*
X156370781Y-100291495D01*
X155370781Y-99386733D02*
X155370781Y-98720066D01*
X156370781Y-99148638D01*
X156370781Y-102831495D02*
X155370781Y-102831495D01*
X155370781Y-102593400D01*
X155418400Y-102450542D01*
X155513638Y-102355304D01*
X155608876Y-102307685D01*
X155799352Y-102260066D01*
X155942210Y-102260066D01*
X156132686Y-102307685D01*
X156227924Y-102355304D01*
X156323162Y-102450542D01*
X156370781Y-102593400D01*
X156370781Y-102831495D01*
X155799352Y-101688638D02*
X155751733Y-101783876D01*
X155704114Y-101831495D01*
X155608876Y-101879114D01*
X155561257Y-101879114D01*
X155466019Y-101831495D01*
X155418400Y-101783876D01*
X155370781Y-101688638D01*
X155370781Y-101498161D01*
X155418400Y-101402923D01*
X155466019Y-101355304D01*
X155561257Y-101307685D01*
X155608876Y-101307685D01*
X155704114Y-101355304D01*
X155751733Y-101402923D01*
X155799352Y-101498161D01*
X155799352Y-101688638D01*
X155846971Y-101783876D01*
X155894590Y-101831495D01*
X155989829Y-101879114D01*
X156180305Y-101879114D01*
X156275543Y-101831495D01*
X156323162Y-101783876D01*
X156370781Y-101688638D01*
X156370781Y-101498161D01*
X156323162Y-101402923D01*
X156275543Y-101355304D01*
X156180305Y-101307685D01*
X155989829Y-101307685D01*
X155894590Y-101355304D01*
X155846971Y-101402923D01*
X155799352Y-101498161D01*
X156370781Y-105371495D02*
X155370781Y-105371495D01*
X155370781Y-105133400D01*
X155418400Y-104990542D01*
X155513638Y-104895304D01*
X155608876Y-104847685D01*
X155799352Y-104800066D01*
X155942210Y-104800066D01*
X156132686Y-104847685D01*
X156227924Y-104895304D01*
X156323162Y-104990542D01*
X156370781Y-105133400D01*
X156370781Y-105371495D01*
X156370781Y-104323876D02*
X156370781Y-104133400D01*
X156323162Y-104038161D01*
X156275543Y-103990542D01*
X156132686Y-103895304D01*
X155942210Y-103847685D01*
X155561257Y-103847685D01*
X155466019Y-103895304D01*
X155418400Y-103942923D01*
X155370781Y-104038161D01*
X155370781Y-104228638D01*
X155418400Y-104323876D01*
X155466019Y-104371495D01*
X155561257Y-104419114D01*
X155799352Y-104419114D01*
X155894590Y-104371495D01*
X155942210Y-104323876D01*
X155989829Y-104228638D01*
X155989829Y-104038161D01*
X155942210Y-103942923D01*
X155894590Y-103895304D01*
X155799352Y-103847685D01*
D14*
X141735914Y-104331256D02*
X141435914Y-104331256D01*
X141707343Y-104016971D02*
X141721629Y-104031257D01*
X141735914Y-104074114D01*
X141735914Y-104102685D01*
X141721629Y-104145542D01*
X141693057Y-104174114D01*
X141664486Y-104188399D01*
X141607343Y-104202685D01*
X141564486Y-104202685D01*
X141507343Y-104188399D01*
X141478771Y-104174114D01*
X141450200Y-104145542D01*
X141435914Y-104102685D01*
X141435914Y-104074114D01*
X141450200Y-104031257D01*
X141464486Y-104016971D01*
X141735914Y-103731257D02*
X141735914Y-103902685D01*
X141735914Y-103816971D02*
X141435914Y-103816971D01*
X141478771Y-103845542D01*
X141507343Y-103874114D01*
X141521629Y-103902685D01*
D12*
X135431234Y-94590681D02*
X134955043Y-94590681D01*
X134955043Y-93590681D01*
X136288377Y-94590681D02*
X135716948Y-94590681D01*
X136002662Y-94590681D02*
X136002662Y-93590681D01*
X135907424Y-93733538D01*
X135812186Y-93828776D01*
X135716948Y-93876395D01*
X131583205Y-109793981D02*
X131583205Y-108793981D01*
X131964158Y-108793981D01*
X132059396Y-108841600D01*
X132107015Y-108889219D01*
X132154634Y-108984457D01*
X132154634Y-109127314D01*
X132107015Y-109222552D01*
X132059396Y-109270171D01*
X131964158Y-109317790D01*
X131583205Y-109317790D01*
X133107015Y-109793981D02*
X132535586Y-109793981D01*
X132821300Y-109793981D02*
X132821300Y-108793981D01*
X132726062Y-108936838D01*
X132630824Y-109032076D01*
X132535586Y-109079695D01*
X155217905Y-88844381D02*
X155217905Y-87844381D01*
X155598858Y-87844381D01*
X155694096Y-87892000D01*
X155741715Y-87939619D01*
X155789334Y-88034857D01*
X155789334Y-88177714D01*
X155741715Y-88272952D01*
X155694096Y-88320571D01*
X155598858Y-88368190D01*
X155217905Y-88368190D01*
X156170286Y-87939619D02*
X156217905Y-87892000D01*
X156313143Y-87844381D01*
X156551239Y-87844381D01*
X156646477Y-87892000D01*
X156694096Y-87939619D01*
X156741715Y-88034857D01*
X156741715Y-88130095D01*
X156694096Y-88272952D01*
X156122667Y-88844381D01*
X156741715Y-88844381D01*
X144428881Y-100102966D02*
X143952690Y-100436300D01*
X144428881Y-100674395D02*
X143428881Y-100674395D01*
X143428881Y-100293442D01*
X143476500Y-100198204D01*
X143524119Y-100150585D01*
X143619357Y-100102966D01*
X143762214Y-100102966D01*
X143857452Y-100150585D01*
X143905071Y-100198204D01*
X143952690Y-100293442D01*
X143952690Y-100674395D01*
X144428881Y-99150585D02*
X144428881Y-99722014D01*
X144428881Y-99436300D02*
X143428881Y-99436300D01*
X143571738Y-99531538D01*
X143666976Y-99626776D01*
X143714595Y-99722014D01*
X139139781Y-101233266D02*
X138663590Y-101566600D01*
X139139781Y-101804695D02*
X138139781Y-101804695D01*
X138139781Y-101423742D01*
X138187400Y-101328504D01*
X138235019Y-101280885D01*
X138330257Y-101233266D01*
X138473114Y-101233266D01*
X138568352Y-101280885D01*
X138615971Y-101328504D01*
X138663590Y-101423742D01*
X138663590Y-101804695D01*
X138235019Y-100852314D02*
X138187400Y-100804695D01*
X138139781Y-100709457D01*
X138139781Y-100471361D01*
X138187400Y-100376123D01*
X138235019Y-100328504D01*
X138330257Y-100280885D01*
X138425495Y-100280885D01*
X138568352Y-100328504D01*
X139139781Y-100899933D01*
X139139781Y-100280885D01*
X149288681Y-104357466D02*
X148812490Y-104690800D01*
X149288681Y-104928895D02*
X148288681Y-104928895D01*
X148288681Y-104547942D01*
X148336300Y-104452704D01*
X148383919Y-104405085D01*
X148479157Y-104357466D01*
X148622014Y-104357466D01*
X148717252Y-104405085D01*
X148764871Y-104452704D01*
X148812490Y-104547942D01*
X148812490Y-104928895D01*
X148288681Y-104024133D02*
X148288681Y-103405085D01*
X148669633Y-103738419D01*
X148669633Y-103595561D01*
X148717252Y-103500323D01*
X148764871Y-103452704D01*
X148860110Y-103405085D01*
X149098205Y-103405085D01*
X149193443Y-103452704D01*
X149241062Y-103500323D01*
X149288681Y-103595561D01*
X149288681Y-103881276D01*
X149241062Y-103976514D01*
X149193443Y-104024133D01*
X144805581Y-103773266D02*
X144329390Y-104106600D01*
X144805581Y-104344695D02*
X143805581Y-104344695D01*
X143805581Y-103963742D01*
X143853200Y-103868504D01*
X143900819Y-103820885D01*
X143996057Y-103773266D01*
X144138914Y-103773266D01*
X144234152Y-103820885D01*
X144281771Y-103868504D01*
X144329390Y-103963742D01*
X144329390Y-104344695D01*
X144138914Y-102916123D02*
X144805581Y-102916123D01*
X143757962Y-103154219D02*
X144472248Y-103392314D01*
X144472248Y-102773266D01*
X147132381Y-98896466D02*
X146656190Y-99229800D01*
X147132381Y-99467895D02*
X146132381Y-99467895D01*
X146132381Y-99086942D01*
X146180000Y-98991704D01*
X146227619Y-98944085D01*
X146322857Y-98896466D01*
X146465714Y-98896466D01*
X146560952Y-98944085D01*
X146608571Y-98991704D01*
X146656190Y-99086942D01*
X146656190Y-99467895D01*
X146132381Y-97991704D02*
X146132381Y-98467895D01*
X146608571Y-98515514D01*
X146560952Y-98467895D01*
X146513333Y-98372657D01*
X146513333Y-98134561D01*
X146560952Y-98039323D01*
X146608571Y-97991704D01*
X146703810Y-97944085D01*
X146941905Y-97944085D01*
X147037143Y-97991704D01*
X147084762Y-98039323D01*
X147132381Y-98134561D01*
X147132381Y-98372657D01*
X147084762Y-98467895D01*
X147037143Y-98515514D01*
X149367581Y-100395066D02*
X148891390Y-100728400D01*
X149367581Y-100966495D02*
X148367581Y-100966495D01*
X148367581Y-100585542D01*
X148415200Y-100490304D01*
X148462819Y-100442685D01*
X148558057Y-100395066D01*
X148700914Y-100395066D01*
X148796152Y-100442685D01*
X148843771Y-100490304D01*
X148891390Y-100585542D01*
X148891390Y-100966495D01*
X148367581Y-99537923D02*
X148367581Y-99728400D01*
X148415200Y-99823638D01*
X148462819Y-99871257D01*
X148605676Y-99966495D01*
X148796152Y-100014114D01*
X149177105Y-100014114D01*
X149272343Y-99966495D01*
X149319962Y-99918876D01*
X149367581Y-99823638D01*
X149367581Y-99633161D01*
X149319962Y-99537923D01*
X149272343Y-99490304D01*
X149177105Y-99442685D01*
X148939010Y-99442685D01*
X148843771Y-99490304D01*
X148796152Y-99537923D01*
X148748533Y-99633161D01*
X148748533Y-99823638D01*
X148796152Y-99918876D01*
X148843771Y-99966495D01*
X148939010Y-100014114D01*
X152974381Y-100369666D02*
X152498190Y-100703000D01*
X152974381Y-100941095D02*
X151974381Y-100941095D01*
X151974381Y-100560142D01*
X152022000Y-100464904D01*
X152069619Y-100417285D01*
X152164857Y-100369666D01*
X152307714Y-100369666D01*
X152402952Y-100417285D01*
X152450571Y-100464904D01*
X152498190Y-100560142D01*
X152498190Y-100941095D01*
X151974381Y-100036333D02*
X151974381Y-99369666D01*
X152974381Y-99798238D01*
D15*
X148892895Y-96507276D02*
X149095276Y-96507276D01*
X149119086Y-96495371D01*
X149130990Y-96483467D01*
X149142895Y-96459657D01*
X149142895Y-96412038D01*
X149130990Y-96388229D01*
X149119086Y-96376324D01*
X149095276Y-96364419D01*
X148892895Y-96364419D01*
X149142895Y-96114419D02*
X149142895Y-96257276D01*
X149142895Y-96185847D02*
X148892895Y-96185847D01*
X148928610Y-96209657D01*
X148952419Y-96233466D01*
X148964324Y-96257276D01*
D12*
X141052562Y-97615819D02*
X140957324Y-97568200D01*
X140862086Y-97472962D01*
X140719229Y-97330105D01*
X140623990Y-97282486D01*
X140528752Y-97282486D01*
X140576371Y-97520581D02*
X140481133Y-97472962D01*
X140385895Y-97377724D01*
X140338276Y-97187248D01*
X140338276Y-96853914D01*
X140385895Y-96663438D01*
X140481133Y-96568200D01*
X140576371Y-96520581D01*
X140766848Y-96520581D01*
X140862086Y-96568200D01*
X140957324Y-96663438D01*
X141004943Y-96853914D01*
X141004943Y-97187248D01*
X140957324Y-97377724D01*
X140862086Y-97472962D01*
X140766848Y-97520581D01*
X140576371Y-97520581D01*
X141957324Y-97520581D02*
X141385895Y-97520581D01*
X141671609Y-97520581D02*
X141671609Y-96520581D01*
X141576371Y-96663438D01*
X141481133Y-96758676D01*
X141385895Y-96806295D01*
M02*
