M48
INCH,TZ
T1C0.016
T2C0.040
%
G90
G05
T1
X5.353Y-4.076
X5.598Y-3.8223
X5.5985Y-3.6355
X5.64Y-4.0115
X5.641Y-3.9275
X5.6675Y-4.175
X5.668Y-3.952
X5.694Y-4.028
X5.7035Y-4.0825
X5.8025Y-4.0835
X5.93Y-3.9745
X5.968Y-3.8665
X5.974Y-3.962
X6.035Y-4.0285
X6.0415Y-3.961
X6.0955Y-3.6765
X6.096Y-3.568
X6.096Y-3.8765
X6.096Y-3.9855
X6.096Y-4.079
X6.0975Y-3.7715
X6.1365Y-3.777
T2
X5.2095Y-4.004
X5.2095Y-4.104
X6.204Y-3.634
X6.204Y-3.734
X6.204Y-3.834
X6.204Y-3.934
X6.204Y-4.034
X6.204Y-4.134
X6.204Y-4.234
T0
M30
