G04 #@! TF.FileFunction,Copper,L2,Bot,Signal*
%FSLAX46Y46*%
G04 Gerber Fmt 4.6, Leading zero omitted, Abs format (unit mm)*
G04 Created by KiCad (PCBNEW 4.0.1+dfsg1-stable) date Thu 10 Mar 2016 03:19:20 PM PST*
%MOMM*%
G01*
G04 APERTURE LIST*
%ADD10C,0.020000*%
%ADD11R,2.032000X2.032000*%
%ADD12O,2.032000X2.032000*%
%ADD13R,2.032000X1.727200*%
%ADD14O,2.032000X1.727200*%
%ADD15C,0.600000*%
%ADD16C,0.250000*%
%ADD17C,0.254000*%
G04 APERTURE END LIST*
D10*
D11*
X132321300Y-104241600D03*
D12*
X132321300Y-101701600D03*
D13*
X157581600Y-92303600D03*
D14*
X157581600Y-94843600D03*
X157581600Y-97383600D03*
X157581600Y-99923600D03*
X157581600Y-102463600D03*
X157581600Y-105003600D03*
X157581600Y-107543600D03*
D15*
X134533600Y-100634800D03*
X137160000Y-107696000D03*
X134874000Y-105664000D03*
X142240000Y-107696000D03*
X132080000Y-107696000D03*
X152400000Y-107696000D03*
X147320000Y-107696000D03*
X137922000Y-92710000D03*
X140462000Y-98552000D03*
X133350000Y-91440000D03*
X148844000Y-93726000D03*
X147320000Y-90170000D03*
X142494000Y-90170000D03*
X149860000Y-98298000D03*
X131064000Y-96774000D03*
X151739600Y-90490000D03*
X153477000Y-93751400D03*
X154825700Y-93383100D03*
X156032200Y-98729800D03*
X155981400Y-96240600D03*
X154838400Y-90627200D03*
X154838400Y-103606600D03*
X154838400Y-101231700D03*
X150622000Y-100953000D03*
X137287000Y-101625400D03*
X137287000Y-105105200D03*
X147383500Y-103720900D03*
X144868900Y-103695500D03*
X151577000Y-93751400D03*
X153822400Y-99923600D03*
X153898600Y-96469200D03*
X144678400Y-102311200D03*
X153085800Y-102539800D03*
X152146000Y-101650800D03*
X152781000Y-95453200D03*
X143954500Y-106045000D03*
X143967200Y-100380800D03*
X143256000Y-101892100D03*
X143281400Y-99758500D03*
X152882600Y-99491800D03*
X153822400Y-95478600D03*
X151739600Y-92390000D03*
X142201900Y-92341700D03*
X142189200Y-97086000D03*
X136347200Y-104495600D03*
X136372600Y-99136200D03*
D16*
X134584400Y-100584000D02*
X134620000Y-100584000D01*
X134533600Y-100634800D02*
X134584400Y-100584000D01*
X137160000Y-107696000D02*
X136906000Y-107696000D01*
X136906000Y-107696000D02*
X134874000Y-105664000D01*
X140462000Y-98552000D02*
X140462000Y-102870000D01*
X140462000Y-102870000D02*
X141478000Y-103886000D01*
X142240000Y-104648000D02*
X141478000Y-103886000D01*
X142240000Y-104648000D02*
X142240000Y-107696000D01*
X137160000Y-107696000D02*
X142240000Y-107696000D01*
X132080000Y-107696000D02*
X137160000Y-107696000D01*
X147320000Y-107696000D02*
X152400000Y-107696000D01*
X152552400Y-107543600D02*
X152400000Y-107696000D01*
X152552400Y-107543600D02*
X157581600Y-107543600D01*
X142240000Y-107696000D02*
X147320000Y-107696000D01*
X140208000Y-97282000D02*
X140208000Y-98298000D01*
X137414000Y-92202000D02*
X137922000Y-92710000D01*
X137922000Y-92710000D02*
X140208000Y-94996000D01*
X140208000Y-94996000D02*
X140208000Y-97282000D01*
X137414000Y-92202000D02*
X137414000Y-90170000D01*
X140208000Y-98298000D02*
X140462000Y-98552000D01*
X137414000Y-90170000D02*
X134620000Y-90170000D01*
X134620000Y-90170000D02*
X133350000Y-91440000D01*
X148844000Y-93726000D02*
X148844000Y-97282000D01*
X147320000Y-92202000D02*
X148844000Y-93726000D01*
X137414000Y-90170000D02*
X142494000Y-90170000D01*
X142494000Y-90170000D02*
X147320000Y-90170000D01*
X147320000Y-90170000D02*
X147320000Y-92202000D01*
X148844000Y-97282000D02*
X149860000Y-98298000D01*
X131826000Y-92964000D02*
X131826000Y-96012000D01*
X131826000Y-96012000D02*
X131064000Y-96774000D01*
X131826000Y-96012000D02*
X131064000Y-96774000D01*
X147640000Y-90490000D02*
X147320000Y-90170000D01*
X151765000Y-90487500D02*
X151742100Y-90487500D01*
X151742100Y-90487500D02*
X151739600Y-90490000D01*
X151739600Y-90490000D02*
X147640000Y-90490000D01*
X134620000Y-90170000D02*
X131826000Y-92964000D01*
X153451600Y-93726000D02*
X153416000Y-93726000D01*
X153477000Y-93751400D02*
X153451600Y-93726000D01*
X154838400Y-103606600D02*
X154838400Y-103581200D01*
X154851100Y-101219000D02*
X154851100Y-101155500D01*
X154838400Y-101231700D02*
X154851100Y-101219000D01*
X150647400Y-100990400D02*
X150647400Y-100978400D01*
X150647400Y-100978400D02*
X150622000Y-100953000D01*
X137287000Y-105105200D02*
X137287000Y-101625400D01*
X144894300Y-103720900D02*
X147383500Y-103720900D01*
X144868900Y-103695500D02*
X144894300Y-103720900D01*
X151602400Y-93726000D02*
X151638000Y-93726000D01*
X151577000Y-93751400D02*
X151602400Y-93726000D01*
X153822400Y-96545400D02*
X153822400Y-99923600D01*
X153898600Y-96469200D02*
X153822400Y-96545400D01*
X144678400Y-102311200D02*
X144907000Y-102539800D01*
X144907000Y-102539800D02*
X153085800Y-102539800D01*
X152146000Y-96088200D02*
X152146000Y-101650800D01*
X152781000Y-95453200D02*
X152146000Y-96088200D01*
X143954500Y-100393500D02*
X143954500Y-106045000D01*
X143967200Y-100380800D02*
X143954500Y-100393500D01*
X143256000Y-101892100D02*
X143281400Y-101866700D01*
X143281400Y-101866700D02*
X143281400Y-99758500D01*
X152882600Y-96418400D02*
X152882600Y-99491800D01*
X153822400Y-95478600D02*
X152882600Y-96418400D01*
X151638000Y-92456000D02*
X151673600Y-92456000D01*
X151673600Y-92456000D02*
X151739600Y-92390000D01*
X142201900Y-97073300D02*
X142201900Y-92341700D01*
X142189200Y-97086000D02*
X142201900Y-97073300D01*
X136347200Y-104495600D02*
X136372600Y-104470200D01*
X136372600Y-104470200D02*
X136372600Y-99136200D01*
D17*
G36*
X160072000Y-109526000D02*
X130504000Y-109526000D01*
X130504000Y-107902626D01*
X155974242Y-107902626D01*
X155976891Y-107918391D01*
X156230868Y-108445636D01*
X156667280Y-108835554D01*
X157219687Y-109028784D01*
X157454600Y-108884524D01*
X157454600Y-107670600D01*
X157708600Y-107670600D01*
X157708600Y-108884524D01*
X157943513Y-109028784D01*
X158495920Y-108835554D01*
X158932332Y-108445636D01*
X159186309Y-107918391D01*
X159188958Y-107902626D01*
X159067817Y-107670600D01*
X157708600Y-107670600D01*
X157454600Y-107670600D01*
X156095383Y-107670600D01*
X155974242Y-107902626D01*
X130504000Y-107902626D01*
X130504000Y-104527350D01*
X130670300Y-104527350D01*
X130670300Y-105383910D01*
X130766973Y-105617299D01*
X130945602Y-105795927D01*
X131178991Y-105892600D01*
X132035550Y-105892600D01*
X132194300Y-105733850D01*
X132194300Y-104368600D01*
X132448300Y-104368600D01*
X132448300Y-105733850D01*
X132607050Y-105892600D01*
X133463609Y-105892600D01*
X133696998Y-105795927D01*
X133875627Y-105617299D01*
X133972300Y-105383910D01*
X133972300Y-104680767D01*
X135412038Y-104680767D01*
X135554083Y-105024543D01*
X135816873Y-105287792D01*
X136160401Y-105430438D01*
X136409804Y-105430655D01*
X136493883Y-105634143D01*
X136756673Y-105897392D01*
X137100201Y-106040038D01*
X137472167Y-106040362D01*
X137815943Y-105898317D01*
X138079192Y-105635527D01*
X138221838Y-105291999D01*
X138222162Y-104920033D01*
X138080117Y-104576257D01*
X138047000Y-104543082D01*
X138047000Y-102187863D01*
X138079192Y-102155727D01*
X138111771Y-102077267D01*
X142320838Y-102077267D01*
X142462883Y-102421043D01*
X142725673Y-102684292D01*
X143069201Y-102826938D01*
X143194500Y-102827047D01*
X143194500Y-105482537D01*
X143162308Y-105514673D01*
X143019662Y-105858201D01*
X143019338Y-106230167D01*
X143161383Y-106573943D01*
X143424173Y-106837192D01*
X143767701Y-106979838D01*
X144139667Y-106980162D01*
X144483443Y-106838117D01*
X144746692Y-106575327D01*
X144889338Y-106231799D01*
X144889662Y-105859833D01*
X144747617Y-105516057D01*
X144714500Y-105482882D01*
X144714500Y-104630366D01*
X145054067Y-104630662D01*
X145397843Y-104488617D01*
X145405573Y-104480900D01*
X146821037Y-104480900D01*
X146853173Y-104513092D01*
X147196701Y-104655738D01*
X147568667Y-104656062D01*
X147912443Y-104514017D01*
X148175692Y-104251227D01*
X148318338Y-103907699D01*
X148318662Y-103535733D01*
X148221177Y-103299800D01*
X152523337Y-103299800D01*
X152555473Y-103331992D01*
X152899001Y-103474638D01*
X153270967Y-103474962D01*
X153614743Y-103332917D01*
X153877992Y-103070127D01*
X154020638Y-102726599D01*
X154020962Y-102354633D01*
X153878917Y-102010857D01*
X153616127Y-101747608D01*
X153272599Y-101604962D01*
X153081041Y-101604795D01*
X153081162Y-101465633D01*
X152939117Y-101121857D01*
X152906000Y-101088682D01*
X152906000Y-100426821D01*
X153018696Y-100426919D01*
X153029283Y-100452543D01*
X153292073Y-100715792D01*
X153635601Y-100858438D01*
X154007567Y-100858762D01*
X154351343Y-100716717D01*
X154614592Y-100453927D01*
X154757238Y-100110399D01*
X154757562Y-99738433D01*
X154615517Y-99394657D01*
X154582400Y-99361482D01*
X154582400Y-97107730D01*
X154690792Y-96999527D01*
X154833438Y-96655999D01*
X154833762Y-96284033D01*
X154691717Y-95940257D01*
X154657387Y-95905867D01*
X154757238Y-95665399D01*
X154757562Y-95293433D01*
X154615517Y-94949657D01*
X154509645Y-94843600D01*
X155898255Y-94843600D01*
X156012329Y-95417089D01*
X156337185Y-95903270D01*
X156651966Y-96113600D01*
X156337185Y-96323930D01*
X156012329Y-96810111D01*
X155898255Y-97383600D01*
X156012329Y-97957089D01*
X156337185Y-98443270D01*
X156651966Y-98653600D01*
X156337185Y-98863930D01*
X156012329Y-99350111D01*
X155898255Y-99923600D01*
X156012329Y-100497089D01*
X156337185Y-100983270D01*
X156651966Y-101193600D01*
X156337185Y-101403930D01*
X156012329Y-101890111D01*
X155898255Y-102463600D01*
X156012329Y-103037089D01*
X156337185Y-103523270D01*
X156651966Y-103733600D01*
X156337185Y-103943930D01*
X156012329Y-104430111D01*
X155898255Y-105003600D01*
X156012329Y-105577089D01*
X156337185Y-106063270D01*
X156646669Y-106270061D01*
X156230868Y-106641564D01*
X155976891Y-107168809D01*
X155974242Y-107184574D01*
X156095383Y-107416600D01*
X157454600Y-107416600D01*
X157454600Y-107396600D01*
X157708600Y-107396600D01*
X157708600Y-107416600D01*
X159067817Y-107416600D01*
X159188958Y-107184574D01*
X159186309Y-107168809D01*
X158932332Y-106641564D01*
X158516531Y-106270061D01*
X158826015Y-106063270D01*
X159150871Y-105577089D01*
X159264945Y-105003600D01*
X159150871Y-104430111D01*
X158826015Y-103943930D01*
X158511234Y-103733600D01*
X158826015Y-103523270D01*
X159150871Y-103037089D01*
X159264945Y-102463600D01*
X159150871Y-101890111D01*
X158826015Y-101403930D01*
X158511234Y-101193600D01*
X158826015Y-100983270D01*
X159150871Y-100497089D01*
X159264945Y-99923600D01*
X159150871Y-99350111D01*
X158826015Y-98863930D01*
X158511234Y-98653600D01*
X158826015Y-98443270D01*
X159150871Y-97957089D01*
X159264945Y-97383600D01*
X159150871Y-96810111D01*
X158826015Y-96323930D01*
X158511234Y-96113600D01*
X158826015Y-95903270D01*
X159150871Y-95417089D01*
X159264945Y-94843600D01*
X159150871Y-94270111D01*
X158826015Y-93783930D01*
X158811687Y-93774357D01*
X158832917Y-93770362D01*
X159049041Y-93631290D01*
X159194031Y-93419090D01*
X159245040Y-93167200D01*
X159245040Y-91440000D01*
X159200762Y-91204683D01*
X159061690Y-90988559D01*
X158849490Y-90843569D01*
X158597600Y-90792560D01*
X156565600Y-90792560D01*
X156330283Y-90836838D01*
X156114159Y-90975910D01*
X155969169Y-91188110D01*
X155918160Y-91440000D01*
X155918160Y-93167200D01*
X155962438Y-93402517D01*
X156101510Y-93618641D01*
X156313710Y-93763631D01*
X156355039Y-93772000D01*
X156337185Y-93783930D01*
X156012329Y-94270111D01*
X155898255Y-94843600D01*
X154509645Y-94843600D01*
X154352727Y-94686408D01*
X154009199Y-94543762D01*
X153637233Y-94543438D01*
X153323406Y-94673108D01*
X153311327Y-94661008D01*
X152967799Y-94518362D01*
X152595833Y-94518038D01*
X152252057Y-94660083D01*
X151988808Y-94922873D01*
X151846162Y-95266401D01*
X151846121Y-95313277D01*
X151608599Y-95550799D01*
X151443852Y-95797361D01*
X151386000Y-96088200D01*
X151386000Y-101088337D01*
X151353808Y-101120473D01*
X151211162Y-101464001D01*
X151210887Y-101779800D01*
X145469064Y-101779800D01*
X145208727Y-101519008D01*
X144865199Y-101376362D01*
X144714500Y-101376231D01*
X144714500Y-100955941D01*
X144759392Y-100911127D01*
X144902038Y-100567599D01*
X144902362Y-100195633D01*
X144760317Y-99851857D01*
X144497527Y-99588608D01*
X144165991Y-99450942D01*
X144074517Y-99229557D01*
X143811727Y-98966308D01*
X143468199Y-98823662D01*
X143096233Y-98823338D01*
X142752457Y-98965383D01*
X142489208Y-99228173D01*
X142346562Y-99571701D01*
X142346238Y-99943667D01*
X142488283Y-100287443D01*
X142521400Y-100320618D01*
X142521400Y-101304281D01*
X142463808Y-101361773D01*
X142321162Y-101705301D01*
X142320838Y-102077267D01*
X138111771Y-102077267D01*
X138221838Y-101812199D01*
X138222162Y-101440233D01*
X138080117Y-101096457D01*
X137817327Y-100833208D01*
X137473799Y-100690562D01*
X137132600Y-100690265D01*
X137132600Y-99698663D01*
X137164792Y-99666527D01*
X137307438Y-99322999D01*
X137307762Y-98951033D01*
X137165717Y-98607257D01*
X136902927Y-98344008D01*
X136559399Y-98201362D01*
X136187433Y-98201038D01*
X135843657Y-98343083D01*
X135580408Y-98605873D01*
X135437762Y-98949401D01*
X135437438Y-99321367D01*
X135579483Y-99665143D01*
X135612600Y-99698318D01*
X135612600Y-103907781D01*
X135555008Y-103965273D01*
X135412362Y-104308801D01*
X135412038Y-104680767D01*
X133972300Y-104680767D01*
X133972300Y-104527350D01*
X133813550Y-104368600D01*
X132448300Y-104368600D01*
X132194300Y-104368600D01*
X130829050Y-104368600D01*
X130670300Y-104527350D01*
X130504000Y-104527350D01*
X130504000Y-101701600D01*
X130637955Y-101701600D01*
X130763630Y-102333410D01*
X130988266Y-102669601D01*
X130945602Y-102687273D01*
X130766973Y-102865901D01*
X130670300Y-103099290D01*
X130670300Y-103955850D01*
X130829050Y-104114600D01*
X132194300Y-104114600D01*
X132194300Y-104094600D01*
X132448300Y-104094600D01*
X132448300Y-104114600D01*
X133813550Y-104114600D01*
X133972300Y-103955850D01*
X133972300Y-103099290D01*
X133875627Y-102865901D01*
X133696998Y-102687273D01*
X133654334Y-102669601D01*
X133878970Y-102333410D01*
X134004645Y-101701600D01*
X133936771Y-101360374D01*
X134003273Y-101426992D01*
X134346801Y-101569638D01*
X134718767Y-101569962D01*
X135062543Y-101427917D01*
X135325792Y-101165127D01*
X135468438Y-100821599D01*
X135468762Y-100449633D01*
X135326717Y-100105857D01*
X135063927Y-99842608D01*
X134720399Y-99699962D01*
X134348433Y-99699638D01*
X134004657Y-99841683D01*
X133741408Y-100104473D01*
X133598762Y-100448001D01*
X133598586Y-100650166D01*
X133521078Y-100534167D01*
X132985455Y-100176275D01*
X132353645Y-100050600D01*
X132288955Y-100050600D01*
X131657145Y-100176275D01*
X131121522Y-100534167D01*
X130763630Y-101069790D01*
X130637955Y-101701600D01*
X130504000Y-101701600D01*
X130504000Y-97271167D01*
X141254038Y-97271167D01*
X141396083Y-97614943D01*
X141658873Y-97878192D01*
X142002401Y-98020838D01*
X142374367Y-98021162D01*
X142718143Y-97879117D01*
X142981392Y-97616327D01*
X143124038Y-97272799D01*
X143124362Y-96900833D01*
X142982317Y-96557057D01*
X142961900Y-96536604D01*
X142961900Y-93936567D01*
X150641838Y-93936567D01*
X150783883Y-94280343D01*
X151046673Y-94543592D01*
X151390201Y-94686238D01*
X151762167Y-94686562D01*
X152105943Y-94544517D01*
X152369192Y-94281727D01*
X152511838Y-93938199D01*
X152512162Y-93566233D01*
X152370117Y-93222457D01*
X152299749Y-93151966D01*
X152531792Y-92920327D01*
X152674438Y-92576799D01*
X152674762Y-92204833D01*
X152532717Y-91861057D01*
X152269927Y-91597808D01*
X151926399Y-91455162D01*
X151554433Y-91454838D01*
X151210657Y-91596883D01*
X150947408Y-91859673D01*
X150804762Y-92203201D01*
X150804438Y-92575167D01*
X150946483Y-92918943D01*
X151016851Y-92989434D01*
X150784808Y-93221073D01*
X150642162Y-93564601D01*
X150641838Y-93936567D01*
X142961900Y-93936567D01*
X142961900Y-92904163D01*
X142994092Y-92872027D01*
X143136738Y-92528499D01*
X143137062Y-92156533D01*
X142995017Y-91812757D01*
X142732227Y-91549508D01*
X142388699Y-91406862D01*
X142016733Y-91406538D01*
X141672957Y-91548583D01*
X141409708Y-91811373D01*
X141267062Y-92154901D01*
X141266738Y-92526867D01*
X141408783Y-92870643D01*
X141441900Y-92903818D01*
X141441900Y-96510859D01*
X141397008Y-96555673D01*
X141254362Y-96899201D01*
X141254038Y-97271167D01*
X130504000Y-97271167D01*
X130504000Y-88086000D01*
X160072000Y-88086000D01*
X160072000Y-109526000D01*
X160072000Y-109526000D01*
G37*
X160072000Y-109526000D02*
X130504000Y-109526000D01*
X130504000Y-107902626D01*
X155974242Y-107902626D01*
X155976891Y-107918391D01*
X156230868Y-108445636D01*
X156667280Y-108835554D01*
X157219687Y-109028784D01*
X157454600Y-108884524D01*
X157454600Y-107670600D01*
X157708600Y-107670600D01*
X157708600Y-108884524D01*
X157943513Y-109028784D01*
X158495920Y-108835554D01*
X158932332Y-108445636D01*
X159186309Y-107918391D01*
X159188958Y-107902626D01*
X159067817Y-107670600D01*
X157708600Y-107670600D01*
X157454600Y-107670600D01*
X156095383Y-107670600D01*
X155974242Y-107902626D01*
X130504000Y-107902626D01*
X130504000Y-104527350D01*
X130670300Y-104527350D01*
X130670300Y-105383910D01*
X130766973Y-105617299D01*
X130945602Y-105795927D01*
X131178991Y-105892600D01*
X132035550Y-105892600D01*
X132194300Y-105733850D01*
X132194300Y-104368600D01*
X132448300Y-104368600D01*
X132448300Y-105733850D01*
X132607050Y-105892600D01*
X133463609Y-105892600D01*
X133696998Y-105795927D01*
X133875627Y-105617299D01*
X133972300Y-105383910D01*
X133972300Y-104680767D01*
X135412038Y-104680767D01*
X135554083Y-105024543D01*
X135816873Y-105287792D01*
X136160401Y-105430438D01*
X136409804Y-105430655D01*
X136493883Y-105634143D01*
X136756673Y-105897392D01*
X137100201Y-106040038D01*
X137472167Y-106040362D01*
X137815943Y-105898317D01*
X138079192Y-105635527D01*
X138221838Y-105291999D01*
X138222162Y-104920033D01*
X138080117Y-104576257D01*
X138047000Y-104543082D01*
X138047000Y-102187863D01*
X138079192Y-102155727D01*
X138111771Y-102077267D01*
X142320838Y-102077267D01*
X142462883Y-102421043D01*
X142725673Y-102684292D01*
X143069201Y-102826938D01*
X143194500Y-102827047D01*
X143194500Y-105482537D01*
X143162308Y-105514673D01*
X143019662Y-105858201D01*
X143019338Y-106230167D01*
X143161383Y-106573943D01*
X143424173Y-106837192D01*
X143767701Y-106979838D01*
X144139667Y-106980162D01*
X144483443Y-106838117D01*
X144746692Y-106575327D01*
X144889338Y-106231799D01*
X144889662Y-105859833D01*
X144747617Y-105516057D01*
X144714500Y-105482882D01*
X144714500Y-104630366D01*
X145054067Y-104630662D01*
X145397843Y-104488617D01*
X145405573Y-104480900D01*
X146821037Y-104480900D01*
X146853173Y-104513092D01*
X147196701Y-104655738D01*
X147568667Y-104656062D01*
X147912443Y-104514017D01*
X148175692Y-104251227D01*
X148318338Y-103907699D01*
X148318662Y-103535733D01*
X148221177Y-103299800D01*
X152523337Y-103299800D01*
X152555473Y-103331992D01*
X152899001Y-103474638D01*
X153270967Y-103474962D01*
X153614743Y-103332917D01*
X153877992Y-103070127D01*
X154020638Y-102726599D01*
X154020962Y-102354633D01*
X153878917Y-102010857D01*
X153616127Y-101747608D01*
X153272599Y-101604962D01*
X153081041Y-101604795D01*
X153081162Y-101465633D01*
X152939117Y-101121857D01*
X152906000Y-101088682D01*
X152906000Y-100426821D01*
X153018696Y-100426919D01*
X153029283Y-100452543D01*
X153292073Y-100715792D01*
X153635601Y-100858438D01*
X154007567Y-100858762D01*
X154351343Y-100716717D01*
X154614592Y-100453927D01*
X154757238Y-100110399D01*
X154757562Y-99738433D01*
X154615517Y-99394657D01*
X154582400Y-99361482D01*
X154582400Y-97107730D01*
X154690792Y-96999527D01*
X154833438Y-96655999D01*
X154833762Y-96284033D01*
X154691717Y-95940257D01*
X154657387Y-95905867D01*
X154757238Y-95665399D01*
X154757562Y-95293433D01*
X154615517Y-94949657D01*
X154509645Y-94843600D01*
X155898255Y-94843600D01*
X156012329Y-95417089D01*
X156337185Y-95903270D01*
X156651966Y-96113600D01*
X156337185Y-96323930D01*
X156012329Y-96810111D01*
X155898255Y-97383600D01*
X156012329Y-97957089D01*
X156337185Y-98443270D01*
X156651966Y-98653600D01*
X156337185Y-98863930D01*
X156012329Y-99350111D01*
X155898255Y-99923600D01*
X156012329Y-100497089D01*
X156337185Y-100983270D01*
X156651966Y-101193600D01*
X156337185Y-101403930D01*
X156012329Y-101890111D01*
X155898255Y-102463600D01*
X156012329Y-103037089D01*
X156337185Y-103523270D01*
X156651966Y-103733600D01*
X156337185Y-103943930D01*
X156012329Y-104430111D01*
X155898255Y-105003600D01*
X156012329Y-105577089D01*
X156337185Y-106063270D01*
X156646669Y-106270061D01*
X156230868Y-106641564D01*
X155976891Y-107168809D01*
X155974242Y-107184574D01*
X156095383Y-107416600D01*
X157454600Y-107416600D01*
X157454600Y-107396600D01*
X157708600Y-107396600D01*
X157708600Y-107416600D01*
X159067817Y-107416600D01*
X159188958Y-107184574D01*
X159186309Y-107168809D01*
X158932332Y-106641564D01*
X158516531Y-106270061D01*
X158826015Y-106063270D01*
X159150871Y-105577089D01*
X159264945Y-105003600D01*
X159150871Y-104430111D01*
X158826015Y-103943930D01*
X158511234Y-103733600D01*
X158826015Y-103523270D01*
X159150871Y-103037089D01*
X159264945Y-102463600D01*
X159150871Y-101890111D01*
X158826015Y-101403930D01*
X158511234Y-101193600D01*
X158826015Y-100983270D01*
X159150871Y-100497089D01*
X159264945Y-99923600D01*
X159150871Y-99350111D01*
X158826015Y-98863930D01*
X158511234Y-98653600D01*
X158826015Y-98443270D01*
X159150871Y-97957089D01*
X159264945Y-97383600D01*
X159150871Y-96810111D01*
X158826015Y-96323930D01*
X158511234Y-96113600D01*
X158826015Y-95903270D01*
X159150871Y-95417089D01*
X159264945Y-94843600D01*
X159150871Y-94270111D01*
X158826015Y-93783930D01*
X158811687Y-93774357D01*
X158832917Y-93770362D01*
X159049041Y-93631290D01*
X159194031Y-93419090D01*
X159245040Y-93167200D01*
X159245040Y-91440000D01*
X159200762Y-91204683D01*
X159061690Y-90988559D01*
X158849490Y-90843569D01*
X158597600Y-90792560D01*
X156565600Y-90792560D01*
X156330283Y-90836838D01*
X156114159Y-90975910D01*
X155969169Y-91188110D01*
X155918160Y-91440000D01*
X155918160Y-93167200D01*
X155962438Y-93402517D01*
X156101510Y-93618641D01*
X156313710Y-93763631D01*
X156355039Y-93772000D01*
X156337185Y-93783930D01*
X156012329Y-94270111D01*
X155898255Y-94843600D01*
X154509645Y-94843600D01*
X154352727Y-94686408D01*
X154009199Y-94543762D01*
X153637233Y-94543438D01*
X153323406Y-94673108D01*
X153311327Y-94661008D01*
X152967799Y-94518362D01*
X152595833Y-94518038D01*
X152252057Y-94660083D01*
X151988808Y-94922873D01*
X151846162Y-95266401D01*
X151846121Y-95313277D01*
X151608599Y-95550799D01*
X151443852Y-95797361D01*
X151386000Y-96088200D01*
X151386000Y-101088337D01*
X151353808Y-101120473D01*
X151211162Y-101464001D01*
X151210887Y-101779800D01*
X145469064Y-101779800D01*
X145208727Y-101519008D01*
X144865199Y-101376362D01*
X144714500Y-101376231D01*
X144714500Y-100955941D01*
X144759392Y-100911127D01*
X144902038Y-100567599D01*
X144902362Y-100195633D01*
X144760317Y-99851857D01*
X144497527Y-99588608D01*
X144165991Y-99450942D01*
X144074517Y-99229557D01*
X143811727Y-98966308D01*
X143468199Y-98823662D01*
X143096233Y-98823338D01*
X142752457Y-98965383D01*
X142489208Y-99228173D01*
X142346562Y-99571701D01*
X142346238Y-99943667D01*
X142488283Y-100287443D01*
X142521400Y-100320618D01*
X142521400Y-101304281D01*
X142463808Y-101361773D01*
X142321162Y-101705301D01*
X142320838Y-102077267D01*
X138111771Y-102077267D01*
X138221838Y-101812199D01*
X138222162Y-101440233D01*
X138080117Y-101096457D01*
X137817327Y-100833208D01*
X137473799Y-100690562D01*
X137132600Y-100690265D01*
X137132600Y-99698663D01*
X137164792Y-99666527D01*
X137307438Y-99322999D01*
X137307762Y-98951033D01*
X137165717Y-98607257D01*
X136902927Y-98344008D01*
X136559399Y-98201362D01*
X136187433Y-98201038D01*
X135843657Y-98343083D01*
X135580408Y-98605873D01*
X135437762Y-98949401D01*
X135437438Y-99321367D01*
X135579483Y-99665143D01*
X135612600Y-99698318D01*
X135612600Y-103907781D01*
X135555008Y-103965273D01*
X135412362Y-104308801D01*
X135412038Y-104680767D01*
X133972300Y-104680767D01*
X133972300Y-104527350D01*
X133813550Y-104368600D01*
X132448300Y-104368600D01*
X132194300Y-104368600D01*
X130829050Y-104368600D01*
X130670300Y-104527350D01*
X130504000Y-104527350D01*
X130504000Y-101701600D01*
X130637955Y-101701600D01*
X130763630Y-102333410D01*
X130988266Y-102669601D01*
X130945602Y-102687273D01*
X130766973Y-102865901D01*
X130670300Y-103099290D01*
X130670300Y-103955850D01*
X130829050Y-104114600D01*
X132194300Y-104114600D01*
X132194300Y-104094600D01*
X132448300Y-104094600D01*
X132448300Y-104114600D01*
X133813550Y-104114600D01*
X133972300Y-103955850D01*
X133972300Y-103099290D01*
X133875627Y-102865901D01*
X133696998Y-102687273D01*
X133654334Y-102669601D01*
X133878970Y-102333410D01*
X134004645Y-101701600D01*
X133936771Y-101360374D01*
X134003273Y-101426992D01*
X134346801Y-101569638D01*
X134718767Y-101569962D01*
X135062543Y-101427917D01*
X135325792Y-101165127D01*
X135468438Y-100821599D01*
X135468762Y-100449633D01*
X135326717Y-100105857D01*
X135063927Y-99842608D01*
X134720399Y-99699962D01*
X134348433Y-99699638D01*
X134004657Y-99841683D01*
X133741408Y-100104473D01*
X133598762Y-100448001D01*
X133598586Y-100650166D01*
X133521078Y-100534167D01*
X132985455Y-100176275D01*
X132353645Y-100050600D01*
X132288955Y-100050600D01*
X131657145Y-100176275D01*
X131121522Y-100534167D01*
X130763630Y-101069790D01*
X130637955Y-101701600D01*
X130504000Y-101701600D01*
X130504000Y-97271167D01*
X141254038Y-97271167D01*
X141396083Y-97614943D01*
X141658873Y-97878192D01*
X142002401Y-98020838D01*
X142374367Y-98021162D01*
X142718143Y-97879117D01*
X142981392Y-97616327D01*
X143124038Y-97272799D01*
X143124362Y-96900833D01*
X142982317Y-96557057D01*
X142961900Y-96536604D01*
X142961900Y-93936567D01*
X150641838Y-93936567D01*
X150783883Y-94280343D01*
X151046673Y-94543592D01*
X151390201Y-94686238D01*
X151762167Y-94686562D01*
X152105943Y-94544517D01*
X152369192Y-94281727D01*
X152511838Y-93938199D01*
X152512162Y-93566233D01*
X152370117Y-93222457D01*
X152299749Y-93151966D01*
X152531792Y-92920327D01*
X152674438Y-92576799D01*
X152674762Y-92204833D01*
X152532717Y-91861057D01*
X152269927Y-91597808D01*
X151926399Y-91455162D01*
X151554433Y-91454838D01*
X151210657Y-91596883D01*
X150947408Y-91859673D01*
X150804762Y-92203201D01*
X150804438Y-92575167D01*
X150946483Y-92918943D01*
X151016851Y-92989434D01*
X150784808Y-93221073D01*
X150642162Y-93564601D01*
X150641838Y-93936567D01*
X142961900Y-93936567D01*
X142961900Y-92904163D01*
X142994092Y-92872027D01*
X143136738Y-92528499D01*
X143137062Y-92156533D01*
X142995017Y-91812757D01*
X142732227Y-91549508D01*
X142388699Y-91406862D01*
X142016733Y-91406538D01*
X141672957Y-91548583D01*
X141409708Y-91811373D01*
X141267062Y-92154901D01*
X141266738Y-92526867D01*
X141408783Y-92870643D01*
X141441900Y-92903818D01*
X141441900Y-96510859D01*
X141397008Y-96555673D01*
X141254362Y-96899201D01*
X141254038Y-97271167D01*
X130504000Y-97271167D01*
X130504000Y-88086000D01*
X160072000Y-88086000D01*
X160072000Y-109526000D01*
M02*
