G75*
%MOIN*%
%OFA0B0*%
%FSLAX25Y25*%
%IPPOS*%
%LPD*%
%AMOC8*
5,1,8,0,0,1.08239X$1,22.5*
%
%ADD10C,0.00400*%
%ADD11C,0.00500*%
%ADD12C,0.01000*%
%ADD13C,0.00600*%
%ADD14C,0.00800*%
D10*
X0040784Y0014967D02*
X0041552Y0014200D01*
X0043086Y0014200D01*
X0043854Y0014967D01*
X0043854Y0015735D01*
X0043086Y0016502D01*
X0041552Y0016502D01*
X0040784Y0017269D01*
X0040784Y0018037D01*
X0041552Y0018804D01*
X0043086Y0018804D01*
X0043854Y0018037D01*
X0045388Y0018804D02*
X0045388Y0014200D01*
X0045388Y0016502D02*
X0048457Y0016502D01*
X0048457Y0018804D02*
X0048457Y0014200D01*
X0049992Y0014200D02*
X0052294Y0014200D01*
X0053061Y0014967D01*
X0053061Y0018037D01*
X0052294Y0018804D01*
X0049992Y0018804D01*
X0049992Y0014200D01*
X0054596Y0014200D02*
X0054596Y0018804D01*
X0057665Y0014200D01*
X0057665Y0018804D01*
X0056898Y0034200D02*
X0054596Y0034200D01*
X0054596Y0038804D01*
X0056898Y0038804D01*
X0057665Y0038037D01*
X0057665Y0034967D01*
X0056898Y0034200D01*
X0053061Y0034200D02*
X0053061Y0038804D01*
X0049992Y0038804D02*
X0049992Y0034200D01*
X0048457Y0034967D02*
X0048457Y0036502D01*
X0046923Y0036502D01*
X0048457Y0038037D02*
X0047690Y0038804D01*
X0046156Y0038804D01*
X0045388Y0038037D01*
X0045388Y0034967D01*
X0046156Y0034200D01*
X0047690Y0034200D01*
X0048457Y0034967D01*
X0049992Y0038804D02*
X0053061Y0034200D01*
X0049992Y0054200D02*
X0049992Y0058804D01*
X0052294Y0058804D01*
X0053061Y0058037D01*
X0053061Y0056502D01*
X0052294Y0055735D01*
X0049992Y0055735D01*
X0048457Y0055735D02*
X0048457Y0058804D01*
X0048457Y0055735D02*
X0046923Y0054200D01*
X0045388Y0055735D01*
X0045388Y0058804D01*
X0054596Y0058804D02*
X0054596Y0055735D01*
X0056131Y0054200D01*
X0057665Y0055735D01*
X0057665Y0058804D01*
X0057096Y0069200D02*
X0060165Y0069200D01*
X0058631Y0069200D02*
X0058631Y0073804D01*
X0057096Y0072269D01*
X0055561Y0071502D02*
X0054794Y0070735D01*
X0052492Y0070735D01*
X0052492Y0069200D02*
X0052492Y0073804D01*
X0054794Y0073804D01*
X0055561Y0073037D01*
X0055561Y0071502D01*
X0050957Y0073804D02*
X0047888Y0073804D01*
X0049423Y0073804D02*
X0049423Y0069200D01*
X0049423Y0079200D02*
X0049423Y0083804D01*
X0050957Y0083804D02*
X0047888Y0083804D01*
X0052492Y0083804D02*
X0052492Y0079200D01*
X0052492Y0080735D02*
X0054794Y0080735D01*
X0055561Y0081502D01*
X0055561Y0083037D01*
X0054794Y0083804D01*
X0052492Y0083804D01*
X0057096Y0083037D02*
X0057863Y0083804D01*
X0059398Y0083804D01*
X0060165Y0083037D01*
X0060165Y0082269D01*
X0057096Y0079200D01*
X0060165Y0079200D01*
X0057665Y0094200D02*
X0057665Y0098804D01*
X0057665Y0096502D02*
X0054596Y0096502D01*
X0054596Y0094200D02*
X0054596Y0098804D01*
X0053061Y0098804D02*
X0053061Y0094200D01*
X0049992Y0098804D01*
X0049992Y0094200D01*
X0048457Y0094200D02*
X0048457Y0097269D01*
X0046923Y0098804D01*
X0045388Y0097269D01*
X0045388Y0094200D01*
X0043854Y0094967D02*
X0043086Y0094200D01*
X0041552Y0094200D01*
X0040784Y0094967D01*
X0040784Y0098037D01*
X0041552Y0098804D01*
X0043086Y0098804D01*
X0043854Y0098037D01*
X0045388Y0096502D02*
X0048457Y0096502D01*
X0048457Y0114200D02*
X0048457Y0117269D01*
X0046923Y0118804D01*
X0045388Y0117269D01*
X0045388Y0114200D01*
X0043854Y0114967D02*
X0043086Y0114200D01*
X0041552Y0114200D01*
X0040784Y0114967D01*
X0040784Y0118037D01*
X0041552Y0118804D01*
X0043086Y0118804D01*
X0043854Y0118037D01*
X0045388Y0116502D02*
X0048457Y0116502D01*
X0049992Y0114200D02*
X0049992Y0118804D01*
X0053061Y0114200D01*
X0053061Y0118804D01*
X0054596Y0118804D02*
X0054596Y0114200D01*
X0057665Y0114200D01*
X0078897Y0117152D02*
X0078897Y0118353D01*
X0078897Y0117752D02*
X0081899Y0117752D01*
X0082500Y0117152D01*
X0082500Y0116551D01*
X0081899Y0115951D01*
X0081299Y0119634D02*
X0081299Y0121435D01*
X0080698Y0122036D01*
X0079497Y0122036D01*
X0078897Y0121435D01*
X0078897Y0119634D01*
X0082500Y0119634D01*
X0082500Y0123317D02*
X0082500Y0125719D01*
X0082500Y0124518D02*
X0078897Y0124518D01*
X0080098Y0123317D01*
D11*
X0083038Y0123389D02*
X0085916Y0123389D01*
X0086875Y0124348D01*
X0086875Y0127226D01*
X0083038Y0127226D01*
X0083038Y0129144D02*
X0083038Y0131062D01*
X0082079Y0130103D02*
X0085916Y0130103D01*
X0086875Y0131062D01*
X0092413Y0132021D02*
X0092413Y0134899D01*
X0097209Y0134899D01*
X0098168Y0133940D01*
X0098168Y0132980D01*
X0096250Y0132021D02*
X0096250Y0134899D01*
X0096250Y0136817D02*
X0090495Y0140654D01*
X0092413Y0132021D02*
X0093373Y0131062D01*
X0095291Y0131062D01*
X0096250Y0132021D01*
X0092413Y0129144D02*
X0092413Y0128185D01*
X0094332Y0126266D01*
X0096250Y0126266D02*
X0092413Y0126266D01*
X0093373Y0124348D02*
X0092413Y0123389D01*
X0092413Y0121471D01*
X0093373Y0120512D01*
X0095291Y0120512D01*
X0096250Y0121471D01*
X0096250Y0123389D01*
X0095291Y0124348D01*
X0093373Y0124348D01*
X0095291Y0118593D02*
X0096250Y0118593D01*
X0096250Y0117634D01*
X0095291Y0117634D01*
X0095291Y0118593D01*
X0096250Y0115716D02*
X0095291Y0114757D01*
X0091454Y0114757D01*
X0092413Y0113797D02*
X0092413Y0115716D01*
X0093373Y0111879D02*
X0092413Y0110920D01*
X0092413Y0109002D01*
X0094332Y0109002D02*
X0094332Y0111879D01*
X0093373Y0111879D02*
X0096250Y0111879D01*
X0096250Y0109002D01*
X0095291Y0108043D01*
X0094332Y0109002D01*
X0095291Y0106124D02*
X0094332Y0105165D01*
X0094332Y0103247D01*
X0093373Y0102288D01*
X0092413Y0103247D01*
X0092413Y0106124D01*
X0095291Y0106124D02*
X0096250Y0105165D01*
X0096250Y0102288D01*
X0094332Y0100369D02*
X0094332Y0096533D01*
X0095291Y0096533D02*
X0093373Y0096533D01*
X0092413Y0097492D01*
X0092413Y0099410D01*
X0093373Y0100369D01*
X0094332Y0100369D01*
X0096250Y0099410D02*
X0096250Y0097492D01*
X0095291Y0096533D01*
X0092413Y0094614D02*
X0092413Y0093655D01*
X0094332Y0091737D01*
X0096250Y0091737D02*
X0092413Y0091737D01*
X0093373Y0089819D02*
X0092413Y0088860D01*
X0092413Y0086941D01*
X0093373Y0085982D01*
X0095291Y0085982D01*
X0096250Y0086941D01*
X0096250Y0088860D01*
X0095291Y0089819D01*
X0093373Y0089819D01*
X0090495Y0084064D02*
X0096250Y0080227D01*
X0096250Y0074472D02*
X0090495Y0078309D01*
X0086875Y0078309D02*
X0086875Y0076391D01*
X0085916Y0075431D01*
X0083998Y0075431D01*
X0083038Y0076391D01*
X0083038Y0078309D01*
X0083998Y0079268D01*
X0084957Y0079268D01*
X0084957Y0075431D01*
X0083998Y0073513D02*
X0083038Y0072554D01*
X0083038Y0069677D01*
X0086875Y0069677D01*
X0086875Y0067758D02*
X0086875Y0064881D01*
X0085916Y0063922D01*
X0084957Y0064881D01*
X0084957Y0067758D01*
X0083998Y0067758D02*
X0086875Y0067758D01*
X0083998Y0067758D02*
X0083038Y0066799D01*
X0083038Y0064881D01*
X0082079Y0062003D02*
X0083998Y0062003D01*
X0084957Y0061044D01*
X0084957Y0058167D01*
X0086875Y0058167D02*
X0081120Y0058167D01*
X0081120Y0061044D01*
X0082079Y0062003D01*
X0091454Y0062962D02*
X0095291Y0062962D01*
X0096250Y0063922D01*
X0096250Y0065840D02*
X0096250Y0068717D01*
X0095291Y0069677D01*
X0093373Y0069677D01*
X0092413Y0068717D01*
X0092413Y0065840D01*
X0098168Y0065840D01*
X0096250Y0060085D02*
X0095291Y0059126D01*
X0091454Y0059126D01*
X0092413Y0058167D02*
X0092413Y0060085D01*
X0092413Y0062003D02*
X0092413Y0063922D01*
X0092413Y0071595D02*
X0093373Y0071595D01*
X0093373Y0072554D01*
X0092413Y0072554D01*
X0092413Y0071595D01*
X0095291Y0071595D02*
X0096250Y0071595D01*
X0096250Y0072554D01*
X0095291Y0072554D01*
X0095291Y0071595D01*
X0086875Y0073513D02*
X0083998Y0073513D01*
X0086875Y0081186D02*
X0086875Y0083105D01*
X0086875Y0082145D02*
X0081120Y0082145D01*
X0081120Y0081186D01*
X0081120Y0090778D02*
X0081120Y0093655D01*
X0082079Y0094614D01*
X0083038Y0094614D01*
X0083998Y0093655D01*
X0083998Y0090778D01*
X0086875Y0090778D02*
X0081120Y0090778D01*
X0083998Y0093655D02*
X0084957Y0094614D01*
X0085916Y0094614D01*
X0086875Y0093655D01*
X0086875Y0090778D01*
X0086875Y0096533D02*
X0083038Y0096533D01*
X0083038Y0098451D02*
X0083038Y0099410D01*
X0083038Y0098451D02*
X0084957Y0096533D01*
X0084957Y0101329D02*
X0084957Y0105165D01*
X0083998Y0105165D01*
X0083038Y0104206D01*
X0083038Y0102288D01*
X0083998Y0101329D01*
X0085916Y0101329D01*
X0086875Y0102288D01*
X0086875Y0104206D01*
X0085916Y0107083D02*
X0084957Y0108043D01*
X0084957Y0110920D01*
X0083998Y0110920D02*
X0083038Y0109961D01*
X0083038Y0108043D01*
X0085916Y0107083D02*
X0086875Y0108043D01*
X0086875Y0110920D01*
X0083998Y0110920D01*
X0084957Y0112838D02*
X0083038Y0115716D01*
X0083998Y0117634D02*
X0085916Y0117634D01*
X0086875Y0118593D01*
X0086875Y0120512D01*
X0085916Y0121471D01*
X0083998Y0121471D01*
X0083038Y0120512D01*
X0083038Y0118593D01*
X0083998Y0117634D01*
X0086875Y0115716D02*
X0084957Y0112838D01*
X0086875Y0112838D02*
X0081120Y0112838D01*
X0093373Y0056248D02*
X0092413Y0055289D01*
X0092413Y0053371D01*
X0093373Y0052412D01*
X0096250Y0052412D02*
X0090495Y0052412D01*
X0093373Y0056248D02*
X0096250Y0056248D01*
X0086875Y0047616D02*
X0083038Y0047616D01*
X0083038Y0049534D02*
X0083038Y0050494D01*
X0083038Y0049534D02*
X0084957Y0047616D01*
X0084957Y0045698D02*
X0084957Y0042820D01*
X0085916Y0041861D01*
X0086875Y0042820D01*
X0086875Y0045698D01*
X0083998Y0045698D01*
X0083038Y0044739D01*
X0083038Y0042820D01*
X0081120Y0038984D02*
X0086875Y0038984D01*
X0086875Y0038025D02*
X0086875Y0039943D01*
X0085916Y0036106D02*
X0083998Y0036106D01*
X0083038Y0035147D01*
X0083038Y0033229D01*
X0083998Y0032270D01*
X0085916Y0032270D01*
X0086875Y0033229D01*
X0086875Y0035147D01*
X0085916Y0036106D01*
X0081120Y0038025D02*
X0081120Y0038984D01*
X0082079Y0030351D02*
X0081120Y0029392D01*
X0081120Y0027474D01*
X0082079Y0026515D01*
X0083038Y0026515D01*
X0083998Y0027474D01*
X0083998Y0029392D01*
X0084957Y0030351D01*
X0085916Y0030351D01*
X0086875Y0029392D01*
X0086875Y0027474D01*
X0085916Y0026515D01*
X0090495Y0026515D02*
X0091454Y0025556D01*
X0092413Y0025556D01*
X0093373Y0026515D01*
X0093373Y0028433D01*
X0094332Y0029392D01*
X0095291Y0029392D01*
X0096250Y0028433D01*
X0096250Y0026515D01*
X0095291Y0025556D01*
X0094332Y0023637D02*
X0094332Y0019801D01*
X0095291Y0019801D02*
X0093373Y0019801D01*
X0092413Y0020760D01*
X0092413Y0022678D01*
X0093373Y0023637D01*
X0094332Y0023637D01*
X0096250Y0022678D02*
X0096250Y0020760D01*
X0095291Y0019801D01*
X0092413Y0017882D02*
X0092413Y0016923D01*
X0094332Y0015005D01*
X0096250Y0015005D02*
X0092413Y0015005D01*
X0091454Y0013087D02*
X0090495Y0012127D01*
X0090495Y0010209D01*
X0091454Y0009250D01*
X0095291Y0009250D01*
X0096250Y0010209D01*
X0096250Y0012127D01*
X0095291Y0013087D01*
X0091454Y0013087D01*
X0086875Y0013087D02*
X0086875Y0009250D01*
X0086875Y0011168D02*
X0081120Y0011168D01*
X0083038Y0009250D01*
X0081120Y0015005D02*
X0085916Y0015005D01*
X0086875Y0015964D01*
X0086875Y0017882D01*
X0085916Y0018842D01*
X0081120Y0018842D01*
X0090495Y0026515D02*
X0090495Y0028433D01*
X0091454Y0029392D01*
X0092413Y0032270D02*
X0092413Y0034188D01*
X0093373Y0035147D01*
X0096250Y0035147D01*
X0096250Y0032270D01*
X0095291Y0031310D01*
X0094332Y0032270D01*
X0094332Y0035147D01*
X0092413Y0037065D02*
X0092413Y0038984D01*
X0091454Y0038025D02*
X0095291Y0038025D01*
X0096250Y0038984D01*
D12*
X0064000Y0041500D02*
X0061500Y0039000D01*
X0061500Y0034000D01*
X0064000Y0031500D01*
X0064000Y0021500D02*
X0061500Y0019000D01*
X0061500Y0014000D01*
X0064000Y0011500D01*
X0064000Y0051500D02*
X0061500Y0054000D01*
X0061500Y0059000D01*
X0064000Y0061500D01*
X0064000Y0091500D02*
X0061500Y0094000D01*
X0061500Y0099000D01*
X0064000Y0101500D01*
X0064000Y0111500D02*
X0061500Y0114000D01*
X0061500Y0119000D01*
X0064000Y0121500D01*
D13*
X0066500Y0119000D02*
X0066500Y0124000D01*
X0069000Y0126500D01*
X0074000Y0126500D01*
X0076500Y0124000D01*
X0076500Y0119000D01*
X0074000Y0116500D01*
X0076500Y0114000D01*
X0076500Y0109000D01*
X0074000Y0106500D01*
X0069000Y0106500D01*
X0066500Y0109000D01*
X0066500Y0114000D01*
X0069000Y0116500D01*
X0066500Y0119000D01*
X0069000Y0116500D02*
X0074000Y0116500D01*
X0074000Y0106500D02*
X0076500Y0104000D01*
X0076500Y0099000D01*
X0074000Y0096500D01*
X0076500Y0094000D01*
X0076500Y0089000D01*
X0074000Y0086500D01*
X0076500Y0084000D01*
X0076500Y0079000D01*
X0074000Y0076500D01*
X0069000Y0076500D01*
X0066500Y0079000D01*
X0066500Y0084000D01*
X0069000Y0086500D01*
X0066500Y0089000D01*
X0066500Y0094000D01*
X0069000Y0096500D01*
X0066500Y0099000D01*
X0066500Y0104000D01*
X0069000Y0106500D01*
X0069000Y0096500D02*
X0074000Y0096500D01*
X0074000Y0086500D02*
X0069000Y0086500D01*
X0069000Y0076500D02*
X0066500Y0074000D01*
X0066500Y0069000D01*
X0069000Y0066500D01*
X0066500Y0064000D01*
X0066500Y0059000D01*
X0069000Y0056500D01*
X0066500Y0054000D01*
X0066500Y0049000D01*
X0069000Y0046500D01*
X0074000Y0046500D01*
X0076500Y0049000D01*
X0076500Y0054000D01*
X0074000Y0056500D01*
X0069000Y0056500D01*
X0074000Y0056500D02*
X0076500Y0059000D01*
X0076500Y0064000D01*
X0074000Y0066500D01*
X0069000Y0066500D01*
X0074000Y0066500D02*
X0076500Y0069000D01*
X0076500Y0074000D01*
X0074000Y0076500D01*
X0074000Y0046500D02*
X0076500Y0044000D01*
X0076500Y0039000D01*
X0074000Y0036500D01*
X0076500Y0034000D01*
X0076500Y0029000D01*
X0074000Y0026500D01*
X0076500Y0024000D01*
X0076500Y0019000D01*
X0074000Y0016500D01*
X0076500Y0014000D01*
X0076500Y0009000D01*
X0074000Y0006500D01*
X0069000Y0006500D01*
X0066500Y0009000D01*
X0066500Y0014000D01*
X0069000Y0016500D01*
X0066500Y0019000D01*
X0066500Y0024000D01*
X0069000Y0026500D01*
X0066500Y0029000D01*
X0066500Y0034000D01*
X0069000Y0036500D01*
X0066500Y0039000D01*
X0066500Y0044000D01*
X0069000Y0046500D01*
X0069000Y0036500D02*
X0074000Y0036500D01*
X0074000Y0026500D02*
X0069000Y0026500D01*
X0069000Y0016500D02*
X0074000Y0016500D01*
D14*
X0102976Y0005870D02*
X0102976Y0127130D01*
X0124000Y0127130D01*
X0124000Y0005870D02*
X0102976Y0005870D01*
M02*
