G75*
%MOIN*%
%OFA0B0*%
%FSLAX25Y25*%
%IPPOS*%
%LPD*%
%AMOC8*
5,1,8,0,0,1.08239X$1,22.5*
%
%ADD10R,0.04331X0.03150*%
%ADD11R,0.09843X0.04724*%
%ADD12C,0.06000*%
%ADD13R,0.07400X0.07400*%
%ADD14C,0.07400*%
%ADD15C,0.20000*%
%ADD16C,0.02400*%
%ADD17C,0.01600*%
%ADD18C,0.04000*%
%ADD19C,0.01000*%
D10*
X0010673Y0054000D03*
X0010673Y0059000D03*
X0010673Y0064000D03*
X0010673Y0069000D03*
X0010673Y0074000D03*
X0010673Y0079000D03*
X0032327Y0079000D03*
X0032327Y0074000D03*
X0032327Y0069000D03*
X0032327Y0064000D03*
X0032327Y0059000D03*
X0032327Y0054000D03*
D11*
X0031539Y0044118D03*
X0011461Y0044118D03*
X0011461Y0088882D03*
X0031539Y0088882D03*
D12*
X0068500Y0091500D02*
X0074500Y0091500D01*
X0074500Y0081500D02*
X0068500Y0081500D01*
X0068500Y0071500D02*
X0074500Y0071500D01*
X0074500Y0061500D02*
X0068500Y0061500D01*
X0068500Y0051500D02*
X0074500Y0051500D01*
X0074500Y0041500D02*
X0068500Y0041500D01*
X0068500Y0031500D02*
X0074500Y0031500D01*
X0074500Y0021500D02*
X0068500Y0021500D01*
X0068500Y0011500D02*
X0074500Y0011500D01*
X0074500Y0101500D02*
X0068500Y0101500D01*
X0068500Y0111500D02*
X0074500Y0111500D01*
X0074500Y0121500D02*
X0068500Y0121500D01*
D13*
X0108409Y0088311D03*
D14*
X0108409Y0077406D03*
X0108409Y0066500D03*
X0108409Y0055594D03*
X0108409Y0044689D03*
X0119591Y0050161D03*
X0119591Y0061067D03*
X0119591Y0071933D03*
X0119591Y0082839D03*
D15*
X0114000Y0115713D03*
X0114000Y0017287D03*
D16*
X0071500Y0021500D02*
X0071500Y0011500D01*
X0071500Y0051500D02*
X0071500Y0061500D01*
X0071500Y0091500D02*
X0071500Y0101500D01*
X0071500Y0111500D02*
X0071500Y0121500D01*
X0032327Y0079000D02*
X0010673Y0079000D01*
X0010673Y0074000D02*
X0032327Y0074000D01*
X0032327Y0064000D02*
X0010673Y0064000D01*
X0010673Y0054000D02*
X0032327Y0054000D01*
D17*
X0041500Y0054000D01*
X0044000Y0051500D01*
X0044000Y0029000D01*
X0051500Y0021500D01*
X0071500Y0021500D01*
X0071500Y0061500D02*
X0061500Y0061500D01*
X0059000Y0064000D01*
X0032327Y0064000D01*
X0032327Y0069000D02*
X0059000Y0069000D01*
X0061500Y0071500D01*
X0071500Y0071500D01*
X0071500Y0091500D02*
X0051500Y0091500D01*
X0049000Y0089000D01*
X0049000Y0081500D01*
X0041500Y0074000D01*
X0032327Y0074000D01*
X0032327Y0079000D02*
X0041500Y0079000D01*
X0044000Y0081500D01*
X0044000Y0104000D01*
X0051500Y0111500D01*
X0071500Y0111500D01*
X0026500Y0069000D02*
X0010673Y0069000D01*
X0176700Y0233900D02*
X0176700Y0234000D01*
D18*
X0026500Y0069000D03*
D19*
X0027475Y0040456D02*
X0026019Y0039000D01*
X0031500Y0039000D01*
X0031500Y0039000D01*
X0033084Y0039000D01*
X0036096Y0038021D01*
X0036096Y0038021D01*
X0038659Y0036159D01*
X0038659Y0036159D01*
X0040521Y0033596D01*
X0040521Y0033596D01*
X0041500Y0030584D01*
X0041500Y0029000D01*
X0041500Y0029000D01*
X0041500Y0009490D01*
X0041598Y0008995D01*
X0041533Y0008668D01*
X0041548Y0008512D01*
X0041690Y0008043D01*
X0041921Y0007611D01*
X0042232Y0007232D01*
X0042611Y0006921D01*
X0043043Y0006690D01*
X0043512Y0006548D01*
X0044000Y0006500D01*
X0110599Y0006500D01*
X0109638Y0006757D01*
X0107062Y0008245D01*
X0104958Y0010349D01*
X0103470Y0012926D01*
X0102700Y0015800D01*
X0102700Y0018775D01*
X0103470Y0021649D01*
X0104958Y0024226D01*
X0107062Y0026330D01*
X0109638Y0027817D01*
X0112512Y0028587D01*
X0115488Y0028587D01*
X0118362Y0027817D01*
X0120938Y0026330D01*
X0123042Y0024226D01*
X0124530Y0021649D01*
X0125300Y0018775D01*
X0125300Y0015800D01*
X0124530Y0012926D01*
X0123042Y0010349D01*
X0120938Y0008245D01*
X0118362Y0006757D01*
X0117401Y0006500D01*
X0146500Y0006500D01*
X0146500Y0126500D01*
X0117401Y0126500D01*
X0118362Y0126243D01*
X0120938Y0124755D01*
X0123042Y0122651D01*
X0124530Y0120074D01*
X0125300Y0117200D01*
X0125300Y0114225D01*
X0124530Y0111351D01*
X0123042Y0108774D01*
X0120938Y0106670D01*
X0118362Y0105183D01*
X0115488Y0104413D01*
X0112512Y0104413D01*
X0109638Y0105183D01*
X0107062Y0106670D01*
X0104958Y0108774D01*
X0103470Y0111351D01*
X0102700Y0114225D01*
X0102700Y0117200D01*
X0103470Y0120074D01*
X0104958Y0122651D01*
X0107062Y0124755D01*
X0109638Y0126243D01*
X0110599Y0126500D01*
X0044000Y0126500D01*
X0043512Y0126452D01*
X0043043Y0126310D01*
X0042611Y0126079D01*
X0042232Y0125768D01*
X0041921Y0125389D01*
X0041690Y0124957D01*
X0041548Y0124488D01*
X0041500Y0124000D01*
X0041500Y0101500D01*
X0041408Y0100327D01*
X0041133Y0099182D01*
X0040683Y0098095D01*
X0040068Y0097092D01*
X0039303Y0096197D01*
X0038408Y0095432D01*
X0037405Y0094817D01*
X0036318Y0094367D01*
X0035173Y0094092D01*
X0034000Y0094000D01*
X0026019Y0094000D01*
X0027475Y0092544D01*
X0036999Y0092544D01*
X0037761Y0091783D01*
X0037761Y0085981D01*
X0036999Y0085220D01*
X0028752Y0085220D01*
X0027985Y0083368D01*
X0026117Y0081500D01*
X0029248Y0081500D01*
X0029623Y0081875D01*
X0035031Y0081875D01*
X0035792Y0081113D01*
X0035792Y0081100D01*
X0040630Y0081100D01*
X0041900Y0082370D01*
X0041900Y0104870D01*
X0043130Y0106100D01*
X0050630Y0113600D01*
X0064716Y0113600D01*
X0064855Y0113936D01*
X0066064Y0115145D01*
X0067645Y0115800D01*
X0069000Y0115800D01*
X0069000Y0117200D01*
X0067645Y0117200D01*
X0066064Y0117855D01*
X0064855Y0119064D01*
X0064200Y0120645D01*
X0064200Y0122355D01*
X0064855Y0123936D01*
X0066064Y0125145D01*
X0067645Y0125800D01*
X0075355Y0125800D01*
X0076936Y0125145D01*
X0078145Y0123936D01*
X0078800Y0122355D01*
X0078800Y0120645D01*
X0078145Y0119064D01*
X0076936Y0117855D01*
X0075355Y0117200D01*
X0074000Y0117200D01*
X0074000Y0115800D01*
X0075355Y0115800D01*
X0076936Y0115145D01*
X0078145Y0113936D01*
X0078800Y0112355D01*
X0078800Y0110645D01*
X0078145Y0109064D01*
X0076936Y0107855D01*
X0075355Y0107200D01*
X0067645Y0107200D01*
X0066064Y0107855D01*
X0064855Y0109064D01*
X0064716Y0109400D01*
X0052370Y0109400D01*
X0046100Y0103130D01*
X0046100Y0081570D01*
X0046900Y0082370D01*
X0046900Y0089870D01*
X0048130Y0091100D01*
X0050630Y0093600D01*
X0064716Y0093600D01*
X0064855Y0093936D01*
X0066064Y0095145D01*
X0067645Y0095800D01*
X0069000Y0095800D01*
X0069000Y0097200D01*
X0067645Y0097200D01*
X0066064Y0097855D01*
X0064855Y0099064D01*
X0064200Y0100645D01*
X0064200Y0102355D01*
X0064855Y0103936D01*
X0066064Y0105145D01*
X0067645Y0105800D01*
X0075355Y0105800D01*
X0076936Y0105145D01*
X0078145Y0103936D01*
X0078800Y0102355D01*
X0078800Y0100645D01*
X0078145Y0099064D01*
X0076936Y0097855D01*
X0075355Y0097200D01*
X0074000Y0097200D01*
X0074000Y0095800D01*
X0075355Y0095800D01*
X0076936Y0095145D01*
X0078145Y0093936D01*
X0078800Y0092355D01*
X0078800Y0090645D01*
X0078145Y0089064D01*
X0076936Y0087855D01*
X0075355Y0087200D01*
X0067645Y0087200D01*
X0066064Y0087855D01*
X0064855Y0089064D01*
X0064716Y0089400D01*
X0052370Y0089400D01*
X0051100Y0088130D01*
X0051100Y0080630D01*
X0043600Y0073130D01*
X0042370Y0071900D01*
X0035792Y0071900D01*
X0035792Y0071887D01*
X0035405Y0071500D01*
X0035792Y0071113D01*
X0035792Y0071100D01*
X0058130Y0071100D01*
X0059400Y0072370D01*
X0060630Y0073600D01*
X0064716Y0073600D01*
X0064855Y0073936D01*
X0066064Y0075145D01*
X0067645Y0075800D01*
X0075355Y0075800D01*
X0076936Y0075145D01*
X0078145Y0073936D01*
X0078800Y0072355D01*
X0078800Y0070645D01*
X0078145Y0069064D01*
X0076936Y0067855D01*
X0075355Y0067200D01*
X0067645Y0067200D01*
X0066064Y0067855D01*
X0064855Y0069064D01*
X0064716Y0069400D01*
X0062370Y0069400D01*
X0059870Y0066900D01*
X0035792Y0066900D01*
X0035792Y0066887D01*
X0035405Y0066500D01*
X0035792Y0066113D01*
X0035792Y0066100D01*
X0059870Y0066100D01*
X0061100Y0064870D01*
X0061100Y0064870D01*
X0062370Y0063600D01*
X0064716Y0063600D01*
X0064855Y0063936D01*
X0066064Y0065145D01*
X0067645Y0065800D01*
X0075355Y0065800D01*
X0076936Y0065145D01*
X0078145Y0063936D01*
X0078800Y0062355D01*
X0078800Y0060645D01*
X0078145Y0059064D01*
X0076936Y0057855D01*
X0075355Y0057200D01*
X0074000Y0057200D01*
X0074000Y0055800D01*
X0075355Y0055800D01*
X0076936Y0055145D01*
X0078145Y0053936D01*
X0078800Y0052355D01*
X0078800Y0050645D01*
X0078145Y0049064D01*
X0076936Y0047855D01*
X0075355Y0047200D01*
X0067645Y0047200D01*
X0066064Y0047855D01*
X0064855Y0049064D01*
X0064200Y0050645D01*
X0064200Y0052355D01*
X0064855Y0053936D01*
X0066064Y0055145D01*
X0067645Y0055800D01*
X0069000Y0055800D01*
X0069000Y0057200D01*
X0067645Y0057200D01*
X0066064Y0057855D01*
X0064855Y0059064D01*
X0064716Y0059400D01*
X0060630Y0059400D01*
X0059400Y0060630D01*
X0059400Y0060630D01*
X0058130Y0061900D01*
X0035792Y0061900D01*
X0035792Y0061887D01*
X0035547Y0061641D01*
X0035692Y0061496D01*
X0035890Y0061154D01*
X0035992Y0060772D01*
X0035992Y0059287D01*
X0032614Y0059287D01*
X0032614Y0058713D01*
X0035992Y0058713D01*
X0035992Y0057228D01*
X0035890Y0056846D01*
X0035692Y0056504D01*
X0035547Y0056359D01*
X0035792Y0056113D01*
X0035792Y0056100D01*
X0042370Y0056100D01*
X0043600Y0054870D01*
X0046100Y0052370D01*
X0046100Y0029870D01*
X0052370Y0023600D01*
X0064716Y0023600D01*
X0064855Y0023936D01*
X0066064Y0025145D01*
X0067645Y0025800D01*
X0075355Y0025800D01*
X0076936Y0025145D01*
X0078145Y0023936D01*
X0078800Y0022355D01*
X0078800Y0020645D01*
X0078145Y0019064D01*
X0076936Y0017855D01*
X0075355Y0017200D01*
X0074000Y0017200D01*
X0074000Y0015800D01*
X0075355Y0015800D01*
X0076936Y0015145D01*
X0078145Y0013936D01*
X0078800Y0012355D01*
X0078800Y0010645D01*
X0078145Y0009064D01*
X0076936Y0007855D01*
X0075355Y0007200D01*
X0067645Y0007200D01*
X0066064Y0007855D01*
X0064855Y0009064D01*
X0064200Y0010645D01*
X0064200Y0012355D01*
X0064855Y0013936D01*
X0066064Y0015145D01*
X0067645Y0015800D01*
X0069000Y0015800D01*
X0069000Y0017200D01*
X0067645Y0017200D01*
X0066064Y0017855D01*
X0064855Y0019064D01*
X0064716Y0019400D01*
X0050630Y0019400D01*
X0043130Y0026900D01*
X0041900Y0028130D01*
X0041900Y0050630D01*
X0040630Y0051900D01*
X0035792Y0051900D01*
X0035792Y0051887D01*
X0035031Y0051125D01*
X0029623Y0051125D01*
X0029248Y0051500D01*
X0026117Y0051500D01*
X0027985Y0049632D01*
X0028752Y0047780D01*
X0036999Y0047780D01*
X0037761Y0047019D01*
X0037761Y0041217D01*
X0036999Y0040456D01*
X0027475Y0040456D01*
X0026958Y0039939D02*
X0041900Y0039939D01*
X0041900Y0040937D02*
X0037481Y0040937D01*
X0037761Y0041936D02*
X0041900Y0041936D01*
X0041900Y0042934D02*
X0037761Y0042934D01*
X0037761Y0043933D02*
X0041900Y0043933D01*
X0041900Y0044932D02*
X0037761Y0044932D01*
X0037761Y0045930D02*
X0041900Y0045930D01*
X0041900Y0046929D02*
X0037761Y0046929D01*
X0041900Y0047927D02*
X0028691Y0047927D01*
X0028278Y0048926D02*
X0041900Y0048926D01*
X0041900Y0049924D02*
X0027693Y0049924D01*
X0026695Y0050923D02*
X0041608Y0050923D01*
X0044552Y0053918D02*
X0064847Y0053918D01*
X0064434Y0052920D02*
X0045550Y0052920D01*
X0046100Y0051921D02*
X0064200Y0051921D01*
X0064200Y0050923D02*
X0046100Y0050923D01*
X0046100Y0049924D02*
X0064498Y0049924D01*
X0064993Y0048926D02*
X0046100Y0048926D01*
X0046100Y0047927D02*
X0065992Y0047927D01*
X0066773Y0045670D02*
X0066141Y0045349D01*
X0065568Y0044932D01*
X0065068Y0044432D01*
X0064651Y0043859D01*
X0064330Y0043227D01*
X0064111Y0042554D01*
X0064023Y0042000D01*
X0071000Y0042000D01*
X0071000Y0046000D01*
X0068146Y0046000D01*
X0067446Y0045889D01*
X0066773Y0045670D01*
X0067704Y0045930D02*
X0046100Y0045930D01*
X0046100Y0044932D02*
X0065568Y0044932D01*
X0064705Y0043933D02*
X0046100Y0043933D01*
X0046100Y0042934D02*
X0064235Y0042934D01*
X0064023Y0041000D02*
X0064111Y0040446D01*
X0064330Y0039773D01*
X0064651Y0039141D01*
X0065068Y0038568D01*
X0065568Y0038068D01*
X0066141Y0037651D01*
X0066773Y0037330D01*
X0067446Y0037111D01*
X0068146Y0037000D01*
X0071000Y0037000D01*
X0071000Y0041000D01*
X0072000Y0041000D01*
X0072000Y0042000D01*
X0071000Y0042000D01*
X0071000Y0041000D01*
X0064023Y0041000D01*
X0064033Y0040937D02*
X0046100Y0040937D01*
X0046100Y0039939D02*
X0064276Y0039939D01*
X0064797Y0038940D02*
X0046100Y0038940D01*
X0046100Y0037942D02*
X0065741Y0037942D01*
X0066773Y0035670D02*
X0066141Y0035349D01*
X0065568Y0034932D01*
X0065068Y0034432D01*
X0064651Y0033859D01*
X0064330Y0033227D01*
X0064111Y0032554D01*
X0064023Y0032000D01*
X0071000Y0032000D01*
X0071000Y0036000D01*
X0068146Y0036000D01*
X0067446Y0035889D01*
X0066773Y0035670D01*
X0067798Y0035945D02*
X0046100Y0035945D01*
X0046100Y0036943D02*
X0146500Y0036943D01*
X0146500Y0035945D02*
X0075202Y0035945D01*
X0074854Y0036000D02*
X0072000Y0036000D01*
X0072000Y0032000D01*
X0071000Y0032000D01*
X0071000Y0031000D01*
X0072000Y0031000D01*
X0072000Y0032000D01*
X0078977Y0032000D01*
X0078889Y0032554D01*
X0078670Y0033227D01*
X0078349Y0033859D01*
X0077932Y0034432D01*
X0077432Y0034932D01*
X0076859Y0035349D01*
X0076227Y0035670D01*
X0075554Y0035889D01*
X0074854Y0036000D01*
X0074854Y0037000D02*
X0075554Y0037111D01*
X0076227Y0037330D01*
X0076859Y0037651D01*
X0077432Y0038068D01*
X0077932Y0038568D01*
X0078349Y0039141D01*
X0078670Y0039773D01*
X0078889Y0040446D01*
X0078977Y0041000D01*
X0072000Y0041000D01*
X0072000Y0037000D01*
X0074854Y0037000D01*
X0077259Y0037942D02*
X0146500Y0037942D01*
X0146500Y0038940D02*
X0078203Y0038940D01*
X0078724Y0039939D02*
X0106811Y0039939D01*
X0107415Y0039689D02*
X0105577Y0040450D01*
X0104171Y0041857D01*
X0103409Y0043694D01*
X0103409Y0045684D01*
X0104171Y0047521D01*
X0105577Y0048928D01*
X0107415Y0049689D01*
X0109404Y0049689D01*
X0111242Y0048928D01*
X0112648Y0047521D01*
X0113409Y0045684D01*
X0113409Y0043694D01*
X0112648Y0041857D01*
X0111242Y0040450D01*
X0109404Y0039689D01*
X0107415Y0039689D01*
X0110008Y0039939D02*
X0146500Y0039939D01*
X0146500Y0040937D02*
X0111729Y0040937D01*
X0112681Y0041936D02*
X0146500Y0041936D01*
X0146500Y0042934D02*
X0113095Y0042934D01*
X0113409Y0043933D02*
X0146500Y0043933D01*
X0146500Y0044932D02*
X0113409Y0044932D01*
X0113307Y0045930D02*
X0116751Y0045930D01*
X0116758Y0045923D02*
X0118596Y0045161D01*
X0120585Y0045161D01*
X0122423Y0045923D01*
X0123829Y0047329D01*
X0124591Y0049167D01*
X0124591Y0051156D01*
X0123829Y0052994D01*
X0122423Y0054400D01*
X0120585Y0055161D01*
X0118596Y0055161D01*
X0116758Y0054400D01*
X0115352Y0052994D01*
X0114591Y0051156D01*
X0114591Y0049167D01*
X0115352Y0047329D01*
X0116758Y0045923D01*
X0115752Y0046929D02*
X0112894Y0046929D01*
X0112242Y0047927D02*
X0115104Y0047927D01*
X0114690Y0048926D02*
X0111244Y0048926D01*
X0110196Y0050923D02*
X0114591Y0050923D01*
X0114591Y0049924D02*
X0078502Y0049924D01*
X0078800Y0050923D02*
X0106623Y0050923D01*
X0107415Y0050594D02*
X0105577Y0051356D01*
X0104171Y0052762D01*
X0103409Y0054600D01*
X0103409Y0056589D01*
X0104171Y0058427D01*
X0105577Y0059833D01*
X0107415Y0060594D01*
X0109404Y0060594D01*
X0111242Y0059833D01*
X0112648Y0058427D01*
X0113409Y0056589D01*
X0113409Y0054600D01*
X0112648Y0052762D01*
X0111242Y0051356D01*
X0109404Y0050594D01*
X0107415Y0050594D01*
X0105575Y0048926D02*
X0078007Y0048926D01*
X0077008Y0047927D02*
X0104576Y0047927D01*
X0103925Y0046929D02*
X0046100Y0046929D01*
X0046100Y0041936D02*
X0071000Y0041936D01*
X0071000Y0042934D02*
X0072000Y0042934D01*
X0072000Y0042000D02*
X0072000Y0046000D01*
X0074854Y0046000D01*
X0075554Y0045889D01*
X0076227Y0045670D01*
X0076859Y0045349D01*
X0077432Y0044932D01*
X0077932Y0044432D01*
X0078349Y0043859D01*
X0078670Y0043227D01*
X0078889Y0042554D01*
X0078977Y0042000D01*
X0072000Y0042000D01*
X0072000Y0041936D02*
X0104138Y0041936D01*
X0103724Y0042934D02*
X0078765Y0042934D01*
X0078295Y0043933D02*
X0103409Y0043933D01*
X0103409Y0044932D02*
X0077432Y0044932D01*
X0075296Y0045930D02*
X0103512Y0045930D01*
X0105090Y0040937D02*
X0078967Y0040937D01*
X0077412Y0034946D02*
X0146500Y0034946D01*
X0146500Y0033948D02*
X0078284Y0033948D01*
X0078761Y0032949D02*
X0146500Y0032949D01*
X0146500Y0031951D02*
X0072000Y0031951D01*
X0072000Y0031000D02*
X0078977Y0031000D01*
X0078889Y0030446D01*
X0078670Y0029773D01*
X0078349Y0029141D01*
X0077932Y0028568D01*
X0077432Y0028068D01*
X0076859Y0027651D01*
X0076227Y0027330D01*
X0075554Y0027111D01*
X0074854Y0027000D01*
X0072000Y0027000D01*
X0072000Y0031000D01*
X0072000Y0030952D02*
X0071000Y0030952D01*
X0071000Y0031000D02*
X0071000Y0027000D01*
X0068146Y0027000D01*
X0067446Y0027111D01*
X0066773Y0027330D01*
X0066141Y0027651D01*
X0065568Y0028068D01*
X0065068Y0028568D01*
X0064651Y0029141D01*
X0064330Y0029773D01*
X0064111Y0030446D01*
X0064023Y0031000D01*
X0071000Y0031000D01*
X0071000Y0031951D02*
X0046100Y0031951D01*
X0046100Y0032949D02*
X0064239Y0032949D01*
X0064716Y0033948D02*
X0046100Y0033948D01*
X0046100Y0034946D02*
X0065588Y0034946D01*
X0064031Y0030952D02*
X0046100Y0030952D01*
X0046100Y0029954D02*
X0064271Y0029954D01*
X0064786Y0028955D02*
X0047014Y0028955D01*
X0048013Y0027957D02*
X0065721Y0027957D01*
X0065880Y0024961D02*
X0051009Y0024961D01*
X0052007Y0023963D02*
X0064882Y0023963D01*
X0064949Y0018970D02*
X0041500Y0018970D01*
X0041500Y0017972D02*
X0065947Y0017972D01*
X0065895Y0014976D02*
X0041500Y0014976D01*
X0041500Y0013978D02*
X0064897Y0013978D01*
X0064458Y0012979D02*
X0041500Y0012979D01*
X0041500Y0011981D02*
X0064200Y0011981D01*
X0064200Y0010982D02*
X0041500Y0010982D01*
X0041500Y0009984D02*
X0064474Y0009984D01*
X0064934Y0008985D02*
X0041596Y0008985D01*
X0041721Y0007987D02*
X0065932Y0007987D01*
X0069000Y0015975D02*
X0041500Y0015975D01*
X0041500Y0016973D02*
X0069000Y0016973D01*
X0074000Y0016973D02*
X0102700Y0016973D01*
X0102700Y0015975D02*
X0074000Y0015975D01*
X0077105Y0014976D02*
X0102921Y0014976D01*
X0103188Y0013978D02*
X0078103Y0013978D01*
X0078542Y0012979D02*
X0103456Y0012979D01*
X0104016Y0011981D02*
X0078800Y0011981D01*
X0078800Y0010982D02*
X0104592Y0010982D01*
X0105323Y0009984D02*
X0078526Y0009984D01*
X0078066Y0008985D02*
X0106322Y0008985D01*
X0107509Y0007987D02*
X0077068Y0007987D01*
X0077053Y0017972D02*
X0102700Y0017972D01*
X0102752Y0018970D02*
X0078051Y0018970D01*
X0078520Y0019969D02*
X0103020Y0019969D01*
X0103287Y0020967D02*
X0078800Y0020967D01*
X0078800Y0021966D02*
X0103653Y0021966D01*
X0104229Y0022964D02*
X0078548Y0022964D01*
X0078118Y0023963D02*
X0104806Y0023963D01*
X0105693Y0024961D02*
X0077120Y0024961D01*
X0077279Y0027957D02*
X0110159Y0027957D01*
X0108151Y0026958D02*
X0049012Y0026958D01*
X0050010Y0025960D02*
X0106692Y0025960D01*
X0117841Y0027957D02*
X0146500Y0027957D01*
X0146500Y0028955D02*
X0078213Y0028955D01*
X0078729Y0029954D02*
X0146500Y0029954D01*
X0146500Y0030952D02*
X0078969Y0030952D01*
X0072000Y0029954D02*
X0071000Y0029954D01*
X0071000Y0028955D02*
X0072000Y0028955D01*
X0072000Y0027957D02*
X0071000Y0027957D01*
X0071000Y0032949D02*
X0072000Y0032949D01*
X0072000Y0033948D02*
X0071000Y0033948D01*
X0071000Y0034946D02*
X0072000Y0034946D01*
X0072000Y0035945D02*
X0071000Y0035945D01*
X0071000Y0037942D02*
X0072000Y0037942D01*
X0072000Y0038940D02*
X0071000Y0038940D01*
X0071000Y0039939D02*
X0072000Y0039939D01*
X0072000Y0040937D02*
X0071000Y0040937D01*
X0071000Y0043933D02*
X0072000Y0043933D01*
X0072000Y0044932D02*
X0071000Y0044932D01*
X0071000Y0045930D02*
X0072000Y0045930D01*
X0078800Y0051921D02*
X0105012Y0051921D01*
X0104105Y0052920D02*
X0078566Y0052920D01*
X0078153Y0053918D02*
X0103692Y0053918D01*
X0103409Y0054917D02*
X0077164Y0054917D01*
X0076993Y0057912D02*
X0103958Y0057912D01*
X0103544Y0056914D02*
X0074000Y0056914D01*
X0074000Y0055915D02*
X0103409Y0055915D01*
X0104655Y0058911D02*
X0077992Y0058911D01*
X0078495Y0059909D02*
X0105760Y0059909D01*
X0106413Y0061681D02*
X0107192Y0061428D01*
X0107909Y0061314D01*
X0107909Y0066000D01*
X0103224Y0066000D01*
X0103337Y0065282D01*
X0103590Y0064504D01*
X0103962Y0063775D01*
X0104443Y0063112D01*
X0105022Y0062534D01*
X0105684Y0062053D01*
X0106413Y0061681D01*
X0105971Y0061906D02*
X0078800Y0061906D01*
X0078800Y0060908D02*
X0114591Y0060908D01*
X0114591Y0060072D02*
X0115352Y0058235D01*
X0116758Y0056828D01*
X0118596Y0056067D01*
X0120585Y0056067D01*
X0122423Y0056828D01*
X0123829Y0058235D01*
X0124591Y0060072D01*
X0124591Y0062061D01*
X0123829Y0063899D01*
X0122423Y0065306D01*
X0120585Y0066067D01*
X0118596Y0066067D01*
X0116758Y0065306D01*
X0115352Y0063899D01*
X0114591Y0062061D01*
X0114591Y0060072D01*
X0114658Y0059909D02*
X0111058Y0059909D01*
X0112164Y0058911D02*
X0115072Y0058911D01*
X0115674Y0057912D02*
X0112861Y0057912D01*
X0113275Y0056914D02*
X0116673Y0056914D01*
X0118005Y0054917D02*
X0113409Y0054917D01*
X0113409Y0055915D02*
X0146500Y0055915D01*
X0146500Y0054917D02*
X0121176Y0054917D01*
X0122905Y0053918D02*
X0146500Y0053918D01*
X0146500Y0052920D02*
X0123860Y0052920D01*
X0124274Y0051921D02*
X0146500Y0051921D01*
X0146500Y0050923D02*
X0124591Y0050923D01*
X0124591Y0049924D02*
X0146500Y0049924D01*
X0146500Y0048926D02*
X0124491Y0048926D01*
X0124077Y0047927D02*
X0146500Y0047927D01*
X0146500Y0046929D02*
X0123429Y0046929D01*
X0122430Y0045930D02*
X0146500Y0045930D01*
X0146500Y0056914D02*
X0122508Y0056914D01*
X0123507Y0057912D02*
X0146500Y0057912D01*
X0146500Y0058911D02*
X0124109Y0058911D01*
X0124523Y0059909D02*
X0146500Y0059909D01*
X0146500Y0060908D02*
X0124591Y0060908D01*
X0124591Y0061906D02*
X0146500Y0061906D01*
X0146500Y0062905D02*
X0124241Y0062905D01*
X0123825Y0063903D02*
X0146500Y0063903D01*
X0146500Y0064902D02*
X0122827Y0064902D01*
X0120987Y0065900D02*
X0146500Y0065900D01*
X0146500Y0066899D02*
X0108909Y0066899D01*
X0108909Y0067000D02*
X0113595Y0067000D01*
X0113481Y0067718D01*
X0113228Y0068496D01*
X0112857Y0069225D01*
X0112376Y0069888D01*
X0111797Y0070466D01*
X0111135Y0070947D01*
X0110406Y0071319D01*
X0109627Y0071572D01*
X0108909Y0071686D01*
X0108909Y0067000D01*
X0107909Y0067000D01*
X0107909Y0066000D01*
X0108909Y0066000D01*
X0108909Y0061314D01*
X0109627Y0061428D01*
X0110406Y0061681D01*
X0111135Y0062053D01*
X0111797Y0062534D01*
X0112376Y0063112D01*
X0112857Y0063775D01*
X0113228Y0064504D01*
X0113481Y0065282D01*
X0113595Y0066000D01*
X0108909Y0066000D01*
X0108909Y0067000D01*
X0108909Y0067897D02*
X0107909Y0067897D01*
X0107909Y0067000D02*
X0107909Y0071686D01*
X0107192Y0071572D01*
X0106413Y0071319D01*
X0105684Y0070947D01*
X0105022Y0070466D01*
X0104443Y0069888D01*
X0103962Y0069225D01*
X0103590Y0068496D01*
X0103337Y0067718D01*
X0103224Y0067000D01*
X0107909Y0067000D01*
X0107909Y0066899D02*
X0035792Y0066899D01*
X0035792Y0071891D02*
X0058921Y0071891D01*
X0059920Y0072890D02*
X0043360Y0072890D01*
X0044358Y0073888D02*
X0064835Y0073888D01*
X0065806Y0074887D02*
X0045357Y0074887D01*
X0046355Y0075885D02*
X0103627Y0075885D01*
X0103409Y0076411D02*
X0104171Y0074573D01*
X0105577Y0073167D01*
X0107415Y0072406D01*
X0109404Y0072406D01*
X0111242Y0073167D01*
X0112648Y0074573D01*
X0113409Y0076411D01*
X0113409Y0078400D01*
X0112648Y0080238D01*
X0111242Y0081644D01*
X0109404Y0082405D01*
X0107415Y0082405D01*
X0105577Y0081644D01*
X0104171Y0080238D01*
X0103409Y0078400D01*
X0103409Y0076411D01*
X0103409Y0076884D02*
X0047354Y0076884D01*
X0048352Y0077882D02*
X0066036Y0077882D01*
X0066064Y0077855D02*
X0067645Y0077200D01*
X0075355Y0077200D01*
X0076936Y0077855D01*
X0078145Y0079064D01*
X0078800Y0080645D01*
X0078800Y0082355D01*
X0078145Y0083936D01*
X0076936Y0085145D01*
X0075355Y0085800D01*
X0067645Y0085800D01*
X0066064Y0085145D01*
X0064855Y0083936D01*
X0064200Y0082355D01*
X0064200Y0080645D01*
X0064855Y0079064D01*
X0066064Y0077855D01*
X0065038Y0078881D02*
X0049351Y0078881D01*
X0050349Y0079879D02*
X0064517Y0079879D01*
X0064200Y0080878D02*
X0051100Y0080878D01*
X0051100Y0081876D02*
X0064200Y0081876D01*
X0064415Y0082875D02*
X0051100Y0082875D01*
X0051100Y0083873D02*
X0064829Y0083873D01*
X0065791Y0084872D02*
X0051100Y0084872D01*
X0051100Y0085870D02*
X0103409Y0085870D01*
X0103409Y0084872D02*
X0077209Y0084872D01*
X0078171Y0083873D02*
X0103609Y0083873D01*
X0103409Y0084073D02*
X0104171Y0083311D01*
X0112648Y0083311D01*
X0113409Y0084073D01*
X0113409Y0092549D01*
X0112648Y0093311D01*
X0104171Y0093311D01*
X0103409Y0092549D01*
X0103409Y0084073D01*
X0103409Y0086869D02*
X0051100Y0086869D01*
X0051100Y0087868D02*
X0066051Y0087868D01*
X0065053Y0088866D02*
X0051836Y0088866D01*
X0048892Y0091862D02*
X0046100Y0091862D01*
X0046100Y0092860D02*
X0049890Y0092860D01*
X0047893Y0090863D02*
X0046100Y0090863D01*
X0046100Y0089865D02*
X0046900Y0089865D01*
X0046900Y0088866D02*
X0046100Y0088866D01*
X0046100Y0087868D02*
X0046900Y0087868D01*
X0046900Y0086869D02*
X0046100Y0086869D01*
X0046100Y0085870D02*
X0046900Y0085870D01*
X0046900Y0084872D02*
X0046100Y0084872D01*
X0046100Y0083873D02*
X0046900Y0083873D01*
X0046900Y0082875D02*
X0046100Y0082875D01*
X0046100Y0081876D02*
X0046407Y0081876D01*
X0041900Y0082875D02*
X0027492Y0082875D01*
X0028195Y0083873D02*
X0041900Y0083873D01*
X0041900Y0084872D02*
X0028608Y0084872D01*
X0026494Y0081876D02*
X0041407Y0081876D01*
X0041900Y0085870D02*
X0037650Y0085870D01*
X0037761Y0086869D02*
X0041900Y0086869D01*
X0041900Y0087868D02*
X0037761Y0087868D01*
X0037761Y0088866D02*
X0041900Y0088866D01*
X0041900Y0089865D02*
X0037761Y0089865D01*
X0037761Y0090863D02*
X0041900Y0090863D01*
X0041900Y0091862D02*
X0037682Y0091862D01*
X0037470Y0094857D02*
X0041900Y0094857D01*
X0041900Y0093859D02*
X0026160Y0093859D01*
X0027159Y0092860D02*
X0041900Y0092860D01*
X0041900Y0095856D02*
X0038904Y0095856D01*
X0039865Y0096854D02*
X0041900Y0096854D01*
X0041900Y0097853D02*
X0040534Y0097853D01*
X0040996Y0098851D02*
X0041900Y0098851D01*
X0041900Y0099850D02*
X0041293Y0099850D01*
X0041449Y0100848D02*
X0041900Y0100848D01*
X0041900Y0101847D02*
X0041500Y0101847D01*
X0041500Y0102845D02*
X0041900Y0102845D01*
X0041900Y0103844D02*
X0041500Y0103844D01*
X0041500Y0104842D02*
X0041900Y0104842D01*
X0041500Y0105841D02*
X0042871Y0105841D01*
X0043869Y0106839D02*
X0041500Y0106839D01*
X0041500Y0107838D02*
X0044868Y0107838D01*
X0045866Y0108836D02*
X0041500Y0108836D01*
X0041500Y0109835D02*
X0046865Y0109835D01*
X0047863Y0110833D02*
X0041500Y0110833D01*
X0041500Y0111832D02*
X0048862Y0111832D01*
X0049860Y0112830D02*
X0041500Y0112830D01*
X0041500Y0113829D02*
X0064810Y0113829D01*
X0065746Y0114827D02*
X0041500Y0114827D01*
X0041500Y0115826D02*
X0069000Y0115826D01*
X0069000Y0116824D02*
X0041500Y0116824D01*
X0041500Y0117823D02*
X0066141Y0117823D01*
X0065098Y0118821D02*
X0041500Y0118821D01*
X0041500Y0119820D02*
X0064542Y0119820D01*
X0064200Y0120818D02*
X0041500Y0120818D01*
X0041500Y0121817D02*
X0064200Y0121817D01*
X0064391Y0122815D02*
X0041500Y0122815D01*
X0041500Y0123814D02*
X0064804Y0123814D01*
X0065731Y0124812D02*
X0041647Y0124812D01*
X0042285Y0125811D02*
X0108891Y0125811D01*
X0107161Y0124812D02*
X0077269Y0124812D01*
X0078196Y0123814D02*
X0106121Y0123814D01*
X0105122Y0122815D02*
X0078609Y0122815D01*
X0078800Y0121817D02*
X0104476Y0121817D01*
X0103900Y0120818D02*
X0078800Y0120818D01*
X0078458Y0119820D02*
X0103402Y0119820D01*
X0103134Y0118821D02*
X0077902Y0118821D01*
X0076859Y0117823D02*
X0102867Y0117823D01*
X0102700Y0116824D02*
X0074000Y0116824D01*
X0074000Y0115826D02*
X0102700Y0115826D01*
X0102700Y0114827D02*
X0077254Y0114827D01*
X0078190Y0113829D02*
X0102806Y0113829D01*
X0103074Y0112830D02*
X0078603Y0112830D01*
X0078800Y0111832D02*
X0103341Y0111832D01*
X0103769Y0110833D02*
X0078800Y0110833D01*
X0078465Y0109835D02*
X0104345Y0109835D01*
X0104922Y0108836D02*
X0077917Y0108836D01*
X0076895Y0107838D02*
X0105894Y0107838D01*
X0106893Y0106839D02*
X0049809Y0106839D01*
X0048811Y0105841D02*
X0108499Y0105841D01*
X0110909Y0104842D02*
X0077239Y0104842D01*
X0078183Y0103844D02*
X0146500Y0103844D01*
X0146500Y0104842D02*
X0117091Y0104842D01*
X0119501Y0105841D02*
X0146500Y0105841D01*
X0146500Y0106839D02*
X0121107Y0106839D01*
X0122106Y0107838D02*
X0146500Y0107838D01*
X0146500Y0108836D02*
X0123078Y0108836D01*
X0123655Y0109835D02*
X0146500Y0109835D01*
X0146500Y0110833D02*
X0124231Y0110833D01*
X0124659Y0111832D02*
X0146500Y0111832D01*
X0146500Y0112830D02*
X0124926Y0112830D01*
X0125194Y0113829D02*
X0146500Y0113829D01*
X0146500Y0114827D02*
X0125300Y0114827D01*
X0125300Y0115826D02*
X0146500Y0115826D01*
X0146500Y0116824D02*
X0125300Y0116824D01*
X0125133Y0117823D02*
X0146500Y0117823D01*
X0146500Y0118821D02*
X0124866Y0118821D01*
X0124598Y0119820D02*
X0146500Y0119820D01*
X0146500Y0120818D02*
X0124100Y0120818D01*
X0123524Y0121817D02*
X0146500Y0121817D01*
X0146500Y0122815D02*
X0122878Y0122815D01*
X0121879Y0123814D02*
X0146500Y0123814D01*
X0146500Y0124812D02*
X0120839Y0124812D01*
X0119109Y0125811D02*
X0146500Y0125811D01*
X0146500Y0102845D02*
X0078597Y0102845D01*
X0078800Y0101847D02*
X0146500Y0101847D01*
X0146500Y0100848D02*
X0078800Y0100848D01*
X0078471Y0099850D02*
X0146500Y0099850D01*
X0146500Y0098851D02*
X0077932Y0098851D01*
X0076931Y0097853D02*
X0146500Y0097853D01*
X0146500Y0096854D02*
X0074000Y0096854D01*
X0074000Y0095856D02*
X0146500Y0095856D01*
X0146500Y0094857D02*
X0077224Y0094857D01*
X0078177Y0093859D02*
X0146500Y0093859D01*
X0146500Y0092860D02*
X0113099Y0092860D01*
X0113409Y0091862D02*
X0146500Y0091862D01*
X0146500Y0090863D02*
X0113409Y0090863D01*
X0113409Y0089865D02*
X0146500Y0089865D01*
X0146500Y0088866D02*
X0113409Y0088866D01*
X0113409Y0087868D02*
X0118240Y0087868D01*
X0118373Y0087911D02*
X0117594Y0087658D01*
X0116865Y0087286D01*
X0116203Y0086805D01*
X0115624Y0086226D01*
X0115143Y0085564D01*
X0114772Y0084835D01*
X0114519Y0084056D01*
X0114405Y0083339D01*
X0119090Y0083339D01*
X0119090Y0082339D01*
X0114405Y0082339D01*
X0114519Y0081621D01*
X0114772Y0080842D01*
X0115143Y0080113D01*
X0115624Y0079451D01*
X0116203Y0078872D01*
X0116865Y0078391D01*
X0117594Y0078020D01*
X0118373Y0077767D01*
X0119091Y0077653D01*
X0119091Y0082339D01*
X0120091Y0082339D01*
X0120091Y0083339D01*
X0119091Y0083339D01*
X0119091Y0088024D01*
X0118373Y0087911D01*
X0119091Y0087868D02*
X0120091Y0087868D01*
X0120091Y0088024D02*
X0120091Y0083339D01*
X0124776Y0083339D01*
X0124662Y0084056D01*
X0124410Y0084835D01*
X0124038Y0085564D01*
X0123557Y0086226D01*
X0122978Y0086805D01*
X0122316Y0087286D01*
X0121587Y0087658D01*
X0120808Y0087911D01*
X0120091Y0088024D01*
X0120941Y0087868D02*
X0146500Y0087868D01*
X0146500Y0086869D02*
X0122890Y0086869D01*
X0123815Y0085870D02*
X0146500Y0085870D01*
X0146500Y0084872D02*
X0124391Y0084872D01*
X0124691Y0083873D02*
X0146500Y0083873D01*
X0146500Y0082875D02*
X0120091Y0082875D01*
X0120091Y0082339D02*
X0124776Y0082339D01*
X0124662Y0081621D01*
X0124410Y0080842D01*
X0124038Y0080113D01*
X0123557Y0079451D01*
X0122978Y0078872D01*
X0122316Y0078391D01*
X0121587Y0078020D01*
X0120808Y0077767D01*
X0120091Y0077653D01*
X0120091Y0082339D01*
X0120091Y0081876D02*
X0119091Y0081876D01*
X0119091Y0080878D02*
X0120091Y0080878D01*
X0120091Y0079879D02*
X0119091Y0079879D01*
X0119091Y0078881D02*
X0120091Y0078881D01*
X0120091Y0077882D02*
X0119091Y0077882D01*
X0118596Y0076933D02*
X0116758Y0076172D01*
X0115352Y0074765D01*
X0114591Y0072928D01*
X0114591Y0070938D01*
X0115352Y0069101D01*
X0116758Y0067694D01*
X0118596Y0066933D01*
X0120585Y0066933D01*
X0122423Y0067694D01*
X0123829Y0069101D01*
X0124591Y0070938D01*
X0124591Y0072928D01*
X0123829Y0074765D01*
X0122423Y0076172D01*
X0120585Y0076933D01*
X0118596Y0076933D01*
X0118477Y0076884D02*
X0113409Y0076884D01*
X0113409Y0077882D02*
X0118017Y0077882D01*
X0116194Y0078881D02*
X0113210Y0078881D01*
X0112797Y0079879D02*
X0115313Y0079879D01*
X0114760Y0080878D02*
X0112008Y0080878D01*
X0110681Y0081876D02*
X0114478Y0081876D01*
X0114490Y0083873D02*
X0113210Y0083873D01*
X0113409Y0084872D02*
X0114791Y0084872D01*
X0115366Y0085870D02*
X0113409Y0085870D01*
X0113409Y0086869D02*
X0116291Y0086869D01*
X0119091Y0086869D02*
X0120091Y0086869D01*
X0120091Y0085870D02*
X0119091Y0085870D01*
X0119091Y0084872D02*
X0120091Y0084872D01*
X0120091Y0083873D02*
X0119091Y0083873D01*
X0119090Y0082875D02*
X0078585Y0082875D01*
X0078800Y0081876D02*
X0106138Y0081876D01*
X0104811Y0080878D02*
X0078800Y0080878D01*
X0078483Y0079879D02*
X0104022Y0079879D01*
X0103609Y0078881D02*
X0077962Y0078881D01*
X0076964Y0077882D02*
X0103409Y0077882D01*
X0104041Y0074887D02*
X0077194Y0074887D01*
X0078165Y0073888D02*
X0104856Y0073888D01*
X0106246Y0072890D02*
X0078579Y0072890D01*
X0078800Y0071891D02*
X0114591Y0071891D01*
X0114609Y0070893D02*
X0111210Y0070893D01*
X0112369Y0069894D02*
X0115023Y0069894D01*
X0115557Y0068896D02*
X0113025Y0068896D01*
X0113423Y0067897D02*
X0116555Y0067897D01*
X0118194Y0065900D02*
X0113579Y0065900D01*
X0113358Y0064902D02*
X0116354Y0064902D01*
X0115356Y0063903D02*
X0112922Y0063903D01*
X0112168Y0062905D02*
X0114940Y0062905D01*
X0114591Y0061906D02*
X0110848Y0061906D01*
X0108909Y0061906D02*
X0107909Y0061906D01*
X0107909Y0062905D02*
X0108909Y0062905D01*
X0108909Y0063903D02*
X0107909Y0063903D01*
X0107909Y0064902D02*
X0108909Y0064902D01*
X0108909Y0065900D02*
X0107909Y0065900D01*
X0107909Y0068896D02*
X0108909Y0068896D01*
X0108909Y0069894D02*
X0107909Y0069894D01*
X0107909Y0070893D02*
X0108909Y0070893D01*
X0110573Y0072890D02*
X0114591Y0072890D01*
X0114988Y0073888D02*
X0111963Y0073888D01*
X0112778Y0074887D02*
X0115473Y0074887D01*
X0116472Y0075885D02*
X0113192Y0075885D01*
X0105609Y0070893D02*
X0078800Y0070893D01*
X0078489Y0069894D02*
X0104450Y0069894D01*
X0103794Y0068896D02*
X0077977Y0068896D01*
X0076978Y0067897D02*
X0103396Y0067897D01*
X0103240Y0065900D02*
X0060070Y0065900D01*
X0061068Y0064902D02*
X0065821Y0064902D01*
X0064841Y0063903D02*
X0062067Y0063903D01*
X0060867Y0067897D02*
X0066022Y0067897D01*
X0065023Y0068896D02*
X0061866Y0068896D01*
X0059122Y0060908D02*
X0035956Y0060908D01*
X0035992Y0059909D02*
X0060121Y0059909D01*
X0065008Y0058911D02*
X0032614Y0058911D01*
X0032039Y0058911D02*
X0010961Y0058911D01*
X0010961Y0058713D02*
X0010961Y0059287D01*
X0014339Y0059287D01*
X0014339Y0060772D01*
X0014236Y0061154D01*
X0014039Y0061496D01*
X0014035Y0061500D01*
X0028965Y0061500D01*
X0028961Y0061496D01*
X0028764Y0061154D01*
X0028661Y0060772D01*
X0028661Y0059287D01*
X0032039Y0059287D01*
X0032039Y0058713D01*
X0028661Y0058713D01*
X0028661Y0057228D01*
X0028764Y0056846D01*
X0028961Y0056504D01*
X0028965Y0056500D01*
X0014035Y0056500D01*
X0014039Y0056504D01*
X0014236Y0056846D01*
X0014339Y0057228D01*
X0014339Y0058713D01*
X0010961Y0058713D01*
X0010386Y0058713D02*
X0010386Y0059287D01*
X0007008Y0059287D01*
X0007008Y0060772D01*
X0007110Y0061154D01*
X0007308Y0061496D01*
X0007453Y0061641D01*
X0007208Y0061887D01*
X0007208Y0066113D01*
X0007595Y0066500D01*
X0007208Y0066887D01*
X0007208Y0071113D01*
X0007595Y0071500D01*
X0007208Y0071887D01*
X0007208Y0076113D01*
X0007595Y0076500D01*
X0007208Y0076887D01*
X0007208Y0081113D01*
X0007969Y0081875D01*
X0013377Y0081875D01*
X0013752Y0081500D01*
X0016883Y0081500D01*
X0015015Y0083368D01*
X0014248Y0085220D01*
X0006500Y0085220D01*
X0006500Y0047780D01*
X0014248Y0047780D01*
X0015015Y0049632D01*
X0016883Y0051500D01*
X0013752Y0051500D01*
X0013377Y0051125D01*
X0007969Y0051125D01*
X0007208Y0051887D01*
X0007208Y0056113D01*
X0007453Y0056359D01*
X0007308Y0056504D01*
X0007110Y0056846D01*
X0007008Y0057228D01*
X0007008Y0058713D01*
X0010386Y0058713D01*
X0010386Y0058911D02*
X0006500Y0058911D01*
X0006500Y0059909D02*
X0007008Y0059909D01*
X0007044Y0060908D02*
X0006500Y0060908D01*
X0006500Y0061906D02*
X0007208Y0061906D01*
X0007208Y0062905D02*
X0006500Y0062905D01*
X0006500Y0063903D02*
X0007208Y0063903D01*
X0007208Y0064902D02*
X0006500Y0064902D01*
X0006500Y0065900D02*
X0007208Y0065900D01*
X0007208Y0066899D02*
X0006500Y0066899D01*
X0006500Y0067897D02*
X0007208Y0067897D01*
X0007208Y0068896D02*
X0006500Y0068896D01*
X0006500Y0069894D02*
X0007208Y0069894D01*
X0007208Y0070893D02*
X0006500Y0070893D01*
X0006500Y0071891D02*
X0007208Y0071891D01*
X0007208Y0072890D02*
X0006500Y0072890D01*
X0006500Y0073888D02*
X0007208Y0073888D01*
X0007208Y0074887D02*
X0006500Y0074887D01*
X0006500Y0075885D02*
X0007208Y0075885D01*
X0007211Y0076884D02*
X0006500Y0076884D01*
X0006500Y0077882D02*
X0007208Y0077882D01*
X0007208Y0078881D02*
X0006500Y0078881D01*
X0006500Y0079879D02*
X0007208Y0079879D01*
X0007208Y0080878D02*
X0006500Y0080878D01*
X0006500Y0081876D02*
X0016506Y0081876D01*
X0015508Y0082875D02*
X0006500Y0082875D01*
X0006500Y0083873D02*
X0014805Y0083873D01*
X0014392Y0084872D02*
X0006500Y0084872D01*
X0014302Y0060908D02*
X0028698Y0060908D01*
X0028661Y0059909D02*
X0014339Y0059909D01*
X0014339Y0057912D02*
X0028661Y0057912D01*
X0028746Y0056914D02*
X0014254Y0056914D01*
X0016305Y0050923D02*
X0006500Y0050923D01*
X0006500Y0051921D02*
X0007208Y0051921D01*
X0007208Y0052920D02*
X0006500Y0052920D01*
X0006500Y0053918D02*
X0007208Y0053918D01*
X0007208Y0054917D02*
X0006500Y0054917D01*
X0006500Y0055915D02*
X0007208Y0055915D01*
X0007092Y0056914D02*
X0006500Y0056914D01*
X0006500Y0057912D02*
X0007008Y0057912D01*
X0006500Y0049924D02*
X0015307Y0049924D01*
X0014722Y0048926D02*
X0006500Y0048926D01*
X0006500Y0047927D02*
X0014309Y0047927D01*
X0033267Y0038940D02*
X0041900Y0038940D01*
X0041900Y0037942D02*
X0036205Y0037942D01*
X0037580Y0036943D02*
X0041900Y0036943D01*
X0041900Y0035945D02*
X0038815Y0035945D01*
X0039540Y0034946D02*
X0041900Y0034946D01*
X0041900Y0033948D02*
X0040266Y0033948D01*
X0040731Y0032949D02*
X0041900Y0032949D01*
X0041900Y0031951D02*
X0041056Y0031951D01*
X0041380Y0030952D02*
X0041900Y0030952D01*
X0041900Y0029954D02*
X0041500Y0029954D01*
X0041500Y0028955D02*
X0041900Y0028955D01*
X0042073Y0027957D02*
X0041500Y0027957D01*
X0041500Y0026958D02*
X0043072Y0026958D01*
X0044070Y0025960D02*
X0041500Y0025960D01*
X0041500Y0024961D02*
X0045069Y0024961D01*
X0046067Y0023963D02*
X0041500Y0023963D01*
X0041500Y0022964D02*
X0047066Y0022964D01*
X0048064Y0021966D02*
X0041500Y0021966D01*
X0041500Y0020967D02*
X0049063Y0020967D01*
X0050061Y0019969D02*
X0041500Y0019969D01*
X0042530Y0006988D02*
X0109239Y0006988D01*
X0118761Y0006988D02*
X0146500Y0006988D01*
X0146500Y0007987D02*
X0120491Y0007987D01*
X0121678Y0008985D02*
X0146500Y0008985D01*
X0146500Y0009984D02*
X0122677Y0009984D01*
X0123408Y0010982D02*
X0146500Y0010982D01*
X0146500Y0011981D02*
X0123984Y0011981D01*
X0124544Y0012979D02*
X0146500Y0012979D01*
X0146500Y0013978D02*
X0124812Y0013978D01*
X0125079Y0014976D02*
X0146500Y0014976D01*
X0146500Y0015975D02*
X0125300Y0015975D01*
X0125300Y0016973D02*
X0146500Y0016973D01*
X0146500Y0017972D02*
X0125300Y0017972D01*
X0125248Y0018970D02*
X0146500Y0018970D01*
X0146500Y0019969D02*
X0124980Y0019969D01*
X0124713Y0020967D02*
X0146500Y0020967D01*
X0146500Y0021966D02*
X0124347Y0021966D01*
X0123771Y0022964D02*
X0146500Y0022964D01*
X0146500Y0023963D02*
X0123194Y0023963D01*
X0122307Y0024961D02*
X0146500Y0024961D01*
X0146500Y0025960D02*
X0121308Y0025960D01*
X0119849Y0026958D02*
X0146500Y0026958D01*
X0116276Y0053918D02*
X0113127Y0053918D01*
X0112713Y0052920D02*
X0115321Y0052920D01*
X0114907Y0051921D02*
X0111807Y0051921D01*
X0104651Y0062905D02*
X0078572Y0062905D01*
X0078159Y0063903D02*
X0103896Y0063903D01*
X0103461Y0064902D02*
X0077179Y0064902D01*
X0069000Y0056914D02*
X0035908Y0056914D01*
X0035992Y0057912D02*
X0066007Y0057912D01*
X0065836Y0054917D02*
X0043553Y0054917D01*
X0042555Y0055915D02*
X0069000Y0055915D01*
X0076949Y0087868D02*
X0103409Y0087868D01*
X0103409Y0088866D02*
X0077947Y0088866D01*
X0078477Y0089865D02*
X0103409Y0089865D01*
X0103409Y0090863D02*
X0078800Y0090863D01*
X0078800Y0091862D02*
X0103409Y0091862D01*
X0103720Y0092860D02*
X0078591Y0092860D01*
X0069000Y0095856D02*
X0046100Y0095856D01*
X0046100Y0096854D02*
X0069000Y0096854D01*
X0066069Y0097853D02*
X0046100Y0097853D01*
X0046100Y0098851D02*
X0065068Y0098851D01*
X0064529Y0099850D02*
X0046100Y0099850D01*
X0046100Y0100848D02*
X0064200Y0100848D01*
X0064200Y0101847D02*
X0046100Y0101847D01*
X0046100Y0102845D02*
X0064403Y0102845D01*
X0064817Y0103844D02*
X0046814Y0103844D01*
X0047812Y0104842D02*
X0065761Y0104842D01*
X0066105Y0107838D02*
X0050808Y0107838D01*
X0051806Y0108836D02*
X0065083Y0108836D01*
X0065776Y0094857D02*
X0046100Y0094857D01*
X0046100Y0093859D02*
X0064823Y0093859D01*
X0120704Y0076884D02*
X0146500Y0076884D01*
X0146500Y0077882D02*
X0121165Y0077882D01*
X0122987Y0078881D02*
X0146500Y0078881D01*
X0146500Y0079879D02*
X0123868Y0079879D01*
X0124421Y0080878D02*
X0146500Y0080878D01*
X0146500Y0081876D02*
X0124703Y0081876D01*
X0122709Y0075885D02*
X0146500Y0075885D01*
X0146500Y0074887D02*
X0123708Y0074887D01*
X0124193Y0073888D02*
X0146500Y0073888D01*
X0146500Y0072890D02*
X0124591Y0072890D01*
X0124591Y0071891D02*
X0146500Y0071891D01*
X0146500Y0070893D02*
X0124572Y0070893D01*
X0124158Y0069894D02*
X0146500Y0069894D01*
X0146500Y0068896D02*
X0123624Y0068896D01*
X0122626Y0067897D02*
X0146500Y0067897D01*
M02*
