%
M48
M72
T01C0.0240
T02C0.0400
T03C0.0429
T04C0.0630
T05C0.1252
%
T01
X2650Y6900
T02
X7150Y7150
X7150Y6150
X7150Y5150
X7150Y4150
X7150Y3150
X7150Y2150
X7150Y1150
X7150Y8150
X7150Y9150
X7150Y10150
X7150Y11150
X7150Y12150
T03
X10841Y8831
X10841Y7741
X10841Y6650
X10841Y5559
X10841Y4469
X11959Y5016
X11959Y6107
X11959Y7193
X11959Y8284
T04
X2150Y4530
X2150Y8770
T05
X11400Y11571
X11400Y1729
M30
