G75*
%MOIN*%
%OFA0B0*%
%FSLAX25Y25*%
%IPPOS*%
%LPD*%
%AMOC8*
5,1,8,0,0,1.08239X$1,22.5*
%
%ADD10C,0.07099*%
%ADD11R,0.05131X0.03950*%
%ADD12R,0.10643X0.05524*%
%ADD13C,0.06800*%
%ADD14R,0.08200X0.08200*%
%ADD15C,0.08200*%
%ADD16C,0.20800*%
%ADD17C,0.04800*%
D10*
X0021500Y0045299D03*
X0021500Y0087701D03*
D11*
X0010673Y0079000D03*
X0010673Y0074000D03*
X0010673Y0069000D03*
X0010673Y0064000D03*
X0010673Y0059000D03*
X0010673Y0054000D03*
X0032327Y0054000D03*
X0032327Y0059000D03*
X0032327Y0064000D03*
X0032327Y0069000D03*
X0032327Y0074000D03*
X0032327Y0079000D03*
D12*
X0011461Y0044118D03*
X0031539Y0044118D03*
X0031539Y0088882D03*
X0011461Y0088882D03*
D13*
X0068500Y0091500D02*
X0074500Y0091500D01*
X0074500Y0081500D02*
X0068500Y0081500D01*
X0068500Y0071500D02*
X0074500Y0071500D01*
X0074500Y0061500D02*
X0068500Y0061500D01*
X0068500Y0051500D02*
X0074500Y0051500D01*
X0074500Y0041500D02*
X0068500Y0041500D01*
X0068500Y0031500D02*
X0074500Y0031500D01*
X0074500Y0021500D02*
X0068500Y0021500D01*
X0068500Y0011500D02*
X0074500Y0011500D01*
X0074500Y0101500D02*
X0068500Y0101500D01*
X0068500Y0111500D02*
X0074500Y0111500D01*
X0074500Y0121500D02*
X0068500Y0121500D01*
D14*
X0108409Y0088311D03*
D15*
X0108409Y0077406D03*
X0108409Y0066500D03*
X0108409Y0055594D03*
X0108409Y0044689D03*
X0119591Y0050161D03*
X0119591Y0061067D03*
X0119591Y0071933D03*
X0119591Y0082839D03*
D16*
X0114000Y0115713D03*
X0114000Y0017287D03*
D17*
X0026500Y0069000D03*
M02*
