G75*
%MOIN*%
%OFA0B0*%
%FSLAX25Y25*%
%IPPOS*%
%LPD*%
%AMOC8*
5,1,8,0,0,1.08239X$1,22.5*
%
%ADD10C,0.00100*%
%ADD11C,0.00500*%
%ADD12C,0.00800*%
D10*
X0004050Y0039050D02*
X0004951Y0039050D01*
X0004951Y0039500D01*
X0004801Y0039651D01*
X0004500Y0039651D01*
X0004350Y0039500D01*
X0004350Y0039050D01*
X0004500Y0039971D02*
X0004500Y0040271D01*
X0004050Y0039971D02*
X0004050Y0040571D01*
X0004050Y0040892D02*
X0004951Y0040892D01*
X0004651Y0041192D01*
X0004951Y0041492D01*
X0004050Y0041492D01*
X0004050Y0041812D02*
X0004651Y0042413D01*
X0004801Y0042413D01*
X0004951Y0042263D01*
X0004951Y0041962D01*
X0004801Y0041812D01*
X0004050Y0041812D02*
X0004050Y0042413D01*
X0004200Y0042733D02*
X0004801Y0043334D01*
X0004200Y0043334D01*
X0004050Y0043184D01*
X0004050Y0042883D01*
X0004200Y0042733D01*
X0004801Y0042733D01*
X0004951Y0042883D01*
X0004951Y0043184D01*
X0004801Y0043334D01*
X0004651Y0043654D02*
X0004951Y0043954D01*
X0004050Y0043954D01*
X0004050Y0043654D02*
X0004050Y0044254D01*
X0004050Y0044575D02*
X0004200Y0044575D01*
X0004801Y0045175D01*
X0004951Y0045175D01*
X0004951Y0044575D01*
X0004951Y0040571D02*
X0004951Y0039971D01*
X0004050Y0039971D01*
D11*
X0009689Y0047169D02*
X0009689Y0051106D01*
X0007472Y0052538D02*
X0005470Y0052538D01*
X0005470Y0053205D02*
X0005470Y0051870D01*
X0006805Y0051870D02*
X0007472Y0052538D01*
X0006805Y0054172D02*
X0007472Y0054840D01*
X0005470Y0054840D01*
X0005470Y0055507D02*
X0005470Y0054172D01*
X0016500Y0051500D02*
X0016500Y0081500D01*
X0021500Y0081500D01*
X0021500Y0084000D01*
X0026500Y0084000D01*
X0026500Y0049000D01*
X0021500Y0049000D01*
X0021500Y0051500D01*
X0016500Y0051500D01*
X0017563Y0041500D02*
X0025437Y0041500D01*
X0033311Y0047169D02*
X0033311Y0051106D01*
X0035392Y0051477D02*
X0035392Y0052811D01*
X0035392Y0052144D02*
X0037393Y0052144D01*
X0036726Y0051477D01*
X0037060Y0053779D02*
X0037393Y0054112D01*
X0037393Y0054780D01*
X0037060Y0055113D01*
X0036726Y0055113D01*
X0035392Y0053779D01*
X0035392Y0055113D01*
X0035392Y0077873D02*
X0036726Y0079208D01*
X0037060Y0079208D01*
X0037393Y0078874D01*
X0037393Y0078207D01*
X0037060Y0077873D01*
X0035392Y0077873D02*
X0035392Y0079208D01*
X0033311Y0081894D02*
X0033311Y0085831D01*
X0025437Y0091500D02*
X0017563Y0091500D01*
X0009689Y0085831D02*
X0009689Y0081894D01*
X0007472Y0078540D02*
X0005470Y0078540D01*
X0005470Y0077873D02*
X0005470Y0079208D01*
X0006805Y0077873D02*
X0007472Y0078540D01*
D12*
X0039400Y0047838D02*
X0039400Y0045703D01*
X0039400Y0046771D02*
X0042603Y0046771D01*
X0041535Y0045703D01*
X0042603Y0044155D02*
X0042603Y0042020D01*
X0039400Y0042020D01*
X0041001Y0042020D02*
X0041001Y0043088D01*
X0039934Y0040472D02*
X0039400Y0039938D01*
X0039400Y0038871D01*
X0039934Y0038337D01*
X0042069Y0038337D01*
X0042603Y0038871D01*
X0042603Y0039938D01*
X0042069Y0040472D01*
M02*
