G75*
%MOIN*%
%OFA0B0*%
%FSLAX25Y25*%
%IPPOS*%
%LPD*%
%AMOC8*
5,1,8,0,0,1.08239X$1,22.5*
%
%ADD10C,0.01000*%
%ADD11C,0.00000*%
D10*
X0006500Y0034000D02*
X0031500Y0034000D01*
X0031640Y0033998D01*
X0031780Y0033992D01*
X0031920Y0033982D01*
X0032060Y0033969D01*
X0032199Y0033951D01*
X0032338Y0033929D01*
X0032475Y0033904D01*
X0032613Y0033875D01*
X0032749Y0033842D01*
X0032884Y0033805D01*
X0033018Y0033764D01*
X0033151Y0033719D01*
X0033283Y0033671D01*
X0033413Y0033619D01*
X0033542Y0033564D01*
X0033669Y0033505D01*
X0033795Y0033442D01*
X0033919Y0033376D01*
X0034040Y0033307D01*
X0034160Y0033234D01*
X0034278Y0033157D01*
X0034393Y0033078D01*
X0034507Y0032995D01*
X0034617Y0032909D01*
X0034726Y0032820D01*
X0034832Y0032728D01*
X0034935Y0032633D01*
X0035036Y0032536D01*
X0035133Y0032435D01*
X0035228Y0032332D01*
X0035320Y0032226D01*
X0035409Y0032117D01*
X0035495Y0032007D01*
X0035578Y0031893D01*
X0035657Y0031778D01*
X0035734Y0031660D01*
X0035807Y0031540D01*
X0035876Y0031419D01*
X0035942Y0031295D01*
X0036005Y0031169D01*
X0036064Y0031042D01*
X0036119Y0030913D01*
X0036171Y0030783D01*
X0036219Y0030651D01*
X0036264Y0030518D01*
X0036305Y0030384D01*
X0036342Y0030249D01*
X0036375Y0030113D01*
X0036404Y0029975D01*
X0036429Y0029838D01*
X0036451Y0029699D01*
X0036469Y0029560D01*
X0036482Y0029420D01*
X0036492Y0029280D01*
X0036498Y0029140D01*
X0036500Y0029000D01*
X0036500Y0009000D01*
X0036471Y0008844D01*
X0036445Y0008687D01*
X0036424Y0008529D01*
X0036406Y0008372D01*
X0036393Y0008213D01*
X0036383Y0008055D01*
X0036378Y0007896D01*
X0036376Y0007737D01*
X0036378Y0007578D01*
X0036385Y0007419D01*
X0036395Y0007261D01*
X0036409Y0007102D01*
X0036427Y0006944D01*
X0036449Y0006787D01*
X0036475Y0006630D01*
X0036505Y0006474D01*
X0036539Y0006319D01*
X0036576Y0006164D01*
X0036618Y0006011D01*
X0036663Y0005859D01*
X0036712Y0005707D01*
X0036765Y0005558D01*
X0036821Y0005409D01*
X0036882Y0005262D01*
X0036946Y0005116D01*
X0037013Y0004973D01*
X0037084Y0004830D01*
X0037159Y0004690D01*
X0037237Y0004552D01*
X0037318Y0004415D01*
X0037403Y0004281D01*
X0037491Y0004149D01*
X0037582Y0004019D01*
X0037677Y0003891D01*
X0037775Y0003766D01*
X0037876Y0003643D01*
X0037980Y0003523D01*
X0038087Y0003405D01*
X0038196Y0003290D01*
X0038309Y0003178D01*
X0038424Y0003069D01*
X0038542Y0002962D01*
X0038663Y0002859D01*
X0038786Y0002758D01*
X0038912Y0002661D01*
X0039040Y0002567D01*
X0039170Y0002476D01*
X0039303Y0002389D01*
X0039438Y0002304D01*
X0039574Y0002223D01*
X0039713Y0002146D01*
X0039854Y0002072D01*
X0039996Y0002002D01*
X0040140Y0001935D01*
X0040286Y0001871D01*
X0040434Y0001812D01*
X0040582Y0001756D01*
X0040732Y0001704D01*
X0040884Y0001655D01*
X0041036Y0001611D01*
X0041190Y0001570D01*
X0041345Y0001533D01*
X0041500Y0001500D01*
X0151500Y0001500D01*
X0151500Y0131500D01*
X0041500Y0131500D01*
X0041360Y0131498D01*
X0041220Y0131492D01*
X0041080Y0131482D01*
X0040940Y0131469D01*
X0040801Y0131451D01*
X0040662Y0131429D01*
X0040525Y0131404D01*
X0040387Y0131375D01*
X0040251Y0131342D01*
X0040116Y0131305D01*
X0039982Y0131264D01*
X0039849Y0131219D01*
X0039717Y0131171D01*
X0039587Y0131119D01*
X0039458Y0131064D01*
X0039331Y0131005D01*
X0039205Y0130942D01*
X0039081Y0130876D01*
X0038960Y0130807D01*
X0038840Y0130734D01*
X0038722Y0130657D01*
X0038607Y0130578D01*
X0038493Y0130495D01*
X0038383Y0130409D01*
X0038274Y0130320D01*
X0038168Y0130228D01*
X0038065Y0130133D01*
X0037964Y0130036D01*
X0037867Y0129935D01*
X0037772Y0129832D01*
X0037680Y0129726D01*
X0037591Y0129617D01*
X0037505Y0129507D01*
X0037422Y0129393D01*
X0037343Y0129278D01*
X0037266Y0129160D01*
X0037193Y0129040D01*
X0037124Y0128919D01*
X0037058Y0128795D01*
X0036995Y0128669D01*
X0036936Y0128542D01*
X0036881Y0128413D01*
X0036829Y0128283D01*
X0036781Y0128151D01*
X0036736Y0128018D01*
X0036695Y0127884D01*
X0036658Y0127749D01*
X0036625Y0127613D01*
X0036596Y0127475D01*
X0036571Y0127338D01*
X0036549Y0127199D01*
X0036531Y0127060D01*
X0036518Y0126920D01*
X0036508Y0126780D01*
X0036502Y0126640D01*
X0036500Y0126500D01*
X0036500Y0104000D01*
X0036498Y0103860D01*
X0036492Y0103720D01*
X0036482Y0103580D01*
X0036469Y0103440D01*
X0036451Y0103301D01*
X0036429Y0103162D01*
X0036404Y0103025D01*
X0036375Y0102887D01*
X0036342Y0102751D01*
X0036305Y0102616D01*
X0036264Y0102482D01*
X0036219Y0102349D01*
X0036171Y0102217D01*
X0036119Y0102087D01*
X0036064Y0101958D01*
X0036005Y0101831D01*
X0035942Y0101705D01*
X0035876Y0101581D01*
X0035807Y0101460D01*
X0035734Y0101340D01*
X0035657Y0101222D01*
X0035578Y0101107D01*
X0035495Y0100993D01*
X0035409Y0100883D01*
X0035320Y0100774D01*
X0035228Y0100668D01*
X0035133Y0100565D01*
X0035036Y0100464D01*
X0034935Y0100367D01*
X0034832Y0100272D01*
X0034726Y0100180D01*
X0034617Y0100091D01*
X0034507Y0100005D01*
X0034393Y0099922D01*
X0034278Y0099843D01*
X0034160Y0099766D01*
X0034040Y0099693D01*
X0033919Y0099624D01*
X0033795Y0099558D01*
X0033669Y0099495D01*
X0033542Y0099436D01*
X0033413Y0099381D01*
X0033283Y0099329D01*
X0033151Y0099281D01*
X0033018Y0099236D01*
X0032884Y0099195D01*
X0032749Y0099158D01*
X0032613Y0099125D01*
X0032475Y0099096D01*
X0032338Y0099071D01*
X0032199Y0099049D01*
X0032060Y0099031D01*
X0031920Y0099018D01*
X0031780Y0099008D01*
X0031640Y0099002D01*
X0031500Y0099000D01*
X0006500Y0099000D01*
X0006360Y0098998D01*
X0006220Y0098992D01*
X0006080Y0098982D01*
X0005940Y0098969D01*
X0005801Y0098951D01*
X0005662Y0098929D01*
X0005525Y0098904D01*
X0005387Y0098875D01*
X0005251Y0098842D01*
X0005116Y0098805D01*
X0004982Y0098764D01*
X0004849Y0098719D01*
X0004717Y0098671D01*
X0004587Y0098619D01*
X0004458Y0098564D01*
X0004331Y0098505D01*
X0004205Y0098442D01*
X0004081Y0098376D01*
X0003960Y0098307D01*
X0003840Y0098234D01*
X0003722Y0098157D01*
X0003607Y0098078D01*
X0003493Y0097995D01*
X0003383Y0097909D01*
X0003274Y0097820D01*
X0003168Y0097728D01*
X0003065Y0097633D01*
X0002964Y0097536D01*
X0002867Y0097435D01*
X0002772Y0097332D01*
X0002680Y0097226D01*
X0002591Y0097117D01*
X0002505Y0097007D01*
X0002422Y0096893D01*
X0002343Y0096778D01*
X0002266Y0096660D01*
X0002193Y0096540D01*
X0002124Y0096419D01*
X0002058Y0096295D01*
X0001995Y0096169D01*
X0001936Y0096042D01*
X0001881Y0095913D01*
X0001829Y0095783D01*
X0001781Y0095651D01*
X0001736Y0095518D01*
X0001695Y0095384D01*
X0001658Y0095249D01*
X0001625Y0095113D01*
X0001596Y0094975D01*
X0001571Y0094838D01*
X0001549Y0094699D01*
X0001531Y0094560D01*
X0001518Y0094420D01*
X0001508Y0094280D01*
X0001502Y0094140D01*
X0001500Y0094000D01*
X0001500Y0039000D01*
X0001502Y0038860D01*
X0001508Y0038720D01*
X0001518Y0038580D01*
X0001531Y0038440D01*
X0001549Y0038301D01*
X0001571Y0038162D01*
X0001596Y0038025D01*
X0001625Y0037887D01*
X0001658Y0037751D01*
X0001695Y0037616D01*
X0001736Y0037482D01*
X0001781Y0037349D01*
X0001829Y0037217D01*
X0001881Y0037087D01*
X0001936Y0036958D01*
X0001995Y0036831D01*
X0002058Y0036705D01*
X0002124Y0036581D01*
X0002193Y0036460D01*
X0002266Y0036340D01*
X0002343Y0036222D01*
X0002422Y0036107D01*
X0002505Y0035993D01*
X0002591Y0035883D01*
X0002680Y0035774D01*
X0002772Y0035668D01*
X0002867Y0035565D01*
X0002964Y0035464D01*
X0003065Y0035367D01*
X0003168Y0035272D01*
X0003274Y0035180D01*
X0003383Y0035091D01*
X0003493Y0035005D01*
X0003607Y0034922D01*
X0003722Y0034843D01*
X0003840Y0034766D01*
X0003960Y0034693D01*
X0004081Y0034624D01*
X0004205Y0034558D01*
X0004331Y0034495D01*
X0004458Y0034436D01*
X0004587Y0034381D01*
X0004717Y0034329D01*
X0004849Y0034281D01*
X0004982Y0034236D01*
X0005116Y0034195D01*
X0005251Y0034158D01*
X0005387Y0034125D01*
X0005525Y0034096D01*
X0005662Y0034071D01*
X0005801Y0034049D01*
X0005940Y0034031D01*
X0006080Y0034018D01*
X0006220Y0034008D01*
X0006360Y0034002D01*
X0006500Y0034000D01*
D11*
X0018350Y0045299D02*
X0018352Y0045411D01*
X0018358Y0045522D01*
X0018368Y0045634D01*
X0018382Y0045745D01*
X0018399Y0045855D01*
X0018421Y0045965D01*
X0018447Y0046074D01*
X0018476Y0046182D01*
X0018509Y0046288D01*
X0018546Y0046394D01*
X0018587Y0046498D01*
X0018632Y0046601D01*
X0018680Y0046702D01*
X0018731Y0046801D01*
X0018786Y0046898D01*
X0018845Y0046993D01*
X0018906Y0047087D01*
X0018971Y0047178D01*
X0019040Y0047266D01*
X0019111Y0047352D01*
X0019185Y0047436D01*
X0019263Y0047516D01*
X0019343Y0047594D01*
X0019426Y0047670D01*
X0019511Y0047742D01*
X0019599Y0047811D01*
X0019689Y0047877D01*
X0019782Y0047939D01*
X0019877Y0047999D01*
X0019974Y0048055D01*
X0020072Y0048107D01*
X0020173Y0048156D01*
X0020275Y0048201D01*
X0020379Y0048243D01*
X0020484Y0048281D01*
X0020591Y0048315D01*
X0020698Y0048345D01*
X0020807Y0048372D01*
X0020916Y0048394D01*
X0021027Y0048413D01*
X0021137Y0048428D01*
X0021249Y0048439D01*
X0021360Y0048446D01*
X0021472Y0048449D01*
X0021584Y0048448D01*
X0021696Y0048443D01*
X0021807Y0048434D01*
X0021918Y0048421D01*
X0022029Y0048404D01*
X0022139Y0048384D01*
X0022248Y0048359D01*
X0022356Y0048331D01*
X0022463Y0048298D01*
X0022569Y0048262D01*
X0022673Y0048222D01*
X0022776Y0048179D01*
X0022878Y0048132D01*
X0022977Y0048081D01*
X0023075Y0048027D01*
X0023171Y0047969D01*
X0023265Y0047908D01*
X0023356Y0047844D01*
X0023445Y0047777D01*
X0023532Y0047706D01*
X0023616Y0047632D01*
X0023698Y0047556D01*
X0023776Y0047476D01*
X0023852Y0047394D01*
X0023925Y0047309D01*
X0023995Y0047222D01*
X0024061Y0047132D01*
X0024125Y0047040D01*
X0024185Y0046946D01*
X0024242Y0046850D01*
X0024295Y0046751D01*
X0024345Y0046651D01*
X0024391Y0046550D01*
X0024434Y0046446D01*
X0024473Y0046341D01*
X0024508Y0046235D01*
X0024539Y0046128D01*
X0024567Y0046019D01*
X0024590Y0045910D01*
X0024610Y0045800D01*
X0024626Y0045689D01*
X0024638Y0045578D01*
X0024646Y0045467D01*
X0024650Y0045355D01*
X0024650Y0045243D01*
X0024646Y0045131D01*
X0024638Y0045020D01*
X0024626Y0044909D01*
X0024610Y0044798D01*
X0024590Y0044688D01*
X0024567Y0044579D01*
X0024539Y0044470D01*
X0024508Y0044363D01*
X0024473Y0044257D01*
X0024434Y0044152D01*
X0024391Y0044048D01*
X0024345Y0043947D01*
X0024295Y0043847D01*
X0024242Y0043748D01*
X0024185Y0043652D01*
X0024125Y0043558D01*
X0024061Y0043466D01*
X0023995Y0043376D01*
X0023925Y0043289D01*
X0023852Y0043204D01*
X0023776Y0043122D01*
X0023698Y0043042D01*
X0023616Y0042966D01*
X0023532Y0042892D01*
X0023445Y0042821D01*
X0023356Y0042754D01*
X0023265Y0042690D01*
X0023171Y0042629D01*
X0023075Y0042571D01*
X0022977Y0042517D01*
X0022878Y0042466D01*
X0022776Y0042419D01*
X0022673Y0042376D01*
X0022569Y0042336D01*
X0022463Y0042300D01*
X0022356Y0042267D01*
X0022248Y0042239D01*
X0022139Y0042214D01*
X0022029Y0042194D01*
X0021918Y0042177D01*
X0021807Y0042164D01*
X0021696Y0042155D01*
X0021584Y0042150D01*
X0021472Y0042149D01*
X0021360Y0042152D01*
X0021249Y0042159D01*
X0021137Y0042170D01*
X0021027Y0042185D01*
X0020916Y0042204D01*
X0020807Y0042226D01*
X0020698Y0042253D01*
X0020591Y0042283D01*
X0020484Y0042317D01*
X0020379Y0042355D01*
X0020275Y0042397D01*
X0020173Y0042442D01*
X0020072Y0042491D01*
X0019974Y0042543D01*
X0019877Y0042599D01*
X0019782Y0042659D01*
X0019689Y0042721D01*
X0019599Y0042787D01*
X0019511Y0042856D01*
X0019426Y0042928D01*
X0019343Y0043004D01*
X0019263Y0043082D01*
X0019185Y0043162D01*
X0019111Y0043246D01*
X0019040Y0043332D01*
X0018971Y0043420D01*
X0018906Y0043511D01*
X0018845Y0043605D01*
X0018786Y0043700D01*
X0018731Y0043797D01*
X0018680Y0043896D01*
X0018632Y0043997D01*
X0018587Y0044100D01*
X0018546Y0044204D01*
X0018509Y0044310D01*
X0018476Y0044416D01*
X0018447Y0044524D01*
X0018421Y0044633D01*
X0018399Y0044743D01*
X0018382Y0044853D01*
X0018368Y0044964D01*
X0018358Y0045076D01*
X0018352Y0045187D01*
X0018350Y0045299D01*
X0018350Y0087701D02*
X0018352Y0087813D01*
X0018358Y0087924D01*
X0018368Y0088036D01*
X0018382Y0088147D01*
X0018399Y0088257D01*
X0018421Y0088367D01*
X0018447Y0088476D01*
X0018476Y0088584D01*
X0018509Y0088690D01*
X0018546Y0088796D01*
X0018587Y0088900D01*
X0018632Y0089003D01*
X0018680Y0089104D01*
X0018731Y0089203D01*
X0018786Y0089300D01*
X0018845Y0089395D01*
X0018906Y0089489D01*
X0018971Y0089580D01*
X0019040Y0089668D01*
X0019111Y0089754D01*
X0019185Y0089838D01*
X0019263Y0089918D01*
X0019343Y0089996D01*
X0019426Y0090072D01*
X0019511Y0090144D01*
X0019599Y0090213D01*
X0019689Y0090279D01*
X0019782Y0090341D01*
X0019877Y0090401D01*
X0019974Y0090457D01*
X0020072Y0090509D01*
X0020173Y0090558D01*
X0020275Y0090603D01*
X0020379Y0090645D01*
X0020484Y0090683D01*
X0020591Y0090717D01*
X0020698Y0090747D01*
X0020807Y0090774D01*
X0020916Y0090796D01*
X0021027Y0090815D01*
X0021137Y0090830D01*
X0021249Y0090841D01*
X0021360Y0090848D01*
X0021472Y0090851D01*
X0021584Y0090850D01*
X0021696Y0090845D01*
X0021807Y0090836D01*
X0021918Y0090823D01*
X0022029Y0090806D01*
X0022139Y0090786D01*
X0022248Y0090761D01*
X0022356Y0090733D01*
X0022463Y0090700D01*
X0022569Y0090664D01*
X0022673Y0090624D01*
X0022776Y0090581D01*
X0022878Y0090534D01*
X0022977Y0090483D01*
X0023075Y0090429D01*
X0023171Y0090371D01*
X0023265Y0090310D01*
X0023356Y0090246D01*
X0023445Y0090179D01*
X0023532Y0090108D01*
X0023616Y0090034D01*
X0023698Y0089958D01*
X0023776Y0089878D01*
X0023852Y0089796D01*
X0023925Y0089711D01*
X0023995Y0089624D01*
X0024061Y0089534D01*
X0024125Y0089442D01*
X0024185Y0089348D01*
X0024242Y0089252D01*
X0024295Y0089153D01*
X0024345Y0089053D01*
X0024391Y0088952D01*
X0024434Y0088848D01*
X0024473Y0088743D01*
X0024508Y0088637D01*
X0024539Y0088530D01*
X0024567Y0088421D01*
X0024590Y0088312D01*
X0024610Y0088202D01*
X0024626Y0088091D01*
X0024638Y0087980D01*
X0024646Y0087869D01*
X0024650Y0087757D01*
X0024650Y0087645D01*
X0024646Y0087533D01*
X0024638Y0087422D01*
X0024626Y0087311D01*
X0024610Y0087200D01*
X0024590Y0087090D01*
X0024567Y0086981D01*
X0024539Y0086872D01*
X0024508Y0086765D01*
X0024473Y0086659D01*
X0024434Y0086554D01*
X0024391Y0086450D01*
X0024345Y0086349D01*
X0024295Y0086249D01*
X0024242Y0086150D01*
X0024185Y0086054D01*
X0024125Y0085960D01*
X0024061Y0085868D01*
X0023995Y0085778D01*
X0023925Y0085691D01*
X0023852Y0085606D01*
X0023776Y0085524D01*
X0023698Y0085444D01*
X0023616Y0085368D01*
X0023532Y0085294D01*
X0023445Y0085223D01*
X0023356Y0085156D01*
X0023265Y0085092D01*
X0023171Y0085031D01*
X0023075Y0084973D01*
X0022977Y0084919D01*
X0022878Y0084868D01*
X0022776Y0084821D01*
X0022673Y0084778D01*
X0022569Y0084738D01*
X0022463Y0084702D01*
X0022356Y0084669D01*
X0022248Y0084641D01*
X0022139Y0084616D01*
X0022029Y0084596D01*
X0021918Y0084579D01*
X0021807Y0084566D01*
X0021696Y0084557D01*
X0021584Y0084552D01*
X0021472Y0084551D01*
X0021360Y0084554D01*
X0021249Y0084561D01*
X0021137Y0084572D01*
X0021027Y0084587D01*
X0020916Y0084606D01*
X0020807Y0084628D01*
X0020698Y0084655D01*
X0020591Y0084685D01*
X0020484Y0084719D01*
X0020379Y0084757D01*
X0020275Y0084799D01*
X0020173Y0084844D01*
X0020072Y0084893D01*
X0019974Y0084945D01*
X0019877Y0085001D01*
X0019782Y0085061D01*
X0019689Y0085123D01*
X0019599Y0085189D01*
X0019511Y0085258D01*
X0019426Y0085330D01*
X0019343Y0085406D01*
X0019263Y0085484D01*
X0019185Y0085564D01*
X0019111Y0085648D01*
X0019040Y0085734D01*
X0018971Y0085822D01*
X0018906Y0085913D01*
X0018845Y0086007D01*
X0018786Y0086102D01*
X0018731Y0086199D01*
X0018680Y0086298D01*
X0018632Y0086399D01*
X0018587Y0086502D01*
X0018546Y0086606D01*
X0018509Y0086712D01*
X0018476Y0086818D01*
X0018447Y0086926D01*
X0018421Y0087035D01*
X0018399Y0087145D01*
X0018382Y0087255D01*
X0018368Y0087366D01*
X0018358Y0087478D01*
X0018352Y0087589D01*
X0018350Y0087701D01*
M02*
