  0
SECTION
  2
HEADER
  9
$ACADVER
  1
AC1009
  9
$MEASUREMENT
 70
     1
  0
ENDSEC
  0
SECTION
  2
ENTITIES
  0
LWPOLYLINE
  8
0
 62
7
 90
5
 70
1
 10
53.226563
 20
50.000000
 10
53.226563
 20
49.201563
 10
53.873437
 20
49.201563
 10
53.873437
 20
50.798437
 10
53.226563
 20
50.798437
  0
LWPOLYLINE
  8
0
 62
7
 90
5
 70
1
 10
54.126563
 20
50.000000
 10
54.126563
 20
49.201563
 10
54.773438
 20
49.201563
 10
54.773438
 20
50.798437
 10
54.126563
 20
50.798437
  0
LWPOLYLINE
  8
0
 62
7
 90
5
 70
1
 10
73.226563
 20
50.000000
 10
73.226563
 20
49.201563
 10
73.873437
 20
49.201563
 10
73.873437
 20
50.798437
 10
73.226563
 20
50.798437
  0
LWPOLYLINE
  8
0
 62
7
 90
5
 70
1
 10
74.126563
 20
50.000000
 10
74.126563
 20
49.201563
 10
74.773438
 20
49.201563
 10
74.773438
 20
50.798437
 10
74.126563
 20
50.798437
  0
LWPOLYLINE
  8
0
 62
7
 90
5
 70
1
 10
93.226563
 20
50.000000
 10
93.226563
 20
49.201563
 10
93.873437
 20
49.201563
 10
93.873437
 20
50.798437
 10
93.226563
 20
50.798437
  0
LWPOLYLINE
  8
0
 62
7
 90
5
 70
1
 10
94.126563
 20
50.000000
 10
94.126563
 20
49.201563
 10
94.773438
 20
49.201563
 10
94.773438
 20
50.798437
 10
94.126563
 20
50.798437
  0
LWPOLYLINE
  8
0
 62
7
 90
5
 70
1
 10
113.226563
 20
50.000000
 10
113.226563
 20
49.201563
 10
113.873437
 20
49.201563
 10
113.873437
 20
50.798437
 10
113.226563
 20
50.798437
  0
LWPOLYLINE
  8
0
 62
7
 90
5
 70
1
 10
114.126563
 20
50.000000
 10
114.126563
 20
49.201563
 10
114.773438
 20
49.201563
 10
114.773438
 20
50.798437
 10
114.126563
 20
50.798437
  0
LWPOLYLINE
  8
0
 62
7
 90
5
 70
1
 10
133.226563
 20
50.000000
 10
133.226563
 20
49.201563
 10
133.873438
 20
49.201563
 10
133.873438
 20
50.798437
 10
133.226563
 20
50.798437
  0
LWPOLYLINE
  8
0
 62
7
 90
5
 70
1
 10
134.126562
 20
50.000000
 10
134.126562
 20
49.201563
 10
134.773438
 20
49.201563
 10
134.773438
 20
50.798437
 10
134.126562
 20
50.798437
  0
LWPOLYLINE
  8
0
 62
7
 90
5
 70
1
 10
134.773438
 20
38.000000
 10
134.773438
 20
38.798437
 10
134.126562
 20
38.798437
 10
134.126562
 20
37.201563
 10
134.773438
 20
37.201563
  0
LWPOLYLINE
  8
0
 62
7
 90
5
 70
1
 10
133.873438
 20
38.000000
 10
133.873438
 20
38.798437
 10
133.226563
 20
38.798437
 10
133.226563
 20
37.201563
 10
133.873438
 20
37.201563
  0
LWPOLYLINE
  8
0
 62
7
 90
5
 70
1
 10
114.773438
 20
38.000000
 10
114.773438
 20
38.798437
 10
114.126563
 20
38.798437
 10
114.126563
 20
37.201563
 10
114.773438
 20
37.201563
  0
LWPOLYLINE
  8
0
 62
7
 90
5
 70
1
 10
113.873437
 20
38.000000
 10
113.873437
 20
38.798437
 10
113.226563
 20
38.798437
 10
113.226563
 20
37.201563
 10
113.873437
 20
37.201563
  0
LWPOLYLINE
  8
0
 62
7
 90
5
 70
1
 10
94.773438
 20
38.000000
 10
94.773438
 20
38.798437
 10
94.126563
 20
38.798437
 10
94.126563
 20
37.201563
 10
94.773438
 20
37.201563
  0
LWPOLYLINE
  8
0
 62
7
 90
5
 70
1
 10
93.873437
 20
38.000000
 10
93.873437
 20
38.798437
 10
93.226563
 20
38.798437
 10
93.226563
 20
37.201563
 10
93.873437
 20
37.201563
  0
LWPOLYLINE
  8
0
 62
7
 90
5
 70
1
 10
74.773438
 20
38.000000
 10
74.773438
 20
38.798437
 10
74.126563
 20
38.798437
 10
74.126563
 20
37.201563
 10
74.773438
 20
37.201563
  0
LWPOLYLINE
  8
0
 62
7
 90
5
 70
1
 10
73.873437
 20
38.000000
 10
73.873437
 20
38.798437
 10
73.226563
 20
38.798437
 10
73.226563
 20
37.201563
 10
73.873437
 20
37.201563
  0
LWPOLYLINE
  8
0
 62
7
 90
5
 70
1
 10
54.773438
 20
38.000000
 10
54.773438
 20
38.798437
 10
54.126563
 20
38.798437
 10
54.126563
 20
37.201563
 10
54.773438
 20
37.201563
  0
LWPOLYLINE
  8
0
 62
7
 90
5
 70
1
 10
53.873437
 20
38.000000
 10
53.873437
 20
38.798437
 10
53.226563
 20
38.798437
 10
53.226563
 20
37.201563
 10
53.873437
 20
37.201563
  0
LWPOLYLINE
  8
0
 62
7
 90
5
 70
1
 10
53.226563
 20
26.000000
 10
53.226563
 20
25.201563
 10
53.873437
 20
25.201563
 10
53.873437
 20
26.798437
 10
53.226563
 20
26.798437
  0
LWPOLYLINE
  8
0
 62
7
 90
5
 70
1
 10
54.126563
 20
26.000000
 10
54.126563
 20
25.201563
 10
54.773438
 20
25.201563
 10
54.773438
 20
26.798437
 10
54.126563
 20
26.798437
  0
LWPOLYLINE
  8
0
 62
7
 90
5
 70
1
 10
73.226563
 20
26.000000
 10
73.226563
 20
25.201563
 10
73.873437
 20
25.201563
 10
73.873437
 20
26.798437
 10
73.226563
 20
26.798437
  0
LWPOLYLINE
  8
0
 62
7
 90
5
 70
1
 10
74.126563
 20
26.000000
 10
74.126563
 20
25.201563
 10
74.773438
 20
25.201563
 10
74.773438
 20
26.798437
 10
74.126563
 20
26.798437
  0
LWPOLYLINE
  8
0
 62
7
 90
5
 70
1
 10
93.226563
 20
26.000000
 10
93.226563
 20
25.201563
 10
93.873437
 20
25.201563
 10
93.873437
 20
26.798437
 10
93.226563
 20
26.798437
  0
LWPOLYLINE
  8
0
 62
7
 90
5
 70
1
 10
94.126563
 20
26.000000
 10
94.126563
 20
25.201563
 10
94.773438
 20
25.201563
 10
94.773438
 20
26.798437
 10
94.126563
 20
26.798437
  0
LWPOLYLINE
  8
0
 62
7
 90
5
 70
1
 10
113.226563
 20
26.000000
 10
113.226563
 20
25.201563
 10
113.873437
 20
25.201563
 10
113.873437
 20
26.798437
 10
113.226563
 20
26.798437
  0
LWPOLYLINE
  8
0
 62
7
 90
5
 70
1
 10
114.126563
 20
26.000000
 10
114.126563
 20
25.201563
 10
114.773438
 20
25.201563
 10
114.773438
 20
26.798437
 10
114.126563
 20
26.798437
  0
LWPOLYLINE
  8
0
 62
7
 90
5
 70
1
 10
133.226563
 20
26.000000
 10
133.226563
 20
25.201563
 10
133.873438
 20
25.201563
 10
133.873438
 20
26.798437
 10
133.226563
 20
26.798437
  0
LWPOLYLINE
  8
0
 62
7
 90
5
 70
1
 10
134.126562
 20
26.000000
 10
134.126562
 20
25.201563
 10
134.773438
 20
25.201563
 10
134.773438
 20
26.798437
 10
134.126562
 20
26.798437
  0
LWPOLYLINE
  8
0
 62
7
 90
5
 70
1
 10
12.700000
 20
40.926563
 10
15.448437
 20
40.926563
 10
15.448437
 20
42.773438
 10
9.951562
 20
42.773438
 10
9.951562
 20
40.926563
  0
LWPOLYLINE
  8
0
 62
7
 90
5
 70
1
 10
12.700000
 20
35.826563
 10
15.448437
 20
35.826563
 10
15.448437
 20
37.673437
 10
9.951562
 20
37.673437
 10
9.951562
 20
35.826563
  0
LWPOLYLINE
  8
0
 62
7
 90
5
 70
1
 10
43.000000
 20
46.473437
 10
42.101563
 20
46.473437
 10
42.101563
 20
45.326563
 10
43.898438
 20
45.326563
 10
43.898438
 20
46.473437
  0
LWPOLYLINE
  8
0
 62
7
 90
5
 70
1
 10
43.000000
 20
49.473437
 10
42.101563
 20
49.473437
 10
42.101563
 20
48.326563
 10
43.898438
 20
48.326563
 10
43.898438
 20
49.473437
  0
LWPOLYLINE
  8
0
 62
7
 90
5
 70
1
 10
43.000000
 20
30.773438
 10
42.101563
 20
30.773438
 10
42.101563
 20
29.626562
 10
43.898438
 20
29.626562
 10
43.898438
 20
30.773438
  0
LWPOLYLINE
  8
0
 62
7
 90
5
 70
1
 10
43.000000
 20
33.773438
 10
42.101563
 20
33.773438
 10
42.101563
 20
32.626563
 10
43.898438
 20
32.626563
 10
43.898438
 20
33.773438
  0
LWPOLYLINE
  8
0
 62
7
 90
5
 70
1
 10
12.700000
 20
25.426563
 10
15.448437
 20
25.426563
 10
15.448437
 20
27.273438
 10
9.951562
 20
27.273438
 10
9.951562
 20
25.426563
  0
LWPOLYLINE
  8
0
 62
7
 90
5
 70
1
 10
12.700000
 20
20.326563
 10
15.448437
 20
20.326563
 10
15.448437
 20
22.173437
 10
9.951562
 20
22.173437
 10
9.951562
 20
20.326563
  0
LWPOLYLINE
  8
0
 62
7
 90
5
 70
1
 10
12.800000
 20
56.926563
 10
15.548438
 20
56.926563
 10
15.548438
 20
58.773438
 10
10.051563
 20
58.773438
 10
10.051563
 20
56.926563
  0
LWPOLYLINE
  8
0
 62
7
 90
5
 70
1
 10
12.800000
 20
51.826563
 10
15.548438
 20
51.826563
 10
15.548438
 20
53.673437
 10
10.051563
 20
53.673437
 10
10.051563
 20
51.826563
  0
LWPOLYLINE
  8
0
 62
7
 90
5
 70
1
 10
43.100000
 20
62.473437
 10
42.201563
 20
62.473437
 10
42.201563
 20
61.326563
 10
43.998438
 20
61.326563
 10
43.998438
 20
62.473437
  0
LWPOLYLINE
  8
0
 62
7
 90
5
 70
1
 10
43.100000
 20
65.473438
 10
42.201563
 20
65.473438
 10
42.201563
 20
64.326563
 10
43.998438
 20
64.326563
 10
43.998438
 20
65.473438
  0
LWPOLYLINE
  8
0
 62
7
 90
5
 70
1
 10
24.048437
 20
56.200000
 10
24.048437
 20
57.048438
 10
22.251562
 20
57.048438
 10
22.251562
 20
55.351563
 10
24.048437
 20
55.351563
  0
LWPOLYLINE
  8
0
 62
7
 90
5
 70
1
 10
28.148438
 20
56.200000
 10
28.148438
 20
57.048438
 10
26.351563
 20
57.048438
 10
26.351563
 20
55.351563
 10
28.148438
 20
55.351563
  0
LWPOLYLINE
  8
0
 62
7
 90
5
 70
1
 10
24.248438
 20
40.300000
 10
24.248438
 20
41.148438
 10
22.451563
 20
41.148438
 10
22.451563
 20
39.451562
 10
24.248438
 20
39.451562
  0
LWPOLYLINE
  8
0
 62
7
 90
5
 70
1
 10
28.348437
 20
40.300000
 10
28.348437
 20
41.148438
 10
26.551562
 20
41.148438
 10
26.551562
 20
39.451562
 10
28.348437
 20
39.451562
  0
LWPOLYLINE
  8
0
 62
7
 90
5
 70
1
 10
24.148438
 20
24.600000
 10
24.148438
 20
25.448438
 10
22.351563
 20
25.448438
 10
22.351563
 20
23.751563
 10
24.148438
 20
23.751563
  0
LWPOLYLINE
  8
0
 62
7
 90
5
 70
1
 10
28.248438
 20
24.600000
 10
28.248438
 20
25.448438
 10
26.451563
 20
25.448438
 10
26.451563
 20
23.751563
 10
28.248438
 20
23.751563
  0
LWPOLYLINE
  8
0
 62
7
 90
5
 70
1
 10
79.773438
 20
32.000000
 10
79.773438
 20
32.798437
 10
79.126563
 20
32.798437
 10
79.126563
 20
31.201563
 10
79.773438
 20
31.201563
  0
LWPOLYLINE
  8
0
 62
7
 90
5
 70
1
 10
78.873437
 20
32.000000
 10
78.873437
 20
32.798437
 10
78.226563
 20
32.798437
 10
78.226563
 20
31.201563
 10
78.873437
 20
31.201563
  0
LWPOLYLINE
  8
0
 62
7
 90
5
 70
1
 10
58.226563
 20
44.000000
 10
58.226563
 20
43.201563
 10
58.873437
 20
43.201563
 10
58.873437
 20
44.798437
 10
58.226563
 20
44.798437
  0
LWPOLYLINE
  8
0
 62
7
 90
5
 70
1
 10
59.126563
 20
44.000000
 10
59.126563
 20
43.201563
 10
59.773438
 20
43.201563
 10
59.773438
 20
44.798437
 10
59.126563
 20
44.798437
  0
LWPOLYLINE
  8
0
 62
7
 90
5
 70
1
 10
78.226563
 20
44.000000
 10
78.226563
 20
43.201563
 10
78.873437
 20
43.201563
 10
78.873437
 20
44.798437
 10
78.226563
 20
44.798437
  0
LWPOLYLINE
  8
0
 62
7
 90
5
 70
1
 10
79.126563
 20
44.000000
 10
79.126563
 20
43.201563
 10
79.773438
 20
43.201563
 10
79.773438
 20
44.798437
 10
79.126563
 20
44.798437
  0
LWPOLYLINE
  8
0
 62
7
 90
5
 70
1
 10
98.226563
 20
44.000000
 10
98.226563
 20
43.201563
 10
98.873437
 20
43.201563
 10
98.873437
 20
44.798437
 10
98.226563
 20
44.798437
  0
LWPOLYLINE
  8
0
 62
7
 90
5
 70
1
 10
99.126563
 20
44.000000
 10
99.126563
 20
43.201563
 10
99.773438
 20
43.201563
 10
99.773438
 20
44.798437
 10
99.126563
 20
44.798437
  0
LWPOLYLINE
  8
0
 62
7
 90
5
 70
1
 10
118.226563
 20
44.000000
 10
118.226563
 20
43.201563
 10
118.873437
 20
43.201563
 10
118.873437
 20
44.798437
 10
118.226563
 20
44.798437
  0
LWPOLYLINE
  8
0
 62
7
 90
5
 70
1
 10
119.126563
 20
44.000000
 10
119.126563
 20
43.201563
 10
119.773438
 20
43.201563
 10
119.773438
 20
44.798437
 10
119.126563
 20
44.798437
  0
LWPOLYLINE
  8
0
 62
7
 90
5
 70
1
 10
138.226563
 20
44.000000
 10
138.226563
 20
43.201563
 10
138.873438
 20
43.201563
 10
138.873438
 20
44.798437
 10
138.226563
 20
44.798437
  0
LWPOLYLINE
  8
0
 62
7
 90
5
 70
1
 10
139.126562
 20
44.000000
 10
139.126562
 20
43.201563
 10
139.773438
 20
43.201563
 10
139.773438
 20
44.798437
 10
139.126562
 20
44.798437
  0
LWPOLYLINE
  8
0
 62
7
 90
5
 70
1
 10
139.773438
 20
32.000000
 10
139.773438
 20
32.798437
 10
139.126562
 20
32.798437
 10
139.126562
 20
31.201563
 10
139.773438
 20
31.201563
  0
LWPOLYLINE
  8
0
 62
7
 90
5
 70
1
 10
138.873438
 20
32.000000
 10
138.873438
 20
32.798437
 10
138.226563
 20
32.798437
 10
138.226563
 20
31.201563
 10
138.873438
 20
31.201563
  0
LWPOLYLINE
  8
0
 62
7
 90
5
 70
1
 10
119.773438
 20
32.000000
 10
119.773438
 20
32.798437
 10
119.126563
 20
32.798437
 10
119.126563
 20
31.201563
 10
119.773438
 20
31.201563
  0
LWPOLYLINE
  8
0
 62
7
 90
5
 70
1
 10
118.873437
 20
32.000000
 10
118.873437
 20
32.798437
 10
118.226563
 20
32.798437
 10
118.226563
 20
31.201563
 10
118.873437
 20
31.201563
  0
LWPOLYLINE
  8
0
 62
7
 90
5
 70
1
 10
99.773438
 20
32.000000
 10
99.773438
 20
32.798437
 10
99.126563
 20
32.798437
 10
99.126563
 20
31.201563
 10
99.773438
 20
31.201563
  0
LWPOLYLINE
  8
0
 62
7
 90
5
 70
1
 10
98.873437
 20
32.000000
 10
98.873437
 20
32.798437
 10
98.226563
 20
32.798437
 10
98.226563
 20
31.201563
 10
98.873437
 20
31.201563
  0
LWPOLYLINE
  8
0
 62
7
 90
5
 70
1
 10
59.773438
 20
32.000000
 10
59.773438
 20
32.798437
 10
59.126563
 20
32.798437
 10
59.126563
 20
31.201563
 10
59.773438
 20
31.201563
  0
LWPOLYLINE
  8
0
 62
7
 90
5
 70
1
 10
58.873437
 20
32.000000
 10
58.873437
 20
32.798437
 10
58.226563
 20
32.798437
 10
58.226563
 20
31.201563
 10
58.873437
 20
31.201563
  0
LWPOLYLINE
  8
0
 62
7
 90
5
 70
1
 10
58.226563
 20
20.000000
 10
58.226563
 20
19.201563
 10
58.873437
 20
19.201563
 10
58.873437
 20
20.798437
 10
58.226563
 20
20.798437
  0
LWPOLYLINE
  8
0
 62
7
 90
5
 70
1
 10
59.126563
 20
20.000000
 10
59.126563
 20
19.201563
 10
59.773438
 20
19.201563
 10
59.773438
 20
20.798437
 10
59.126563
 20
20.798437
  0
LWPOLYLINE
  8
0
 62
7
 90
5
 70
1
 10
78.226563
 20
20.000000
 10
78.226563
 20
19.201563
 10
78.873437
 20
19.201563
 10
78.873437
 20
20.798437
 10
78.226563
 20
20.798437
  0
LWPOLYLINE
  8
0
 62
7
 90
5
 70
1
 10
79.126563
 20
20.000000
 10
79.126563
 20
19.201563
 10
79.773438
 20
19.201563
 10
79.773438
 20
20.798437
 10
79.126563
 20
20.798437
  0
LWPOLYLINE
  8
0
 62
7
 90
5
 70
1
 10
98.226563
 20
20.000000
 10
98.226563
 20
19.201563
 10
98.873437
 20
19.201563
 10
98.873437
 20
20.798437
 10
98.226563
 20
20.798437
  0
LWPOLYLINE
  8
0
 62
7
 90
5
 70
1
 10
99.126563
 20
20.000000
 10
99.126563
 20
19.201563
 10
99.773438
 20
19.201563
 10
99.773438
 20
20.798437
 10
99.126563
 20
20.798437
  0
LWPOLYLINE
  8
0
 62
7
 90
5
 70
1
 10
118.226563
 20
20.000000
 10
118.226563
 20
19.201563
 10
118.873437
 20
19.201563
 10
118.873437
 20
20.798437
 10
118.226563
 20
20.798437
  0
LWPOLYLINE
  8
0
 62
7
 90
5
 70
1
 10
119.126563
 20
20.000000
 10
119.126563
 20
19.201563
 10
119.773438
 20
19.201563
 10
119.773438
 20
20.798437
 10
119.126563
 20
20.798437
  0
LWPOLYLINE
  8
0
 62
7
 90
5
 70
1
 10
138.226563
 20
20.000000
 10
138.226563
 20
19.201563
 10
138.873438
 20
19.201563
 10
138.873438
 20
20.798437
 10
138.226563
 20
20.798437
  0
LWPOLYLINE
  8
0
 62
7
 90
5
 70
1
 10
139.126562
 20
20.000000
 10
139.126562
 20
19.201563
 10
139.773438
 20
19.201563
 10
139.773438
 20
20.798437
 10
139.126562
 20
20.798437
  0
LWPOLYLINE
  8
0
 62
7
 90
5
 70
1
 10
30.230000
 20
60.838438
 10
29.171563
 20
60.838438
 10
29.171563
 20
55.841563
 10
31.288438
 20
55.841563
 10
31.288438
 20
60.838438
  0
LWPOLYLINE
  8
0
 62
7
 90
5
 70
1
 10
40.210000
 20
60.818438
 10
39.151562
 20
60.818438
 10
39.151562
 20
55.821562
 10
41.268438
 20
55.821562
 10
41.268438
 20
60.818438
  0
LWPOLYLINE
  8
0
 62
7
 90
5
 70
1
 10
30.130000
 20
44.838438
 10
29.071562
 20
44.838438
 10
29.071562
 20
39.841563
 10
31.188437
 20
39.841563
 10
31.188437
 20
44.838438
  0
LWPOLYLINE
  8
0
 62
7
 90
5
 70
1
 10
40.110000
 20
44.818438
 10
39.051563
 20
44.818438
 10
39.051563
 20
39.821562
 10
41.168437
 20
39.821562
 10
41.168437
 20
44.818438
  0
LWPOLYLINE
  8
0
 62
7
 90
5
 70
1
 10
30.130000
 20
29.238437
 10
29.071562
 20
29.238437
 10
29.071562
 20
24.241562
 10
31.188437
 20
24.241562
 10
31.188437
 20
29.238437
  0
LWPOLYLINE
  8
0
 62
7
 90
5
 70
1
 10
40.110000
 20
29.218438
 10
39.051563
 20
29.218438
 10
39.051563
 20
24.221562
 10
41.168437
 20
24.221562
 10
41.168437
 20
29.218438
  0
LWPOLYLINE
  8
0
 62
7
 90
5
 70
1
 10
21.398438
 20
48.900000
 10
21.398438
 20
50.248438
 10
19.601563
 20
50.248438
 10
19.601563
 20
47.551562
 10
21.398438
 20
47.551562
  0
LWPOLYLINE
  8
0
 62
7
 90
5
 70
1
 10
25.798437
 20
48.900000
 10
25.798437
 20
50.248438
 10
24.001562
 20
50.248438
 10
24.001562
 20
47.551562
 10
25.798437
 20
47.551562
  0
LWPOLYLINE
  8
0
 62
7
 90
5
 70
1
 10
21.398438
 20
33.200000
 10
21.398438
 20
34.548438
 10
19.601563
 20
34.548438
 10
19.601563
 20
31.851563
 10
21.398438
 20
31.851563
  0
LWPOLYLINE
  8
0
 62
7
 90
5
 70
1
 10
25.798437
 20
33.200000
 10
25.798437
 20
34.548438
 10
24.001562
 20
34.548438
 10
24.001562
 20
31.851563
 10
25.798437
 20
31.851563
  0
LWPOLYLINE
  8
0
 62
7
 90
5
 70
1
 10
21.498438
 20
64.900000
 10
21.498438
 20
66.248438
 10
19.701563
 20
66.248438
 10
19.701563
 20
63.551563
 10
21.498438
 20
63.551563
  0
LWPOLYLINE
  8
0
 62
7
 90
5
 70
1
 10
25.898438
 20
64.900000
 10
25.898438
 20
66.248438
 10
24.101563
 20
66.248438
 10
24.101563
 20
63.551563
 10
25.898438
 20
63.551563
  0
LWPOLYLINE
  8
0
 62
7
 90
5
 70
1
 10
63.226563
 20
50.000000
 10
63.226563
 20
49.201563
 10
63.873437
 20
49.201563
 10
63.873437
 20
50.798437
 10
63.226563
 20
50.798437
  0
LWPOLYLINE
  8
0
 62
7
 90
5
 70
1
 10
64.126563
 20
50.000000
 10
64.126563
 20
49.201563
 10
64.773438
 20
49.201563
 10
64.773438
 20
50.798437
 10
64.126563
 20
50.798437
  0
LWPOLYLINE
  8
0
 62
7
 90
5
 70
1
 10
83.226563
 20
50.000000
 10
83.226563
 20
49.201563
 10
83.873437
 20
49.201563
 10
83.873437
 20
50.798437
 10
83.226563
 20
50.798437
  0
LWPOLYLINE
  8
0
 62
7
 90
5
 70
1
 10
84.126563
 20
50.000000
 10
84.126563
 20
49.201563
 10
84.773438
 20
49.201563
 10
84.773438
 20
50.798437
 10
84.126563
 20
50.798437
  0
LWPOLYLINE
  8
0
 62
7
 90
5
 70
1
 10
103.226563
 20
50.000000
 10
103.226563
 20
49.201563
 10
103.873437
 20
49.201563
 10
103.873437
 20
50.798437
 10
103.226563
 20
50.798437
  0
LWPOLYLINE
  8
0
 62
7
 90
5
 70
1
 10
104.126563
 20
50.000000
 10
104.126563
 20
49.201563
 10
104.773438
 20
49.201563
 10
104.773438
 20
50.798437
 10
104.126563
 20
50.798437
  0
LWPOLYLINE
  8
0
 62
7
 90
5
 70
1
 10
123.226563
 20
50.000000
 10
123.226563
 20
49.201563
 10
123.873437
 20
49.201563
 10
123.873437
 20
50.798437
 10
123.226563
 20
50.798437
  0
LWPOLYLINE
  8
0
 62
7
 90
5
 70
1
 10
124.126563
 20
50.000000
 10
124.126563
 20
49.201563
 10
124.773438
 20
49.201563
 10
124.773438
 20
50.798437
 10
124.126563
 20
50.798437
  0
LWPOLYLINE
  8
0
 62
7
 90
5
 70
1
 10
143.226563
 20
50.000000
 10
143.226563
 20
49.201563
 10
143.873438
 20
49.201563
 10
143.873438
 20
50.798437
 10
143.226563
 20
50.798437
  0
LWPOLYLINE
  8
0
 62
7
 90
5
 70
1
 10
144.126562
 20
50.000000
 10
144.126562
 20
49.201563
 10
144.773438
 20
49.201563
 10
144.773438
 20
50.798437
 10
144.126562
 20
50.798437
  0
LWPOLYLINE
  8
0
 62
7
 90
5
 70
1
 10
144.773438
 20
38.000000
 10
144.773438
 20
38.798437
 10
144.126562
 20
38.798437
 10
144.126562
 20
37.201563
 10
144.773438
 20
37.201563
  0
LWPOLYLINE
  8
0
 62
7
 90
5
 70
1
 10
143.873438
 20
38.000000
 10
143.873438
 20
38.798437
 10
143.226563
 20
38.798437
 10
143.226563
 20
37.201563
 10
143.873438
 20
37.201563
  0
LWPOLYLINE
  8
0
 62
7
 90
5
 70
1
 10
124.773438
 20
38.000000
 10
124.773438
 20
38.798437
 10
124.126563
 20
38.798437
 10
124.126563
 20
37.201563
 10
124.773438
 20
37.201563
  0
LWPOLYLINE
  8
0
 62
7
 90
5
 70
1
 10
123.873437
 20
38.000000
 10
123.873437
 20
38.798437
 10
123.226563
 20
38.798437
 10
123.226563
 20
37.201563
 10
123.873437
 20
37.201563
  0
LWPOLYLINE
  8
0
 62
7
 90
5
 70
1
 10
104.773438
 20
38.000000
 10
104.773438
 20
38.798437
 10
104.126563
 20
38.798437
 10
104.126563
 20
37.201563
 10
104.773438
 20
37.201563
  0
LWPOLYLINE
  8
0
 62
7
 90
5
 70
1
 10
103.873437
 20
38.000000
 10
103.873437
 20
38.798437
 10
103.226563
 20
38.798437
 10
103.226563
 20
37.201563
 10
103.873437
 20
37.201563
  0
LWPOLYLINE
  8
0
 62
7
 90
5
 70
1
 10
84.773438
 20
38.000000
 10
84.773438
 20
38.798437
 10
84.126563
 20
38.798437
 10
84.126563
 20
37.201563
 10
84.773438
 20
37.201563
  0
LWPOLYLINE
  8
0
 62
7
 90
5
 70
1
 10
83.873437
 20
38.000000
 10
83.873437
 20
38.798437
 10
83.226563
 20
38.798437
 10
83.226563
 20
37.201563
 10
83.873437
 20
37.201563
  0
LWPOLYLINE
  8
0
 62
7
 90
5
 70
1
 10
64.773438
 20
38.000000
 10
64.773438
 20
38.798437
 10
64.126563
 20
38.798437
 10
64.126563
 20
37.201563
 10
64.773438
 20
37.201563
  0
LWPOLYLINE
  8
0
 62
7
 90
5
 70
1
 10
63.873437
 20
38.000000
 10
63.873437
 20
38.798437
 10
63.226563
 20
38.798437
 10
63.226563
 20
37.201563
 10
63.873437
 20
37.201563
  0
LWPOLYLINE
  8
0
 62
7
 90
5
 70
1
 10
63.226563
 20
26.000000
 10
63.226563
 20
25.201563
 10
63.873437
 20
25.201563
 10
63.873437
 20
26.798437
 10
63.226563
 20
26.798437
  0
LWPOLYLINE
  8
0
 62
7
 90
5
 70
1
 10
64.126563
 20
26.000000
 10
64.126563
 20
25.201563
 10
64.773438
 20
25.201563
 10
64.773438
 20
26.798437
 10
64.126563
 20
26.798437
  0
LWPOLYLINE
  8
0
 62
7
 90
5
 70
1
 10
83.226563
 20
26.000000
 10
83.226563
 20
25.201563
 10
83.873437
 20
25.201563
 10
83.873437
 20
26.798437
 10
83.226563
 20
26.798437
  0
LWPOLYLINE
  8
0
 62
7
 90
5
 70
1
 10
84.126563
 20
26.000000
 10
84.126563
 20
25.201563
 10
84.773438
 20
25.201563
 10
84.773438
 20
26.798437
 10
84.126563
 20
26.798437
  0
LWPOLYLINE
  8
0
 62
7
 90
5
 70
1
 10
103.226563
 20
26.000000
 10
103.226563
 20
25.201563
 10
103.873437
 20
25.201563
 10
103.873437
 20
26.798437
 10
103.226563
 20
26.798437
  0
LWPOLYLINE
  8
0
 62
7
 90
5
 70
1
 10
104.126563
 20
26.000000
 10
104.126563
 20
25.201563
 10
104.773438
 20
25.201563
 10
104.773438
 20
26.798437
 10
104.126563
 20
26.798437
  0
LWPOLYLINE
  8
0
 62
7
 90
5
 70
1
 10
123.226563
 20
26.000000
 10
123.226563
 20
25.201563
 10
123.873437
 20
25.201563
 10
123.873437
 20
26.798437
 10
123.226563
 20
26.798437
  0
LWPOLYLINE
  8
0
 62
7
 90
5
 70
1
 10
124.126563
 20
26.000000
 10
124.126563
 20
25.201563
 10
124.773438
 20
25.201563
 10
124.773438
 20
26.798437
 10
124.126563
 20
26.798437
  0
LWPOLYLINE
  8
0
 62
7
 90
5
 70
1
 10
143.226563
 20
26.000000
 10
143.226563
 20
25.201563
 10
143.873438
 20
25.201563
 10
143.873438
 20
26.798437
 10
143.226563
 20
26.798437
  0
LWPOLYLINE
  8
0
 62
7
 90
5
 70
1
 10
144.126562
 20
26.000000
 10
144.126562
 20
25.201563
 10
144.773438
 20
25.201563
 10
144.773438
 20
26.798437
 10
144.126562
 20
26.798437
  0
LWPOLYLINE
  8
0
 62
7
 90
5
 70
1
 10
99.201562
 20
35.000000
 10
99.201562
 20
34.651562
 10
99.798438
 20
34.651562
 10
99.798438
 20
35.348438
 10
99.201562
 20
35.348438
  0
LWPOLYLINE
  8
0
 62
7
 90
5
 70
1
 10
98.201562
 20
35.000000
 10
98.201562
 20
34.651562
 10
98.798438
 20
34.651562
 10
98.798438
 20
35.348438
 10
98.201562
 20
35.348438
  0
LWPOLYLINE
  8
0
 62
7
 90
5
 70
1
 10
20.701563
 20
56.800000
 10
20.701563
 20
56.451562
 10
21.298437
 20
56.451562
 10
21.298437
 20
57.148438
 10
20.701563
 20
57.148438
  0
LWPOLYLINE
  8
0
 62
7
 90
5
 70
1
 10
19.701563
 20
56.800000
 10
19.701563
 20
56.451562
 10
20.298437
 20
56.451562
 10
20.298437
 20
57.148438
 10
19.701563
 20
57.148438
  0
LWPOLYLINE
  8
0
 62
7
 90
5
 70
1
 10
20.601563
 20
40.800000
 10
20.601563
 20
40.451562
 10
21.198437
 20
40.451562
 10
21.198437
 20
41.148438
 10
20.601563
 20
41.148438
  0
LWPOLYLINE
  8
0
 62
7
 90
5
 70
1
 10
19.601563
 20
40.800000
 10
19.601563
 20
40.451562
 10
20.198437
 20
40.451562
 10
20.198437
 20
41.148438
 10
19.601563
 20
41.148438
  0
LWPOLYLINE
  8
0
 62
7
 90
5
 70
1
 10
20.601563
 20
25.300000
 10
20.601563
 20
24.951563
 10
21.198437
 20
24.951563
 10
21.198437
 20
25.648438
 10
20.601563
 20
25.648438
  0
LWPOLYLINE
  8
0
 62
7
 90
5
 70
1
 10
19.601563
 20
25.300000
 10
19.601563
 20
24.951563
 10
20.198437
 20
24.951563
 10
20.198437
 20
25.648438
 10
19.601563
 20
25.648438
  0
LWPOLYLINE
  8
0
 62
7
 90
5
 70
1
 10
21.974763
 20
58.295000
 10
21.974763
 20
58.017163
 10
23.952837
 20
58.017163
 10
23.952837
 20
58.572837
 10
21.974763
 20
58.572837
  0
LWPOLYLINE
  8
0
 62
7
 90
5
 70
1
 10
21.974763
 20
59.565000
 10
21.974763
 20
59.287163
 10
23.952837
 20
59.287163
 10
23.952837
 20
59.842837
 10
21.974763
 20
59.842837
  0
LWPOLYLINE
  8
0
 62
7
 90
5
 70
1
 10
21.974763
 20
60.835000
 10
21.974763
 20
60.557163
 10
23.952837
 20
60.557163
 10
23.952837
 20
61.112837
 10
21.974763
 20
61.112837
  0
LWPOLYLINE
  8
0
 62
7
 90
5
 70
1
 10
21.974763
 20
62.105000
 10
21.974763
 20
61.827163
 10
23.952837
 20
61.827163
 10
23.952837
 20
62.382837
 10
21.974763
 20
62.382837
  0
LWPOLYLINE
  8
0
 62
7
 90
5
 70
1
 10
17.047163
 20
62.105000
 10
17.047163
 20
61.827163
 10
19.025237
 20
61.827163
 10
19.025237
 20
62.382837
 10
17.047163
 20
62.382837
  0
LWPOLYLINE
  8
0
 62
7
 90
5
 70
1
 10
17.047163
 20
60.835000
 10
17.047163
 20
60.557163
 10
19.025237
 20
60.557163
 10
19.025237
 20
61.112837
 10
17.047163
 20
61.112837
  0
LWPOLYLINE
  8
0
 62
7
 90
5
 70
1
 10
17.047163
 20
59.565000
 10
17.047163
 20
59.287163
 10
19.025237
 20
59.287163
 10
19.025237
 20
59.842837
 10
17.047163
 20
59.842837
  0
LWPOLYLINE
  8
0
 62
7
 90
5
 70
1
 10
17.047163
 20
58.295000
 10
17.047163
 20
58.017163
 10
19.025237
 20
58.017163
 10
19.025237
 20
58.572837
 10
17.047163
 20
58.572837
  0
LWPOLYLINE
  8
0
 62
7
 90
5
 70
1
 10
21.874763
 20
42.295000
 10
21.874763
 20
42.017163
 10
23.852837
 20
42.017163
 10
23.852837
 20
42.572837
 10
21.874763
 20
42.572837
  0
LWPOLYLINE
  8
0
 62
7
 90
5
 70
1
 10
21.874763
 20
43.565000
 10
21.874763
 20
43.287163
 10
23.852837
 20
43.287163
 10
23.852837
 20
43.842837
 10
21.874763
 20
43.842837
  0
LWPOLYLINE
  8
0
 62
7
 90
5
 70
1
 10
21.874763
 20
44.835000
 10
21.874763
 20
44.557163
 10
23.852837
 20
44.557163
 10
23.852837
 20
45.112837
 10
21.874763
 20
45.112837
  0
LWPOLYLINE
  8
0
 62
7
 90
5
 70
1
 10
21.874763
 20
46.105000
 10
21.874763
 20
45.827163
 10
23.852837
 20
45.827163
 10
23.852837
 20
46.382837
 10
21.874763
 20
46.382837
  0
LWPOLYLINE
  8
0
 62
7
 90
5
 70
1
 10
16.947163
 20
46.105000
 10
16.947163
 20
45.827163
 10
18.925237
 20
45.827163
 10
18.925237
 20
46.382837
 10
16.947163
 20
46.382837
  0
LWPOLYLINE
  8
0
 62
7
 90
5
 70
1
 10
16.947163
 20
44.835000
 10
16.947163
 20
44.557163
 10
18.925237
 20
44.557163
 10
18.925237
 20
45.112837
 10
16.947163
 20
45.112837
  0
LWPOLYLINE
  8
0
 62
7
 90
5
 70
1
 10
16.947163
 20
43.565000
 10
16.947163
 20
43.287163
 10
18.925237
 20
43.287163
 10
18.925237
 20
43.842837
 10
16.947163
 20
43.842837
  0
LWPOLYLINE
  8
0
 62
7
 90
5
 70
1
 10
16.947163
 20
42.295000
 10
16.947163
 20
42.017163
 10
18.925237
 20
42.017163
 10
18.925237
 20
42.572837
 10
16.947163
 20
42.572837
  0
LWPOLYLINE
  8
0
 62
7
 90
5
 70
1
 10
21.874763
 20
26.795000
 10
21.874763
 20
26.517163
 10
23.852837
 20
26.517163
 10
23.852837
 20
27.072838
 10
21.874763
 20
27.072838
  0
LWPOLYLINE
  8
0
 62
7
 90
5
 70
1
 10
21.874763
 20
28.065000
 10
21.874763
 20
27.787163
 10
23.852837
 20
27.787163
 10
23.852837
 20
28.342838
 10
21.874763
 20
28.342838
  0
LWPOLYLINE
  8
0
 62
7
 90
5
 70
1
 10
21.874763
 20
29.335000
 10
21.874763
 20
29.057163
 10
23.852837
 20
29.057163
 10
23.852837
 20
29.612838
 10
21.874763
 20
29.612838
  0
LWPOLYLINE
  8
0
 62
7
 90
5
 70
1
 10
21.874763
 20
30.605000
 10
21.874763
 20
30.327163
 10
23.852837
 20
30.327163
 10
23.852837
 20
30.882838
 10
21.874763
 20
30.882838
  0
LWPOLYLINE
  8
0
 62
7
 90
5
 70
1
 10
16.947163
 20
30.605000
 10
16.947163
 20
30.327163
 10
18.925237
 20
30.327163
 10
18.925237
 20
30.882838
 10
16.947163
 20
30.882838
  0
LWPOLYLINE
  8
0
 62
7
 90
5
 70
1
 10
16.947163
 20
29.335000
 10
16.947163
 20
29.057163
 10
18.925237
 20
29.057163
 10
18.925237
 20
29.612838
 10
16.947163
 20
29.612838
  0
LWPOLYLINE
  8
0
 62
7
 90
5
 70
1
 10
16.947163
 20
28.065000
 10
16.947163
 20
27.787163
 10
18.925237
 20
27.787163
 10
18.925237
 20
28.342838
 10
16.947163
 20
28.342838
  0
LWPOLYLINE
  8
0
 62
7
 90
5
 70
1
 10
16.947163
 20
26.795000
 10
16.947163
 20
26.517163
 10
18.925237
 20
26.517163
 10
18.925237
 20
27.072838
 10
16.947163
 20
27.072838
  0
ENDSEC
  0
EOF
