  0
SECTION
  2
HEADER
  9
$ACADVER
  1
AC1009
  9
$FILLMODE
 70
1
  9
$EXTMIN
 10
-7.1857
 20
-1.1680
 30
0.0000
  9
$EXTMAX
 10
150.1000
 20
70.1000
 30
0.0000
  0
ENDSEC
  0
SECTION
  2
TABLES
  0
TABLE
  2
LTYPE
 70
1
  0
LTYPE
  2
CONTINUOUS
 70
64
  3
Solid line
 72
65
 73
0
 40
0
  0
ENDTAB
  0
TABLE
  2
LAYER
 70
255
  0
LAYER
  2
50
 70
64
 62
253
  6
CONTINUOUS
  0
ENDTAB
  0
ENDSEC
  0
SECTION
  2
BLOCKS
  0
BLOCK
  8
0
  2
RECT
 70
64
 10
0.0000
 20
0.0000
 30
0.0000
  3
RECT
  0
SOLID
  8
0
 10
-0.5000
 20
-0.5000
 30
0.0000
 11
0.5000
 21
-0.5000
 31
0.0000
 12
-0.5000
 22
0.5000
 32
0.0000
 13
0.5000
 23
0.5000
 33
0.0000
  0
ENDBLK
  8
0
  0
BLOCK
  8
0
  2
PIE
 70
64
 10
0.0000
 20
0.0000
 30
0.0000
  3
PIE
  0
POLYLINE
  8
0
 66
1
 10
0.0000
 20
0.0000
 30
0.0000
 40
0.5000
 41
0.5000
 70
0
  0
VERTEX
  8
0
 10
0.0000
 20
-0.2500
 30
0.0000
 42
1.0000
  0
VERTEX
  8
0
 10
0.0000
 20
0.2500
 30
0.0000
 42
1.0000
  0
VERTEX
  8
0
 10
0.0000
 20
-0.2500
 30
0.0000
  0
SEQEND
  8
0
  0
ENDBLK
  8
0
  0
BLOCK
  8
0
  2
OCTAGONP
 70
64
 10
0.0000
 20
0.0000
 30
0.0000
  3
OCTAGONP
  0
POLYLINE
  8
0
 66
1
 10
0.0000
 20
0.0000
 30
0.0000
 40
0.5000
 41
0.5000
 70
0
  0
VERTEX
  8
0
 10
-0.2500
 20
-0.1036
 30
0.0000
  0
VERTEX
  8
0
 10
-0.2500
 20
0.1036
 30
0.0000
  0
VERTEX
  8
0
 10
-0.1036
 20
0.2500
 30
0.0000
  0
VERTEX
  8
0
 10
0.1036
 20
0.2500
 30
0.0000
  0
VERTEX
  8
0
 10
0.2500
 20
0.1036
 30
0.0000
  0
VERTEX
  8
0
 10
0.2500
 20
-0.1036
 30
0.0000
  0
VERTEX
  8
0
 10
0.1036
 20
-0.2500
 30
0.0000
  0
VERTEX
  8
0
 10
-0.1036
 20
-0.2500
 30
0.0000
  0
VERTEX
  8
0
 10
-0.2500
 20
-0.1036
 30
0.0000
  0
VERTEX
  8
0
 10
-0.2500
 20
0.1036
 30
0.0000
  0
SEQEND
  8
0
  0
ENDBLK
  8
0
  0
BLOCK
  8
0
  2
SQUAREP
 70
64
 10
0.0000
 20
0.0000
 30
0.0000
  3
SQUAREP
  0
SOLID
  8
0
 10
-0.5000
 20
-0.5000
 30
0.0000
 11
0.5000
 21
-0.5000
 31
0.0000
 12
-0.5000
 22
0.5000
 32
0.0000
 13
0.5000
 23
0.5000
 33
0.0000
  0
ENDBLK
  8
0
  0
BLOCK
  8
0
  2
ROUNDP
 70
64
 10
0.0000
 20
0.0000
 30
0.0000
  3
ROUNDP
  0
POLYLINE
  8
0
 66
1
 10
0.0000
 20
0.0000
 30
0.0000
 40
0.5000
 41
0.5000
 70
0
  0
VERTEX
  8
0
 10
0.0000
 20
-0.2500
 30
0.0000
 42
1.0000
  0
VERTEX
  8
0
 10
0.0000
 20
0.2500
 30
0.0000
 42
1.0000
  0
VERTEX
  8
0
 10
0.0000
 20
-0.2500
 30
0.0000
  0
SEQEND
  8
0
  0
ENDBLK
  8
0
  0
BLOCK
  8
0
  2
ANNULUSP
 70
64
 10
0.0000
 20
0.0000
 30
0.0000
  3
ANNULUSP
  0
POLYLINE
  8
0
 66
1
 10
0.0000
 20
0.0000
 30
0.0000
 40
0.5000
 41
0.5000
 70
0
  0
VERTEX
  8
0
 10
0.0000
 20
-0.2500
 30
0.0000
 42
1.0000
  0
VERTEX
  8
0
 10
0.0000
 20
0.2500
 30
0.0000
 42
1.0000
  0
VERTEX
  8
0
 10
0.0000
 20
-0.2500
 30
0.0000
  0
SEQEND
  8
0
  0
ENDBLK
  8
0
  0
BLOCK
  8
0
  2
THERMALP
 70
64
 10
0.0000
 20
0.0000
 30
0.0000
  3
THERMALP
  0
POLYLINE
  8
0
 66
1
 10
0.0000
 20
0.0000
 30
0.0000
 40
0.1000
 41
0.1000
 70
0
  0
VERTEX
  8
0
 10
-0.2379
 20
0.4500
 30
0.0000
  0
VERTEX
  8
0
 10
0.2379
 20
0.4500
 30
0.0000
  0
SEQEND
  8
0
  0
POLYLINE
  8
0
 66
1
 10
0.0000
 20
0.0000
 30
0.0000
 40
0.0500
 41
0.0500
 70
0
  0
VERTEX
  8
0
 10
0.2379
 20
0.4250
 30
0.0000
 42
1.0000
  0
VERTEX
  8
0
 10
0.2379
 20
0.4750
 30
0.0000
  0
SEQEND
  8
0
  0
POLYLINE
  8
0
 66
1
 10
0.0000
 20
0.0000
 30
0.0000
 40
0.0500
 41
0.0500
 70
0
  0
VERTEX
  8
0
 10
-0.2379
 20
0.4750
 30
0.0000
 42
1.0000
  0
VERTEX
  8
0
 10
-0.2379
 20
0.4250
 30
0.0000
  0
SEQEND
  8
0
  0
POLYLINE
  8
0
 66
1
 10
0.0000
 20
0.0000
 30
0.0000
 40
0.1000
 41
0.1000
 70
0
  0
VERTEX
  8
0
 10
0.4500
 20
0.2379
 30
0.0000
  0
VERTEX
  8
0
 10
0.4500
 20
-0.2379
 30
0.0000
  0
SEQEND
  8
0
  0
POLYLINE
  8
0
 66
1
 10
0.0000
 20
0.0000
 30
0.0000
 40
0.0500
 41
0.0500
 70
0
  0
VERTEX
  8
0
 10
0.4250
 20
-0.2379
 30
0.0000
 42
1.0000
  0
VERTEX
  8
0
 10
0.4750
 20
-0.2379
 30
0.0000
  0
SEQEND
  8
0
  0
POLYLINE
  8
0
 66
1
 10
0.0000
 20
0.0000
 30
0.0000
 40
0.0500
 41
0.0500
 70
0
  0
VERTEX
  8
0
 10
0.4750
 20
0.2379
 30
0.0000
 42
1.0000
  0
VERTEX
  8
0
 10
0.4250
 20
0.2379
 30
0.0000
  0
SEQEND
  8
0
  0
POLYLINE
  8
0
 66
1
 10
0.0000
 20
0.0000
 30
0.0000
 40
0.1000
 41
0.1000
 70
0
  0
VERTEX
  8
0
 10
0.2379
 20
-0.4500
 30
0.0000
  0
VERTEX
  8
0
 10
-0.2379
 20
-0.4500
 30
0.0000
  0
SEQEND
  8
0
  0
POLYLINE
  8
0
 66
1
 10
0.0000
 20
0.0000
 30
0.0000
 40
0.0500
 41
0.0500
 70
0
  0
VERTEX
  8
0
 10
-0.2379
 20
-0.4250
 30
0.0000
 42
1.0000
  0
VERTEX
  8
0
 10
-0.2379
 20
-0.4750
 30
0.0000
  0
SEQEND
  8
0
  0
POLYLINE
  8
0
 66
1
 10
0.0000
 20
0.0000
 30
0.0000
 40
0.0500
 41
0.0500
 70
0
  0
VERTEX
  8
0
 10
0.2379
 20
-0.4750
 30
0.0000
 42
1.0000
  0
VERTEX
  8
0
 10
0.2379
 20
-0.4250
 30
0.0000
  0
SEQEND
  8
0
  0
POLYLINE
  8
0
 66
1
 10
0.0000
 20
0.0000
 30
0.0000
 40
0.1000
 41
0.1000
 70
0
  0
VERTEX
  8
0
 10
-0.4500
 20
-0.2379
 30
0.0000
  0
VERTEX
  8
0
 10
-0.4500
 20
0.2379
 30
0.0000
  0
SEQEND
  8
0
  0
POLYLINE
  8
0
 66
1
 10
0.0000
 20
0.0000
 30
0.0000
 40
0.0500
 41
0.0500
 70
0
  0
VERTEX
  8
0
 10
-0.4250
 20
0.2379
 30
0.0000
 42
1.0000
  0
VERTEX
  8
0
 10
-0.4750
 20
0.2379
 30
0.0000
  0
SEQEND
  8
0
  0
POLYLINE
  8
0
 66
1
 10
0.0000
 20
0.0000
 30
0.0000
 40
0.0500
 41
0.0500
 70
0
  0
VERTEX
  8
0
 10
-0.4750
 20
-0.2379
 30
0.0000
 42
1.0000
  0
VERTEX
  8
0
 10
-0.4250
 20
-0.2379
 30
0.0000
  0
SEQEND
  8
0
  0
ENDBLK
  8
0
  0
BLOCK
  8
0
  2
OCTAGONV
 70
64
 10
0.0000
 20
0.0000
 30
0.0000
  3
OCTAGONV
  0
POLYLINE
  8
0
 66
1
 10
0.0000
 20
0.0000
 30
0.0000
 40
0.5000
 41
0.5000
 70
0
  0
VERTEX
  8
0
 10
-0.2500
 20
-0.1036
 30
0.0000
  0
VERTEX
  8
0
 10
-0.2500
 20
0.1036
 30
0.0000
  0
VERTEX
  8
0
 10
-0.1036
 20
0.2500
 30
0.0000
  0
VERTEX
  8
0
 10
0.1036
 20
0.2500
 30
0.0000
  0
VERTEX
  8
0
 10
0.2500
 20
0.1036
 30
0.0000
  0
VERTEX
  8
0
 10
0.2500
 20
-0.1036
 30
0.0000
  0
VERTEX
  8
0
 10
0.1036
 20
-0.2500
 30
0.0000
  0
VERTEX
  8
0
 10
-0.1036
 20
-0.2500
 30
0.0000
  0
VERTEX
  8
0
 10
-0.2500
 20
-0.1036
 30
0.0000
  0
VERTEX
  8
0
 10
-0.2500
 20
0.1036
 30
0.0000
  0
SEQEND
  8
0
  0
ENDBLK
  8
0
  0
BLOCK
  8
0
  2
SQUAREV
 70
64
 10
0.0000
 20
0.0000
 30
0.0000
  3
SQUAREV
  0
SOLID
  8
0
 10
-0.5000
 20
-0.5000
 30
0.0000
 11
0.5000
 21
-0.5000
 31
0.0000
 12
-0.5000
 22
0.5000
 32
0.0000
 13
0.5000
 23
0.5000
 33
0.0000
  0
ENDBLK
  8
0
  0
BLOCK
  8
0
  2
ROUNDV
 70
64
 10
0.0000
 20
0.0000
 30
0.0000
  3
ROUNDV
  0
POLYLINE
  8
0
 66
1
 10
0.0000
 20
0.0000
 30
0.0000
 40
0.5000
 41
0.5000
 70
0
  0
VERTEX
  8
0
 10
0.0000
 20
-0.2500
 30
0.0000
 42
1.0000
  0
VERTEX
  8
0
 10
0.0000
 20
0.2500
 30
0.0000
 42
1.0000
  0
VERTEX
  8
0
 10
0.0000
 20
-0.2500
 30
0.0000
  0
SEQEND
  8
0
  0
ENDBLK
  8
0
  0
BLOCK
  8
0
  2
ANNULUSV
 70
64
 10
0.0000
 20
0.0000
 30
0.0000
  3
ANNULUSV
  0
POLYLINE
  8
0
 66
1
 10
0.0000
 20
0.0000
 30
0.0000
 40
0.5000
 41
0.5000
 70
0
  0
VERTEX
  8
0
 10
0.0000
 20
-0.2500
 30
0.0000
 42
1.0000
  0
VERTEX
  8
0
 10
0.0000
 20
0.2500
 30
0.0000
 42
1.0000
  0
VERTEX
  8
0
 10
0.0000
 20
-0.2500
 30
0.0000
  0
SEQEND
  8
0
  0
ENDBLK
  8
0
  0
BLOCK
  8
0
  2
THERMALV
 70
64
 10
0.0000
 20
0.0000
 30
0.0000
  3
THERMALV
  0
POLYLINE
  8
0
 66
1
 10
0.0000
 20
0.0000
 30
0.0000
 40
0.1000
 41
0.1000
 70
0
  0
VERTEX
  8
0
 10
-0.2379
 20
0.4500
 30
0.0000
  0
VERTEX
  8
0
 10
0.2379
 20
0.4500
 30
0.0000
  0
SEQEND
  8
0
  0
POLYLINE
  8
0
 66
1
 10
0.0000
 20
0.0000
 30
0.0000
 40
0.0500
 41
0.0500
 70
0
  0
VERTEX
  8
0
 10
0.2379
 20
0.4250
 30
0.0000
 42
1.0000
  0
VERTEX
  8
0
 10
0.2379
 20
0.4750
 30
0.0000
  0
SEQEND
  8
0
  0
POLYLINE
  8
0
 66
1
 10
0.0000
 20
0.0000
 30
0.0000
 40
0.0500
 41
0.0500
 70
0
  0
VERTEX
  8
0
 10
-0.2379
 20
0.4750
 30
0.0000
 42
1.0000
  0
VERTEX
  8
0
 10
-0.2379
 20
0.4250
 30
0.0000
  0
SEQEND
  8
0
  0
POLYLINE
  8
0
 66
1
 10
0.0000
 20
0.0000
 30
0.0000
 40
0.1000
 41
0.1000
 70
0
  0
VERTEX
  8
0
 10
0.4500
 20
0.2379
 30
0.0000
  0
VERTEX
  8
0
 10
0.4500
 20
-0.2379
 30
0.0000
  0
SEQEND
  8
0
  0
POLYLINE
  8
0
 66
1
 10
0.0000
 20
0.0000
 30
0.0000
 40
0.0500
 41
0.0500
 70
0
  0
VERTEX
  8
0
 10
0.4250
 20
-0.2379
 30
0.0000
 42
1.0000
  0
VERTEX
  8
0
 10
0.4750
 20
-0.2379
 30
0.0000
  0
SEQEND
  8
0
  0
POLYLINE
  8
0
 66
1
 10
0.0000
 20
0.0000
 30
0.0000
 40
0.0500
 41
0.0500
 70
0
  0
VERTEX
  8
0
 10
0.4750
 20
0.2379
 30
0.0000
 42
1.0000
  0
VERTEX
  8
0
 10
0.4250
 20
0.2379
 30
0.0000
  0
SEQEND
  8
0
  0
POLYLINE
  8
0
 66
1
 10
0.0000
 20
0.0000
 30
0.0000
 40
0.1000
 41
0.1000
 70
0
  0
VERTEX
  8
0
 10
0.2379
 20
-0.4500
 30
0.0000
  0
VERTEX
  8
0
 10
-0.2379
 20
-0.4500
 30
0.0000
  0
SEQEND
  8
0
  0
POLYLINE
  8
0
 66
1
 10
0.0000
 20
0.0000
 30
0.0000
 40
0.0500
 41
0.0500
 70
0
  0
VERTEX
  8
0
 10
-0.2379
 20
-0.4250
 30
0.0000
 42
1.0000
  0
VERTEX
  8
0
 10
-0.2379
 20
-0.4750
 30
0.0000
  0
SEQEND
  8
0
  0
POLYLINE
  8
0
 66
1
 10
0.0000
 20
0.0000
 30
0.0000
 40
0.0500
 41
0.0500
 70
0
  0
VERTEX
  8
0
 10
0.2379
 20
-0.4750
 30
0.0000
 42
1.0000
  0
VERTEX
  8
0
 10
0.2379
 20
-0.4250
 30
0.0000
  0
SEQEND
  8
0
  0
POLYLINE
  8
0
 66
1
 10
0.0000
 20
0.0000
 30
0.0000
 40
0.1000
 41
0.1000
 70
0
  0
VERTEX
  8
0
 10
-0.4500
 20
-0.2379
 30
0.0000
  0
VERTEX
  8
0
 10
-0.4500
 20
0.2379
 30
0.0000
  0
SEQEND
  8
0
  0
POLYLINE
  8
0
 66
1
 10
0.0000
 20
0.0000
 30
0.0000
 40
0.0500
 41
0.0500
 70
0
  0
VERTEX
  8
0
 10
-0.4250
 20
0.2379
 30
0.0000
 42
1.0000
  0
VERTEX
  8
0
 10
-0.4750
 20
0.2379
 30
0.0000
  0
SEQEND
  8
0
  0
POLYLINE
  8
0
 66
1
 10
0.0000
 20
0.0000
 30
0.0000
 40
0.0500
 41
0.0500
 70
0
  0
VERTEX
  8
0
 10
-0.4750
 20
-0.2379
 30
0.0000
 42
1.0000
  0
VERTEX
  8
0
 10
-0.4250
 20
-0.2379
 30
0.0000
  0
SEQEND
  8
0
  0
ENDBLK
  8
0
  0
BLOCK
  8
0
  2
LONGP100
 70
64
 10
0.0000
 20
0.0000
 30
0.0000
  3
LONGP100
  0
POLYLINE
  8
0
 66
1
 10
0.0000
 20
0.0000
 30
0.0000
 40
1.0000
 41
1.0000
 70
0
  0
VERTEX
  8
0
 10
-0.5000
 20
0.0000
 30
0.0000
  0
VERTEX
  8
0
 10
0.5000
 20
0.0000
 30
0.0000
  0
SEQEND
  8
0
  0
POLYLINE
  8
0
 66
1
 10
0.0000
 20
0.0000
 30
0.0000
 40
0.5000
 41
0.5000
 70
0
  0
VERTEX
  8
0
 10
0.5000
 20
-0.2500
 30
0.0000
 42
1.0000
  0
VERTEX
  8
0
 10
0.5000
 20
0.2500
 30
0.0000
  0
SEQEND
  8
0
  0
POLYLINE
  8
0
 66
1
 10
0.0000
 20
0.0000
 30
0.0000
 40
0.5000
 41
0.5000
 70
0
  0
VERTEX
  8
0
 10
-0.5000
 20
0.2500
 30
0.0000
 42
1.0000
  0
VERTEX
  8
0
 10
-0.5000
 20
-0.2500
 30
0.0000
  0
SEQEND
  8
0
  0
ENDBLK
  8
0
  0
ENDSEC
  0
SECTION
  2
ENTITIES
  0
POLYLINE
  8
50
 66
1
 10
0.0000
 20
0.0000
 30
0.0000
 40
0.0010
 41
0.0010
 70
0
  0
VERTEX
  8
50
 10
0.0000
 20
0.0000
 30
0.0000
  0
VERTEX
  8
50
 10
0.0000
 20
18.6000
 30
0.0000
  0
SEQEND
  8
0
  0
POLYLINE
  8
50
 66
1
 10
0.0000
 20
0.0000
 30
0.0000
 40
0.0005
 41
0.0005
 70
0
  0
VERTEX
  8
50
 10
0.0003
 20
18.6000
 30
0.0000
 42
1.0000
  0
VERTEX
  8
50
 10
-0.0003
 20
18.6000
 30
0.0000
  0
SEQEND
  8
0
  0
POLYLINE
  8
50
 66
1
 10
0.0000
 20
0.0000
 30
0.0000
 40
0.0005
 41
0.0005
 70
0
  0
VERTEX
  8
50
 10
-0.0003
 20
0.0000
 30
0.0000
 42
1.0000
  0
VERTEX
  8
50
 10
0.0003
 20
0.0000
 30
0.0000
  0
SEQEND
  8
0
  0
POLYLINE
  8
50
 66
1
 10
0.0000
 20
0.0000
 30
0.0000
 40
0.0010
 41
0.0010
 70
0
  0
VERTEX
  8
50
 10
0.0000
 20
18.6000
 30
0.0000
  0
VERTEX
  8
50
 10
0.0000
 20
36.0000
 30
0.0000
  0
SEQEND
  8
0
  0
POLYLINE
  8
50
 66
1
 10
0.0000
 20
0.0000
 30
0.0000
 40
0.0005
 41
0.0005
 70
0
  0
VERTEX
  8
50
 10
0.0003
 20
36.0000
 30
0.0000
 42
1.0000
  0
VERTEX
  8
50
 10
-0.0003
 20
36.0000
 30
0.0000
  0
SEQEND
  8
0
  0
POLYLINE
  8
50
 66
1
 10
0.0000
 20
0.0000
 30
0.0000
 40
0.0005
 41
0.0005
 70
0
  0
VERTEX
  8
50
 10
-0.0003
 20
18.6000
 30
0.0000
 42
1.0000
  0
VERTEX
  8
50
 10
0.0003
 20
18.6000
 30
0.0000
  0
SEQEND
  8
0
  0
POLYLINE
  8
50
 66
1
 10
0.0000
 20
0.0000
 30
0.0000
 40
0.0010
 41
0.0010
 70
0
  0
VERTEX
  8
50
 10
0.0000
 20
36.0000
 30
0.0000
  0
VERTEX
  8
50
 10
0.0000
 20
47.0000
 30
0.0000
  0
SEQEND
  8
0
  0
POLYLINE
  8
50
 66
1
 10
0.0000
 20
0.0000
 30
0.0000
 40
0.0005
 41
0.0005
 70
0
  0
VERTEX
  8
50
 10
0.0003
 20
47.0000
 30
0.0000
 42
1.0000
  0
VERTEX
  8
50
 10
-0.0003
 20
47.0000
 30
0.0000
  0
SEQEND
  8
0
  0
POLYLINE
  8
50
 66
1
 10
0.0000
 20
0.0000
 30
0.0000
 40
0.0005
 41
0.0005
 70
0
  0
VERTEX
  8
50
 10
-0.0003
 20
36.0000
 30
0.0000
 42
1.0000
  0
VERTEX
  8
50
 10
0.0003
 20
36.0000
 30
0.0000
  0
SEQEND
  8
0
  0
POLYLINE
  8
50
 66
1
 10
0.0000
 20
0.0000
 30
0.0000
 40
0.0010
 41
0.0010
 70
0
  0
VERTEX
  8
50
 10
0.0000
 20
47.0000
 30
0.0000
  0
VERTEX
  8
50
 10
0.0000
 20
70.0000
 30
0.0000
  0
SEQEND
  8
0
  0
POLYLINE
  8
50
 66
1
 10
0.0000
 20
0.0000
 30
0.0000
 40
0.0005
 41
0.0005
 70
0
  0
VERTEX
  8
50
 10
0.0003
 20
70.0000
 30
0.0000
 42
1.0000
  0
VERTEX
  8
50
 10
-0.0003
 20
70.0000
 30
0.0000
  0
SEQEND
  8
0
  0
POLYLINE
  8
50
 66
1
 10
0.0000
 20
0.0000
 30
0.0000
 40
0.0005
 41
0.0005
 70
0
  0
VERTEX
  8
50
 10
-0.0003
 20
47.0000
 30
0.0000
 42
1.0000
  0
VERTEX
  8
50
 10
0.0003
 20
47.0000
 30
0.0000
  0
SEQEND
  8
0
  0
POLYLINE
  8
50
 66
1
 10
0.0000
 20
0.0000
 30
0.0000
 40
0.0010
 41
0.0010
 70
0
  0
VERTEX
  8
50
 10
0.0000
 20
70.0000
 30
0.0000
  0
VERTEX
  8
50
 10
48.0000
 20
70.0000
 30
0.0000
  0
SEQEND
  8
0
  0
POLYLINE
  8
50
 66
1
 10
0.0000
 20
0.0000
 30
0.0000
 40
0.0005
 41
0.0005
 70
0
  0
VERTEX
  8
50
 10
48.0000
 20
69.9998
 30
0.0000
 42
1.0000
  0
VERTEX
  8
50
 10
48.0000
 20
70.0002
 30
0.0000
  0
SEQEND
  8
0
  0
POLYLINE
  8
50
 66
1
 10
0.0000
 20
0.0000
 30
0.0000
 40
0.0005
 41
0.0005
 70
0
  0
VERTEX
  8
50
 10
0.0000
 20
70.0002
 30
0.0000
 42
1.0000
  0
VERTEX
  8
50
 10
0.0000
 20
69.9998
 30
0.0000
  0
SEQEND
  8
0
  0
POLYLINE
  8
50
 66
1
 10
0.0000
 20
0.0000
 30
0.0000
 40
0.0010
 41
0.0010
 70
0
  0
VERTEX
  8
50
 10
48.0000
 20
70.0000
 30
0.0000
  0
VERTEX
  8
50
 10
150.0000
 20
70.0000
 30
0.0000
  0
SEQEND
  8
0
  0
POLYLINE
  8
50
 66
1
 10
0.0000
 20
0.0000
 30
0.0000
 40
0.0005
 41
0.0005
 70
0
  0
VERTEX
  8
50
 10
150.0000
 20
69.9998
 30
0.0000
 42
1.0000
  0
VERTEX
  8
50
 10
150.0000
 20
70.0002
 30
0.0000
  0
SEQEND
  8
0
  0
POLYLINE
  8
50
 66
1
 10
0.0000
 20
0.0000
 30
0.0000
 40
0.0005
 41
0.0005
 70
0
  0
VERTEX
  8
50
 10
48.0000
 20
70.0002
 30
0.0000
 42
1.0000
  0
VERTEX
  8
50
 10
48.0000
 20
69.9998
 30
0.0000
  0
SEQEND
  8
0
  0
POLYLINE
  8
50
 66
1
 10
0.0000
 20
0.0000
 30
0.0000
 40
0.0010
 41
0.0010
 70
0
  0
VERTEX
  8
50
 10
150.0000
 20
70.0000
 30
0.0000
  0
VERTEX
  8
50
 10
150.0000
 20
0.0000
 30
0.0000
  0
SEQEND
  8
0
  0
POLYLINE
  8
50
 66
1
 10
0.0000
 20
0.0000
 30
0.0000
 40
0.0005
 41
0.0005
 70
0
  0
VERTEX
  8
50
 10
149.9998
 20
0.0000
 30
0.0000
 42
1.0000
  0
VERTEX
  8
50
 10
150.0002
 20
0.0000
 30
0.0000
  0
SEQEND
  8
0
  0
POLYLINE
  8
50
 66
1
 10
0.0000
 20
0.0000
 30
0.0000
 40
0.0005
 41
0.0005
 70
0
  0
VERTEX
  8
50
 10
150.0002
 20
70.0000
 30
0.0000
 42
1.0000
  0
VERTEX
  8
50
 10
149.9998
 20
70.0000
 30
0.0000
  0
SEQEND
  8
0
  0
POLYLINE
  8
50
 66
1
 10
0.0000
 20
0.0000
 30
0.0000
 40
0.0010
 41
0.0010
 70
0
  0
VERTEX
  8
50
 10
150.0000
 20
0.0000
 30
0.0000
  0
VERTEX
  8
50
 10
48.0000
 20
0.0000
 30
0.0000
  0
SEQEND
  8
0
  0
POLYLINE
  8
50
 66
1
 10
0.0000
 20
0.0000
 30
0.0000
 40
0.0005
 41
0.0005
 70
0
  0
VERTEX
  8
50
 10
48.0000
 20
0.0003
 30
0.0000
 42
1.0000
  0
VERTEX
  8
50
 10
48.0000
 20
-0.0003
 30
0.0000
  0
SEQEND
  8
0
  0
POLYLINE
  8
50
 66
1
 10
0.0000
 20
0.0000
 30
0.0000
 40
0.0005
 41
0.0005
 70
0
  0
VERTEX
  8
50
 10
150.0000
 20
-0.0003
 30
0.0000
 42
1.0000
  0
VERTEX
  8
50
 10
150.0000
 20
0.0003
 30
0.0000
  0
SEQEND
  8
0
  0
POLYLINE
  8
50
 66
1
 10
0.0000
 20
0.0000
 30
0.0000
 40
0.0010
 41
0.0010
 70
0
  0
VERTEX
  8
50
 10
48.0000
 20
0.0000
 30
0.0000
  0
VERTEX
  8
50
 10
46.0000
 20
0.0000
 30
0.0000
  0
SEQEND
  8
0
  0
POLYLINE
  8
50
 66
1
 10
0.0000
 20
0.0000
 30
0.0000
 40
0.0005
 41
0.0005
 70
0
  0
VERTEX
  8
50
 10
46.0000
 20
0.0003
 30
0.0000
 42
1.0000
  0
VERTEX
  8
50
 10
46.0000
 20
-0.0003
 30
0.0000
  0
SEQEND
  8
0
  0
POLYLINE
  8
50
 66
1
 10
0.0000
 20
0.0000
 30
0.0000
 40
0.0005
 41
0.0005
 70
0
  0
VERTEX
  8
50
 10
48.0000
 20
-0.0003
 30
0.0000
 42
1.0000
  0
VERTEX
  8
50
 10
48.0000
 20
0.0003
 30
0.0000
  0
SEQEND
  8
0
  0
POLYLINE
  8
50
 66
1
 10
0.0000
 20
0.0000
 30
0.0000
 40
0.0010
 41
0.0010
 70
0
  0
VERTEX
  8
50
 10
46.0000
 20
0.0000
 30
0.0000
  0
VERTEX
  8
50
 10
0.0000
 20
0.0000
 30
0.0000
  0
SEQEND
  8
0
  0
POLYLINE
  8
50
 66
1
 10
0.0000
 20
0.0000
 30
0.0000
 40
0.0005
 41
0.0005
 70
0
  0
VERTEX
  8
50
 10
0.0000
 20
0.0003
 30
0.0000
 42
1.0000
  0
VERTEX
  8
50
 10
0.0000
 20
-0.0003
 30
0.0000
  0
SEQEND
  8
0
  0
POLYLINE
  8
50
 66
1
 10
0.0000
 20
0.0000
 30
0.0000
 40
0.0005
 41
0.0005
 70
0
  0
VERTEX
  8
50
 10
46.0000
 20
-0.0003
 30
0.0000
 42
1.0000
  0
VERTEX
  8
50
 10
46.0000
 20
0.0003
 30
0.0000
  0
SEQEND
  8
0
  0
POLYLINE
  8
50
 66
1
 10
0.0000
 20
0.0000
 30
0.0000
 40
0.0010
 41
0.0010
 70
0
  0
VERTEX
  8
50
 10
48.0000
 20
0.0000
 30
0.0000
  0
VERTEX
  8
50
 10
48.0000
 20
70.0000
 30
0.0000
  0
SEQEND
  8
0
  0
POLYLINE
  8
50
 66
1
 10
0.0000
 20
0.0000
 30
0.0000
 40
0.0005
 41
0.0005
 70
0
  0
VERTEX
  8
50
 10
48.0003
 20
70.0000
 30
0.0000
 42
1.0000
  0
VERTEX
  8
50
 10
47.9997
 20
70.0000
 30
0.0000
  0
SEQEND
  8
0
  0
POLYLINE
  8
50
 66
1
 10
0.0000
 20
0.0000
 30
0.0000
 40
0.0005
 41
0.0005
 70
0
  0
VERTEX
  8
50
 10
47.9997
 20
0.0000
 30
0.0000
 42
1.0000
  0
VERTEX
  8
50
 10
48.0003
 20
0.0000
 30
0.0000
  0
SEQEND
  8
0
  0
POLYLINE
  8
50
 66
1
 10
0.0000
 20
0.0000
 30
0.0000
 40
0.0010
 41
0.0010
 70
0
  0
VERTEX
  8
50
 10
53.0000
 20
52.0000
 30
0.0000
  0
VERTEX
  8
50
 10
53.0000
 20
19.0000
 30
0.0000
  0
SEQEND
  8
0
  0
POLYLINE
  8
50
 66
1
 10
0.0000
 20
0.0000
 30
0.0000
 40
0.0005
 41
0.0005
 70
0
  0
VERTEX
  8
50
 10
52.9997
 20
19.0000
 30
0.0000
 42
1.0000
  0
VERTEX
  8
50
 10
53.0003
 20
19.0000
 30
0.0000
  0
SEQEND
  8
0
  0
POLYLINE
  8
50
 66
1
 10
0.0000
 20
0.0000
 30
0.0000
 40
0.0005
 41
0.0005
 70
0
  0
VERTEX
  8
50
 10
53.0003
 20
52.0000
 30
0.0000
 42
1.0000
  0
VERTEX
  8
50
 10
52.9997
 20
52.0000
 30
0.0000
  0
SEQEND
  8
0
  0
POLYLINE
  8
50
 66
1
 10
0.0000
 20
0.0000
 30
0.0000
 40
0.0010
 41
0.0010
 70
0
  0
VERTEX
  8
50
 10
53.0000
 20
19.0000
 30
0.0000
  0
VERTEX
  8
50
 10
145.0000
 20
19.0000
 30
0.0000
  0
SEQEND
  8
0
  0
POLYLINE
  8
50
 66
1
 10
0.0000
 20
0.0000
 30
0.0000
 40
0.0005
 41
0.0005
 70
0
  0
VERTEX
  8
50
 10
145.0000
 20
18.9997
 30
0.0000
 42
1.0000
  0
VERTEX
  8
50
 10
145.0000
 20
19.0003
 30
0.0000
  0
SEQEND
  8
0
  0
POLYLINE
  8
50
 66
1
 10
0.0000
 20
0.0000
 30
0.0000
 40
0.0005
 41
0.0005
 70
0
  0
VERTEX
  8
50
 10
53.0000
 20
19.0003
 30
0.0000
 42
1.0000
  0
VERTEX
  8
50
 10
53.0000
 20
18.9997
 30
0.0000
  0
SEQEND
  8
0
  0
POLYLINE
  8
50
 66
1
 10
0.0000
 20
0.0000
 30
0.0000
 40
0.0010
 41
0.0010
 70
0
  0
VERTEX
  8
50
 10
145.0000
 20
19.0000
 30
0.0000
  0
VERTEX
  8
50
 10
145.0000
 20
52.0000
 30
0.0000
  0
SEQEND
  8
0
  0
POLYLINE
  8
50
 66
1
 10
0.0000
 20
0.0000
 30
0.0000
 40
0.0005
 41
0.0005
 70
0
  0
VERTEX
  8
50
 10
145.0002
 20
52.0000
 30
0.0000
 42
1.0000
  0
VERTEX
  8
50
 10
144.9998
 20
52.0000
 30
0.0000
  0
SEQEND
  8
0
  0
POLYLINE
  8
50
 66
1
 10
0.0000
 20
0.0000
 30
0.0000
 40
0.0005
 41
0.0005
 70
0
  0
VERTEX
  8
50
 10
144.9998
 20
19.0000
 30
0.0000
 42
1.0000
  0
VERTEX
  8
50
 10
145.0002
 20
19.0000
 30
0.0000
  0
SEQEND
  8
0
  0
POLYLINE
  8
50
 66
1
 10
0.0000
 20
0.0000
 30
0.0000
 40
0.0010
 41
0.0010
 70
0
  0
VERTEX
  8
50
 10
145.0000
 20
52.0000
 30
0.0000
  0
VERTEX
  8
50
 10
53.0000
 20
52.0000
 30
0.0000
  0
SEQEND
  8
0
  0
POLYLINE
  8
50
 66
1
 10
0.0000
 20
0.0000
 30
0.0000
 40
0.0005
 41
0.0005
 70
0
  0
VERTEX
  8
50
 10
53.0000
 20
52.0003
 30
0.0000
 42
1.0000
  0
VERTEX
  8
50
 10
53.0000
 20
51.9997
 30
0.0000
  0
SEQEND
  8
0
  0
POLYLINE
  8
50
 66
1
 10
0.0000
 20
0.0000
 30
0.0000
 40
0.0005
 41
0.0005
 70
0
  0
VERTEX
  8
50
 10
145.0000
 20
51.9997
 30
0.0000
 42
1.0000
  0
VERTEX
  8
50
 10
145.0000
 20
52.0003
 30
0.0000
  0
SEQEND
  8
0
  0
POLYLINE
  8
50
 66
1
 10
0.0000
 20
0.0000
 30
0.0000
 40
0.0010
 41
0.0010
 70
0
  0
VERTEX
  8
50
 10
0.0000
 20
47.0000
 30
0.0000
  0
VERTEX
  8
50
 10
9.0000
 20
47.0000
 30
0.0000
  0
SEQEND
  8
0
  0
POLYLINE
  8
50
 66
1
 10
0.0000
 20
0.0000
 30
0.0000
 40
0.0005
 41
0.0005
 70
0
  0
VERTEX
  8
50
 10
9.0000
 20
46.9997
 30
0.0000
 42
1.0000
  0
VERTEX
  8
50
 10
9.0000
 20
47.0003
 30
0.0000
  0
SEQEND
  8
0
  0
POLYLINE
  8
50
 66
1
 10
0.0000
 20
0.0000
 30
0.0000
 40
0.0005
 41
0.0005
 70
0
  0
VERTEX
  8
50
 10
0.0000
 20
47.0003
 30
0.0000
 42
1.0000
  0
VERTEX
  8
50
 10
0.0000
 20
46.9997
 30
0.0000
  0
SEQEND
  8
0
  0
POLYLINE
  8
50
 66
1
 10
0.0000
 20
0.0000
 30
0.0000
 40
0.0010
 41
0.0010
 70
0
  0
VERTEX
  8
50
 10
9.0000
 20
47.0000
 30
0.0000
  0
VERTEX
  8
50
 10
9.0000
 20
36.0000
 30
0.0000
  0
SEQEND
  8
0
  0
POLYLINE
  8
50
 66
1
 10
0.0000
 20
0.0000
 30
0.0000
 40
0.0005
 41
0.0005
 70
0
  0
VERTEX
  8
50
 10
8.9998
 20
36.0000
 30
0.0000
 42
1.0000
  0
VERTEX
  8
50
 10
9.0002
 20
36.0000
 30
0.0000
  0
SEQEND
  8
0
  0
POLYLINE
  8
50
 66
1
 10
0.0000
 20
0.0000
 30
0.0000
 40
0.0005
 41
0.0005
 70
0
  0
VERTEX
  8
50
 10
9.0002
 20
47.0000
 30
0.0000
 42
1.0000
  0
VERTEX
  8
50
 10
8.9998
 20
47.0000
 30
0.0000
  0
SEQEND
  8
0
  0
POLYLINE
  8
50
 66
1
 10
0.0000
 20
0.0000
 30
0.0000
 40
0.0010
 41
0.0010
 70
0
  0
VERTEX
  8
50
 10
9.0000
 20
36.0000
 30
0.0000
  0
VERTEX
  8
50
 10
0.0000
 20
36.0000
 30
0.0000
  0
SEQEND
  8
0
  0
POLYLINE
  8
50
 66
1
 10
0.0000
 20
0.0000
 30
0.0000
 40
0.0005
 41
0.0005
 70
0
  0
VERTEX
  8
50
 10
0.0000
 20
36.0003
 30
0.0000
 42
1.0000
  0
VERTEX
  8
50
 10
0.0000
 20
35.9997
 30
0.0000
  0
SEQEND
  8
0
  0
POLYLINE
  8
50
 66
1
 10
0.0000
 20
0.0000
 30
0.0000
 40
0.0005
 41
0.0005
 70
0
  0
VERTEX
  8
50
 10
9.0000
 20
35.9997
 30
0.0000
 42
1.0000
  0
VERTEX
  8
50
 10
9.0000
 20
36.0003
 30
0.0000
  0
SEQEND
  8
0
  0
POLYLINE
  8
50
 66
1
 10
0.0000
 20
0.0000
 30
0.0000
 40
0.0010
 41
0.0010
 70
0
  0
VERTEX
  8
50
 10
46.0000
 20
18.6000
 30
0.0000
  0
VERTEX
  8
50
 10
0.0000
 20
18.6000
 30
0.0000
  0
SEQEND
  8
0
  0
POLYLINE
  8
50
 66
1
 10
0.0000
 20
0.0000
 30
0.0000
 40
0.0005
 41
0.0005
 70
0
  0
VERTEX
  8
50
 10
0.0000
 20
18.6003
 30
0.0000
 42
1.0000
  0
VERTEX
  8
50
 10
0.0000
 20
18.5998
 30
0.0000
  0
SEQEND
  8
0
  0
POLYLINE
  8
50
 66
1
 10
0.0000
 20
0.0000
 30
0.0000
 40
0.0005
 41
0.0005
 70
0
  0
VERTEX
  8
50
 10
46.0000
 20
18.5998
 30
0.0000
 42
1.0000
  0
VERTEX
  8
50
 10
46.0000
 20
18.6003
 30
0.0000
  0
SEQEND
  8
0
  0
POLYLINE
  8
50
 66
1
 10
0.0000
 20
0.0000
 30
0.0000
 40
0.0010
 41
0.0010
 70
0
  0
VERTEX
  8
50
 10
46.0000
 20
18.6000
 30
0.0000
  0
VERTEX
  8
50
 10
46.0000
 20
0.0000
 30
0.0000
  0
SEQEND
  8
0
  0
POLYLINE
  8
50
 66
1
 10
0.0000
 20
0.0000
 30
0.0000
 40
0.0005
 41
0.0005
 70
0
  0
VERTEX
  8
50
 10
45.9997
 20
0.0000
 30
0.0000
 42
1.0000
  0
VERTEX
  8
50
 10
46.0003
 20
0.0000
 30
0.0000
  0
SEQEND
  8
0
  0
POLYLINE
  8
50
 66
1
 10
0.0000
 20
0.0000
 30
0.0000
 40
0.0005
 41
0.0005
 70
0
  0
VERTEX
  8
50
 10
46.0003
 20
18.6000
 30
0.0000
 42
1.0000
  0
VERTEX
  8
50
 10
45.9997
 20
18.6000
 30
0.0000
  0
SEQEND
  8
0
  0
POLYLINE
  8
50
 66
1
 10
0.0000
 20
0.0000
 30
0.0000
 40
0.1524
 41
0.1524
 70
0
  0
VERTEX
  8
50
 10
49.0762
 20
67.0762
 30
0.0000
  0
VERTEX
  8
50
 10
49.6921
 20
68.9238
 30
0.0000
  0
SEQEND
  8
0
  0
POLYLINE
  8
50
 66
1
 10
0.0000
 20
0.0000
 30
0.0000
 40
0.0762
 41
0.0762
 70
0
  0
VERTEX
  8
50
 10
49.7282
 20
68.9118
 30
0.0000
 42
1.0000
  0
VERTEX
  8
50
 10
49.6559
 20
68.9358
 30
0.0000
  0
SEQEND
  8
0
  0
POLYLINE
  8
50
 66
1
 10
0.0000
 20
0.0000
 30
0.0000
 40
0.0762
 41
0.0762
 70
0
  0
VERTEX
  8
50
 10
49.0401
 20
67.0882
 30
0.0000
 42
1.0000
  0
VERTEX
  8
50
 10
49.1123
 20
67.0642
 30
0.0000
  0
SEQEND
  8
0
  0
POLYLINE
  8
50
 66
1
 10
0.0000
 20
0.0000
 30
0.0000
 40
0.1524
 41
0.1524
 70
0
  0
VERTEX
  8
50
 10
49.6921
 20
68.9238
 30
0.0000
  0
VERTEX
  8
50
 10
50.3079
 20
67.0762
 30
0.0000
  0
SEQEND
  8
0
  0
POLYLINE
  8
50
 66
1
 10
0.0000
 20
0.0000
 30
0.0000
 40
0.0762
 41
0.0762
 70
0
  0
VERTEX
  8
50
 10
50.2718
 20
67.0642
 30
0.0000
 42
1.0000
  0
VERTEX
  8
50
 10
50.3441
 20
67.0882
 30
0.0000
  0
SEQEND
  8
0
  0
POLYLINE
  8
50
 66
1
 10
0.0000
 20
0.0000
 30
0.0000
 40
0.0762
 41
0.0762
 70
0
  0
VERTEX
  8
50
 10
49.7282
 20
68.9358
 30
0.0000
 42
1.0000
  0
VERTEX
  8
50
 10
49.6559
 20
68.9118
 30
0.0000
  0
SEQEND
  8
0
  0
POLYLINE
  8
50
 66
1
 10
0.0000
 20
0.0000
 30
0.0000
 40
0.1524
 41
0.1524
 70
0
  0
VERTEX
  8
50
 10
50.1540
 20
67.5381
 30
0.0000
  0
VERTEX
  8
50
 10
49.2302
 20
67.5381
 30
0.0000
  0
SEQEND
  8
0
  0
POLYLINE
  8
50
 66
1
 10
0.0000
 20
0.0000
 30
0.0000
 40
0.0762
 41
0.0762
 70
0
  0
VERTEX
  8
50
 10
49.2302
 20
67.5762
 30
0.0000
 42
1.0000
  0
VERTEX
  8
50
 10
49.2302
 20
67.5000
 30
0.0000
  0
SEQEND
  8
0
  0
POLYLINE
  8
50
 66
1
 10
0.0000
 20
0.0000
 30
0.0000
 40
0.0762
 41
0.0762
 70
0
  0
VERTEX
  8
50
 10
50.1540
 20
67.5000
 30
0.0000
 42
1.0000
  0
VERTEX
  8
50
 10
50.1540
 20
67.5762
 30
0.0000
  0
SEQEND
  8
0
  0
POLYLINE
  8
50
 66
1
 10
0.0000
 20
0.0000
 30
0.0000
 40
0.1524
 41
0.1524
 70
0
  0
VERTEX
  8
50
 10
50.9641
 20
68.9238
 30
0.0000
  0
VERTEX
  8
50
 10
50.9641
 20
67.0762
 30
0.0000
  0
SEQEND
  8
0
  0
POLYLINE
  8
50
 66
1
 10
0.0000
 20
0.0000
 30
0.0000
 40
0.0762
 41
0.0762
 70
0
  0
VERTEX
  8
50
 10
50.9260
 20
67.0762
 30
0.0000
 42
1.0000
  0
VERTEX
  8
50
 10
51.0022
 20
67.0762
 30
0.0000
  0
SEQEND
  8
0
  0
POLYLINE
  8
50
 66
1
 10
0.0000
 20
0.0000
 30
0.0000
 40
0.0762
 41
0.0762
 70
0
  0
VERTEX
  8
50
 10
51.0022
 20
68.9238
 30
0.0000
 42
1.0000
  0
VERTEX
  8
50
 10
50.9260
 20
68.9238
 30
0.0000
  0
SEQEND
  8
0
  0
POLYLINE
  8
50
 66
1
 10
0.0000
 20
0.0000
 30
0.0000
 40
0.1524
 41
0.1524
 70
0
  0
VERTEX
  8
50
 10
50.9641
 20
67.0762
 30
0.0000
  0
VERTEX
  8
50
 10
51.7853
 20
67.0762
 30
0.0000
  0
SEQEND
  8
0
  0
POLYLINE
  8
50
 66
1
 10
0.0000
 20
0.0000
 30
0.0000
 40
0.0762
 41
0.0762
 70
0
  0
VERTEX
  8
50
 10
51.7853
 20
67.0381
 30
0.0000
 42
1.0000
  0
VERTEX
  8
50
 10
51.7853
 20
67.1143
 30
0.0000
  0
SEQEND
  8
0
  0
POLYLINE
  8
50
 66
1
 10
0.0000
 20
0.0000
 30
0.0000
 40
0.0762
 41
0.0762
 70
0
  0
VERTEX
  8
50
 10
50.9641
 20
67.1143
 30
0.0000
 42
1.0000
  0
VERTEX
  8
50
 10
50.9641
 20
67.0381
 30
0.0000
  0
SEQEND
  8
0
  0
POLYLINE
  8
50
 66
1
 10
0.0000
 20
0.0000
 30
0.0000
 40
0.1524
 41
0.1524
 70
0
  0
VERTEX
  8
50
 10
52.4563
 20
68.9238
 30
0.0000
  0
VERTEX
  8
50
 10
52.4563
 20
67.5894
 30
0.0000
  0
SEQEND
  8
0
  0
POLYLINE
  8
50
 66
1
 10
0.0000
 20
0.0000
 30
0.0000
 40
0.0762
 41
0.0762
 70
0
  0
VERTEX
  8
50
 10
52.4182
 20
67.5894
 30
0.0000
 42
1.0000
  0
VERTEX
  8
50
 10
52.4944
 20
67.5894
 30
0.0000
  0
SEQEND
  8
0
  0
POLYLINE
  8
50
 66
1
 10
0.0000
 20
0.0000
 30
0.0000
 40
0.0762
 41
0.0762
 70
0
  0
VERTEX
  8
50
 10
52.4944
 20
68.9238
 30
0.0000
 42
1.0000
  0
VERTEX
  8
50
 10
52.4182
 20
68.9238
 30
0.0000
  0
SEQEND
  8
0
  0
POLYLINE
  8
50
 66
1
 10
0.0000
 20
0.0000
 30
0.0000
 40
0.1524
 41
0.1524
 70
0
  0
VERTEX
  8
50
 10
52.4563
 20
67.5894
 30
0.0000
 42
1.0000
  0
VERTEX
  8
50
 10
53.4828
 20
67.5894
 30
0.0000
  0
SEQEND
  8
0
  0
POLYLINE
  8
50
 66
1
 10
0.0000
 20
0.0000
 30
0.0000
 40
0.0762
 41
0.0762
 70
0
  0
VERTEX
  8
50
 10
52.4944
 20
67.5894
 30
0.0000
 42
1.0000
  0
VERTEX
  8
50
 10
52.4182
 20
67.5894
 30
0.0000
  0
SEQEND
  8
0
  0
POLYLINE
  8
50
 66
1
 10
0.0000
 20
0.0000
 30
0.0000
 40
0.0762
 41
0.0762
 70
0
  0
VERTEX
  8
50
 10
53.5209
 20
67.5894
 30
0.0000
 42
1.0000
  0
VERTEX
  8
50
 10
53.4447
 20
67.5894
 30
0.0000
  0
SEQEND
  8
0
  0
POLYLINE
  8
50
 66
1
 10
0.0000
 20
0.0000
 30
0.0000
 40
0.1524
 41
0.1524
 70
0
  0
VERTEX
  8
50
 10
53.4828
 20
67.5894
 30
0.0000
  0
VERTEX
  8
50
 10
53.4828
 20
68.9238
 30
0.0000
  0
SEQEND
  8
0
  0
POLYLINE
  8
50
 66
1
 10
0.0000
 20
0.0000
 30
0.0000
 40
0.0762
 41
0.0762
 70
0
  0
VERTEX
  8
50
 10
53.5209
 20
68.9238
 30
0.0000
 42
1.0000
  0
VERTEX
  8
50
 10
53.4447
 20
68.9238
 30
0.0000
  0
SEQEND
  8
0
  0
POLYLINE
  8
50
 66
1
 10
0.0000
 20
0.0000
 30
0.0000
 40
0.0762
 41
0.0762
 70
0
  0
VERTEX
  8
50
 10
53.4447
 20
67.5894
 30
0.0000
 42
1.0000
  0
VERTEX
  8
50
 10
53.5209
 20
67.5894
 30
0.0000
  0
SEQEND
  8
0
  0
POLYLINE
  8
50
 66
1
 10
0.0000
 20
0.0000
 30
0.0000
 40
0.1524
 41
0.1524
 70
0
  0
VERTEX
  8
50
 10
54.3087
 20
67.0762
 30
0.0000
  0
VERTEX
  8
50
 10
54.3087
 20
68.9238
 30
0.0000
  0
SEQEND
  8
0
  0
POLYLINE
  8
50
 66
1
 10
0.0000
 20
0.0000
 30
0.0000
 40
0.0762
 41
0.0762
 70
0
  0
VERTEX
  8
50
 10
54.3468
 20
68.9238
 30
0.0000
 42
1.0000
  0
VERTEX
  8
50
 10
54.2706
 20
68.9238
 30
0.0000
  0
SEQEND
  8
0
  0
POLYLINE
  8
50
 66
1
 10
0.0000
 20
0.0000
 30
0.0000
 40
0.0762
 41
0.0762
 70
0
  0
VERTEX
  8
50
 10
54.2706
 20
67.0762
 30
0.0000
 42
1.0000
  0
VERTEX
  8
50
 10
54.3468
 20
67.0762
 30
0.0000
  0
SEQEND
  8
0
  0
POLYLINE
  8
50
 66
1
 10
0.0000
 20
0.0000
 30
0.0000
 40
0.1524
 41
0.1524
 70
0
  0
VERTEX
  8
50
 10
54.3087
 20
68.9238
 30
0.0000
  0
VERTEX
  8
50
 10
54.9246
 20
67.8974
 30
0.0000
  0
SEQEND
  8
0
  0
POLYLINE
  8
50
 66
1
 10
0.0000
 20
0.0000
 30
0.0000
 40
0.0762
 41
0.0762
 70
0
  0
VERTEX
  8
50
 10
54.8919
 20
67.8778
 30
0.0000
 42
1.0000
  0
VERTEX
  8
50
 10
54.9572
 20
67.9170
 30
0.0000
  0
SEQEND
  8
0
  0
POLYLINE
  8
50
 66
1
 10
0.0000
 20
0.0000
 30
0.0000
 40
0.0762
 41
0.0762
 70
0
  0
VERTEX
  8
50
 10
54.3414
 20
68.9434
 30
0.0000
 42
1.0000
  0
VERTEX
  8
50
 10
54.2760
 20
68.9042
 30
0.0000
  0
SEQEND
  8
0
  0
POLYLINE
  8
50
 66
1
 10
0.0000
 20
0.0000
 30
0.0000
 40
0.1524
 41
0.1524
 70
0
  0
VERTEX
  8
50
 10
54.9246
 20
67.8974
 30
0.0000
  0
VERTEX
  8
50
 10
55.5404
 20
68.9238
 30
0.0000
  0
SEQEND
  8
0
  0
POLYLINE
  8
50
 66
1
 10
0.0000
 20
0.0000
 30
0.0000
 40
0.0762
 41
0.0762
 70
0
  0
VERTEX
  8
50
 10
55.5731
 20
68.9042
 30
0.0000
 42
1.0000
  0
VERTEX
  8
50
 10
55.5078
 20
68.9434
 30
0.0000
  0
SEQEND
  8
0
  0
POLYLINE
  8
50
 66
1
 10
0.0000
 20
0.0000
 30
0.0000
 40
0.0762
 41
0.0762
 70
0
  0
VERTEX
  8
50
 10
54.8919
 20
67.9170
 30
0.0000
 42
1.0000
  0
VERTEX
  8
50
 10
54.9572
 20
67.8778
 30
0.0000
  0
SEQEND
  8
0
  0
POLYLINE
  8
50
 66
1
 10
0.0000
 20
0.0000
 30
0.0000
 40
0.1524
 41
0.1524
 70
0
  0
VERTEX
  8
50
 10
55.5404
 20
68.9238
 30
0.0000
  0
VERTEX
  8
50
 10
55.5404
 20
67.0762
 30
0.0000
  0
SEQEND
  8
0
  0
POLYLINE
  8
50
 66
1
 10
0.0000
 20
0.0000
 30
0.0000
 40
0.0762
 41
0.0762
 70
0
  0
VERTEX
  8
50
 10
55.5023
 20
67.0762
 30
0.0000
 42
1.0000
  0
VERTEX
  8
50
 10
55.5785
 20
67.0762
 30
0.0000
  0
SEQEND
  8
0
  0
POLYLINE
  8
50
 66
1
 10
0.0000
 20
0.0000
 30
0.0000
 40
0.0762
 41
0.0762
 70
0
  0
VERTEX
  8
50
 10
55.5785
 20
68.9238
 30
0.0000
 42
1.0000
  0
VERTEX
  8
50
 10
55.5023
 20
68.9238
 30
0.0000
  0
SEQEND
  8
0
  0
POLYLINE
  8
50
 66
1
 10
0.0000
 20
0.0000
 30
0.0000
 40
0.1524
 41
0.1524
 70
0
  0
VERTEX
  8
50
 10
56.4771
 20
68.9238
 30
0.0000
  0
VERTEX
  8
50
 10
56.4771
 20
67.0762
 30
0.0000
  0
SEQEND
  8
0
  0
POLYLINE
  8
50
 66
1
 10
0.0000
 20
0.0000
 30
0.0000
 40
0.0762
 41
0.0762
 70
0
  0
VERTEX
  8
50
 10
56.4390
 20
67.0762
 30
0.0000
 42
1.0000
  0
VERTEX
  8
50
 10
56.5152
 20
67.0762
 30
0.0000
  0
SEQEND
  8
0
  0
POLYLINE
  8
50
 66
1
 10
0.0000
 20
0.0000
 30
0.0000
 40
0.0762
 41
0.0762
 70
0
  0
VERTEX
  8
50
 10
56.5152
 20
68.9238
 30
0.0000
 42
1.0000
  0
VERTEX
  8
50
 10
56.4390
 20
68.9238
 30
0.0000
  0
SEQEND
  8
0
  0
POLYLINE
  8
50
 66
1
 10
0.0000
 20
0.0000
 30
0.0000
 40
0.1524
 41
0.1524
 70
0
  0
VERTEX
  8
50
 10
56.2718
 20
67.0762
 30
0.0000
  0
VERTEX
  8
50
 10
56.6823
 20
67.0762
 30
0.0000
  0
SEQEND
  8
0
  0
POLYLINE
  8
50
 66
1
 10
0.0000
 20
0.0000
 30
0.0000
 40
0.0762
 41
0.0762
 70
0
  0
VERTEX
  8
50
 10
56.6823
 20
67.0381
 30
0.0000
 42
1.0000
  0
VERTEX
  8
50
 10
56.6823
 20
67.1143
 30
0.0000
  0
SEQEND
  8
0
  0
POLYLINE
  8
50
 66
1
 10
0.0000
 20
0.0000
 30
0.0000
 40
0.0762
 41
0.0762
 70
0
  0
VERTEX
  8
50
 10
56.2718
 20
67.1143
 30
0.0000
 42
1.0000
  0
VERTEX
  8
50
 10
56.2718
 20
67.0381
 30
0.0000
  0
SEQEND
  8
0
  0
POLYLINE
  8
50
 66
1
 10
0.0000
 20
0.0000
 30
0.0000
 40
0.1524
 41
0.1524
 70
0
  0
VERTEX
  8
50
 10
56.2718
 20
68.9238
 30
0.0000
  0
VERTEX
  8
50
 10
56.6823
 20
68.9238
 30
0.0000
  0
SEQEND
  8
0
  0
POLYLINE
  8
50
 66
1
 10
0.0000
 20
0.0000
 30
0.0000
 40
0.0762
 41
0.0762
 70
0
  0
VERTEX
  8
50
 10
56.6823
 20
68.8857
 30
0.0000
 42
1.0000
  0
VERTEX
  8
50
 10
56.6823
 20
68.9619
 30
0.0000
  0
SEQEND
  8
0
  0
POLYLINE
  8
50
 66
1
 10
0.0000
 20
0.0000
 30
0.0000
 40
0.0762
 41
0.0762
 70
0
  0
VERTEX
  8
50
 10
56.2718
 20
68.9619
 30
0.0000
 42
1.0000
  0
VERTEX
  8
50
 10
56.2718
 20
68.8857
 30
0.0000
  0
SEQEND
  8
0
  0
POLYLINE
  8
50
 66
1
 10
0.0000
 20
0.0000
 30
0.0000
 40
0.1524
 41
0.1524
 70
0
  0
VERTEX
  8
50
 10
57.4013
 20
67.0762
 30
0.0000
  0
VERTEX
  8
50
 10
57.4013
 20
68.9238
 30
0.0000
  0
SEQEND
  8
0
  0
POLYLINE
  8
50
 66
1
 10
0.0000
 20
0.0000
 30
0.0000
 40
0.0762
 41
0.0762
 70
0
  0
VERTEX
  8
50
 10
57.4394
 20
68.9238
 30
0.0000
 42
1.0000
  0
VERTEX
  8
50
 10
57.3632
 20
68.9238
 30
0.0000
  0
SEQEND
  8
0
  0
POLYLINE
  8
50
 66
1
 10
0.0000
 20
0.0000
 30
0.0000
 40
0.0762
 41
0.0762
 70
0
  0
VERTEX
  8
50
 10
57.3632
 20
67.0762
 30
0.0000
 42
1.0000
  0
VERTEX
  8
50
 10
57.4394
 20
67.0762
 30
0.0000
  0
SEQEND
  8
0
  0
POLYLINE
  8
50
 66
1
 10
0.0000
 20
0.0000
 30
0.0000
 40
0.1524
 41
0.1524
 70
0
  0
VERTEX
  8
50
 10
57.4013
 20
68.9238
 30
0.0000
  0
VERTEX
  8
50
 10
58.4278
 20
67.0762
 30
0.0000
  0
SEQEND
  8
0
  0
POLYLINE
  8
50
 66
1
 10
0.0000
 20
0.0000
 30
0.0000
 40
0.0762
 41
0.0762
 70
0
  0
VERTEX
  8
50
 10
58.3945
 20
67.0577
 30
0.0000
 42
1.0000
  0
VERTEX
  8
50
 10
58.4611
 20
67.0947
 30
0.0000
  0
SEQEND
  8
0
  0
POLYLINE
  8
50
 66
1
 10
0.0000
 20
0.0000
 30
0.0000
 40
0.0762
 41
0.0762
 70
0
  0
VERTEX
  8
50
 10
57.4346
 20
68.9423
 30
0.0000
 42
1.0000
  0
VERTEX
  8
50
 10
57.3680
 20
68.9053
 30
0.0000
  0
SEQEND
  8
0
  0
POLYLINE
  8
50
 66
1
 10
0.0000
 20
0.0000
 30
0.0000
 40
0.1524
 41
0.1524
 70
0
  0
VERTEX
  8
50
 10
58.4278
 20
67.0762
 30
0.0000
  0
VERTEX
  8
50
 10
58.4278
 20
68.9238
 30
0.0000
  0
SEQEND
  8
0
  0
POLYLINE
  8
50
 66
1
 10
0.0000
 20
0.0000
 30
0.0000
 40
0.0762
 41
0.0762
 70
0
  0
VERTEX
  8
50
 10
58.4659
 20
68.9238
 30
0.0000
 42
1.0000
  0
VERTEX
  8
50
 10
58.3897
 20
68.9238
 30
0.0000
  0
SEQEND
  8
0
  0
POLYLINE
  8
50
 66
1
 10
0.0000
 20
0.0000
 30
0.0000
 40
0.0762
 41
0.0762
 70
0
  0
VERTEX
  8
50
 10
58.3897
 20
67.0762
 30
0.0000
 42
1.0000
  0
VERTEX
  8
50
 10
58.4659
 20
67.0762
 30
0.0000
  0
SEQEND
  8
0
  0
POLYLINE
  8
50
 66
1
 10
0.0000
 20
0.0000
 30
0.0000
 40
0.1524
 41
0.1524
 70
0
  0
VERTEX
  8
50
 10
59.2413
 20
68.9238
 30
0.0000
  0
VERTEX
  8
50
 10
59.2413
 20
67.5894
 30
0.0000
  0
SEQEND
  8
0
  0
POLYLINE
  8
50
 66
1
 10
0.0000
 20
0.0000
 30
0.0000
 40
0.0762
 41
0.0762
 70
0
  0
VERTEX
  8
50
 10
59.2032
 20
67.5894
 30
0.0000
 42
1.0000
  0
VERTEX
  8
50
 10
59.2794
 20
67.5894
 30
0.0000
  0
SEQEND
  8
0
  0
POLYLINE
  8
50
 66
1
 10
0.0000
 20
0.0000
 30
0.0000
 40
0.0762
 41
0.0762
 70
0
  0
VERTEX
  8
50
 10
59.2794
 20
68.9238
 30
0.0000
 42
1.0000
  0
VERTEX
  8
50
 10
59.2032
 20
68.9238
 30
0.0000
  0
SEQEND
  8
0
  0
POLYLINE
  8
50
 66
1
 10
0.0000
 20
0.0000
 30
0.0000
 40
0.1524
 41
0.1524
 70
0
  0
VERTEX
  8
50
 10
59.2413
 20
67.5894
 30
0.0000
 42
1.0000
  0
VERTEX
  8
50
 10
60.2678
 20
67.5894
 30
0.0000
  0
SEQEND
  8
0
  0
POLYLINE
  8
50
 66
1
 10
0.0000
 20
0.0000
 30
0.0000
 40
0.0762
 41
0.0762
 70
0
  0
VERTEX
  8
50
 10
59.2794
 20
67.5894
 30
0.0000
 42
1.0000
  0
VERTEX
  8
50
 10
59.2032
 20
67.5894
 30
0.0000
  0
SEQEND
  8
0
  0
POLYLINE
  8
50
 66
1
 10
0.0000
 20
0.0000
 30
0.0000
 40
0.0762
 41
0.0762
 70
0
  0
VERTEX
  8
50
 10
60.3059
 20
67.5894
 30
0.0000
 42
1.0000
  0
VERTEX
  8
50
 10
60.2297
 20
67.5894
 30
0.0000
  0
SEQEND
  8
0
  0
POLYLINE
  8
50
 66
1
 10
0.0000
 20
0.0000
 30
0.0000
 40
0.1524
 41
0.1524
 70
0
  0
VERTEX
  8
50
 10
60.2678
 20
67.5894
 30
0.0000
  0
VERTEX
  8
50
 10
60.2678
 20
68.9238
 30
0.0000
  0
SEQEND
  8
0
  0
POLYLINE
  8
50
 66
1
 10
0.0000
 20
0.0000
 30
0.0000
 40
0.0762
 41
0.0762
 70
0
  0
VERTEX
  8
50
 10
60.3059
 20
68.9238
 30
0.0000
 42
1.0000
  0
VERTEX
  8
50
 10
60.2297
 20
68.9238
 30
0.0000
  0
SEQEND
  8
0
  0
POLYLINE
  8
50
 66
1
 10
0.0000
 20
0.0000
 30
0.0000
 40
0.0762
 41
0.0762
 70
0
  0
VERTEX
  8
50
 10
60.2297
 20
67.5894
 30
0.0000
 42
1.0000
  0
VERTEX
  8
50
 10
60.3059
 20
67.5894
 30
0.0000
  0
SEQEND
  8
0
  0
POLYLINE
  8
50
 66
1
 10
0.0000
 20
0.0000
 30
0.0000
 40
0.1524
 41
0.1524
 70
0
  0
VERTEX
  8
50
 10
61.0937
 20
67.0762
 30
0.0000
  0
VERTEX
  8
50
 10
61.0937
 20
68.9238
 30
0.0000
  0
SEQEND
  8
0
  0
POLYLINE
  8
50
 66
1
 10
0.0000
 20
0.0000
 30
0.0000
 40
0.0762
 41
0.0762
 70
0
  0
VERTEX
  8
50
 10
61.1318
 20
68.9238
 30
0.0000
 42
1.0000
  0
VERTEX
  8
50
 10
61.0556
 20
68.9238
 30
0.0000
  0
SEQEND
  8
0
  0
POLYLINE
  8
50
 66
1
 10
0.0000
 20
0.0000
 30
0.0000
 40
0.0762
 41
0.0762
 70
0
  0
VERTEX
  8
50
 10
61.0556
 20
67.0762
 30
0.0000
 42
1.0000
  0
VERTEX
  8
50
 10
61.1318
 20
67.0762
 30
0.0000
  0
SEQEND
  8
0
  0
POLYLINE
  8
50
 66
1
 10
0.0000
 20
0.0000
 30
0.0000
 40
0.1524
 41
0.1524
 70
0
  0
VERTEX
  8
50
 10
61.0937
 20
68.9238
 30
0.0000
  0
VERTEX
  8
50
 10
61.7096
 20
67.8974
 30
0.0000
  0
SEQEND
  8
0
  0
POLYLINE
  8
50
 66
1
 10
0.0000
 20
0.0000
 30
0.0000
 40
0.0762
 41
0.0762
 70
0
  0
VERTEX
  8
50
 10
61.6769
 20
67.8778
 30
0.0000
 42
1.0000
  0
VERTEX
  8
50
 10
61.7422
 20
67.9170
 30
0.0000
  0
SEQEND
  8
0
  0
POLYLINE
  8
50
 66
1
 10
0.0000
 20
0.0000
 30
0.0000
 40
0.0762
 41
0.0762
 70
0
  0
VERTEX
  8
50
 10
61.1264
 20
68.9434
 30
0.0000
 42
1.0000
  0
VERTEX
  8
50
 10
61.0610
 20
68.9042
 30
0.0000
  0
SEQEND
  8
0
  0
POLYLINE
  8
50
 66
1
 10
0.0000
 20
0.0000
 30
0.0000
 40
0.1524
 41
0.1524
 70
0
  0
VERTEX
  8
50
 10
61.7096
 20
67.8974
 30
0.0000
  0
VERTEX
  8
50
 10
62.3254
 20
68.9238
 30
0.0000
  0
SEQEND
  8
0
  0
POLYLINE
  8
50
 66
1
 10
0.0000
 20
0.0000
 30
0.0000
 40
0.0762
 41
0.0762
 70
0
  0
VERTEX
  8
50
 10
62.3581
 20
68.9042
 30
0.0000
 42
1.0000
  0
VERTEX
  8
50
 10
62.2928
 20
68.9434
 30
0.0000
  0
SEQEND
  8
0
  0
POLYLINE
  8
50
 66
1
 10
0.0000
 20
0.0000
 30
0.0000
 40
0.0762
 41
0.0762
 70
0
  0
VERTEX
  8
50
 10
61.6769
 20
67.9170
 30
0.0000
 42
1.0000
  0
VERTEX
  8
50
 10
61.7422
 20
67.8778
 30
0.0000
  0
SEQEND
  8
0
  0
POLYLINE
  8
50
 66
1
 10
0.0000
 20
0.0000
 30
0.0000
 40
0.1524
 41
0.1524
 70
0
  0
VERTEX
  8
50
 10
62.3254
 20
68.9238
 30
0.0000
  0
VERTEX
  8
50
 10
62.3254
 20
67.0762
 30
0.0000
  0
SEQEND
  8
0
  0
POLYLINE
  8
50
 66
1
 10
0.0000
 20
0.0000
 30
0.0000
 40
0.0762
 41
0.0762
 70
0
  0
VERTEX
  8
50
 10
62.2873
 20
67.0762
 30
0.0000
 42
1.0000
  0
VERTEX
  8
50
 10
62.3635
 20
67.0762
 30
0.0000
  0
SEQEND
  8
0
  0
POLYLINE
  8
50
 66
1
 10
0.0000
 20
0.0000
 30
0.0000
 40
0.0762
 41
0.0762
 70
0
  0
VERTEX
  8
50
 10
62.3635
 20
68.9238
 30
0.0000
 42
1.0000
  0
VERTEX
  8
50
 10
62.2873
 20
68.9238
 30
0.0000
  0
SEQEND
  8
0
  0
POLYLINE
  8
50
 66
1
 10
0.0000
 20
0.0000
 30
0.0000
 40
0.1524
 41
0.1524
 70
0
  0
VERTEX
  8
50
 10
1.0762
 20
67.5894
 30
0.0000
  0
VERTEX
  8
50
 10
1.0762
 20
68.4106
 30
0.0000
  0
SEQEND
  8
0
  0
POLYLINE
  8
50
 66
1
 10
0.0000
 20
0.0000
 30
0.0000
 40
0.0762
 41
0.0762
 70
0
  0
VERTEX
  8
50
 10
1.1143
 20
68.4106
 30
0.0000
 42
1.0000
  0
VERTEX
  8
50
 10
1.0381
 20
68.4106
 30
0.0000
  0
SEQEND
  8
0
  0
POLYLINE
  8
50
 66
1
 10
0.0000
 20
0.0000
 30
0.0000
 40
0.0762
 41
0.0762
 70
0
  0
VERTEX
  8
50
 10
1.0381
 20
67.5894
 30
0.0000
 42
1.0000
  0
VERTEX
  8
50
 10
1.1143
 20
67.5894
 30
0.0000
  0
SEQEND
  8
0
  0
POLYLINE
  8
50
 66
1
 10
0.0000
 20
0.0000
 30
0.0000
 40
0.1524
 41
0.1524
 70
0
  0
VERTEX
  8
50
 10
2.1026
 20
68.4106
 30
0.0000
 42
1.0000
  0
VERTEX
  8
50
 10
1.0762
 20
68.4106
 30
0.0000
  0
SEQEND
  8
0
  0
POLYLINE
  8
50
 66
1
 10
0.0000
 20
0.0000
 30
0.0000
 40
0.0762
 41
0.0762
 70
0
  0
VERTEX
  8
50
 10
2.0645
 20
68.4106
 30
0.0000
 42
1.0000
  0
VERTEX
  8
50
 10
2.1407
 20
68.4106
 30
0.0000
  0
SEQEND
  8
0
  0
POLYLINE
  8
50
 66
1
 10
0.0000
 20
0.0000
 30
0.0000
 40
0.0762
 41
0.0762
 70
0
  0
VERTEX
  8
50
 10
1.0381
 20
68.4106
 30
0.0000
 42
1.0000
  0
VERTEX
  8
50
 10
1.1143
 20
68.4106
 30
0.0000
  0
SEQEND
  8
0
  0
POLYLINE
  8
50
 66
1
 10
0.0000
 20
0.0000
 30
0.0000
 40
0.1524
 41
0.1524
 70
0
  0
VERTEX
  8
50
 10
2.1026
 20
68.4106
 30
0.0000
  0
VERTEX
  8
50
 10
2.1026
 20
67.5894
 30
0.0000
  0
SEQEND
  8
0
  0
POLYLINE
  8
50
 66
1
 10
0.0000
 20
0.0000
 30
0.0000
 40
0.0762
 41
0.0762
 70
0
  0
VERTEX
  8
50
 10
2.0645
 20
67.5894
 30
0.0000
 42
1.0000
  0
VERTEX
  8
50
 10
2.1407
 20
67.5894
 30
0.0000
  0
SEQEND
  8
0
  0
POLYLINE
  8
50
 66
1
 10
0.0000
 20
0.0000
 30
0.0000
 40
0.0762
 41
0.0762
 70
0
  0
VERTEX
  8
50
 10
2.1407
 20
68.4106
 30
0.0000
 42
1.0000
  0
VERTEX
  8
50
 10
2.0645
 20
68.4106
 30
0.0000
  0
SEQEND
  8
0
  0
POLYLINE
  8
50
 66
1
 10
0.0000
 20
0.0000
 30
0.0000
 40
0.1524
 41
0.1524
 70
0
  0
VERTEX
  8
50
 10
1.0762
 20
67.5894
 30
0.0000
 42
1.0000
  0
VERTEX
  8
50
 10
2.1026
 20
67.5894
 30
0.0000
  0
SEQEND
  8
0
  0
POLYLINE
  8
50
 66
1
 10
0.0000
 20
0.0000
 30
0.0000
 40
0.0762
 41
0.0762
 70
0
  0
VERTEX
  8
50
 10
1.1143
 20
67.5894
 30
0.0000
 42
1.0000
  0
VERTEX
  8
50
 10
1.0381
 20
67.5894
 30
0.0000
  0
SEQEND
  8
0
  0
POLYLINE
  8
50
 66
1
 10
0.0000
 20
0.0000
 30
0.0000
 40
0.0762
 41
0.0762
 70
0
  0
VERTEX
  8
50
 10
2.1407
 20
67.5894
 30
0.0000
 42
1.0000
  0
VERTEX
  8
50
 10
2.0645
 20
67.5894
 30
0.0000
  0
SEQEND
  8
0
  0
POLYLINE
  8
50
 66
1
 10
0.0000
 20
0.0000
 30
0.0000
 40
0.1524
 41
0.1524
 70
0
  0
VERTEX
  8
50
 10
2.6986
 20
68.9238
 30
0.0000
  0
VERTEX
  8
50
 10
3.3144
 20
67.0762
 30
0.0000
  0
SEQEND
  8
0
  0
POLYLINE
  8
50
 66
1
 10
0.0000
 20
0.0000
 30
0.0000
 40
0.0762
 41
0.0762
 70
0
  0
VERTEX
  8
50
 10
3.2783
 20
67.0642
 30
0.0000
 42
1.0000
  0
VERTEX
  8
50
 10
3.3506
 20
67.0882
 30
0.0000
  0
SEQEND
  8
0
  0
POLYLINE
  8
50
 66
1
 10
0.0000
 20
0.0000
 30
0.0000
 40
0.0762
 41
0.0762
 70
0
  0
VERTEX
  8
50
 10
2.7347
 20
68.9358
 30
0.0000
 42
1.0000
  0
VERTEX
  8
50
 10
2.6624
 20
68.9118
 30
0.0000
  0
SEQEND
  8
0
  0
POLYLINE
  8
50
 66
1
 10
0.0000
 20
0.0000
 30
0.0000
 40
0.1524
 41
0.1524
 70
0
  0
VERTEX
  8
50
 10
3.3144
 20
67.0762
 30
0.0000
  0
VERTEX
  8
50
 10
3.9303
 20
68.9238
 30
0.0000
  0
SEQEND
  8
0
  0
POLYLINE
  8
50
 66
1
 10
0.0000
 20
0.0000
 30
0.0000
 40
0.0762
 41
0.0762
 70
0
  0
VERTEX
  8
50
 10
3.9664
 20
68.9118
 30
0.0000
 42
1.0000
  0
VERTEX
  8
50
 10
3.8941
 20
68.9358
 30
0.0000
  0
SEQEND
  8
0
  0
POLYLINE
  8
50
 66
1
 10
0.0000
 20
0.0000
 30
0.0000
 40
0.0762
 41
0.0762
 70
0
  0
VERTEX
  8
50
 10
3.2783
 20
67.0882
 30
0.0000
 42
1.0000
  0
VERTEX
  8
50
 10
3.3506
 20
67.0642
 30
0.0000
  0
SEQEND
  8
0
  0
POLYLINE
  8
50
 66
1
 10
0.0000
 20
0.0000
 30
0.0000
 40
0.1524
 41
0.1524
 70
0
  0
VERTEX
  8
50
 10
5.4077
 20
67.0762
 30
0.0000
  0
VERTEX
  8
50
 10
4.5865
 20
67.0762
 30
0.0000
  0
SEQEND
  8
0
  0
POLYLINE
  8
50
 66
1
 10
0.0000
 20
0.0000
 30
0.0000
 40
0.0762
 41
0.0762
 70
0
  0
VERTEX
  8
50
 10
4.5865
 20
67.1143
 30
0.0000
 42
1.0000
  0
VERTEX
  8
50
 10
4.5865
 20
67.0381
 30
0.0000
  0
SEQEND
  8
0
  0
POLYLINE
  8
50
 66
1
 10
0.0000
 20
0.0000
 30
0.0000
 40
0.0762
 41
0.0762
 70
0
  0
VERTEX
  8
50
 10
5.4077
 20
67.0381
 30
0.0000
 42
1.0000
  0
VERTEX
  8
50
 10
5.4077
 20
67.1143
 30
0.0000
  0
SEQEND
  8
0
  0
POLYLINE
  8
50
 66
1
 10
0.0000
 20
0.0000
 30
0.0000
 40
0.1524
 41
0.1524
 70
0
  0
VERTEX
  8
50
 10
4.5865
 20
67.0762
 30
0.0000
  0
VERTEX
  8
50
 10
4.5865
 20
68.9238
 30
0.0000
  0
SEQEND
  8
0
  0
POLYLINE
  8
50
 66
1
 10
0.0000
 20
0.0000
 30
0.0000
 40
0.0762
 41
0.0762
 70
0
  0
VERTEX
  8
50
 10
4.6246
 20
68.9238
 30
0.0000
 42
1.0000
  0
VERTEX
  8
50
 10
4.5484
 20
68.9238
 30
0.0000
  0
SEQEND
  8
0
  0
POLYLINE
  8
50
 66
1
 10
0.0000
 20
0.0000
 30
0.0000
 40
0.0762
 41
0.0762
 70
0
  0
VERTEX
  8
50
 10
4.5484
 20
67.0762
 30
0.0000
 42
1.0000
  0
VERTEX
  8
50
 10
4.6246
 20
67.0762
 30
0.0000
  0
SEQEND
  8
0
  0
POLYLINE
  8
50
 66
1
 10
0.0000
 20
0.0000
 30
0.0000
 40
0.1524
 41
0.1524
 70
0
  0
VERTEX
  8
50
 10
4.5865
 20
68.9238
 30
0.0000
  0
VERTEX
  8
50
 10
5.4077
 20
68.9238
 30
0.0000
  0
SEQEND
  8
0
  0
POLYLINE
  8
50
 66
1
 10
0.0000
 20
0.0000
 30
0.0000
 40
0.0762
 41
0.0762
 70
0
  0
VERTEX
  8
50
 10
5.4077
 20
68.8857
 30
0.0000
 42
1.0000
  0
VERTEX
  8
50
 10
5.4077
 20
68.9619
 30
0.0000
  0
SEQEND
  8
0
  0
POLYLINE
  8
50
 66
1
 10
0.0000
 20
0.0000
 30
0.0000
 40
0.0762
 41
0.0762
 70
0
  0
VERTEX
  8
50
 10
4.5865
 20
68.9619
 30
0.0000
 42
1.0000
  0
VERTEX
  8
50
 10
4.5865
 20
68.8857
 30
0.0000
  0
SEQEND
  8
0
  0
POLYLINE
  8
50
 66
1
 10
0.0000
 20
0.0000
 30
0.0000
 40
0.1524
 41
0.1524
 70
0
  0
VERTEX
  8
50
 10
4.5865
 20
68.1026
 30
0.0000
  0
VERTEX
  8
50
 10
5.2024
 20
68.1026
 30
0.0000
  0
SEQEND
  8
0
  0
POLYLINE
  8
50
 66
1
 10
0.0000
 20
0.0000
 30
0.0000
 40
0.0762
 41
0.0762
 70
0
  0
VERTEX
  8
50
 10
5.2024
 20
68.0645
 30
0.0000
 42
1.0000
  0
VERTEX
  8
50
 10
5.2024
 20
68.1407
 30
0.0000
  0
SEQEND
  8
0
  0
POLYLINE
  8
50
 66
1
 10
0.0000
 20
0.0000
 30
0.0000
 40
0.0762
 41
0.0762
 70
0
  0
VERTEX
  8
50
 10
4.5865
 20
68.1407
 30
0.0000
 42
1.0000
  0
VERTEX
  8
50
 10
4.5865
 20
68.0645
 30
0.0000
  0
SEQEND
  8
0
  0
POLYLINE
  8
50
 66
1
 10
0.0000
 20
0.0000
 30
0.0000
 40
0.1524
 41
0.1524
 70
0
  0
VERTEX
  8
50
 10
6.0869
 20
67.0762
 30
0.0000
  0
VERTEX
  8
50
 10
6.0869
 20
68.9238
 30
0.0000
  0
SEQEND
  8
0
  0
POLYLINE
  8
50
 66
1
 10
0.0000
 20
0.0000
 30
0.0000
 40
0.0762
 41
0.0762
 70
0
  0
VERTEX
  8
50
 10
6.1250
 20
68.9238
 30
0.0000
 42
1.0000
  0
VERTEX
  8
50
 10
6.0488
 20
68.9238
 30
0.0000
  0
SEQEND
  8
0
  0
POLYLINE
  8
50
 66
1
 10
0.0000
 20
0.0000
 30
0.0000
 40
0.0762
 41
0.0762
 70
0
  0
VERTEX
  8
50
 10
6.0488
 20
67.0762
 30
0.0000
 42
1.0000
  0
VERTEX
  8
50
 10
6.1250
 20
67.0762
 30
0.0000
  0
SEQEND
  8
0
  0
POLYLINE
  8
50
 66
1
 10
0.0000
 20
0.0000
 30
0.0000
 40
0.1524
 41
0.1524
 70
0
  0
VERTEX
  8
50
 10
6.0869
 20
68.9238
 30
0.0000
  0
VERTEX
  8
50
 10
6.6001
 20
68.9238
 30
0.0000
  0
SEQEND
  8
0
  0
POLYLINE
  8
50
 66
1
 10
0.0000
 20
0.0000
 30
0.0000
 40
0.0762
 41
0.0762
 70
0
  0
VERTEX
  8
50
 10
6.6001
 20
68.8857
 30
0.0000
 42
1.0000
  0
VERTEX
  8
50
 10
6.6001
 20
68.9619
 30
0.0000
  0
SEQEND
  8
0
  0
POLYLINE
  8
50
 66
1
 10
0.0000
 20
0.0000
 30
0.0000
 40
0.0762
 41
0.0762
 70
0
  0
VERTEX
  8
50
 10
6.0869
 20
68.9619
 30
0.0000
 42
1.0000
  0
VERTEX
  8
50
 10
6.0869
 20
68.8857
 30
0.0000
  0
SEQEND
  8
0
  0
POLYLINE
  8
50
 66
1
 10
0.0000
 20
0.0000
 30
0.0000
 40
0.1524
 41
0.1524
 70
0
  0
VERTEX
  8
50
 10
6.6001
 20
67.8974
 30
0.0000
 42
1.0000
  0
VERTEX
  8
50
 10
6.6001
 20
68.9238
 30
0.0000
  0
SEQEND
  8
0
  0
POLYLINE
  8
50
 66
1
 10
0.0000
 20
0.0000
 30
0.0000
 40
0.0762
 41
0.0762
 70
0
  0
VERTEX
  8
50
 10
6.6001
 20
67.9355
 30
0.0000
 42
1.0000
  0
VERTEX
  8
50
 10
6.6001
 20
67.8593
 30
0.0000
  0
SEQEND
  8
0
  0
POLYLINE
  8
50
 66
1
 10
0.0000
 20
0.0000
 30
0.0000
 40
0.0762
 41
0.0762
 70
0
  0
VERTEX
  8
50
 10
6.6001
 20
68.9619
 30
0.0000
 42
1.0000
  0
VERTEX
  8
50
 10
6.6001
 20
68.8857
 30
0.0000
  0
SEQEND
  8
0
  0
POLYLINE
  8
50
 66
1
 10
0.0000
 20
0.0000
 30
0.0000
 40
0.1524
 41
0.1524
 70
0
  0
VERTEX
  8
50
 10
6.6001
 20
67.8974
 30
0.0000
  0
VERTEX
  8
50
 10
6.0869
 20
67.8974
 30
0.0000
  0
SEQEND
  8
0
  0
POLYLINE
  8
50
 66
1
 10
0.0000
 20
0.0000
 30
0.0000
 40
0.0762
 41
0.0762
 70
0
  0
VERTEX
  8
50
 10
6.0869
 20
67.9355
 30
0.0000
 42
1.0000
  0
VERTEX
  8
50
 10
6.0869
 20
67.8593
 30
0.0000
  0
SEQEND
  8
0
  0
POLYLINE
  8
50
 66
1
 10
0.0000
 20
0.0000
 30
0.0000
 40
0.0762
 41
0.0762
 70
0
  0
VERTEX
  8
50
 10
6.6001
 20
67.8593
 30
0.0000
 42
1.0000
  0
VERTEX
  8
50
 10
6.6001
 20
67.9355
 30
0.0000
  0
SEQEND
  8
0
  0
POLYLINE
  8
50
 66
1
 10
0.0000
 20
0.0000
 30
0.0000
 40
0.1524
 41
0.1524
 70
0
  0
VERTEX
  8
50
 10
7.1134
 20
67.0762
 30
0.0000
  0
VERTEX
  8
50
 10
6.7028
 20
67.8974
 30
0.0000
  0
SEQEND
  8
0
  0
POLYLINE
  8
50
 66
1
 10
0.0000
 20
0.0000
 30
0.0000
 40
0.0762
 41
0.0762
 70
0
  0
VERTEX
  8
50
 10
6.7369
 20
67.9144
 30
0.0000
 42
1.0000
  0
VERTEX
  8
50
 10
6.6687
 20
67.8803
 30
0.0000
  0
SEQEND
  8
0
  0
POLYLINE
  8
50
 66
1
 10
0.0000
 20
0.0000
 30
0.0000
 40
0.0762
 41
0.0762
 70
0
  0
VERTEX
  8
50
 10
7.0793
 20
67.0592
 30
0.0000
 42
1.0000
  0
VERTEX
  8
50
 10
7.1474
 20
67.0932
 30
0.0000
  0
SEQEND
  8
0
  0
POLYLINE
  8
50
 66
1
 10
0.0000
 20
0.0000
 30
0.0000
 40
0.1524
 41
0.1524
 70
0
  0
VERTEX
  8
50
 10
7.8612
 20
67.0762
 30
0.0000
  0
VERTEX
  8
50
 10
7.8612
 20
68.9238
 30
0.0000
  0
SEQEND
  8
0
  0
POLYLINE
  8
50
 66
1
 10
0.0000
 20
0.0000
 30
0.0000
 40
0.0762
 41
0.0762
 70
0
  0
VERTEX
  8
50
 10
7.8993
 20
68.9238
 30
0.0000
 42
1.0000
  0
VERTEX
  8
50
 10
7.8231
 20
68.9238
 30
0.0000
  0
SEQEND
  8
0
  0
POLYLINE
  8
50
 66
1
 10
0.0000
 20
0.0000
 30
0.0000
 40
0.0762
 41
0.0762
 70
0
  0
VERTEX
  8
50
 10
7.8231
 20
67.0762
 30
0.0000
 42
1.0000
  0
VERTEX
  8
50
 10
7.8993
 20
67.0762
 30
0.0000
  0
SEQEND
  8
0
  0
POLYLINE
  8
50
 66
1
 10
0.0000
 20
0.0000
 30
0.0000
 40
0.1524
 41
0.1524
 70
0
  0
VERTEX
  8
50
 10
7.8612
 20
68.1026
 30
0.0000
  0
VERTEX
  8
50
 10
8.8876
 20
68.1026
 30
0.0000
  0
SEQEND
  8
0
  0
POLYLINE
  8
50
 66
1
 10
0.0000
 20
0.0000
 30
0.0000
 40
0.0762
 41
0.0762
 70
0
  0
VERTEX
  8
50
 10
8.8876
 20
68.0645
 30
0.0000
 42
1.0000
  0
VERTEX
  8
50
 10
8.8876
 20
68.1407
 30
0.0000
  0
SEQEND
  8
0
  0
POLYLINE
  8
50
 66
1
 10
0.0000
 20
0.0000
 30
0.0000
 40
0.0762
 41
0.0762
 70
0
  0
VERTEX
  8
50
 10
7.8612
 20
68.1407
 30
0.0000
 42
1.0000
  0
VERTEX
  8
50
 10
7.8612
 20
68.0645
 30
0.0000
  0
SEQEND
  8
0
  0
POLYLINE
  8
50
 66
1
 10
0.0000
 20
0.0000
 30
0.0000
 40
0.1524
 41
0.1524
 70
0
  0
VERTEX
  8
50
 10
8.8876
 20
68.9238
 30
0.0000
  0
VERTEX
  8
50
 10
8.8876
 20
67.0762
 30
0.0000
  0
SEQEND
  8
0
  0
POLYLINE
  8
50
 66
1
 10
0.0000
 20
0.0000
 30
0.0000
 40
0.0762
 41
0.0762
 70
0
  0
VERTEX
  8
50
 10
8.8495
 20
67.0762
 30
0.0000
 42
1.0000
  0
VERTEX
  8
50
 10
8.9257
 20
67.0762
 30
0.0000
  0
SEQEND
  8
0
  0
POLYLINE
  8
50
 66
1
 10
0.0000
 20
0.0000
 30
0.0000
 40
0.0762
 41
0.0762
 70
0
  0
VERTEX
  8
50
 10
8.9257
 20
68.9238
 30
0.0000
 42
1.0000
  0
VERTEX
  8
50
 10
8.8495
 20
68.9238
 30
0.0000
  0
SEQEND
  8
0
  0
POLYLINE
  8
50
 66
1
 10
0.0000
 20
0.0000
 30
0.0000
 40
0.1524
 41
0.1524
 70
0
  0
VERTEX
  8
50
 10
9.5411
 20
67.0762
 30
0.0000
  0
VERTEX
  8
50
 10
10.1569
 20
68.9238
 30
0.0000
  0
SEQEND
  8
0
  0
POLYLINE
  8
50
 66
1
 10
0.0000
 20
0.0000
 30
0.0000
 40
0.0762
 41
0.0762
 70
0
  0
VERTEX
  8
50
 10
10.1931
 20
68.9118
 30
0.0000
 42
1.0000
  0
VERTEX
  8
50
 10
10.1208
 20
68.9358
 30
0.0000
  0
SEQEND
  8
0
  0
POLYLINE
  8
50
 66
1
 10
0.0000
 20
0.0000
 30
0.0000
 40
0.0762
 41
0.0762
 70
0
  0
VERTEX
  8
50
 10
9.5049
 20
67.0882
 30
0.0000
 42
1.0000
  0
VERTEX
  8
50
 10
9.5772
 20
67.0642
 30
0.0000
  0
SEQEND
  8
0
  0
POLYLINE
  8
50
 66
1
 10
0.0000
 20
0.0000
 30
0.0000
 40
0.1524
 41
0.1524
 70
0
  0
VERTEX
  8
50
 10
10.1569
 20
68.9238
 30
0.0000
  0
VERTEX
  8
50
 10
10.7728
 20
67.0762
 30
0.0000
  0
SEQEND
  8
0
  0
POLYLINE
  8
50
 66
1
 10
0.0000
 20
0.0000
 30
0.0000
 40
0.0762
 41
0.0762
 70
0
  0
VERTEX
  8
50
 10
10.7366
 20
67.0642
 30
0.0000
 42
1.0000
  0
VERTEX
  8
50
 10
10.8089
 20
67.0882
 30
0.0000
  0
SEQEND
  8
0
  0
POLYLINE
  8
50
 66
1
 10
0.0000
 20
0.0000
 30
0.0000
 40
0.0762
 41
0.0762
 70
0
  0
VERTEX
  8
50
 10
10.1931
 20
68.9358
 30
0.0000
 42
1.0000
  0
VERTEX
  8
50
 10
10.1208
 20
68.9118
 30
0.0000
  0
SEQEND
  8
0
  0
POLYLINE
  8
50
 66
1
 10
0.0000
 20
0.0000
 30
0.0000
 40
0.1524
 41
0.1524
 70
0
  0
VERTEX
  8
50
 10
10.6188
 20
67.5381
 30
0.0000
  0
VERTEX
  8
50
 10
9.6950
 20
67.5381
 30
0.0000
  0
SEQEND
  8
0
  0
POLYLINE
  8
50
 66
1
 10
0.0000
 20
0.0000
 30
0.0000
 40
0.0762
 41
0.0762
 70
0
  0
VERTEX
  8
50
 10
9.6950
 20
67.5762
 30
0.0000
 42
1.0000
  0
VERTEX
  8
50
 10
9.6950
 20
67.5000
 30
0.0000
  0
SEQEND
  8
0
  0
POLYLINE
  8
50
 66
1
 10
0.0000
 20
0.0000
 30
0.0000
 40
0.0762
 41
0.0762
 70
0
  0
VERTEX
  8
50
 10
10.6188
 20
67.5000
 30
0.0000
 42
1.0000
  0
VERTEX
  8
50
 10
10.6188
 20
67.5762
 30
0.0000
  0
SEQEND
  8
0
  0
POLYLINE
  8
50
 66
1
 10
0.0000
 20
0.0000
 30
0.0000
 40
0.1524
 41
0.1524
 70
0
  0
VERTEX
  8
50
 10
11.4262
 20
67.0762
 30
0.0000
  0
VERTEX
  8
50
 10
11.4262
 20
68.9238
 30
0.0000
  0
SEQEND
  8
0
  0
POLYLINE
  8
50
 66
1
 10
0.0000
 20
0.0000
 30
0.0000
 40
0.0762
 41
0.0762
 70
0
  0
VERTEX
  8
50
 10
11.4643
 20
68.9238
 30
0.0000
 42
1.0000
  0
VERTEX
  8
50
 10
11.3881
 20
68.9238
 30
0.0000
  0
SEQEND
  8
0
  0
POLYLINE
  8
50
 66
1
 10
0.0000
 20
0.0000
 30
0.0000
 40
0.0762
 41
0.0762
 70
0
  0
VERTEX
  8
50
 10
11.3881
 20
67.0762
 30
0.0000
 42
1.0000
  0
VERTEX
  8
50
 10
11.4643
 20
67.0762
 30
0.0000
  0
SEQEND
  8
0
  0
POLYLINE
  8
50
 66
1
 10
0.0000
 20
0.0000
 30
0.0000
 40
0.1524
 41
0.1524
 70
0
  0
VERTEX
  8
50
 10
11.4262
 20
68.9238
 30
0.0000
  0
VERTEX
  8
50
 10
12.4526
 20
67.0762
 30
0.0000
  0
SEQEND
  8
0
  0
POLYLINE
  8
50
 66
1
 10
0.0000
 20
0.0000
 30
0.0000
 40
0.0762
 41
0.0762
 70
0
  0
VERTEX
  8
50
 10
12.4193
 20
67.0577
 30
0.0000
 42
1.0000
  0
VERTEX
  8
50
 10
12.4859
 20
67.0947
 30
0.0000
  0
SEQEND
  8
0
  0
POLYLINE
  8
50
 66
1
 10
0.0000
 20
0.0000
 30
0.0000
 40
0.0762
 41
0.0762
 70
0
  0
VERTEX
  8
50
 10
11.4595
 20
68.9423
 30
0.0000
 42
1.0000
  0
VERTEX
  8
50
 10
11.3929
 20
68.9053
 30
0.0000
  0
SEQEND
  8
0
  0
POLYLINE
  8
50
 66
1
 10
0.0000
 20
0.0000
 30
0.0000
 40
0.1524
 41
0.1524
 70
0
  0
VERTEX
  8
50
 10
12.4526
 20
67.0762
 30
0.0000
  0
VERTEX
  8
50
 10
12.4526
 20
68.9238
 30
0.0000
  0
SEQEND
  8
0
  0
POLYLINE
  8
50
 66
1
 10
0.0000
 20
0.0000
 30
0.0000
 40
0.0762
 41
0.0762
 70
0
  0
VERTEX
  8
50
 10
12.4907
 20
68.9238
 30
0.0000
 42
1.0000
  0
VERTEX
  8
50
 10
12.4145
 20
68.9238
 30
0.0000
  0
SEQEND
  8
0
  0
POLYLINE
  8
50
 66
1
 10
0.0000
 20
0.0000
 30
0.0000
 40
0.0762
 41
0.0762
 70
0
  0
VERTEX
  8
50
 10
12.4145
 20
67.0762
 30
0.0000
 42
1.0000
  0
VERTEX
  8
50
 10
12.4907
 20
67.0762
 30
0.0000
  0
SEQEND
  8
0
  0
POLYLINE
  8
50
 66
1
 10
0.0000
 20
0.0000
 30
0.0000
 40
0.1524
 41
0.1524
 70
0
  0
VERTEX
  8
50
 10
13.9847
 20
68.1026
 30
0.0000
  0
VERTEX
  8
50
 10
14.2926
 20
68.1026
 30
0.0000
  0
SEQEND
  8
0
  0
POLYLINE
  8
50
 66
1
 10
0.0000
 20
0.0000
 30
0.0000
 40
0.0762
 41
0.0762
 70
0
  0
VERTEX
  8
50
 10
14.2926
 20
68.0645
 30
0.0000
 42
1.0000
  0
VERTEX
  8
50
 10
14.2926
 20
68.1407
 30
0.0000
  0
SEQEND
  8
0
  0
POLYLINE
  8
50
 66
1
 10
0.0000
 20
0.0000
 30
0.0000
 40
0.0762
 41
0.0762
 70
0
  0
VERTEX
  8
50
 10
13.9847
 20
68.1407
 30
0.0000
 42
1.0000
  0
VERTEX
  8
50
 10
13.9847
 20
68.0645
 30
0.0000
  0
SEQEND
  8
0
  0
POLYLINE
  8
50
 66
1
 10
0.0000
 20
0.0000
 30
0.0000
 40
0.1524
 41
0.1524
 70
0
  0
VERTEX
  8
50
 10
14.2926
 20
68.1026
 30
0.0000
  0
VERTEX
  8
50
 10
14.2926
 20
67.0762
 30
0.0000
  0
SEQEND
  8
0
  0
POLYLINE
  8
50
 66
1
 10
0.0000
 20
0.0000
 30
0.0000
 40
0.0762
 41
0.0762
 70
0
  0
VERTEX
  8
50
 10
14.2545
 20
67.0762
 30
0.0000
 42
1.0000
  0
VERTEX
  8
50
 10
14.3307
 20
67.0762
 30
0.0000
  0
SEQEND
  8
0
  0
POLYLINE
  8
50
 66
1
 10
0.0000
 20
0.0000
 30
0.0000
 40
0.0762
 41
0.0762
 70
0
  0
VERTEX
  8
50
 10
14.3307
 20
68.1026
 30
0.0000
 42
1.0000
  0
VERTEX
  8
50
 10
14.2545
 20
68.1026
 30
0.0000
  0
SEQEND
  8
0
  0
POLYLINE
  8
50
 66
1
 10
0.0000
 20
0.0000
 30
0.0000
 40
0.1524
 41
0.1524
 70
0
  0
VERTEX
  8
50
 10
14.2926
 20
67.0762
 30
0.0000
  0
VERTEX
  8
50
 10
13.6768
 20
67.0762
 30
0.0000
  0
SEQEND
  8
0
  0
POLYLINE
  8
50
 66
1
 10
0.0000
 20
0.0000
 30
0.0000
 40
0.0762
 41
0.0762
 70
0
  0
VERTEX
  8
50
 10
13.6768
 20
67.1143
 30
0.0000
 42
1.0000
  0
VERTEX
  8
50
 10
13.6768
 20
67.0381
 30
0.0000
  0
SEQEND
  8
0
  0
POLYLINE
  8
50
 66
1
 10
0.0000
 20
0.0000
 30
0.0000
 40
0.0762
 41
0.0762
 70
0
  0
VERTEX
  8
50
 10
14.2926
 20
67.0381
 30
0.0000
 42
1.0000
  0
VERTEX
  8
50
 10
14.2926
 20
67.1143
 30
0.0000
  0
SEQEND
  8
0
  0
POLYLINE
  8
50
 66
1
 10
0.0000
 20
0.0000
 30
0.0000
 40
0.1524
 41
0.1524
 70
0
  0
VERTEX
  8
50
 10
13.2662
 20
67.4868
 30
0.0000
 42
0.4142
  0
VERTEX
  8
50
 10
13.6768
 20
67.0762
 30
0.0000
  0
SEQEND
  8
0
  0
POLYLINE
  8
50
 66
1
 10
0.0000
 20
0.0000
 30
0.0000
 40
0.0762
 41
0.0762
 70
0
  0
VERTEX
  8
50
 10
13.3043
 20
67.4868
 30
0.0000
 42
1.0000
  0
VERTEX
  8
50
 10
13.2281
 20
67.4868
 30
0.0000
  0
SEQEND
  8
0
  0
POLYLINE
  8
50
 66
1
 10
0.0000
 20
0.0000
 30
0.0000
 40
0.0762
 41
0.0762
 70
0
  0
VERTEX
  8
50
 10
13.6768
 20
67.0381
 30
0.0000
 42
1.0000
  0
VERTEX
  8
50
 10
13.6768
 20
67.1143
 30
0.0000
  0
SEQEND
  8
0
  0
POLYLINE
  8
50
 66
1
 10
0.0000
 20
0.0000
 30
0.0000
 40
0.1524
 41
0.1524
 70
0
  0
VERTEX
  8
50
 10
13.2662
 20
67.4868
 30
0.0000
  0
VERTEX
  8
50
 10
13.2662
 20
68.5132
 30
0.0000
  0
SEQEND
  8
0
  0
POLYLINE
  8
50
 66
1
 10
0.0000
 20
0.0000
 30
0.0000
 40
0.0762
 41
0.0762
 70
0
  0
VERTEX
  8
50
 10
13.3043
 20
68.5132
 30
0.0000
 42
1.0000
  0
VERTEX
  8
50
 10
13.2281
 20
68.5132
 30
0.0000
  0
SEQEND
  8
0
  0
POLYLINE
  8
50
 66
1
 10
0.0000
 20
0.0000
 30
0.0000
 40
0.0762
 41
0.0762
 70
0
  0
VERTEX
  8
50
 10
13.2281
 20
67.4868
 30
0.0000
 42
1.0000
  0
VERTEX
  8
50
 10
13.3043
 20
67.4868
 30
0.0000
  0
SEQEND
  8
0
  0
POLYLINE
  8
50
 66
1
 10
0.0000
 20
0.0000
 30
0.0000
 40
0.1524
 41
0.1524
 70
0
  0
VERTEX
  8
50
 10
13.6768
 20
68.9238
 30
0.0000
 42
0.4142
  0
VERTEX
  8
50
 10
13.2662
 20
68.5132
 30
0.0000
  0
SEQEND
  8
0
  0
POLYLINE
  8
50
 66
1
 10
0.0000
 20
0.0000
 30
0.0000
 40
0.0762
 41
0.0762
 70
0
  0
VERTEX
  8
50
 10
13.6768
 20
68.8857
 30
0.0000
 42
1.0000
  0
VERTEX
  8
50
 10
13.6768
 20
68.9619
 30
0.0000
  0
SEQEND
  8
0
  0
POLYLINE
  8
50
 66
1
 10
0.0000
 20
0.0000
 30
0.0000
 40
0.0762
 41
0.0762
 70
0
  0
VERTEX
  8
50
 10
13.2281
 20
68.5132
 30
0.0000
 42
1.0000
  0
VERTEX
  8
50
 10
13.3043
 20
68.5132
 30
0.0000
  0
SEQEND
  8
0
  0
POLYLINE
  8
50
 66
1
 10
0.0000
 20
0.0000
 30
0.0000
 40
0.1524
 41
0.1524
 70
0
  0
VERTEX
  8
50
 10
13.6768
 20
68.9238
 30
0.0000
  0
VERTEX
  8
50
 10
14.2926
 20
68.9238
 30
0.0000
  0
SEQEND
  8
0
  0
POLYLINE
  8
50
 66
1
 10
0.0000
 20
0.0000
 30
0.0000
 40
0.0762
 41
0.0762
 70
0
  0
VERTEX
  8
50
 10
14.2926
 20
68.8857
 30
0.0000
 42
1.0000
  0
VERTEX
  8
50
 10
14.2926
 20
68.9619
 30
0.0000
  0
SEQEND
  8
0
  0
POLYLINE
  8
50
 66
1
 10
0.0000
 20
0.0000
 30
0.0000
 40
0.0762
 41
0.0762
 70
0
  0
VERTEX
  8
50
 10
13.6768
 20
68.9619
 30
0.0000
 42
1.0000
  0
VERTEX
  8
50
 10
13.6768
 20
68.8857
 30
0.0000
  0
SEQEND
  8
0
  0
POLYLINE
  8
50
 66
1
 10
0.0000
 20
0.0000
 30
0.0000
 40
0.1524
 41
0.1524
 70
0
  0
VERTEX
  8
50
 10
95.0762
 20
36.9238
 30
0.0000
  0
VERTEX
  8
50
 10
95.0762
 20
35.0762
 30
0.0000
  0
SEQEND
  8
0
  0
POLYLINE
  8
50
 66
1
 10
0.0000
 20
0.0000
 30
0.0000
 40
0.0762
 41
0.0762
 70
0
  0
VERTEX
  8
50
 10
95.0381
 20
35.0762
 30
0.0000
 42
1.0000
  0
VERTEX
  8
50
 10
95.1143
 20
35.0762
 30
0.0000
  0
SEQEND
  8
0
  0
POLYLINE
  8
50
 66
1
 10
0.0000
 20
0.0000
 30
0.0000
 40
0.0762
 41
0.0762
 70
0
  0
VERTEX
  8
50
 10
95.1143
 20
36.9238
 30
0.0000
 42
1.0000
  0
VERTEX
  8
50
 10
95.0381
 20
36.9238
 30
0.0000
  0
SEQEND
  8
0
  0
POLYLINE
  8
50
 66
1
 10
0.0000
 20
0.0000
 30
0.0000
 40
0.1524
 41
0.1524
 70
0
  0
VERTEX
  8
50
 10
95.0762
 20
35.0762
 30
0.0000
  0
VERTEX
  8
50
 10
95.8974
 20
35.0762
 30
0.0000
  0
SEQEND
  8
0
  0
POLYLINE
  8
50
 66
1
 10
0.0000
 20
0.0000
 30
0.0000
 40
0.0762
 41
0.0762
 70
0
  0
VERTEX
  8
50
 10
95.8974
 20
35.0381
 30
0.0000
 42
1.0000
  0
VERTEX
  8
50
 10
95.8974
 20
35.1143
 30
0.0000
  0
SEQEND
  8
0
  0
POLYLINE
  8
50
 66
1
 10
0.0000
 20
0.0000
 30
0.0000
 40
0.0762
 41
0.0762
 70
0
  0
VERTEX
  8
50
 10
95.0762
 20
35.1143
 30
0.0000
 42
1.0000
  0
VERTEX
  8
50
 10
95.0762
 20
35.0381
 30
0.0000
  0
SEQEND
  8
0
  0
POLYLINE
  8
50
 66
1
 10
0.0000
 20
0.0000
 30
0.0000
 40
0.1524
 41
0.1524
 70
0
  0
VERTEX
  8
50
 10
97.3924
 20
35.0762
 30
0.0000
  0
VERTEX
  8
50
 10
96.5712
 20
35.0762
 30
0.0000
  0
SEQEND
  8
0
  0
POLYLINE
  8
50
 66
1
 10
0.0000
 20
0.0000
 30
0.0000
 40
0.0762
 41
0.0762
 70
0
  0
VERTEX
  8
50
 10
96.5712
 20
35.1143
 30
0.0000
 42
1.0000
  0
VERTEX
  8
50
 10
96.5712
 20
35.0381
 30
0.0000
  0
SEQEND
  8
0
  0
POLYLINE
  8
50
 66
1
 10
0.0000
 20
0.0000
 30
0.0000
 40
0.0762
 41
0.0762
 70
0
  0
VERTEX
  8
50
 10
97.3924
 20
35.0381
 30
0.0000
 42
1.0000
  0
VERTEX
  8
50
 10
97.3924
 20
35.1143
 30
0.0000
  0
SEQEND
  8
0
  0
POLYLINE
  8
50
 66
1
 10
0.0000
 20
0.0000
 30
0.0000
 40
0.1524
 41
0.1524
 70
0
  0
VERTEX
  8
50
 10
96.5712
 20
35.0762
 30
0.0000
  0
VERTEX
  8
50
 10
96.5712
 20
36.9238
 30
0.0000
  0
SEQEND
  8
0
  0
POLYLINE
  8
50
 66
1
 10
0.0000
 20
0.0000
 30
0.0000
 40
0.0762
 41
0.0762
 70
0
  0
VERTEX
  8
50
 10
96.6093
 20
36.9238
 30
0.0000
 42
1.0000
  0
VERTEX
  8
50
 10
96.5331
 20
36.9238
 30
0.0000
  0
SEQEND
  8
0
  0
POLYLINE
  8
50
 66
1
 10
0.0000
 20
0.0000
 30
0.0000
 40
0.0762
 41
0.0762
 70
0
  0
VERTEX
  8
50
 10
96.5331
 20
35.0762
 30
0.0000
 42
1.0000
  0
VERTEX
  8
50
 10
96.6093
 20
35.0762
 30
0.0000
  0
SEQEND
  8
0
  0
POLYLINE
  8
50
 66
1
 10
0.0000
 20
0.0000
 30
0.0000
 40
0.1524
 41
0.1524
 70
0
  0
VERTEX
  8
50
 10
96.5712
 20
36.9238
 30
0.0000
  0
VERTEX
  8
50
 10
97.3924
 20
36.9238
 30
0.0000
  0
SEQEND
  8
0
  0
POLYLINE
  8
50
 66
1
 10
0.0000
 20
0.0000
 30
0.0000
 40
0.0762
 41
0.0762
 70
0
  0
VERTEX
  8
50
 10
97.3924
 20
36.8857
 30
0.0000
 42
1.0000
  0
VERTEX
  8
50
 10
97.3924
 20
36.9619
 30
0.0000
  0
SEQEND
  8
0
  0
POLYLINE
  8
50
 66
1
 10
0.0000
 20
0.0000
 30
0.0000
 40
0.0762
 41
0.0762
 70
0
  0
VERTEX
  8
50
 10
96.5712
 20
36.9619
 30
0.0000
 42
1.0000
  0
VERTEX
  8
50
 10
96.5712
 20
36.8857
 30
0.0000
  0
SEQEND
  8
0
  0
POLYLINE
  8
50
 66
1
 10
0.0000
 20
0.0000
 30
0.0000
 40
0.1524
 41
0.1524
 70
0
  0
VERTEX
  8
50
 10
96.5712
 20
36.1026
 30
0.0000
  0
VERTEX
  8
50
 10
97.1871
 20
36.1026
 30
0.0000
  0
SEQEND
  8
0
  0
POLYLINE
  8
50
 66
1
 10
0.0000
 20
0.0000
 30
0.0000
 40
0.0762
 41
0.0762
 70
0
  0
VERTEX
  8
50
 10
97.1871
 20
36.0645
 30
0.0000
 42
1.0000
  0
VERTEX
  8
50
 10
97.1871
 20
36.1407
 30
0.0000
  0
SEQEND
  8
0
  0
POLYLINE
  8
50
 66
1
 10
0.0000
 20
0.0000
 30
0.0000
 40
0.0762
 41
0.0762
 70
0
  0
VERTEX
  8
50
 10
96.5712
 20
36.1407
 30
0.0000
 42
1.0000
  0
VERTEX
  8
50
 10
96.5712
 20
36.0645
 30
0.0000
  0
SEQEND
  8
0
  0
POLYLINE
  8
50
 66
1
 10
0.0000
 20
0.0000
 30
0.0000
 40
0.1524
 41
0.1524
 70
0
  0
VERTEX
  8
50
 10
98.0634
 20
35.0762
 30
0.0000
  0
VERTEX
  8
50
 10
98.0634
 20
36.9238
 30
0.0000
  0
SEQEND
  8
0
  0
POLYLINE
  8
50
 66
1
 10
0.0000
 20
0.0000
 30
0.0000
 40
0.0762
 41
0.0762
 70
0
  0
VERTEX
  8
50
 10
98.1015
 20
36.9238
 30
0.0000
 42
1.0000
  0
VERTEX
  8
50
 10
98.0253
 20
36.9238
 30
0.0000
  0
SEQEND
  8
0
  0
POLYLINE
  8
50
 66
1
 10
0.0000
 20
0.0000
 30
0.0000
 40
0.0762
 41
0.0762
 70
0
  0
VERTEX
  8
50
 10
98.0253
 20
35.0762
 30
0.0000
 42
1.0000
  0
VERTEX
  8
50
 10
98.1015
 20
35.0762
 30
0.0000
  0
SEQEND
  8
0
  0
POLYLINE
  8
50
 66
1
 10
0.0000
 20
0.0000
 30
0.0000
 40
0.1524
 41
0.1524
 70
0
  0
VERTEX
  8
50
 10
98.0634
 20
36.9238
 30
0.0000
  0
VERTEX
  8
50
 10
98.5766
 20
36.9238
 30
0.0000
  0
SEQEND
  8
0
  0
POLYLINE
  8
50
 66
1
 10
0.0000
 20
0.0000
 30
0.0000
 40
0.0762
 41
0.0762
 70
0
  0
VERTEX
  8
50
 10
98.5766
 20
36.8857
 30
0.0000
 42
1.0000
  0
VERTEX
  8
50
 10
98.5766
 20
36.9619
 30
0.0000
  0
SEQEND
  8
0
  0
POLYLINE
  8
50
 66
1
 10
0.0000
 20
0.0000
 30
0.0000
 40
0.0762
 41
0.0762
 70
0
  0
VERTEX
  8
50
 10
98.0634
 20
36.9619
 30
0.0000
 42
1.0000
  0
VERTEX
  8
50
 10
98.0634
 20
36.8857
 30
0.0000
  0
SEQEND
  8
0
  0
POLYLINE
  8
50
 66
1
 10
0.0000
 20
0.0000
 30
0.0000
 40
0.1524
 41
0.1524
 70
0
  0
VERTEX
  8
50
 10
99.0898
 20
36.4106
 30
0.0000
 42
0.4142
  0
VERTEX
  8
50
 10
98.5766
 20
36.9238
 30
0.0000
  0
SEQEND
  8
0
  0
POLYLINE
  8
50
 66
1
 10
0.0000
 20
0.0000
 30
0.0000
 40
0.0762
 41
0.0762
 70
0
  0
VERTEX
  8
50
 10
99.0517
 20
36.4106
 30
0.0000
 42
1.0000
  0
VERTEX
  8
50
 10
99.1279
 20
36.4106
 30
0.0000
  0
SEQEND
  8
0
  0
POLYLINE
  8
50
 66
1
 10
0.0000
 20
0.0000
 30
0.0000
 40
0.0762
 41
0.0762
 70
0
  0
VERTEX
  8
50
 10
98.5766
 20
36.9619
 30
0.0000
 42
1.0000
  0
VERTEX
  8
50
 10
98.5766
 20
36.8857
 30
0.0000
  0
SEQEND
  8
0
  0
POLYLINE
  8
50
 66
1
 10
0.0000
 20
0.0000
 30
0.0000
 40
0.1524
 41
0.1524
 70
0
  0
VERTEX
  8
50
 10
99.0898
 20
36.4106
 30
0.0000
  0
VERTEX
  8
50
 10
99.0898
 20
35.5894
 30
0.0000
  0
SEQEND
  8
0
  0
POLYLINE
  8
50
 66
1
 10
0.0000
 20
0.0000
 30
0.0000
 40
0.0762
 41
0.0762
 70
0
  0
VERTEX
  8
50
 10
99.0517
 20
35.5894
 30
0.0000
 42
1.0000
  0
VERTEX
  8
50
 10
99.1279
 20
35.5894
 30
0.0000
  0
SEQEND
  8
0
  0
POLYLINE
  8
50
 66
1
 10
0.0000
 20
0.0000
 30
0.0000
 40
0.0762
 41
0.0762
 70
0
  0
VERTEX
  8
50
 10
99.1279
 20
36.4106
 30
0.0000
 42
1.0000
  0
VERTEX
  8
50
 10
99.0517
 20
36.4106
 30
0.0000
  0
SEQEND
  8
0
  0
POLYLINE
  8
50
 66
1
 10
0.0000
 20
0.0000
 30
0.0000
 40
0.1524
 41
0.1524
 70
0
  0
VERTEX
  8
50
 10
98.5766
 20
35.0762
 30
0.0000
 42
0.4142
  0
VERTEX
  8
50
 10
99.0898
 20
35.5894
 30
0.0000
  0
SEQEND
  8
0
  0
POLYLINE
  8
50
 66
1
 10
0.0000
 20
0.0000
 30
0.0000
 40
0.0762
 41
0.0762
 70
0
  0
VERTEX
  8
50
 10
98.5766
 20
35.1143
 30
0.0000
 42
1.0000
  0
VERTEX
  8
50
 10
98.5766
 20
35.0381
 30
0.0000
  0
SEQEND
  8
0
  0
POLYLINE
  8
50
 66
1
 10
0.0000
 20
0.0000
 30
0.0000
 40
0.0762
 41
0.0762
 70
0
  0
VERTEX
  8
50
 10
99.1279
 20
35.5894
 30
0.0000
 42
1.0000
  0
VERTEX
  8
50
 10
99.0517
 20
35.5894
 30
0.0000
  0
SEQEND
  8
0
  0
POLYLINE
  8
50
 66
1
 10
0.0000
 20
0.0000
 30
0.0000
 40
0.1524
 41
0.1524
 70
0
  0
VERTEX
  8
50
 10
98.5766
 20
35.0762
 30
0.0000
  0
VERTEX
  8
50
 10
98.0634
 20
35.0762
 30
0.0000
  0
SEQEND
  8
0
  0
POLYLINE
  8
50
 66
1
 10
0.0000
 20
0.0000
 30
0.0000
 40
0.0762
 41
0.0762
 70
0
  0
VERTEX
  8
50
 10
98.0634
 20
35.1143
 30
0.0000
 42
1.0000
  0
VERTEX
  8
50
 10
98.0634
 20
35.0381
 30
0.0000
  0
SEQEND
  8
0
  0
POLYLINE
  8
50
 66
1
 10
0.0000
 20
0.0000
 30
0.0000
 40
0.0762
 41
0.0762
 70
0
  0
VERTEX
  8
50
 10
98.5766
 20
35.0381
 30
0.0000
 42
1.0000
  0
VERTEX
  8
50
 10
98.5766
 20
35.1143
 30
0.0000
  0
SEQEND
  8
0
  0
POLYLINE
  8
50
 66
1
 10
0.0000
 20
0.0000
 30
0.0000
 40
0.1524
 41
0.1524
 70
0
  0
VERTEX
  8
50
 10
100.4043
 20
35.0762
 30
0.0000
 42
0.4142
  0
VERTEX
  8
50
 10
100.8148
 20
35.4868
 30
0.0000
  0
SEQEND
  8
0
  0
POLYLINE
  8
50
 66
1
 10
0.0000
 20
0.0000
 30
0.0000
 40
0.0762
 41
0.0762
 70
0
  0
VERTEX
  8
50
 10
100.4043
 20
35.1143
 30
0.0000
 42
1.0000
  0
VERTEX
  8
50
 10
100.4043
 20
35.0381
 30
0.0000
  0
SEQEND
  8
0
  0
POLYLINE
  8
50
 66
1
 10
0.0000
 20
0.0000
 30
0.0000
 40
0.0762
 41
0.0762
 70
0
  0
VERTEX
  8
50
 10
100.8529
 20
35.4868
 30
0.0000
 42
1.0000
  0
VERTEX
  8
50
 10
100.7767
 20
35.4868
 30
0.0000
  0
SEQEND
  8
0
  0
POLYLINE
  8
50
 66
1
 10
0.0000
 20
0.0000
 30
0.0000
 40
0.1524
 41
0.1524
 70
0
  0
VERTEX
  8
50
 10
99.7884
 20
35.3328
 30
0.0000
 42
0.2000
  0
VERTEX
  8
50
 10
100.4043
 20
35.0762
 30
0.0000
  0
SEQEND
  8
0
  0
POLYLINE
  8
50
 66
1
 10
0.0000
 20
0.0000
 30
0.0000
 40
0.0762
 41
0.0762
 70
0
  0
VERTEX
  8
50
 10
99.8154
 20
35.3596
 30
0.0000
 42
1.0000
  0
VERTEX
  8
50
 10
99.7613
 20
35.3060
 30
0.0000
  0
SEQEND
  8
0
  0
POLYLINE
  8
50
 66
1
 10
0.0000
 20
0.0000
 30
0.0000
 40
0.0762
 41
0.0762
 70
0
  0
VERTEX
  8
50
 10
100.4043
 20
35.0381
 30
0.0000
 42
1.0000
  0
VERTEX
  8
50
 10
100.4043
 20
35.1143
 30
0.0000
  0
SEQEND
  8
0
  0
POLYLINE
  8
50
 66
1
 10
0.0000
 20
0.0000
 30
0.0000
 40
0.1524
 41
0.1524
 70
0
  0
VERTEX
  8
50
 10
100.2503
 20
36.9238
 30
0.0000
 42
0.4142
  0
VERTEX
  8
50
 10
99.8397
 20
36.5132
 30
0.0000
  0
SEQEND
  8
0
  0
POLYLINE
  8
50
 66
1
 10
0.0000
 20
0.0000
 30
0.0000
 40
0.0762
 41
0.0762
 70
0
  0
VERTEX
  8
50
 10
100.2503
 20
36.8857
 30
0.0000
 42
1.0000
  0
VERTEX
  8
50
 10
100.2503
 20
36.9619
 30
0.0000
  0
SEQEND
  8
0
  0
POLYLINE
  8
50
 66
1
 10
0.0000
 20
0.0000
 30
0.0000
 40
0.0762
 41
0.0762
 70
0
  0
VERTEX
  8
50
 10
99.8016
 20
36.5132
 30
0.0000
 42
1.0000
  0
VERTEX
  8
50
 10
99.8778
 20
36.5132
 30
0.0000
  0
SEQEND
  8
0
  0
POLYLINE
  8
50
 66
1
 10
0.0000
 20
0.0000
 30
0.0000
 40
0.1524
 41
0.1524
 70
0
  0
VERTEX
  8
50
 10
100.7122
 20
36.7698
 30
0.0000
 42
0.1623
  0
VERTEX
  8
50
 10
100.2503
 20
36.9238
 30
0.0000
  0
SEQEND
  8
0
  0
POLYLINE
  8
50
 66
1
 10
0.0000
 20
0.0000
 30
0.0000
 40
0.0762
 41
0.0762
 70
0
  0
VERTEX
  8
50
 10
100.6893
 20
36.7394
 30
0.0000
 42
1.0000
  0
VERTEX
  8
50
 10
100.7351
 20
36.8003
 30
0.0000
  0
SEQEND
  8
0
  0
POLYLINE
  8
50
 66
1
 10
0.0000
 20
0.0000
 30
0.0000
 40
0.0762
 41
0.0762
 70
0
  0
VERTEX
  8
50
 10
100.2503
 20
36.9619
 30
0.0000
 42
1.0000
  0
VERTEX
  8
50
 10
100.2503
 20
36.8857
 30
0.0000
  0
SEQEND
  8
0
  0
POLYLINE
  8
50
 66
1
 10
0.0000
 20
0.0000
 30
0.0000
 40
0.1524
 41
0.1524
 70
0
  0
VERTEX
  8
50
 10
99.8397
 20
36.5132
 30
0.0000
 42
0.2656
  0
VERTEX
  8
50
 10
100.0450
 20
36.1540
 30
0.0000
  0
SEQEND
  8
0
  0
POLYLINE
  8
50
 66
1
 10
0.0000
 20
0.0000
 30
0.0000
 40
0.0762
 41
0.0762
 70
0
  0
VERTEX
  8
50
 10
99.8778
 20
36.5132
 30
0.0000
 42
1.0000
  0
VERTEX
  8
50
 10
99.8016
 20
36.5132
 30
0.0000
  0
SEQEND
  8
0
  0
POLYLINE
  8
50
 66
1
 10
0.0000
 20
0.0000
 30
0.0000
 40
0.0762
 41
0.0762
 70
0
  0
VERTEX
  8
50
 10
100.0257
 20
36.1211
 30
0.0000
 42
1.0000
  0
VERTEX
  8
50
 10
100.0643
 20
36.1868
 30
0.0000
  0
SEQEND
  8
0
  0
POLYLINE
  8
50
 66
1
 10
0.0000
 20
0.0000
 30
0.0000
 40
0.1524
 41
0.1524
 70
0
  0
VERTEX
  8
50
 10
100.8148
 20
35.4868
 30
0.0000
 42
0.2656
  0
VERTEX
  8
50
 10
100.6095
 20
35.8460
 30
0.0000
  0
SEQEND
  8
0
  0
POLYLINE
  8
50
 66
1
 10
0.0000
 20
0.0000
 30
0.0000
 40
0.0762
 41
0.0762
 70
0
  0
VERTEX
  8
50
 10
100.7767
 20
35.4868
 30
0.0000
 42
1.0000
  0
VERTEX
  8
50
 10
100.8529
 20
35.4868
 30
0.0000
  0
SEQEND
  8
0
  0
POLYLINE
  8
50
 66
1
 10
0.0000
 20
0.0000
 30
0.0000
 40
0.0762
 41
0.0762
 70
0
  0
VERTEX
  8
50
 10
100.6289
 20
35.8789
 30
0.0000
 42
1.0000
  0
VERTEX
  8
50
 10
100.5902
 20
35.8132
 30
0.0000
  0
SEQEND
  8
0
  0
POLYLINE
  8
50
 66
1
 10
0.0000
 20
0.0000
 30
0.0000
 40
0.1524
 41
0.1524
 70
0
  0
VERTEX
  8
50
 10
100.6095
 20
35.8460
 30
0.0000
  0
VERTEX
  8
50
 10
100.0450
 20
36.1540
 30
0.0000
  0
SEQEND
  8
0
  0
POLYLINE
  8
50
 66
1
 10
0.0000
 20
0.0000
 30
0.0000
 40
0.0762
 41
0.0762
 70
0
  0
VERTEX
  8
50
 10
100.0632
 20
36.1874
 30
0.0000
 42
1.0000
  0
VERTEX
  8
50
 10
100.0268
 20
36.1205
 30
0.0000
  0
SEQEND
  8
0
  0
POLYLINE
  8
50
 66
1
 10
0.0000
 20
0.0000
 30
0.0000
 40
0.0762
 41
0.0762
 70
0
  0
VERTEX
  8
50
 10
100.5913
 20
35.8126
 30
0.0000
 42
1.0000
  0
VERTEX
  8
50
 10
100.6278
 20
35.8795
 30
0.0000
  0
SEQEND
  8
0
  0
POLYLINE
  8
50
 66
1
 10
0.0000
 20
0.0000
 30
0.0000
 40
0.1524
 41
0.1524
 70
0
  0
VERTEX
  8
50
 10
1.1762
 20
16.3762
 30
0.0000
  0
VERTEX
  8
50
 10
1.7921
 20
18.2238
 30
0.0000
  0
SEQEND
  8
0
  0
POLYLINE
  8
50
 66
1
 10
0.0000
 20
0.0000
 30
0.0000
 40
0.0762
 41
0.0762
 70
0
  0
VERTEX
  8
50
 10
1.8282
 20
18.2118
 30
0.0000
 42
1.0000
  0
VERTEX
  8
50
 10
1.7559
 20
18.2358
 30
0.0000
  0
SEQEND
  8
0
  0
POLYLINE
  8
50
 66
1
 10
0.0000
 20
0.0000
 30
0.0000
 40
0.0762
 41
0.0762
 70
0
  0
VERTEX
  8
50
 10
1.1401
 20
16.3882
 30
0.0000
 42
1.0000
  0
VERTEX
  8
50
 10
1.2123
 20
16.3642
 30
0.0000
  0
SEQEND
  8
0
  0
POLYLINE
  8
50
 66
1
 10
0.0000
 20
0.0000
 30
0.0000
 40
0.1524
 41
0.1524
 70
0
  0
VERTEX
  8
50
 10
1.7921
 20
18.2238
 30
0.0000
  0
VERTEX
  8
50
 10
2.4079
 20
16.3762
 30
0.0000
  0
SEQEND
  8
0
  0
POLYLINE
  8
50
 66
1
 10
0.0000
 20
0.0000
 30
0.0000
 40
0.0762
 41
0.0762
 70
0
  0
VERTEX
  8
50
 10
2.3718
 20
16.3642
 30
0.0000
 42
1.0000
  0
VERTEX
  8
50
 10
2.4441
 20
16.3882
 30
0.0000
  0
SEQEND
  8
0
  0
POLYLINE
  8
50
 66
1
 10
0.0000
 20
0.0000
 30
0.0000
 40
0.0762
 41
0.0762
 70
0
  0
VERTEX
  8
50
 10
1.8282
 20
18.2358
 30
0.0000
 42
1.0000
  0
VERTEX
  8
50
 10
1.7559
 20
18.2118
 30
0.0000
  0
SEQEND
  8
0
  0
POLYLINE
  8
50
 66
1
 10
0.0000
 20
0.0000
 30
0.0000
 40
0.1524
 41
0.1524
 70
0
  0
VERTEX
  8
50
 10
2.2540
 20
16.8381
 30
0.0000
  0
VERTEX
  8
50
 10
1.3302
 20
16.8381
 30
0.0000
  0
SEQEND
  8
0
  0
POLYLINE
  8
50
 66
1
 10
0.0000
 20
0.0000
 30
0.0000
 40
0.0762
 41
0.0762
 70
0
  0
VERTEX
  8
50
 10
1.3302
 20
16.8762
 30
0.0000
 42
1.0000
  0
VERTEX
  8
50
 10
1.3302
 20
16.8000
 30
0.0000
  0
SEQEND
  8
0
  0
POLYLINE
  8
50
 66
1
 10
0.0000
 20
0.0000
 30
0.0000
 40
0.0762
 41
0.0762
 70
0
  0
VERTEX
  8
50
 10
2.2540
 20
16.8000
 30
0.0000
 42
1.0000
  0
VERTEX
  8
50
 10
2.2540
 20
16.8762
 30
0.0000
  0
SEQEND
  8
0
  0
POLYLINE
  8
50
 66
1
 10
0.0000
 20
0.0000
 30
0.0000
 40
0.1524
 41
0.1524
 70
0
  0
VERTEX
  8
50
 10
3.0696
 20
16.3762
 30
0.0000
  0
VERTEX
  8
50
 10
3.0696
 20
18.2238
 30
0.0000
  0
SEQEND
  8
0
  0
POLYLINE
  8
50
 66
1
 10
0.0000
 20
0.0000
 30
0.0000
 40
0.0762
 41
0.0762
 70
0
  0
VERTEX
  8
50
 10
3.1077
 20
18.2238
 30
0.0000
 42
1.0000
  0
VERTEX
  8
50
 10
3.0315
 20
18.2238
 30
0.0000
  0
SEQEND
  8
0
  0
POLYLINE
  8
50
 66
1
 10
0.0000
 20
0.0000
 30
0.0000
 40
0.0762
 41
0.0762
 70
0
  0
VERTEX
  8
50
 10
3.0315
 20
16.3762
 30
0.0000
 42
1.0000
  0
VERTEX
  8
50
 10
3.1077
 20
16.3762
 30
0.0000
  0
SEQEND
  8
0
  0
POLYLINE
  8
50
 66
1
 10
0.0000
 20
0.0000
 30
0.0000
 40
0.1524
 41
0.1524
 70
0
  0
VERTEX
  8
50
 10
3.0696
 20
18.2238
 30
0.0000
  0
VERTEX
  8
50
 10
3.5828
 20
18.2238
 30
0.0000
  0
SEQEND
  8
0
  0
POLYLINE
  8
50
 66
1
 10
0.0000
 20
0.0000
 30
0.0000
 40
0.0762
 41
0.0762
 70
0
  0
VERTEX
  8
50
 10
3.5828
 20
18.1857
 30
0.0000
 42
1.0000
  0
VERTEX
  8
50
 10
3.5828
 20
18.2619
 30
0.0000
  0
SEQEND
  8
0
  0
POLYLINE
  8
50
 66
1
 10
0.0000
 20
0.0000
 30
0.0000
 40
0.0762
 41
0.0762
 70
0
  0
VERTEX
  8
50
 10
3.0696
 20
18.2619
 30
0.0000
 42
1.0000
  0
VERTEX
  8
50
 10
3.0696
 20
18.1857
 30
0.0000
  0
SEQEND
  8
0
  0
POLYLINE
  8
50
 66
1
 10
0.0000
 20
0.0000
 30
0.0000
 40
0.1524
 41
0.1524
 70
0
  0
VERTEX
  8
50
 10
3.5828
 20
17.1974
 30
0.0000
 42
1.0000
  0
VERTEX
  8
50
 10
3.5828
 20
18.2238
 30
0.0000
  0
SEQEND
  8
0
  0
POLYLINE
  8
50
 66
1
 10
0.0000
 20
0.0000
 30
0.0000
 40
0.0762
 41
0.0762
 70
0
  0
VERTEX
  8
50
 10
3.5828
 20
17.2355
 30
0.0000
 42
1.0000
  0
VERTEX
  8
50
 10
3.5828
 20
17.1593
 30
0.0000
  0
SEQEND
  8
0
  0
POLYLINE
  8
50
 66
1
 10
0.0000
 20
0.0000
 30
0.0000
 40
0.0762
 41
0.0762
 70
0
  0
VERTEX
  8
50
 10
3.5828
 20
18.2619
 30
0.0000
 42
1.0000
  0
VERTEX
  8
50
 10
3.5828
 20
18.1857
 30
0.0000
  0
SEQEND
  8
0
  0
POLYLINE
  8
50
 66
1
 10
0.0000
 20
0.0000
 30
0.0000
 40
0.1524
 41
0.1524
 70
0
  0
VERTEX
  8
50
 10
3.5828
 20
17.1974
 30
0.0000
  0
VERTEX
  8
50
 10
3.0696
 20
17.1974
 30
0.0000
  0
SEQEND
  8
0
  0
POLYLINE
  8
50
 66
1
 10
0.0000
 20
0.0000
 30
0.0000
 40
0.0762
 41
0.0762
 70
0
  0
VERTEX
  8
50
 10
3.0696
 20
17.2355
 30
0.0000
 42
1.0000
  0
VERTEX
  8
50
 10
3.0696
 20
17.1593
 30
0.0000
  0
SEQEND
  8
0
  0
POLYLINE
  8
50
 66
1
 10
0.0000
 20
0.0000
 30
0.0000
 40
0.0762
 41
0.0762
 70
0
  0
VERTEX
  8
50
 10
3.5828
 20
17.1593
 30
0.0000
 42
1.0000
  0
VERTEX
  8
50
 10
3.5828
 20
17.2355
 30
0.0000
  0
SEQEND
  8
0
  0
POLYLINE
  8
50
 66
1
 10
0.0000
 20
0.0000
 30
0.0000
 40
0.1524
 41
0.1524
 70
0
  0
VERTEX
  8
50
 10
4.0960
 20
16.3762
 30
0.0000
  0
VERTEX
  8
50
 10
3.6854
 20
17.1974
 30
0.0000
  0
SEQEND
  8
0
  0
POLYLINE
  8
50
 66
1
 10
0.0000
 20
0.0000
 30
0.0000
 40
0.0762
 41
0.0762
 70
0
  0
VERTEX
  8
50
 10
3.7195
 20
17.2144
 30
0.0000
 42
1.0000
  0
VERTEX
  8
50
 10
3.6513
 20
17.1803
 30
0.0000
  0
SEQEND
  8
0
  0
POLYLINE
  8
50
 66
1
 10
0.0000
 20
0.0000
 30
0.0000
 40
0.0762
 41
0.0762
 70
0
  0
VERTEX
  8
50
 10
4.0619
 20
16.3592
 30
0.0000
 42
1.0000
  0
VERTEX
  8
50
 10
4.1301
 20
16.3932
 30
0.0000
  0
SEQEND
  8
0
  0
POLYLINE
  8
50
 66
1
 10
0.0000
 20
0.0000
 30
0.0000
 40
0.1524
 41
0.1524
 70
0
  0
VERTEX
  8
50
 10
4.8438
 20
16.3762
 30
0.0000
  0
VERTEX
  8
50
 10
4.8438
 20
18.2238
 30
0.0000
  0
SEQEND
  8
0
  0
POLYLINE
  8
50
 66
1
 10
0.0000
 20
0.0000
 30
0.0000
 40
0.0762
 41
0.0762
 70
0
  0
VERTEX
  8
50
 10
4.8819
 20
18.2238
 30
0.0000
 42
1.0000
  0
VERTEX
  8
50
 10
4.8057
 20
18.2238
 30
0.0000
  0
SEQEND
  8
0
  0
POLYLINE
  8
50
 66
1
 10
0.0000
 20
0.0000
 30
0.0000
 40
0.0762
 41
0.0762
 70
0
  0
VERTEX
  8
50
 10
4.8057
 20
16.3762
 30
0.0000
 42
1.0000
  0
VERTEX
  8
50
 10
4.8819
 20
16.3762
 30
0.0000
  0
SEQEND
  8
0
  0
POLYLINE
  8
50
 66
1
 10
0.0000
 20
0.0000
 30
0.0000
 40
0.1524
 41
0.1524
 70
0
  0
VERTEX
  8
50
 10
4.8438
 20
18.2238
 30
0.0000
  0
VERTEX
  8
50
 10
5.3571
 20
18.2238
 30
0.0000
  0
SEQEND
  8
0
  0
POLYLINE
  8
50
 66
1
 10
0.0000
 20
0.0000
 30
0.0000
 40
0.0762
 41
0.0762
 70
0
  0
VERTEX
  8
50
 10
5.3571
 20
18.1857
 30
0.0000
 42
1.0000
  0
VERTEX
  8
50
 10
5.3571
 20
18.2619
 30
0.0000
  0
SEQEND
  8
0
  0
POLYLINE
  8
50
 66
1
 10
0.0000
 20
0.0000
 30
0.0000
 40
0.0762
 41
0.0762
 70
0
  0
VERTEX
  8
50
 10
4.8438
 20
18.2619
 30
0.0000
 42
1.0000
  0
VERTEX
  8
50
 10
4.8438
 20
18.1857
 30
0.0000
  0
SEQEND
  8
0
  0
POLYLINE
  8
50
 66
1
 10
0.0000
 20
0.0000
 30
0.0000
 40
0.1524
 41
0.1524
 70
0
  0
VERTEX
  8
50
 10
5.8703
 20
17.7106
 30
0.0000
 42
0.4142
  0
VERTEX
  8
50
 10
5.3571
 20
18.2238
 30
0.0000
  0
SEQEND
  8
0
  0
POLYLINE
  8
50
 66
1
 10
0.0000
 20
0.0000
 30
0.0000
 40
0.0762
 41
0.0762
 70
0
  0
VERTEX
  8
50
 10
5.8322
 20
17.7106
 30
0.0000
 42
1.0000
  0
VERTEX
  8
50
 10
5.9084
 20
17.7106
 30
0.0000
  0
SEQEND
  8
0
  0
POLYLINE
  8
50
 66
1
 10
0.0000
 20
0.0000
 30
0.0000
 40
0.0762
 41
0.0762
 70
0
  0
VERTEX
  8
50
 10
5.3571
 20
18.2619
 30
0.0000
 42
1.0000
  0
VERTEX
  8
50
 10
5.3571
 20
18.1857
 30
0.0000
  0
SEQEND
  8
0
  0
POLYLINE
  8
50
 66
1
 10
0.0000
 20
0.0000
 30
0.0000
 40
0.1524
 41
0.1524
 70
0
  0
VERTEX
  8
50
 10
5.8703
 20
17.7106
 30
0.0000
  0
VERTEX
  8
50
 10
5.8703
 20
16.8894
 30
0.0000
  0
SEQEND
  8
0
  0
POLYLINE
  8
50
 66
1
 10
0.0000
 20
0.0000
 30
0.0000
 40
0.0762
 41
0.0762
 70
0
  0
VERTEX
  8
50
 10
5.8322
 20
16.8894
 30
0.0000
 42
1.0000
  0
VERTEX
  8
50
 10
5.9084
 20
16.8894
 30
0.0000
  0
SEQEND
  8
0
  0
POLYLINE
  8
50
 66
1
 10
0.0000
 20
0.0000
 30
0.0000
 40
0.0762
 41
0.0762
 70
0
  0
VERTEX
  8
50
 10
5.9084
 20
17.7106
 30
0.0000
 42
1.0000
  0
VERTEX
  8
50
 10
5.8322
 20
17.7106
 30
0.0000
  0
SEQEND
  8
0
  0
POLYLINE
  8
50
 66
1
 10
0.0000
 20
0.0000
 30
0.0000
 40
0.1524
 41
0.1524
 70
0
  0
VERTEX
  8
50
 10
5.3571
 20
16.3762
 30
0.0000
 42
0.4142
  0
VERTEX
  8
50
 10
5.8703
 20
16.8894
 30
0.0000
  0
SEQEND
  8
0
  0
POLYLINE
  8
50
 66
1
 10
0.0000
 20
0.0000
 30
0.0000
 40
0.0762
 41
0.0762
 70
0
  0
VERTEX
  8
50
 10
5.3571
 20
16.4143
 30
0.0000
 42
1.0000
  0
VERTEX
  8
50
 10
5.3571
 20
16.3381
 30
0.0000
  0
SEQEND
  8
0
  0
POLYLINE
  8
50
 66
1
 10
0.0000
 20
0.0000
 30
0.0000
 40
0.0762
 41
0.0762
 70
0
  0
VERTEX
  8
50
 10
5.9084
 20
16.8894
 30
0.0000
 42
1.0000
  0
VERTEX
  8
50
 10
5.8322
 20
16.8894
 30
0.0000
  0
SEQEND
  8
0
  0
POLYLINE
  8
50
 66
1
 10
0.0000
 20
0.0000
 30
0.0000
 40
0.1524
 41
0.1524
 70
0
  0
VERTEX
  8
50
 10
5.3571
 20
16.3762
 30
0.0000
  0
VERTEX
  8
50
 10
4.8438
 20
16.3762
 30
0.0000
  0
SEQEND
  8
0
  0
POLYLINE
  8
50
 66
1
 10
0.0000
 20
0.0000
 30
0.0000
 40
0.0762
 41
0.0762
 70
0
  0
VERTEX
  8
50
 10
4.8438
 20
16.4143
 30
0.0000
 42
1.0000
  0
VERTEX
  8
50
 10
4.8438
 20
16.3381
 30
0.0000
  0
SEQEND
  8
0
  0
POLYLINE
  8
50
 66
1
 10
0.0000
 20
0.0000
 30
0.0000
 40
0.0762
 41
0.0762
 70
0
  0
VERTEX
  8
50
 10
5.3571
 20
16.3381
 30
0.0000
 42
1.0000
  0
VERTEX
  8
50
 10
5.3571
 20
16.4143
 30
0.0000
  0
SEQEND
  8
0
  0
POLYLINE
  8
50
 66
1
 10
0.0000
 20
0.0000
 30
0.0000
 40
0.1524
 41
0.1524
 70
0
  0
VERTEX
  8
50
 10
6.6838
 20
18.2238
 30
0.0000
  0
VERTEX
  8
50
 10
6.6838
 20
16.8894
 30
0.0000
  0
SEQEND
  8
0
  0
POLYLINE
  8
50
 66
1
 10
0.0000
 20
0.0000
 30
0.0000
 40
0.0762
 41
0.0762
 70
0
  0
VERTEX
  8
50
 10
6.6457
 20
16.8894
 30
0.0000
 42
1.0000
  0
VERTEX
  8
50
 10
6.7219
 20
16.8894
 30
0.0000
  0
SEQEND
  8
0
  0
POLYLINE
  8
50
 66
1
 10
0.0000
 20
0.0000
 30
0.0000
 40
0.0762
 41
0.0762
 70
0
  0
VERTEX
  8
50
 10
6.7219
 20
18.2238
 30
0.0000
 42
1.0000
  0
VERTEX
  8
50
 10
6.6457
 20
18.2238
 30
0.0000
  0
SEQEND
  8
0
  0
POLYLINE
  8
50
 66
1
 10
0.0000
 20
0.0000
 30
0.0000
 40
0.1524
 41
0.1524
 70
0
  0
VERTEX
  8
50
 10
6.6838
 20
16.8894
 30
0.0000
 42
1.0000
  0
VERTEX
  8
50
 10
7.7103
 20
16.8894
 30
0.0000
  0
SEQEND
  8
0
  0
POLYLINE
  8
50
 66
1
 10
0.0000
 20
0.0000
 30
0.0000
 40
0.0762
 41
0.0762
 70
0
  0
VERTEX
  8
50
 10
6.7219
 20
16.8894
 30
0.0000
 42
1.0000
  0
VERTEX
  8
50
 10
6.6457
 20
16.8894
 30
0.0000
  0
SEQEND
  8
0
  0
POLYLINE
  8
50
 66
1
 10
0.0000
 20
0.0000
 30
0.0000
 40
0.0762
 41
0.0762
 70
0
  0
VERTEX
  8
50
 10
7.7484
 20
16.8894
 30
0.0000
 42
1.0000
  0
VERTEX
  8
50
 10
7.6722
 20
16.8894
 30
0.0000
  0
SEQEND
  8
0
  0
POLYLINE
  8
50
 66
1
 10
0.0000
 20
0.0000
 30
0.0000
 40
0.1524
 41
0.1524
 70
0
  0
VERTEX
  8
50
 10
7.7103
 20
16.8894
 30
0.0000
  0
VERTEX
  8
50
 10
7.7103
 20
18.2238
 30
0.0000
  0
SEQEND
  8
0
  0
POLYLINE
  8
50
 66
1
 10
0.0000
 20
0.0000
 30
0.0000
 40
0.0762
 41
0.0762
 70
0
  0
VERTEX
  8
50
 10
7.7484
 20
18.2238
 30
0.0000
 42
1.0000
  0
VERTEX
  8
50
 10
7.6722
 20
18.2238
 30
0.0000
  0
SEQEND
  8
0
  0
POLYLINE
  8
50
 66
1
 10
0.0000
 20
0.0000
 30
0.0000
 40
0.0762
 41
0.0762
 70
0
  0
VERTEX
  8
50
 10
7.6722
 20
16.8894
 30
0.0000
 42
1.0000
  0
VERTEX
  8
50
 10
7.7484
 20
16.8894
 30
0.0000
  0
SEQEND
  8
0
  0
POLYLINE
  8
50
 66
1
 10
0.0000
 20
0.0000
 30
0.0000
 40
0.1524
 41
0.1524
 70
0
  0
VERTEX
  8
50
 10
8.6346
 20
18.2238
 30
0.0000
  0
VERTEX
  8
50
 10
8.6346
 20
16.3762
 30
0.0000
  0
SEQEND
  8
0
  0
POLYLINE
  8
50
 66
1
 10
0.0000
 20
0.0000
 30
0.0000
 40
0.0762
 41
0.0762
 70
0
  0
VERTEX
  8
50
 10
8.5965
 20
16.3762
 30
0.0000
 42
1.0000
  0
VERTEX
  8
50
 10
8.6727
 20
16.3762
 30
0.0000
  0
SEQEND
  8
0
  0
POLYLINE
  8
50
 66
1
 10
0.0000
 20
0.0000
 30
0.0000
 40
0.0762
 41
0.0762
 70
0
  0
VERTEX
  8
50
 10
8.6727
 20
18.2238
 30
0.0000
 42
1.0000
  0
VERTEX
  8
50
 10
8.5965
 20
18.2238
 30
0.0000
  0
SEQEND
  8
0
  0
POLYLINE
  8
50
 66
1
 10
0.0000
 20
0.0000
 30
0.0000
 40
0.1524
 41
0.1524
 70
0
  0
VERTEX
  8
50
 10
8.4293
 20
16.3762
 30
0.0000
  0
VERTEX
  8
50
 10
8.8399
 20
16.3762
 30
0.0000
  0
SEQEND
  8
0
  0
POLYLINE
  8
50
 66
1
 10
0.0000
 20
0.0000
 30
0.0000
 40
0.0762
 41
0.0762
 70
0
  0
VERTEX
  8
50
 10
8.8399
 20
16.3381
 30
0.0000
 42
1.0000
  0
VERTEX
  8
50
 10
8.8399
 20
16.4143
 30
0.0000
  0
SEQEND
  8
0
  0
POLYLINE
  8
50
 66
1
 10
0.0000
 20
0.0000
 30
0.0000
 40
0.0762
 41
0.0762
 70
0
  0
VERTEX
  8
50
 10
8.4293
 20
16.4143
 30
0.0000
 42
1.0000
  0
VERTEX
  8
50
 10
8.4293
 20
16.3381
 30
0.0000
  0
SEQEND
  8
0
  0
POLYLINE
  8
50
 66
1
 10
0.0000
 20
0.0000
 30
0.0000
 40
0.1524
 41
0.1524
 70
0
  0
VERTEX
  8
50
 10
8.4293
 20
18.2238
 30
0.0000
  0
VERTEX
  8
50
 10
8.8399
 20
18.2238
 30
0.0000
  0
SEQEND
  8
0
  0
POLYLINE
  8
50
 66
1
 10
0.0000
 20
0.0000
 30
0.0000
 40
0.0762
 41
0.0762
 70
0
  0
VERTEX
  8
50
 10
8.8399
 20
18.1857
 30
0.0000
 42
1.0000
  0
VERTEX
  8
50
 10
8.8399
 20
18.2619
 30
0.0000
  0
SEQEND
  8
0
  0
POLYLINE
  8
50
 66
1
 10
0.0000
 20
0.0000
 30
0.0000
 40
0.0762
 41
0.0762
 70
0
  0
VERTEX
  8
50
 10
8.4293
 20
18.2619
 30
0.0000
 42
1.0000
  0
VERTEX
  8
50
 10
8.4293
 20
18.1857
 30
0.0000
  0
SEQEND
  8
0
  0
POLYLINE
  8
50
 66
1
 10
0.0000
 20
0.0000
 30
0.0000
 40
0.1524
 41
0.1524
 70
0
  0
VERTEX
  8
50
 10
9.5588
 20
16.3762
 30
0.0000
  0
VERTEX
  8
50
 10
9.5588
 20
18.2238
 30
0.0000
  0
SEQEND
  8
0
  0
POLYLINE
  8
50
 66
1
 10
0.0000
 20
0.0000
 30
0.0000
 40
0.0762
 41
0.0762
 70
0
  0
VERTEX
  8
50
 10
9.5969
 20
18.2238
 30
0.0000
 42
1.0000
  0
VERTEX
  8
50
 10
9.5207
 20
18.2238
 30
0.0000
  0
SEQEND
  8
0
  0
POLYLINE
  8
50
 66
1
 10
0.0000
 20
0.0000
 30
0.0000
 40
0.0762
 41
0.0762
 70
0
  0
VERTEX
  8
50
 10
9.5207
 20
16.3762
 30
0.0000
 42
1.0000
  0
VERTEX
  8
50
 10
9.5969
 20
16.3762
 30
0.0000
  0
SEQEND
  8
0
  0
POLYLINE
  8
50
 66
1
 10
0.0000
 20
0.0000
 30
0.0000
 40
0.1524
 41
0.1524
 70
0
  0
VERTEX
  8
50
 10
9.5588
 20
18.2238
 30
0.0000
  0
VERTEX
  8
50
 10
10.5853
 20
16.3762
 30
0.0000
  0
SEQEND
  8
0
  0
POLYLINE
  8
50
 66
1
 10
0.0000
 20
0.0000
 30
0.0000
 40
0.0762
 41
0.0762
 70
0
  0
VERTEX
  8
50
 10
10.5520
 20
16.3577
 30
0.0000
 42
1.0000
  0
VERTEX
  8
50
 10
10.6186
 20
16.3947
 30
0.0000
  0
SEQEND
  8
0
  0
POLYLINE
  8
50
 66
1
 10
0.0000
 20
0.0000
 30
0.0000
 40
0.0762
 41
0.0762
 70
0
  0
VERTEX
  8
50
 10
9.5921
 20
18.2423
 30
0.0000
 42
1.0000
  0
VERTEX
  8
50
 10
9.5255
 20
18.2053
 30
0.0000
  0
SEQEND
  8
0
  0
POLYLINE
  8
50
 66
1
 10
0.0000
 20
0.0000
 30
0.0000
 40
0.1524
 41
0.1524
 70
0
  0
VERTEX
  8
50
 10
10.5853
 20
16.3762
 30
0.0000
  0
VERTEX
  8
50
 10
10.5853
 20
18.2238
 30
0.0000
  0
SEQEND
  8
0
  0
POLYLINE
  8
50
 66
1
 10
0.0000
 20
0.0000
 30
0.0000
 40
0.0762
 41
0.0762
 70
0
  0
VERTEX
  8
50
 10
10.6234
 20
18.2238
 30
0.0000
 42
1.0000
  0
VERTEX
  8
50
 10
10.5472
 20
18.2238
 30
0.0000
  0
SEQEND
  8
0
  0
POLYLINE
  8
50
 66
1
 10
0.0000
 20
0.0000
 30
0.0000
 40
0.0762
 41
0.0762
 70
0
  0
VERTEX
  8
50
 10
10.5472
 20
16.3762
 30
0.0000
 42
1.0000
  0
VERTEX
  8
50
 10
10.6234
 20
16.3762
 30
0.0000
  0
SEQEND
  8
0
  0
POLYLINE
  8
50
 66
1
 10
0.0000
 20
0.0000
 30
0.0000
 40
0.1524
 41
0.1524
 70
0
  0
VERTEX
  8
50
 10
11.3413
 20
16.8894
 30
0.0000
  0
VERTEX
  8
50
 10
11.3413
 20
17.7106
 30
0.0000
  0
SEQEND
  8
0
  0
POLYLINE
  8
50
 66
1
 10
0.0000
 20
0.0000
 30
0.0000
 40
0.0762
 41
0.0762
 70
0
  0
VERTEX
  8
50
 10
11.3794
 20
17.7106
 30
0.0000
 42
1.0000
  0
VERTEX
  8
50
 10
11.3032
 20
17.7106
 30
0.0000
  0
SEQEND
  8
0
  0
POLYLINE
  8
50
 66
1
 10
0.0000
 20
0.0000
 30
0.0000
 40
0.0762
 41
0.0762
 70
0
  0
VERTEX
  8
50
 10
11.3032
 20
16.8894
 30
0.0000
 42
1.0000
  0
VERTEX
  8
50
 10
11.3794
 20
16.8894
 30
0.0000
  0
SEQEND
  8
0
  0
POLYLINE
  8
50
 66
1
 10
0.0000
 20
0.0000
 30
0.0000
 40
0.1524
 41
0.1524
 70
0
  0
VERTEX
  8
50
 10
12.3678
 20
17.7106
 30
0.0000
 42
1.0000
  0
VERTEX
  8
50
 10
11.3413
 20
17.7106
 30
0.0000
  0
SEQEND
  8
0
  0
POLYLINE
  8
50
 66
1
 10
0.0000
 20
0.0000
 30
0.0000
 40
0.0762
 41
0.0762
 70
0
  0
VERTEX
  8
50
 10
12.3297
 20
17.7106
 30
0.0000
 42
1.0000
  0
VERTEX
  8
50
 10
12.4059
 20
17.7106
 30
0.0000
  0
SEQEND
  8
0
  0
POLYLINE
  8
50
 66
1
 10
0.0000
 20
0.0000
 30
0.0000
 40
0.0762
 41
0.0762
 70
0
  0
VERTEX
  8
50
 10
11.3032
 20
17.7106
 30
0.0000
 42
1.0000
  0
VERTEX
  8
50
 10
11.3794
 20
17.7106
 30
0.0000
  0
SEQEND
  8
0
  0
POLYLINE
  8
50
 66
1
 10
0.0000
 20
0.0000
 30
0.0000
 40
0.1524
 41
0.1524
 70
0
  0
VERTEX
  8
50
 10
12.3678
 20
17.7106
 30
0.0000
  0
VERTEX
  8
50
 10
12.3678
 20
16.8894
 30
0.0000
  0
SEQEND
  8
0
  0
POLYLINE
  8
50
 66
1
 10
0.0000
 20
0.0000
 30
0.0000
 40
0.0762
 41
0.0762
 70
0
  0
VERTEX
  8
50
 10
12.3297
 20
16.8894
 30
0.0000
 42
1.0000
  0
VERTEX
  8
50
 10
12.4059
 20
16.8894
 30
0.0000
  0
SEQEND
  8
0
  0
POLYLINE
  8
50
 66
1
 10
0.0000
 20
0.0000
 30
0.0000
 40
0.0762
 41
0.0762
 70
0
  0
VERTEX
  8
50
 10
12.4059
 20
17.7106
 30
0.0000
 42
1.0000
  0
VERTEX
  8
50
 10
12.3297
 20
17.7106
 30
0.0000
  0
SEQEND
  8
0
  0
POLYLINE
  8
50
 66
1
 10
0.0000
 20
0.0000
 30
0.0000
 40
0.1524
 41
0.1524
 70
0
  0
VERTEX
  8
50
 10
11.3413
 20
16.8894
 30
0.0000
 42
1.0000
  0
VERTEX
  8
50
 10
12.3678
 20
16.8894
 30
0.0000
  0
SEQEND
  8
0
  0
POLYLINE
  8
50
 66
1
 10
0.0000
 20
0.0000
 30
0.0000
 40
0.0762
 41
0.0762
 70
0
  0
VERTEX
  8
50
 10
11.3794
 20
16.8894
 30
0.0000
 42
1.0000
  0
VERTEX
  8
50
 10
11.3032
 20
16.8894
 30
0.0000
  0
SEQEND
  8
0
  0
POLYLINE
  8
50
 66
1
 10
0.0000
 20
0.0000
 30
0.0000
 40
0.0762
 41
0.0762
 70
0
  0
VERTEX
  8
50
 10
12.4059
 20
16.8894
 30
0.0000
 42
1.0000
  0
VERTEX
  8
50
 10
12.3297
 20
16.8894
 30
0.0000
  0
SEQEND
  8
0
  0
POLYLINE
  8
50
 66
1
 10
0.0000
 20
0.0000
 30
0.0000
 40
0.1524
 41
0.1524
 70
0
  0
VERTEX
  8
50
 10
14.0438
 20
16.3762
 30
0.0000
  0
VERTEX
  8
50
 10
14.0438
 20
18.2238
 30
0.0000
  0
SEQEND
  8
0
  0
POLYLINE
  8
50
 66
1
 10
0.0000
 20
0.0000
 30
0.0000
 40
0.0762
 41
0.0762
 70
0
  0
VERTEX
  8
50
 10
14.0819
 20
18.2238
 30
0.0000
 42
1.0000
  0
VERTEX
  8
50
 10
14.0057
 20
18.2238
 30
0.0000
  0
SEQEND
  8
0
  0
POLYLINE
  8
50
 66
1
 10
0.0000
 20
0.0000
 30
0.0000
 40
0.0762
 41
0.0762
 70
0
  0
VERTEX
  8
50
 10
14.0057
 20
16.3762
 30
0.0000
 42
1.0000
  0
VERTEX
  8
50
 10
14.0819
 20
16.3762
 30
0.0000
  0
SEQEND
  8
0
  0
POLYLINE
  8
50
 66
1
 10
0.0000
 20
0.0000
 30
0.0000
 40
0.1524
 41
0.1524
 70
0
  0
VERTEX
  8
50
 10
14.0438
 20
18.2238
 30
0.0000
  0
VERTEX
  8
50
 10
15.0703
 20
16.3762
 30
0.0000
  0
SEQEND
  8
0
  0
POLYLINE
  8
50
 66
1
 10
0.0000
 20
0.0000
 30
0.0000
 40
0.0762
 41
0.0762
 70
0
  0
VERTEX
  8
50
 10
15.0370
 20
16.3577
 30
0.0000
 42
1.0000
  0
VERTEX
  8
50
 10
15.1036
 20
16.3947
 30
0.0000
  0
SEQEND
  8
0
  0
POLYLINE
  8
50
 66
1
 10
0.0000
 20
0.0000
 30
0.0000
 40
0.0762
 41
0.0762
 70
0
  0
VERTEX
  8
50
 10
14.0771
 20
18.2423
 30
0.0000
 42
1.0000
  0
VERTEX
  8
50
 10
14.0105
 20
18.2053
 30
0.0000
  0
SEQEND
  8
0
  0
POLYLINE
  8
50
 66
1
 10
0.0000
 20
0.0000
 30
0.0000
 40
0.1524
 41
0.1524
 70
0
  0
VERTEX
  8
50
 10
15.0703
 20
16.3762
 30
0.0000
  0
VERTEX
  8
50
 10
15.0703
 20
18.2238
 30
0.0000
  0
SEQEND
  8
0
  0
POLYLINE
  8
50
 66
1
 10
0.0000
 20
0.0000
 30
0.0000
 40
0.0762
 41
0.0762
 70
0
  0
VERTEX
  8
50
 10
15.1084
 20
18.2238
 30
0.0000
 42
1.0000
  0
VERTEX
  8
50
 10
15.0322
 20
18.2238
 30
0.0000
  0
SEQEND
  8
0
  0
POLYLINE
  8
50
 66
1
 10
0.0000
 20
0.0000
 30
0.0000
 40
0.0762
 41
0.0762
 70
0
  0
VERTEX
  8
50
 10
15.0322
 20
16.3762
 30
0.0000
 42
1.0000
  0
VERTEX
  8
50
 10
15.1084
 20
16.3762
 30
0.0000
  0
SEQEND
  8
0
  0
POLYLINE
  8
50
 66
1
 10
0.0000
 20
0.0000
 30
0.0000
 40
0.1524
 41
0.1524
 70
0
  0
VERTEX
  8
50
 10
15.7237
 20
16.3762
 30
0.0000
  0
VERTEX
  8
50
 10
16.3396
 20
18.2238
 30
0.0000
  0
SEQEND
  8
0
  0
POLYLINE
  8
50
 66
1
 10
0.0000
 20
0.0000
 30
0.0000
 40
0.0762
 41
0.0762
 70
0
  0
VERTEX
  8
50
 10
16.3757
 20
18.2118
 30
0.0000
 42
1.0000
  0
VERTEX
  8
50
 10
16.3034
 20
18.2358
 30
0.0000
  0
SEQEND
  8
0
  0
POLYLINE
  8
50
 66
1
 10
0.0000
 20
0.0000
 30
0.0000
 40
0.0762
 41
0.0762
 70
0
  0
VERTEX
  8
50
 10
15.6875
 20
16.3882
 30
0.0000
 42
1.0000
  0
VERTEX
  8
50
 10
15.7598
 20
16.3642
 30
0.0000
  0
SEQEND
  8
0
  0
POLYLINE
  8
50
 66
1
 10
0.0000
 20
0.0000
 30
0.0000
 40
0.1524
 41
0.1524
 70
0
  0
VERTEX
  8
50
 10
16.3396
 20
18.2238
 30
0.0000
  0
VERTEX
  8
50
 10
16.9554
 20
16.3762
 30
0.0000
  0
SEQEND
  8
0
  0
POLYLINE
  8
50
 66
1
 10
0.0000
 20
0.0000
 30
0.0000
 40
0.0762
 41
0.0762
 70
0
  0
VERTEX
  8
50
 10
16.9193
 20
16.3642
 30
0.0000
 42
1.0000
  0
VERTEX
  8
50
 10
16.9916
 20
16.3882
 30
0.0000
  0
SEQEND
  8
0
  0
POLYLINE
  8
50
 66
1
 10
0.0000
 20
0.0000
 30
0.0000
 40
0.0762
 41
0.0762
 70
0
  0
VERTEX
  8
50
 10
16.3757
 20
18.2358
 30
0.0000
 42
1.0000
  0
VERTEX
  8
50
 10
16.3034
 20
18.2118
 30
0.0000
  0
SEQEND
  8
0
  0
POLYLINE
  8
50
 66
1
 10
0.0000
 20
0.0000
 30
0.0000
 40
0.1524
 41
0.1524
 70
0
  0
VERTEX
  8
50
 10
16.8015
 20
16.8381
 30
0.0000
  0
VERTEX
  8
50
 10
15.8777
 20
16.8381
 30
0.0000
  0
SEQEND
  8
0
  0
POLYLINE
  8
50
 66
1
 10
0.0000
 20
0.0000
 30
0.0000
 40
0.0762
 41
0.0762
 70
0
  0
VERTEX
  8
50
 10
15.8777
 20
16.8762
 30
0.0000
 42
1.0000
  0
VERTEX
  8
50
 10
15.8777
 20
16.8000
 30
0.0000
  0
SEQEND
  8
0
  0
POLYLINE
  8
50
 66
1
 10
0.0000
 20
0.0000
 30
0.0000
 40
0.0762
 41
0.0762
 70
0
  0
VERTEX
  8
50
 10
16.8015
 20
16.8000
 30
0.0000
 42
1.0000
  0
VERTEX
  8
50
 10
16.8015
 20
16.8762
 30
0.0000
  0
SEQEND
  8
0
  0
POLYLINE
  8
50
 66
1
 10
0.0000
 20
0.0000
 30
0.0000
 40
0.1524
 41
0.1524
 70
0
  0
VERTEX
  8
50
 10
17.6088
 20
16.3762
 30
0.0000
  0
VERTEX
  8
50
 10
17.6088
 20
18.2238
 30
0.0000
  0
SEQEND
  8
0
  0
POLYLINE
  8
50
 66
1
 10
0.0000
 20
0.0000
 30
0.0000
 40
0.0762
 41
0.0762
 70
0
  0
VERTEX
  8
50
 10
17.6469
 20
18.2238
 30
0.0000
 42
1.0000
  0
VERTEX
  8
50
 10
17.5707
 20
18.2238
 30
0.0000
  0
SEQEND
  8
0
  0
POLYLINE
  8
50
 66
1
 10
0.0000
 20
0.0000
 30
0.0000
 40
0.0762
 41
0.0762
 70
0
  0
VERTEX
  8
50
 10
17.5707
 20
16.3762
 30
0.0000
 42
1.0000
  0
VERTEX
  8
50
 10
17.6469
 20
16.3762
 30
0.0000
  0
SEQEND
  8
0
  0
POLYLINE
  8
50
 66
1
 10
0.0000
 20
0.0000
 30
0.0000
 40
0.1524
 41
0.1524
 70
0
  0
VERTEX
  8
50
 10
17.6088
 20
18.2238
 30
0.0000
  0
VERTEX
  8
50
 10
18.6353
 20
16.3762
 30
0.0000
  0
SEQEND
  8
0
  0
POLYLINE
  8
50
 66
1
 10
0.0000
 20
0.0000
 30
0.0000
 40
0.0762
 41
0.0762
 70
0
  0
VERTEX
  8
50
 10
18.6020
 20
16.3577
 30
0.0000
 42
1.0000
  0
VERTEX
  8
50
 10
18.6686
 20
16.3947
 30
0.0000
  0
SEQEND
  8
0
  0
POLYLINE
  8
50
 66
1
 10
0.0000
 20
0.0000
 30
0.0000
 40
0.0762
 41
0.0762
 70
0
  0
VERTEX
  8
50
 10
17.6421
 20
18.2423
 30
0.0000
 42
1.0000
  0
VERTEX
  8
50
 10
17.5755
 20
18.2053
 30
0.0000
  0
SEQEND
  8
0
  0
POLYLINE
  8
50
 66
1
 10
0.0000
 20
0.0000
 30
0.0000
 40
0.1524
 41
0.1524
 70
0
  0
VERTEX
  8
50
 10
18.6353
 20
16.3762
 30
0.0000
  0
VERTEX
  8
50
 10
18.6353
 20
18.2238
 30
0.0000
  0
SEQEND
  8
0
  0
POLYLINE
  8
50
 66
1
 10
0.0000
 20
0.0000
 30
0.0000
 40
0.0762
 41
0.0762
 70
0
  0
VERTEX
  8
50
 10
18.6734
 20
18.2238
 30
0.0000
 42
1.0000
  0
VERTEX
  8
50
 10
18.5972
 20
18.2238
 30
0.0000
  0
SEQEND
  8
0
  0
POLYLINE
  8
50
 66
1
 10
0.0000
 20
0.0000
 30
0.0000
 40
0.0762
 41
0.0762
 70
0
  0
VERTEX
  8
50
 10
18.5972
 20
16.3762
 30
0.0000
 42
1.0000
  0
VERTEX
  8
50
 10
18.6734
 20
16.3762
 30
0.0000
  0
SEQEND
  8
0
  0
POLYLINE
  8
50
 66
1
 10
0.0000
 20
0.0000
 30
0.0000
 40
0.1524
 41
0.1524
 70
0
  0
VERTEX
  8
50
 10
19.3913
 20
16.8894
 30
0.0000
  0
VERTEX
  8
50
 10
19.3913
 20
17.7106
 30
0.0000
  0
SEQEND
  8
0
  0
POLYLINE
  8
50
 66
1
 10
0.0000
 20
0.0000
 30
0.0000
 40
0.0762
 41
0.0762
 70
0
  0
VERTEX
  8
50
 10
19.4294
 20
17.7106
 30
0.0000
 42
1.0000
  0
VERTEX
  8
50
 10
19.3532
 20
17.7106
 30
0.0000
  0
SEQEND
  8
0
  0
POLYLINE
  8
50
 66
1
 10
0.0000
 20
0.0000
 30
0.0000
 40
0.0762
 41
0.0762
 70
0
  0
VERTEX
  8
50
 10
19.3532
 20
16.8894
 30
0.0000
 42
1.0000
  0
VERTEX
  8
50
 10
19.4294
 20
16.8894
 30
0.0000
  0
SEQEND
  8
0
  0
POLYLINE
  8
50
 66
1
 10
0.0000
 20
0.0000
 30
0.0000
 40
0.1524
 41
0.1524
 70
0
  0
VERTEX
  8
50
 10
20.4178
 20
17.7106
 30
0.0000
 42
1.0000
  0
VERTEX
  8
50
 10
19.3913
 20
17.7106
 30
0.0000
  0
SEQEND
  8
0
  0
POLYLINE
  8
50
 66
1
 10
0.0000
 20
0.0000
 30
0.0000
 40
0.0762
 41
0.0762
 70
0
  0
VERTEX
  8
50
 10
20.3797
 20
17.7106
 30
0.0000
 42
1.0000
  0
VERTEX
  8
50
 10
20.4559
 20
17.7106
 30
0.0000
  0
SEQEND
  8
0
  0
POLYLINE
  8
50
 66
1
 10
0.0000
 20
0.0000
 30
0.0000
 40
0.0762
 41
0.0762
 70
0
  0
VERTEX
  8
50
 10
19.3532
 20
17.7106
 30
0.0000
 42
1.0000
  0
VERTEX
  8
50
 10
19.4294
 20
17.7106
 30
0.0000
  0
SEQEND
  8
0
  0
POLYLINE
  8
50
 66
1
 10
0.0000
 20
0.0000
 30
0.0000
 40
0.1524
 41
0.1524
 70
0
  0
VERTEX
  8
50
 10
20.4178
 20
17.7106
 30
0.0000
  0
VERTEX
  8
50
 10
20.4178
 20
16.8894
 30
0.0000
  0
SEQEND
  8
0
  0
POLYLINE
  8
50
 66
1
 10
0.0000
 20
0.0000
 30
0.0000
 40
0.0762
 41
0.0762
 70
0
  0
VERTEX
  8
50
 10
20.3797
 20
16.8894
 30
0.0000
 42
1.0000
  0
VERTEX
  8
50
 10
20.4559
 20
16.8894
 30
0.0000
  0
SEQEND
  8
0
  0
POLYLINE
  8
50
 66
1
 10
0.0000
 20
0.0000
 30
0.0000
 40
0.0762
 41
0.0762
 70
0
  0
VERTEX
  8
50
 10
20.4559
 20
17.7106
 30
0.0000
 42
1.0000
  0
VERTEX
  8
50
 10
20.3797
 20
17.7106
 30
0.0000
  0
SEQEND
  8
0
  0
POLYLINE
  8
50
 66
1
 10
0.0000
 20
0.0000
 30
0.0000
 40
0.1524
 41
0.1524
 70
0
  0
VERTEX
  8
50
 10
19.3913
 20
16.8894
 30
0.0000
 42
1.0000
  0
VERTEX
  8
50
 10
20.4178
 20
16.8894
 30
0.0000
  0
SEQEND
  8
0
  0
POLYLINE
  8
50
 66
1
 10
0.0000
 20
0.0000
 30
0.0000
 40
0.0762
 41
0.0762
 70
0
  0
VERTEX
  8
50
 10
19.4294
 20
16.8894
 30
0.0000
 42
1.0000
  0
VERTEX
  8
50
 10
19.3532
 20
16.8894
 30
0.0000
  0
SEQEND
  8
0
  0
POLYLINE
  8
50
 66
1
 10
0.0000
 20
0.0000
 30
0.0000
 40
0.0762
 41
0.0762
 70
0
  0
VERTEX
  8
50
 10
20.4559
 20
16.8894
 30
0.0000
 42
1.0000
  0
VERTEX
  8
50
 10
20.3797
 20
16.8894
 30
0.0000
  0
SEQEND
  8
0
  0
POLYLINE
  8
50
 66
1
 10
0.0000
 20
0.0000
 30
0.0000
 40
0.1524
 41
0.1524
 70
0
  0
VERTEX
  8
50
 10
1.9974
 20
44.3762
 30
0.0000
  0
VERTEX
  8
50
 10
1.5868
 20
44.3762
 30
0.0000
  0
SEQEND
  8
0
  0
POLYLINE
  8
50
 66
1
 10
0.0000
 20
0.0000
 30
0.0000
 40
0.0762
 41
0.0762
 70
0
  0
VERTEX
  8
50
 10
1.5868
 20
44.4143
 30
0.0000
 42
1.0000
  0
VERTEX
  8
50
 10
1.5868
 20
44.3381
 30
0.0000
  0
SEQEND
  8
0
  0
POLYLINE
  8
50
 66
1
 10
0.0000
 20
0.0000
 30
0.0000
 40
0.0762
 41
0.0762
 70
0
  0
VERTEX
  8
50
 10
1.9974
 20
44.3381
 30
0.0000
 42
1.0000
  0
VERTEX
  8
50
 10
1.9974
 20
44.4143
 30
0.0000
  0
SEQEND
  8
0
  0
POLYLINE
  8
50
 66
1
 10
0.0000
 20
0.0000
 30
0.0000
 40
0.1524
 41
0.1524
 70
0
  0
VERTEX
  8
50
 10
1.1762
 20
44.7868
 30
0.0000
 42
0.4142
  0
VERTEX
  8
50
 10
1.5868
 20
44.3762
 30
0.0000
  0
SEQEND
  8
0
  0
POLYLINE
  8
50
 66
1
 10
0.0000
 20
0.0000
 30
0.0000
 40
0.0762
 41
0.0762
 70
0
  0
VERTEX
  8
50
 10
1.2143
 20
44.7868
 30
0.0000
 42
1.0000
  0
VERTEX
  8
50
 10
1.1381
 20
44.7868
 30
0.0000
  0
SEQEND
  8
0
  0
POLYLINE
  8
50
 66
1
 10
0.0000
 20
0.0000
 30
0.0000
 40
0.0762
 41
0.0762
 70
0
  0
VERTEX
  8
50
 10
1.5868
 20
44.3381
 30
0.0000
 42
1.0000
  0
VERTEX
  8
50
 10
1.5868
 20
44.4143
 30
0.0000
  0
SEQEND
  8
0
  0
POLYLINE
  8
50
 66
1
 10
0.0000
 20
0.0000
 30
0.0000
 40
0.1524
 41
0.1524
 70
0
  0
VERTEX
  8
50
 10
1.1762
 20
44.7868
 30
0.0000
  0
VERTEX
  8
50
 10
1.1762
 20
45.8132
 30
0.0000
  0
SEQEND
  8
0
  0
POLYLINE
  8
50
 66
1
 10
0.0000
 20
0.0000
 30
0.0000
 40
0.0762
 41
0.0762
 70
0
  0
VERTEX
  8
50
 10
1.2143
 20
45.8132
 30
0.0000
 42
1.0000
  0
VERTEX
  8
50
 10
1.1381
 20
45.8132
 30
0.0000
  0
SEQEND
  8
0
  0
POLYLINE
  8
50
 66
1
 10
0.0000
 20
0.0000
 30
0.0000
 40
0.0762
 41
0.0762
 70
0
  0
VERTEX
  8
50
 10
1.1381
 20
44.7868
 30
0.0000
 42
1.0000
  0
VERTEX
  8
50
 10
1.2143
 20
44.7868
 30
0.0000
  0
SEQEND
  8
0
  0
POLYLINE
  8
50
 66
1
 10
0.0000
 20
0.0000
 30
0.0000
 40
0.1524
 41
0.1524
 70
0
  0
VERTEX
  8
50
 10
1.5868
 20
46.2238
 30
0.0000
 42
0.4142
  0
VERTEX
  8
50
 10
1.1762
 20
45.8132
 30
0.0000
  0
SEQEND
  8
0
  0
POLYLINE
  8
50
 66
1
 10
0.0000
 20
0.0000
 30
0.0000
 40
0.0762
 41
0.0762
 70
0
  0
VERTEX
  8
50
 10
1.5868
 20
46.1857
 30
0.0000
 42
1.0000
  0
VERTEX
  8
50
 10
1.5868
 20
46.2619
 30
0.0000
  0
SEQEND
  8
0
  0
POLYLINE
  8
50
 66
1
 10
0.0000
 20
0.0000
 30
0.0000
 40
0.0762
 41
0.0762
 70
0
  0
VERTEX
  8
50
 10
1.1381
 20
45.8132
 30
0.0000
 42
1.0000
  0
VERTEX
  8
50
 10
1.2143
 20
45.8132
 30
0.0000
  0
SEQEND
  8
0
  0
POLYLINE
  8
50
 66
1
 10
0.0000
 20
0.0000
 30
0.0000
 40
0.1524
 41
0.1524
 70
0
  0
VERTEX
  8
50
 10
1.5868
 20
46.2238
 30
0.0000
  0
VERTEX
  8
50
 10
1.9974
 20
46.2238
 30
0.0000
  0
SEQEND
  8
0
  0
POLYLINE
  8
50
 66
1
 10
0.0000
 20
0.0000
 30
0.0000
 40
0.0762
 41
0.0762
 70
0
  0
VERTEX
  8
50
 10
1.9974
 20
46.1857
 30
0.0000
 42
1.0000
  0
VERTEX
  8
50
 10
1.9974
 20
46.2619
 30
0.0000
  0
SEQEND
  8
0
  0
POLYLINE
  8
50
 66
1
 10
0.0000
 20
0.0000
 30
0.0000
 40
0.0762
 41
0.0762
 70
0
  0
VERTEX
  8
50
 10
1.5868
 20
46.2619
 30
0.0000
 42
1.0000
  0
VERTEX
  8
50
 10
1.5868
 20
46.1857
 30
0.0000
  0
SEQEND
  8
0
  0
POLYLINE
  8
50
 66
1
 10
0.0000
 20
0.0000
 30
0.0000
 40
0.1524
 41
0.1524
 70
0
  0
VERTEX
  8
50
 10
2.6171
 20
44.8894
 30
0.0000
  0
VERTEX
  8
50
 10
2.6171
 20
45.7106
 30
0.0000
  0
SEQEND
  8
0
  0
POLYLINE
  8
50
 66
1
 10
0.0000
 20
0.0000
 30
0.0000
 40
0.0762
 41
0.0762
 70
0
  0
VERTEX
  8
50
 10
2.6552
 20
45.7106
 30
0.0000
 42
1.0000
  0
VERTEX
  8
50
 10
2.5790
 20
45.7106
 30
0.0000
  0
SEQEND
  8
0
  0
POLYLINE
  8
50
 66
1
 10
0.0000
 20
0.0000
 30
0.0000
 40
0.0762
 41
0.0762
 70
0
  0
VERTEX
  8
50
 10
2.5790
 20
44.8894
 30
0.0000
 42
1.0000
  0
VERTEX
  8
50
 10
2.6552
 20
44.8894
 30
0.0000
  0
SEQEND
  8
0
  0
POLYLINE
  8
50
 66
1
 10
0.0000
 20
0.0000
 30
0.0000
 40
0.1524
 41
0.1524
 70
0
  0
VERTEX
  8
50
 10
3.6435
 20
45.7106
 30
0.0000
 42
1.0000
  0
VERTEX
  8
50
 10
2.6171
 20
45.7106
 30
0.0000
  0
SEQEND
  8
0
  0
POLYLINE
  8
50
 66
1
 10
0.0000
 20
0.0000
 30
0.0000
 40
0.0762
 41
0.0762
 70
0
  0
VERTEX
  8
50
 10
3.6054
 20
45.7106
 30
0.0000
 42
1.0000
  0
VERTEX
  8
50
 10
3.6816
 20
45.7106
 30
0.0000
  0
SEQEND
  8
0
  0
POLYLINE
  8
50
 66
1
 10
0.0000
 20
0.0000
 30
0.0000
 40
0.0762
 41
0.0762
 70
0
  0
VERTEX
  8
50
 10
2.5790
 20
45.7106
 30
0.0000
 42
1.0000
  0
VERTEX
  8
50
 10
2.6552
 20
45.7106
 30
0.0000
  0
SEQEND
  8
0
  0
POLYLINE
  8
50
 66
1
 10
0.0000
 20
0.0000
 30
0.0000
 40
0.1524
 41
0.1524
 70
0
  0
VERTEX
  8
50
 10
3.6435
 20
45.7106
 30
0.0000
  0
VERTEX
  8
50
 10
3.6435
 20
44.8894
 30
0.0000
  0
SEQEND
  8
0
  0
POLYLINE
  8
50
 66
1
 10
0.0000
 20
0.0000
 30
0.0000
 40
0.0762
 41
0.0762
 70
0
  0
VERTEX
  8
50
 10
3.6054
 20
44.8894
 30
0.0000
 42
1.0000
  0
VERTEX
  8
50
 10
3.6816
 20
44.8894
 30
0.0000
  0
SEQEND
  8
0
  0
POLYLINE
  8
50
 66
1
 10
0.0000
 20
0.0000
 30
0.0000
 40
0.0762
 41
0.0762
 70
0
  0
VERTEX
  8
50
 10
3.6816
 20
45.7106
 30
0.0000
 42
1.0000
  0
VERTEX
  8
50
 10
3.6054
 20
45.7106
 30
0.0000
  0
SEQEND
  8
0
  0
POLYLINE
  8
50
 66
1
 10
0.0000
 20
0.0000
 30
0.0000
 40
0.1524
 41
0.1524
 70
0
  0
VERTEX
  8
50
 10
2.6171
 20
44.8894
 30
0.0000
 42
1.0000
  0
VERTEX
  8
50
 10
3.6435
 20
44.8894
 30
0.0000
  0
SEQEND
  8
0
  0
POLYLINE
  8
50
 66
1
 10
0.0000
 20
0.0000
 30
0.0000
 40
0.0762
 41
0.0762
 70
0
  0
VERTEX
  8
50
 10
2.6552
 20
44.8894
 30
0.0000
 42
1.0000
  0
VERTEX
  8
50
 10
2.5790
 20
44.8894
 30
0.0000
  0
SEQEND
  8
0
  0
POLYLINE
  8
50
 66
1
 10
0.0000
 20
0.0000
 30
0.0000
 40
0.0762
 41
0.0762
 70
0
  0
VERTEX
  8
50
 10
3.6816
 20
44.8894
 30
0.0000
 42
1.0000
  0
VERTEX
  8
50
 10
3.6054
 20
44.8894
 30
0.0000
  0
SEQEND
  8
0
  0
POLYLINE
  8
50
 66
1
 10
0.0000
 20
0.0000
 30
0.0000
 40
0.1524
 41
0.1524
 70
0
  0
VERTEX
  8
50
 10
4.3996
 20
44.3762
 30
0.0000
  0
VERTEX
  8
50
 10
4.3996
 20
46.2238
 30
0.0000
  0
SEQEND
  8
0
  0
POLYLINE
  8
50
 66
1
 10
0.0000
 20
0.0000
 30
0.0000
 40
0.0762
 41
0.0762
 70
0
  0
VERTEX
  8
50
 10
4.4377
 20
46.2238
 30
0.0000
 42
1.0000
  0
VERTEX
  8
50
 10
4.3615
 20
46.2238
 30
0.0000
  0
SEQEND
  8
0
  0
POLYLINE
  8
50
 66
1
 10
0.0000
 20
0.0000
 30
0.0000
 40
0.0762
 41
0.0762
 70
0
  0
VERTEX
  8
50
 10
4.3615
 20
44.3762
 30
0.0000
 42
1.0000
  0
VERTEX
  8
50
 10
4.4377
 20
44.3762
 30
0.0000
  0
SEQEND
  8
0
  0
POLYLINE
  8
50
 66
1
 10
0.0000
 20
0.0000
 30
0.0000
 40
0.1524
 41
0.1524
 70
0
  0
VERTEX
  8
50
 10
4.3996
 20
46.2238
 30
0.0000
  0
VERTEX
  8
50
 10
5.4260
 20
44.3762
 30
0.0000
  0
SEQEND
  8
0
  0
POLYLINE
  8
50
 66
1
 10
0.0000
 20
0.0000
 30
0.0000
 40
0.0762
 41
0.0762
 70
0
  0
VERTEX
  8
50
 10
5.3927
 20
44.3577
 30
0.0000
 42
1.0000
  0
VERTEX
  8
50
 10
5.4594
 20
44.3947
 30
0.0000
  0
SEQEND
  8
0
  0
POLYLINE
  8
50
 66
1
 10
0.0000
 20
0.0000
 30
0.0000
 40
0.0762
 41
0.0762
 70
0
  0
VERTEX
  8
50
 10
4.4329
 20
46.2423
 30
0.0000
 42
1.0000
  0
VERTEX
  8
50
 10
4.3663
 20
46.2053
 30
0.0000
  0
SEQEND
  8
0
  0
POLYLINE
  8
50
 66
1
 10
0.0000
 20
0.0000
 30
0.0000
 40
0.1524
 41
0.1524
 70
0
  0
VERTEX
  8
50
 10
5.4260
 20
44.3762
 30
0.0000
  0
VERTEX
  8
50
 10
5.4260
 20
46.2238
 30
0.0000
  0
SEQEND
  8
0
  0
POLYLINE
  8
50
 66
1
 10
0.0000
 20
0.0000
 30
0.0000
 40
0.0762
 41
0.0762
 70
0
  0
VERTEX
  8
50
 10
5.4641
 20
46.2238
 30
0.0000
 42
1.0000
  0
VERTEX
  8
50
 10
5.3879
 20
46.2238
 30
0.0000
  0
SEQEND
  8
0
  0
POLYLINE
  8
50
 66
1
 10
0.0000
 20
0.0000
 30
0.0000
 40
0.0762
 41
0.0762
 70
0
  0
VERTEX
  8
50
 10
5.3879
 20
44.3762
 30
0.0000
 42
1.0000
  0
VERTEX
  8
50
 10
5.4641
 20
44.3762
 30
0.0000
  0
SEQEND
  8
0
  0
POLYLINE
  8
50
 66
1
 10
0.0000
 20
0.0000
 30
0.0000
 40
0.1524
 41
0.1524
 70
0
  0
VERTEX
  8
50
 10
84.6921
 20
1.0762
 30
0.0000
 42
0.4142
  0
VERTEX
  8
50
 10
85.1026
 20
1.4868
 30
0.0000
  0
SEQEND
  8
0
  0
POLYLINE
  8
50
 66
1
 10
0.0000
 20
0.0000
 30
0.0000
 40
0.0762
 41
0.0762
 70
0
  0
VERTEX
  8
50
 10
84.6921
 20
1.1143
 30
0.0000
 42
1.0000
  0
VERTEX
  8
50
 10
84.6921
 20
1.0381
 30
0.0000
  0
SEQEND
  8
0
  0
POLYLINE
  8
50
 66
1
 10
0.0000
 20
0.0000
 30
0.0000
 40
0.0762
 41
0.0762
 70
0
  0
VERTEX
  8
50
 10
85.1407
 20
1.4868
 30
0.0000
 42
1.0000
  0
VERTEX
  8
50
 10
85.0645
 20
1.4868
 30
0.0000
  0
SEQEND
  8
0
  0
POLYLINE
  8
50
 66
1
 10
0.0000
 20
0.0000
 30
0.0000
 40
0.1524
 41
0.1524
 70
0
  0
VERTEX
  8
50
 10
84.0762
 20
1.3328
 30
0.0000
 42
0.2000
  0
VERTEX
  8
50
 10
84.6921
 20
1.0762
 30
0.0000
  0
SEQEND
  8
0
  0
POLYLINE
  8
50
 66
1
 10
0.0000
 20
0.0000
 30
0.0000
 40
0.0762
 41
0.0762
 70
0
  0
VERTEX
  8
50
 10
84.1033
 20
1.3596
 30
0.0000
 42
1.0000
  0
VERTEX
  8
50
 10
84.0491
 20
1.3060
 30
0.0000
  0
SEQEND
  8
0
  0
POLYLINE
  8
50
 66
1
 10
0.0000
 20
0.0000
 30
0.0000
 40
0.0762
 41
0.0762
 70
0
  0
VERTEX
  8
50
 10
84.6921
 20
1.0381
 30
0.0000
 42
1.0000
  0
VERTEX
  8
50
 10
84.6921
 20
1.1143
 30
0.0000
  0
SEQEND
  8
0
  0
POLYLINE
  8
50
 66
1
 10
0.0000
 20
0.0000
 30
0.0000
 40
0.1524
 41
0.1524
 70
0
  0
VERTEX
  8
50
 10
84.5381
 20
2.9238
 30
0.0000
 42
0.4142
  0
VERTEX
  8
50
 10
84.1275
 20
2.5132
 30
0.0000
  0
SEQEND
  8
0
  0
POLYLINE
  8
50
 66
1
 10
0.0000
 20
0.0000
 30
0.0000
 40
0.0762
 41
0.0762
 70
0
  0
VERTEX
  8
50
 10
84.5381
 20
2.8857
 30
0.0000
 42
1.0000
  0
VERTEX
  8
50
 10
84.5381
 20
2.9619
 30
0.0000
  0
SEQEND
  8
0
  0
POLYLINE
  8
50
 66
1
 10
0.0000
 20
0.0000
 30
0.0000
 40
0.0762
 41
0.0762
 70
0
  0
VERTEX
  8
50
 10
84.0894
 20
2.5132
 30
0.0000
 42
1.0000
  0
VERTEX
  8
50
 10
84.1656
 20
2.5132
 30
0.0000
  0
SEQEND
  8
0
  0
POLYLINE
  8
50
 66
1
 10
0.0000
 20
0.0000
 30
0.0000
 40
0.1524
 41
0.1524
 70
0
  0
VERTEX
  8
50
 10
85.0000
 20
2.7698
 30
0.0000
 42
0.1623
  0
VERTEX
  8
50
 10
84.5381
 20
2.9238
 30
0.0000
  0
SEQEND
  8
0
  0
POLYLINE
  8
50
 66
1
 10
0.0000
 20
0.0000
 30
0.0000
 40
0.0762
 41
0.0762
 70
0
  0
VERTEX
  8
50
 10
84.9771
 20
2.7394
 30
0.0000
 42
1.0000
  0
VERTEX
  8
50
 10
85.0229
 20
2.8003
 30
0.0000
  0
SEQEND
  8
0
  0
POLYLINE
  8
50
 66
1
 10
0.0000
 20
0.0000
 30
0.0000
 40
0.0762
 41
0.0762
 70
0
  0
VERTEX
  8
50
 10
84.5381
 20
2.9619
 30
0.0000
 42
1.0000
  0
VERTEX
  8
50
 10
84.5381
 20
2.8857
 30
0.0000
  0
SEQEND
  8
0
  0
POLYLINE
  8
50
 66
1
 10
0.0000
 20
0.0000
 30
0.0000
 40
0.1524
 41
0.1524
 70
0
  0
VERTEX
  8
50
 10
84.1275
 20
2.5132
 30
0.0000
 42
0.2656
  0
VERTEX
  8
50
 10
84.3328
 20
2.1540
 30
0.0000
  0
SEQEND
  8
0
  0
POLYLINE
  8
50
 66
1
 10
0.0000
 20
0.0000
 30
0.0000
 40
0.0762
 41
0.0762
 70
0
  0
VERTEX
  8
50
 10
84.1656
 20
2.5132
 30
0.0000
 42
1.0000
  0
VERTEX
  8
50
 10
84.0894
 20
2.5132
 30
0.0000
  0
SEQEND
  8
0
  0
POLYLINE
  8
50
 66
1
 10
0.0000
 20
0.0000
 30
0.0000
 40
0.0762
 41
0.0762
 70
0
  0
VERTEX
  8
50
 10
84.3135
 20
2.1211
 30
0.0000
 42
1.0000
  0
VERTEX
  8
50
 10
84.3522
 20
2.1868
 30
0.0000
  0
SEQEND
  8
0
  0
POLYLINE
  8
50
 66
1
 10
0.0000
 20
0.0000
 30
0.0000
 40
0.1524
 41
0.1524
 70
0
  0
VERTEX
  8
50
 10
85.1026
 20
1.4868
 30
0.0000
 42
0.2656
  0
VERTEX
  8
50
 10
84.8974
 20
1.8460
 30
0.0000
  0
SEQEND
  8
0
  0
POLYLINE
  8
50
 66
1
 10
0.0000
 20
0.0000
 30
0.0000
 40
0.0762
 41
0.0762
 70
0
  0
VERTEX
  8
50
 10
85.0645
 20
1.4868
 30
0.0000
 42
1.0000
  0
VERTEX
  8
50
 10
85.1407
 20
1.4868
 30
0.0000
  0
SEQEND
  8
0
  0
POLYLINE
  8
50
 66
1
 10
0.0000
 20
0.0000
 30
0.0000
 40
0.0762
 41
0.0762
 70
0
  0
VERTEX
  8
50
 10
84.9167
 20
1.8789
 30
0.0000
 42
1.0000
  0
VERTEX
  8
50
 10
84.8780
 20
1.8132
 30
0.0000
  0
SEQEND
  8
0
  0
POLYLINE
  8
50
 66
1
 10
0.0000
 20
0.0000
 30
0.0000
 40
0.1524
 41
0.1524
 70
0
  0
VERTEX
  8
50
 10
84.8974
 20
1.8460
 30
0.0000
  0
VERTEX
  8
50
 10
84.3328
 20
2.1540
 30
0.0000
  0
SEQEND
  8
0
  0
POLYLINE
  8
50
 66
1
 10
0.0000
 20
0.0000
 30
0.0000
 40
0.0762
 41
0.0762
 70
0
  0
VERTEX
  8
50
 10
84.3511
 20
2.1874
 30
0.0000
 42
1.0000
  0
VERTEX
  8
50
 10
84.3146
 20
2.1205
 30
0.0000
  0
SEQEND
  8
0
  0
POLYLINE
  8
50
 66
1
 10
0.0000
 20
0.0000
 30
0.0000
 40
0.0762
 41
0.0762
 70
0
  0
VERTEX
  8
50
 10
84.8791
 20
1.8126
 30
0.0000
 42
1.0000
  0
VERTEX
  8
50
 10
84.9156
 20
1.8795
 30
0.0000
  0
SEQEND
  8
0
  0
POLYLINE
  8
50
 66
1
 10
0.0000
 20
0.0000
 30
0.0000
 40
0.1524
 41
0.1524
 70
0
  0
VERTEX
  8
50
 10
85.7437
 20
1.5894
 30
0.0000
  0
VERTEX
  8
50
 10
85.7437
 20
2.4106
 30
0.0000
  0
SEQEND
  8
0
  0
POLYLINE
  8
50
 66
1
 10
0.0000
 20
0.0000
 30
0.0000
 40
0.0762
 41
0.0762
 70
0
  0
VERTEX
  8
50
 10
85.7818
 20
2.4106
 30
0.0000
 42
1.0000
  0
VERTEX
  8
50
 10
85.7056
 20
2.4106
 30
0.0000
  0
SEQEND
  8
0
  0
POLYLINE
  8
50
 66
1
 10
0.0000
 20
0.0000
 30
0.0000
 40
0.0762
 41
0.0762
 70
0
  0
VERTEX
  8
50
 10
85.7056
 20
1.5894
 30
0.0000
 42
1.0000
  0
VERTEX
  8
50
 10
85.7818
 20
1.5894
 30
0.0000
  0
SEQEND
  8
0
  0
POLYLINE
  8
50
 66
1
 10
0.0000
 20
0.0000
 30
0.0000
 40
0.1524
 41
0.1524
 70
0
  0
VERTEX
  8
50
 10
86.7701
 20
2.4106
 30
0.0000
 42
1.0000
  0
VERTEX
  8
50
 10
85.7437
 20
2.4106
 30
0.0000
  0
SEQEND
  8
0
  0
POLYLINE
  8
50
 66
1
 10
0.0000
 20
0.0000
 30
0.0000
 40
0.0762
 41
0.0762
 70
0
  0
VERTEX
  8
50
 10
86.7320
 20
2.4106
 30
0.0000
 42
1.0000
  0
VERTEX
  8
50
 10
86.8082
 20
2.4106
 30
0.0000
  0
SEQEND
  8
0
  0
POLYLINE
  8
50
 66
1
 10
0.0000
 20
0.0000
 30
0.0000
 40
0.0762
 41
0.0762
 70
0
  0
VERTEX
  8
50
 10
85.7056
 20
2.4106
 30
0.0000
 42
1.0000
  0
VERTEX
  8
50
 10
85.7818
 20
2.4106
 30
0.0000
  0
SEQEND
  8
0
  0
POLYLINE
  8
50
 66
1
 10
0.0000
 20
0.0000
 30
0.0000
 40
0.1524
 41
0.1524
 70
0
  0
VERTEX
  8
50
 10
86.7701
 20
2.4106
 30
0.0000
  0
VERTEX
  8
50
 10
86.7701
 20
1.5894
 30
0.0000
  0
SEQEND
  8
0
  0
POLYLINE
  8
50
 66
1
 10
0.0000
 20
0.0000
 30
0.0000
 40
0.0762
 41
0.0762
 70
0
  0
VERTEX
  8
50
 10
86.7320
 20
1.5894
 30
0.0000
 42
1.0000
  0
VERTEX
  8
50
 10
86.8082
 20
1.5894
 30
0.0000
  0
SEQEND
  8
0
  0
POLYLINE
  8
50
 66
1
 10
0.0000
 20
0.0000
 30
0.0000
 40
0.0762
 41
0.0762
 70
0
  0
VERTEX
  8
50
 10
86.8082
 20
2.4106
 30
0.0000
 42
1.0000
  0
VERTEX
  8
50
 10
86.7320
 20
2.4106
 30
0.0000
  0
SEQEND
  8
0
  0
POLYLINE
  8
50
 66
1
 10
0.0000
 20
0.0000
 30
0.0000
 40
0.1524
 41
0.1524
 70
0
  0
VERTEX
  8
50
 10
85.7437
 20
1.5894
 30
0.0000
 42
1.0000
  0
VERTEX
  8
50
 10
86.7701
 20
1.5894
 30
0.0000
  0
SEQEND
  8
0
  0
POLYLINE
  8
50
 66
1
 10
0.0000
 20
0.0000
 30
0.0000
 40
0.0762
 41
0.0762
 70
0
  0
VERTEX
  8
50
 10
85.7818
 20
1.5894
 30
0.0000
 42
1.0000
  0
VERTEX
  8
50
 10
85.7056
 20
1.5894
 30
0.0000
  0
SEQEND
  8
0
  0
POLYLINE
  8
50
 66
1
 10
0.0000
 20
0.0000
 30
0.0000
 40
0.0762
 41
0.0762
 70
0
  0
VERTEX
  8
50
 10
86.8082
 20
1.5894
 30
0.0000
 42
1.0000
  0
VERTEX
  8
50
 10
86.7320
 20
1.5894
 30
0.0000
  0
SEQEND
  8
0
  0
POLYLINE
  8
50
 66
1
 10
0.0000
 20
0.0000
 30
0.0000
 40
0.1524
 41
0.1524
 70
0
  0
VERTEX
  8
50
 10
87.5290
 20
2.9238
 30
0.0000
  0
VERTEX
  8
50
 10
87.5290
 20
1.0762
 30
0.0000
  0
SEQEND
  8
0
  0
POLYLINE
  8
50
 66
1
 10
0.0000
 20
0.0000
 30
0.0000
 40
0.0762
 41
0.0762
 70
0
  0
VERTEX
  8
50
 10
87.4909
 20
1.0762
 30
0.0000
 42
1.0000
  0
VERTEX
  8
50
 10
87.5671
 20
1.0762
 30
0.0000
  0
SEQEND
  8
0
  0
POLYLINE
  8
50
 66
1
 10
0.0000
 20
0.0000
 30
0.0000
 40
0.0762
 41
0.0762
 70
0
  0
VERTEX
  8
50
 10
87.5671
 20
2.9238
 30
0.0000
 42
1.0000
  0
VERTEX
  8
50
 10
87.4909
 20
2.9238
 30
0.0000
  0
SEQEND
  8
0
  0
POLYLINE
  8
50
 66
1
 10
0.0000
 20
0.0000
 30
0.0000
 40
0.1524
 41
0.1524
 70
0
  0
VERTEX
  8
50
 10
87.5290
 20
1.0762
 30
0.0000
  0
VERTEX
  8
50
 10
88.3502
 20
1.0762
 30
0.0000
  0
SEQEND
  8
0
  0
POLYLINE
  8
50
 66
1
 10
0.0000
 20
0.0000
 30
0.0000
 40
0.0762
 41
0.0762
 70
0
  0
VERTEX
  8
50
 10
88.3502
 20
1.0381
 30
0.0000
 42
1.0000
  0
VERTEX
  8
50
 10
88.3502
 20
1.1143
 30
0.0000
  0
SEQEND
  8
0
  0
POLYLINE
  8
50
 66
1
 10
0.0000
 20
0.0000
 30
0.0000
 40
0.0762
 41
0.0762
 70
0
  0
VERTEX
  8
50
 10
87.5290
 20
1.1143
 30
0.0000
 42
1.0000
  0
VERTEX
  8
50
 10
87.5290
 20
1.0381
 30
0.0000
  0
SEQEND
  8
0
  0
POLYLINE
  8
50
 66
1
 10
0.0000
 20
0.0000
 30
0.0000
 40
0.1524
 41
0.1524
 70
0
  0
VERTEX
  8
50
 10
88.8611
 20
1.0762
 30
0.0000
  0
VERTEX
  8
50
 10
89.4769
 20
2.9238
 30
0.0000
  0
SEQEND
  8
0
  0
POLYLINE
  8
50
 66
1
 10
0.0000
 20
0.0000
 30
0.0000
 40
0.0762
 41
0.0762
 70
0
  0
VERTEX
  8
50
 10
89.5131
 20
2.9118
 30
0.0000
 42
1.0000
  0
VERTEX
  8
50
 10
89.4408
 20
2.9358
 30
0.0000
  0
SEQEND
  8
0
  0
POLYLINE
  8
50
 66
1
 10
0.0000
 20
0.0000
 30
0.0000
 40
0.0762
 41
0.0762
 70
0
  0
VERTEX
  8
50
 10
88.8249
 20
1.0882
 30
0.0000
 42
1.0000
  0
VERTEX
  8
50
 10
88.8972
 20
1.0642
 30
0.0000
  0
SEQEND
  8
0
  0
POLYLINE
  8
50
 66
1
 10
0.0000
 20
0.0000
 30
0.0000
 40
0.1524
 41
0.1524
 70
0
  0
VERTEX
  8
50
 10
89.4769
 20
2.9238
 30
0.0000
  0
VERTEX
  8
50
 10
90.0928
 20
1.0762
 30
0.0000
  0
SEQEND
  8
0
  0
POLYLINE
  8
50
 66
1
 10
0.0000
 20
0.0000
 30
0.0000
 40
0.0762
 41
0.0762
 70
0
  0
VERTEX
  8
50
 10
90.0566
 20
1.0642
 30
0.0000
 42
1.0000
  0
VERTEX
  8
50
 10
90.1289
 20
1.0882
 30
0.0000
  0
SEQEND
  8
0
  0
POLYLINE
  8
50
 66
1
 10
0.0000
 20
0.0000
 30
0.0000
 40
0.0762
 41
0.0762
 70
0
  0
VERTEX
  8
50
 10
89.5131
 20
2.9358
 30
0.0000
 42
1.0000
  0
VERTEX
  8
50
 10
89.4408
 20
2.9118
 30
0.0000
  0
SEQEND
  8
0
  0
POLYLINE
  8
50
 66
1
 10
0.0000
 20
0.0000
 30
0.0000
 40
0.1524
 41
0.1524
 70
0
  0
VERTEX
  8
50
 10
89.9388
 20
1.5381
 30
0.0000
  0
VERTEX
  8
50
 10
89.0150
 20
1.5381
 30
0.0000
  0
SEQEND
  8
0
  0
POLYLINE
  8
50
 66
1
 10
0.0000
 20
0.0000
 30
0.0000
 40
0.0762
 41
0.0762
 70
0
  0
VERTEX
  8
50
 10
89.0150
 20
1.5762
 30
0.0000
 42
1.0000
  0
VERTEX
  8
50
 10
89.0150
 20
1.5000
 30
0.0000
  0
SEQEND
  8
0
  0
POLYLINE
  8
50
 66
1
 10
0.0000
 20
0.0000
 30
0.0000
 40
0.0762
 41
0.0762
 70
0
  0
VERTEX
  8
50
 10
89.9388
 20
1.5000
 30
0.0000
 42
1.0000
  0
VERTEX
  8
50
 10
89.9388
 20
1.5762
 30
0.0000
  0
SEQEND
  8
0
  0
POLYLINE
  8
50
 66
1
 10
0.0000
 20
0.0000
 30
0.0000
 40
0.1524
 41
0.1524
 70
0
  0
VERTEX
  8
50
 10
90.7544
 20
1.0762
 30
0.0000
  0
VERTEX
  8
50
 10
90.7544
 20
2.9238
 30
0.0000
  0
SEQEND
  8
0
  0
POLYLINE
  8
50
 66
1
 10
0.0000
 20
0.0000
 30
0.0000
 40
0.0762
 41
0.0762
 70
0
  0
VERTEX
  8
50
 10
90.7925
 20
2.9238
 30
0.0000
 42
1.0000
  0
VERTEX
  8
50
 10
90.7163
 20
2.9238
 30
0.0000
  0
SEQEND
  8
0
  0
POLYLINE
  8
50
 66
1
 10
0.0000
 20
0.0000
 30
0.0000
 40
0.0762
 41
0.0762
 70
0
  0
VERTEX
  8
50
 10
90.7163
 20
1.0762
 30
0.0000
 42
1.0000
  0
VERTEX
  8
50
 10
90.7925
 20
1.0762
 30
0.0000
  0
SEQEND
  8
0
  0
POLYLINE
  8
50
 66
1
 10
0.0000
 20
0.0000
 30
0.0000
 40
0.1524
 41
0.1524
 70
0
  0
VERTEX
  8
50
 10
90.7544
 20
2.9238
 30
0.0000
  0
VERTEX
  8
50
 10
91.2676
 20
2.9238
 30
0.0000
  0
SEQEND
  8
0
  0
POLYLINE
  8
50
 66
1
 10
0.0000
 20
0.0000
 30
0.0000
 40
0.0762
 41
0.0762
 70
0
  0
VERTEX
  8
50
 10
91.2676
 20
2.8857
 30
0.0000
 42
1.0000
  0
VERTEX
  8
50
 10
91.2676
 20
2.9619
 30
0.0000
  0
SEQEND
  8
0
  0
POLYLINE
  8
50
 66
1
 10
0.0000
 20
0.0000
 30
0.0000
 40
0.0762
 41
0.0762
 70
0
  0
VERTEX
  8
50
 10
90.7544
 20
2.9619
 30
0.0000
 42
1.0000
  0
VERTEX
  8
50
 10
90.7544
 20
2.8857
 30
0.0000
  0
SEQEND
  8
0
  0
POLYLINE
  8
50
 66
1
 10
0.0000
 20
0.0000
 30
0.0000
 40
0.1524
 41
0.1524
 70
0
  0
VERTEX
  8
50
 10
91.2676
 20
1.8974
 30
0.0000
 42
1.0000
  0
VERTEX
  8
50
 10
91.2676
 20
2.9238
 30
0.0000
  0
SEQEND
  8
0
  0
POLYLINE
  8
50
 66
1
 10
0.0000
 20
0.0000
 30
0.0000
 40
0.0762
 41
0.0762
 70
0
  0
VERTEX
  8
50
 10
91.2676
 20
1.9355
 30
0.0000
 42
1.0000
  0
VERTEX
  8
50
 10
91.2676
 20
1.8593
 30
0.0000
  0
SEQEND
  8
0
  0
POLYLINE
  8
50
 66
1
 10
0.0000
 20
0.0000
 30
0.0000
 40
0.0762
 41
0.0762
 70
0
  0
VERTEX
  8
50
 10
91.2676
 20
2.9619
 30
0.0000
 42
1.0000
  0
VERTEX
  8
50
 10
91.2676
 20
2.8857
 30
0.0000
  0
SEQEND
  8
0
  0
POLYLINE
  8
50
 66
1
 10
0.0000
 20
0.0000
 30
0.0000
 40
0.1524
 41
0.1524
 70
0
  0
VERTEX
  8
50
 10
91.2676
 20
1.8974
 30
0.0000
  0
VERTEX
  8
50
 10
90.7544
 20
1.8974
 30
0.0000
  0
SEQEND
  8
0
  0
POLYLINE
  8
50
 66
1
 10
0.0000
 20
0.0000
 30
0.0000
 40
0.0762
 41
0.0762
 70
0
  0
VERTEX
  8
50
 10
90.7544
 20
1.9355
 30
0.0000
 42
1.0000
  0
VERTEX
  8
50
 10
90.7544
 20
1.8593
 30
0.0000
  0
SEQEND
  8
0
  0
POLYLINE
  8
50
 66
1
 10
0.0000
 20
0.0000
 30
0.0000
 40
0.0762
 41
0.0762
 70
0
  0
VERTEX
  8
50
 10
91.2676
 20
1.8593
 30
0.0000
 42
1.0000
  0
VERTEX
  8
50
 10
91.2676
 20
1.9355
 30
0.0000
  0
SEQEND
  8
0
  0
POLYLINE
  8
50
 66
1
 10
0.0000
 20
0.0000
 30
0.0000
 40
0.1524
 41
0.1524
 70
0
  0
VERTEX
  8
50
 10
91.7809
 20
1.0762
 30
0.0000
  0
VERTEX
  8
50
 10
91.3703
 20
1.8974
 30
0.0000
  0
SEQEND
  8
0
  0
POLYLINE
  8
50
 66
1
 10
0.0000
 20
0.0000
 30
0.0000
 40
0.0762
 41
0.0762
 70
0
  0
VERTEX
  8
50
 10
91.4044
 20
1.9144
 30
0.0000
 42
1.0000
  0
VERTEX
  8
50
 10
91.3362
 20
1.8803
 30
0.0000
  0
SEQEND
  8
0
  0
POLYLINE
  8
50
 66
1
 10
0.0000
 20
0.0000
 30
0.0000
 40
0.0762
 41
0.0762
 70
0
  0
VERTEX
  8
50
 10
91.7468
 20
1.0592
 30
0.0000
 42
1.0000
  0
VERTEX
  8
50
 10
91.8149
 20
1.0932
 30
0.0000
  0
SEQEND
  8
0
  0
POLYLINE
  8
50
 66
1
 10
0.0000
 20
0.0000
 30
0.0000
 40
0.1524
 41
0.1524
 70
0
  0
VERTEX
  8
50
 10
93.9496
 20
1.0762
 30
0.0000
 42
0.4142
  0
VERTEX
  8
50
 10
94.3601
 20
1.4868
 30
0.0000
  0
SEQEND
  8
0
  0
POLYLINE
  8
50
 66
1
 10
0.0000
 20
0.0000
 30
0.0000
 40
0.0762
 41
0.0762
 70
0
  0
VERTEX
  8
50
 10
93.9496
 20
1.1143
 30
0.0000
 42
1.0000
  0
VERTEX
  8
50
 10
93.9496
 20
1.0381
 30
0.0000
  0
SEQEND
  8
0
  0
POLYLINE
  8
50
 66
1
 10
0.0000
 20
0.0000
 30
0.0000
 40
0.0762
 41
0.0762
 70
0
  0
VERTEX
  8
50
 10
94.3982
 20
1.4868
 30
0.0000
 42
1.0000
  0
VERTEX
  8
50
 10
94.3220
 20
1.4868
 30
0.0000
  0
SEQEND
  8
0
  0
POLYLINE
  8
50
 66
1
 10
0.0000
 20
0.0000
 30
0.0000
 40
0.1524
 41
0.1524
 70
0
  0
VERTEX
  8
50
 10
93.3337
 20
1.3328
 30
0.0000
 42
0.2000
  0
VERTEX
  8
50
 10
93.9496
 20
1.0762
 30
0.0000
  0
SEQEND
  8
0
  0
POLYLINE
  8
50
 66
1
 10
0.0000
 20
0.0000
 30
0.0000
 40
0.0762
 41
0.0762
 70
0
  0
VERTEX
  8
50
 10
93.3607
 20
1.3596
 30
0.0000
 42
1.0000
  0
VERTEX
  8
50
 10
93.3066
 20
1.3060
 30
0.0000
  0
SEQEND
  8
0
  0
POLYLINE
  8
50
 66
1
 10
0.0000
 20
0.0000
 30
0.0000
 40
0.0762
 41
0.0762
 70
0
  0
VERTEX
  8
50
 10
93.9496
 20
1.0381
 30
0.0000
 42
1.0000
  0
VERTEX
  8
50
 10
93.9496
 20
1.1143
 30
0.0000
  0
SEQEND
  8
0
  0
POLYLINE
  8
50
 66
1
 10
0.0000
 20
0.0000
 30
0.0000
 40
0.1524
 41
0.1524
 70
0
  0
VERTEX
  8
50
 10
93.7956
 20
2.9238
 30
0.0000
 42
0.4142
  0
VERTEX
  8
50
 10
93.3850
 20
2.5132
 30
0.0000
  0
SEQEND
  8
0
  0
POLYLINE
  8
50
 66
1
 10
0.0000
 20
0.0000
 30
0.0000
 40
0.0762
 41
0.0762
 70
0
  0
VERTEX
  8
50
 10
93.7956
 20
2.8857
 30
0.0000
 42
1.0000
  0
VERTEX
  8
50
 10
93.7956
 20
2.9619
 30
0.0000
  0
SEQEND
  8
0
  0
POLYLINE
  8
50
 66
1
 10
0.0000
 20
0.0000
 30
0.0000
 40
0.0762
 41
0.0762
 70
0
  0
VERTEX
  8
50
 10
93.3469
 20
2.5132
 30
0.0000
 42
1.0000
  0
VERTEX
  8
50
 10
93.4231
 20
2.5132
 30
0.0000
  0
SEQEND
  8
0
  0
POLYLINE
  8
50
 66
1
 10
0.0000
 20
0.0000
 30
0.0000
 40
0.1524
 41
0.1524
 70
0
  0
VERTEX
  8
50
 10
94.2575
 20
2.7698
 30
0.0000
 42
0.1623
  0
VERTEX
  8
50
 10
93.7956
 20
2.9238
 30
0.0000
  0
SEQEND
  8
0
  0
POLYLINE
  8
50
 66
1
 10
0.0000
 20
0.0000
 30
0.0000
 40
0.0762
 41
0.0762
 70
0
  0
VERTEX
  8
50
 10
94.2346
 20
2.7394
 30
0.0000
 42
1.0000
  0
VERTEX
  8
50
 10
94.2804
 20
2.8003
 30
0.0000
  0
SEQEND
  8
0
  0
POLYLINE
  8
50
 66
1
 10
0.0000
 20
0.0000
 30
0.0000
 40
0.0762
 41
0.0762
 70
0
  0
VERTEX
  8
50
 10
93.7956
 20
2.9619
 30
0.0000
 42
1.0000
  0
VERTEX
  8
50
 10
93.7956
 20
2.8857
 30
0.0000
  0
SEQEND
  8
0
  0
POLYLINE
  8
50
 66
1
 10
0.0000
 20
0.0000
 30
0.0000
 40
0.1524
 41
0.1524
 70
0
  0
VERTEX
  8
50
 10
93.3850
 20
2.5132
 30
0.0000
 42
0.2656
  0
VERTEX
  8
50
 10
93.5903
 20
2.1540
 30
0.0000
  0
SEQEND
  8
0
  0
POLYLINE
  8
50
 66
1
 10
0.0000
 20
0.0000
 30
0.0000
 40
0.0762
 41
0.0762
 70
0
  0
VERTEX
  8
50
 10
93.4231
 20
2.5132
 30
0.0000
 42
1.0000
  0
VERTEX
  8
50
 10
93.3469
 20
2.5132
 30
0.0000
  0
SEQEND
  8
0
  0
POLYLINE
  8
50
 66
1
 10
0.0000
 20
0.0000
 30
0.0000
 40
0.0762
 41
0.0762
 70
0
  0
VERTEX
  8
50
 10
93.5710
 20
2.1211
 30
0.0000
 42
1.0000
  0
VERTEX
  8
50
 10
93.6096
 20
2.1868
 30
0.0000
  0
SEQEND
  8
0
  0
POLYLINE
  8
50
 66
1
 10
0.0000
 20
0.0000
 30
0.0000
 40
0.1524
 41
0.1524
 70
0
  0
VERTEX
  8
50
 10
94.3601
 20
1.4868
 30
0.0000
 42
0.2656
  0
VERTEX
  8
50
 10
94.1548
 20
1.8460
 30
0.0000
  0
SEQEND
  8
0
  0
POLYLINE
  8
50
 66
1
 10
0.0000
 20
0.0000
 30
0.0000
 40
0.0762
 41
0.0762
 70
0
  0
VERTEX
  8
50
 10
94.3220
 20
1.4868
 30
0.0000
 42
1.0000
  0
VERTEX
  8
50
 10
94.3982
 20
1.4868
 30
0.0000
  0
SEQEND
  8
0
  0
POLYLINE
  8
50
 66
1
 10
0.0000
 20
0.0000
 30
0.0000
 40
0.0762
 41
0.0762
 70
0
  0
VERTEX
  8
50
 10
94.1742
 20
1.8789
 30
0.0000
 42
1.0000
  0
VERTEX
  8
50
 10
94.1355
 20
1.8132
 30
0.0000
  0
SEQEND
  8
0
  0
POLYLINE
  8
50
 66
1
 10
0.0000
 20
0.0000
 30
0.0000
 40
0.1524
 41
0.1524
 70
0
  0
VERTEX
  8
50
 10
94.1548
 20
1.8460
 30
0.0000
  0
VERTEX
  8
50
 10
93.5903
 20
2.1540
 30
0.0000
  0
SEQEND
  8
0
  0
POLYLINE
  8
50
 66
1
 10
0.0000
 20
0.0000
 30
0.0000
 40
0.0762
 41
0.0762
 70
0
  0
VERTEX
  8
50
 10
93.6085
 20
2.1874
 30
0.0000
 42
1.0000
  0
VERTEX
  8
50
 10
93.5721
 20
2.1205
 30
0.0000
  0
SEQEND
  8
0
  0
POLYLINE
  8
50
 66
1
 10
0.0000
 20
0.0000
 30
0.0000
 40
0.0762
 41
0.0762
 70
0
  0
VERTEX
  8
50
 10
94.1366
 20
1.8126
 30
0.0000
 42
1.0000
  0
VERTEX
  8
50
 10
94.1731
 20
1.8795
 30
0.0000
  0
SEQEND
  8
0
  0
POLYLINE
  8
50
 66
1
 10
0.0000
 20
0.0000
 30
0.0000
 40
0.1524
 41
0.1524
 70
0
  0
VERTEX
  8
50
 10
95.1694
 20
2.9238
 30
0.0000
  0
VERTEX
  8
50
 10
95.1694
 20
1.0762
 30
0.0000
  0
SEQEND
  8
0
  0
POLYLINE
  8
50
 66
1
 10
0.0000
 20
0.0000
 30
0.0000
 40
0.0762
 41
0.0762
 70
0
  0
VERTEX
  8
50
 10
95.1313
 20
1.0762
 30
0.0000
 42
1.0000
  0
VERTEX
  8
50
 10
95.2075
 20
1.0762
 30
0.0000
  0
SEQEND
  8
0
  0
POLYLINE
  8
50
 66
1
 10
0.0000
 20
0.0000
 30
0.0000
 40
0.0762
 41
0.0762
 70
0
  0
VERTEX
  8
50
 10
95.2075
 20
2.9238
 30
0.0000
 42
1.0000
  0
VERTEX
  8
50
 10
95.1313
 20
2.9238
 30
0.0000
  0
SEQEND
  8
0
  0
POLYLINE
  8
50
 66
1
 10
0.0000
 20
0.0000
 30
0.0000
 40
0.1524
 41
0.1524
 70
0
  0
VERTEX
  8
50
 10
94.9641
 20
1.0762
 30
0.0000
  0
VERTEX
  8
50
 10
95.3747
 20
1.0762
 30
0.0000
  0
SEQEND
  8
0
  0
POLYLINE
  8
50
 66
1
 10
0.0000
 20
0.0000
 30
0.0000
 40
0.0762
 41
0.0762
 70
0
  0
VERTEX
  8
50
 10
95.3747
 20
1.0381
 30
0.0000
 42
1.0000
  0
VERTEX
  8
50
 10
95.3747
 20
1.1143
 30
0.0000
  0
SEQEND
  8
0
  0
POLYLINE
  8
50
 66
1
 10
0.0000
 20
0.0000
 30
0.0000
 40
0.0762
 41
0.0762
 70
0
  0
VERTEX
  8
50
 10
94.9641
 20
1.1143
 30
0.0000
 42
1.0000
  0
VERTEX
  8
50
 10
94.9641
 20
1.0381
 30
0.0000
  0
SEQEND
  8
0
  0
POLYLINE
  8
50
 66
1
 10
0.0000
 20
0.0000
 30
0.0000
 40
0.1524
 41
0.1524
 70
0
  0
VERTEX
  8
50
 10
94.9641
 20
2.9238
 30
0.0000
  0
VERTEX
  8
50
 10
95.3747
 20
2.9238
 30
0.0000
  0
SEQEND
  8
0
  0
POLYLINE
  8
50
 66
1
 10
0.0000
 20
0.0000
 30
0.0000
 40
0.0762
 41
0.0762
 70
0
  0
VERTEX
  8
50
 10
95.3747
 20
2.8857
 30
0.0000
 42
1.0000
  0
VERTEX
  8
50
 10
95.3747
 20
2.9619
 30
0.0000
  0
SEQEND
  8
0
  0
POLYLINE
  8
50
 66
1
 10
0.0000
 20
0.0000
 30
0.0000
 40
0.0762
 41
0.0762
 70
0
  0
VERTEX
  8
50
 10
94.9641
 20
2.9619
 30
0.0000
 42
1.0000
  0
VERTEX
  8
50
 10
94.9641
 20
2.8857
 30
0.0000
  0
SEQEND
  8
0
  0
POLYLINE
  8
50
 66
1
 10
0.0000
 20
0.0000
 30
0.0000
 40
0.1524
 41
0.1524
 70
0
  0
VERTEX
  8
50
 10
96.1060
 20
1.0762
 30
0.0000
  0
VERTEX
  8
50
 10
96.1060
 20
2.9238
 30
0.0000
  0
SEQEND
  8
0
  0
POLYLINE
  8
50
 66
1
 10
0.0000
 20
0.0000
 30
0.0000
 40
0.0762
 41
0.0762
 70
0
  0
VERTEX
  8
50
 10
96.1441
 20
2.9238
 30
0.0000
 42
1.0000
  0
VERTEX
  8
50
 10
96.0679
 20
2.9238
 30
0.0000
  0
SEQEND
  8
0
  0
POLYLINE
  8
50
 66
1
 10
0.0000
 20
0.0000
 30
0.0000
 40
0.0762
 41
0.0762
 70
0
  0
VERTEX
  8
50
 10
96.0679
 20
1.0762
 30
0.0000
 42
1.0000
  0
VERTEX
  8
50
 10
96.1441
 20
1.0762
 30
0.0000
  0
SEQEND
  8
0
  0
POLYLINE
  8
50
 66
1
 10
0.0000
 20
0.0000
 30
0.0000
 40
0.1524
 41
0.1524
 70
0
  0
VERTEX
  8
50
 10
96.1060
 20
2.9238
 30
0.0000
  0
VERTEX
  8
50
 10
96.7219
 20
1.8974
 30
0.0000
  0
SEQEND
  8
0
  0
POLYLINE
  8
50
 66
1
 10
0.0000
 20
0.0000
 30
0.0000
 40
0.0762
 41
0.0762
 70
0
  0
VERTEX
  8
50
 10
96.6892
 20
1.8778
 30
0.0000
 42
1.0000
  0
VERTEX
  8
50
 10
96.7546
 20
1.9170
 30
0.0000
  0
SEQEND
  8
0
  0
POLYLINE
  8
50
 66
1
 10
0.0000
 20
0.0000
 30
0.0000
 40
0.0762
 41
0.0762
 70
0
  0
VERTEX
  8
50
 10
96.1387
 20
2.9434
 30
0.0000
 42
1.0000
  0
VERTEX
  8
50
 10
96.0734
 20
2.9042
 30
0.0000
  0
SEQEND
  8
0
  0
POLYLINE
  8
50
 66
1
 10
0.0000
 20
0.0000
 30
0.0000
 40
0.1524
 41
0.1524
 70
0
  0
VERTEX
  8
50
 10
96.7219
 20
1.8974
 30
0.0000
  0
VERTEX
  8
50
 10
97.3378
 20
2.9238
 30
0.0000
  0
SEQEND
  8
0
  0
POLYLINE
  8
50
 66
1
 10
0.0000
 20
0.0000
 30
0.0000
 40
0.0762
 41
0.0762
 70
0
  0
VERTEX
  8
50
 10
97.3704
 20
2.9042
 30
0.0000
 42
1.0000
  0
VERTEX
  8
50
 10
97.3051
 20
2.9434
 30
0.0000
  0
SEQEND
  8
0
  0
POLYLINE
  8
50
 66
1
 10
0.0000
 20
0.0000
 30
0.0000
 40
0.0762
 41
0.0762
 70
0
  0
VERTEX
  8
50
 10
96.6892
 20
1.9170
 30
0.0000
 42
1.0000
  0
VERTEX
  8
50
 10
96.7546
 20
1.8778
 30
0.0000
  0
SEQEND
  8
0
  0
POLYLINE
  8
50
 66
1
 10
0.0000
 20
0.0000
 30
0.0000
 40
0.1524
 41
0.1524
 70
0
  0
VERTEX
  8
50
 10
97.3378
 20
2.9238
 30
0.0000
  0
VERTEX
  8
50
 10
97.3378
 20
1.0762
 30
0.0000
  0
SEQEND
  8
0
  0
POLYLINE
  8
50
 66
1
 10
0.0000
 20
0.0000
 30
0.0000
 40
0.0762
 41
0.0762
 70
0
  0
VERTEX
  8
50
 10
97.2997
 20
1.0762
 30
0.0000
 42
1.0000
  0
VERTEX
  8
50
 10
97.3759
 20
1.0762
 30
0.0000
  0
SEQEND
  8
0
  0
POLYLINE
  8
50
 66
1
 10
0.0000
 20
0.0000
 30
0.0000
 40
0.0762
 41
0.0762
 70
0
  0
VERTEX
  8
50
 10
97.3759
 20
2.9238
 30
0.0000
 42
1.0000
  0
VERTEX
  8
50
 10
97.2997
 20
2.9238
 30
0.0000
  0
SEQEND
  8
0
  0
POLYLINE
  8
50
 66
1
 10
0.0000
 20
0.0000
 30
0.0000
 40
0.1524
 41
0.1524
 70
0
  0
VERTEX
  8
50
 10
98.1637
 20
2.9238
 30
0.0000
  0
VERTEX
  8
50
 10
98.1637
 20
1.5894
 30
0.0000
  0
SEQEND
  8
0
  0
POLYLINE
  8
50
 66
1
 10
0.0000
 20
0.0000
 30
0.0000
 40
0.0762
 41
0.0762
 70
0
  0
VERTEX
  8
50
 10
98.1256
 20
1.5894
 30
0.0000
 42
1.0000
  0
VERTEX
  8
50
 10
98.2018
 20
1.5894
 30
0.0000
  0
SEQEND
  8
0
  0
POLYLINE
  8
50
 66
1
 10
0.0000
 20
0.0000
 30
0.0000
 40
0.0762
 41
0.0762
 70
0
  0
VERTEX
  8
50
 10
98.2018
 20
2.9238
 30
0.0000
 42
1.0000
  0
VERTEX
  8
50
 10
98.1256
 20
2.9238
 30
0.0000
  0
SEQEND
  8
0
  0
POLYLINE
  8
50
 66
1
 10
0.0000
 20
0.0000
 30
0.0000
 40
0.1524
 41
0.1524
 70
0
  0
VERTEX
  8
50
 10
98.1637
 20
1.5894
 30
0.0000
 42
1.0000
  0
VERTEX
  8
50
 10
99.1901
 20
1.5894
 30
0.0000
  0
SEQEND
  8
0
  0
POLYLINE
  8
50
 66
1
 10
0.0000
 20
0.0000
 30
0.0000
 40
0.0762
 41
0.0762
 70
0
  0
VERTEX
  8
50
 10
98.2018
 20
1.5894
 30
0.0000
 42
1.0000
  0
VERTEX
  8
50
 10
98.1256
 20
1.5894
 30
0.0000
  0
SEQEND
  8
0
  0
POLYLINE
  8
50
 66
1
 10
0.0000
 20
0.0000
 30
0.0000
 40
0.0762
 41
0.0762
 70
0
  0
VERTEX
  8
50
 10
99.2282
 20
1.5894
 30
0.0000
 42
1.0000
  0
VERTEX
  8
50
 10
99.1520
 20
1.5894
 30
0.0000
  0
SEQEND
  8
0
  0
POLYLINE
  8
50
 66
1
 10
0.0000
 20
0.0000
 30
0.0000
 40
0.1524
 41
0.1524
 70
0
  0
VERTEX
  8
50
 10
99.1901
 20
1.5894
 30
0.0000
  0
VERTEX
  8
50
 10
99.1901
 20
2.9238
 30
0.0000
  0
SEQEND
  8
0
  0
POLYLINE
  8
50
 66
1
 10
0.0000
 20
0.0000
 30
0.0000
 40
0.0762
 41
0.0762
 70
0
  0
VERTEX
  8
50
 10
99.2282
 20
2.9238
 30
0.0000
 42
1.0000
  0
VERTEX
  8
50
 10
99.1520
 20
2.9238
 30
0.0000
  0
SEQEND
  8
0
  0
POLYLINE
  8
50
 66
1
 10
0.0000
 20
0.0000
 30
0.0000
 40
0.0762
 41
0.0762
 70
0
  0
VERTEX
  8
50
 10
99.1520
 20
1.5894
 30
0.0000
 42
1.0000
  0
VERTEX
  8
50
 10
99.2282
 20
1.5894
 30
0.0000
  0
SEQEND
  8
0
  0
POLYLINE
  8
50
 66
1
 10
0.0000
 20
0.0000
 30
0.0000
 40
0.1524
 41
0.1524
 70
0
  0
VERTEX
  8
50
 10
100.0065
 20
2.9238
 30
0.0000
  0
VERTEX
  8
50
 10
100.0065
 20
1.0762
 30
0.0000
  0
SEQEND
  8
0
  0
POLYLINE
  8
50
 66
1
 10
0.0000
 20
0.0000
 30
0.0000
 40
0.0762
 41
0.0762
 70
0
  0
VERTEX
  8
50
 10
99.9684
 20
1.0762
 30
0.0000
 42
1.0000
  0
VERTEX
  8
50
 10
100.0446
 20
1.0762
 30
0.0000
  0
SEQEND
  8
0
  0
POLYLINE
  8
50
 66
1
 10
0.0000
 20
0.0000
 30
0.0000
 40
0.0762
 41
0.0762
 70
0
  0
VERTEX
  8
50
 10
100.0446
 20
2.9238
 30
0.0000
 42
1.0000
  0
VERTEX
  8
50
 10
99.9684
 20
2.9238
 30
0.0000
  0
SEQEND
  8
0
  0
POLYLINE
  8
50
 66
1
 10
0.0000
 20
0.0000
 30
0.0000
 40
0.1524
 41
0.1524
 70
0
  0
VERTEX
  8
50
 10
100.0065
 20
1.0762
 30
0.0000
  0
VERTEX
  8
50
 10
100.8276
 20
1.0762
 30
0.0000
  0
SEQEND
  8
0
  0
POLYLINE
  8
50
 66
1
 10
0.0000
 20
0.0000
 30
0.0000
 40
0.0762
 41
0.0762
 70
0
  0
VERTEX
  8
50
 10
100.8276
 20
1.0381
 30
0.0000
 42
1.0000
  0
VERTEX
  8
50
 10
100.8276
 20
1.1143
 30
0.0000
  0
SEQEND
  8
0
  0
POLYLINE
  8
50
 66
1
 10
0.0000
 20
0.0000
 30
0.0000
 40
0.0762
 41
0.0762
 70
0
  0
VERTEX
  8
50
 10
100.0065
 20
1.1143
 30
0.0000
 42
1.0000
  0
VERTEX
  8
50
 10
100.0065
 20
1.0381
 30
0.0000
  0
SEQEND
  8
0
  0
POLYLINE
  8
50
 66
1
 10
0.0000
 20
0.0000
 30
0.0000
 40
0.1524
 41
0.1524
 70
0
  0
VERTEX
  8
50
 10
101.3385
 20
1.0762
 30
0.0000
  0
VERTEX
  8
50
 10
101.9544
 20
2.9238
 30
0.0000
  0
SEQEND
  8
0
  0
POLYLINE
  8
50
 66
1
 10
0.0000
 20
0.0000
 30
0.0000
 40
0.0762
 41
0.0762
 70
0
  0
VERTEX
  8
50
 10
101.9906
 20
2.9118
 30
0.0000
 42
1.0000
  0
VERTEX
  8
50
 10
101.9183
 20
2.9358
 30
0.0000
  0
SEQEND
  8
0
  0
POLYLINE
  8
50
 66
1
 10
0.0000
 20
0.0000
 30
0.0000
 40
0.0762
 41
0.0762
 70
0
  0
VERTEX
  8
50
 10
101.3024
 20
1.0882
 30
0.0000
 42
1.0000
  0
VERTEX
  8
50
 10
101.3747
 20
1.0642
 30
0.0000
  0
SEQEND
  8
0
  0
POLYLINE
  8
50
 66
1
 10
0.0000
 20
0.0000
 30
0.0000
 40
0.1524
 41
0.1524
 70
0
  0
VERTEX
  8
50
 10
101.9544
 20
2.9238
 30
0.0000
  0
VERTEX
  8
50
 10
102.5703
 20
1.0762
 30
0.0000
  0
SEQEND
  8
0
  0
POLYLINE
  8
50
 66
1
 10
0.0000
 20
0.0000
 30
0.0000
 40
0.0762
 41
0.0762
 70
0
  0
VERTEX
  8
50
 10
102.5341
 20
1.0642
 30
0.0000
 42
1.0000
  0
VERTEX
  8
50
 10
102.6064
 20
1.0882
 30
0.0000
  0
SEQEND
  8
0
  0
POLYLINE
  8
50
 66
1
 10
0.0000
 20
0.0000
 30
0.0000
 40
0.0762
 41
0.0762
 70
0
  0
VERTEX
  8
50
 10
101.9906
 20
2.9358
 30
0.0000
 42
1.0000
  0
VERTEX
  8
50
 10
101.9183
 20
2.9118
 30
0.0000
  0
SEQEND
  8
0
  0
POLYLINE
  8
50
 66
1
 10
0.0000
 20
0.0000
 30
0.0000
 40
0.1524
 41
0.1524
 70
0
  0
VERTEX
  8
50
 10
102.4163
 20
1.5381
 30
0.0000
  0
VERTEX
  8
50
 10
101.4925
 20
1.5381
 30
0.0000
  0
SEQEND
  8
0
  0
POLYLINE
  8
50
 66
1
 10
0.0000
 20
0.0000
 30
0.0000
 40
0.0762
 41
0.0762
 70
0
  0
VERTEX
  8
50
 10
101.4925
 20
1.5762
 30
0.0000
 42
1.0000
  0
VERTEX
  8
50
 10
101.4925
 20
1.5000
 30
0.0000
  0
SEQEND
  8
0
  0
POLYLINE
  8
50
 66
1
 10
0.0000
 20
0.0000
 30
0.0000
 40
0.0762
 41
0.0762
 70
0
  0
VERTEX
  8
50
 10
102.4163
 20
1.5000
 30
0.0000
 42
1.0000
  0
VERTEX
  8
50
 10
102.4163
 20
1.5762
 30
0.0000
  0
SEQEND
  8
0
  0
POLYLINE
  8
50
 66
1
 10
0.0000
 20
0.0000
 30
0.0000
 40
0.1524
 41
0.1524
 70
0
  0
VERTEX
  8
50
 10
103.5644
 20
1.0762
 30
0.0000
  0
VERTEX
  8
50
 10
103.5644
 20
2.9238
 30
0.0000
  0
SEQEND
  8
0
  0
POLYLINE
  8
50
 66
1
 10
0.0000
 20
0.0000
 30
0.0000
 40
0.0762
 41
0.0762
 70
0
  0
VERTEX
  8
50
 10
103.6025
 20
2.9238
 30
0.0000
 42
1.0000
  0
VERTEX
  8
50
 10
103.5263
 20
2.9238
 30
0.0000
  0
SEQEND
  8
0
  0
POLYLINE
  8
50
 66
1
 10
0.0000
 20
0.0000
 30
0.0000
 40
0.0762
 41
0.0762
 70
0
  0
VERTEX
  8
50
 10
103.5263
 20
1.0762
 30
0.0000
 42
1.0000
  0
VERTEX
  8
50
 10
103.6025
 20
1.0762
 30
0.0000
  0
SEQEND
  8
0
  0
POLYLINE
  8
50
 66
1
 10
0.0000
 20
0.0000
 30
0.0000
 40
0.1524
 41
0.1524
 70
0
  0
VERTEX
  8
50
 10
103.0512
 20
2.9238
 30
0.0000
  0
VERTEX
  8
50
 10
104.0776
 20
2.9238
 30
0.0000
  0
SEQEND
  8
0
  0
POLYLINE
  8
50
 66
1
 10
0.0000
 20
0.0000
 30
0.0000
 40
0.0762
 41
0.0762
 70
0
  0
VERTEX
  8
50
 10
104.0776
 20
2.8857
 30
0.0000
 42
1.0000
  0
VERTEX
  8
50
 10
104.0776
 20
2.9619
 30
0.0000
  0
SEQEND
  8
0
  0
POLYLINE
  8
50
 66
1
 10
0.0000
 20
0.0000
 30
0.0000
 40
0.0762
 41
0.0762
 70
0
  0
VERTEX
  8
50
 10
103.0512
 20
2.9619
 30
0.0000
 42
1.0000
  0
VERTEX
  8
50
 10
103.0512
 20
2.8857
 30
0.0000
  0
SEQEND
  8
0
  0
POLYLINE
  8
50
 66
1
 10
0.0000
 20
0.0000
 30
0.0000
 40
0.1524
 41
0.1524
 70
0
  0
VERTEX
  8
50
 10
104.6612
 20
1.5894
 30
0.0000
  0
VERTEX
  8
50
 10
104.6612
 20
2.4106
 30
0.0000
  0
SEQEND
  8
0
  0
POLYLINE
  8
50
 66
1
 10
0.0000
 20
0.0000
 30
0.0000
 40
0.0762
 41
0.0762
 70
0
  0
VERTEX
  8
50
 10
104.6993
 20
2.4106
 30
0.0000
 42
1.0000
  0
VERTEX
  8
50
 10
104.6231
 20
2.4106
 30
0.0000
  0
SEQEND
  8
0
  0
POLYLINE
  8
50
 66
1
 10
0.0000
 20
0.0000
 30
0.0000
 40
0.0762
 41
0.0762
 70
0
  0
VERTEX
  8
50
 10
104.6231
 20
1.5894
 30
0.0000
 42
1.0000
  0
VERTEX
  8
50
 10
104.6993
 20
1.5894
 30
0.0000
  0
SEQEND
  8
0
  0
POLYLINE
  8
50
 66
1
 10
0.0000
 20
0.0000
 30
0.0000
 40
0.1524
 41
0.1524
 70
0
  0
VERTEX
  8
50
 10
105.6876
 20
2.4106
 30
0.0000
 42
1.0000
  0
VERTEX
  8
50
 10
104.6612
 20
2.4106
 30
0.0000
  0
SEQEND
  8
0
  0
POLYLINE
  8
50
 66
1
 10
0.0000
 20
0.0000
 30
0.0000
 40
0.0762
 41
0.0762
 70
0
  0
VERTEX
  8
50
 10
105.6495
 20
2.4106
 30
0.0000
 42
1.0000
  0
VERTEX
  8
50
 10
105.7257
 20
2.4106
 30
0.0000
  0
SEQEND
  8
0
  0
POLYLINE
  8
50
 66
1
 10
0.0000
 20
0.0000
 30
0.0000
 40
0.0762
 41
0.0762
 70
0
  0
VERTEX
  8
50
 10
104.6231
 20
2.4106
 30
0.0000
 42
1.0000
  0
VERTEX
  8
50
 10
104.6993
 20
2.4106
 30
0.0000
  0
SEQEND
  8
0
  0
POLYLINE
  8
50
 66
1
 10
0.0000
 20
0.0000
 30
0.0000
 40
0.1524
 41
0.1524
 70
0
  0
VERTEX
  8
50
 10
105.6876
 20
2.4106
 30
0.0000
  0
VERTEX
  8
50
 10
105.6876
 20
1.5894
 30
0.0000
  0
SEQEND
  8
0
  0
POLYLINE
  8
50
 66
1
 10
0.0000
 20
0.0000
 30
0.0000
 40
0.0762
 41
0.0762
 70
0
  0
VERTEX
  8
50
 10
105.6495
 20
1.5894
 30
0.0000
 42
1.0000
  0
VERTEX
  8
50
 10
105.7257
 20
1.5894
 30
0.0000
  0
SEQEND
  8
0
  0
POLYLINE
  8
50
 66
1
 10
0.0000
 20
0.0000
 30
0.0000
 40
0.0762
 41
0.0762
 70
0
  0
VERTEX
  8
50
 10
105.7257
 20
2.4106
 30
0.0000
 42
1.0000
  0
VERTEX
  8
50
 10
105.6495
 20
2.4106
 30
0.0000
  0
SEQEND
  8
0
  0
POLYLINE
  8
50
 66
1
 10
0.0000
 20
0.0000
 30
0.0000
 40
0.1524
 41
0.1524
 70
0
  0
VERTEX
  8
50
 10
104.6612
 20
1.5894
 30
0.0000
 42
1.0000
  0
VERTEX
  8
50
 10
105.6876
 20
1.5894
 30
0.0000
  0
SEQEND
  8
0
  0
POLYLINE
  8
50
 66
1
 10
0.0000
 20
0.0000
 30
0.0000
 40
0.0762
 41
0.0762
 70
0
  0
VERTEX
  8
50
 10
104.6993
 20
1.5894
 30
0.0000
 42
1.0000
  0
VERTEX
  8
50
 10
104.6231
 20
1.5894
 30
0.0000
  0
SEQEND
  8
0
  0
POLYLINE
  8
50
 66
1
 10
0.0000
 20
0.0000
 30
0.0000
 40
0.0762
 41
0.0762
 70
0
  0
VERTEX
  8
50
 10
105.7257
 20
1.5894
 30
0.0000
 42
1.0000
  0
VERTEX
  8
50
 10
105.6495
 20
1.5894
 30
0.0000
  0
SEQEND
  8
0
  0
POLYLINE
  8
50
 66
1
 10
0.0000
 20
0.0000
 30
0.0000
 40
0.1524
 41
0.1524
 70
0
  0
VERTEX
  8
50
 10
106.4519
 20
1.0762
 30
0.0000
  0
VERTEX
  8
50
 10
106.4519
 20
2.9238
 30
0.0000
  0
SEQEND
  8
0
  0
POLYLINE
  8
50
 66
1
 10
0.0000
 20
0.0000
 30
0.0000
 40
0.0762
 41
0.0762
 70
0
  0
VERTEX
  8
50
 10
106.4900
 20
2.9238
 30
0.0000
 42
1.0000
  0
VERTEX
  8
50
 10
106.4138
 20
2.9238
 30
0.0000
  0
SEQEND
  8
0
  0
POLYLINE
  8
50
 66
1
 10
0.0000
 20
0.0000
 30
0.0000
 40
0.0762
 41
0.0762
 70
0
  0
VERTEX
  8
50
 10
106.4138
 20
1.0762
 30
0.0000
 42
1.0000
  0
VERTEX
  8
50
 10
106.4900
 20
1.0762
 30
0.0000
  0
SEQEND
  8
0
  0
POLYLINE
  8
50
 66
1
 10
0.0000
 20
0.0000
 30
0.0000
 40
0.1524
 41
0.1524
 70
0
  0
VERTEX
  8
50
 10
106.4519
 20
2.9238
 30
0.0000
  0
VERTEX
  8
50
 10
106.9651
 20
2.9238
 30
0.0000
  0
SEQEND
  8
0
  0
POLYLINE
  8
50
 66
1
 10
0.0000
 20
0.0000
 30
0.0000
 40
0.0762
 41
0.0762
 70
0
  0
VERTEX
  8
50
 10
106.9651
 20
2.8857
 30
0.0000
 42
1.0000
  0
VERTEX
  8
50
 10
106.9651
 20
2.9619
 30
0.0000
  0
SEQEND
  8
0
  0
POLYLINE
  8
50
 66
1
 10
0.0000
 20
0.0000
 30
0.0000
 40
0.0762
 41
0.0762
 70
0
  0
VERTEX
  8
50
 10
106.4519
 20
2.9619
 30
0.0000
 42
1.0000
  0
VERTEX
  8
50
 10
106.4519
 20
2.8857
 30
0.0000
  0
SEQEND
  8
0
  0
POLYLINE
  8
50
 66
1
 10
0.0000
 20
0.0000
 30
0.0000
 40
0.1524
 41
0.1524
 70
0
  0
VERTEX
  8
50
 10
106.9651
 20
1.8974
 30
0.0000
 42
1.0000
  0
VERTEX
  8
50
 10
106.9651
 20
2.9238
 30
0.0000
  0
SEQEND
  8
0
  0
POLYLINE
  8
50
 66
1
 10
0.0000
 20
0.0000
 30
0.0000
 40
0.0762
 41
0.0762
 70
0
  0
VERTEX
  8
50
 10
106.9651
 20
1.9355
 30
0.0000
 42
1.0000
  0
VERTEX
  8
50
 10
106.9651
 20
1.8593
 30
0.0000
  0
SEQEND
  8
0
  0
POLYLINE
  8
50
 66
1
 10
0.0000
 20
0.0000
 30
0.0000
 40
0.0762
 41
0.0762
 70
0
  0
VERTEX
  8
50
 10
106.9651
 20
2.9619
 30
0.0000
 42
1.0000
  0
VERTEX
  8
50
 10
106.9651
 20
2.8857
 30
0.0000
  0
SEQEND
  8
0
  0
POLYLINE
  8
50
 66
1
 10
0.0000
 20
0.0000
 30
0.0000
 40
0.1524
 41
0.1524
 70
0
  0
VERTEX
  8
50
 10
106.9651
 20
1.8974
 30
0.0000
  0
VERTEX
  8
50
 10
106.4519
 20
1.8974
 30
0.0000
  0
SEQEND
  8
0
  0
POLYLINE
  8
50
 66
1
 10
0.0000
 20
0.0000
 30
0.0000
 40
0.0762
 41
0.0762
 70
0
  0
VERTEX
  8
50
 10
106.4519
 20
1.9355
 30
0.0000
 42
1.0000
  0
VERTEX
  8
50
 10
106.4519
 20
1.8593
 30
0.0000
  0
SEQEND
  8
0
  0
POLYLINE
  8
50
 66
1
 10
0.0000
 20
0.0000
 30
0.0000
 40
0.0762
 41
0.0762
 70
0
  0
VERTEX
  8
50
 10
106.9651
 20
1.8593
 30
0.0000
 42
1.0000
  0
VERTEX
  8
50
 10
106.9651
 20
1.9355
 30
0.0000
  0
SEQEND
  8
0
  0
POLYLINE
  8
50
 66
1
 10
0.0000
 20
0.0000
 30
0.0000
 40
0.1524
 41
0.1524
 70
0
  0
VERTEX
  8
50
 10
107.4783
 20
1.0762
 30
0.0000
  0
VERTEX
  8
50
 10
107.0678
 20
1.8974
 30
0.0000
  0
SEQEND
  8
0
  0
POLYLINE
  8
50
 66
1
 10
0.0000
 20
0.0000
 30
0.0000
 40
0.0762
 41
0.0762
 70
0
  0
VERTEX
  8
50
 10
107.1018
 20
1.9144
 30
0.0000
 42
1.0000
  0
VERTEX
  8
50
 10
107.0337
 20
1.8803
 30
0.0000
  0
SEQEND
  8
0
  0
POLYLINE
  8
50
 66
1
 10
0.0000
 20
0.0000
 30
0.0000
 40
0.0762
 41
0.0762
 70
0
  0
VERTEX
  8
50
 10
107.4443
 20
1.0592
 30
0.0000
 42
1.0000
  0
VERTEX
  8
50
 10
107.5124
 20
1.0932
 30
0.0000
  0
SEQEND
  8
0
  0
POLYLINE
  8
50
 66
1
 10
0.0000
 20
0.0000
 30
0.0000
 40
0.1524
 41
0.1524
 70
0
  0
VERTEX
  8
50
 10
108.9860
 20
2.9238
 30
0.0000
  0
VERTEX
  8
50
 10
109.6019
 20
1.0762
 30
0.0000
  0
SEQEND
  8
0
  0
POLYLINE
  8
50
 66
1
 10
0.0000
 20
0.0000
 30
0.0000
 40
0.0762
 41
0.0762
 70
0
  0
VERTEX
  8
50
 10
109.5658
 20
1.0642
 30
0.0000
 42
1.0000
  0
VERTEX
  8
50
 10
109.6380
 20
1.0882
 30
0.0000
  0
SEQEND
  8
0
  0
POLYLINE
  8
50
 66
1
 10
0.0000
 20
0.0000
 30
0.0000
 40
0.0762
 41
0.0762
 70
0
  0
VERTEX
  8
50
 10
109.0222
 20
2.9358
 30
0.0000
 42
1.0000
  0
VERTEX
  8
50
 10
108.9499
 20
2.9118
 30
0.0000
  0
SEQEND
  8
0
  0
POLYLINE
  8
50
 66
1
 10
0.0000
 20
0.0000
 30
0.0000
 40
0.1524
 41
0.1524
 70
0
  0
VERTEX
  8
50
 10
109.6019
 20
1.0762
 30
0.0000
  0
VERTEX
  8
50
 10
110.2178
 20
2.9238
 30
0.0000
  0
SEQEND
  8
0
  0
POLYLINE
  8
50
 66
1
 10
0.0000
 20
0.0000
 30
0.0000
 40
0.0762
 41
0.0762
 70
0
  0
VERTEX
  8
50
 10
110.2539
 20
2.9118
 30
0.0000
 42
1.0000
  0
VERTEX
  8
50
 10
110.1816
 20
2.9358
 30
0.0000
  0
SEQEND
  8
0
  0
POLYLINE
  8
50
 66
1
 10
0.0000
 20
0.0000
 30
0.0000
 40
0.0762
 41
0.0762
 70
0
  0
VERTEX
  8
50
 10
109.5658
 20
1.0882
 30
0.0000
 42
1.0000
  0
VERTEX
  8
50
 10
109.6380
 20
1.0642
 30
0.0000
  0
SEQEND
  8
0
  0
POLYLINE
  8
50
 66
1
 10
0.0000
 20
0.0000
 30
0.0000
 40
0.1524
 41
0.1524
 70
0
  0
VERTEX
  8
50
 10
110.8137
 20
2.5132
 30
0.0000
  0
VERTEX
  8
50
 10
111.3269
 20
2.9238
 30
0.0000
  0
SEQEND
  8
0
  0
POLYLINE
  8
50
 66
1
 10
0.0000
 20
0.0000
 30
0.0000
 40
0.0762
 41
0.0762
 70
0
  0
VERTEX
  8
50
 10
111.3507
 20
2.8940
 30
0.0000
 42
1.0000
  0
VERTEX
  8
50
 10
111.3031
 20
2.9536
 30
0.0000
  0
SEQEND
  8
0
  0
POLYLINE
  8
50
 66
1
 10
0.0000
 20
0.0000
 30
0.0000
 40
0.0762
 41
0.0762
 70
0
  0
VERTEX
  8
50
 10
110.7899
 20
2.5430
 30
0.0000
 42
1.0000
  0
VERTEX
  8
50
 10
110.8375
 20
2.4835
 30
0.0000
  0
SEQEND
  8
0
  0
POLYLINE
  8
50
 66
1
 10
0.0000
 20
0.0000
 30
0.0000
 40
0.1524
 41
0.1524
 70
0
  0
VERTEX
  8
50
 10
111.3269
 20
2.9238
 30
0.0000
  0
VERTEX
  8
50
 10
111.3269
 20
1.0762
 30
0.0000
  0
SEQEND
  8
0
  0
POLYLINE
  8
50
 66
1
 10
0.0000
 20
0.0000
 30
0.0000
 40
0.0762
 41
0.0762
 70
0
  0
VERTEX
  8
50
 10
111.2888
 20
1.0762
 30
0.0000
 42
1.0000
  0
VERTEX
  8
50
 10
111.3650
 20
1.0762
 30
0.0000
  0
SEQEND
  8
0
  0
POLYLINE
  8
50
 66
1
 10
0.0000
 20
0.0000
 30
0.0000
 40
0.0762
 41
0.0762
 70
0
  0
VERTEX
  8
50
 10
111.3650
 20
2.9238
 30
0.0000
 42
1.0000
  0
VERTEX
  8
50
 10
111.2888
 20
2.9238
 30
0.0000
  0
SEQEND
  8
0
  0
POLYLINE
  8
50
 66
1
 10
0.0000
 20
0.0000
 30
0.0000
 40
0.1524
 41
0.1524
 70
0
  0
VERTEX
  8
50
 10
110.8137
 20
1.0762
 30
0.0000
  0
VERTEX
  8
50
 10
111.8401
 20
1.0762
 30
0.0000
  0
SEQEND
  8
0
  0
POLYLINE
  8
50
 66
1
 10
0.0000
 20
0.0000
 30
0.0000
 40
0.0762
 41
0.0762
 70
0
  0
VERTEX
  8
50
 10
111.8401
 20
1.0381
 30
0.0000
 42
1.0000
  0
VERTEX
  8
50
 10
111.8401
 20
1.1143
 30
0.0000
  0
SEQEND
  8
0
  0
POLYLINE
  8
50
 66
1
 10
0.0000
 20
0.0000
 30
0.0000
 40
0.0762
 41
0.0762
 70
0
  0
VERTEX
  8
50
 10
110.8137
 20
1.1143
 30
0.0000
 42
1.0000
  0
VERTEX
  8
50
 10
110.8137
 20
1.0381
 30
0.0000
  0
SEQEND
  8
0
  0
POLYLINE
  8
50
 66
1
 10
0.0000
 20
0.0000
 30
0.0000
 40
0.1524
 41
0.1524
 70
0
  0
VERTEX
  8
50
 10
112.4831
 20
1.0762
 30
0.0000
  0
VERTEX
  8
50
 10
112.4831
 20
1.1788
 30
0.0000
  0
SEQEND
  8
0
  0
POLYLINE
  8
50
 66
1
 10
0.0000
 20
0.0000
 30
0.0000
 40
0.0762
 41
0.0762
 70
0
  0
VERTEX
  8
50
 10
112.5212
 20
1.1788
 30
0.0000
 42
1.0000
  0
VERTEX
  8
50
 10
112.4450
 20
1.1788
 30
0.0000
  0
SEQEND
  8
0
  0
POLYLINE
  8
50
 66
1
 10
0.0000
 20
0.0000
 30
0.0000
 40
0.0762
 41
0.0762
 70
0
  0
VERTEX
  8
50
 10
112.4450
 20
1.0762
 30
0.0000
 42
1.0000
  0
VERTEX
  8
50
 10
112.5212
 20
1.0762
 30
0.0000
  0
SEQEND
  8
0
  0
POLYLINE
  8
50
 66
1
 10
0.0000
 20
0.0000
 30
0.0000
 40
0.1524
 41
0.1524
 70
0
  0
VERTEX
  8
50
 10
112.4831
 20
1.1788
 30
0.0000
  0
VERTEX
  8
50
 10
112.5857
 20
1.1788
 30
0.0000
  0
SEQEND
  8
0
  0
POLYLINE
  8
50
 66
1
 10
0.0000
 20
0.0000
 30
0.0000
 40
0.0762
 41
0.0762
 70
0
  0
VERTEX
  8
50
 10
112.5857
 20
1.1407
 30
0.0000
 42
1.0000
  0
VERTEX
  8
50
 10
112.5857
 20
1.2169
 30
0.0000
  0
SEQEND
  8
0
  0
POLYLINE
  8
50
 66
1
 10
0.0000
 20
0.0000
 30
0.0000
 40
0.0762
 41
0.0762
 70
0
  0
VERTEX
  8
50
 10
112.4831
 20
1.2169
 30
0.0000
 42
1.0000
  0
VERTEX
  8
50
 10
112.4831
 20
1.1407
 30
0.0000
  0
SEQEND
  8
0
  0
POLYLINE
  8
50
 66
1
 10
0.0000
 20
0.0000
 30
0.0000
 40
0.1524
 41
0.1524
 70
0
  0
VERTEX
  8
50
 10
112.5857
 20
1.1788
 30
0.0000
  0
VERTEX
  8
50
 10
112.5857
 20
1.0762
 30
0.0000
  0
SEQEND
  8
0
  0
POLYLINE
  8
50
 66
1
 10
0.0000
 20
0.0000
 30
0.0000
 40
0.0762
 41
0.0762
 70
0
  0
VERTEX
  8
50
 10
112.5476
 20
1.0762
 30
0.0000
 42
1.0000
  0
VERTEX
  8
50
 10
112.6238
 20
1.0762
 30
0.0000
  0
SEQEND
  8
0
  0
POLYLINE
  8
50
 66
1
 10
0.0000
 20
0.0000
 30
0.0000
 40
0.0762
 41
0.0762
 70
0
  0
VERTEX
  8
50
 10
112.6238
 20
1.1788
 30
0.0000
 42
1.0000
  0
VERTEX
  8
50
 10
112.5476
 20
1.1788
 30
0.0000
  0
SEQEND
  8
0
  0
POLYLINE
  8
50
 66
1
 10
0.0000
 20
0.0000
 30
0.0000
 40
0.1524
 41
0.1524
 70
0
  0
VERTEX
  8
50
 10
112.5857
 20
1.0762
 30
0.0000
  0
VERTEX
  8
50
 10
112.4831
 20
1.0762
 30
0.0000
  0
SEQEND
  8
0
  0
POLYLINE
  8
50
 66
1
 10
0.0000
 20
0.0000
 30
0.0000
 40
0.0762
 41
0.0762
 70
0
  0
VERTEX
  8
50
 10
112.4831
 20
1.1143
 30
0.0000
 42
1.0000
  0
VERTEX
  8
50
 10
112.4831
 20
1.0381
 30
0.0000
  0
SEQEND
  8
0
  0
POLYLINE
  8
50
 66
1
 10
0.0000
 20
0.0000
 30
0.0000
 40
0.0762
 41
0.0762
 70
0
  0
VERTEX
  8
50
 10
112.5857
 20
1.0381
 30
0.0000
 42
1.0000
  0
VERTEX
  8
50
 10
112.5857
 20
1.1143
 30
0.0000
  0
SEQEND
  8
0
  0
POLYLINE
  8
50
 66
1
 10
0.0000
 20
0.0000
 30
0.0000
 40
0.1524
 41
0.1524
 70
0
  0
VERTEX
  8
50
 10
113.3826
 20
2.6672
 30
0.0000
 42
0.1139
  0
VERTEX
  8
50
 10
113.2287
 20
2.0000
 30
0.0000
  0
SEQEND
  8
0
  0
POLYLINE
  8
50
 66
1
 10
0.0000
 20
0.0000
 30
0.0000
 40
0.0762
 41
0.0762
 70
0
  0
VERTEX
  8
50
 10
113.4169
 20
2.6505
 30
0.0000
 42
1.0000
  0
VERTEX
  8
50
 10
113.3484
 20
2.6839
 30
0.0000
  0
SEQEND
  8
0
  0
POLYLINE
  8
50
 66
1
 10
0.0000
 20
0.0000
 30
0.0000
 40
0.0762
 41
0.0762
 70
0
  0
VERTEX
  8
50
 10
113.1906
 20
2.0000
 30
0.0000
 42
1.0000
  0
VERTEX
  8
50
 10
113.2668
 20
2.0000
 30
0.0000
  0
SEQEND
  8
0
  0
POLYLINE
  8
50
 66
1
 10
0.0000
 20
0.0000
 30
0.0000
 40
0.1524
 41
0.1524
 70
0
  0
VERTEX
  8
50
 10
113.7419
 20
2.9238
 30
0.0000
 42
0.3205
  0
VERTEX
  8
50
 10
113.3826
 20
2.6672
 30
0.0000
  0
SEQEND
  8
0
  0
POLYLINE
  8
50
 66
1
 10
0.0000
 20
0.0000
 30
0.0000
 40
0.0762
 41
0.0762
 70
0
  0
VERTEX
  8
50
 10
113.7419
 20
2.8857
 30
0.0000
 42
1.0000
  0
VERTEX
  8
50
 10
113.7419
 20
2.9619
 30
0.0000
  0
SEQEND
  8
0
  0
POLYLINE
  8
50
 66
1
 10
0.0000
 20
0.0000
 30
0.0000
 40
0.0762
 41
0.0762
 70
0
  0
VERTEX
  8
50
 10
113.3466
 20
2.6795
 30
0.0000
 42
1.0000
  0
VERTEX
  8
50
 10
113.4187
 20
2.6548
 30
0.0000
  0
SEQEND
  8
0
  0
POLYLINE
  8
50
 66
1
 10
0.0000
 20
0.0000
 30
0.0000
 40
0.1524
 41
0.1524
 70
0
  0
VERTEX
  8
50
 10
114.1012
 20
2.6672
 30
0.0000
 42
0.3205
  0
VERTEX
  8
50
 10
113.7419
 20
2.9238
 30
0.0000
  0
SEQEND
  8
0
  0
POLYLINE
  8
50
 66
1
 10
0.0000
 20
0.0000
 30
0.0000
 40
0.0762
 41
0.0762
 70
0
  0
VERTEX
  8
50
 10
114.0651
 20
2.6548
 30
0.0000
 42
1.0000
  0
VERTEX
  8
50
 10
114.1372
 20
2.6795
 30
0.0000
  0
SEQEND
  8
0
  0
POLYLINE
  8
50
 66
1
 10
0.0000
 20
0.0000
 30
0.0000
 40
0.0762
 41
0.0762
 70
0
  0
VERTEX
  8
50
 10
113.7419
 20
2.9619
 30
0.0000
 42
1.0000
  0
VERTEX
  8
50
 10
113.7419
 20
2.8857
 30
0.0000
  0
SEQEND
  8
0
  0
POLYLINE
  8
50
 66
1
 10
0.0000
 20
0.0000
 30
0.0000
 40
0.1524
 41
0.1524
 70
0
  0
VERTEX
  8
50
 10
114.2551
 20
2.0000
 30
0.0000
 42
0.1139
  0
VERTEX
  8
50
 10
114.1012
 20
2.6672
 30
0.0000
  0
SEQEND
  8
0
  0
POLYLINE
  8
50
 66
1
 10
0.0000
 20
0.0000
 30
0.0000
 40
0.0762
 41
0.0762
 70
0
  0
VERTEX
  8
50
 10
114.2170
 20
2.0000
 30
0.0000
 42
1.0000
  0
VERTEX
  8
50
 10
114.2932
 20
2.0000
 30
0.0000
  0
SEQEND
  8
0
  0
POLYLINE
  8
50
 66
1
 10
0.0000
 20
0.0000
 30
0.0000
 40
0.0762
 41
0.0762
 70
0
  0
VERTEX
  8
50
 10
114.1354
 20
2.6839
 30
0.0000
 42
1.0000
  0
VERTEX
  8
50
 10
114.0669
 20
2.6505
 30
0.0000
  0
SEQEND
  8
0
  0
POLYLINE
  8
50
 66
1
 10
0.0000
 20
0.0000
 30
0.0000
 40
0.1524
 41
0.1524
 70
0
  0
VERTEX
  8
50
 10
113.2287
 20
2.0000
 30
0.0000
 42
0.1139
  0
VERTEX
  8
50
 10
113.3826
 20
1.3328
 30
0.0000
  0
SEQEND
  8
0
  0
POLYLINE
  8
50
 66
1
 10
0.0000
 20
0.0000
 30
0.0000
 40
0.0762
 41
0.0762
 70
0
  0
VERTEX
  8
50
 10
113.2668
 20
2.0000
 30
0.0000
 42
1.0000
  0
VERTEX
  8
50
 10
113.1906
 20
2.0000
 30
0.0000
  0
SEQEND
  8
0
  0
POLYLINE
  8
50
 66
1
 10
0.0000
 20
0.0000
 30
0.0000
 40
0.0762
 41
0.0762
 70
0
  0
VERTEX
  8
50
 10
113.3484
 20
1.3161
 30
0.0000
 42
1.0000
  0
VERTEX
  8
50
 10
113.4169
 20
1.3495
 30
0.0000
  0
SEQEND
  8
0
  0
POLYLINE
  8
50
 66
1
 10
0.0000
 20
0.0000
 30
0.0000
 40
0.1524
 41
0.1524
 70
0
  0
VERTEX
  8
50
 10
113.3826
 20
1.3328
 30
0.0000
 42
0.3205
  0
VERTEX
  8
50
 10
113.7419
 20
1.0762
 30
0.0000
  0
SEQEND
  8
0
  0
POLYLINE
  8
50
 66
1
 10
0.0000
 20
0.0000
 30
0.0000
 40
0.0762
 41
0.0762
 70
0
  0
VERTEX
  8
50
 10
113.4187
 20
1.3452
 30
0.0000
 42
1.0000
  0
VERTEX
  8
50
 10
113.3466
 20
1.3205
 30
0.0000
  0
SEQEND
  8
0
  0
POLYLINE
  8
50
 66
1
 10
0.0000
 20
0.0000
 30
0.0000
 40
0.0762
 41
0.0762
 70
0
  0
VERTEX
  8
50
 10
113.7419
 20
1.0381
 30
0.0000
 42
1.0000
  0
VERTEX
  8
50
 10
113.7419
 20
1.1143
 30
0.0000
  0
SEQEND
  8
0
  0
POLYLINE
  8
50
 66
1
 10
0.0000
 20
0.0000
 30
0.0000
 40
0.1524
 41
0.1524
 70
0
  0
VERTEX
  8
50
 10
114.1012
 20
1.3328
 30
0.0000
 42
0.1139
  0
VERTEX
  8
50
 10
114.2551
 20
2.0000
 30
0.0000
  0
SEQEND
  8
0
  0
POLYLINE
  8
50
 66
1
 10
0.0000
 20
0.0000
 30
0.0000
 40
0.0762
 41
0.0762
 70
0
  0
VERTEX
  8
50
 10
114.0669
 20
1.3495
 30
0.0000
 42
1.0000
  0
VERTEX
  8
50
 10
114.1354
 20
1.3161
 30
0.0000
  0
SEQEND
  8
0
  0
POLYLINE
  8
50
 66
1
 10
0.0000
 20
0.0000
 30
0.0000
 40
0.0762
 41
0.0762
 70
0
  0
VERTEX
  8
50
 10
114.2932
 20
2.0000
 30
0.0000
 42
1.0000
  0
VERTEX
  8
50
 10
114.2170
 20
2.0000
 30
0.0000
  0
SEQEND
  8
0
  0
POLYLINE
  8
50
 66
1
 10
0.0000
 20
0.0000
 30
0.0000
 40
0.1524
 41
0.1524
 70
0
  0
VERTEX
  8
50
 10
113.7419
 20
1.0762
 30
0.0000
 42
0.3205
  0
VERTEX
  8
50
 10
114.1012
 20
1.3328
 30
0.0000
  0
SEQEND
  8
0
  0
POLYLINE
  8
50
 66
1
 10
0.0000
 20
0.0000
 30
0.0000
 40
0.0762
 41
0.0762
 70
0
  0
VERTEX
  8
50
 10
113.7419
 20
1.1143
 30
0.0000
 42
1.0000
  0
VERTEX
  8
50
 10
113.7419
 20
1.0381
 30
0.0000
  0
SEQEND
  8
0
  0
POLYLINE
  8
50
 66
1
 10
0.0000
 20
0.0000
 30
0.0000
 40
0.0762
 41
0.0762
 70
0
  0
VERTEX
  8
50
 10
114.1372
 20
1.3205
 30
0.0000
 42
1.0000
  0
VERTEX
  8
50
 10
114.0651
 20
1.3452
 30
0.0000
  0
SEQEND
  8
0
  0
POLYLINE
  8
50
 66
1
 10
0.0000
 20
0.0000
 30
0.0000
 40
0.1524
 41
0.1524
 70
0
  0
VERTEX
  8
50
 10
113.3313
 20
1.4868
 30
0.0000
  0
VERTEX
  8
50
 10
114.1525
 20
2.5132
 30
0.0000
  0
SEQEND
  8
0
  0
POLYLINE
  8
50
 66
1
 10
0.0000
 20
0.0000
 30
0.0000
 40
0.0762
 41
0.0762
 70
0
  0
VERTEX
  8
50
 10
114.1822
 20
2.4894
 30
0.0000
 42
1.0000
  0
VERTEX
  8
50
 10
114.1227
 20
2.5370
 30
0.0000
  0
SEQEND
  8
0
  0
POLYLINE
  8
50
 66
1
 10
0.0000
 20
0.0000
 30
0.0000
 40
0.0762
 41
0.0762
 70
0
  0
VERTEX
  8
50
 10
113.3016
 20
1.5106
 30
0.0000
 42
1.0000
  0
VERTEX
  8
50
 10
113.3611
 20
1.4630
 30
0.0000
  0
SEQEND
  8
0
  0
POLYLINE
  8
50
 66
1
 10
0.0000
 20
0.0000
 30
0.0000
 40
0.0010
 41
0.0010
 70
0
  0
VERTEX
  8
50
 10
53.0000
 20
8.9000
 30
0.0000
 42
1.0000
  0
VERTEX
  8
50
 10
53.0000
 20
11.1000
 30
0.0000
 42
1.0000
  0
VERTEX
  8
50
 10
53.0000
 20
8.9000
 30
0.0000
  0
SEQEND
  8
0
  0
POLYLINE
  8
50
 66
1
 10
0.0000
 20
0.0000
 30
0.0000
 40
0.0010
 41
0.0010
 70
0
  0
VERTEX
  8
50
 10
53.0000
 20
58.9000
 30
0.0000
 42
1.0000
  0
VERTEX
  8
50
 10
53.0000
 20
61.1000
 30
0.0000
 42
1.0000
  0
VERTEX
  8
50
 10
53.0000
 20
58.9000
 30
0.0000
  0
SEQEND
  8
0
  0
POLYLINE
  8
50
 66
1
 10
0.0000
 20
0.0000
 30
0.0000
 40
0.0010
 41
0.0010
 70
0
  0
VERTEX
  8
50
 10
99.0000
 20
58.9000
 30
0.0000
 42
1.0000
  0
VERTEX
  8
50
 10
99.0000
 20
61.1000
 30
0.0000
 42
1.0000
  0
VERTEX
  8
50
 10
99.0000
 20
58.9000
 30
0.0000
  0
SEQEND
  8
0
  0
POLYLINE
  8
50
 66
1
 10
0.0000
 20
0.0000
 30
0.0000
 40
0.0010
 41
0.0010
 70
0
  0
VERTEX
  8
50
 10
145.0000
 20
58.9000
 30
0.0000
 42
1.0000
  0
VERTEX
  8
50
 10
145.0000
 20
61.1000
 30
0.0000
 42
1.0000
  0
VERTEX
  8
50
 10
145.0000
 20
58.9000
 30
0.0000
  0
SEQEND
  8
0
  0
POLYLINE
  8
50
 66
1
 10
0.0000
 20
0.0000
 30
0.0000
 40
0.0010
 41
0.0010
 70
0
  0
VERTEX
  8
50
 10
145.0000
 20
8.9000
 30
0.0000
 42
1.0000
  0
VERTEX
  8
50
 10
145.0000
 20
11.1000
 30
0.0000
 42
1.0000
  0
VERTEX
  8
50
 10
145.0000
 20
8.9000
 30
0.0000
  0
SEQEND
  8
0
  0
POLYLINE
  8
50
 66
1
 10
0.0000
 20
0.0000
 30
0.0000
 40
0.0010
 41
0.0010
 70
0
  0
VERTEX
  8
50
 10
99.0000
 20
8.9000
 30
0.0000
 42
1.0000
  0
VERTEX
  8
50
 10
99.0000
 20
11.1000
 30
0.0000
 42
1.0000
  0
VERTEX
  8
50
 10
99.0000
 20
8.9000
 30
0.0000
  0
SEQEND
  8
0
  0
ENDSEC
  0
EOF
