M48
INCH,TZ
T1C0.016
T2C0.040
%
G90
G05
T1
X5.9843Y-2.6772
X5.9843Y-2.8346
X5.9843Y-2.9921
X5.9843Y-3.1496
X5.9843Y-3.3071
X5.9843Y-3.5039
X5.9843Y-3.622
X5.9843Y-3.7795
X6.1024Y-3.5039
X6.1024Y-3.622
X6.1024Y-3.7795
X6.1811Y-2.6772
X6.2205Y-3.1102
X6.2205Y-3.5039
X6.2205Y-3.622
X6.2205Y-3.7795
X6.25Y-3.3268
X6.3386Y-2.6772
X6.3386Y-3.2677
X6.34Y-2.92
X6.35Y-2.88
X6.378Y-3.0315
X6.378Y-3.3858
X6.378Y-3.5039
X6.378Y-3.622
X6.378Y-3.7795
X6.47Y-2.934
X6.49Y-3.2
X6.49Y-3.29
X6.4961Y-2.6772
X6.5Y-3.23
X6.5354Y-3.4252
X6.5354Y-3.5039
X6.5354Y-3.622
X6.5354Y-3.7795
X6.56Y-2.86
X6.6098Y-3.1583
X6.613Y-3.3449
X6.6535Y-2.6772
X6.6929Y-3.5039
X6.6929Y-3.622
X6.6929Y-3.7795
X6.7264Y-2.8642
X6.7394Y-2.7457
X6.7602Y-3.2028
X6.77Y-3.32
X6.78Y-3.46
X6.7906Y-2.9791
X6.7945Y-3.1071
X6.811Y-2.6772
X6.811Y-3.622
X6.8504Y-3.7795
X6.89Y-3.35
X6.9685Y-2.6772
X6.9752Y-2.737
X7.Y-3.32
X7.0079Y-3.7795
X7.07Y-3.42
X7.0815Y-2.9898
X7.09Y-2.95
X7.126Y-2.6772
X7.13Y-3.14
X7.14Y-3.09
X7.16Y-3.05
X7.1614Y-3.5236
X7.1965Y-2.7496
X7.2047Y-3.7795
X7.21Y-3.03
X7.2185Y-2.989
X7.2598Y-3.0591
X7.2835Y-2.6772
X7.2835Y-3.4646
X7.2933Y-3.2185
X7.3012Y-3.0795
X7.33Y-2.89
X7.3465Y-3.211
X7.3465Y-3.2776
X7.3783Y-3.0437
X7.38Y-3.21
X7.4016Y-3.5433
X7.4016Y-3.7795
X7.4409Y-2.6772
X7.5591Y-3.7795
X7.5984Y-2.6772
X7.7165Y-2.6772
X7.7165Y-2.7953
X7.7165Y-2.9528
X7.7165Y-3.1102
X7.7165Y-3.3071
X7.7165Y-3.4646
X7.7165Y-3.622
X7.7165Y-3.7795
T2
X6.2Y-2.84
X6.2Y-2.94
X7.494Y-2.844
X7.494Y-2.944
X7.494Y-3.044
X7.494Y-3.144
X7.494Y-3.244
X7.494Y-3.344
X7.494Y-3.444
T0
M30
