%
M48
M72
T01C0.0236
T02C0.0276
T03C0.0315
T04C0.0400
%
T01
X8767Y2176
X9161Y3357
X13885Y6113
T02
X14029Y7082
X14529Y7082
X14529Y7582
X14029Y7582
X14029Y8082
X14529Y8082
X14029Y8582
X14029Y9082
X14529Y9082
T03
X2468Y2570
X2468Y3357
X2468Y4145
X2468Y4932
X2468Y5720
X2468Y6507
X2468Y7294
X2468Y8082
T04
X6405Y7826
X6405Y6826
X6405Y5826
X6405Y4826
X6405Y3826
X6405Y2826
X6405Y1826
X9811Y1428
X10811Y1428
X11811Y1428
X12811Y1428
X13811Y1428
X14811Y1428
X6405Y8826
M30
