G75*
%MOIN*%
%OFA0B0*%
%FSLAX25Y25*%
%IPPOS*%
%LPD*%
%AMOC8*
5,1,8,0,0,1.08239X$1,22.5*
%
%ADD10C,0.00800*%
D10*
X0020744Y0017826D02*
X0036492Y0017826D01*
X0036616Y0017824D01*
X0036739Y0017818D01*
X0036863Y0017809D01*
X0036985Y0017795D01*
X0037108Y0017778D01*
X0037230Y0017756D01*
X0037351Y0017731D01*
X0037471Y0017702D01*
X0037590Y0017670D01*
X0037709Y0017633D01*
X0037826Y0017593D01*
X0037941Y0017550D01*
X0038056Y0017502D01*
X0038168Y0017451D01*
X0038279Y0017397D01*
X0038389Y0017339D01*
X0038496Y0017278D01*
X0038602Y0017213D01*
X0038705Y0017145D01*
X0038806Y0017074D01*
X0038905Y0017000D01*
X0039002Y0016923D01*
X0039096Y0016842D01*
X0039187Y0016759D01*
X0039276Y0016673D01*
X0039362Y0016584D01*
X0039445Y0016493D01*
X0039526Y0016399D01*
X0039603Y0016302D01*
X0039677Y0016203D01*
X0039748Y0016102D01*
X0039816Y0015999D01*
X0039881Y0015893D01*
X0039942Y0015786D01*
X0040000Y0015676D01*
X0040054Y0015565D01*
X0040105Y0015453D01*
X0040153Y0015338D01*
X0040196Y0015223D01*
X0040236Y0015106D01*
X0040273Y0014987D01*
X0040305Y0014868D01*
X0040334Y0014748D01*
X0040359Y0014627D01*
X0040381Y0014505D01*
X0040398Y0014382D01*
X0040412Y0014260D01*
X0040421Y0014136D01*
X0040427Y0014013D01*
X0040429Y0013889D01*
X0040429Y0009952D01*
X0040431Y0009828D01*
X0040437Y0009705D01*
X0040446Y0009581D01*
X0040460Y0009459D01*
X0040477Y0009336D01*
X0040499Y0009214D01*
X0040524Y0009093D01*
X0040553Y0008973D01*
X0040585Y0008854D01*
X0040622Y0008735D01*
X0040662Y0008618D01*
X0040705Y0008503D01*
X0040753Y0008388D01*
X0040804Y0008276D01*
X0040858Y0008165D01*
X0040916Y0008055D01*
X0040977Y0007948D01*
X0041042Y0007842D01*
X0041110Y0007739D01*
X0041181Y0007638D01*
X0041255Y0007539D01*
X0041332Y0007442D01*
X0041413Y0007348D01*
X0041496Y0007257D01*
X0041582Y0007168D01*
X0041671Y0007082D01*
X0041762Y0006999D01*
X0041856Y0006918D01*
X0041953Y0006841D01*
X0042052Y0006767D01*
X0042153Y0006696D01*
X0042256Y0006628D01*
X0042362Y0006563D01*
X0042469Y0006502D01*
X0042579Y0006444D01*
X0042690Y0006390D01*
X0042802Y0006339D01*
X0042917Y0006291D01*
X0043032Y0006248D01*
X0043149Y0006208D01*
X0043268Y0006171D01*
X0043387Y0006139D01*
X0043507Y0006110D01*
X0043628Y0006085D01*
X0043750Y0006063D01*
X0043873Y0006046D01*
X0043995Y0006032D01*
X0044119Y0006023D01*
X0044242Y0006017D01*
X0044366Y0006015D01*
X0154602Y0006015D01*
X0154726Y0006017D01*
X0154849Y0006023D01*
X0154973Y0006032D01*
X0155095Y0006046D01*
X0155218Y0006063D01*
X0155340Y0006085D01*
X0155461Y0006110D01*
X0155581Y0006139D01*
X0155700Y0006171D01*
X0155819Y0006208D01*
X0155936Y0006248D01*
X0156051Y0006291D01*
X0156166Y0006339D01*
X0156278Y0006390D01*
X0156389Y0006444D01*
X0156499Y0006502D01*
X0156606Y0006563D01*
X0156712Y0006628D01*
X0156815Y0006696D01*
X0156916Y0006767D01*
X0157015Y0006841D01*
X0157112Y0006918D01*
X0157206Y0006999D01*
X0157297Y0007082D01*
X0157386Y0007168D01*
X0157472Y0007257D01*
X0157555Y0007348D01*
X0157636Y0007442D01*
X0157713Y0007539D01*
X0157787Y0007638D01*
X0157858Y0007739D01*
X0157926Y0007842D01*
X0157991Y0007948D01*
X0158052Y0008055D01*
X0158110Y0008165D01*
X0158164Y0008276D01*
X0158215Y0008388D01*
X0158263Y0008503D01*
X0158306Y0008618D01*
X0158346Y0008735D01*
X0158383Y0008854D01*
X0158415Y0008973D01*
X0158444Y0009093D01*
X0158469Y0009214D01*
X0158491Y0009336D01*
X0158508Y0009459D01*
X0158522Y0009581D01*
X0158531Y0009705D01*
X0158537Y0009828D01*
X0158539Y0009952D01*
X0158539Y0096567D01*
X0158537Y0096691D01*
X0158531Y0096814D01*
X0158522Y0096938D01*
X0158508Y0097060D01*
X0158491Y0097183D01*
X0158469Y0097305D01*
X0158444Y0097426D01*
X0158415Y0097546D01*
X0158383Y0097665D01*
X0158346Y0097784D01*
X0158306Y0097901D01*
X0158263Y0098016D01*
X0158215Y0098131D01*
X0158164Y0098243D01*
X0158110Y0098354D01*
X0158052Y0098464D01*
X0157991Y0098571D01*
X0157926Y0098677D01*
X0157858Y0098780D01*
X0157787Y0098881D01*
X0157713Y0098980D01*
X0157636Y0099077D01*
X0157555Y0099171D01*
X0157472Y0099262D01*
X0157386Y0099351D01*
X0157297Y0099437D01*
X0157206Y0099520D01*
X0157112Y0099601D01*
X0157015Y0099678D01*
X0156916Y0099752D01*
X0156815Y0099823D01*
X0156712Y0099891D01*
X0156606Y0099956D01*
X0156499Y0100017D01*
X0156389Y0100075D01*
X0156278Y0100129D01*
X0156166Y0100180D01*
X0156051Y0100228D01*
X0155936Y0100271D01*
X0155819Y0100311D01*
X0155700Y0100348D01*
X0155581Y0100380D01*
X0155461Y0100409D01*
X0155340Y0100434D01*
X0155218Y0100456D01*
X0155095Y0100473D01*
X0154973Y0100487D01*
X0154849Y0100496D01*
X0154726Y0100502D01*
X0154602Y0100504D01*
X0044366Y0100504D01*
X0044242Y0100502D01*
X0044119Y0100496D01*
X0043995Y0100487D01*
X0043873Y0100473D01*
X0043750Y0100456D01*
X0043628Y0100434D01*
X0043507Y0100409D01*
X0043387Y0100380D01*
X0043268Y0100348D01*
X0043149Y0100311D01*
X0043032Y0100271D01*
X0042917Y0100228D01*
X0042802Y0100180D01*
X0042690Y0100129D01*
X0042579Y0100075D01*
X0042469Y0100017D01*
X0042362Y0099956D01*
X0042256Y0099891D01*
X0042153Y0099823D01*
X0042052Y0099752D01*
X0041953Y0099678D01*
X0041856Y0099601D01*
X0041762Y0099520D01*
X0041671Y0099437D01*
X0041582Y0099351D01*
X0041496Y0099262D01*
X0041413Y0099171D01*
X0041332Y0099077D01*
X0041255Y0098980D01*
X0041181Y0098881D01*
X0041110Y0098780D01*
X0041042Y0098677D01*
X0040977Y0098571D01*
X0040916Y0098464D01*
X0040858Y0098354D01*
X0040804Y0098243D01*
X0040753Y0098131D01*
X0040705Y0098016D01*
X0040662Y0097901D01*
X0040622Y0097784D01*
X0040585Y0097665D01*
X0040553Y0097546D01*
X0040524Y0097426D01*
X0040499Y0097305D01*
X0040477Y0097183D01*
X0040460Y0097060D01*
X0040446Y0096938D01*
X0040437Y0096814D01*
X0040431Y0096691D01*
X0040429Y0096567D01*
X0040429Y0092630D01*
X0040427Y0092506D01*
X0040421Y0092383D01*
X0040412Y0092259D01*
X0040398Y0092137D01*
X0040381Y0092014D01*
X0040359Y0091892D01*
X0040334Y0091771D01*
X0040305Y0091651D01*
X0040273Y0091532D01*
X0040236Y0091413D01*
X0040196Y0091296D01*
X0040153Y0091181D01*
X0040105Y0091066D01*
X0040054Y0090954D01*
X0040000Y0090843D01*
X0039942Y0090733D01*
X0039881Y0090626D01*
X0039816Y0090520D01*
X0039748Y0090417D01*
X0039677Y0090316D01*
X0039603Y0090217D01*
X0039526Y0090120D01*
X0039445Y0090026D01*
X0039362Y0089935D01*
X0039276Y0089846D01*
X0039187Y0089760D01*
X0039096Y0089677D01*
X0039002Y0089596D01*
X0038905Y0089519D01*
X0038806Y0089445D01*
X0038705Y0089374D01*
X0038602Y0089306D01*
X0038496Y0089241D01*
X0038389Y0089180D01*
X0038279Y0089122D01*
X0038168Y0089068D01*
X0038056Y0089017D01*
X0037941Y0088969D01*
X0037826Y0088926D01*
X0037709Y0088886D01*
X0037590Y0088849D01*
X0037471Y0088817D01*
X0037351Y0088788D01*
X0037230Y0088763D01*
X0037108Y0088741D01*
X0036985Y0088724D01*
X0036863Y0088710D01*
X0036739Y0088701D01*
X0036616Y0088695D01*
X0036492Y0088693D01*
X0036492Y0088692D02*
X0020744Y0088692D01*
X0020620Y0088690D01*
X0020497Y0088684D01*
X0020373Y0088675D01*
X0020251Y0088661D01*
X0020128Y0088644D01*
X0020006Y0088622D01*
X0019885Y0088597D01*
X0019765Y0088568D01*
X0019646Y0088536D01*
X0019527Y0088499D01*
X0019410Y0088459D01*
X0019295Y0088416D01*
X0019180Y0088368D01*
X0019068Y0088317D01*
X0018957Y0088263D01*
X0018847Y0088205D01*
X0018740Y0088144D01*
X0018634Y0088079D01*
X0018531Y0088011D01*
X0018430Y0087940D01*
X0018331Y0087866D01*
X0018234Y0087789D01*
X0018140Y0087708D01*
X0018049Y0087625D01*
X0017960Y0087539D01*
X0017874Y0087450D01*
X0017791Y0087359D01*
X0017710Y0087265D01*
X0017633Y0087168D01*
X0017559Y0087069D01*
X0017488Y0086968D01*
X0017420Y0086865D01*
X0017355Y0086759D01*
X0017294Y0086652D01*
X0017236Y0086542D01*
X0017182Y0086431D01*
X0017131Y0086319D01*
X0017083Y0086204D01*
X0017040Y0086089D01*
X0017000Y0085972D01*
X0016963Y0085853D01*
X0016931Y0085734D01*
X0016902Y0085614D01*
X0016877Y0085493D01*
X0016855Y0085371D01*
X0016838Y0085248D01*
X0016824Y0085126D01*
X0016815Y0085002D01*
X0016809Y0084879D01*
X0016807Y0084755D01*
X0016807Y0021763D01*
X0016809Y0021639D01*
X0016815Y0021516D01*
X0016824Y0021392D01*
X0016838Y0021270D01*
X0016855Y0021147D01*
X0016877Y0021025D01*
X0016902Y0020904D01*
X0016931Y0020784D01*
X0016963Y0020665D01*
X0017000Y0020546D01*
X0017040Y0020429D01*
X0017083Y0020314D01*
X0017131Y0020199D01*
X0017182Y0020087D01*
X0017236Y0019976D01*
X0017294Y0019866D01*
X0017355Y0019759D01*
X0017420Y0019653D01*
X0017488Y0019550D01*
X0017559Y0019449D01*
X0017633Y0019350D01*
X0017710Y0019253D01*
X0017791Y0019159D01*
X0017874Y0019068D01*
X0017960Y0018979D01*
X0018049Y0018893D01*
X0018140Y0018810D01*
X0018234Y0018729D01*
X0018331Y0018652D01*
X0018430Y0018578D01*
X0018531Y0018507D01*
X0018634Y0018439D01*
X0018740Y0018374D01*
X0018847Y0018313D01*
X0018957Y0018255D01*
X0019068Y0018201D01*
X0019180Y0018150D01*
X0019295Y0018102D01*
X0019410Y0018059D01*
X0019527Y0018019D01*
X0019646Y0017982D01*
X0019765Y0017950D01*
X0019885Y0017921D01*
X0020006Y0017896D01*
X0020128Y0017874D01*
X0020251Y0017857D01*
X0020373Y0017843D01*
X0020497Y0017834D01*
X0020620Y0017828D01*
X0020744Y0017826D01*
M02*
