G75*
%MOIN*%
%OFA0B0*%
%FSLAX25Y25*%
%IPPOS*%
%LPD*%
%AMOC8*
5,1,8,0,0,1.08239X$1,22.5*
%
%ADD10C,0.04156*%
%ADD11C,0.06000*%
%ADD12R,0.03150X0.03150*%
%ADD13R,0.03937X0.04331*%
%ADD14R,0.08504X0.13189*%
%ADD15R,0.04724X0.04724*%
%ADD16C,0.04724*%
%ADD17C,0.00800*%
%ADD18C,0.01600*%
%ADD19R,0.03762X0.03762*%
D10*
X0136135Y0070818D02*
X0140291Y0070818D01*
X0145291Y0070818D02*
X0149447Y0070818D01*
X0149447Y0075818D02*
X0145291Y0075818D01*
X0140291Y0075818D02*
X0136135Y0075818D01*
X0136135Y0080818D02*
X0140291Y0080818D01*
X0145291Y0080818D02*
X0149447Y0080818D01*
X0140291Y0085818D02*
X0136135Y0085818D01*
X0136135Y0090818D02*
X0140291Y0090818D01*
X0145291Y0090818D02*
X0149447Y0090818D01*
D11*
X0067051Y0088259D02*
X0061051Y0088259D01*
X0061051Y0078259D02*
X0067051Y0078259D01*
X0067051Y0068259D02*
X0061051Y0068259D01*
X0061051Y0058259D02*
X0067051Y0058259D01*
X0067051Y0048259D02*
X0061051Y0048259D01*
X0061051Y0038259D02*
X0067051Y0038259D01*
X0067051Y0028259D02*
X0061051Y0028259D01*
X0061051Y0018259D02*
X0067051Y0018259D01*
X0098106Y0017283D02*
X0098106Y0011283D01*
X0108106Y0011283D02*
X0108106Y0017283D01*
X0118106Y0017283D02*
X0118106Y0011283D01*
X0128106Y0011283D02*
X0128106Y0017283D01*
X0138106Y0017283D02*
X0138106Y0011283D01*
X0148106Y0011283D02*
X0148106Y0017283D01*
D12*
X0144150Y0037531D03*
X0138244Y0037531D03*
D13*
X0137850Y0045031D03*
X0144543Y0045031D03*
D14*
X0103697Y0043141D03*
X0103697Y0081921D03*
D15*
X0024681Y0080818D03*
D16*
X0024681Y0072944D03*
X0024681Y0065070D03*
X0024681Y0057196D03*
X0024681Y0049322D03*
X0024681Y0041448D03*
X0024681Y0033574D03*
X0024681Y0025700D03*
D17*
X0019835Y0020402D02*
X0019383Y0020854D01*
X0019139Y0021444D01*
X0019107Y0021763D01*
X0019107Y0084755D01*
X0019139Y0085075D01*
X0019383Y0085665D01*
X0019835Y0086117D01*
X0020425Y0086361D01*
X0020744Y0086392D01*
X0037733Y0086392D01*
X0040025Y0087342D01*
X0040025Y0087342D01*
X0041780Y0089097D01*
X0042729Y0091389D01*
X0042729Y0096567D01*
X0042761Y0096886D01*
X0043005Y0097476D01*
X0043457Y0097928D01*
X0044047Y0098172D01*
X0044366Y0098204D01*
X0154602Y0098204D01*
X0154922Y0098172D01*
X0155512Y0097928D01*
X0155963Y0097476D01*
X0156208Y0096886D01*
X0156239Y0096566D01*
X0156239Y0009952D01*
X0156208Y0009633D01*
X0155963Y0009043D01*
X0155512Y0008591D01*
X0154922Y0008347D01*
X0154602Y0008315D01*
X0150795Y0008315D01*
X0151497Y0009017D01*
X0152106Y0010487D01*
X0152106Y0018079D01*
X0151497Y0019549D01*
X0150372Y0020674D01*
X0148902Y0021283D01*
X0147311Y0021283D01*
X0145840Y0020674D01*
X0144715Y0019549D01*
X0144106Y0018079D01*
X0144106Y0010487D01*
X0144715Y0009017D01*
X0145417Y0008315D01*
X0140795Y0008315D01*
X0141497Y0009017D01*
X0142106Y0010487D01*
X0142106Y0018079D01*
X0141497Y0019549D01*
X0140372Y0020674D01*
X0139867Y0020883D01*
X0139867Y0026052D01*
X0138813Y0027107D01*
X0136914Y0029005D01*
X0135860Y0030059D01*
X0070635Y0030059D01*
X0070442Y0030525D01*
X0069317Y0031650D01*
X0067847Y0032259D01*
X0060256Y0032259D01*
X0058785Y0031650D01*
X0057660Y0030525D01*
X0057467Y0030059D01*
X0046490Y0030059D01*
X0042229Y0034320D01*
X0041175Y0035374D01*
X0027575Y0035374D01*
X0027531Y0035479D01*
X0026586Y0036425D01*
X0025350Y0036937D01*
X0024012Y0036937D01*
X0022777Y0036425D01*
X0021831Y0035479D01*
X0021319Y0034243D01*
X0021319Y0032906D01*
X0021831Y0031670D01*
X0022777Y0030724D01*
X0024012Y0030212D01*
X0025350Y0030212D01*
X0026586Y0030724D01*
X0027531Y0031670D01*
X0027575Y0031774D01*
X0039684Y0031774D01*
X0044999Y0026459D01*
X0057467Y0026459D01*
X0057660Y0025994D01*
X0058785Y0024868D01*
X0060256Y0024259D01*
X0067847Y0024259D01*
X0069317Y0024868D01*
X0070442Y0025994D01*
X0070635Y0026459D01*
X0134369Y0026459D01*
X0136267Y0024561D01*
X0136267Y0020851D01*
X0135840Y0020674D01*
X0134715Y0019549D01*
X0134106Y0018079D01*
X0134106Y0010487D01*
X0134715Y0009017D01*
X0135417Y0008315D01*
X0130795Y0008315D01*
X0131497Y0009017D01*
X0132106Y0010487D01*
X0132106Y0018079D01*
X0131497Y0019549D01*
X0130372Y0020674D01*
X0128902Y0021283D01*
X0127311Y0021283D01*
X0125840Y0020674D01*
X0124715Y0019549D01*
X0124106Y0018079D01*
X0124106Y0010487D01*
X0124715Y0009017D01*
X0125417Y0008315D01*
X0120795Y0008315D01*
X0121497Y0009017D01*
X0122106Y0010487D01*
X0122106Y0018079D01*
X0121497Y0019549D01*
X0120372Y0020674D01*
X0118902Y0021283D01*
X0117311Y0021283D01*
X0115840Y0020674D01*
X0114715Y0019549D01*
X0114106Y0018079D01*
X0114106Y0010487D01*
X0114715Y0009017D01*
X0115417Y0008315D01*
X0110795Y0008315D01*
X0111497Y0009017D01*
X0112106Y0010487D01*
X0112106Y0018079D01*
X0111497Y0019549D01*
X0110372Y0020674D01*
X0108902Y0021283D01*
X0107311Y0021283D01*
X0105840Y0020674D01*
X0104715Y0019549D01*
X0104106Y0018079D01*
X0104106Y0010487D01*
X0104715Y0009017D01*
X0105417Y0008315D01*
X0101361Y0008315D01*
X0101462Y0008417D01*
X0101870Y0008977D01*
X0102184Y0009594D01*
X0102398Y0010253D01*
X0102506Y0010937D01*
X0102506Y0013883D01*
X0098506Y0013883D01*
X0098506Y0014683D01*
X0097706Y0014683D01*
X0097706Y0013883D01*
X0093706Y0013883D01*
X0093706Y0010937D01*
X0093815Y0010253D01*
X0094029Y0009594D01*
X0094343Y0008977D01*
X0094750Y0008417D01*
X0094852Y0008315D01*
X0044366Y0008315D01*
X0044047Y0008347D01*
X0043457Y0008591D01*
X0043005Y0009043D01*
X0042761Y0009633D01*
X0042729Y0009952D01*
X0042729Y0015130D01*
X0041780Y0017422D01*
X0041780Y0017422D01*
X0040025Y0019177D01*
X0037733Y0020126D01*
X0020744Y0020126D01*
X0020425Y0020158D01*
X0019835Y0020402D01*
X0019668Y0020569D02*
X0043015Y0020569D01*
X0043813Y0019771D02*
X0038592Y0019771D01*
X0040025Y0019177D02*
X0040025Y0019177D01*
X0040230Y0018972D02*
X0044612Y0018972D01*
X0045410Y0018174D02*
X0041028Y0018174D01*
X0041799Y0017375D02*
X0046209Y0017375D01*
X0046070Y0017514D02*
X0047124Y0016459D01*
X0057467Y0016459D01*
X0057660Y0015994D01*
X0058785Y0014868D01*
X0060256Y0014259D01*
X0067847Y0014259D01*
X0069317Y0014868D01*
X0070442Y0015994D01*
X0070635Y0016459D01*
X0084915Y0016459D01*
X0087338Y0018882D01*
X0089969Y0018882D01*
X0090554Y0019468D01*
X0090554Y0024059D01*
X0089969Y0024644D01*
X0085378Y0024644D01*
X0084792Y0024059D01*
X0084792Y0021428D01*
X0083424Y0020059D01*
X0070635Y0020059D01*
X0070442Y0020525D01*
X0069317Y0021650D01*
X0067847Y0022259D01*
X0060256Y0022259D01*
X0058785Y0021650D01*
X0057660Y0020525D01*
X0057467Y0020059D01*
X0048616Y0020059D01*
X0042229Y0026446D01*
X0041175Y0027500D01*
X0027575Y0027500D01*
X0027531Y0027605D01*
X0026586Y0028551D01*
X0025350Y0029063D01*
X0024012Y0029063D01*
X0022777Y0028551D01*
X0021831Y0027605D01*
X0021319Y0026369D01*
X0021319Y0025032D01*
X0021831Y0023796D01*
X0022777Y0022850D01*
X0024012Y0022338D01*
X0025350Y0022338D01*
X0026586Y0022850D01*
X0027531Y0023796D01*
X0027575Y0023900D01*
X0039684Y0023900D01*
X0046070Y0017514D01*
X0046070Y0017514D01*
X0047007Y0016577D02*
X0042130Y0016577D01*
X0042461Y0015778D02*
X0057876Y0015778D01*
X0058674Y0014979D02*
X0042729Y0014979D01*
X0042729Y0014181D02*
X0097706Y0014181D01*
X0097706Y0014683D02*
X0093706Y0014683D01*
X0093706Y0017629D01*
X0093815Y0018313D01*
X0094029Y0018972D01*
X0090058Y0018972D01*
X0090554Y0019771D02*
X0094475Y0019771D01*
X0094343Y0019589D02*
X0094029Y0018972D01*
X0094343Y0019589D02*
X0094750Y0020149D01*
X0095240Y0020639D01*
X0095800Y0021046D01*
X0096417Y0021361D01*
X0097076Y0021575D01*
X0097706Y0021675D01*
X0097706Y0014683D01*
X0097706Y0014979D02*
X0098506Y0014979D01*
X0098506Y0014683D02*
X0098506Y0021675D01*
X0099137Y0021575D01*
X0099795Y0021361D01*
X0100412Y0021046D01*
X0100973Y0020639D01*
X0101462Y0020149D01*
X0101870Y0019589D01*
X0102184Y0018972D01*
X0104476Y0018972D01*
X0104146Y0018174D02*
X0102420Y0018174D01*
X0102398Y0018313D02*
X0102184Y0018972D01*
X0102398Y0018313D02*
X0102506Y0017629D01*
X0102506Y0014683D01*
X0098506Y0014683D01*
X0098506Y0014181D02*
X0104106Y0014181D01*
X0104106Y0014979D02*
X0102506Y0014979D01*
X0102506Y0015778D02*
X0104106Y0015778D01*
X0104106Y0016577D02*
X0102506Y0016577D01*
X0102506Y0017375D02*
X0104106Y0017375D01*
X0104937Y0019771D02*
X0101738Y0019771D01*
X0101043Y0020569D02*
X0105735Y0020569D01*
X0110477Y0020569D02*
X0115735Y0020569D01*
X0114937Y0019771D02*
X0111276Y0019771D01*
X0111736Y0018972D02*
X0114476Y0018972D01*
X0114146Y0018174D02*
X0112067Y0018174D01*
X0112106Y0017375D02*
X0114106Y0017375D01*
X0114106Y0016577D02*
X0112106Y0016577D01*
X0112106Y0015778D02*
X0114106Y0015778D01*
X0114106Y0014979D02*
X0112106Y0014979D01*
X0112106Y0014181D02*
X0114106Y0014181D01*
X0114106Y0013382D02*
X0112106Y0013382D01*
X0112106Y0012584D02*
X0114106Y0012584D01*
X0114106Y0011785D02*
X0112106Y0011785D01*
X0112106Y0010987D02*
X0114106Y0010987D01*
X0114230Y0010188D02*
X0111982Y0010188D01*
X0111652Y0009390D02*
X0114561Y0009390D01*
X0115141Y0008591D02*
X0111072Y0008591D01*
X0105141Y0008591D02*
X0101589Y0008591D01*
X0102080Y0009390D02*
X0104561Y0009390D01*
X0104230Y0010188D02*
X0102377Y0010188D01*
X0102506Y0010987D02*
X0104106Y0010987D01*
X0104106Y0011785D02*
X0102506Y0011785D01*
X0102506Y0012584D02*
X0104106Y0012584D01*
X0104106Y0013382D02*
X0102506Y0013382D01*
X0098506Y0015778D02*
X0097706Y0015778D01*
X0097706Y0016577D02*
X0098506Y0016577D01*
X0098506Y0017375D02*
X0097706Y0017375D01*
X0097706Y0018174D02*
X0098506Y0018174D01*
X0098506Y0018972D02*
X0097706Y0018972D01*
X0097706Y0019771D02*
X0098506Y0019771D01*
X0098506Y0020569D02*
X0097706Y0020569D01*
X0097706Y0021368D02*
X0098506Y0021368D01*
X0099774Y0021368D02*
X0136267Y0021368D01*
X0136267Y0022166D02*
X0090554Y0022166D01*
X0090554Y0021368D02*
X0096439Y0021368D01*
X0095170Y0020569D02*
X0090554Y0020569D01*
X0090554Y0022965D02*
X0136267Y0022965D01*
X0136267Y0023763D02*
X0090554Y0023763D01*
X0090051Y0024562D02*
X0136266Y0024562D01*
X0135468Y0025360D02*
X0069809Y0025360D01*
X0070511Y0026159D02*
X0134669Y0026159D01*
X0137365Y0028554D02*
X0156239Y0028554D01*
X0156239Y0027756D02*
X0138163Y0027756D01*
X0138813Y0027107D02*
X0138813Y0027107D01*
X0138962Y0026957D02*
X0156239Y0026957D01*
X0156239Y0026159D02*
X0139761Y0026159D01*
X0139867Y0025360D02*
X0156239Y0025360D01*
X0156239Y0024562D02*
X0139867Y0024562D01*
X0139867Y0023763D02*
X0156239Y0023763D01*
X0156239Y0022965D02*
X0139867Y0022965D01*
X0139867Y0022166D02*
X0156239Y0022166D01*
X0156239Y0021368D02*
X0139867Y0021368D01*
X0140477Y0020569D02*
X0145735Y0020569D01*
X0144937Y0019771D02*
X0141276Y0019771D01*
X0141736Y0018972D02*
X0144476Y0018972D01*
X0144146Y0018174D02*
X0142067Y0018174D01*
X0142106Y0017375D02*
X0144106Y0017375D01*
X0144106Y0016577D02*
X0142106Y0016577D01*
X0142106Y0015778D02*
X0144106Y0015778D01*
X0144106Y0014979D02*
X0142106Y0014979D01*
X0142106Y0014181D02*
X0144106Y0014181D01*
X0144106Y0013382D02*
X0142106Y0013382D01*
X0142106Y0012584D02*
X0144106Y0012584D01*
X0144106Y0011785D02*
X0142106Y0011785D01*
X0142106Y0010987D02*
X0144106Y0010987D01*
X0144230Y0010188D02*
X0141982Y0010188D01*
X0141652Y0009390D02*
X0144561Y0009390D01*
X0145141Y0008591D02*
X0141072Y0008591D01*
X0135141Y0008591D02*
X0131072Y0008591D01*
X0131652Y0009390D02*
X0134561Y0009390D01*
X0134230Y0010188D02*
X0131982Y0010188D01*
X0132106Y0010987D02*
X0134106Y0010987D01*
X0134106Y0011785D02*
X0132106Y0011785D01*
X0132106Y0012584D02*
X0134106Y0012584D01*
X0134106Y0013382D02*
X0132106Y0013382D01*
X0132106Y0014181D02*
X0134106Y0014181D01*
X0134106Y0014979D02*
X0132106Y0014979D01*
X0132106Y0015778D02*
X0134106Y0015778D01*
X0134106Y0016577D02*
X0132106Y0016577D01*
X0132106Y0017375D02*
X0134106Y0017375D01*
X0134146Y0018174D02*
X0132067Y0018174D01*
X0131736Y0018972D02*
X0134476Y0018972D01*
X0134937Y0019771D02*
X0131276Y0019771D01*
X0130477Y0020569D02*
X0135735Y0020569D01*
X0125735Y0020569D02*
X0120477Y0020569D01*
X0121276Y0019771D02*
X0124937Y0019771D01*
X0124476Y0018972D02*
X0121736Y0018972D01*
X0122067Y0018174D02*
X0124146Y0018174D01*
X0124106Y0017375D02*
X0122106Y0017375D01*
X0122106Y0016577D02*
X0124106Y0016577D01*
X0124106Y0015778D02*
X0122106Y0015778D01*
X0122106Y0014979D02*
X0124106Y0014979D01*
X0124106Y0014181D02*
X0122106Y0014181D01*
X0122106Y0013382D02*
X0124106Y0013382D01*
X0124106Y0012584D02*
X0122106Y0012584D01*
X0122106Y0011785D02*
X0124106Y0011785D01*
X0124106Y0010987D02*
X0122106Y0010987D01*
X0121982Y0010188D02*
X0124230Y0010188D01*
X0124561Y0009390D02*
X0121652Y0009390D01*
X0121072Y0008591D02*
X0125141Y0008591D01*
X0150477Y0020569D02*
X0156239Y0020569D01*
X0156239Y0019771D02*
X0151276Y0019771D01*
X0151736Y0018972D02*
X0156239Y0018972D01*
X0156239Y0018174D02*
X0152067Y0018174D01*
X0152106Y0017375D02*
X0156239Y0017375D01*
X0156239Y0016577D02*
X0152106Y0016577D01*
X0152106Y0015778D02*
X0156239Y0015778D01*
X0156239Y0014979D02*
X0152106Y0014979D01*
X0152106Y0014181D02*
X0156239Y0014181D01*
X0156239Y0013382D02*
X0152106Y0013382D01*
X0152106Y0012584D02*
X0156239Y0012584D01*
X0156239Y0011785D02*
X0152106Y0011785D01*
X0152106Y0010987D02*
X0156239Y0010987D01*
X0156239Y0010188D02*
X0151982Y0010188D01*
X0151652Y0009390D02*
X0156107Y0009390D01*
X0155512Y0008591D02*
X0151072Y0008591D01*
X0136914Y0029005D02*
X0136914Y0029005D01*
X0136566Y0029353D02*
X0156239Y0029353D01*
X0156239Y0030151D02*
X0070597Y0030151D01*
X0070018Y0030950D02*
X0089058Y0030950D01*
X0089315Y0030693D02*
X0093906Y0030693D01*
X0094491Y0031279D01*
X0094491Y0031774D01*
X0123852Y0031774D01*
X0127789Y0035711D01*
X0128843Y0036766D01*
X0128843Y0040703D01*
X0131726Y0043585D01*
X0134882Y0043585D01*
X0134882Y0042452D01*
X0135468Y0041866D01*
X0140233Y0041866D01*
X0140819Y0042452D01*
X0140819Y0047611D01*
X0140233Y0048196D01*
X0135468Y0048196D01*
X0134882Y0047611D01*
X0134882Y0047185D01*
X0130235Y0047185D01*
X0129180Y0046131D01*
X0125243Y0042194D01*
X0125243Y0038257D01*
X0122361Y0035374D01*
X0108718Y0035374D01*
X0108808Y0035427D01*
X0109069Y0035687D01*
X0109253Y0036006D01*
X0109349Y0036363D01*
X0109349Y0042741D01*
X0104097Y0042741D01*
X0104097Y0043541D01*
X0109349Y0043541D01*
X0109349Y0049920D01*
X0109253Y0050276D01*
X0109069Y0050595D01*
X0108808Y0050856D01*
X0108489Y0051040D01*
X0108133Y0051136D01*
X0104097Y0051136D01*
X0104097Y0043541D01*
X0103297Y0043541D01*
X0103297Y0042741D01*
X0098045Y0042741D01*
X0098045Y0036363D01*
X0098140Y0036006D01*
X0098325Y0035687D01*
X0098585Y0035427D01*
X0098676Y0035374D01*
X0094491Y0035374D01*
X0094491Y0035870D01*
X0093906Y0036455D01*
X0089315Y0036455D01*
X0088729Y0035870D01*
X0088729Y0031279D01*
X0089315Y0030693D01*
X0088729Y0031748D02*
X0069081Y0031748D01*
X0067847Y0034259D02*
X0069317Y0034868D01*
X0070442Y0035994D01*
X0071051Y0037464D01*
X0071051Y0039055D01*
X0070442Y0040525D01*
X0069317Y0041650D01*
X0067847Y0042259D01*
X0060256Y0042259D01*
X0058785Y0041650D01*
X0057660Y0040525D01*
X0057467Y0040059D01*
X0044364Y0040059D01*
X0042229Y0042194D01*
X0041175Y0043248D01*
X0027575Y0043248D01*
X0027531Y0043353D01*
X0026586Y0044299D01*
X0025350Y0044811D01*
X0024012Y0044811D01*
X0022777Y0044299D01*
X0021831Y0043353D01*
X0021319Y0042117D01*
X0021319Y0040780D01*
X0021831Y0039544D01*
X0022777Y0038598D01*
X0024012Y0038086D01*
X0025350Y0038086D01*
X0026586Y0038598D01*
X0027531Y0039544D01*
X0027575Y0039648D01*
X0039684Y0039648D01*
X0041818Y0037514D01*
X0042873Y0036459D01*
X0057467Y0036459D01*
X0057660Y0035994D01*
X0058785Y0034868D01*
X0060256Y0034259D01*
X0067847Y0034259D01*
X0069391Y0034942D02*
X0088729Y0034942D01*
X0088729Y0034144D02*
X0042405Y0034144D01*
X0041607Y0034942D02*
X0058711Y0034942D01*
X0057913Y0035741D02*
X0027270Y0035741D01*
X0026309Y0036539D02*
X0042793Y0036539D01*
X0041994Y0037338D02*
X0019107Y0037338D01*
X0019107Y0038136D02*
X0023891Y0038136D01*
X0025471Y0038136D02*
X0041196Y0038136D01*
X0040397Y0038935D02*
X0026922Y0038935D01*
X0023053Y0036539D02*
X0019107Y0036539D01*
X0019107Y0035741D02*
X0022093Y0035741D01*
X0021608Y0034942D02*
X0019107Y0034942D01*
X0019107Y0034144D02*
X0021319Y0034144D01*
X0021319Y0033345D02*
X0019107Y0033345D01*
X0019107Y0032547D02*
X0021468Y0032547D01*
X0021798Y0031748D02*
X0019107Y0031748D01*
X0019107Y0030950D02*
X0022551Y0030950D01*
X0022785Y0028554D02*
X0019107Y0028554D01*
X0019107Y0027756D02*
X0021982Y0027756D01*
X0021562Y0026957D02*
X0019107Y0026957D01*
X0019107Y0026159D02*
X0021319Y0026159D01*
X0021319Y0025360D02*
X0019107Y0025360D01*
X0019107Y0024562D02*
X0021514Y0024562D01*
X0021863Y0023763D02*
X0019107Y0023763D01*
X0019107Y0022965D02*
X0022662Y0022965D01*
X0019107Y0022166D02*
X0041418Y0022166D01*
X0042216Y0021368D02*
X0019170Y0021368D01*
X0026700Y0022965D02*
X0040619Y0022965D01*
X0039821Y0023763D02*
X0027499Y0023763D01*
X0027381Y0027756D02*
X0043702Y0027756D01*
X0042904Y0028554D02*
X0026577Y0028554D01*
X0026811Y0030950D02*
X0040508Y0030950D01*
X0039710Y0031748D02*
X0027564Y0031748D01*
X0019107Y0030151D02*
X0041307Y0030151D01*
X0042105Y0029353D02*
X0019107Y0029353D01*
X0019107Y0038935D02*
X0022440Y0038935D01*
X0021752Y0039733D02*
X0019107Y0039733D01*
X0019107Y0040532D02*
X0021422Y0040532D01*
X0021319Y0041330D02*
X0019107Y0041330D01*
X0019107Y0042129D02*
X0021324Y0042129D01*
X0021655Y0042927D02*
X0019107Y0042927D01*
X0019107Y0043726D02*
X0022204Y0043726D01*
X0023321Y0044524D02*
X0019107Y0044524D01*
X0019107Y0045323D02*
X0058331Y0045323D01*
X0058785Y0044868D02*
X0057660Y0045994D01*
X0057467Y0046459D01*
X0044684Y0046459D01*
X0043629Y0047514D01*
X0043629Y0047514D01*
X0043621Y0047522D01*
X0027575Y0047522D01*
X0027531Y0047418D01*
X0026586Y0046472D01*
X0025350Y0045960D01*
X0024012Y0045960D01*
X0022777Y0046472D01*
X0021831Y0047418D01*
X0021319Y0048654D01*
X0021319Y0049991D01*
X0021831Y0051227D01*
X0022777Y0052173D01*
X0024012Y0052685D01*
X0025350Y0052685D01*
X0026586Y0052173D01*
X0027531Y0051227D01*
X0027575Y0051122D01*
X0045112Y0051122D01*
X0046166Y0050068D01*
X0046175Y0050059D01*
X0057467Y0050059D01*
X0057660Y0050525D01*
X0058785Y0051650D01*
X0060256Y0052259D01*
X0067847Y0052259D01*
X0069317Y0051650D01*
X0070442Y0050525D01*
X0070635Y0050059D01*
X0081928Y0050059D01*
X0085873Y0054005D01*
X0086928Y0055059D01*
X0106613Y0055059D01*
X0124172Y0072618D01*
X0133583Y0072618D01*
X0134283Y0073318D01*
X0133583Y0074018D01*
X0122789Y0074018D01*
X0106284Y0057514D01*
X0105230Y0056459D01*
X0070635Y0056459D01*
X0070442Y0055994D01*
X0069317Y0054868D01*
X0067847Y0054259D01*
X0060256Y0054259D01*
X0058785Y0054868D01*
X0057660Y0055994D01*
X0057467Y0056459D01*
X0046175Y0056459D01*
X0046166Y0056451D01*
X0045112Y0055396D01*
X0027575Y0055396D01*
X0027531Y0055292D01*
X0026586Y0054346D01*
X0025350Y0053834D01*
X0024012Y0053834D01*
X0022777Y0054346D01*
X0021831Y0055292D01*
X0021319Y0056528D01*
X0021319Y0057865D01*
X0021831Y0059101D01*
X0022777Y0060047D01*
X0024012Y0060559D01*
X0025350Y0060559D01*
X0026586Y0060047D01*
X0027531Y0059101D01*
X0027575Y0058996D01*
X0043621Y0058996D01*
X0043629Y0059005D01*
X0044684Y0060059D01*
X0057467Y0060059D01*
X0057660Y0060525D01*
X0058785Y0061650D01*
X0060256Y0062259D01*
X0067847Y0062259D01*
X0069317Y0061650D01*
X0070442Y0060525D01*
X0070635Y0060059D01*
X0103739Y0060059D01*
X0120243Y0076564D01*
X0121298Y0077618D01*
X0133583Y0077618D01*
X0134283Y0078318D01*
X0133526Y0079075D01*
X0133057Y0080206D01*
X0133057Y0081431D01*
X0133526Y0082562D01*
X0134283Y0083318D01*
X0133526Y0084075D01*
X0133057Y0085206D01*
X0133057Y0086431D01*
X0133526Y0087562D01*
X0134283Y0088318D01*
X0133583Y0089018D01*
X0108860Y0089018D01*
X0108949Y0088930D01*
X0108949Y0074912D01*
X0108363Y0074326D01*
X0099031Y0074326D01*
X0098445Y0074912D01*
X0098445Y0079018D01*
X0096293Y0079018D01*
X0083734Y0066459D01*
X0070635Y0066459D01*
X0070442Y0065994D01*
X0069317Y0064868D01*
X0067847Y0064259D01*
X0060256Y0064259D01*
X0058785Y0064868D01*
X0057660Y0065994D01*
X0057467Y0066459D01*
X0044364Y0066459D01*
X0042229Y0064325D01*
X0041175Y0063270D01*
X0027575Y0063270D01*
X0027531Y0063166D01*
X0026586Y0062220D01*
X0025350Y0061708D01*
X0024012Y0061708D01*
X0022777Y0062220D01*
X0021831Y0063166D01*
X0021319Y0064402D01*
X0021319Y0065739D01*
X0021831Y0066975D01*
X0022777Y0067921D01*
X0024012Y0068433D01*
X0025350Y0068433D01*
X0026586Y0067921D01*
X0027531Y0066975D01*
X0027575Y0066870D01*
X0039684Y0066870D01*
X0041818Y0069005D01*
X0041818Y0069005D01*
X0042873Y0070059D01*
X0057467Y0070059D01*
X0057660Y0070525D01*
X0058785Y0071650D01*
X0060256Y0072259D01*
X0067847Y0072259D01*
X0069317Y0071650D01*
X0070442Y0070525D01*
X0070635Y0070059D01*
X0082243Y0070059D01*
X0093747Y0081564D01*
X0094802Y0082618D01*
X0098445Y0082618D01*
X0098445Y0088930D01*
X0099031Y0089515D01*
X0101699Y0089515D01*
X0102676Y0090492D01*
X0104802Y0092618D01*
X0133583Y0092618D01*
X0134392Y0093428D01*
X0135523Y0093896D01*
X0140904Y0093896D01*
X0142035Y0093428D01*
X0142791Y0092671D01*
X0143548Y0093428D01*
X0144679Y0093896D01*
X0150059Y0093896D01*
X0151191Y0093428D01*
X0152057Y0092562D01*
X0152525Y0091431D01*
X0152525Y0090206D01*
X0152057Y0089075D01*
X0151191Y0088209D01*
X0150059Y0087741D01*
X0144679Y0087741D01*
X0143548Y0088209D01*
X0142791Y0088966D01*
X0142144Y0088318D01*
X0142901Y0087562D01*
X0143369Y0086431D01*
X0143369Y0085206D01*
X0142901Y0084075D01*
X0142144Y0083318D01*
X0142525Y0082938D01*
X0142590Y0083036D01*
X0143074Y0083520D01*
X0143644Y0083901D01*
X0144277Y0084163D01*
X0144949Y0084296D01*
X0145002Y0084296D01*
X0145002Y0081108D01*
X0145580Y0081108D01*
X0145580Y0084296D01*
X0149790Y0084296D01*
X0150462Y0084163D01*
X0151095Y0083901D01*
X0151664Y0083520D01*
X0152149Y0083036D01*
X0152529Y0082466D01*
X0152792Y0081833D01*
X0152925Y0081161D01*
X0152925Y0081107D01*
X0145580Y0081107D01*
X0145580Y0080529D01*
X0145580Y0077341D01*
X0145580Y0076108D01*
X0145002Y0076108D01*
X0145002Y0080529D01*
X0145580Y0080529D01*
X0152925Y0080529D01*
X0152925Y0080476D01*
X0152792Y0079804D01*
X0152529Y0079171D01*
X0152149Y0078601D01*
X0151866Y0078318D01*
X0152149Y0078036D01*
X0152529Y0077466D01*
X0152792Y0076833D01*
X0152925Y0076161D01*
X0152925Y0076107D01*
X0145580Y0076107D01*
X0145580Y0075529D01*
X0152925Y0075529D01*
X0152925Y0075476D01*
X0152792Y0074804D01*
X0152529Y0074171D01*
X0152149Y0073601D01*
X0151664Y0073117D01*
X0151567Y0073052D01*
X0152057Y0072562D01*
X0152525Y0071431D01*
X0152525Y0070206D01*
X0152057Y0069075D01*
X0151191Y0068209D01*
X0150059Y0067741D01*
X0147091Y0067741D01*
X0147091Y0062888D01*
X0143537Y0059333D01*
X0141735Y0059333D01*
X0141735Y0058838D01*
X0141150Y0058252D01*
X0136559Y0058252D01*
X0135973Y0058838D01*
X0135973Y0063429D01*
X0136559Y0064015D01*
X0141150Y0064015D01*
X0141735Y0063429D01*
X0141735Y0062933D01*
X0142046Y0062933D01*
X0143491Y0064379D01*
X0143491Y0068266D01*
X0142791Y0068966D01*
X0142035Y0068209D01*
X0140904Y0067741D01*
X0135523Y0067741D01*
X0134392Y0068209D01*
X0133583Y0069018D01*
X0125663Y0069018D01*
X0108104Y0051459D01*
X0088419Y0051459D01*
X0083419Y0046459D01*
X0070635Y0046459D01*
X0070442Y0045994D01*
X0069317Y0044868D01*
X0067847Y0044259D01*
X0060256Y0044259D01*
X0058785Y0044868D01*
X0059616Y0044524D02*
X0026041Y0044524D01*
X0027158Y0043726D02*
X0098045Y0043726D01*
X0098045Y0043541D02*
X0103297Y0043541D01*
X0103297Y0051136D01*
X0099261Y0051136D01*
X0098905Y0051040D01*
X0098585Y0050856D01*
X0098325Y0050595D01*
X0098140Y0050276D01*
X0098045Y0049920D01*
X0098045Y0043541D01*
X0098045Y0044524D02*
X0068487Y0044524D01*
X0069772Y0045323D02*
X0098045Y0045323D01*
X0098045Y0046121D02*
X0070495Y0046121D01*
X0070613Y0050114D02*
X0081982Y0050114D01*
X0082781Y0050912D02*
X0070055Y0050912D01*
X0069171Y0051711D02*
X0083579Y0051711D01*
X0084378Y0052510D02*
X0025773Y0052510D01*
X0027047Y0051711D02*
X0058932Y0051711D01*
X0058047Y0050912D02*
X0045322Y0050912D01*
X0046120Y0050114D02*
X0057490Y0050114D01*
X0057607Y0046121D02*
X0025739Y0046121D01*
X0027034Y0046920D02*
X0044223Y0046920D01*
X0041496Y0042927D02*
X0103297Y0042927D01*
X0103297Y0043726D02*
X0104097Y0043726D01*
X0104097Y0044524D02*
X0103297Y0044524D01*
X0103297Y0045323D02*
X0104097Y0045323D01*
X0104097Y0046121D02*
X0103297Y0046121D01*
X0103297Y0046920D02*
X0104097Y0046920D01*
X0104097Y0047718D02*
X0103297Y0047718D01*
X0103297Y0048517D02*
X0104097Y0048517D01*
X0104097Y0049315D02*
X0103297Y0049315D01*
X0103297Y0050114D02*
X0104097Y0050114D01*
X0104097Y0050912D02*
X0103297Y0050912D01*
X0098683Y0050912D02*
X0087872Y0050912D01*
X0087073Y0050114D02*
X0098097Y0050114D01*
X0098045Y0049315D02*
X0086275Y0049315D01*
X0085476Y0048517D02*
X0098045Y0048517D01*
X0098045Y0047718D02*
X0084678Y0047718D01*
X0083879Y0046920D02*
X0098045Y0046920D01*
X0104097Y0042927D02*
X0125977Y0042927D01*
X0125243Y0042129D02*
X0109349Y0042129D01*
X0109349Y0041330D02*
X0125243Y0041330D01*
X0125243Y0040532D02*
X0109349Y0040532D01*
X0109349Y0039733D02*
X0125243Y0039733D01*
X0125243Y0038935D02*
X0109349Y0038935D01*
X0109349Y0038136D02*
X0125123Y0038136D01*
X0124324Y0037338D02*
X0109349Y0037338D01*
X0109349Y0036539D02*
X0123526Y0036539D01*
X0122727Y0035741D02*
X0109100Y0035741D01*
X0098294Y0035741D02*
X0094491Y0035741D01*
X0098045Y0036539D02*
X0070668Y0036539D01*
X0070999Y0037338D02*
X0098045Y0037338D01*
X0098045Y0038136D02*
X0071051Y0038136D01*
X0071051Y0038935D02*
X0098045Y0038935D01*
X0098045Y0039733D02*
X0070770Y0039733D01*
X0070436Y0040532D02*
X0098045Y0040532D01*
X0098045Y0041330D02*
X0069637Y0041330D01*
X0068162Y0042129D02*
X0098045Y0042129D01*
X0088729Y0035741D02*
X0070189Y0035741D01*
X0059021Y0031748D02*
X0044801Y0031748D01*
X0045599Y0030950D02*
X0058085Y0030950D01*
X0057505Y0030151D02*
X0046398Y0030151D01*
X0044002Y0032547D02*
X0088729Y0032547D01*
X0088729Y0033345D02*
X0043204Y0033345D01*
X0044501Y0026957D02*
X0041718Y0026957D01*
X0042516Y0026159D02*
X0057592Y0026159D01*
X0058294Y0025360D02*
X0043315Y0025360D01*
X0044113Y0024562D02*
X0059526Y0024562D01*
X0060030Y0022166D02*
X0046509Y0022166D01*
X0047308Y0021368D02*
X0058502Y0021368D01*
X0057704Y0020569D02*
X0048106Y0020569D01*
X0045710Y0022965D02*
X0084792Y0022965D01*
X0084792Y0023763D02*
X0044912Y0023763D01*
X0042729Y0013382D02*
X0093706Y0013382D01*
X0093706Y0012584D02*
X0042729Y0012584D01*
X0042729Y0011785D02*
X0093706Y0011785D01*
X0093706Y0010987D02*
X0042729Y0010987D01*
X0042729Y0010188D02*
X0093836Y0010188D01*
X0094133Y0009390D02*
X0042861Y0009390D01*
X0043456Y0008591D02*
X0094623Y0008591D01*
X0093706Y0014979D02*
X0069428Y0014979D01*
X0070227Y0015778D02*
X0093706Y0015778D01*
X0093706Y0016577D02*
X0085032Y0016577D01*
X0085830Y0017375D02*
X0093706Y0017375D01*
X0093793Y0018174D02*
X0086629Y0018174D01*
X0083933Y0020569D02*
X0070398Y0020569D01*
X0069600Y0021368D02*
X0084732Y0021368D01*
X0084792Y0022166D02*
X0068072Y0022166D01*
X0068576Y0024562D02*
X0085295Y0024562D01*
X0094162Y0030950D02*
X0156239Y0030950D01*
X0156239Y0031748D02*
X0094491Y0031748D01*
X0109349Y0043726D02*
X0126775Y0043726D01*
X0127574Y0044524D02*
X0109349Y0044524D01*
X0109349Y0045323D02*
X0128372Y0045323D01*
X0129171Y0046121D02*
X0109349Y0046121D01*
X0109349Y0046920D02*
X0129969Y0046920D01*
X0131068Y0042927D02*
X0134882Y0042927D01*
X0135205Y0042129D02*
X0130269Y0042129D01*
X0129471Y0041330D02*
X0142743Y0041330D01*
X0142743Y0041866D02*
X0142743Y0040106D01*
X0142161Y0040106D01*
X0141575Y0039520D01*
X0141575Y0035542D01*
X0142161Y0034956D01*
X0146139Y0034956D01*
X0146724Y0035542D01*
X0146724Y0039520D01*
X0146343Y0039901D01*
X0146343Y0041866D01*
X0146926Y0041866D01*
X0147512Y0042452D01*
X0147512Y0047611D01*
X0146926Y0048196D01*
X0142161Y0048196D01*
X0141575Y0047611D01*
X0141575Y0042452D01*
X0142161Y0041866D01*
X0142743Y0041866D01*
X0141897Y0042129D02*
X0140496Y0042129D01*
X0140819Y0042927D02*
X0141575Y0042927D01*
X0141575Y0043726D02*
X0140819Y0043726D01*
X0140819Y0044524D02*
X0141575Y0044524D01*
X0141575Y0045323D02*
X0140819Y0045323D01*
X0140819Y0046121D02*
X0141575Y0046121D01*
X0141575Y0046920D02*
X0140819Y0046920D01*
X0140711Y0047718D02*
X0141683Y0047718D01*
X0134990Y0047718D02*
X0109349Y0047718D01*
X0109349Y0048517D02*
X0156239Y0048517D01*
X0156239Y0049315D02*
X0109349Y0049315D01*
X0109297Y0050114D02*
X0156239Y0050114D01*
X0156239Y0050912D02*
X0108711Y0050912D01*
X0108355Y0051711D02*
X0156239Y0051711D01*
X0156239Y0052510D02*
X0109154Y0052510D01*
X0109952Y0053308D02*
X0156239Y0053308D01*
X0156239Y0054107D02*
X0110751Y0054107D01*
X0111549Y0054905D02*
X0156239Y0054905D01*
X0156239Y0055704D02*
X0112348Y0055704D01*
X0113147Y0056502D02*
X0156239Y0056502D01*
X0156239Y0057301D02*
X0113945Y0057301D01*
X0114744Y0058099D02*
X0156239Y0058099D01*
X0156239Y0058898D02*
X0141735Y0058898D01*
X0143900Y0059696D02*
X0156239Y0059696D01*
X0156239Y0060495D02*
X0144698Y0060495D01*
X0145497Y0061293D02*
X0156239Y0061293D01*
X0156239Y0062092D02*
X0146295Y0062092D01*
X0147091Y0062890D02*
X0156239Y0062890D01*
X0156239Y0063689D02*
X0147091Y0063689D01*
X0147091Y0064487D02*
X0156239Y0064487D01*
X0156239Y0065286D02*
X0147091Y0065286D01*
X0147091Y0066084D02*
X0156239Y0066084D01*
X0156239Y0066883D02*
X0147091Y0066883D01*
X0147091Y0067681D02*
X0156239Y0067681D01*
X0156239Y0068480D02*
X0151461Y0068480D01*
X0152141Y0069278D02*
X0156239Y0069278D01*
X0156239Y0070077D02*
X0152472Y0070077D01*
X0152525Y0070875D02*
X0156239Y0070875D01*
X0156239Y0071674D02*
X0152425Y0071674D01*
X0152094Y0072472D02*
X0156239Y0072472D01*
X0156239Y0073271D02*
X0151818Y0073271D01*
X0152461Y0074069D02*
X0156239Y0074069D01*
X0156239Y0074868D02*
X0152804Y0074868D01*
X0152865Y0076465D02*
X0156239Y0076465D01*
X0156239Y0077263D02*
X0152613Y0077263D01*
X0152122Y0078062D02*
X0156239Y0078062D01*
X0156239Y0078860D02*
X0152322Y0078860D01*
X0152731Y0079659D02*
X0156239Y0079659D01*
X0156239Y0080457D02*
X0152922Y0080457D01*
X0152906Y0081256D02*
X0156239Y0081256D01*
X0156239Y0082054D02*
X0152700Y0082054D01*
X0152271Y0082853D02*
X0156239Y0082853D01*
X0156239Y0083651D02*
X0151468Y0083651D01*
X0156239Y0084450D02*
X0143056Y0084450D01*
X0143271Y0083651D02*
X0142477Y0083651D01*
X0143369Y0085248D02*
X0156239Y0085248D01*
X0156239Y0086047D02*
X0143369Y0086047D01*
X0143197Y0086846D02*
X0156239Y0086846D01*
X0156239Y0087644D02*
X0142819Y0087644D01*
X0143314Y0088443D02*
X0142268Y0088443D01*
X0142229Y0093234D02*
X0143354Y0093234D01*
X0151385Y0093234D02*
X0156239Y0093234D01*
X0156239Y0094032D02*
X0042729Y0094032D01*
X0042729Y0093234D02*
X0134198Y0093234D01*
X0134159Y0088443D02*
X0108949Y0088443D01*
X0108949Y0087644D02*
X0133608Y0087644D01*
X0133229Y0086846D02*
X0108949Y0086846D01*
X0108949Y0086047D02*
X0133057Y0086047D01*
X0133057Y0085248D02*
X0108949Y0085248D01*
X0108949Y0084450D02*
X0133371Y0084450D01*
X0133950Y0083651D02*
X0108949Y0083651D01*
X0108949Y0082853D02*
X0133817Y0082853D01*
X0133316Y0082054D02*
X0108949Y0082054D01*
X0108949Y0081256D02*
X0133057Y0081256D01*
X0133057Y0080457D02*
X0108949Y0080457D01*
X0108949Y0079659D02*
X0133284Y0079659D01*
X0133741Y0078860D02*
X0108949Y0078860D01*
X0108949Y0078062D02*
X0134026Y0078062D01*
X0134235Y0073271D02*
X0122041Y0073271D01*
X0121243Y0072472D02*
X0124026Y0072472D01*
X0123227Y0071674D02*
X0120444Y0071674D01*
X0119646Y0070875D02*
X0122429Y0070875D01*
X0121630Y0070077D02*
X0118847Y0070077D01*
X0118049Y0069278D02*
X0120832Y0069278D01*
X0120033Y0068480D02*
X0117250Y0068480D01*
X0116452Y0067681D02*
X0119235Y0067681D01*
X0118436Y0066883D02*
X0115653Y0066883D01*
X0114855Y0066084D02*
X0117637Y0066084D01*
X0116839Y0065286D02*
X0114056Y0065286D01*
X0113258Y0064487D02*
X0116040Y0064487D01*
X0115242Y0063689D02*
X0112459Y0063689D01*
X0111661Y0062890D02*
X0114443Y0062890D01*
X0113645Y0062092D02*
X0110862Y0062092D01*
X0110064Y0061293D02*
X0112846Y0061293D01*
X0112048Y0060495D02*
X0109265Y0060495D01*
X0108467Y0059696D02*
X0111249Y0059696D01*
X0110451Y0058898D02*
X0107668Y0058898D01*
X0106870Y0058099D02*
X0109652Y0058099D01*
X0108854Y0057301D02*
X0106071Y0057301D01*
X0105273Y0056502D02*
X0108055Y0056502D01*
X0107257Y0055704D02*
X0070152Y0055704D01*
X0069354Y0054905D02*
X0086773Y0054905D01*
X0085975Y0054107D02*
X0026007Y0054107D01*
X0027145Y0054905D02*
X0058749Y0054905D01*
X0057950Y0055704D02*
X0045419Y0055704D01*
X0044320Y0059696D02*
X0026936Y0059696D01*
X0025504Y0060495D02*
X0057647Y0060495D01*
X0058428Y0061293D02*
X0019107Y0061293D01*
X0019107Y0060495D02*
X0023858Y0060495D01*
X0022426Y0059696D02*
X0019107Y0059696D01*
X0019107Y0058898D02*
X0021747Y0058898D01*
X0021416Y0058099D02*
X0019107Y0058099D01*
X0019107Y0057301D02*
X0021319Y0057301D01*
X0021329Y0056502D02*
X0019107Y0056502D01*
X0019107Y0055704D02*
X0021660Y0055704D01*
X0022218Y0054905D02*
X0019107Y0054905D01*
X0019107Y0054107D02*
X0023355Y0054107D01*
X0023590Y0052510D02*
X0019107Y0052510D01*
X0019107Y0053308D02*
X0085176Y0053308D01*
X0070455Y0060495D02*
X0104174Y0060495D01*
X0104972Y0061293D02*
X0069674Y0061293D01*
X0068252Y0062092D02*
X0105771Y0062092D01*
X0106569Y0062890D02*
X0027256Y0062890D01*
X0026276Y0062092D02*
X0059851Y0062092D01*
X0059706Y0064487D02*
X0042391Y0064487D01*
X0041593Y0063689D02*
X0107368Y0063689D01*
X0108166Y0064487D02*
X0068397Y0064487D01*
X0069734Y0065286D02*
X0108965Y0065286D01*
X0109763Y0066084D02*
X0070480Y0066084D01*
X0070628Y0070077D02*
X0082260Y0070077D01*
X0083058Y0070875D02*
X0070092Y0070875D01*
X0069261Y0071674D02*
X0083857Y0071674D01*
X0084655Y0072472D02*
X0042503Y0072472D01*
X0042229Y0072199D02*
X0046490Y0076459D01*
X0057467Y0076459D01*
X0057660Y0075994D01*
X0058785Y0074868D01*
X0060256Y0074259D01*
X0067847Y0074259D01*
X0069317Y0074868D01*
X0070442Y0075994D01*
X0071051Y0077464D01*
X0071051Y0079055D01*
X0070442Y0080525D01*
X0069317Y0081650D01*
X0067847Y0082259D01*
X0060256Y0082259D01*
X0058785Y0081650D01*
X0057660Y0080525D01*
X0057467Y0080059D01*
X0046490Y0080059D01*
X0044999Y0080059D01*
X0039684Y0074744D01*
X0027575Y0074744D01*
X0027531Y0074849D01*
X0026586Y0075795D01*
X0025350Y0076307D01*
X0024012Y0076307D01*
X0022777Y0075795D01*
X0021831Y0074849D01*
X0021319Y0073613D01*
X0021319Y0072276D01*
X0021831Y0071040D01*
X0022777Y0070094D01*
X0024012Y0069582D01*
X0025350Y0069582D01*
X0026586Y0070094D01*
X0027531Y0071040D01*
X0027575Y0071144D01*
X0041175Y0071144D01*
X0042229Y0072199D01*
X0041704Y0071674D02*
X0058842Y0071674D01*
X0058010Y0070875D02*
X0027367Y0070875D01*
X0026544Y0070077D02*
X0057474Y0070077D01*
X0057623Y0066084D02*
X0043988Y0066084D01*
X0043190Y0065286D02*
X0058368Y0065286D01*
X0058787Y0074868D02*
X0044898Y0074868D01*
X0045697Y0075666D02*
X0057987Y0075666D01*
X0057632Y0080457D02*
X0025069Y0080457D01*
X0025069Y0080431D02*
X0025069Y0081206D01*
X0028443Y0081206D01*
X0028443Y0083365D01*
X0028348Y0083721D01*
X0028164Y0084040D01*
X0027903Y0084301D01*
X0027584Y0084485D01*
X0027228Y0084581D01*
X0025069Y0084581D01*
X0025069Y0081206D01*
X0024294Y0081206D01*
X0024294Y0084581D01*
X0022135Y0084581D01*
X0021779Y0084485D01*
X0021459Y0084301D01*
X0021199Y0084040D01*
X0021014Y0083721D01*
X0020919Y0083365D01*
X0020919Y0081206D01*
X0024294Y0081206D01*
X0024294Y0080431D01*
X0025069Y0080431D01*
X0028443Y0080431D01*
X0028443Y0078272D01*
X0028348Y0077916D01*
X0028164Y0077597D01*
X0027903Y0077336D01*
X0027584Y0077152D01*
X0027228Y0077056D01*
X0025069Y0077056D01*
X0025069Y0080431D01*
X0025069Y0079659D02*
X0024294Y0079659D01*
X0024294Y0080431D02*
X0024294Y0077056D01*
X0022135Y0077056D01*
X0021779Y0077152D01*
X0021459Y0077336D01*
X0021199Y0077597D01*
X0021014Y0077916D01*
X0020919Y0078272D01*
X0020919Y0080431D01*
X0024294Y0080431D01*
X0024294Y0080457D02*
X0019107Y0080457D01*
X0019107Y0079659D02*
X0020919Y0079659D01*
X0020919Y0078860D02*
X0019107Y0078860D01*
X0019107Y0078062D02*
X0020975Y0078062D01*
X0021585Y0077263D02*
X0019107Y0077263D01*
X0019107Y0076465D02*
X0041404Y0076465D01*
X0042202Y0077263D02*
X0027777Y0077263D01*
X0028387Y0078062D02*
X0043001Y0078062D01*
X0043799Y0078860D02*
X0028443Y0078860D01*
X0028443Y0079659D02*
X0044598Y0079659D01*
X0040605Y0075666D02*
X0026714Y0075666D01*
X0027513Y0074868D02*
X0039807Y0074868D01*
X0043301Y0073271D02*
X0085454Y0073271D01*
X0086253Y0074069D02*
X0044100Y0074069D01*
X0042091Y0069278D02*
X0019107Y0069278D01*
X0019107Y0068480D02*
X0041293Y0068480D01*
X0040494Y0067681D02*
X0026825Y0067681D01*
X0027570Y0066883D02*
X0039696Y0066883D01*
X0025069Y0077263D02*
X0024294Y0077263D01*
X0024294Y0078062D02*
X0025069Y0078062D01*
X0025069Y0078860D02*
X0024294Y0078860D01*
X0024294Y0081256D02*
X0025069Y0081256D01*
X0025069Y0082054D02*
X0024294Y0082054D01*
X0024294Y0082853D02*
X0025069Y0082853D01*
X0025069Y0083651D02*
X0024294Y0083651D01*
X0024294Y0084450D02*
X0025069Y0084450D01*
X0027645Y0084450D02*
X0058836Y0084450D01*
X0058745Y0084496D02*
X0059362Y0084182D01*
X0060021Y0083968D01*
X0060705Y0083859D01*
X0063651Y0083859D01*
X0063651Y0087859D01*
X0064451Y0087859D01*
X0064451Y0083859D01*
X0067397Y0083859D01*
X0068082Y0083968D01*
X0068740Y0084182D01*
X0069357Y0084496D01*
X0069918Y0084903D01*
X0070407Y0085393D01*
X0070814Y0085953D01*
X0071129Y0086570D01*
X0071343Y0087229D01*
X0071443Y0087859D01*
X0064451Y0087859D01*
X0064451Y0088659D01*
X0071443Y0088659D01*
X0071343Y0089290D01*
X0071129Y0089948D01*
X0070814Y0090566D01*
X0070407Y0091126D01*
X0069918Y0091616D01*
X0069357Y0092023D01*
X0068740Y0092337D01*
X0068082Y0092551D01*
X0067397Y0092659D01*
X0064451Y0092659D01*
X0064451Y0088659D01*
X0063651Y0088659D01*
X0063651Y0087859D01*
X0056660Y0087859D01*
X0056760Y0087229D01*
X0056974Y0086570D01*
X0057288Y0085953D01*
X0057695Y0085393D01*
X0058185Y0084903D01*
X0058745Y0084496D01*
X0057840Y0085248D02*
X0019210Y0085248D01*
X0019107Y0084450D02*
X0021717Y0084450D01*
X0020996Y0083651D02*
X0019107Y0083651D01*
X0019107Y0082853D02*
X0020919Y0082853D01*
X0020919Y0082054D02*
X0019107Y0082054D01*
X0019107Y0081256D02*
X0020919Y0081256D01*
X0019765Y0086047D02*
X0057240Y0086047D01*
X0056884Y0086846D02*
X0038826Y0086846D01*
X0040327Y0087644D02*
X0056694Y0087644D01*
X0056660Y0088659D02*
X0063651Y0088659D01*
X0063651Y0092659D01*
X0060705Y0092659D01*
X0060021Y0092551D01*
X0059362Y0092337D01*
X0058745Y0092023D01*
X0058185Y0091616D01*
X0057695Y0091126D01*
X0057288Y0090566D01*
X0056974Y0089948D01*
X0056760Y0089290D01*
X0056660Y0088659D01*
X0056752Y0089241D02*
X0041839Y0089241D01*
X0041780Y0089097D02*
X0041780Y0089097D01*
X0041126Y0088443D02*
X0063651Y0088443D01*
X0063651Y0089241D02*
X0064451Y0089241D01*
X0064451Y0088443D02*
X0098445Y0088443D01*
X0098445Y0087644D02*
X0071409Y0087644D01*
X0071218Y0086846D02*
X0098445Y0086846D01*
X0098445Y0086047D02*
X0070862Y0086047D01*
X0070263Y0085248D02*
X0098445Y0085248D01*
X0098445Y0084450D02*
X0069267Y0084450D01*
X0068342Y0082054D02*
X0094238Y0082054D01*
X0093439Y0081256D02*
X0069712Y0081256D01*
X0070470Y0080457D02*
X0092641Y0080457D01*
X0091842Y0079659D02*
X0070801Y0079659D01*
X0071051Y0078860D02*
X0091044Y0078860D01*
X0090245Y0078062D02*
X0071051Y0078062D01*
X0070968Y0077263D02*
X0089447Y0077263D01*
X0088648Y0076465D02*
X0070637Y0076465D01*
X0070115Y0075666D02*
X0087850Y0075666D01*
X0087051Y0074868D02*
X0069316Y0074868D01*
X0059761Y0082054D02*
X0028443Y0082054D01*
X0028443Y0081256D02*
X0058391Y0081256D01*
X0063651Y0084450D02*
X0064451Y0084450D01*
X0064451Y0085248D02*
X0063651Y0085248D01*
X0063651Y0086047D02*
X0064451Y0086047D01*
X0064451Y0086846D02*
X0063651Y0086846D01*
X0063651Y0087644D02*
X0064451Y0087644D01*
X0064451Y0090040D02*
X0063651Y0090040D01*
X0063651Y0090838D02*
X0064451Y0090838D01*
X0064451Y0091637D02*
X0063651Y0091637D01*
X0063651Y0092435D02*
X0064451Y0092435D01*
X0068438Y0092435D02*
X0104618Y0092435D01*
X0103820Y0091637D02*
X0069889Y0091637D01*
X0070616Y0090838D02*
X0103021Y0090838D01*
X0102223Y0090040D02*
X0071082Y0090040D01*
X0071351Y0089241D02*
X0098756Y0089241D01*
X0098445Y0083651D02*
X0028367Y0083651D01*
X0028443Y0082853D02*
X0098445Y0082853D01*
X0098445Y0078860D02*
X0096135Y0078860D01*
X0095336Y0078062D02*
X0098445Y0078062D01*
X0098445Y0077263D02*
X0094538Y0077263D01*
X0093739Y0076465D02*
X0098445Y0076465D01*
X0098445Y0075666D02*
X0092941Y0075666D01*
X0092142Y0074868D02*
X0098489Y0074868D01*
X0091344Y0074069D02*
X0117749Y0074069D01*
X0118547Y0074868D02*
X0108905Y0074868D01*
X0108949Y0075666D02*
X0119346Y0075666D01*
X0120144Y0076465D02*
X0108949Y0076465D01*
X0108949Y0077263D02*
X0120943Y0077263D01*
X0116950Y0073271D02*
X0090545Y0073271D01*
X0089747Y0072472D02*
X0116152Y0072472D01*
X0115353Y0071674D02*
X0088948Y0071674D01*
X0088150Y0070875D02*
X0114555Y0070875D01*
X0113756Y0070077D02*
X0087351Y0070077D01*
X0086553Y0069278D02*
X0112958Y0069278D01*
X0112159Y0068480D02*
X0085754Y0068480D01*
X0084956Y0067681D02*
X0111360Y0067681D01*
X0110562Y0066883D02*
X0084157Y0066883D01*
X0115542Y0058898D02*
X0135973Y0058898D01*
X0135973Y0059696D02*
X0116341Y0059696D01*
X0117139Y0060495D02*
X0135973Y0060495D01*
X0135973Y0061293D02*
X0117938Y0061293D01*
X0118736Y0062092D02*
X0135973Y0062092D01*
X0135973Y0062890D02*
X0119535Y0062890D01*
X0120333Y0063689D02*
X0136233Y0063689D01*
X0141476Y0063689D02*
X0142801Y0063689D01*
X0143491Y0064487D02*
X0121132Y0064487D01*
X0121930Y0065286D02*
X0143491Y0065286D01*
X0143491Y0066084D02*
X0122729Y0066084D01*
X0123527Y0066883D02*
X0143491Y0066883D01*
X0143491Y0067681D02*
X0124326Y0067681D01*
X0125124Y0068480D02*
X0134121Y0068480D01*
X0142305Y0068480D02*
X0143277Y0068480D01*
X0145580Y0075666D02*
X0156239Y0075666D01*
X0145580Y0076465D02*
X0145002Y0076465D01*
X0145002Y0077263D02*
X0145580Y0077263D01*
X0145580Y0078062D02*
X0145002Y0078062D01*
X0145002Y0078860D02*
X0145580Y0078860D01*
X0145580Y0079659D02*
X0145002Y0079659D01*
X0145002Y0080457D02*
X0145580Y0080457D01*
X0145580Y0081256D02*
X0145002Y0081256D01*
X0145002Y0082054D02*
X0145580Y0082054D01*
X0145580Y0082853D02*
X0145002Y0082853D01*
X0145002Y0083651D02*
X0145580Y0083651D01*
X0151424Y0088443D02*
X0156239Y0088443D01*
X0156239Y0089241D02*
X0152125Y0089241D01*
X0152456Y0090040D02*
X0156239Y0090040D01*
X0156239Y0090838D02*
X0152525Y0090838D01*
X0152440Y0091637D02*
X0156239Y0091637D01*
X0156239Y0092435D02*
X0152109Y0092435D01*
X0156239Y0094831D02*
X0042729Y0094831D01*
X0042729Y0095629D02*
X0156239Y0095629D01*
X0156239Y0096428D02*
X0042729Y0096428D01*
X0042902Y0097226D02*
X0156067Y0097226D01*
X0155278Y0098025D02*
X0043691Y0098025D01*
X0042729Y0092435D02*
X0059664Y0092435D01*
X0058214Y0091637D02*
X0042729Y0091637D01*
X0042501Y0090838D02*
X0057486Y0090838D01*
X0057020Y0090040D02*
X0042170Y0090040D01*
X0022648Y0075666D02*
X0019107Y0075666D01*
X0019107Y0074868D02*
X0021850Y0074868D01*
X0021508Y0074069D02*
X0019107Y0074069D01*
X0019107Y0073271D02*
X0021319Y0073271D01*
X0021319Y0072472D02*
X0019107Y0072472D01*
X0019107Y0071674D02*
X0021568Y0071674D01*
X0021995Y0070875D02*
X0019107Y0070875D01*
X0019107Y0070077D02*
X0022818Y0070077D01*
X0022537Y0067681D02*
X0019107Y0067681D01*
X0019107Y0066883D02*
X0021793Y0066883D01*
X0021462Y0066084D02*
X0019107Y0066084D01*
X0019107Y0065286D02*
X0021319Y0065286D01*
X0021319Y0064487D02*
X0019107Y0064487D01*
X0019107Y0063689D02*
X0021614Y0063689D01*
X0022107Y0062890D02*
X0019107Y0062890D01*
X0019107Y0062092D02*
X0023087Y0062092D01*
X0022315Y0051711D02*
X0019107Y0051711D01*
X0019107Y0050912D02*
X0021701Y0050912D01*
X0021370Y0050114D02*
X0019107Y0050114D01*
X0019107Y0049315D02*
X0021319Y0049315D01*
X0021376Y0048517D02*
X0019107Y0048517D01*
X0019107Y0047718D02*
X0021706Y0047718D01*
X0022329Y0046920D02*
X0019107Y0046920D01*
X0019107Y0046121D02*
X0023623Y0046121D01*
X0042294Y0042129D02*
X0059940Y0042129D01*
X0058465Y0041330D02*
X0043093Y0041330D01*
X0043891Y0040532D02*
X0057667Y0040532D01*
X0124624Y0032547D02*
X0156239Y0032547D01*
X0156239Y0033345D02*
X0125423Y0033345D01*
X0126221Y0034144D02*
X0156239Y0034144D01*
X0156239Y0034942D02*
X0140785Y0034942D01*
X0140679Y0034836D02*
X0140939Y0035097D01*
X0141123Y0035416D01*
X0141219Y0035772D01*
X0141219Y0037144D01*
X0138632Y0037144D01*
X0138632Y0037918D01*
X0141219Y0037918D01*
X0141219Y0039290D01*
X0141123Y0039646D01*
X0140939Y0039965D01*
X0140679Y0040226D01*
X0140359Y0040410D01*
X0140003Y0040506D01*
X0138632Y0040506D01*
X0138632Y0037919D01*
X0137857Y0037919D01*
X0137857Y0040506D01*
X0136485Y0040506D01*
X0136129Y0040410D01*
X0135810Y0040226D01*
X0135549Y0039965D01*
X0135365Y0039646D01*
X0135269Y0039290D01*
X0135269Y0037918D01*
X0137857Y0037918D01*
X0137857Y0037144D01*
X0135269Y0037144D01*
X0135269Y0035772D01*
X0135365Y0035416D01*
X0135549Y0035097D01*
X0135810Y0034836D01*
X0136129Y0034652D01*
X0136485Y0034556D01*
X0137857Y0034556D01*
X0137857Y0037144D01*
X0138632Y0037144D01*
X0138632Y0034556D01*
X0140003Y0034556D01*
X0140359Y0034652D01*
X0140679Y0034836D01*
X0141211Y0035741D02*
X0141575Y0035741D01*
X0141575Y0036539D02*
X0141219Y0036539D01*
X0141575Y0037338D02*
X0138632Y0037338D01*
X0137857Y0037338D02*
X0128843Y0037338D01*
X0128843Y0038136D02*
X0135269Y0038136D01*
X0135269Y0038935D02*
X0128843Y0038935D01*
X0128843Y0039733D02*
X0135415Y0039733D01*
X0137857Y0039733D02*
X0138632Y0039733D01*
X0138632Y0038935D02*
X0137857Y0038935D01*
X0137857Y0038136D02*
X0138632Y0038136D01*
X0138632Y0036539D02*
X0137857Y0036539D01*
X0137857Y0035741D02*
X0138632Y0035741D01*
X0138632Y0034942D02*
X0137857Y0034942D01*
X0135703Y0034942D02*
X0127020Y0034942D01*
X0127818Y0035741D02*
X0135278Y0035741D01*
X0135269Y0036539D02*
X0128617Y0036539D01*
X0128843Y0040532D02*
X0142743Y0040532D01*
X0141788Y0039733D02*
X0141073Y0039733D01*
X0141219Y0038935D02*
X0141575Y0038935D01*
X0141575Y0038136D02*
X0141219Y0038136D01*
X0146724Y0038136D02*
X0156239Y0038136D01*
X0156239Y0037338D02*
X0146724Y0037338D01*
X0146724Y0036539D02*
X0156239Y0036539D01*
X0156239Y0035741D02*
X0146724Y0035741D01*
X0146724Y0038935D02*
X0156239Y0038935D01*
X0156239Y0039733D02*
X0146511Y0039733D01*
X0146343Y0040532D02*
X0156239Y0040532D01*
X0156239Y0041330D02*
X0146343Y0041330D01*
X0147189Y0042129D02*
X0156239Y0042129D01*
X0156239Y0042927D02*
X0147512Y0042927D01*
X0147512Y0043726D02*
X0156239Y0043726D01*
X0156239Y0044524D02*
X0147512Y0044524D01*
X0147512Y0045323D02*
X0156239Y0045323D01*
X0156239Y0046121D02*
X0147512Y0046121D01*
X0147512Y0046920D02*
X0156239Y0046920D01*
X0156239Y0047718D02*
X0147404Y0047718D01*
D18*
X0144543Y0045031D02*
X0144543Y0037925D01*
X0144150Y0037531D01*
X0137850Y0045031D02*
X0137496Y0045385D01*
X0130980Y0045385D01*
X0127043Y0041448D01*
X0127043Y0037511D01*
X0123106Y0033574D01*
X0091610Y0033574D01*
X0087673Y0021763D02*
X0084169Y0018259D01*
X0064051Y0018259D01*
X0047870Y0018259D01*
X0040429Y0025700D01*
X0024681Y0025700D01*
X0024681Y0033574D02*
X0040429Y0033574D01*
X0045744Y0028259D01*
X0064051Y0028259D01*
X0135114Y0028259D01*
X0138067Y0025307D01*
X0138067Y0014322D01*
X0138106Y0014283D01*
X0138067Y0013929D01*
X0087673Y0053259D02*
X0082673Y0048259D01*
X0064051Y0048259D01*
X0045429Y0048259D01*
X0044366Y0049322D01*
X0024681Y0049322D01*
X0024681Y0057196D02*
X0044366Y0057196D01*
X0045429Y0058259D01*
X0064051Y0058259D01*
X0104484Y0058259D01*
X0122043Y0075818D01*
X0140291Y0075818D01*
X0140291Y0070818D02*
X0124917Y0070818D01*
X0107358Y0053259D01*
X0087673Y0053259D01*
X0082988Y0068259D02*
X0064051Y0068259D01*
X0043618Y0068259D01*
X0040429Y0065070D01*
X0024681Y0065070D01*
X0024681Y0072944D02*
X0040429Y0072944D01*
X0045744Y0078259D01*
X0064051Y0078259D01*
X0082988Y0068259D02*
X0095547Y0080818D01*
X0102595Y0080818D01*
X0103697Y0081921D01*
X0103421Y0082196D01*
X0103421Y0088692D01*
X0105547Y0090818D01*
X0140291Y0090818D01*
X0145291Y0070818D02*
X0145291Y0063633D01*
X0142791Y0061133D01*
X0138854Y0061133D01*
X0104307Y0082531D02*
X0103697Y0081921D01*
X0043618Y0038259D02*
X0040429Y0041448D01*
X0024681Y0041448D01*
X0043618Y0038259D02*
X0064051Y0038259D01*
D19*
X0087673Y0021763D03*
X0091610Y0033574D03*
X0138854Y0061133D03*
M02*
