G75*
%MOIN*%
%OFA0B0*%
%FSLAX25Y25*%
%IPPOS*%
%LPD*%
%AMOC8*
5,1,8,0,0,1.08239X$1,22.5*
%
%ADD10C,0.04656*%
%ADD11C,0.06500*%
%ADD12R,0.03650X0.03650*%
%ADD13R,0.04437X0.04831*%
%ADD14R,0.09004X0.13689*%
%ADD15R,0.05224X0.05224*%
%ADD16C,0.05224*%
%ADD17R,0.04262X0.04262*%
D10*
X0136135Y0070818D02*
X0140291Y0070818D01*
X0145291Y0070818D02*
X0149447Y0070818D01*
X0149447Y0075818D02*
X0145291Y0075818D01*
X0140291Y0075818D02*
X0136135Y0075818D01*
X0136135Y0080818D02*
X0140291Y0080818D01*
X0145291Y0080818D02*
X0149447Y0080818D01*
X0140291Y0085818D02*
X0136135Y0085818D01*
X0136135Y0090818D02*
X0140291Y0090818D01*
X0145291Y0090818D02*
X0149447Y0090818D01*
D11*
X0067051Y0088259D02*
X0061051Y0088259D01*
X0061051Y0078259D02*
X0067051Y0078259D01*
X0067051Y0068259D02*
X0061051Y0068259D01*
X0061051Y0058259D02*
X0067051Y0058259D01*
X0067051Y0048259D02*
X0061051Y0048259D01*
X0061051Y0038259D02*
X0067051Y0038259D01*
X0067051Y0028259D02*
X0061051Y0028259D01*
X0061051Y0018259D02*
X0067051Y0018259D01*
X0098106Y0017283D02*
X0098106Y0011283D01*
X0108106Y0011283D02*
X0108106Y0017283D01*
X0118106Y0017283D02*
X0118106Y0011283D01*
X0128106Y0011283D02*
X0128106Y0017283D01*
X0138106Y0017283D02*
X0138106Y0011283D01*
X0148106Y0011283D02*
X0148106Y0017283D01*
D12*
X0144150Y0037531D03*
X0138244Y0037531D03*
D13*
X0137850Y0045031D03*
X0144543Y0045031D03*
D14*
X0103697Y0043141D03*
X0103697Y0081921D03*
D15*
X0024681Y0080818D03*
D16*
X0024681Y0025700D03*
X0024681Y0033574D03*
X0024681Y0041448D03*
X0024681Y0049322D03*
X0024681Y0057196D03*
X0024681Y0065070D03*
X0024681Y0072944D03*
D17*
X0091610Y0033574D03*
X0087673Y0021763D03*
X0138854Y0061133D03*
M02*
