G75*
%MOIN*%
%OFA0B0*%
%FSLAX25Y25*%
%IPPOS*%
%LPD*%
%AMOC8*
5,1,8,0,0,1.08239X$1,22.5*
%
%ADD10C,0.00400*%
%ADD11C,0.00300*%
%ADD12C,0.00600*%
%ADD13R,0.00984X0.00984*%
%ADD14C,0.00800*%
%ADD15C,0.00394*%
%ADD16C,0.00500*%
D10*
X0033132Y0027006D02*
X0034641Y0025498D01*
X0033132Y0027006D02*
X0037657Y0027006D01*
X0037657Y0025498D02*
X0037657Y0028514D01*
X0036903Y0030029D02*
X0037657Y0030783D01*
X0037657Y0032292D01*
X0036903Y0033046D01*
X0033132Y0033046D01*
X0033132Y0030029D02*
X0036903Y0030029D01*
X0040514Y0027383D02*
X0040514Y0025120D01*
X0045039Y0025120D01*
X0045039Y0027383D01*
X0044285Y0028137D01*
X0041268Y0028137D01*
X0040514Y0027383D01*
X0042777Y0029651D02*
X0042023Y0030406D01*
X0042023Y0031914D01*
X0042777Y0032668D01*
X0043531Y0032668D01*
X0043531Y0029651D01*
X0044285Y0029651D02*
X0042777Y0029651D01*
X0044285Y0029651D02*
X0045039Y0030406D01*
X0045039Y0031914D01*
X0045039Y0034183D02*
X0045039Y0036445D01*
X0044285Y0037200D01*
X0042777Y0037200D01*
X0042023Y0036445D01*
X0042023Y0034183D01*
X0040514Y0034183D02*
X0045039Y0034183D01*
X0047896Y0036826D02*
X0052421Y0036826D01*
X0050159Y0036826D02*
X0049405Y0037580D01*
X0049405Y0039089D01*
X0050159Y0039843D01*
X0052421Y0039843D01*
X0051667Y0042112D02*
X0048650Y0042112D01*
X0049405Y0041358D02*
X0049405Y0042866D01*
X0049405Y0044378D02*
X0049405Y0045887D01*
X0048650Y0045133D02*
X0051667Y0045133D01*
X0052421Y0045887D01*
X0052421Y0047399D02*
X0052421Y0049662D01*
X0051667Y0050416D01*
X0050159Y0050416D01*
X0049405Y0049662D01*
X0049405Y0047399D01*
X0053930Y0047399D01*
X0052421Y0051931D02*
X0051667Y0051931D01*
X0051667Y0052685D01*
X0052421Y0052685D01*
X0052421Y0051931D01*
X0050159Y0051931D02*
X0049405Y0051931D01*
X0049405Y0052685D01*
X0050159Y0052685D01*
X0050159Y0051931D01*
X0052421Y0054197D02*
X0047896Y0057213D01*
X0045039Y0056840D02*
X0042023Y0056840D01*
X0043531Y0056840D02*
X0042023Y0058348D01*
X0042023Y0059102D01*
X0042777Y0060616D02*
X0042023Y0061370D01*
X0042023Y0062879D01*
X0042777Y0063633D01*
X0043531Y0063633D01*
X0043531Y0060616D01*
X0044285Y0060616D02*
X0042777Y0060616D01*
X0044285Y0060616D02*
X0045039Y0061370D01*
X0045039Y0062879D01*
X0044285Y0065148D02*
X0043531Y0065902D01*
X0043531Y0068164D01*
X0042777Y0068164D02*
X0045039Y0068164D01*
X0045039Y0065902D01*
X0044285Y0065148D01*
X0042023Y0065902D02*
X0042023Y0067410D01*
X0042777Y0068164D01*
X0043531Y0069679D02*
X0042023Y0071941D01*
X0042777Y0073455D02*
X0044285Y0073455D01*
X0045039Y0074209D01*
X0045039Y0075718D01*
X0044285Y0076472D01*
X0042777Y0076472D01*
X0042023Y0075718D01*
X0042023Y0074209D01*
X0042777Y0073455D01*
X0045039Y0071941D02*
X0043531Y0069679D01*
X0045039Y0069679D02*
X0040514Y0069679D01*
X0037657Y0069300D02*
X0036903Y0068546D01*
X0036149Y0069300D01*
X0036149Y0071563D01*
X0035395Y0071563D02*
X0034641Y0070809D01*
X0034641Y0069300D01*
X0035395Y0071563D02*
X0037657Y0071563D01*
X0037657Y0069300D01*
X0035395Y0067031D02*
X0036149Y0066277D01*
X0036149Y0064015D01*
X0037657Y0064015D02*
X0033132Y0064015D01*
X0033132Y0066277D01*
X0033887Y0067031D01*
X0035395Y0067031D01*
X0034641Y0073078D02*
X0034641Y0075340D01*
X0035395Y0076094D01*
X0037657Y0076094D01*
X0036903Y0077609D02*
X0035395Y0077609D01*
X0034641Y0078363D01*
X0034641Y0079871D01*
X0035395Y0080626D01*
X0036149Y0080626D01*
X0036149Y0077609D01*
X0036903Y0077609D02*
X0037657Y0078363D01*
X0037657Y0079871D01*
X0037657Y0082140D02*
X0037657Y0083649D01*
X0037657Y0082895D02*
X0033132Y0082895D01*
X0033132Y0082140D01*
X0041268Y0083272D02*
X0044285Y0083272D01*
X0045039Y0084026D01*
X0042023Y0084026D02*
X0042023Y0082518D01*
X0042023Y0081003D02*
X0045039Y0081003D01*
X0045039Y0078741D01*
X0044285Y0077987D01*
X0042023Y0077987D01*
X0037657Y0073078D02*
X0034641Y0073078D01*
X0049405Y0072321D02*
X0049405Y0073830D01*
X0050159Y0074584D01*
X0050913Y0074584D01*
X0050913Y0071567D01*
X0051667Y0071567D02*
X0050159Y0071567D01*
X0049405Y0072321D01*
X0049405Y0070053D02*
X0049405Y0069299D01*
X0050913Y0067791D01*
X0052421Y0067791D02*
X0049405Y0067791D01*
X0050159Y0066276D02*
X0049405Y0065522D01*
X0049405Y0064014D01*
X0050159Y0063259D01*
X0051667Y0063259D01*
X0052421Y0064014D01*
X0052421Y0065522D01*
X0051667Y0066276D01*
X0050159Y0066276D01*
X0047896Y0061745D02*
X0052421Y0058728D01*
X0045039Y0054571D02*
X0045039Y0052308D01*
X0040514Y0052308D01*
X0040514Y0054571D01*
X0041268Y0055325D01*
X0042023Y0055325D01*
X0042777Y0054571D01*
X0042777Y0052308D01*
X0042777Y0054571D02*
X0043531Y0055325D01*
X0044285Y0055325D01*
X0045039Y0054571D01*
X0037657Y0054192D02*
X0037657Y0051930D01*
X0036903Y0051176D01*
X0036149Y0051930D01*
X0036149Y0054192D01*
X0035395Y0054192D02*
X0034641Y0053438D01*
X0034641Y0051930D01*
X0035395Y0054192D02*
X0037657Y0054192D01*
X0037657Y0055707D02*
X0034641Y0055707D01*
X0036149Y0055707D02*
X0034641Y0057215D01*
X0034641Y0057970D01*
X0037657Y0049663D02*
X0037657Y0048155D01*
X0037657Y0048909D02*
X0033132Y0048909D01*
X0033132Y0048155D01*
X0035395Y0046640D02*
X0034641Y0045886D01*
X0034641Y0044377D01*
X0035395Y0043623D01*
X0036903Y0043623D01*
X0037657Y0044377D01*
X0037657Y0045886D01*
X0036903Y0046640D01*
X0035395Y0046640D01*
X0036149Y0042109D02*
X0035395Y0041354D01*
X0035395Y0039846D01*
X0034641Y0039092D01*
X0033887Y0039092D01*
X0033132Y0039846D01*
X0033132Y0041354D01*
X0033887Y0042109D01*
X0036149Y0042109D02*
X0036903Y0042109D01*
X0037657Y0041354D01*
X0037657Y0039846D01*
X0036903Y0039092D01*
X0042023Y0038714D02*
X0044285Y0038714D01*
X0045039Y0039468D01*
X0045039Y0041731D01*
X0042023Y0041731D01*
X0042777Y0043246D02*
X0044285Y0043246D01*
X0045039Y0044000D01*
X0045039Y0046262D01*
X0045794Y0046262D02*
X0042023Y0046262D01*
X0042023Y0044000D01*
X0042777Y0043246D01*
X0046548Y0044754D02*
X0046548Y0045508D01*
X0045794Y0046262D01*
X0051667Y0042112D02*
X0052421Y0042866D01*
X0052421Y0026251D02*
X0051667Y0025496D01*
X0048650Y0025496D01*
X0049405Y0024742D02*
X0049405Y0026251D01*
X0050159Y0023228D02*
X0049405Y0022473D01*
X0049405Y0020965D01*
X0050913Y0020965D02*
X0050913Y0023228D01*
X0050159Y0023228D02*
X0052421Y0023228D01*
X0052421Y0020965D01*
X0051667Y0020211D01*
X0050913Y0020965D01*
X0050913Y0018696D02*
X0051667Y0018696D01*
X0052421Y0017942D01*
X0052421Y0016434D01*
X0051667Y0015679D01*
X0050159Y0016434D02*
X0050159Y0017942D01*
X0050913Y0018696D01*
X0048650Y0018696D02*
X0047896Y0017942D01*
X0047896Y0016434D01*
X0048650Y0015679D01*
X0049405Y0015679D01*
X0050159Y0016434D01*
X0050159Y0014165D02*
X0050913Y0014165D01*
X0050913Y0011148D01*
X0051667Y0011148D02*
X0050159Y0011148D01*
X0049405Y0011902D01*
X0049405Y0013411D01*
X0050159Y0014165D01*
X0052421Y0013411D02*
X0052421Y0011902D01*
X0051667Y0011148D01*
X0049405Y0009634D02*
X0049405Y0008880D01*
X0050913Y0007372D01*
X0052421Y0007372D02*
X0049405Y0007372D01*
X0048650Y0005857D02*
X0047896Y0005103D01*
X0047896Y0003595D01*
X0048650Y0002840D01*
X0051667Y0002840D01*
X0052421Y0003595D01*
X0052421Y0005103D01*
X0051667Y0005857D01*
X0048650Y0005857D01*
X0051667Y0071567D02*
X0052421Y0072321D01*
X0052421Y0073830D01*
X0052421Y0076098D02*
X0052421Y0078361D01*
X0051667Y0079115D01*
X0050913Y0078361D01*
X0050913Y0076853D01*
X0050159Y0076098D01*
X0049405Y0076853D01*
X0049405Y0079115D01*
X0049405Y0081384D02*
X0049405Y0082892D01*
X0050159Y0083647D01*
X0052421Y0083647D01*
X0052421Y0081384D01*
X0051667Y0080630D01*
X0050913Y0081384D01*
X0050913Y0083647D01*
X0049405Y0085161D02*
X0049405Y0086670D01*
X0048650Y0085915D02*
X0051667Y0085915D01*
X0052421Y0086670D01*
X0052421Y0088182D02*
X0052421Y0088936D01*
X0051667Y0088936D01*
X0051667Y0088182D01*
X0052421Y0088182D01*
X0051667Y0090448D02*
X0050159Y0090448D01*
X0049405Y0091202D01*
X0049405Y0092710D01*
X0050159Y0093465D01*
X0051667Y0093465D01*
X0052421Y0092710D01*
X0052421Y0091202D01*
X0051667Y0090448D01*
X0050913Y0094979D02*
X0049405Y0096488D01*
X0049405Y0097242D01*
X0050159Y0098756D02*
X0049405Y0099510D01*
X0049405Y0101772D01*
X0053175Y0101772D01*
X0053930Y0101018D01*
X0053930Y0100264D01*
X0052421Y0099510D02*
X0052421Y0101772D01*
X0052421Y0103287D02*
X0047896Y0106304D01*
X0050159Y0098756D02*
X0051667Y0098756D01*
X0052421Y0099510D01*
X0052421Y0094979D02*
X0049405Y0094979D01*
D11*
X0072075Y0089514D02*
X0072075Y0087087D01*
X0072682Y0086480D01*
X0073895Y0086480D01*
X0074502Y0087087D01*
X0074502Y0088300D01*
X0073289Y0088300D01*
X0074502Y0089514D02*
X0073895Y0090120D01*
X0072682Y0090120D01*
X0072075Y0089514D01*
X0075700Y0090120D02*
X0078127Y0086480D01*
X0078127Y0090120D01*
X0079325Y0090120D02*
X0081146Y0090120D01*
X0081752Y0089514D01*
X0081752Y0087087D01*
X0081146Y0086480D01*
X0079325Y0086480D01*
X0079325Y0090120D01*
X0075700Y0090120D02*
X0075700Y0086480D01*
X0075700Y0079884D02*
X0075700Y0077457D01*
X0076914Y0076244D01*
X0078127Y0077457D01*
X0078127Y0079884D01*
X0079325Y0079277D02*
X0079932Y0079884D01*
X0081146Y0079884D01*
X0081752Y0079277D01*
X0081752Y0078671D01*
X0081146Y0078064D01*
X0081752Y0077457D01*
X0081752Y0076851D01*
X0081146Y0076244D01*
X0079932Y0076244D01*
X0079325Y0076851D01*
X0080539Y0078064D02*
X0081146Y0078064D01*
X0074502Y0077457D02*
X0074502Y0076851D01*
X0073895Y0076244D01*
X0072682Y0076244D01*
X0072075Y0076851D01*
X0073289Y0078064D02*
X0073895Y0078064D01*
X0074502Y0077457D01*
X0073895Y0078064D02*
X0074502Y0078671D01*
X0074502Y0079277D01*
X0073895Y0079884D01*
X0072682Y0079884D01*
X0072075Y0079277D01*
X0072134Y0070140D02*
X0073954Y0070140D01*
X0074561Y0069533D01*
X0074561Y0068320D01*
X0073954Y0067713D01*
X0072134Y0067713D01*
X0072134Y0066500D02*
X0072134Y0070140D01*
X0073348Y0067713D02*
X0074561Y0066500D01*
X0075759Y0066500D02*
X0078186Y0066500D01*
X0079385Y0067107D02*
X0079991Y0066500D01*
X0081205Y0066500D01*
X0081811Y0067107D01*
X0081811Y0067713D01*
X0081205Y0068320D01*
X0079991Y0068320D01*
X0079385Y0068927D01*
X0079385Y0069533D01*
X0079991Y0070140D01*
X0081205Y0070140D01*
X0081811Y0069533D01*
X0083010Y0070140D02*
X0083010Y0066500D01*
X0085436Y0066500D01*
X0087848Y0066500D02*
X0087848Y0070140D01*
X0086635Y0070140D02*
X0089062Y0070140D01*
X0085436Y0070140D02*
X0083010Y0070140D01*
X0083010Y0068320D02*
X0084223Y0068320D01*
X0078186Y0070140D02*
X0075759Y0070140D01*
X0075759Y0066500D01*
X0075759Y0068320D02*
X0076973Y0068320D01*
X0078186Y0060140D02*
X0078186Y0056500D01*
X0076973Y0057713D01*
X0075759Y0056500D01*
X0075759Y0060140D01*
X0074561Y0059533D02*
X0073954Y0060140D01*
X0072741Y0060140D01*
X0072134Y0059533D01*
X0072134Y0058927D01*
X0072741Y0058320D01*
X0073954Y0058320D01*
X0074561Y0057713D01*
X0074561Y0057107D01*
X0073954Y0056500D01*
X0072741Y0056500D01*
X0072134Y0057107D01*
X0079385Y0056500D02*
X0081205Y0056500D01*
X0081811Y0057107D01*
X0081811Y0059533D01*
X0081205Y0060140D01*
X0079385Y0060140D01*
X0079385Y0056500D01*
X0083010Y0056500D02*
X0084223Y0056500D01*
X0083616Y0056500D02*
X0083616Y0060140D01*
X0083010Y0060140D02*
X0084223Y0060140D01*
X0085426Y0059533D02*
X0085426Y0057107D01*
X0086033Y0056500D01*
X0087246Y0056500D01*
X0087853Y0057107D01*
X0087853Y0059533D01*
X0087246Y0060140D01*
X0086033Y0060140D01*
X0085426Y0059533D01*
X0086635Y0050140D02*
X0086635Y0046500D01*
X0085436Y0046500D02*
X0083010Y0046500D01*
X0083010Y0050140D01*
X0081811Y0049533D02*
X0081205Y0050140D01*
X0079991Y0050140D01*
X0079385Y0049533D01*
X0079385Y0047107D01*
X0079991Y0046500D01*
X0081205Y0046500D01*
X0081811Y0047107D01*
X0078186Y0046500D02*
X0078186Y0050140D01*
X0075759Y0050140D02*
X0075759Y0046500D01*
X0076973Y0047713D01*
X0078186Y0046500D01*
X0074561Y0047107D02*
X0073954Y0046500D01*
X0072741Y0046500D01*
X0072134Y0047107D01*
X0072741Y0048320D02*
X0072134Y0048927D01*
X0072134Y0049533D01*
X0072741Y0050140D01*
X0073954Y0050140D01*
X0074561Y0049533D01*
X0073954Y0048320D02*
X0074561Y0047713D01*
X0074561Y0047107D01*
X0073954Y0048320D02*
X0072741Y0048320D01*
X0073348Y0040140D02*
X0073348Y0036500D01*
X0075759Y0036500D02*
X0078186Y0040140D01*
X0075759Y0040140D02*
X0078186Y0036500D01*
X0074561Y0040140D02*
X0072134Y0040140D01*
X0086635Y0047713D02*
X0089062Y0050140D01*
X0087241Y0048320D02*
X0089062Y0046500D01*
X0112407Y0053461D02*
X0112407Y0055281D01*
X0113013Y0055887D01*
X0114227Y0055887D01*
X0114834Y0055281D01*
X0114834Y0053461D01*
X0116047Y0053461D02*
X0112407Y0053461D01*
X0114834Y0054674D02*
X0116047Y0055887D01*
X0116047Y0057086D02*
X0116047Y0059513D01*
X0115440Y0060711D02*
X0116047Y0061318D01*
X0116047Y0062531D01*
X0115440Y0063138D01*
X0114834Y0063138D01*
X0114227Y0062531D01*
X0114227Y0061318D01*
X0113620Y0060711D01*
X0113013Y0060711D01*
X0112407Y0061318D01*
X0112407Y0062531D01*
X0113013Y0063138D01*
X0112407Y0064336D02*
X0116047Y0064336D01*
X0116047Y0066763D01*
X0114227Y0065550D02*
X0114227Y0064336D01*
X0112407Y0064336D02*
X0112407Y0066763D01*
X0112407Y0067961D02*
X0112407Y0070388D01*
X0112407Y0069175D02*
X0116047Y0069175D01*
X0121042Y0069370D02*
X0121042Y0071797D01*
X0121649Y0072404D01*
X0122862Y0072404D01*
X0123469Y0071797D01*
X0124667Y0072404D02*
X0124667Y0068764D01*
X0127094Y0068764D01*
X0128293Y0068764D02*
X0128293Y0072404D01*
X0128899Y0073882D02*
X0130113Y0073882D01*
X0130719Y0074489D01*
X0130719Y0076915D01*
X0130113Y0077522D01*
X0128899Y0077522D01*
X0128293Y0076915D01*
X0128293Y0074489D01*
X0128899Y0073882D01*
X0127089Y0073882D02*
X0125876Y0073882D01*
X0126482Y0073882D02*
X0126482Y0077522D01*
X0125876Y0077522D02*
X0127089Y0077522D01*
X0124677Y0076915D02*
X0124071Y0077522D01*
X0122251Y0077522D01*
X0122251Y0073882D01*
X0124071Y0073882D01*
X0124677Y0074489D01*
X0124677Y0076915D01*
X0130719Y0072404D02*
X0128293Y0069977D01*
X0128899Y0070584D02*
X0130719Y0068764D01*
X0123469Y0069370D02*
X0122862Y0068764D01*
X0121649Y0068764D01*
X0121042Y0069370D01*
X0112407Y0059513D02*
X0112407Y0057086D01*
X0116047Y0057086D01*
X0114227Y0057086D02*
X0114227Y0058299D01*
X0132139Y0033821D02*
X0133991Y0033821D01*
X0134608Y0033204D01*
X0134608Y0030735D01*
X0133991Y0030118D01*
X0132139Y0030118D01*
X0132139Y0033821D01*
X0135822Y0033821D02*
X0135822Y0030118D01*
X0138291Y0030118D01*
X0139505Y0030118D02*
X0141357Y0030118D01*
X0141974Y0030735D01*
X0141974Y0031352D01*
X0141357Y0031970D01*
X0139505Y0031970D01*
X0139505Y0033821D02*
X0141357Y0033821D01*
X0141974Y0033204D01*
X0141974Y0032587D01*
X0141357Y0031970D01*
X0143188Y0030735D02*
X0143806Y0030118D01*
X0145040Y0030118D01*
X0145657Y0030735D01*
X0145657Y0033821D01*
X0146872Y0033204D02*
X0146872Y0030735D01*
X0147489Y0030118D01*
X0148723Y0030118D01*
X0149340Y0030735D01*
X0149340Y0031970D01*
X0148106Y0031970D01*
X0149340Y0033204D02*
X0148723Y0033821D01*
X0147489Y0033821D01*
X0146872Y0033204D01*
X0143188Y0033821D02*
X0143188Y0030735D01*
X0139505Y0030118D02*
X0139505Y0033821D01*
X0138291Y0033821D02*
X0135822Y0033821D01*
X0135822Y0031970D02*
X0137057Y0031970D01*
X0136385Y0025617D02*
X0134534Y0025617D01*
X0134534Y0021913D01*
X0134534Y0023148D02*
X0136385Y0023148D01*
X0137003Y0023765D01*
X0137003Y0024999D01*
X0136385Y0025617D01*
X0138217Y0025617D02*
X0140686Y0021913D01*
X0138217Y0021913D02*
X0140686Y0025617D01*
X0137003Y0021913D02*
X0135768Y0023148D01*
X0130843Y0021913D02*
X0128374Y0025617D01*
X0127160Y0025617D02*
X0124691Y0025617D01*
X0125926Y0025617D02*
X0125926Y0021913D01*
X0128374Y0021913D02*
X0130843Y0025617D01*
X0089062Y0019533D02*
X0088455Y0020140D01*
X0087241Y0020140D01*
X0086635Y0019533D01*
X0086635Y0017107D01*
X0087241Y0016500D01*
X0088455Y0016500D01*
X0089062Y0017107D01*
X0089062Y0018320D01*
X0087848Y0018320D01*
X0085436Y0017107D02*
X0085436Y0020140D01*
X0083010Y0020140D02*
X0083010Y0017107D01*
X0083616Y0016500D01*
X0084830Y0016500D01*
X0085436Y0017107D01*
X0081811Y0017107D02*
X0081205Y0016500D01*
X0079385Y0016500D01*
X0079385Y0020140D01*
X0081205Y0020140D01*
X0081811Y0019533D01*
X0081811Y0018927D01*
X0081205Y0018320D01*
X0079385Y0018320D01*
X0081205Y0018320D02*
X0081811Y0017713D01*
X0081811Y0017107D01*
X0078186Y0016500D02*
X0075759Y0016500D01*
X0075759Y0020140D01*
X0078186Y0020140D01*
X0076973Y0018320D02*
X0075759Y0018320D01*
X0074561Y0017107D02*
X0073954Y0016500D01*
X0072134Y0016500D01*
X0072134Y0020140D01*
X0073954Y0020140D01*
X0074561Y0019533D01*
X0074561Y0017107D01*
X0074561Y0026500D02*
X0073348Y0027713D01*
X0073954Y0027713D02*
X0072134Y0027713D01*
X0072134Y0026500D02*
X0072134Y0030140D01*
X0073954Y0030140D01*
X0074561Y0029533D01*
X0074561Y0028320D01*
X0073954Y0027713D01*
X0075759Y0026500D02*
X0078186Y0030140D01*
X0075759Y0030140D02*
X0078186Y0026500D01*
X0114009Y0088724D02*
X0114009Y0092364D01*
X0115829Y0092364D01*
X0116435Y0091758D01*
X0116435Y0090544D01*
X0115829Y0089938D01*
X0114009Y0089938D01*
X0115222Y0089938D02*
X0116435Y0088724D01*
X0117634Y0088724D02*
X0120060Y0088724D01*
X0121259Y0089331D02*
X0121865Y0088724D01*
X0123079Y0088724D01*
X0123686Y0089331D01*
X0123686Y0089938D01*
X0123079Y0090544D01*
X0121865Y0090544D01*
X0121259Y0091151D01*
X0121259Y0091758D01*
X0121865Y0092364D01*
X0123079Y0092364D01*
X0123686Y0091758D01*
X0124884Y0092364D02*
X0124884Y0088724D01*
X0127311Y0088724D01*
X0126097Y0090544D02*
X0124884Y0090544D01*
X0124884Y0092364D02*
X0127311Y0092364D01*
X0128509Y0092364D02*
X0130936Y0092364D01*
X0129722Y0092364D02*
X0129722Y0088724D01*
X0120060Y0092364D02*
X0117634Y0092364D01*
X0117634Y0088724D01*
X0117634Y0090544D02*
X0118847Y0090544D01*
D12*
X0132791Y0090818D02*
X0132791Y0070818D01*
X0152791Y0070818D02*
X0152791Y0076818D01*
X0154630Y0071521D02*
X0153829Y0070720D01*
X0154630Y0071521D02*
X0154630Y0069118D01*
X0155430Y0069118D02*
X0153829Y0069118D01*
X0152791Y0084818D02*
X0152791Y0090818D01*
X0138930Y0094618D02*
X0137329Y0094618D01*
X0138130Y0094618D02*
X0138130Y0097021D01*
X0137329Y0096220D01*
X0136168Y0097021D02*
X0135367Y0097021D01*
X0135768Y0097021D02*
X0135768Y0095019D01*
X0135367Y0094618D01*
X0134967Y0094618D01*
X0134567Y0095019D01*
X0101550Y0075902D02*
X0099948Y0075902D01*
X0100749Y0075902D02*
X0100749Y0078304D01*
X0099948Y0077503D01*
X0098787Y0077904D02*
X0098387Y0078304D01*
X0097586Y0078304D01*
X0097186Y0077904D01*
X0097186Y0077503D01*
X0097586Y0077103D01*
X0098387Y0077103D01*
X0098787Y0076703D01*
X0098787Y0076302D01*
X0098387Y0075902D01*
X0097586Y0075902D01*
X0097186Y0076302D01*
X0077383Y0094898D02*
X0075781Y0094898D01*
X0077383Y0096499D01*
X0077383Y0096900D01*
X0076982Y0097300D01*
X0076182Y0097300D01*
X0075781Y0096900D01*
X0074620Y0096900D02*
X0074620Y0096099D01*
X0074220Y0095699D01*
X0073019Y0095699D01*
X0073019Y0094898D02*
X0073019Y0097300D01*
X0074220Y0097300D01*
X0074620Y0096900D01*
X0071858Y0097300D02*
X0071057Y0097300D01*
X0071458Y0097300D02*
X0071458Y0095298D01*
X0071057Y0094898D01*
X0070657Y0094898D01*
X0070257Y0095298D01*
X0066551Y0093259D02*
X0069051Y0090759D01*
X0069051Y0085759D01*
X0066551Y0083259D01*
X0069051Y0080759D01*
X0069051Y0075759D01*
X0066551Y0073259D01*
X0061551Y0073259D01*
X0059051Y0075759D01*
X0059051Y0080759D01*
X0061551Y0083259D01*
X0059051Y0085759D01*
X0059051Y0090759D01*
X0061551Y0093259D01*
X0066551Y0093259D01*
X0058666Y0094898D02*
X0057065Y0094898D01*
X0057865Y0094898D02*
X0057865Y0097300D01*
X0057065Y0096499D01*
X0061551Y0083259D02*
X0066551Y0083259D01*
X0066551Y0073259D02*
X0069051Y0070759D01*
X0069051Y0065759D01*
X0066551Y0063259D01*
X0069051Y0060759D01*
X0069051Y0055759D01*
X0066551Y0053259D01*
X0069051Y0050759D01*
X0069051Y0045759D01*
X0066551Y0043259D01*
X0061551Y0043259D01*
X0059051Y0045759D01*
X0059051Y0050759D01*
X0061551Y0053259D01*
X0059051Y0055759D01*
X0059051Y0060759D01*
X0061551Y0063259D01*
X0059051Y0065759D01*
X0059051Y0070759D01*
X0061551Y0073259D01*
X0061551Y0063259D02*
X0066551Y0063259D01*
X0066551Y0053259D02*
X0061551Y0053259D01*
X0061551Y0043259D02*
X0059051Y0040759D01*
X0059051Y0035759D01*
X0061551Y0033259D01*
X0059051Y0030759D01*
X0059051Y0025759D01*
X0061551Y0023259D01*
X0059051Y0020759D01*
X0059051Y0015759D01*
X0061551Y0013259D01*
X0066551Y0013259D01*
X0069051Y0015759D01*
X0069051Y0020759D01*
X0066551Y0023259D01*
X0061551Y0023259D01*
X0066551Y0023259D02*
X0069051Y0025759D01*
X0069051Y0030759D01*
X0066551Y0033259D01*
X0061551Y0033259D01*
X0066551Y0033259D02*
X0069051Y0035759D01*
X0069051Y0040759D01*
X0066551Y0043259D01*
X0093106Y0016783D02*
X0095606Y0019283D01*
X0100606Y0019283D01*
X0103106Y0016783D01*
X0105606Y0019283D01*
X0110606Y0019283D01*
X0113106Y0016783D01*
X0113106Y0011783D01*
X0110606Y0009283D01*
X0105606Y0009283D01*
X0103106Y0011783D01*
X0100606Y0009283D01*
X0095606Y0009283D01*
X0093106Y0011783D01*
X0093106Y0016783D01*
X0090349Y0011623D02*
X0090749Y0011223D01*
X0090749Y0010822D01*
X0090349Y0010422D01*
X0090749Y0010022D01*
X0090749Y0009621D01*
X0090349Y0009221D01*
X0089548Y0009221D01*
X0089148Y0009621D01*
X0089949Y0010422D02*
X0090349Y0010422D01*
X0090349Y0011623D02*
X0089548Y0011623D01*
X0089148Y0011223D01*
X0087987Y0011223D02*
X0087987Y0010422D01*
X0087587Y0010022D01*
X0086386Y0010022D01*
X0086386Y0009221D02*
X0086386Y0011623D01*
X0087587Y0011623D01*
X0087987Y0011223D01*
X0085225Y0011623D02*
X0084424Y0011623D01*
X0084824Y0011623D02*
X0084824Y0009621D01*
X0084424Y0009221D01*
X0084023Y0009221D01*
X0083623Y0009621D01*
X0103106Y0011783D02*
X0103106Y0016783D01*
X0113106Y0016783D02*
X0115606Y0019283D01*
X0120606Y0019283D01*
X0123106Y0016783D01*
X0125606Y0019283D01*
X0130606Y0019283D01*
X0133106Y0016783D01*
X0135606Y0019283D01*
X0140606Y0019283D01*
X0143106Y0016783D01*
X0145606Y0019283D01*
X0150606Y0019283D01*
X0153106Y0016783D01*
X0153106Y0011783D01*
X0150606Y0009283D01*
X0145606Y0009283D01*
X0143106Y0011783D01*
X0140606Y0009283D01*
X0135606Y0009283D01*
X0133106Y0011783D01*
X0130606Y0009283D01*
X0125606Y0009283D01*
X0123106Y0011783D01*
X0120606Y0009283D01*
X0115606Y0009283D01*
X0113106Y0011783D01*
X0123106Y0011783D02*
X0123106Y0016783D01*
X0133106Y0016783D02*
X0133106Y0011783D01*
X0143106Y0011783D02*
X0143106Y0016783D01*
X0134056Y0036331D02*
X0132455Y0036331D01*
X0133256Y0036331D02*
X0133256Y0038733D01*
X0132455Y0037932D01*
X0131294Y0038333D02*
X0130894Y0038733D01*
X0129693Y0038733D01*
X0129693Y0036331D01*
X0130894Y0036331D01*
X0131294Y0036731D01*
X0131294Y0038333D01*
X0128532Y0038733D02*
X0126930Y0038733D01*
X0126930Y0036331D01*
X0128532Y0036331D01*
X0127731Y0037532D02*
X0126930Y0037532D01*
X0125769Y0036331D02*
X0124168Y0036331D01*
X0124168Y0038733D01*
X0130086Y0043792D02*
X0130086Y0046194D01*
X0131287Y0046194D01*
X0131688Y0045793D01*
X0131688Y0044993D01*
X0131287Y0044592D01*
X0130086Y0044592D01*
X0130887Y0044592D02*
X0131688Y0043792D01*
X0132849Y0043792D02*
X0134450Y0043792D01*
X0133649Y0043792D02*
X0133649Y0046194D01*
X0132849Y0045393D01*
D13*
X0140705Y0037531D03*
D14*
X0110587Y0050720D02*
X0096807Y0050720D01*
X0096807Y0074342D01*
X0110587Y0074342D01*
X0110587Y0050720D01*
X0106394Y0056921D02*
X0101000Y0056921D01*
X0101000Y0068141D01*
X0106394Y0068141D01*
X0106394Y0056921D01*
D15*
X0020744Y0028653D02*
X0020744Y0021763D01*
X0028618Y0021763D01*
X0028618Y0028653D01*
X0027634Y0029637D01*
X0028618Y0030622D01*
X0028618Y0036527D01*
X0027634Y0037511D01*
X0028618Y0038496D01*
X0028618Y0044401D01*
X0027634Y0045385D01*
X0028618Y0046370D01*
X0028618Y0052275D01*
X0027634Y0053259D01*
X0028618Y0054244D01*
X0028618Y0060149D01*
X0027634Y0061133D01*
X0028618Y0062118D01*
X0028618Y0068023D01*
X0027634Y0069007D01*
X0028618Y0069992D01*
X0028618Y0075897D01*
X0027634Y0076881D01*
X0028618Y0077866D01*
X0028618Y0084755D01*
X0020744Y0084755D01*
X0020744Y0077866D01*
X0021728Y0076881D01*
X0020744Y0075897D01*
X0020744Y0069992D01*
X0021728Y0069007D01*
X0020744Y0068023D01*
X0020744Y0062118D01*
X0021728Y0061133D01*
X0020744Y0060149D01*
X0020744Y0054244D01*
X0021728Y0053259D01*
X0020744Y0052275D01*
X0020744Y0046370D01*
X0021728Y0045385D01*
X0020744Y0044401D01*
X0020744Y0038496D01*
X0021728Y0037511D01*
X0020744Y0036527D01*
X0020744Y0030622D01*
X0021728Y0029637D01*
X0020744Y0028653D01*
D16*
X0024465Y0085281D02*
X0023798Y0085948D01*
X0025799Y0085948D01*
X0025799Y0085281D02*
X0025799Y0086616D01*
M02*
